solid OpenSCAD_Model
  facet normal -1 0 0
    outer loop
      vertex 0 5 0
      vertex 0 0 0
      vertex 0 5 2.10942e-014
    endloop
  endfacet
  facet normal -1 0 0
    outer loop
      vertex 0 51 0
      vertex 0 39.75 11.25
      vertex 0 51 51
    endloop
  endfacet
  facet normal -1 0 0
    outer loop
      vertex 0 23 0
      vertex 0 39.75 11.25
      vertex 0 51 0
    endloop
  endfacet
  facet normal -1 0 0
    outer loop
      vertex 0 23 2.10942e-014
      vertex 0 39.75 11.25
      vertex 0 23 0
    endloop
  endfacet
  facet normal -1 0 0
    outer loop
      vertex 0 23 2.10942e-014
      vertex 0 11.25 11.25
      vertex 0 39.75 11.25
    endloop
  endfacet
  facet normal -1 0 0
    outer loop
      vertex 0 5 2.10942e-014
      vertex 0 11.25 11.25
      vertex 0 23 2.10942e-014
    endloop
  endfacet
  facet normal -1 0 0
    outer loop
      vertex 0 0 0
      vertex 0 11.25 11.25
      vertex 0 5 2.10942e-014
    endloop
  endfacet
  facet normal -1 -0 0
    outer loop
      vertex 0 11.25 11.25
      vertex 0 0 0
      vertex 0 0 51
    endloop
  endfacet
  facet normal -1 0 0
    outer loop
      vertex 0 11.25 11.25
      vertex 0 0 51
      vertex 0 11.25 51
    endloop
  endfacet
  facet normal -1 -0 0
    outer loop
      vertex 0 51 51
      vertex 0 39.75 11.25
      vertex 0 39.75 51
    endloop
  endfacet
  facet normal 1 0 0
    outer loop
      vertex 30 11.25 47.75
      vertex 30 3.25 47.75
      vertex 30 11.25 11.25
    endloop
  endfacet
  facet normal 1 0 0
    outer loop
      vertex 30 39.75 11.25
      vertex 30 47.75 47.75
      vertex 30 39.75 47.75
    endloop
  endfacet
  facet normal 1 0 0
    outer loop
      vertex 30 47.75 47.75
      vertex 30 39.75 11.25
      vertex 30 47.75 3.25
    endloop
  endfacet
  facet normal 1 -0 0
    outer loop
      vertex 30 11.25 11.25
      vertex 30 47.75 3.25
      vertex 30 39.75 11.25
    endloop
  endfacet
  facet normal 1 0 0
    outer loop
      vertex 30 11.25 11.25
      vertex 30 3.25 3.25
      vertex 30 47.75 3.25
    endloop
  endfacet
  facet normal 1 0 0
    outer loop
      vertex 30 3.25 3.25
      vertex 30 11.25 11.25
      vertex 30 3.25 47.75
    endloop
  endfacet
  facet normal 0 -1 0
    outer loop
      vertex 0 39.75 51
      vertex 30 39.75 47.75
      vertex 40 39.75 51
    endloop
  endfacet
  facet normal 0 -1 0
    outer loop
      vertex 0 39.75 11.25
      vertex 30 39.75 47.75
      vertex 0 39.75 51
    endloop
  endfacet
  facet normal 0 -1 -0
    outer loop
      vertex 30 39.75 47.75
      vertex 0 39.75 11.25
      vertex 30 39.75 11.25
    endloop
  endfacet
  facet normal 0 -1 -0
    outer loop
      vertex 40 39.75 51
      vertex 30 39.75 47.75
      vertex 40 39.75 47.75
    endloop
  endfacet
  facet normal -0 0 1
    outer loop
      vertex 0 39.75 11.25
      vertex 30 11.25 11.25
      vertex 30 39.75 11.25
    endloop
  endfacet
  facet normal 0 0 1
    outer loop
      vertex 30 11.25 11.25
      vertex 0 39.75 11.25
      vertex 0 11.25 11.25
    endloop
  endfacet
  facet normal 0 1 0
    outer loop
      vertex 30 11.25 47.75
      vertex 40 11.25 51
      vertex 40 11.25 47.75
    endloop
  endfacet
  facet normal 0 1 0
    outer loop
      vertex 40 11.25 51
      vertex 30 11.25 47.75
      vertex 0 11.25 51
    endloop
  endfacet
  facet normal 0 1 0
    outer loop
      vertex 0 11.25 11.25
      vertex 30 11.25 47.75
      vertex 30 11.25 11.25
    endloop
  endfacet
  facet normal 0 1 0
    outer loop
      vertex 30 11.25 47.75
      vertex 0 11.25 11.25
      vertex 0 11.25 51
    endloop
  endfacet
  facet normal 0 0 -1
    outer loop
      vertex 30 3.25 47.75
      vertex 40 11.25 47.75
      vertex 40 3.25 47.75
    endloop
  endfacet
  facet normal -0 0 -1
    outer loop
      vertex 40 11.25 47.75
      vertex 30 3.25 47.75
      vertex 30 11.25 47.75
    endloop
  endfacet
  facet normal 0 0 -1
    outer loop
      vertex 30 39.75 47.75
      vertex 40 47.75 47.75
      vertex 40 39.75 47.75
    endloop
  endfacet
  facet normal -0 0 -1
    outer loop
      vertex 40 47.75 47.75
      vertex 30 39.75 47.75
      vertex 30 47.75 47.75
    endloop
  endfacet
  facet normal -0 0 1
    outer loop
      vertex 30 47.75 3.25
      vertex 51.5 3.25 3.25
      vertex 51.5 47.75 3.25
    endloop
  endfacet
  facet normal 0 0 1
    outer loop
      vertex 51.5 3.25 3.25
      vertex 30 47.75 3.25
      vertex 30 3.25 3.25
    endloop
  endfacet
  facet normal 0 1 0
    outer loop
      vertex 51.5 3.25 51
      vertex 40 3.25 47.75
      vertex 40 3.25 51
    endloop
  endfacet
  facet normal 0 1 -0
    outer loop
      vertex 51.5 3.25 3.25
      vertex 40 3.25 47.75
      vertex 51.5 3.25 51
    endloop
  endfacet
  facet normal 0 1 0
    outer loop
      vertex 30 3.25 3.25
      vertex 40 3.25 47.75
      vertex 51.5 3.25 3.25
    endloop
  endfacet
  facet normal 0 1 0
    outer loop
      vertex 40 3.25 47.75
      vertex 30 3.25 3.25
      vertex 30 3.25 47.75
    endloop
  endfacet
  facet normal 0 -1 0
    outer loop
      vertex 30 47.75 47.75
      vertex 30 47.75 3.25
      vertex 40 47.75 47.75
    endloop
  endfacet
  facet normal 0 -1 0
    outer loop
      vertex 40 47.75 47.75
      vertex 51.5 47.75 51
      vertex 40 47.75 51
    endloop
  endfacet
  facet normal 0 -1 0
    outer loop
      vertex 51.5 47.75 3.25
      vertex 40 47.75 47.75
      vertex 30 47.75 3.25
    endloop
  endfacet
  facet normal 0 -1 0
    outer loop
      vertex 40 47.75 47.75
      vertex 51.5 47.75 3.25
      vertex 51.5 47.75 51
    endloop
  endfacet
  facet normal 1 -0 0
    outer loop
      vertex 40 3.25 51
      vertex 40 11.25 47.75
      vertex 40 11.25 51
    endloop
  endfacet
  facet normal 1 0 0
    outer loop
      vertex 40 11.25 47.75
      vertex 40 3.25 51
      vertex 40 3.25 47.75
    endloop
  endfacet
  facet normal 1 -0 0
    outer loop
      vertex 40 39.75 51
      vertex 40 47.75 47.75
      vertex 40 47.75 51
    endloop
  endfacet
  facet normal 1 0 0
    outer loop
      vertex 40 47.75 47.75
      vertex 40 39.75 51
      vertex 40 39.75 47.75
    endloop
  endfacet
  facet normal -1 0 0
    outer loop
      vertex 51.5 39.75 38.25
      vertex 51.5 47.75 3.25
      vertex 51.5 39.75 11.25
    endloop
  endfacet
  facet normal -1 0 0
    outer loop
      vertex 51.5 47.75 3.25
      vertex 51.5 11.25 11.25
      vertex 51.5 39.75 11.25
    endloop
  endfacet
  facet normal -1 -0 0
    outer loop
      vertex 51.5 11.25 11.25
      vertex 51.5 3.25 3.25
      vertex 51.5 11.25 38.25
    endloop
  endfacet
  facet normal -1 0 0
    outer loop
      vertex 51.5 3.25 3.25
      vertex 51.5 11.25 11.25
      vertex 51.5 47.75 3.25
    endloop
  endfacet
  facet normal -1 0 0
    outer loop
      vertex 51.5 47.75 3.25
      vertex 51.5 39.75 38.25
      vertex 51.5 47.75 51
    endloop
  endfacet
  facet normal -1 0 0
    outer loop
      vertex 51.5 11.25 38.25
      vertex 51.5 47.75 51
      vertex 51.5 39.75 38.25
    endloop
  endfacet
  facet normal -1 0 0
    outer loop
      vertex 51.5 11.25 38.25
      vertex 51.5 3.25 51
      vertex 51.5 47.75 51
    endloop
  endfacet
  facet normal -1 0 0
    outer loop
      vertex 51.5 3.25 51
      vertex 51.5 11.25 38.25
      vertex 51.5 3.25 3.25
    endloop
  endfacet
  facet normal 0 0 -1
    outer loop
      vertex 51.5 11.25 38.25
      vertex 61.5 39.75 38.25
      vertex 61.5 11.25 38.25
    endloop
  endfacet
  facet normal -0 0 -1
    outer loop
      vertex 61.5 39.75 38.25
      vertex 51.5 11.25 38.25
      vertex 51.5 39.75 38.25
    endloop
  endfacet
  facet normal -1 0 0
    outer loop
      vertex 61.5 17.625 11.25
      vertex 61.5 11.25 11.25
      vertex 61.5 17.625 27
    endloop
  endfacet
  facet normal -1 0 0
    outer loop
      vertex 61.5 33.375 27
      vertex 61.5 39.75 11.25
      vertex 61.5 33.375 11.25
    endloop
  endfacet
  facet normal -1 0 0
    outer loop
      vertex 61.5 39.75 11.25
      vertex 61.5 33.375 27
      vertex 61.5 39.75 38.25
    endloop
  endfacet
  facet normal -1 0 0
    outer loop
      vertex 61.5 17.625 27
      vertex 61.5 39.75 38.25
      vertex 61.5 33.375 27
    endloop
  endfacet
  facet normal -1 0 0
    outer loop
      vertex 61.5 17.625 27
      vertex 61.5 11.25 38.25
      vertex 61.5 39.75 38.25
    endloop
  endfacet
  facet normal -1 0 0
    outer loop
      vertex 61.5 11.25 38.25
      vertex 61.5 17.625 27
      vertex 61.5 11.25 11.25
    endloop
  endfacet
  facet normal 0 -1 0
    outer loop
      vertex 51.5 39.75 11.25
      vertex 61.5 39.75 38.25
      vertex 51.5 39.75 38.25
    endloop
  endfacet
  facet normal 0 -1 -0
    outer loop
      vertex 61.5 39.75 38.25
      vertex 51.5 39.75 11.25
      vertex 61.5 39.75 11.25
    endloop
  endfacet
  facet normal -0 0 1
    outer loop
      vertex 51.5 39.75 11.25
      vertex 61.5 33.375 11.25
      vertex 61.5 39.75 11.25
    endloop
  endfacet
  facet normal 0 0 1
    outer loop
      vertex 61.5 33.375 11.25
      vertex 51.5 39.75 11.25
      vertex 61.5 17.625 11.25
    endloop
  endfacet
  facet normal 0 0 1
    outer loop
      vertex 51.5 11.25 11.25
      vertex 61.5 17.625 11.25
      vertex 51.5 39.75 11.25
    endloop
  endfacet
  facet normal 0 0 1
    outer loop
      vertex 61.5 17.625 11.25
      vertex 51.5 11.25 11.25
      vertex 61.5 11.25 11.25
    endloop
  endfacet
  facet normal -0 0 1
    outer loop
      vertex 61.5 33.375 11.25
      vertex 70 17.625 11.25
      vertex 70 33.375 11.25
    endloop
  endfacet
  facet normal 0 0 1
    outer loop
      vertex 70 17.625 11.25
      vertex 61.5 33.375 11.25
      vertex 61.5 17.625 11.25
    endloop
  endfacet
  facet normal 0 0 1
    outer loop
      vertex 70 33.375 11.25
      vertex 91.5 39.75 11.25
      vertex 70 39.75 11.25
    endloop
  endfacet
  facet normal 0 0 1
    outer loop
      vertex 91.5 39.75 11.25
      vertex 70 33.375 11.25
      vertex 91.5 11.25 11.25
    endloop
  endfacet
  facet normal -0 0 1
    outer loop
      vertex 70 17.625 11.25
      vertex 91.5 11.25 11.25
      vertex 70 33.375 11.25
    endloop
  endfacet
  facet normal 0 0 1
    outer loop
      vertex 91.5 11.25 11.25
      vertex 70 17.625 11.25
      vertex 70 11.25 11.25
    endloop
  endfacet
  facet normal 0 1 -0
    outer loop
      vertex 61.5 11.25 11.25
      vertex 51.5 11.25 38.25
      vertex 61.5 11.25 38.25
    endloop
  endfacet
  facet normal 0 1 0
    outer loop
      vertex 51.5 11.25 38.25
      vertex 61.5 11.25 11.25
      vertex 51.5 11.25 11.25
    endloop
  endfacet
  facet normal 0 0 -1
    outer loop
      vertex 61.5 17.625 27
      vertex 70 33.375 27
      vertex 70 17.625 27
    endloop
  endfacet
  facet normal -0 0 -1
    outer loop
      vertex 70 33.375 27
      vertex 61.5 17.625 27
      vertex 61.5 33.375 27
    endloop
  endfacet
  facet normal 0 -1 0
    outer loop
      vertex 61.5 33.375 11.25
      vertex 70 33.375 27
      vertex 61.5 33.375 27
    endloop
  endfacet
  facet normal 0 -1 -0
    outer loop
      vertex 70 33.375 27
      vertex 61.5 33.375 11.25
      vertex 70 33.375 11.25
    endloop
  endfacet
  facet normal 0 1 -0
    outer loop
      vertex 70 17.625 11.25
      vertex 61.5 17.625 27
      vertex 70 17.625 27
    endloop
  endfacet
  facet normal 0 1 0
    outer loop
      vertex 61.5 17.625 27
      vertex 70 17.625 11.25
      vertex 61.5 17.625 11.25
    endloop
  endfacet
  facet normal 1 0 0
    outer loop
      vertex 70 39.75 51
      vertex 70 33.375 27
      vertex 70 39.75 11.25
    endloop
  endfacet
  facet normal 1 0 0
    outer loop
      vertex 70 39.75 51
      vertex 70 17.625 27
      vertex 70 33.375 27
    endloop
  endfacet
  facet normal 1 -0 0
    outer loop
      vertex 70 11.25 51
      vertex 70 17.625 27
      vertex 70 39.75 51
    endloop
  endfacet
  facet normal 1 0 0
    outer loop
      vertex 70 11.25 11.25
      vertex 70 17.625 27
      vertex 70 11.25 51
    endloop
  endfacet
  facet normal 1 0 0
    outer loop
      vertex 70 17.625 27
      vertex 70 11.25 11.25
      vertex 70 17.625 11.25
    endloop
  endfacet
  facet normal 1 0 0
    outer loop
      vertex 70 39.75 11.25
      vertex 70 33.375 27
      vertex 70 33.375 11.25
    endloop
  endfacet
  facet normal 0 0 1
    outer loop
      vertex 40 11.25 51
      vertex 0 11.25 51
      vertex 40 3.25 51
    endloop
  endfacet
  facet normal 0 0 1
    outer loop
      vertex 95 51 51
      vertex 91.5 39.75 51
      vertex 95 0 51
    endloop
  endfacet
  facet normal 0 0 1
    outer loop
      vertex 95 51 51
      vertex 70 39.75 51
      vertex 91.5 39.75 51
    endloop
  endfacet
  facet normal 0 0 1
    outer loop
      vertex 70 39.75 51
      vertex 51.5 47.75 51
      vertex 70 11.25 51
    endloop
  endfacet
  facet normal 0 0 1
    outer loop
      vertex 95 51 51
      vertex 51.5 47.75 51
      vertex 70 39.75 51
    endloop
  endfacet
  facet normal 0 0 1
    outer loop
      vertex 95 51 51
      vertex 40 47.75 51
      vertex 51.5 47.75 51
    endloop
  endfacet
  facet normal -0 0 1
    outer loop
      vertex 0 51 51
      vertex 40 47.75 51
      vertex 95 51 51
    endloop
  endfacet
  facet normal 0 0 1
    outer loop
      vertex 0 39.75 51
      vertex 40 47.75 51
      vertex 0 51 51
    endloop
  endfacet
  facet normal 0 0 1
    outer loop
      vertex 40 47.75 51
      vertex 0 39.75 51
      vertex 40 39.75 51
    endloop
  endfacet
  facet normal -0 0 1
    outer loop
      vertex 91.5 11.25 51
      vertex 95 0 51
      vertex 91.5 39.75 51
    endloop
  endfacet
  facet normal -0 0 1
    outer loop
      vertex 70 11.25 51
      vertex 95 0 51
      vertex 91.5 11.25 51
    endloop
  endfacet
  facet normal 0 0 1
    outer loop
      vertex 51.5 3.25 51
      vertex 70 11.25 51
      vertex 51.5 47.75 51
    endloop
  endfacet
  facet normal -0 0 1
    outer loop
      vertex 51.5 3.25 51
      vertex 95 0 51
      vertex 70 11.25 51
    endloop
  endfacet
  facet normal -0 0 1
    outer loop
      vertex 40 3.25 51
      vertex 95 0 51
      vertex 51.5 3.25 51
    endloop
  endfacet
  facet normal 0 0 1
    outer loop
      vertex 40 3.25 51
      vertex 0 0 51
      vertex 95 0 51
    endloop
  endfacet
  facet normal 0 0 1
    outer loop
      vertex 0 0 51
      vertex 40 3.25 51
      vertex 0 11.25 51
    endloop
  endfacet
  facet normal -1 0 0
    outer loop
      vertex 91.5 39.75 11.25
      vertex 91.5 28.9644 25.9981
      vertex 91.5 39.75 51
    endloop
  endfacet
  facet normal -1 0 0
    outer loop
      vertex 91.5 39.75 11.25
      vertex 91.5 28.6837 24.046
      vertex 91.5 28.9644 25.9981
    endloop
  endfacet
  facet normal -1 0 0
    outer loop
      vertex 91.5 39.75 11.25
      vertex 91.5 27.3922 22.5556
      vertex 91.5 28.6837 24.046
    endloop
  endfacet
  facet normal -1 0 0
    outer loop
      vertex 91.5 39.75 11.25
      vertex 91.5 25.5 22
      vertex 91.5 27.3922 22.5556
    endloop
  endfacet
  facet normal -1 0 0
    outer loop
      vertex 91.5 11.25 11.25
      vertex 91.5 25.5 22
      vertex 91.5 39.75 11.25
    endloop
  endfacet
  facet normal -1 -0 0
    outer loop
      vertex 91.5 22.3163 24.046
      vertex 91.5 11.25 11.25
      vertex 91.5 22.0356 25.9981
    endloop
  endfacet
  facet normal -1 -0 0
    outer loop
      vertex 91.5 23.6078 22.5556
      vertex 91.5 11.25 11.25
      vertex 91.5 22.3163 24.046
    endloop
  endfacet
  facet normal -1 -0 0
    outer loop
      vertex 91.5 25.5 22
      vertex 91.5 11.25 11.25
      vertex 91.5 23.6078 22.5556
    endloop
  endfacet
  facet normal -1 0 0
    outer loop
      vertex 91.5 28.1451 27.792
      vertex 91.5 39.75 51
      vertex 91.5 28.9644 25.9981
    endloop
  endfacet
  facet normal -1 0 0
    outer loop
      vertex 91.5 26.4861 28.8582
      vertex 91.5 39.75 51
      vertex 91.5 28.1451 27.792
    endloop
  endfacet
  facet normal -1 0 0
    outer loop
      vertex 91.5 24.5139 28.8582
      vertex 91.5 39.75 51
      vertex 91.5 26.4861 28.8582
    endloop
  endfacet
  facet normal -1 0 0
    outer loop
      vertex 91.5 11.25 51
      vertex 91.5 24.5139 28.8582
      vertex 91.5 22.8549 27.792
    endloop
  endfacet
  facet normal -1 0 0
    outer loop
      vertex 91.5 11.25 51
      vertex 91.5 22.0356 25.9981
      vertex 91.5 11.25 11.25
    endloop
  endfacet
  facet normal -1 0 0
    outer loop
      vertex 91.5 24.5139 28.8582
      vertex 91.5 11.25 51
      vertex 91.5 39.75 51
    endloop
  endfacet
  facet normal -1 0 0
    outer loop
      vertex 91.5 22.0356 25.9981
      vertex 91.5 11.25 51
      vertex 91.5 22.8549 27.792
    endloop
  endfacet
  facet normal 0 -1 0
    outer loop
      vertex 70 39.75 11.25
      vertex 91.5 39.75 51
      vertex 70 39.75 51
    endloop
  endfacet
  facet normal 0 -1 -0
    outer loop
      vertex 91.5 39.75 51
      vertex 70 39.75 11.25
      vertex 91.5 39.75 11.25
    endloop
  endfacet
  facet normal 0 1 -0
    outer loop
      vertex 91.5 11.25 11.25
      vertex 70 11.25 51
      vertex 91.5 11.25 51
    endloop
  endfacet
  facet normal 0 1 0
    outer loop
      vertex 70 11.25 51
      vertex 91.5 11.25 11.25
      vertex 70 11.25 11.25
    endloop
  endfacet
  facet normal 1 0 0
    outer loop
      vertex 95 51 51
      vertex 95 45 9.86076e-031
      vertex 95 51 0
    endloop
  endfacet
  facet normal 1 0 0
    outer loop
      vertex 95 51 51
      vertex 95 27 9.86076e-032
      vertex 95 45 9.86076e-031
    endloop
  endfacet
  facet normal 1 -0 0
    outer loop
      vertex 95 0 51
      vertex 95 27 9.86076e-032
      vertex 95 51 51
    endloop
  endfacet
  facet normal 1 0 0
    outer loop
      vertex 95 0 0
      vertex 95 27 9.86076e-032
      vertex 95 0 51
    endloop
  endfacet
  facet normal 1 0 0
    outer loop
      vertex 95 27 9.86076e-032
      vertex 95 0 0
      vertex 95 27 0
    endloop
  endfacet
  facet normal 1 0 0
    outer loop
      vertex 95 51 0
      vertex 95 45 9.86076e-031
      vertex 95 45 0
    endloop
  endfacet
  facet normal 0 1 -0
    outer loop
      vertex 95 51 0
      vertex 0 51 51
      vertex 95 51 51
    endloop
  endfacet
  facet normal 0 1 0
    outer loop
      vertex 0 51 51
      vertex 95 51 0
      vertex 0 51 0
    endloop
  endfacet
  facet normal 0 0 -1
    outer loop
      vertex 0 0 0
      vertex 95 5 0
      vertex 95 0 0
    endloop
  endfacet
  facet normal -0 0 -1
    outer loop
      vertex 95 5 0
      vertex 0 0 0
      vertex 0 5 0
    endloop
  endfacet
  facet normal 0 0 -1
    outer loop
      vertex 95 23 0
      vertex 4.44089e-016 27 0
      vertex 95 27 0
    endloop
  endfacet
  facet normal 0 -0 -1
    outer loop
      vertex 4.44089e-016 27 0
      vertex 95 23 0
      vertex 0 23 0
    endloop
  endfacet
  facet normal 0 0 -1
    outer loop
      vertex 4.44089e-015 45 0
      vertex 95 51 0
      vertex 95 45 0
    endloop
  endfacet
  facet normal 0 0 -1
    outer loop
      vertex 4.44089e-015 45 0
      vertex 0 51 0
      vertex 95 51 0
    endloop
  endfacet
  facet normal 0 0 -1
    outer loop
      vertex 4.44089e-016 27 0
      vertex 0 51 0
      vertex 4.44089e-015 45 0
    endloop
  endfacet
  facet normal 0 0 -1
    outer loop
      vertex 0 51 0
      vertex 4.44089e-016 27 0
      vertex 0 23 0
    endloop
  endfacet
  facet normal 0 0 0
    outer loop
      vertex 95 23 0
      vertex 95 27 0
      vertex 95 0 0
    endloop
  endfacet
  facet normal 0 0 0
    outer loop
      vertex 95 0 0
      vertex 95 5 0
      vertex 95 23 0
    endloop
  endfacet
  facet normal 0 -1 0
    outer loop
      vertex 0 0 0
      vertex 95 0 51
      vertex 0 0 51
    endloop
  endfacet
  facet normal 0 -1 -0
    outer loop
      vertex 95 0 51
      vertex 0 0 0
      vertex 95 0 0
    endloop
  endfacet
  facet normal 0 0.281733 -0.959493
    outer loop
      vertex 90 25.5 22
      vertex 91.5 27.3922 22.5556
      vertex 91.5 25.5 22
    endloop
  endfacet
  facet normal 0 0.281733 -0.959493
    outer loop
      vertex 91.5 27.3922 22.5556
      vertex 90 25.5 22
      vertex 90 27.3922 22.5556
    endloop
  endfacet
  facet normal -0 0 1
    outer loop
      vertex 90 26.4861 28.8582
      vertex 91.5 24.5139 28.8582
      vertex 91.5 26.4861 28.8582
    endloop
  endfacet
  facet normal 0 0 1
    outer loop
      vertex 91.5 24.5139 28.8582
      vertex 90 26.4861 28.8582
      vertex 90 24.5139 28.8582
    endloop
  endfacet
  facet normal 0 -0.540641 0.841253
    outer loop
      vertex 90 24.5139 28.8582
      vertex 91.5 22.8549 27.792
      vertex 91.5 24.5139 28.8582
    endloop
  endfacet
  facet normal 0 -0.540641 0.841253
    outer loop
      vertex 91.5 22.8549 27.792
      vertex 90 24.5139 28.8582
      vertex 90 22.8549 27.792
    endloop
  endfacet
  facet normal 0 0.909632 0.415415
    outer loop
      vertex 91.5 28.9644 25.9981
      vertex 90 28.1451 27.792
      vertex 91.5 28.1451 27.792
    endloop
  endfacet
  facet normal 0 0.909632 0.415415
    outer loop
      vertex 90 28.1451 27.792
      vertex 91.5 28.9644 25.9981
      vertex 90 28.9644 25.9981
    endloop
  endfacet
  facet normal -0 0.540641 0.841253
    outer loop
      vertex 90 28.1451 27.792
      vertex 91.5 26.4861 28.8582
      vertex 91.5 28.1451 27.792
    endloop
  endfacet
  facet normal 0 0.540641 0.841253
    outer loop
      vertex 91.5 26.4861 28.8582
      vertex 90 28.1451 27.792
      vertex 90 26.4861 28.8582
    endloop
  endfacet
  facet normal 0 0.755749 -0.654861
    outer loop
      vertex 91.5 27.3922 22.5556
      vertex 90 28.6837 24.046
      vertex 91.5 28.6837 24.046
    endloop
  endfacet
  facet normal 0 0.755749 -0.654861
    outer loop
      vertex 90 28.6837 24.046
      vertex 91.5 27.3922 22.5556
      vertex 90 27.3922 22.5556
    endloop
  endfacet
  facet normal 0 -0.755749 -0.654861
    outer loop
      vertex 90 23.6078 22.5556
      vertex 91.5 22.3163 24.046
      vertex 90 22.3163 24.046
    endloop
  endfacet
  facet normal 0 -0.755749 -0.654861
    outer loop
      vertex 91.5 22.3163 24.046
      vertex 90 23.6078 22.5556
      vertex 91.5 23.6078 22.5556
    endloop
  endfacet
  facet normal 0 0.989821 -0.142315
    outer loop
      vertex 91.5 28.6837 24.046
      vertex 90 28.9644 25.9981
      vertex 91.5 28.9644 25.9981
    endloop
  endfacet
  facet normal 0 0.989821 -0.142315
    outer loop
      vertex 90 28.9644 25.9981
      vertex 91.5 28.6837 24.046
      vertex 90 28.6837 24.046
    endloop
  endfacet
  facet normal -1 0 0
    outer loop
      vertex 90 28.6837 24.046
      vertex 90 28.1451 27.792
      vertex 90 28.9644 25.9981
    endloop
  endfacet
  facet normal -1 0 0
    outer loop
      vertex 90 27.3922 22.5556
      vertex 90 28.1451 27.792
      vertex 90 28.6837 24.046
    endloop
  endfacet
  facet normal -1 0 0
    outer loop
      vertex 90 27.3922 22.5556
      vertex 90 26.4861 28.8582
      vertex 90 28.1451 27.792
    endloop
  endfacet
  facet normal -1 0 0
    outer loop
      vertex 90 25.5 22
      vertex 90 26.4861 28.8582
      vertex 90 27.3922 22.5556
    endloop
  endfacet
  facet normal -1 0 0
    outer loop
      vertex 90 25.5 22
      vertex 90 24.5139 28.8582
      vertex 90 26.4861 28.8582
    endloop
  endfacet
  facet normal -1 0 0
    outer loop
      vertex 90 23.6078 22.5556
      vertex 90 24.5139 28.8582
      vertex 90 25.5 22
    endloop
  endfacet
  facet normal -1 0 0
    outer loop
      vertex 90 23.6078 22.5556
      vertex 90 22.8549 27.792
      vertex 90 24.5139 28.8582
    endloop
  endfacet
  facet normal -1 0 0
    outer loop
      vertex 90 22.3163 24.046
      vertex 90 22.8549 27.792
      vertex 90 23.6078 22.5556
    endloop
  endfacet
  facet normal -1 0 0
    outer loop
      vertex 90 22.8549 27.792
      vertex 90 22.3163 24.046
      vertex 90 22.0356 25.9981
    endloop
  endfacet
  facet normal 0 -0.281733 -0.959493
    outer loop
      vertex 90 23.6078 22.5556
      vertex 91.5 25.5 22
      vertex 91.5 23.6078 22.5556
    endloop
  endfacet
  facet normal -0 -0.281733 -0.959493
    outer loop
      vertex 91.5 25.5 22
      vertex 90 23.6078 22.5556
      vertex 90 25.5 22
    endloop
  endfacet
  facet normal 0 -0.989821 -0.142315
    outer loop
      vertex 90 22.3163 24.046
      vertex 91.5 22.0356 25.9981
      vertex 90 22.0356 25.9981
    endloop
  endfacet
  facet normal 0 -0.989821 -0.142315
    outer loop
      vertex 91.5 22.0356 25.9981
      vertex 90 22.3163 24.046
      vertex 91.5 22.3163 24.046
    endloop
  endfacet
  facet normal 0 -0.909632 0.415414
    outer loop
      vertex 90 22.0356 25.9981
      vertex 91.5 22.8549 27.792
      vertex 90 22.8549 27.792
    endloop
  endfacet
  facet normal 0 -0.909632 0.415414
    outer loop
      vertex 91.5 22.8549 27.792
      vertex 90 22.0356 25.9981
      vertex 91.5 22.0356 25.9981
    endloop
  endfacet
  facet normal 0 0.866026 -0.5
    outer loop
      vertex 95 41.1803 -11.7557
      vertex 2.25068e-015 43.2709 -8.13473
      vertex 95 43.2709 -8.13473
    endloop
  endfacet
  facet normal 0 0.866026 -0.5
    outer loop
      vertex 2.25068e-015 43.2709 -8.13473
      vertex 95 41.1803 -11.7557
      vertex 9.82466e-016 41.1803 -11.7557
    endloop
  endfacet
  facet normal 0 0.743145 -0.669131
    outer loop
      vertex 95 38.3826 -14.8629
      vertex 9.82466e-016 41.1803 -11.7557
      vertex 95 41.1803 -11.7557
    endloop
  endfacet
  facet normal 0 0.743145 -0.669131
    outer loop
      vertex 9.82466e-016 41.1803 -11.7557
      vertex 95 38.3826 -14.8629
      vertex -3.28689e-016 38.3826 -14.8629
    endloop
  endfacet
  facet normal 0 -0.406737 -0.913545
    outer loop
      vertex 95 15 -17.3205
      vertex -5.59585e-015 18.8197 -19.0211
      vertex 95 18.8197 -19.0211
    endloop
  endfacet
  facet normal 0 -0.406737 -0.913545
    outer loop
      vertex -5.59585e-015 18.8197 -19.0211
      vertex 95 15 -17.3205
      vertex -6.06637e-015 15 -17.3205
    endloop
  endfacet
  facet normal 0 0.951057 -0.309017
    outer loop
      vertex 95 43.2709 -8.13473
      vertex 3.42053e-015 44.563 -4.15823
      vertex 95 44.563 -4.15823
    endloop
  endfacet
  facet normal 0 0.951057 -0.309017
    outer loop
      vertex 3.42053e-015 44.563 -4.15823
      vertex 95 43.2709 -8.13473
      vertex 2.25068e-015 43.2709 -8.13473
    endloop
  endfacet
  facet normal 0 0.587785 -0.809017
    outer loop
      vertex 95 35 -17.3205
      vertex -3.28689e-016 38.3826 -14.8629
      vertex 95 38.3826 -14.8629
    endloop
  endfacet
  facet normal 0 0.587785 -0.809017
    outer loop
      vertex -3.28689e-016 38.3826 -14.8629
      vertex 95 35 -17.3205
      vertex -1.62548e-015 35 -17.3205
    endloop
  endfacet
  facet normal -2.00774e-008 0 -1
    outer loop
      vertex 95 22.9094 -19.8904
      vertex -4.86065e-015 23 -19.8904
      vertex 95 23 -19.8904
    endloop
  endfacet
  facet normal -2.00774e-008 4.45807e-024 -1
    outer loop
      vertex -4.86065e-015 23 -19.8904
      vertex 95 22.9094 -19.8904
      vertex -4.88076e-015 22.9094 -19.8904
    endloop
  endfacet
  facet normal -2.00774e-008 0 -1
    outer loop
      vertex 95 27 -19.8904
      vertex -3.95236e-015 27.0906 -19.8904
      vertex 95 27.0906 -19.8904
    endloop
  endfacet
  facet normal -2.00774e-008 4.45807e-024 -1
    outer loop
      vertex -3.95236e-015 27.0906 -19.8904
      vertex 95 27 -19.8904
      vertex -3.97248e-015 27 -19.8904
    endloop
  endfacet
  facet normal 0 0.406737 -0.913545
    outer loop
      vertex 95 31.1803 -19.0211
      vertex -1.62548e-015 35 -17.3205
      vertex 95 35 -17.3205
    endloop
  endfacet
  facet normal 0 0.406737 -0.913545
    outer loop
      vertex -1.62548e-015 35 -17.3205
      vertex 95 31.1803 -19.0211
      vertex -2.85123e-015 31.1803 -19.0211
    endloop
  endfacet
  facet normal 0 -1 0
    outer loop
      vertex -4.44089e-015 5 2.10942e-014
      vertex 0 5 0
      vertex 0 5 2.10942e-014
    endloop
  endfacet
  facet normal -0.444711 -0.890767 -0.0936236
    outer loop
      vertex -5.26716e-015 5.43705 -4.15823
      vertex 0 5 0
      vertex -4.44089e-015 5 2.10942e-014
    endloop
  endfacet
  facet normal 0 -0.994522 -0.104529
    outer loop
      vertex -5.26716e-015 5.43705 -4.15823
      vertex 95 5 0
      vertex 0 5 0
    endloop
  endfacet
  facet normal 0 -0.994522 -0.104529
    outer loop
      vertex 95 5 0
      vertex -5.26716e-015 5.43705 -4.15823
      vertex 95 5.43705 -4.15823
    endloop
  endfacet
  facet normal 0 -0.866026 -0.5
    outer loop
      vertex -6.20305e-015 8.81966 -11.7557
      vertex 95 6.72909 -8.13473
      vertex -5.86323e-015 6.72909 -8.13473
    endloop
  endfacet
  facet normal 0 -0.866026 -0.5
    outer loop
      vertex 95 6.72909 -8.13473
      vertex -6.20305e-015 8.81966 -11.7557
      vertex 95 8.81966 -11.7557
    endloop
  endfacet
  facet normal 0 -0.587785 -0.809017
    outer loop
      vertex 95 11.6174 -14.8629
      vertex -6.06637e-015 15 -17.3205
      vertex 95 15 -17.3205
    endloop
  endfacet
  facet normal 0 -0.587785 -0.809017
    outer loop
      vertex -6.06637e-015 15 -17.3205
      vertex 95 11.6174 -14.8629
      vertex -6.27176e-015 11.6174 -14.8629
    endloop
  endfacet
  facet normal -1.96386e-008 -0.207912 -0.978148
    outer loop
      vertex 95 18.8197 -19.0211
      vertex -4.88076e-015 22.9094 -19.8904
      vertex 95 22.9094 -19.8904
    endloop
  endfacet
  facet normal 0 -0.207911 -0.978148
    outer loop
      vertex -4.88076e-015 22.9094 -19.8904
      vertex 95 18.8197 -19.0211
      vertex -5.59585e-015 18.8197 -19.0211
    endloop
  endfacet
  facet normal 0 -0.743145 -0.669131
    outer loop
      vertex -6.27176e-015 11.6174 -14.8629
      vertex 95 8.81966 -11.7557
      vertex -6.20305e-015 8.81966 -11.7557
    endloop
  endfacet
  facet normal 0 -0.743145 -0.669131
    outer loop
      vertex 95 8.81966 -11.7557
      vertex -6.27176e-015 11.6174 -14.8629
      vertex 95 11.6174 -14.8629
    endloop
  endfacet
  facet normal 0 0.994522 -0.104529
    outer loop
      vertex 95 44.563 -4.15823
      vertex 4.44089e-015 45 0
      vertex 95 45 0
    endloop
  endfacet
  facet normal 0 0.994522 -0.104529
    outer loop
      vertex 4.44089e-015 45 0
      vertex 95 44.563 -4.15823
      vertex 3.42053e-015 44.563 -4.15823
    endloop
  endfacet
  facet normal 0 0.207912 -0.978148
    outer loop
      vertex 95 27.0906 -19.8904
      vertex -2.85123e-015 31.1803 -19.0211
      vertex 95 31.1803 -19.0211
    endloop
  endfacet
  facet normal -1.96386e-008 0.207911 -0.978148
    outer loop
      vertex -2.85123e-015 31.1803 -19.0211
      vertex 95 27.0906 -19.8904
      vertex -3.95236e-015 27.0906 -19.8904
    endloop
  endfacet
  facet normal -1 2.22045e-016 2.22045e-016
    outer loop
      vertex 4.44089e-016 27 0
      vertex 3.42053e-015 44.563 -4.15823
      vertex 2.25068e-015 43.2709 -8.13473
    endloop
  endfacet
  facet normal -1 2.22045e-016 2.22045e-016
    outer loop
      vertex 4.44089e-016 27 0
      vertex 2.25068e-015 43.2709 -8.13473
      vertex 9.82466e-016 41.1803 -11.7557
    endloop
  endfacet
  facet normal -1 2.22045e-016 2.22045e-016
    outer loop
      vertex 4.44089e-016 27 0
      vertex 9.82466e-016 41.1803 -11.7557
      vertex -3.28689e-016 38.3826 -14.8629
    endloop
  endfacet
  facet normal -1 2.22045e-016 2.22045e-016
    outer loop
      vertex 4.44089e-016 27 0
      vertex -3.28689e-016 38.3826 -14.8629
      vertex -1.62548e-015 35 -17.3205
    endloop
  endfacet
  facet normal -1 2.22045e-016 2.22045e-016
    outer loop
      vertex 4.44089e-016 27 0
      vertex -1.62548e-015 35 -17.3205
      vertex -2.85123e-015 31.1803 -19.0211
    endloop
  endfacet
  facet normal -1 2.22045e-016 2.22045e-016
    outer loop
      vertex 4.44089e-016 27 0
      vertex -2.85123e-015 31.1803 -19.0211
      vertex -3.95236e-015 27.0906 -19.8904
    endloop
  endfacet
  facet normal -1 2.22045e-016 2.22045e-016
    outer loop
      vertex 4.44089e-016 27 0
      vertex -3.95236e-015 27.0906 -19.8904
      vertex -3.97248e-015 27 -19.8904
    endloop
  endfacet
  facet normal -1 2.22045e-016 2.22045e-016
    outer loop
      vertex 3.42053e-015 44.563 -4.15823
      vertex 4.44089e-016 27 0
      vertex 4.44089e-015 45 0
    endloop
  endfacet
  facet normal -1 2.22045e-016 2.22045e-016
    outer loop
      vertex -4.88076e-015 22.9094 -19.8904
      vertex -4.44089e-016 23 2.10942e-014
      vertex -4.86065e-015 23 -19.8904
    endloop
  endfacet
  facet normal -1 2.22045e-016 2.22045e-016
    outer loop
      vertex -5.59585e-015 18.8197 -19.0211
      vertex -4.44089e-016 23 2.10942e-014
      vertex -4.88076e-015 22.9094 -19.8904
    endloop
  endfacet
  facet normal -1 2.22045e-016 2.22045e-016
    outer loop
      vertex -6.06637e-015 15 -17.3205
      vertex -4.44089e-016 23 2.10942e-014
      vertex -5.59585e-015 18.8197 -19.0211
    endloop
  endfacet
  facet normal -1 2.22045e-016 2.22045e-016
    outer loop
      vertex -6.27176e-015 11.6174 -14.8629
      vertex -4.44089e-016 23 2.10942e-014
      vertex -6.06637e-015 15 -17.3205
    endloop
  endfacet
  facet normal -1 2.22045e-016 2.22045e-016
    outer loop
      vertex -6.20305e-015 8.81966 -11.7557
      vertex -4.44089e-016 23 2.10942e-014
      vertex -6.27176e-015 11.6174 -14.8629
    endloop
  endfacet
  facet normal -1 2.22045e-016 2.22045e-016
    outer loop
      vertex -5.86323e-015 6.72909 -8.13473
      vertex -4.44089e-016 23 2.10942e-014
      vertex -6.20305e-015 8.81966 -11.7557
    endloop
  endfacet
  facet normal -1 2.22045e-016 2.22045e-016
    outer loop
      vertex -5.26716e-015 5.43705 -4.15823
      vertex -4.44089e-016 23 2.10942e-014
      vertex -5.86323e-015 6.72909 -8.13473
    endloop
  endfacet
  facet normal -1 2.22045e-016 2.22045e-016
    outer loop
      vertex -4.44089e-016 23 2.10942e-014
      vertex -5.26716e-015 5.43705 -4.15823
      vertex -4.44089e-015 5 2.10942e-014
    endloop
  endfacet
  facet normal 0 -0.951057 -0.309017
    outer loop
      vertex -5.86323e-015 6.72909 -8.13473
      vertex 95 5.43705 -4.15823
      vertex -5.26716e-015 5.43705 -4.15823
    endloop
  endfacet
  facet normal 0 -0.951057 -0.309017
    outer loop
      vertex 95 5.43705 -4.15823
      vertex -5.86323e-015 6.72909 -8.13473
      vertex 95 6.72909 -8.13473
    endloop
  endfacet
  facet normal 1 -0 0
    outer loop
      vertex 95 27 0
      vertex 95 44.563 -4.15823
      vertex 95 45 0
    endloop
  endfacet
  facet normal 1 0 0
    outer loop
      vertex 95 44.563 -4.15823
      vertex 95 27 0
      vertex 95 43.2709 -8.13473
    endloop
  endfacet
  facet normal 1 0 0
    outer loop
      vertex 95 43.2709 -8.13473
      vertex 95 27 0
      vertex 95 41.1803 -11.7557
    endloop
  endfacet
  facet normal 1 0 0
    outer loop
      vertex 95 41.1803 -11.7557
      vertex 95 27 0
      vertex 95 38.3826 -14.8629
    endloop
  endfacet
  facet normal 1 0 0
    outer loop
      vertex 95 38.3826 -14.8629
      vertex 95 27 0
      vertex 95 35 -17.3205
    endloop
  endfacet
  facet normal 1 0 0
    outer loop
      vertex 95 35 -17.3205
      vertex 95 27 0
      vertex 95 31.1803 -19.0211
    endloop
  endfacet
  facet normal 1 0 0
    outer loop
      vertex 95 31.1803 -19.0211
      vertex 95 27 0
      vertex 95 27.0906 -19.8904
    endloop
  endfacet
  facet normal 1 0 0
    outer loop
      vertex 95 27.0906 -19.8904
      vertex 95 27 0
      vertex 95 27 -19.8904
    endloop
  endfacet
  facet normal 1 0 0
    outer loop
      vertex 95 23 0
      vertex 95 22.9094 -19.8904
      vertex 95 23 -19.8904
    endloop
  endfacet
  facet normal 1 0 0
    outer loop
      vertex 95 23 0
      vertex 95 18.8197 -19.0211
      vertex 95 22.9094 -19.8904
    endloop
  endfacet
  facet normal 1 0 0
    outer loop
      vertex 95 23 0
      vertex 95 15 -17.3205
      vertex 95 18.8197 -19.0211
    endloop
  endfacet
  facet normal 1 0 0
    outer loop
      vertex 95 23 0
      vertex 95 11.6174 -14.8629
      vertex 95 15 -17.3205
    endloop
  endfacet
  facet normal 1 0 0
    outer loop
      vertex 95 23 0
      vertex 95 8.81966 -11.7557
      vertex 95 11.6174 -14.8629
    endloop
  endfacet
  facet normal 1 0 0
    outer loop
      vertex 95 23 0
      vertex 95 6.72909 -8.13473
      vertex 95 8.81966 -11.7557
    endloop
  endfacet
  facet normal 1 0 0
    outer loop
      vertex 95 23 0
      vertex 95 5.43705 -4.15823
      vertex 95 6.72909 -8.13473
    endloop
  endfacet
  facet normal 1 0 -0
    outer loop
      vertex 95 5.43705 -4.15823
      vertex 95 23 0
      vertex 95 5 0
    endloop
  endfacet
  facet normal 1 -0 0
    outer loop
      vertex 95 27 9.86076e-032
      vertex 95 45 0
      vertex 95 45 9.86076e-031
    endloop
  endfacet
  facet normal 1 0 0
    outer loop
      vertex 95 45 0
      vertex 95 27 9.86076e-032
      vertex 95 27 0
    endloop
  endfacet
  facet normal -0 0 1
    outer loop
      vertex -4.44089e-016 23 2.10942e-014
      vertex 0 5 2.10942e-014
      vertex 0 23 2.10942e-014
    endloop
  endfacet
  facet normal 0 0 1
    outer loop
      vertex 0 5 2.10942e-014
      vertex -4.44089e-016 23 2.10942e-014
      vertex -4.44089e-015 5 2.10942e-014
    endloop
  endfacet
  facet normal 0 1 0
    outer loop
      vertex 95 23 0
      vertex -4.86065e-015 23 -19.8904
      vertex 0 23 0
    endloop
  endfacet
  facet normal -0 1 0
    outer loop
      vertex -4.86065e-015 23 -19.8904
      vertex 95 23 0
      vertex 95 23 -19.8904
    endloop
  endfacet
  facet normal 0 1 -0
    outer loop
      vertex 0 23 0
      vertex -4.44089e-016 23 2.10942e-014
      vertex 0 23 2.10942e-014
    endloop
  endfacet
  facet normal 0 1 0
    outer loop
      vertex -4.44089e-016 23 2.10942e-014
      vertex 0 23 0
      vertex -4.86065e-015 23 -19.8904
    endloop
  endfacet
  facet normal 0 -1 0
    outer loop
      vertex -3.97248e-015 27 -19.8904
      vertex 95 27 0
      vertex 4.44089e-016 27 0
    endloop
  endfacet
  facet normal 0 -1 -0
    outer loop
      vertex 95 27 0
      vertex -3.97248e-015 27 -19.8904
      vertex 95 27 -19.8904
    endloop
  endfacet
endsolid OpenSCAD_Model
