solid OpenSCAD_Model
  facet normal 0.994522 0.104529 0
    outer loop
      vertex 20 0 40
      vertex 19.563 4.15823 0
      vertex 19.563 4.15823 40
    endloop
  endfacet
  facet normal 0.994522 0.104529 0
    outer loop
      vertex 19.563 4.15823 0
      vertex 20 0 40
      vertex 20 0 0
    endloop
  endfacet
  facet normal 0 1 -0
    outer loop
      vertex 2.09057 19.8904 0
      vertex 0.109563 19.8904 40
      vertex 2.09057 19.8904 40
    endloop
  endfacet
  facet normal 0 1 0
    outer loop
      vertex 0.109563 19.8904 40
      vertex 2.09057 19.8904 0
      vertex 0.109563 19.8904 0
    endloop
  endfacet
  facet normal 0.587785 0.809017 -0
    outer loop
      vertex 13.3826 14.8629 0
      vertex 10 17.3205 40
      vertex 13.3826 14.8629 40
    endloop
  endfacet
  facet normal 0.587785 0.809017 0
    outer loop
      vertex 10 17.3205 40
      vertex 13.3826 14.8629 0
      vertex 10 17.3205 0
    endloop
  endfacet
  facet normal 0.406737 0.913545 -0
    outer loop
      vertex 10 17.3205 0
      vertex 6.18034 19.0211 40
      vertex 10 17.3205 40
    endloop
  endfacet
  facet normal 0.406737 0.913545 0
    outer loop
      vertex 6.18034 19.0211 40
      vertex 10 17.3205 0
      vertex 6.18034 19.0211 0
    endloop
  endfacet
  facet normal 0.866026 0.5 0
    outer loop
      vertex 18.2709 8.13473 40
      vertex 16.1803 11.7557 0
      vertex 16.1803 11.7557 40
    endloop
  endfacet
  facet normal 0.866026 0.5 0
    outer loop
      vertex 16.1803 11.7557 0
      vertex 18.2709 8.13473 40
      vertex 18.2709 8.13473 0
    endloop
  endfacet
  facet normal 0.951057 0.309017 0
    outer loop
      vertex 19.563 4.15823 40
      vertex 18.2709 8.13473 0
      vertex 18.2709 8.13473 40
    endloop
  endfacet
  facet normal 0.951057 0.309017 0
    outer loop
      vertex 18.2709 8.13473 0
      vertex 19.563 4.15823 40
      vertex 19.563 4.15823 0
    endloop
  endfacet
  facet normal 0.743145 0.669131 0
    outer loop
      vertex 16.1803 11.7557 40
      vertex 13.3826 14.8629 0
      vertex 13.3826 14.8629 40
    endloop
  endfacet
  facet normal 0.743145 0.669131 0
    outer loop
      vertex 13.3826 14.8629 0
      vertex 16.1803 11.7557 40
      vertex 16.1803 11.7557 0
    endloop
  endfacet
  facet normal 0.207912 0.978148 -0
    outer loop
      vertex 6.18034 19.0211 0
      vertex 2.09057 19.8904 40
      vertex 6.18034 19.0211 40
    endloop
  endfacet
  facet normal 0.207912 0.978148 0
    outer loop
      vertex 2.09057 19.8904 40
      vertex 6.18034 19.0211 0
      vertex 2.09057 19.8904 0
    endloop
  endfacet
  facet normal 0 0 1
    outer loop
      vertex 0 0 40
      vertex 19.563 4.15823 40
      vertex 18.2709 8.13473 40
    endloop
  endfacet
  facet normal 0 0 1
    outer loop
      vertex 0 0 40
      vertex 18.2709 8.13473 40
      vertex 16.1803 11.7557 40
    endloop
  endfacet
  facet normal 0 0 1
    outer loop
      vertex 0 0 40
      vertex 16.1803 11.7557 40
      vertex 13.3826 14.8629 40
    endloop
  endfacet
  facet normal 0 0 1
    outer loop
      vertex 0 0 40
      vertex 13.3826 14.8629 40
      vertex 10 17.3205 40
    endloop
  endfacet
  facet normal 0 0 1
    outer loop
      vertex 0 0 40
      vertex 10 17.3205 40
      vertex 6.18034 19.0211 40
    endloop
  endfacet
  facet normal 0 0 1
    outer loop
      vertex 0 0 40
      vertex 6.18034 19.0211 40
      vertex 2.09057 19.8904 40
    endloop
  endfacet
  facet normal 0 0 1
    outer loop
      vertex 0 0 40
      vertex 2.09057 19.8904 40
      vertex 0.109563 19.8904 40
    endloop
  endfacet
  facet normal 0 0 1
    outer loop
      vertex 0 0 40
      vertex 0.109563 19.8904 40
      vertex 0 20 40
    endloop
  endfacet
  facet normal 0 0 1
    outer loop
      vertex 19.563 4.15823 40
      vertex 0 0 40
      vertex 20 0 40
    endloop
  endfacet
  facet normal 0 0 -1
    outer loop
      vertex 0 0 0
      vertex 19.563 4.15823 0
      vertex 20 0 0
    endloop
  endfacet
  facet normal -0 0 -1
    outer loop
      vertex 19.563 4.15823 0
      vertex 0 0 0
      vertex 18.2709 8.13473 0
    endloop
  endfacet
  facet normal -0 0 -1
    outer loop
      vertex 18.2709 8.13473 0
      vertex 0 0 0
      vertex 16.1803 11.7557 0
    endloop
  endfacet
  facet normal -0 0 -1
    outer loop
      vertex 16.1803 11.7557 0
      vertex 0 0 0
      vertex 13.3826 14.8629 0
    endloop
  endfacet
  facet normal -0 0 -1
    outer loop
      vertex 13.3826 14.8629 0
      vertex 0 0 0
      vertex 10 17.3205 0
    endloop
  endfacet
  facet normal -0 0 -1
    outer loop
      vertex 10 17.3205 0
      vertex 0 0 0
      vertex 6.18034 19.0211 0
    endloop
  endfacet
  facet normal -0 0 -1
    outer loop
      vertex 6.18034 19.0211 0
      vertex 0 0 0
      vertex 2.09057 19.8904 0
    endloop
  endfacet
  facet normal -0 0 -1
    outer loop
      vertex 2.09057 19.8904 0
      vertex 0 0 0
      vertex 0.109563 19.8904 0
    endloop
  endfacet
  facet normal -0 0 -1
    outer loop
      vertex 0.109563 19.8904 0
      vertex 0 0 0
      vertex 0 20 0
    endloop
  endfacet
  facet normal 1 0 0
    outer loop
      vertex 20 0 40
      vertex 20 -5 20
      vertex 20 0 0
    endloop
  endfacet
  facet normal -2.36335e-007 -0.970142 0.242536
    outer loop
      vertex -1.96349 -3.93006 24.2798
      vertex 0 0 40
      vertex -3.89352 -3.89352 24.4259
    endloop
  endfacet
  facet normal 1.7554e-007 -0.970143 0.242536
    outer loop
      vertex -0.670002 -4.07708 23.6917
      vertex 0 0 40
      vertex -1.96349 -3.93006 24.2798
    endloop
  endfacet
  facet normal 0 -0.970143 0.242536
    outer loop
      vertex 0.0943583 -4.16396 23.3442
      vertex 0 0 40
      vertex -0.670002 -4.07708 23.6917
    endloop
  endfacet
  facet normal 0 -0.970143 0.242536
    outer loop
      vertex 0 0 40
      vertex 0.0943583 -4.16396 23.3442
      vertex 20 0 40
    endloop
  endfacet
  facet normal 0 -0.970143 0.242536
    outer loop
      vertex 1.27135 -4.54242 21.8303
      vertex 20 0 40
      vertex 0.0943583 -4.16396 23.3442
    endloop
  endfacet
  facet normal 0 -0.970143 0.242536
    outer loop
      vertex 20 -5 20
      vertex 1.27135 -4.54242 21.8303
      vertex 1.36396 -5 20
    endloop
  endfacet
  facet normal 0 -0.970143 0.242536
    outer loop
      vertex 1.27135 -4.54242 21.8303
      vertex 20 -5 20
      vertex 20 0 40
    endloop
  endfacet
  facet normal 0 -0.970143 -0.242536
    outer loop
      vertex 1.27135 -4.54242 18.1697
      vertex 20 -5 20
      vertex 1.36396 -5 20
    endloop
  endfacet
  facet normal 0 -0.970143 -0.242536
    outer loop
      vertex 20 0 0
      vertex 1.27135 -4.54242 18.1697
      vertex 0.0943585 -4.16396 16.6558
    endloop
  endfacet
  facet normal 0 -0.970143 -0.242536
    outer loop
      vertex 0 0 0
      vertex 0.0943585 -4.16396 16.6558
      vertex -0.670002 -4.07708 16.3083
    endloop
  endfacet
  facet normal 0 -0.970143 -0.242536
    outer loop
      vertex 0 0 0
      vertex -0.670002 -4.07708 16.3083
      vertex -1.96349 -3.93006 15.7202
    endloop
  endfacet
  facet normal 0 -0.970143 -0.242536
    outer loop
      vertex 0 0 0
      vertex -1.96349 -3.93006 15.7202
      vertex -3.89352 -3.89352 15.5741
    endloop
  endfacet
  facet normal 0 -0.970143 -0.242536
    outer loop
      vertex 0.0943585 -4.16396 16.6558
      vertex 0 0 0
      vertex 20 0 0
    endloop
  endfacet
  facet normal 0 -0.970143 -0.242536
    outer loop
      vertex 1.27135 -4.54242 18.1697
      vertex 20 0 0
      vertex 20 -5 20
    endloop
  endfacet
  facet normal 0 1 -0
    outer loop
      vertex 0 20 0
      vertex -5 20 20
      vertex 0 20 40
    endloop
  endfacet
  facet normal -0.970143 0 0.242536
    outer loop
      vertex -4.33874 0.809811 22.645
      vertex -5 20 20
      vertex -4.7661 1.45879 20.9356
    endloop
  endfacet
  facet normal -0.970143 0 0.242536
    outer loop
      vertex -4.7661 1.45879 20.9356
      vertex -5 20 20
      vertex -5 1.22489 20
    endloop
  endfacet
  facet normal -0.970143 0 0.242536
    outer loop
      vertex -5 20 20
      vertex -4.33874 0.809811 22.645
      vertex 0 20 40
    endloop
  endfacet
  facet normal -0.970143 0 0.242536
    outer loop
      vertex 0 0 40
      vertex -4.33874 0.809811 22.645
      vertex -4.20791 0.1187 23.1683
    endloop
  endfacet
  facet normal -0.970143 0 0.242536
    outer loop
      vertex -4.33874 0.809811 22.645
      vertex 0 0 40
      vertex 0 20 40
    endloop
  endfacet
  facet normal -0.970143 0 0.242536
    outer loop
      vertex -4.02572 -0.84374 23.8971
      vertex 0 0 40
      vertex -4.20791 0.1187 23.1683
    endloop
  endfacet
  facet normal -0.970143 9.62745e-008 0.242536
    outer loop
      vertex -3.88116 -3.21595 24.4753
      vertex 0 0 40
      vertex -4.02572 -0.84374 23.8971
    endloop
  endfacet
  facet normal -0.970142 -6.9431e-007 0.242536
    outer loop
      vertex 0 0 40
      vertex -3.88116 -3.21595 24.4753
      vertex -3.89352 -3.89352 24.4259
    endloop
  endfacet
  facet normal -0.970143 0 -0.242536
    outer loop
      vertex -4.33874 0.809811 17.355
      vertex -5 20 20
      vertex 0 20 0
    endloop
  endfacet
  facet normal -0.970143 0 -0.242536
    outer loop
      vertex -5 20 20
      vertex -4.33874 0.809811 17.355
      vertex -4.7661 1.45879 19.0644
    endloop
  endfacet
  facet normal -0.970143 0 -0.242536
    outer loop
      vertex 0 0 0
      vertex -4.33874 0.809811 17.355
      vertex 0 20 0
    endloop
  endfacet
  facet normal -0.970143 0 -0.242536
    outer loop
      vertex -4.33874 0.809811 17.355
      vertex 0 0 0
      vertex -4.20791 0.1187 16.8317
    endloop
  endfacet
  facet normal -0.970143 0 -0.242536
    outer loop
      vertex 0 0 0
      vertex -4.02572 -0.84374 16.1029
      vertex -4.20791 0.1187 16.8317
    endloop
  endfacet
  facet normal -0.970143 0 -0.242536
    outer loop
      vertex 0 0 0
      vertex -3.88116 -3.21595 15.5247
      vertex -4.02572 -0.84374 16.1029
    endloop
  endfacet
  facet normal -0.970143 0 -0.242536
    outer loop
      vertex -3.88116 -3.21595 15.5247
      vertex 0 0 0
      vertex -3.89352 -3.89352 15.5741
    endloop
  endfacet
  facet normal -0.970143 -0 -0.242536
    outer loop
      vertex -5 20 20
      vertex -4.7661 1.45879 19.0644
      vertex -5 1.22489 20
    endloop
  endfacet
  facet normal 0.707104 0.70711 -0
    outer loop
      vertex 0.109563 19.8904 0
      vertex 0 20 40
      vertex 0.109563 19.8904 40
    endloop
  endfacet
  facet normal 0.707104 0.70711 0
    outer loop
      vertex 0 20 40
      vertex 0.109563 19.8904 0
      vertex 0 20 0
    endloop
  endfacet
  facet normal -0.691655 0.691655 0.207912
    outer loop
      vertex 1.27135 -4.54242 18.1697
      vertex 5.25305 -1.11091 20
      vertex 4.97795 -0.835815 18.1697
    endloop
  endfacet
  facet normal -0.691655 0.691655 0.207912
    outer loop
      vertex 5.25305 -1.11091 20
      vertex 1.27135 -4.54242 18.1697
      vertex 1.36396 -5 20
    endloop
  endfacet
  facet normal -0.073913 0.073913 0.994522
    outer loop
      vertex 1.73846 2.40368 15.5247
      vertex -1.96349 -3.93006 15.7202
      vertex 3.05435 1.08778 15.7202
    endloop
  endfacet
  facet normal -0.073913 0.073913 0.994522
    outer loop
      vertex -3.88116 -3.21595 15.5247
      vertex -1.96349 -3.93006 15.7202
      vertex 1.73846 2.40368 15.5247
    endloop
  endfacet
  facet normal -0.0739132 0.0739124 0.994522
    outer loop
      vertex -1.96349 -3.93006 15.7202
      vertex -3.88116 -3.21595 15.5247
      vertex -3.89352 -3.89352 15.5741
    endloop
  endfacet
  facet normal -0.707107 -0.707107 -8.42669e-007
    outer loop
      vertex 1.73846 2.40368 24.4753
      vertex 0.480077 3.66206 23.8971
      vertex -0.503208 4.64534 22.645
    endloop
  endfacet
  facet normal 0.645974 -0.645974 -0.406736
    outer loop
      vertex -1.04138 5.18351 20.9356
      vertex -4.33874 0.809811 22.645
      vertex -4.7661 1.45879 20.9356
    endloop
  endfacet
  facet normal 0.645974 -0.645974 -0.406736
    outer loop
      vertex -4.33874 0.809811 22.645
      vertex -1.04138 5.18351 20.9356
      vertex -0.503208 4.64534 22.645
    endloop
  endfacet
  facet normal -0.707107 -0.707107 4.50433e-007
    outer loop
      vertex 1.73846 2.40368 15.5247
      vertex 4.20023 -0.0580921 16.6558
      vertex -0.503208 4.64534 17.355
    endloop
  endfacet
  facet normal -0.572062 0.572061 0.587785
    outer loop
      vertex 4.20023 -0.0580921 16.6558
      vertex 1.27135 -4.54242 18.1697
      vertex 4.97795 -0.835815 18.1697
    endloop
  endfacet
  facet normal -0.572062 0.572061 0.587785
    outer loop
      vertex 1.27135 -4.54242 18.1697
      vertex 4.20023 -0.0580921 16.6558
      vertex 0.0943585 -4.16396 16.6558
    endloop
  endfacet
  facet normal 0.473147 -0.473147 0.743145
    outer loop
      vertex -4.02572 -0.84374 16.1029
      vertex 0.480077 3.66206 16.1029
      vertex -4.20791 0.1187 16.8317
    endloop
  endfacet
  facet normal -0.707107 -0.707107 8.81181e-007
    outer loop
      vertex 3.05435 1.08778 15.7202
      vertex 4.20023 -0.0580921 16.6558
      vertex 1.73846 2.40368 15.5247
    endloop
  endfacet
  facet normal -0.353554 0.353553 0.866025
    outer loop
      vertex 3.05435 1.08778 15.7202
      vertex 0.0943585 -4.16396 16.6558
      vertex 4.20023 -0.0580921 16.6558
    endloop
  endfacet
  facet normal -0.353553 0.353553 0.866026
    outer loop
      vertex 0.0943585 -4.16396 16.6558
      vertex 3.05435 1.08778 15.7202
      vertex -0.670002 -4.07708 16.3083
    endloop
  endfacet
  facet normal -0.691655 0.691655 -0.207912
    outer loop
      vertex 5.25305 -1.11091 20
      vertex 1.27135 -4.54242 21.8303
      vertex 4.97795 -0.835815 21.8303
    endloop
  endfacet
  facet normal -0.691655 0.691655 -0.207912
    outer loop
      vertex 1.27135 -4.54242 21.8303
      vertex 5.25305 -1.11091 20
      vertex 1.36396 -5 20
    endloop
  endfacet
  facet normal -0.707107 -0.707107 -8.81179e-007
    outer loop
      vertex 4.20023 -0.0580921 23.3442
      vertex 3.05435 1.08778 24.2798
      vertex 1.73846 2.40368 24.4753
    endloop
  endfacet
  facet normal -0.707107 -0.707107 -4.50433e-007
    outer loop
      vertex 4.20023 -0.0580921 23.3442
      vertex 1.73846 2.40368 24.4753
      vertex -0.503208 4.64534 22.645
    endloop
  endfacet
  facet normal 0.645974 -0.645974 0.406736
    outer loop
      vertex -4.33874 0.809811 17.355
      vertex -1.04138 5.18351 19.0644
      vertex -4.7661 1.45879 19.0644
    endloop
  endfacet
  facet normal 0.645974 -0.645974 0.406736
    outer loop
      vertex -1.04138 5.18351 19.0644
      vertex -4.33874 0.809811 17.355
      vertex -0.503208 4.64534 17.355
    endloop
  endfacet
  facet normal -0.353554 0.353554 0.866025
    outer loop
      vertex -0.670002 -4.07708 16.3083
      vertex 3.05435 1.08778 15.7202
      vertex -1.96349 -3.93006 15.7202
    endloop
  endfacet
  facet normal 0.473147 -0.473147 0.743145
    outer loop
      vertex -4.33874 0.809811 17.355
      vertex 0.480077 3.66206 16.1029
      vertex -0.503208 4.64534 17.355
    endloop
  endfacet
  facet normal 0.473147 -0.473147 0.743145
    outer loop
      vertex 0.480077 3.66206 16.1029
      vertex -4.33874 0.809811 17.355
      vertex -4.20791 0.1187 16.8317
    endloop
  endfacet
  facet normal 0.218508 -0.218508 0.951056
    outer loop
      vertex -4.02572 -0.84374 16.1029
      vertex 1.73846 2.40368 15.5247
      vertex 0.480077 3.66206 16.1029
    endloop
  endfacet
  facet normal 0.218508 -0.218508 0.951056
    outer loop
      vertex 1.73846 2.40368 15.5247
      vertex -4.02572 -0.84374 16.1029
      vertex -3.88116 -3.21595 15.5247
    endloop
  endfacet
  facet normal -0.353554 0.353554 -0.866025
    outer loop
      vertex 0.0943583 -4.16396 23.3442
      vertex 3.05435 1.08778 24.2798
      vertex 4.20023 -0.0580921 23.3442
    endloop
  endfacet
  facet normal -0.353555 0.353554 -0.866025
    outer loop
      vertex 3.05435 1.08778 24.2798
      vertex 0.0943583 -4.16396 23.3442
      vertex -0.670002 -4.07708 23.6917
    endloop
  endfacet
  facet normal 0.218508 -0.218508 -0.951056
    outer loop
      vertex -4.02572 -0.84374 23.8971
      vertex 1.73846 2.40368 24.4753
      vertex -3.88116 -3.21595 24.4753
    endloop
  endfacet
  facet normal 0.218508 -0.218508 -0.951056
    outer loop
      vertex 1.73846 2.40368 24.4753
      vertex -4.02572 -0.84374 23.8971
      vertex 0.480077 3.66206 23.8971
    endloop
  endfacet
  facet normal -0.707107 -0.707107 0
    outer loop
      vertex 4.97795 -0.835815 18.1697
      vertex -1.04138 5.18351 19.0644
      vertex -0.503208 4.64534 17.355
    endloop
  endfacet
  facet normal -0.707107 -0.707107 0
    outer loop
      vertex -1.04138 5.18351 19.0644
      vertex 5.25305 -1.11091 20
      vertex -1.04138 5.18351 20.9356
    endloop
  endfacet
  facet normal -0.707107 -0.707107 0
    outer loop
      vertex 4.97795 -0.835815 18.1697
      vertex -0.503208 4.64534 17.355
      vertex 4.20023 -0.0580921 16.6558
    endloop
  endfacet
  facet normal -0.707107 -0.707107 0
    outer loop
      vertex -1.04138 5.18351 19.0644
      vertex 4.97795 -0.835815 18.1697
      vertex 5.25305 -1.11091 20
    endloop
  endfacet
  facet normal -0.707107 -0.707107 0
    outer loop
      vertex 4.97795 -0.835815 21.8303
      vertex -1.04138 5.18351 20.9356
      vertex 5.25305 -1.11091 20
    endloop
  endfacet
  facet normal -0.707107 -0.707107 0
    outer loop
      vertex -1.04138 5.18351 20.9356
      vertex 4.97795 -0.835815 21.8303
      vertex -0.503208 4.64534 22.645
    endloop
  endfacet
  facet normal -0.707107 -0.707107 0
    outer loop
      vertex -0.503208 4.64534 22.645
      vertex 4.97795 -0.835815 21.8303
      vertex 4.20023 -0.0580921 23.3442
    endloop
  endfacet
  facet normal 0.707107 -0.707107 9.00955e-008
    outer loop
      vertex -4.7661 1.45879 19.0644
      vertex -4.7661 1.45879 20.9356
      vertex -5 1.22489 20
    endloop
  endfacet
  facet normal 0.707107 -0.707107 9.00956e-008
    outer loop
      vertex -4.7661 1.45879 20.9356
      vertex -4.7661 1.45879 19.0644
      vertex -1.04138 5.18351 20.9356
    endloop
  endfacet
  facet normal 0.707107 -0.707107 0
    outer loop
      vertex -1.04138 5.18351 20.9356
      vertex -4.7661 1.45879 19.0644
      vertex -1.04138 5.18351 19.0644
    endloop
  endfacet
  facet normal 0.473147 -0.473147 -0.743145
    outer loop
      vertex -4.33874 0.809811 22.645
      vertex 0.480077 3.66206 23.8971
      vertex -4.20791 0.1187 23.1683
    endloop
  endfacet
  facet normal 0.473147 -0.473147 -0.743145
    outer loop
      vertex 0.480077 3.66206 23.8971
      vertex -4.33874 0.809811 22.645
      vertex -0.503208 4.64534 22.645
    endloop
  endfacet
  facet normal -0.353554 0.353554 -0.866025
    outer loop
      vertex 3.05435 1.08778 24.2798
      vertex -0.670002 -4.07708 23.6917
      vertex -1.96349 -3.93006 24.2798
    endloop
  endfacet
  facet normal -0.572061 0.572061 -0.587785
    outer loop
      vertex 1.27135 -4.54242 21.8303
      vertex 4.20023 -0.0580921 23.3442
      vertex 4.97795 -0.835815 21.8303
    endloop
  endfacet
  facet normal -0.572061 0.572061 -0.587785
    outer loop
      vertex 4.20023 -0.0580921 23.3442
      vertex 1.27135 -4.54242 21.8303
      vertex 0.0943583 -4.16396 23.3442
    endloop
  endfacet
  facet normal -0.073913 0.073913 -0.994522
    outer loop
      vertex -1.96349 -3.93006 24.2798
      vertex 1.73846 2.40368 24.4753
      vertex 3.05435 1.08778 24.2798
    endloop
  endfacet
  facet normal -0.073913 0.073913 -0.994522
    outer loop
      vertex -1.96349 -3.93006 24.2798
      vertex -3.88116 -3.21595 24.4753
      vertex 1.73846 2.40368 24.4753
    endloop
  endfacet
  facet normal -0.0739122 0.0739151 -0.994522
    outer loop
      vertex -3.88116 -3.21595 24.4753
      vertex -1.96349 -3.93006 24.2798
      vertex -3.89352 -3.89352 24.4259
    endloop
  endfacet
  facet normal -0.707107 -0.707107 8.42671e-007
    outer loop
      vertex 0.480077 3.66206 16.1029
      vertex 1.73846 2.40368 15.5247
      vertex -0.503208 4.64534 17.355
    endloop
  endfacet
  facet normal 0.473147 -0.473147 -0.743144
    outer loop
      vertex 0.480077 3.66206 23.8971
      vertex -4.02572 -0.84374 23.8971
      vertex -4.20791 0.1187 23.1683
    endloop
  endfacet
endsolid OpenSCAD_Model
