solid OpenSCAD_Model
  facet normal 1 0 0
    outer loop
      vertex -9 24 13
      vertex -9 27 27.5
      vertex -9 24 27.5
    endloop
  endfacet
  facet normal 1 0 0
    outer loop
      vertex -9 27 27.5
      vertex -9 24 13
      vertex -9 27 0
    endloop
  endfacet
  facet normal 1 0 0
    outer loop
      vertex -9 -9 0
      vertex -9 24 13
      vertex -9 -9 13
    endloop
  endfacet
  facet normal 1 0 0
    outer loop
      vertex -9 24 13
      vertex -9 -9 0
      vertex -9 27 0
    endloop
  endfacet
  facet normal -0 0 1
    outer loop
      vertex -11.9889 11.6558 13
      vertex -9 -9 13
      vertex -10.889 13.1697 13
    endloop
  endfacet
  facet normal 0 0 1
    outer loop
      vertex -9 -9 13
      vertex -10.889 -13.1697 13
      vertex -10.5 -15 13
    endloop
  endfacet
  facet normal -0 0 1
    outer loop
      vertex -13.6094 10.7202 13
      vertex -9 -9 13
      vertex -11.9889 11.6558 13
    endloop
  endfacet
  facet normal 0 0 1
    outer loop
      vertex -9 -9 13
      vertex -11.9889 -11.6558 13
      vertex -10.889 -13.1697 13
    endloop
  endfacet
  facet normal -0 0 1
    outer loop
      vertex -15.4704 10.5247 13
      vertex -9 -9 13
      vertex -13.6094 10.7202 13
    endloop
  endfacet
  facet normal 0 0 1
    outer loop
      vertex -9 -9 13
      vertex -13.6094 -10.7202 13
      vertex -11.9889 -11.6558 13
    endloop
  endfacet
  facet normal 0 0 1
    outer loop
      vertex -15.4704 -10.5247 13
      vertex -9 -9 13
      vertex -15.4704 10.5247 13
    endloop
  endfacet
  facet normal 0 0 1
    outer loop
      vertex -9 -9 13
      vertex -15.4704 -10.5247 13
      vertex -13.6094 -10.7202 13
    endloop
  endfacet
  facet normal 0 0 1
    outer loop
      vertex -17.25 11.1029 13
      vertex -15.4704 -10.5247 13
      vertex -15.4704 10.5247 13
    endloop
  endfacet
  facet normal 0 0 1
    outer loop
      vertex -17.25 11.1029 13
      vertex -17.25 -11.1029 13
      vertex -15.4704 -10.5247 13
    endloop
  endfacet
  facet normal 0 0 1
    outer loop
      vertex -18.6406 12.355 13
      vertex -17.25 -11.1029 13
      vertex -17.25 11.1029 13
    endloop
  endfacet
  facet normal 0 0 1
    outer loop
      vertex -18.6406 12.355 13
      vertex -18.6406 -12.355 13
      vertex -17.25 -11.1029 13
    endloop
  endfacet
  facet normal 0 0 1
    outer loop
      vertex -19.4017 14.0644 13
      vertex -18.6406 -12.355 13
      vertex -18.6406 12.355 13
    endloop
  endfacet
  facet normal 0 0 1
    outer loop
      vertex -18.6406 -12.355 13
      vertex -19.4017 14.0644 13
      vertex -19.4017 -14.0644 13
    endloop
  endfacet
  facet normal 0 0 1
    outer loop
      vertex -9 24 13
      vertex -10.5 15 13
      vertex -9 -9 13
    endloop
  endfacet
  facet normal 0 0 1
    outer loop
      vertex -9 24 13
      vertex -10.889 16.8303 13
      vertex -10.5 15 13
    endloop
  endfacet
  facet normal 0 0 1
    outer loop
      vertex -9 24 13
      vertex -11.9889 18.3442 13
      vertex -10.889 16.8303 13
    endloop
  endfacet
  facet normal 0 0 1
    outer loop
      vertex -9 24 13
      vertex -13.6094 19.2798 13
      vertex -11.9889 18.3442 13
    endloop
  endfacet
  facet normal 0 0 1
    outer loop
      vertex -9 24 13
      vertex -15.4704 19.4753 13
      vertex -13.6094 19.2798 13
    endloop
  endfacet
  facet normal -0 0 1
    outer loop
      vertex -24 24 13
      vertex -15.4704 19.4753 13
      vertex -9 24 13
    endloop
  endfacet
  facet normal 0 0 1
    outer loop
      vertex -24 24 13
      vertex -19.4017 14.0644 13
      vertex -19.4017 15.9356 13
    endloop
  endfacet
  facet normal 0 0 1
    outer loop
      vertex -19.4017 14.0644 13
      vertex -24 24 13
      vertex -19.4017 -14.0644 13
    endloop
  endfacet
  facet normal 0 0 1
    outer loop
      vertex -24 -24 13
      vertex -19.4017 -14.0644 13
      vertex -24 24 13
    endloop
  endfacet
  facet normal 0 0 1
    outer loop
      vertex -18.6406 17.645 13
      vertex -24 24 13
      vertex -19.4017 15.9356 13
    endloop
  endfacet
  facet normal 0 0 1
    outer loop
      vertex -17.25 18.8971 13
      vertex -24 24 13
      vertex -18.6406 17.645 13
    endloop
  endfacet
  facet normal 0 0 1
    outer loop
      vertex -15.4704 19.4753 13
      vertex -24 24 13
      vertex -17.25 18.8971 13
    endloop
  endfacet
  facet normal -0 0 1
    outer loop
      vertex 19.111 -13.1697 13
      vertex 24 -24 13
      vertex 19.111 13.1697 13
    endloop
  endfacet
  facet normal 0 0 1
    outer loop
      vertex 24 -24 13
      vertex 19.111 -13.1697 13
      vertex 19.5 -15 13
    endloop
  endfacet
  facet normal -0 0 1
    outer loop
      vertex 18.0111 11.6558 13
      vertex 19.111 -13.1697 13
      vertex 19.111 13.1697 13
    endloop
  endfacet
  facet normal 0 0 1
    outer loop
      vertex 18.0111 11.6558 13
      vertex 18.0111 -11.6558 13
      vertex 19.111 -13.1697 13
    endloop
  endfacet
  facet normal -0 0 1
    outer loop
      vertex 16.3906 10.7202 13
      vertex 18.0111 -11.6558 13
      vertex 18.0111 11.6558 13
    endloop
  endfacet
  facet normal 0 0 1
    outer loop
      vertex 16.3906 10.7202 13
      vertex 16.3906 -10.7202 13
      vertex 18.0111 -11.6558 13
    endloop
  endfacet
  facet normal -0 0 1
    outer loop
      vertex 14.5296 10.5247 13
      vertex 16.3906 -10.7202 13
      vertex 16.3906 10.7202 13
    endloop
  endfacet
  facet normal 0 0 1
    outer loop
      vertex 14.5296 10.5247 13
      vertex 14.5296 -10.5247 13
      vertex 16.3906 -10.7202 13
    endloop
  endfacet
  facet normal -0 0 1
    outer loop
      vertex 9 -9 13
      vertex 14.5296 -10.5247 13
      vertex 14.5296 10.5247 13
    endloop
  endfacet
  facet normal 0 0 1
    outer loop
      vertex 9 -9 13
      vertex 14.5296 10.5247 13
      vertex 12.75 11.1029 13
    endloop
  endfacet
  facet normal 0 0 1
    outer loop
      vertex 9 -9 13
      vertex 12.75 11.1029 13
      vertex 11.3594 12.355 13
    endloop
  endfacet
  facet normal 0 0 1
    outer loop
      vertex 14.5296 -10.5247 13
      vertex 9 -9 13
      vertex 12.75 -11.1029 13
    endloop
  endfacet
  facet normal 0 0 1
    outer loop
      vertex 9 -9 13
      vertex 11.3594 12.355 13
      vertex 10.5983 14.0644 13
    endloop
  endfacet
  facet normal 0 0 1
    outer loop
      vertex 12.75 -11.1029 13
      vertex 9 -9 13
      vertex 11.3594 -12.355 13
    endloop
  endfacet
  facet normal 0 0 1
    outer loop
      vertex 19.111 13.1697 13
      vertex 24 24 13
      vertex 19.5 15 13
    endloop
  endfacet
  facet normal 0 0 1
    outer loop
      vertex 24 24 13
      vertex 19.111 16.8303 13
      vertex 19.5 15 13
    endloop
  endfacet
  facet normal 0 0 1
    outer loop
      vertex 24 24 13
      vertex 18.0111 18.3442 13
      vertex 19.111 16.8303 13
    endloop
  endfacet
  facet normal 0 0 1
    outer loop
      vertex 24 24 13
      vertex 16.3906 19.2798 13
      vertex 18.0111 18.3442 13
    endloop
  endfacet
  facet normal -0 0 1
    outer loop
      vertex 9 24 13
      vertex 16.3906 19.2798 13
      vertex 24 24 13
    endloop
  endfacet
  facet normal 0 0 1
    outer loop
      vertex 16.3906 19.2798 13
      vertex 9 24 13
      vertex 14.5296 19.4753 13
    endloop
  endfacet
  facet normal 0 0 1
    outer loop
      vertex 9 24 13
      vertex 10.5983 14.0644 13
      vertex 10.5983 15.9356 13
    endloop
  endfacet
  facet normal 0 0 1
    outer loop
      vertex 11.3594 -12.355 13
      vertex 9 -9 13
      vertex 10.5983 -14.0644 13
    endloop
  endfacet
  facet normal 0 0 1
    outer loop
      vertex 10.5983 14.0644 13
      vertex 9 24 13
      vertex 9 -9 13
    endloop
  endfacet
  facet normal 0 0 1
    outer loop
      vertex 11.3594 17.645 13
      vertex 9 24 13
      vertex 10.5983 15.9356 13
    endloop
  endfacet
  facet normal 0 0 1
    outer loop
      vertex 12.75 18.8971 13
      vertex 9 24 13
      vertex 11.3594 17.645 13
    endloop
  endfacet
  facet normal 0 0 1
    outer loop
      vertex 14.5296 19.4753 13
      vertex 9 24 13
      vertex 12.75 18.8971 13
    endloop
  endfacet
  facet normal 0 0 1
    outer loop
      vertex 24 24 13
      vertex 19.111 13.1697 13
      vertex 24 -24 13
    endloop
  endfacet
  facet normal -0 0 1
    outer loop
      vertex 19.111 -16.8303 13
      vertex 24 -24 13
      vertex 19.5 -15 13
    endloop
  endfacet
  facet normal -0 0 1
    outer loop
      vertex 18.0111 -18.3442 13
      vertex 24 -24 13
      vertex 19.111 -16.8303 13
    endloop
  endfacet
  facet normal -0 0 1
    outer loop
      vertex 16.3906 -19.2798 13
      vertex 24 -24 13
      vertex 18.0111 -18.3442 13
    endloop
  endfacet
  facet normal -0 0 1
    outer loop
      vertex 14.5296 -19.4753 13
      vertex 24 -24 13
      vertex 16.3906 -19.2798 13
    endloop
  endfacet
  facet normal 0 0 1
    outer loop
      vertex 12.75 -18.8971 13
      vertex 24 -24 13
      vertex 14.5296 -19.4753 13
    endloop
  endfacet
  facet normal 0 0 1
    outer loop
      vertex -10.5 -15 13
      vertex 10.5983 -14.0644 13
      vertex 9 -9 13
    endloop
  endfacet
  facet normal 0 0 1
    outer loop
      vertex -10.5 -15 13
      vertex 9 -9 13
      vertex -9 -9 13
    endloop
  endfacet
  facet normal 0 0 1
    outer loop
      vertex 10.5983 -14.0644 13
      vertex -10.5 -15 13
      vertex 10.5983 -15.9356 13
    endloop
  endfacet
  facet normal 0 0 1
    outer loop
      vertex -10.889 -16.8303 13
      vertex 10.5983 -15.9356 13
      vertex -10.5 -15 13
    endloop
  endfacet
  facet normal -0 0 1
    outer loop
      vertex -10.889 13.1697 13
      vertex -9 -9 13
      vertex -10.5 15 13
    endloop
  endfacet
  facet normal 0 0 1
    outer loop
      vertex 10.5983 -15.9356 13
      vertex -10.889 -16.8303 13
      vertex 11.3594 -17.645 13
    endloop
  endfacet
  facet normal 0 0 1
    outer loop
      vertex -11.9889 -18.3442 13
      vertex 11.3594 -17.645 13
      vertex -10.889 -16.8303 13
    endloop
  endfacet
  facet normal 0 0 1
    outer loop
      vertex 11.3594 -17.645 13
      vertex -11.9889 -18.3442 13
      vertex 12.75 -18.8971 13
    endloop
  endfacet
  facet normal 0 0 1
    outer loop
      vertex -13.6094 -19.2798 13
      vertex 12.75 -18.8971 13
      vertex -11.9889 -18.3442 13
    endloop
  endfacet
  facet normal 0 0 1
    outer loop
      vertex 12.75 -18.8971 13
      vertex -13.6094 -19.2798 13
      vertex 24 -24 13
    endloop
  endfacet
  facet normal 0 0 1
    outer loop
      vertex -24 -24 13
      vertex -13.6094 -19.2798 13
      vertex -15.4704 -19.4753 13
    endloop
  endfacet
  facet normal 0 0 1
    outer loop
      vertex -13.6094 -19.2798 13
      vertex -24 -24 13
      vertex 24 -24 13
    endloop
  endfacet
  facet normal 0 0 1
    outer loop
      vertex -17.25 -18.8971 13
      vertex -24 -24 13
      vertex -15.4704 -19.4753 13
    endloop
  endfacet
  facet normal 0 0 1
    outer loop
      vertex -18.6406 -17.645 13
      vertex -24 -24 13
      vertex -17.25 -18.8971 13
    endloop
  endfacet
  facet normal 0 0 1
    outer loop
      vertex -19.4017 -15.9356 13
      vertex -24 -24 13
      vertex -18.6406 -17.645 13
    endloop
  endfacet
  facet normal 0 0 1
    outer loop
      vertex -19.4017 -14.0644 13
      vertex -24 -24 13
      vertex -19.4017 -15.9356 13
    endloop
  endfacet
  facet normal -1 0 0
    outer loop
      vertex 9 27 0
      vertex 9 24 13
      vertex 9 27 27.5
    endloop
  endfacet
  facet normal -1 0 0
    outer loop
      vertex 9 -9 0
      vertex 9 24 13
      vertex 9 27 0
    endloop
  endfacet
  facet normal -1 -0 0
    outer loop
      vertex 9 24 13
      vertex 9 -9 0
      vertex 9 -9 13
    endloop
  endfacet
  facet normal -1 -0 0
    outer loop
      vertex 9 27 27.5
      vertex 9 24 13
      vertex 9 24 27.5
    endloop
  endfacet
  facet normal 0 0 -1
    outer loop
      vertex 27 -27 0
      vertex 9 -9 0
      vertex 27 27 0
    endloop
  endfacet
  facet normal 0 0 -1
    outer loop
      vertex 27 -27 0
      vertex -9 -9 0
      vertex 9 -9 0
    endloop
  endfacet
  facet normal 0 0 -1
    outer loop
      vertex -27 -27 0
      vertex -9 -9 0
      vertex 27 -27 0
    endloop
  endfacet
  facet normal 0 0 -1
    outer loop
      vertex -27 27 0
      vertex -9 -9 0
      vertex -27 -27 0
    endloop
  endfacet
  facet normal 0 0 -1
    outer loop
      vertex -9 -9 0
      vertex -27 27 0
      vertex -9 27 0
    endloop
  endfacet
  facet normal -0 0 -1
    outer loop
      vertex 27 27 0
      vertex 9 -9 0
      vertex 9 27 0
    endloop
  endfacet
  facet normal 0 1 -0
    outer loop
      vertex 9 -9 0
      vertex -9 -9 13
      vertex 9 -9 13
    endloop
  endfacet
  facet normal 0 1 0
    outer loop
      vertex -9 -9 13
      vertex 9 -9 0
      vertex -9 -9 0
    endloop
  endfacet
  facet normal 1 0 0
    outer loop
      vertex -24 27 39
      vertex -24 24 27.5
      vertex -24 27 27.5
    endloop
  endfacet
  facet normal 1 -0 0
    outer loop
      vertex -24 -24 39
      vertex -24 24 27.5
      vertex -24 27 39
    endloop
  endfacet
  facet normal 1 0 0
    outer loop
      vertex -24 -24 13
      vertex -24 24 27.5
      vertex -24 -24 39
    endloop
  endfacet
  facet normal 1 0 0
    outer loop
      vertex -24 24 27.5
      vertex -24 -24 13
      vertex -24 24 13
    endloop
  endfacet
  facet normal -1 0 0
    outer loop
      vertex 24 24 13
      vertex 24 -24 13
      vertex 24 24 27.5
    endloop
  endfacet
  facet normal -1 0 0
    outer loop
      vertex 24 24 27.5
      vertex 24 27 39
      vertex 24 27 27.5
    endloop
  endfacet
  facet normal -1 0 0
    outer loop
      vertex 24 -24 39
      vertex 24 24 27.5
      vertex 24 -24 13
    endloop
  endfacet
  facet normal -1 0 0
    outer loop
      vertex 24 24 27.5
      vertex 24 -24 39
      vertex 24 27 39
    endloop
  endfacet
  facet normal 0 1 -0
    outer loop
      vertex 24 -24 13
      vertex -24 -24 39
      vertex 24 -24 39
    endloop
  endfacet
  facet normal 0 1 0
    outer loop
      vertex -24 -24 39
      vertex 24 -24 13
      vertex -24 -24 13
    endloop
  endfacet
  facet normal 0 -1 0
    outer loop
      vertex -24 24 13
      vertex -9 24 27.5
      vertex -24 24 27.5
    endloop
  endfacet
  facet normal 0 -1 -0
    outer loop
      vertex -9 24 27.5
      vertex -24 24 13
      vertex -9 24 13
    endloop
  endfacet
  facet normal 0 -1 0
    outer loop
      vertex 9 24 13
      vertex 24 24 27.5
      vertex 9 24 27.5
    endloop
  endfacet
  facet normal 0 -1 -0
    outer loop
      vertex 24 24 27.5
      vertex 9 24 13
      vertex 24 24 13
    endloop
  endfacet
  facet normal -0 0 1
    outer loop
      vertex -24 27 27.5
      vertex -9 24 27.5
      vertex -9 27 27.5
    endloop
  endfacet
  facet normal 0 0 1
    outer loop
      vertex -9 24 27.5
      vertex -24 27 27.5
      vertex -24 24 27.5
    endloop
  endfacet
  facet normal -0 0 1
    outer loop
      vertex 9 27 27.5
      vertex 24 24 27.5
      vertex 24 27 27.5
    endloop
  endfacet
  facet normal 0 0 1
    outer loop
      vertex 24 24 27.5
      vertex 9 27 27.5
      vertex 9 24 27.5
    endloop
  endfacet
  facet normal 0 1 0
    outer loop
      vertex 27 27 39
      vertex 24 27 27.5
      vertex 24 27 39
    endloop
  endfacet
  facet normal 0 1 -0
    outer loop
      vertex 27 27 0
      vertex 24 27 27.5
      vertex 27 27 39
    endloop
  endfacet
  facet normal 0 1 0
    outer loop
      vertex 9 27 0
      vertex 24 27 27.5
      vertex 27 27 0
    endloop
  endfacet
  facet normal 0 1 0
    outer loop
      vertex 24 27 27.5
      vertex 9 27 0
      vertex 9 27 27.5
    endloop
  endfacet
  facet normal 0 1 0
    outer loop
      vertex -9 27 27.5
      vertex -9 27 0
      vertex -24 27 27.5
    endloop
  endfacet
  facet normal 0 1 -0
    outer loop
      vertex -24 27 27.5
      vertex -27 27 39
      vertex -24 27 39
    endloop
  endfacet
  facet normal 0 1 0
    outer loop
      vertex -24 27 27.5
      vertex -27 27 0
      vertex -27 27 39
    endloop
  endfacet
  facet normal 0 1 0
    outer loop
      vertex -27 27 0
      vertex -24 27 27.5
      vertex -9 27 0
    endloop
  endfacet
  facet normal -1 0 0
    outer loop
      vertex -27 -27 0
      vertex -27 27 39
      vertex -27 27 0
    endloop
  endfacet
  facet normal -1 -0 0
    outer loop
      vertex -27 27 39
      vertex -27 -27 0
      vertex -27 -27 39
    endloop
  endfacet
  facet normal 0 0 1
    outer loop
      vertex -24 27 39
      vertex -27 27 39
      vertex -24 -24 39
    endloop
  endfacet
  facet normal 0 0 1
    outer loop
      vertex 24 -24 39
      vertex 27 27 39
      vertex 24 27 39
    endloop
  endfacet
  facet normal 0 0 1
    outer loop
      vertex 27 27 39
      vertex 24 -24 39
      vertex 27 -27 39
    endloop
  endfacet
  facet normal -0 0 1
    outer loop
      vertex -24 -24 39
      vertex 27 -27 39
      vertex 24 -24 39
    endloop
  endfacet
  facet normal 0 0 1
    outer loop
      vertex -24 -24 39
      vertex -27 -27 39
      vertex 27 -27 39
    endloop
  endfacet
  facet normal 0 0 1
    outer loop
      vertex -27 -27 39
      vertex -24 -24 39
      vertex -27 27 39
    endloop
  endfacet
  facet normal 1 -0 0
    outer loop
      vertex 27 -27 39
      vertex 27 27 0
      vertex 27 27 39
    endloop
  endfacet
  facet normal 1 0 0
    outer loop
      vertex 27 27 0
      vertex 27 -27 39
      vertex 27 -27 0
    endloop
  endfacet
  facet normal 0 -1 0
    outer loop
      vertex -27 -27 0
      vertex 27 -27 39
      vertex -27 -27 39
    endloop
  endfacet
  facet normal 0 -1 -0
    outer loop
      vertex 27 -27 39
      vertex -27 -27 0
      vertex 27 -27 0
    endloop
  endfacet
  facet normal -0.978148 -0.207911 0
    outer loop
      vertex -10.5 -15 3
      vertex -10.889 -13.1697 13
      vertex -10.889 -13.1697 3
    endloop
  endfacet
  facet normal -0.978148 -0.207911 0
    outer loop
      vertex -10.889 -13.1697 13
      vertex -10.5 -15 3
      vertex -10.5 -15 13
    endloop
  endfacet
  facet normal 1 -0 0
    outer loop
      vertex -19.4017 -15.9356 13
      vertex -19.4017 -14.0644 3
      vertex -19.4017 -14.0644 13
    endloop
  endfacet
  facet normal 1 0 0
    outer loop
      vertex -19.4017 -14.0644 3
      vertex -19.4017 -15.9356 13
      vertex -19.4017 -15.9356 3
    endloop
  endfacet
  facet normal -0.104529 -0.994522 0
    outer loop
      vertex -15.4704 -10.5247 3
      vertex -13.6094 -10.7202 13
      vertex -15.4704 -10.5247 13
    endloop
  endfacet
  facet normal -0.104529 -0.994522 -0
    outer loop
      vertex -13.6094 -10.7202 13
      vertex -15.4704 -10.5247 3
      vertex -13.6094 -10.7202 3
    endloop
  endfacet
  facet normal -0.809017 -0.587785 0
    outer loop
      vertex -10.889 -13.1697 3
      vertex -11.9889 -11.6558 13
      vertex -11.9889 -11.6558 3
    endloop
  endfacet
  facet normal -0.809017 -0.587785 0
    outer loop
      vertex -11.9889 -11.6558 13
      vertex -10.889 -13.1697 3
      vertex -10.889 -13.1697 13
    endloop
  endfacet
  facet normal -0.104529 0.994522 0
    outer loop
      vertex -13.6094 -19.2798 3
      vertex -15.4704 -19.4753 13
      vertex -13.6094 -19.2798 13
    endloop
  endfacet
  facet normal -0.104529 0.994522 0
    outer loop
      vertex -15.4704 -19.4753 13
      vertex -13.6094 -19.2798 3
      vertex -15.4704 -19.4753 3
    endloop
  endfacet
  facet normal -0.500001 0.866025 0
    outer loop
      vertex -11.9889 -18.3442 3
      vertex -13.6094 -19.2798 13
      vertex -11.9889 -18.3442 13
    endloop
  endfacet
  facet normal -0.500001 0.866025 0
    outer loop
      vertex -13.6094 -19.2798 13
      vertex -11.9889 -18.3442 3
      vertex -13.6094 -19.2798 3
    endloop
  endfacet
  facet normal -0.5 -0.866025 0
    outer loop
      vertex -13.6094 -10.7202 3
      vertex -11.9889 -11.6558 13
      vertex -13.6094 -10.7202 13
    endloop
  endfacet
  facet normal -0.5 -0.866025 -0
    outer loop
      vertex -11.9889 -11.6558 13
      vertex -13.6094 -10.7202 3
      vertex -11.9889 -11.6558 3
    endloop
  endfacet
  facet normal 0.669131 -0.743145 0
    outer loop
      vertex -18.6406 -12.355 3
      vertex -17.25 -11.1029 13
      vertex -18.6406 -12.355 13
    endloop
  endfacet
  facet normal 0.669131 -0.743145 0
    outer loop
      vertex -17.25 -11.1029 13
      vertex -18.6406 -12.355 3
      vertex -17.25 -11.1029 3
    endloop
  endfacet
  facet normal 0.913545 -0.406737 0
    outer loop
      vertex -19.4017 -14.0644 13
      vertex -18.6406 -12.355 3
      vertex -18.6406 -12.355 13
    endloop
  endfacet
  facet normal 0.913545 -0.406737 0
    outer loop
      vertex -18.6406 -12.355 3
      vertex -19.4017 -14.0644 13
      vertex -19.4017 -14.0644 3
    endloop
  endfacet
  facet normal 0.309017 -0.951056 0
    outer loop
      vertex -17.25 -11.1029 3
      vertex -15.4704 -10.5247 13
      vertex -17.25 -11.1029 13
    endloop
  endfacet
  facet normal 0.309017 -0.951056 0
    outer loop
      vertex -15.4704 -10.5247 13
      vertex -17.25 -11.1029 3
      vertex -15.4704 -10.5247 3
    endloop
  endfacet
  facet normal -0.978148 0.207911 0
    outer loop
      vertex -10.889 -16.8303 3
      vertex -10.5 -15 13
      vertex -10.5 -15 3
    endloop
  endfacet
  facet normal -0.978148 0.207911 0
    outer loop
      vertex -10.5 -15 13
      vertex -10.889 -16.8303 3
      vertex -10.889 -16.8303 13
    endloop
  endfacet
  facet normal 0 0 1
    outer loop
      vertex -10.889 -13.1697 3
      vertex -10.889 -16.8303 3
      vertex -10.5 -15 3
    endloop
  endfacet
  facet normal 0 0 1
    outer loop
      vertex -11.9889 -11.6558 3
      vertex -10.889 -16.8303 3
      vertex -10.889 -13.1697 3
    endloop
  endfacet
  facet normal 0 0 1
    outer loop
      vertex -11.9889 -11.6558 3
      vertex -11.9889 -18.3442 3
      vertex -10.889 -16.8303 3
    endloop
  endfacet
  facet normal 0 0 1
    outer loop
      vertex -13.6094 -10.7202 3
      vertex -11.9889 -18.3442 3
      vertex -11.9889 -11.6558 3
    endloop
  endfacet
  facet normal 0 0 1
    outer loop
      vertex -13.6094 -10.7202 3
      vertex -13.6094 -19.2798 3
      vertex -11.9889 -18.3442 3
    endloop
  endfacet
  facet normal 0 0 1
    outer loop
      vertex -15.4704 -10.5247 3
      vertex -13.6094 -19.2798 3
      vertex -13.6094 -10.7202 3
    endloop
  endfacet
  facet normal 0 0 1
    outer loop
      vertex -15.4704 -10.5247 3
      vertex -15.4704 -19.4753 3
      vertex -13.6094 -19.2798 3
    endloop
  endfacet
  facet normal -0 0 1
    outer loop
      vertex -17.25 -11.1029 3
      vertex -15.4704 -19.4753 3
      vertex -15.4704 -10.5247 3
    endloop
  endfacet
  facet normal 0 0 1
    outer loop
      vertex -17.25 -11.1029 3
      vertex -17.25 -18.8971 3
      vertex -15.4704 -19.4753 3
    endloop
  endfacet
  facet normal -0 0 1
    outer loop
      vertex -18.6406 -12.355 3
      vertex -17.25 -18.8971 3
      vertex -17.25 -11.1029 3
    endloop
  endfacet
  facet normal 0 0 1
    outer loop
      vertex -18.6406 -12.355 3
      vertex -18.6406 -17.645 3
      vertex -17.25 -18.8971 3
    endloop
  endfacet
  facet normal -0 0 1
    outer loop
      vertex -19.4017 -14.0644 3
      vertex -18.6406 -17.645 3
      vertex -18.6406 -12.355 3
    endloop
  endfacet
  facet normal 0 0 1
    outer loop
      vertex -18.6406 -17.645 3
      vertex -19.4017 -14.0644 3
      vertex -19.4017 -15.9356 3
    endloop
  endfacet
  facet normal 0.309018 0.951056 -0
    outer loop
      vertex -15.4704 -19.4753 3
      vertex -17.25 -18.8971 13
      vertex -15.4704 -19.4753 13
    endloop
  endfacet
  facet normal 0.309018 0.951056 0
    outer loop
      vertex -17.25 -18.8971 13
      vertex -15.4704 -19.4753 3
      vertex -17.25 -18.8971 3
    endloop
  endfacet
  facet normal -0.809017 0.587785 0
    outer loop
      vertex -11.9889 -18.3442 3
      vertex -10.889 -16.8303 13
      vertex -10.889 -16.8303 3
    endloop
  endfacet
  facet normal -0.809017 0.587785 0
    outer loop
      vertex -10.889 -16.8303 13
      vertex -11.9889 -18.3442 3
      vertex -11.9889 -18.3442 13
    endloop
  endfacet
  facet normal 0.669131 0.743145 -0
    outer loop
      vertex -17.25 -18.8971 3
      vertex -18.6406 -17.645 13
      vertex -17.25 -18.8971 13
    endloop
  endfacet
  facet normal 0.669131 0.743145 0
    outer loop
      vertex -18.6406 -17.645 13
      vertex -17.25 -18.8971 3
      vertex -18.6406 -17.645 3
    endloop
  endfacet
  facet normal 0.913545 0.406737 0
    outer loop
      vertex -18.6406 -17.645 13
      vertex -19.4017 -15.9356 3
      vertex -19.4017 -15.9356 13
    endloop
  endfacet
  facet normal 0.913545 0.406737 0
    outer loop
      vertex -19.4017 -15.9356 3
      vertex -18.6406 -17.645 13
      vertex -18.6406 -17.645 3
    endloop
  endfacet
  facet normal -0.978148 -0.207912 0
    outer loop
      vertex 19.5 -15 3
      vertex 19.111 -13.1697 13
      vertex 19.111 -13.1697 3
    endloop
  endfacet
  facet normal -0.978148 -0.207912 0
    outer loop
      vertex 19.111 -13.1697 13
      vertex 19.5 -15 3
      vertex 19.5 -15 13
    endloop
  endfacet
  facet normal 1 -0 0
    outer loop
      vertex 10.5983 -15.9356 13
      vertex 10.5983 -14.0644 3
      vertex 10.5983 -14.0644 13
    endloop
  endfacet
  facet normal 1 0 0
    outer loop
      vertex 10.5983 -14.0644 3
      vertex 10.5983 -15.9356 13
      vertex 10.5983 -15.9356 3
    endloop
  endfacet
  facet normal -0.104529 -0.994522 0
    outer loop
      vertex 14.5296 -10.5247 3
      vertex 16.3906 -10.7202 13
      vertex 14.5296 -10.5247 13
    endloop
  endfacet
  facet normal -0.104529 -0.994522 -0
    outer loop
      vertex 16.3906 -10.7202 13
      vertex 14.5296 -10.5247 3
      vertex 16.3906 -10.7202 3
    endloop
  endfacet
  facet normal -0.809017 -0.587785 0
    outer loop
      vertex 19.111 -13.1697 3
      vertex 18.0111 -11.6558 13
      vertex 18.0111 -11.6558 3
    endloop
  endfacet
  facet normal -0.809017 -0.587785 0
    outer loop
      vertex 18.0111 -11.6558 13
      vertex 19.111 -13.1697 3
      vertex 19.111 -13.1697 13
    endloop
  endfacet
  facet normal -0.104529 0.994522 0
    outer loop
      vertex 16.3906 -19.2798 3
      vertex 14.5296 -19.4753 13
      vertex 16.3906 -19.2798 13
    endloop
  endfacet
  facet normal -0.104529 0.994522 0
    outer loop
      vertex 14.5296 -19.4753 13
      vertex 16.3906 -19.2798 3
      vertex 14.5296 -19.4753 3
    endloop
  endfacet
  facet normal -0.5 -0.866026 0
    outer loop
      vertex 16.3906 -10.7202 3
      vertex 18.0111 -11.6558 13
      vertex 16.3906 -10.7202 13
    endloop
  endfacet
  facet normal -0.5 -0.866026 -0
    outer loop
      vertex 18.0111 -11.6558 13
      vertex 16.3906 -10.7202 3
      vertex 18.0111 -11.6558 3
    endloop
  endfacet
  facet normal 0.66913 -0.743145 0
    outer loop
      vertex 11.3594 -12.355 3
      vertex 12.75 -11.1029 13
      vertex 11.3594 -12.355 13
    endloop
  endfacet
  facet normal 0.66913 -0.743145 0
    outer loop
      vertex 12.75 -11.1029 13
      vertex 11.3594 -12.355 3
      vertex 12.75 -11.1029 3
    endloop
  endfacet
  facet normal 0.913545 -0.406737 0
    outer loop
      vertex 10.5983 -14.0644 13
      vertex 11.3594 -12.355 3
      vertex 11.3594 -12.355 13
    endloop
  endfacet
  facet normal 0.913545 -0.406737 0
    outer loop
      vertex 11.3594 -12.355 3
      vertex 10.5983 -14.0644 13
      vertex 10.5983 -14.0644 3
    endloop
  endfacet
  facet normal 0.309017 -0.951056 0
    outer loop
      vertex 12.75 -11.1029 3
      vertex 14.5296 -10.5247 13
      vertex 12.75 -11.1029 13
    endloop
  endfacet
  facet normal 0.309017 -0.951056 0
    outer loop
      vertex 14.5296 -10.5247 13
      vertex 12.75 -11.1029 3
      vertex 14.5296 -10.5247 3
    endloop
  endfacet
  facet normal -0.978148 0.207912 0
    outer loop
      vertex 19.111 -16.8303 3
      vertex 19.5 -15 13
      vertex 19.5 -15 3
    endloop
  endfacet
  facet normal -0.978148 0.207912 0
    outer loop
      vertex 19.5 -15 13
      vertex 19.111 -16.8303 3
      vertex 19.111 -16.8303 13
    endloop
  endfacet
  facet normal 0 0 1
    outer loop
      vertex 19.111 -13.1697 3
      vertex 19.111 -16.8303 3
      vertex 19.5 -15 3
    endloop
  endfacet
  facet normal 0 0 1
    outer loop
      vertex 18.0111 -11.6558 3
      vertex 19.111 -16.8303 3
      vertex 19.111 -13.1697 3
    endloop
  endfacet
  facet normal 0 0 1
    outer loop
      vertex 18.0111 -11.6558 3
      vertex 18.0111 -18.3442 3
      vertex 19.111 -16.8303 3
    endloop
  endfacet
  facet normal 0 0 1
    outer loop
      vertex 16.3906 -10.7202 3
      vertex 18.0111 -18.3442 3
      vertex 18.0111 -11.6558 3
    endloop
  endfacet
  facet normal 0 0 1
    outer loop
      vertex 16.3906 -10.7202 3
      vertex 16.3906 -19.2798 3
      vertex 18.0111 -18.3442 3
    endloop
  endfacet
  facet normal 0 0 1
    outer loop
      vertex 14.5296 -10.5247 3
      vertex 16.3906 -19.2798 3
      vertex 16.3906 -10.7202 3
    endloop
  endfacet
  facet normal 0 0 1
    outer loop
      vertex 14.5296 -10.5247 3
      vertex 14.5296 -19.4753 3
      vertex 16.3906 -19.2798 3
    endloop
  endfacet
  facet normal -0 0 1
    outer loop
      vertex 12.75 -11.1029 3
      vertex 14.5296 -19.4753 3
      vertex 14.5296 -10.5247 3
    endloop
  endfacet
  facet normal 0 0 1
    outer loop
      vertex 12.75 -11.1029 3
      vertex 12.75 -18.8971 3
      vertex 14.5296 -19.4753 3
    endloop
  endfacet
  facet normal -0 0 1
    outer loop
      vertex 11.3594 -12.355 3
      vertex 12.75 -18.8971 3
      vertex 12.75 -11.1029 3
    endloop
  endfacet
  facet normal 0 0 1
    outer loop
      vertex 11.3594 -12.355 3
      vertex 11.3594 -17.645 3
      vertex 12.75 -18.8971 3
    endloop
  endfacet
  facet normal -0 0 1
    outer loop
      vertex 10.5983 -14.0644 3
      vertex 11.3594 -17.645 3
      vertex 11.3594 -12.355 3
    endloop
  endfacet
  facet normal 0 0 1
    outer loop
      vertex 11.3594 -17.645 3
      vertex 10.5983 -14.0644 3
      vertex 10.5983 -15.9356 3
    endloop
  endfacet
  facet normal -0.5 0.866025 0
    outer loop
      vertex 18.0111 -18.3442 3
      vertex 16.3906 -19.2798 13
      vertex 18.0111 -18.3442 13
    endloop
  endfacet
  facet normal -0.5 0.866025 0
    outer loop
      vertex 16.3906 -19.2798 13
      vertex 18.0111 -18.3442 3
      vertex 16.3906 -19.2798 3
    endloop
  endfacet
  facet normal 0.309018 0.951056 -0
    outer loop
      vertex 14.5296 -19.4753 3
      vertex 12.75 -18.8971 13
      vertex 14.5296 -19.4753 13
    endloop
  endfacet
  facet normal 0.309018 0.951056 0
    outer loop
      vertex 12.75 -18.8971 13
      vertex 14.5296 -19.4753 3
      vertex 12.75 -18.8971 3
    endloop
  endfacet
  facet normal -0.809017 0.587785 0
    outer loop
      vertex 18.0111 -18.3442 3
      vertex 19.111 -16.8303 13
      vertex 19.111 -16.8303 3
    endloop
  endfacet
  facet normal -0.809017 0.587785 0
    outer loop
      vertex 19.111 -16.8303 13
      vertex 18.0111 -18.3442 3
      vertex 18.0111 -18.3442 13
    endloop
  endfacet
  facet normal 0.669131 0.743145 -0
    outer loop
      vertex 12.75 -18.8971 3
      vertex 11.3594 -17.645 13
      vertex 12.75 -18.8971 13
    endloop
  endfacet
  facet normal 0.669131 0.743145 0
    outer loop
      vertex 11.3594 -17.645 13
      vertex 12.75 -18.8971 3
      vertex 11.3594 -17.645 3
    endloop
  endfacet
  facet normal 0.913545 0.406737 0
    outer loop
      vertex 11.3594 -17.645 13
      vertex 10.5983 -15.9356 3
      vertex 10.5983 -15.9356 13
    endloop
  endfacet
  facet normal 0.913545 0.406737 0
    outer loop
      vertex 10.5983 -15.9356 3
      vertex 11.3594 -17.645 13
      vertex 11.3594 -17.645 3
    endloop
  endfacet
  facet normal -0.978148 -0.207911 0
    outer loop
      vertex -10.5 15 3
      vertex -10.889 16.8303 13
      vertex -10.889 16.8303 3
    endloop
  endfacet
  facet normal -0.978148 -0.207911 0
    outer loop
      vertex -10.889 16.8303 13
      vertex -10.5 15 3
      vertex -10.5 15 13
    endloop
  endfacet
  facet normal 1 -0 0
    outer loop
      vertex -19.4017 14.0644 13
      vertex -19.4017 15.9356 3
      vertex -19.4017 15.9356 13
    endloop
  endfacet
  facet normal 1 0 0
    outer loop
      vertex -19.4017 15.9356 3
      vertex -19.4017 14.0644 13
      vertex -19.4017 14.0644 3
    endloop
  endfacet
  facet normal -0.104529 -0.994522 0
    outer loop
      vertex -15.4704 19.4753 3
      vertex -13.6094 19.2798 13
      vertex -15.4704 19.4753 13
    endloop
  endfacet
  facet normal -0.104529 -0.994522 -0
    outer loop
      vertex -13.6094 19.2798 13
      vertex -15.4704 19.4753 3
      vertex -13.6094 19.2798 3
    endloop
  endfacet
  facet normal -0.809017 -0.587785 0
    outer loop
      vertex -10.889 16.8303 3
      vertex -11.9889 18.3442 13
      vertex -11.9889 18.3442 3
    endloop
  endfacet
  facet normal -0.809017 -0.587785 0
    outer loop
      vertex -11.9889 18.3442 13
      vertex -10.889 16.8303 3
      vertex -10.889 16.8303 13
    endloop
  endfacet
  facet normal -0.104529 0.994522 0
    outer loop
      vertex -13.6094 10.7202 3
      vertex -15.4704 10.5247 13
      vertex -13.6094 10.7202 13
    endloop
  endfacet
  facet normal -0.104529 0.994522 0
    outer loop
      vertex -15.4704 10.5247 13
      vertex -13.6094 10.7202 3
      vertex -15.4704 10.5247 3
    endloop
  endfacet
  facet normal -0.5 0.866025 0
    outer loop
      vertex -11.9889 11.6558 3
      vertex -13.6094 10.7202 13
      vertex -11.9889 11.6558 13
    endloop
  endfacet
  facet normal -0.5 0.866025 0
    outer loop
      vertex -13.6094 10.7202 13
      vertex -11.9889 11.6558 3
      vertex -13.6094 10.7202 3
    endloop
  endfacet
  facet normal -0.500001 -0.866025 0
    outer loop
      vertex -13.6094 19.2798 3
      vertex -11.9889 18.3442 13
      vertex -13.6094 19.2798 13
    endloop
  endfacet
  facet normal -0.500001 -0.866025 -0
    outer loop
      vertex -11.9889 18.3442 13
      vertex -13.6094 19.2798 3
      vertex -11.9889 18.3442 3
    endloop
  endfacet
  facet normal 0.669131 -0.743145 0
    outer loop
      vertex -18.6406 17.645 3
      vertex -17.25 18.8971 13
      vertex -18.6406 17.645 13
    endloop
  endfacet
  facet normal 0.669131 -0.743145 0
    outer loop
      vertex -17.25 18.8971 13
      vertex -18.6406 17.645 3
      vertex -17.25 18.8971 3
    endloop
  endfacet
  facet normal 0.913545 -0.406737 0
    outer loop
      vertex -19.4017 15.9356 13
      vertex -18.6406 17.645 3
      vertex -18.6406 17.645 13
    endloop
  endfacet
  facet normal 0.913545 -0.406737 0
    outer loop
      vertex -18.6406 17.645 3
      vertex -19.4017 15.9356 13
      vertex -19.4017 15.9356 3
    endloop
  endfacet
  facet normal 0.309018 -0.951056 0
    outer loop
      vertex -17.25 18.8971 3
      vertex -15.4704 19.4753 13
      vertex -17.25 18.8971 13
    endloop
  endfacet
  facet normal 0.309018 -0.951056 0
    outer loop
      vertex -15.4704 19.4753 13
      vertex -17.25 18.8971 3
      vertex -15.4704 19.4753 3
    endloop
  endfacet
  facet normal 0 0 1
    outer loop
      vertex -10.889 16.8303 3
      vertex -10.889 13.1697 3
      vertex -10.5 15 3
    endloop
  endfacet
  facet normal 0 0 1
    outer loop
      vertex -11.9889 18.3442 3
      vertex -10.889 13.1697 3
      vertex -10.889 16.8303 3
    endloop
  endfacet
  facet normal 0 0 1
    outer loop
      vertex -11.9889 18.3442 3
      vertex -11.9889 11.6558 3
      vertex -10.889 13.1697 3
    endloop
  endfacet
  facet normal 0 0 1
    outer loop
      vertex -13.6094 19.2798 3
      vertex -11.9889 11.6558 3
      vertex -11.9889 18.3442 3
    endloop
  endfacet
  facet normal 0 0 1
    outer loop
      vertex -13.6094 19.2798 3
      vertex -13.6094 10.7202 3
      vertex -11.9889 11.6558 3
    endloop
  endfacet
  facet normal 0 0 1
    outer loop
      vertex -15.4704 19.4753 3
      vertex -13.6094 10.7202 3
      vertex -13.6094 19.2798 3
    endloop
  endfacet
  facet normal 0 0 1
    outer loop
      vertex -15.4704 19.4753 3
      vertex -15.4704 10.5247 3
      vertex -13.6094 10.7202 3
    endloop
  endfacet
  facet normal -0 0 1
    outer loop
      vertex -17.25 18.8971 3
      vertex -15.4704 10.5247 3
      vertex -15.4704 19.4753 3
    endloop
  endfacet
  facet normal 0 0 1
    outer loop
      vertex -17.25 18.8971 3
      vertex -17.25 11.1029 3
      vertex -15.4704 10.5247 3
    endloop
  endfacet
  facet normal -0 0 1
    outer loop
      vertex -18.6406 17.645 3
      vertex -17.25 11.1029 3
      vertex -17.25 18.8971 3
    endloop
  endfacet
  facet normal 0 0 1
    outer loop
      vertex -18.6406 17.645 3
      vertex -18.6406 12.355 3
      vertex -17.25 11.1029 3
    endloop
  endfacet
  facet normal -0 0 1
    outer loop
      vertex -19.4017 15.9356 3
      vertex -18.6406 12.355 3
      vertex -18.6406 17.645 3
    endloop
  endfacet
  facet normal 0 0 1
    outer loop
      vertex -18.6406 12.355 3
      vertex -19.4017 15.9356 3
      vertex -19.4017 14.0644 3
    endloop
  endfacet
  facet normal 0.309017 0.951056 -0
    outer loop
      vertex -15.4704 10.5247 3
      vertex -17.25 11.1029 13
      vertex -15.4704 10.5247 13
    endloop
  endfacet
  facet normal 0.309017 0.951056 0
    outer loop
      vertex -17.25 11.1029 13
      vertex -15.4704 10.5247 3
      vertex -17.25 11.1029 3
    endloop
  endfacet
  facet normal 0.913545 0.406737 0
    outer loop
      vertex -18.6406 12.355 13
      vertex -19.4017 14.0644 3
      vertex -19.4017 14.0644 13
    endloop
  endfacet
  facet normal 0.913545 0.406737 0
    outer loop
      vertex -19.4017 14.0644 3
      vertex -18.6406 12.355 13
      vertex -18.6406 12.355 3
    endloop
  endfacet
  facet normal -0.809017 0.587785 0
    outer loop
      vertex -11.9889 11.6558 3
      vertex -10.889 13.1697 13
      vertex -10.889 13.1697 3
    endloop
  endfacet
  facet normal -0.809017 0.587785 0
    outer loop
      vertex -10.889 13.1697 13
      vertex -11.9889 11.6558 3
      vertex -11.9889 11.6558 13
    endloop
  endfacet
  facet normal -0.978148 0.207911 0
    outer loop
      vertex -10.889 13.1697 3
      vertex -10.5 15 13
      vertex -10.5 15 3
    endloop
  endfacet
  facet normal -0.978148 0.207911 0
    outer loop
      vertex -10.5 15 13
      vertex -10.889 13.1697 3
      vertex -10.889 13.1697 13
    endloop
  endfacet
  facet normal 0.669131 0.743145 -0
    outer loop
      vertex -17.25 11.1029 3
      vertex -18.6406 12.355 13
      vertex -17.25 11.1029 13
    endloop
  endfacet
  facet normal 0.669131 0.743145 0
    outer loop
      vertex -18.6406 12.355 13
      vertex -17.25 11.1029 3
      vertex -18.6406 12.355 3
    endloop
  endfacet
  facet normal -0.978148 -0.207912 0
    outer loop
      vertex 19.5 15 3
      vertex 19.111 16.8303 13
      vertex 19.111 16.8303 3
    endloop
  endfacet
  facet normal -0.978148 -0.207912 0
    outer loop
      vertex 19.111 16.8303 13
      vertex 19.5 15 3
      vertex 19.5 15 13
    endloop
  endfacet
  facet normal 1 -0 0
    outer loop
      vertex 10.5983 14.0644 13
      vertex 10.5983 15.9356 3
      vertex 10.5983 15.9356 13
    endloop
  endfacet
  facet normal 1 0 0
    outer loop
      vertex 10.5983 15.9356 3
      vertex 10.5983 14.0644 13
      vertex 10.5983 14.0644 3
    endloop
  endfacet
  facet normal 0.913545 0.406737 0
    outer loop
      vertex 11.3594 12.355 13
      vertex 10.5983 14.0644 3
      vertex 10.5983 14.0644 13
    endloop
  endfacet
  facet normal 0.913545 0.406737 0
    outer loop
      vertex 10.5983 14.0644 3
      vertex 11.3594 12.355 13
      vertex 11.3594 12.355 3
    endloop
  endfacet
  facet normal -0.104529 -0.994522 0
    outer loop
      vertex 14.5296 19.4753 3
      vertex 16.3906 19.2798 13
      vertex 14.5296 19.4753 13
    endloop
  endfacet
  facet normal -0.104529 -0.994522 -0
    outer loop
      vertex 16.3906 19.2798 13
      vertex 14.5296 19.4753 3
      vertex 16.3906 19.2798 3
    endloop
  endfacet
  facet normal -0.809017 -0.587785 0
    outer loop
      vertex 19.111 16.8303 3
      vertex 18.0111 18.3442 13
      vertex 18.0111 18.3442 3
    endloop
  endfacet
  facet normal -0.809017 -0.587785 0
    outer loop
      vertex 18.0111 18.3442 13
      vertex 19.111 16.8303 3
      vertex 19.111 16.8303 13
    endloop
  endfacet
  facet normal -0.5 -0.866025 0
    outer loop
      vertex 16.3906 19.2798 3
      vertex 18.0111 18.3442 13
      vertex 16.3906 19.2798 13
    endloop
  endfacet
  facet normal -0.5 -0.866025 -0
    outer loop
      vertex 18.0111 18.3442 13
      vertex 16.3906 19.2798 3
      vertex 18.0111 18.3442 3
    endloop
  endfacet
  facet normal 0.309018 -0.951056 0
    outer loop
      vertex 12.75 18.8971 3
      vertex 14.5296 19.4753 13
      vertex 12.75 18.8971 13
    endloop
  endfacet
  facet normal 0.309018 -0.951056 0
    outer loop
      vertex 14.5296 19.4753 13
      vertex 12.75 18.8971 3
      vertex 14.5296 19.4753 3
    endloop
  endfacet
  facet normal 0.66913 -0.743145 0
    outer loop
      vertex 11.3594 17.645 3
      vertex 12.75 18.8971 13
      vertex 11.3594 17.645 13
    endloop
  endfacet
  facet normal 0.66913 -0.743145 0
    outer loop
      vertex 12.75 18.8971 13
      vertex 11.3594 17.645 3
      vertex 12.75 18.8971 3
    endloop
  endfacet
  facet normal 0.913545 -0.406737 0
    outer loop
      vertex 10.5983 15.9356 13
      vertex 11.3594 17.645 3
      vertex 11.3594 17.645 13
    endloop
  endfacet
  facet normal 0.913545 -0.406737 0
    outer loop
      vertex 11.3594 17.645 3
      vertex 10.5983 15.9356 13
      vertex 10.5983 15.9356 3
    endloop
  endfacet
  facet normal 0.309017 0.951056 -0
    outer loop
      vertex 14.5296 10.5247 3
      vertex 12.75 11.1029 13
      vertex 14.5296 10.5247 13
    endloop
  endfacet
  facet normal 0.309017 0.951056 0
    outer loop
      vertex 12.75 11.1029 13
      vertex 14.5296 10.5247 3
      vertex 12.75 11.1029 3
    endloop
  endfacet
  facet normal 0.669131 0.743145 -0
    outer loop
      vertex 12.75 11.1029 3
      vertex 11.3594 12.355 13
      vertex 12.75 11.1029 13
    endloop
  endfacet
  facet normal 0.669131 0.743145 0
    outer loop
      vertex 11.3594 12.355 13
      vertex 12.75 11.1029 3
      vertex 11.3594 12.355 3
    endloop
  endfacet
  facet normal -0.5 0.866026 0
    outer loop
      vertex 18.0111 11.6558 3
      vertex 16.3906 10.7202 13
      vertex 18.0111 11.6558 13
    endloop
  endfacet
  facet normal -0.5 0.866026 0
    outer loop
      vertex 16.3906 10.7202 13
      vertex 18.0111 11.6558 3
      vertex 16.3906 10.7202 3
    endloop
  endfacet
  facet normal -0.809017 0.587785 0
    outer loop
      vertex 18.0111 11.6558 3
      vertex 19.111 13.1697 13
      vertex 19.111 13.1697 3
    endloop
  endfacet
  facet normal -0.809017 0.587785 0
    outer loop
      vertex 19.111 13.1697 13
      vertex 18.0111 11.6558 3
      vertex 18.0111 11.6558 13
    endloop
  endfacet
  facet normal -0.978148 0.207912 0
    outer loop
      vertex 19.111 13.1697 3
      vertex 19.5 15 13
      vertex 19.5 15 3
    endloop
  endfacet
  facet normal -0.978148 0.207912 0
    outer loop
      vertex 19.5 15 13
      vertex 19.111 13.1697 3
      vertex 19.111 13.1697 13
    endloop
  endfacet
  facet normal -0.104529 0.994522 0
    outer loop
      vertex 16.3906 10.7202 3
      vertex 14.5296 10.5247 13
      vertex 16.3906 10.7202 13
    endloop
  endfacet
  facet normal -0.104529 0.994522 0
    outer loop
      vertex 14.5296 10.5247 13
      vertex 16.3906 10.7202 3
      vertex 14.5296 10.5247 3
    endloop
  endfacet
  facet normal 0 0 1
    outer loop
      vertex 19.111 16.8303 3
      vertex 19.111 13.1697 3
      vertex 19.5 15 3
    endloop
  endfacet
  facet normal 0 0 1
    outer loop
      vertex 18.0111 18.3442 3
      vertex 19.111 13.1697 3
      vertex 19.111 16.8303 3
    endloop
  endfacet
  facet normal 0 0 1
    outer loop
      vertex 18.0111 18.3442 3
      vertex 18.0111 11.6558 3
      vertex 19.111 13.1697 3
    endloop
  endfacet
  facet normal 0 0 1
    outer loop
      vertex 16.3906 19.2798 3
      vertex 18.0111 11.6558 3
      vertex 18.0111 18.3442 3
    endloop
  endfacet
  facet normal 0 0 1
    outer loop
      vertex 16.3906 19.2798 3
      vertex 16.3906 10.7202 3
      vertex 18.0111 11.6558 3
    endloop
  endfacet
  facet normal 0 0 1
    outer loop
      vertex 14.5296 19.4753 3
      vertex 16.3906 10.7202 3
      vertex 16.3906 19.2798 3
    endloop
  endfacet
  facet normal 0 0 1
    outer loop
      vertex 14.5296 19.4753 3
      vertex 14.5296 10.5247 3
      vertex 16.3906 10.7202 3
    endloop
  endfacet
  facet normal -0 0 1
    outer loop
      vertex 12.75 18.8971 3
      vertex 14.5296 10.5247 3
      vertex 14.5296 19.4753 3
    endloop
  endfacet
  facet normal 0 0 1
    outer loop
      vertex 12.75 18.8971 3
      vertex 12.75 11.1029 3
      vertex 14.5296 10.5247 3
    endloop
  endfacet
  facet normal -0 0 1
    outer loop
      vertex 11.3594 17.645 3
      vertex 12.75 11.1029 3
      vertex 12.75 18.8971 3
    endloop
  endfacet
  facet normal 0 0 1
    outer loop
      vertex 11.3594 17.645 3
      vertex 11.3594 12.355 3
      vertex 12.75 11.1029 3
    endloop
  endfacet
  facet normal -0 0 1
    outer loop
      vertex 10.5983 15.9356 3
      vertex 11.3594 12.355 3
      vertex 11.3594 17.645 3
    endloop
  endfacet
  facet normal 0 0 1
    outer loop
      vertex 11.3594 12.355 3
      vertex 10.5983 15.9356 3
      vertex 10.5983 14.0644 3
    endloop
  endfacet
endsolid OpenSCAD_Model
