solid OpenSCAD_Model
  facet normal -1 0 0
    outer loop
      vertex -22.5 -22.5 10
      vertex -22.5 22.5 23
      vertex -22.5 22.5 10
    endloop
  endfacet
  facet normal -1 -0 0
    outer loop
      vertex -22.5 22.5 23
      vertex -22.5 -22.5 10
      vertex -22.5 -22.5 23
    endloop
  endfacet
  facet normal -0 0 1
    outer loop
      vertex -22.5 22.5 23
      vertex 22.5 -22.5 23
      vertex 22.5 22.5 23
    endloop
  endfacet
  facet normal 0 0 1
    outer loop
      vertex 22.5 -22.5 23
      vertex -22.5 22.5 23
      vertex -22.5 -22.5 23
    endloop
  endfacet
  facet normal 1 -0 0
    outer loop
      vertex 22.5 -22.5 23
      vertex 22.5 22.5 10
      vertex 22.5 22.5 23
    endloop
  endfacet
  facet normal 1 0 0
    outer loop
      vertex 22.5 22.5 10
      vertex 22.5 -22.5 23
      vertex 22.5 -22.5 10
    endloop
  endfacet
  facet normal 0 0 -1
    outer loop
      vertex -13.6094 -10.7202 10
      vertex -7.5 -7.5 10
      vertex -11.9889 -11.6558 10
    endloop
  endfacet
  facet normal 0 0 -1
    outer loop
      vertex -7.5 7.5 10
      vertex -10.889 13.1697 10
      vertex -10.5 15 10
    endloop
  endfacet
  facet normal 0 0 -1
    outer loop
      vertex -15.4704 -10.5247 10
      vertex -7.5 -7.5 10
      vertex -13.6094 -10.7202 10
    endloop
  endfacet
  facet normal 0 0 -1
    outer loop
      vertex -7.5 7.5 10
      vertex -11.9889 11.6558 10
      vertex -10.889 13.1697 10
    endloop
  endfacet
  facet normal -0 0 -1
    outer loop
      vertex -7.5 -7.5 10
      vertex -15.4704 -10.5247 10
      vertex -7.5 7.5 10
    endloop
  endfacet
  facet normal 0 0 -1
    outer loop
      vertex -7.5 7.5 10
      vertex -13.6094 10.7202 10
      vertex -11.9889 11.6558 10
    endloop
  endfacet
  facet normal 0 0 -1
    outer loop
      vertex -15.4704 10.5247 10
      vertex -7.5 7.5 10
      vertex -15.4704 -10.5247 10
    endloop
  endfacet
  facet normal 0 0 -1
    outer loop
      vertex -7.5 7.5 10
      vertex -15.4704 10.5247 10
      vertex -13.6094 10.7202 10
    endloop
  endfacet
  facet normal 0 0 -1
    outer loop
      vertex -17.25 -11.1029 10
      vertex -15.4704 10.5247 10
      vertex -15.4704 -10.5247 10
    endloop
  endfacet
  facet normal 0 0 -1
    outer loop
      vertex -17.25 -11.1029 10
      vertex -17.25 11.1029 10
      vertex -15.4704 10.5247 10
    endloop
  endfacet
  facet normal 0 0 -1
    outer loop
      vertex -18.6406 -12.355 10
      vertex -17.25 11.1029 10
      vertex -17.25 -11.1029 10
    endloop
  endfacet
  facet normal 0 0 -1
    outer loop
      vertex -18.6406 -12.355 10
      vertex -18.6406 12.355 10
      vertex -17.25 11.1029 10
    endloop
  endfacet
  facet normal 0 0 -1
    outer loop
      vertex -19.4017 -14.0644 10
      vertex -18.6406 12.355 10
      vertex -18.6406 -12.355 10
    endloop
  endfacet
  facet normal -0 0 -1
    outer loop
      vertex -18.6406 12.355 10
      vertex -19.4017 -14.0644 10
      vertex -19.4017 14.0644 10
    endloop
  endfacet
  facet normal 0 0 -1
    outer loop
      vertex 19.111 13.1697 10
      vertex 22.5 22.5 10
      vertex 19.111 -13.1697 10
    endloop
  endfacet
  facet normal 0 0 -1
    outer loop
      vertex 22.5 22.5 10
      vertex 19.111 13.1697 10
      vertex 19.5 15 10
    endloop
  endfacet
  facet normal 0 0 -1
    outer loop
      vertex 18.0111 -11.6558 10
      vertex 19.111 13.1697 10
      vertex 19.111 -13.1697 10
    endloop
  endfacet
  facet normal 0 0 -1
    outer loop
      vertex 18.0111 -11.6558 10
      vertex 18.0111 11.6558 10
      vertex 19.111 13.1697 10
    endloop
  endfacet
  facet normal 0 0 -1
    outer loop
      vertex 16.3906 -10.7202 10
      vertex 18.0111 11.6558 10
      vertex 18.0111 -11.6558 10
    endloop
  endfacet
  facet normal 0 0 -1
    outer loop
      vertex 16.3906 -10.7202 10
      vertex 16.3906 10.7202 10
      vertex 18.0111 11.6558 10
    endloop
  endfacet
  facet normal 0 0 -1
    outer loop
      vertex 14.5296 -10.5247 10
      vertex 16.3906 10.7202 10
      vertex 16.3906 -10.7202 10
    endloop
  endfacet
  facet normal 0 0 -1
    outer loop
      vertex 14.5296 -10.5247 10
      vertex 14.5296 10.5247 10
      vertex 16.3906 10.7202 10
    endloop
  endfacet
  facet normal 0 0 -1
    outer loop
      vertex 7.5 -7.5 10
      vertex 14.5296 -10.5247 10
      vertex 12.75 -11.1029 10
    endloop
  endfacet
  facet normal 0 0 -1
    outer loop
      vertex 14.5296 -10.5247 10
      vertex 7.5 -7.5 10
      vertex 14.5296 10.5247 10
    endloop
  endfacet
  facet normal 0 0 -1
    outer loop
      vertex 7.5 -7.5 10
      vertex 12.75 -11.1029 10
      vertex 11.3594 -12.355 10
    endloop
  endfacet
  facet normal 0 0 -1
    outer loop
      vertex 7.5 7.5 10
      vertex 14.5296 10.5247 10
      vertex 7.5 -7.5 10
    endloop
  endfacet
  facet normal 0 0 -1
    outer loop
      vertex 7.5 -7.5 10
      vertex 11.3594 -12.355 10
      vertex 10.5983 -14.0644 10
    endloop
  endfacet
  facet normal -0 0 -1
    outer loop
      vertex 14.5296 10.5247 10
      vertex 7.5 7.5 10
      vertex 12.75 11.1029 10
    endloop
  endfacet
  facet normal 0 0 -1
    outer loop
      vertex 19.111 -13.1697 10
      vertex 22.5 -22.5 10
      vertex 19.5 -15 10
    endloop
  endfacet
  facet normal 0 0 -1
    outer loop
      vertex 22.5 -22.5 10
      vertex 19.111 -16.8303 10
      vertex 19.5 -15 10
    endloop
  endfacet
  facet normal 0 0 -1
    outer loop
      vertex 22.5 -22.5 10
      vertex 18.0111 -18.3442 10
      vertex 19.111 -16.8303 10
    endloop
  endfacet
  facet normal 0 0 -1
    outer loop
      vertex 22.5 -22.5 10
      vertex 16.3906 -19.2798 10
      vertex 18.0111 -18.3442 10
    endloop
  endfacet
  facet normal 0 0 -1
    outer loop
      vertex 22.5 -22.5 10
      vertex 14.5296 -19.4753 10
      vertex 16.3906 -19.2798 10
    endloop
  endfacet
  facet normal 0 0 -1
    outer loop
      vertex -13.6094 -19.2798 10
      vertex 14.5296 -19.4753 10
      vertex 22.5 -22.5 10
    endloop
  endfacet
  facet normal 0 0 -1
    outer loop
      vertex 7.5 -7.5 10
      vertex 10.5983 -14.0644 10
      vertex 10.5983 -15.9356 10
    endloop
  endfacet
  facet normal -0 0 -1
    outer loop
      vertex 12.75 11.1029 10
      vertex 7.5 7.5 10
      vertex 11.3594 12.355 10
    endloop
  endfacet
  facet normal -0 0 -1
    outer loop
      vertex 11.3594 12.355 10
      vertex 7.5 7.5 10
      vertex 10.5983 14.0644 10
    endloop
  endfacet
  facet normal 0 0 -1
    outer loop
      vertex -10.5 -15 10
      vertex 7.5 -7.5 10
      vertex 10.5983 -15.9356 10
    endloop
  endfacet
  facet normal 0 0 -1
    outer loop
      vertex -10.889 -16.8303 10
      vertex 10.5983 -15.9356 10
      vertex 11.3594 -17.645 10
    endloop
  endfacet
  facet normal 0 0 -1
    outer loop
      vertex -11.9889 -18.3442 10
      vertex 11.3594 -17.645 10
      vertex 12.75 -18.8971 10
    endloop
  endfacet
  facet normal 0 0 -1
    outer loop
      vertex -10.889 -13.1697 10
      vertex -7.5 -7.5 10
      vertex -10.5 -15 10
    endloop
  endfacet
  facet normal -0 0 -1
    outer loop
      vertex 7.5 -7.5 10
      vertex -10.5 -15 10
      vertex -7.5 -7.5 10
    endloop
  endfacet
  facet normal 0 0 -1
    outer loop
      vertex 14.5296 -19.4753 10
      vertex -13.6094 -19.2798 10
      vertex 12.75 -18.8971 10
    endloop
  endfacet
  facet normal -0 0 -1
    outer loop
      vertex 10.5983 -15.9356 10
      vertex -10.889 -16.8303 10
      vertex -10.5 -15 10
    endloop
  endfacet
  facet normal -0 0 -1
    outer loop
      vertex 11.3594 -17.645 10
      vertex -11.9889 -18.3442 10
      vertex -10.889 -16.8303 10
    endloop
  endfacet
  facet normal -0 0 -1
    outer loop
      vertex 12.75 -18.8971 10
      vertex -13.6094 -19.2798 10
      vertex -11.9889 -18.3442 10
    endloop
  endfacet
  facet normal 0 0 -1
    outer loop
      vertex -22.5 -22.5 10
      vertex -13.6094 -19.2798 10
      vertex 22.5 -22.5 10
    endloop
  endfacet
  facet normal 0 0 -1
    outer loop
      vertex -22.5 -22.5 10
      vertex -19.4017 -14.0644 10
      vertex -19.4017 -15.9356 10
    endloop
  endfacet
  facet normal -0 0 -1
    outer loop
      vertex -19.4017 -14.0644 10
      vertex -22.5 -22.5 10
      vertex -19.4017 14.0644 10
    endloop
  endfacet
  facet normal 0 0 -1
    outer loop
      vertex -22.5 22.5 10
      vertex -19.4017 14.0644 10
      vertex -22.5 -22.5 10
    endloop
  endfacet
  facet normal -0 0 -1
    outer loop
      vertex -18.6406 -17.645 10
      vertex -22.5 -22.5 10
      vertex -19.4017 -15.9356 10
    endloop
  endfacet
  facet normal -0 0 -1
    outer loop
      vertex -17.25 -18.8971 10
      vertex -22.5 -22.5 10
      vertex -18.6406 -17.645 10
    endloop
  endfacet
  facet normal -0 0 -1
    outer loop
      vertex -15.4704 -19.4753 10
      vertex -22.5 -22.5 10
      vertex -17.25 -18.8971 10
    endloop
  endfacet
  facet normal 0 0 -1
    outer loop
      vertex -13.6094 -19.2798 10
      vertex -22.5 -22.5 10
      vertex -15.4704 -19.4753 10
    endloop
  endfacet
  facet normal 0 0 -1
    outer loop
      vertex 22.5 -22.5 10
      vertex 19.111 -13.1697 10
      vertex 22.5 22.5 10
    endloop
  endfacet
  facet normal 0 0 -1
    outer loop
      vertex 19.111 16.8303 10
      vertex 22.5 22.5 10
      vertex 19.5 15 10
    endloop
  endfacet
  facet normal 0 0 -1
    outer loop
      vertex 18.0111 18.3442 10
      vertex 22.5 22.5 10
      vertex 19.111 16.8303 10
    endloop
  endfacet
  facet normal 0 0 -1
    outer loop
      vertex 16.3906 19.2798 10
      vertex 22.5 22.5 10
      vertex 18.0111 18.3442 10
    endloop
  endfacet
  facet normal 0 0 -1
    outer loop
      vertex 14.5296 19.4753 10
      vertex 22.5 22.5 10
      vertex 16.3906 19.2798 10
    endloop
  endfacet
  facet normal 0 0 -1
    outer loop
      vertex -13.6094 19.2798 10
      vertex 14.5296 19.4753 10
      vertex 12.75 18.8971 10
    endloop
  endfacet
  facet normal -0 0 -1
    outer loop
      vertex 10.5983 14.0644 10
      vertex 7.5 7.5 10
      vertex 10.5983 15.9356 10
    endloop
  endfacet
  facet normal 0 0 -1
    outer loop
      vertex -10.5 15 10
      vertex 7.5 7.5 10
      vertex -7.5 7.5 10
    endloop
  endfacet
  facet normal 0 0 -1
    outer loop
      vertex 7.5 7.5 10
      vertex -10.5 15 10
      vertex 10.5983 15.9356 10
    endloop
  endfacet
  facet normal 0 0 -1
    outer loop
      vertex -10.889 16.8303 10
      vertex 10.5983 15.9356 10
      vertex -10.5 15 10
    endloop
  endfacet
  facet normal 0 0 -1
    outer loop
      vertex -11.9889 -11.6558 10
      vertex -7.5 -7.5 10
      vertex -10.889 -13.1697 10
    endloop
  endfacet
  facet normal 0 0 -1
    outer loop
      vertex 10.5983 15.9356 10
      vertex -10.889 16.8303 10
      vertex 11.3594 17.645 10
    endloop
  endfacet
  facet normal 0 0 -1
    outer loop
      vertex -11.9889 18.3442 10
      vertex 11.3594 17.645 10
      vertex -10.889 16.8303 10
    endloop
  endfacet
  facet normal 0 0 -1
    outer loop
      vertex 11.3594 17.645 10
      vertex -11.9889 18.3442 10
      vertex 12.75 18.8971 10
    endloop
  endfacet
  facet normal 0 0 -1
    outer loop
      vertex -13.6094 19.2798 10
      vertex 12.75 18.8971 10
      vertex -11.9889 18.3442 10
    endloop
  endfacet
  facet normal -0 0 -1
    outer loop
      vertex 14.5296 19.4753 10
      vertex -13.6094 19.2798 10
      vertex 22.5 22.5 10
    endloop
  endfacet
  facet normal 0 0 -1
    outer loop
      vertex -22.5 22.5 10
      vertex -13.6094 19.2798 10
      vertex -15.4704 19.4753 10
    endloop
  endfacet
  facet normal 0 0 -1
    outer loop
      vertex -13.6094 19.2798 10
      vertex -22.5 22.5 10
      vertex 22.5 22.5 10
    endloop
  endfacet
  facet normal 0 0 -1
    outer loop
      vertex -17.25 18.8971 10
      vertex -22.5 22.5 10
      vertex -15.4704 19.4753 10
    endloop
  endfacet
  facet normal 0 0 -1
    outer loop
      vertex -18.6406 17.645 10
      vertex -22.5 22.5 10
      vertex -17.25 18.8971 10
    endloop
  endfacet
  facet normal 0 0 -1
    outer loop
      vertex -19.4017 15.9356 10
      vertex -22.5 22.5 10
      vertex -18.6406 17.645 10
    endloop
  endfacet
  facet normal 0 0 -1
    outer loop
      vertex -19.4017 14.0644 10
      vertex -22.5 22.5 10
      vertex -19.4017 15.9356 10
    endloop
  endfacet
  facet normal 0 -1 0
    outer loop
      vertex -22.5 -22.5 10
      vertex 22.5 -22.5 23
      vertex -22.5 -22.5 23
    endloop
  endfacet
  facet normal 0 -1 -0
    outer loop
      vertex 22.5 -22.5 23
      vertex -22.5 -22.5 10
      vertex 22.5 -22.5 10
    endloop
  endfacet
  facet normal 0 1 -0
    outer loop
      vertex 22.5 22.5 10
      vertex -22.5 22.5 23
      vertex 22.5 22.5 23
    endloop
  endfacet
  facet normal 0 1 0
    outer loop
      vertex -22.5 22.5 23
      vertex 22.5 22.5 10
      vertex -22.5 22.5 10
    endloop
  endfacet
  facet normal -1 0 0
    outer loop
      vertex -7.5 -7.5 -26
      vertex -7.5 7.5 10
      vertex -7.5 7.5 -26
    endloop
  endfacet
  facet normal -1 -0 0
    outer loop
      vertex -7.5 7.5 10
      vertex -7.5 -7.5 -26
      vertex -7.5 -7.5 10
    endloop
  endfacet
  facet normal 1 -0 0
    outer loop
      vertex 7.5 -7.5 10
      vertex 7.5 7.5 -26
      vertex 7.5 7.5 10
    endloop
  endfacet
  facet normal 1 0 0
    outer loop
      vertex 7.5 7.5 -26
      vertex 7.5 -7.5 10
      vertex 7.5 -7.5 -26
    endloop
  endfacet
  facet normal 0 1 -0
    outer loop
      vertex 7.5 7.5 -26
      vertex -7.5 7.5 10
      vertex 7.5 7.5 10
    endloop
  endfacet
  facet normal 0 1 0
    outer loop
      vertex -7.5 7.5 10
      vertex 7.5 7.5 -26
      vertex -7.5 7.5 -26
    endloop
  endfacet
  facet normal 0 0 -1
    outer loop
      vertex -7.5 -7.5 -26
      vertex 7.5 7.5 -26
      vertex 7.5 -7.5 -26
    endloop
  endfacet
  facet normal -0 0 -1
    outer loop
      vertex 7.5 7.5 -26
      vertex -7.5 -7.5 -26
      vertex -7.5 7.5 -26
    endloop
  endfacet
  facet normal 0 -1 0
    outer loop
      vertex -7.5 -7.5 -26
      vertex 7.5 -7.5 10
      vertex -7.5 -7.5 10
    endloop
  endfacet
  facet normal 0 -1 -0
    outer loop
      vertex 7.5 -7.5 10
      vertex -7.5 -7.5 -26
      vertex 7.5 -7.5 -26
    endloop
  endfacet
  facet normal -0.978148 -0.207911 0
    outer loop
      vertex -10.5 -15 10
      vertex -10.889 -13.1697 20
      vertex -10.889 -13.1697 10
    endloop
  endfacet
  facet normal -0.978148 -0.207911 0
    outer loop
      vertex -10.889 -13.1697 20
      vertex -10.5 -15 10
      vertex -10.5 -15 20
    endloop
  endfacet
  facet normal 1 -0 0
    outer loop
      vertex -19.4017 -15.9356 20
      vertex -19.4017 -14.0644 10
      vertex -19.4017 -14.0644 20
    endloop
  endfacet
  facet normal 1 0 0
    outer loop
      vertex -19.4017 -14.0644 10
      vertex -19.4017 -15.9356 20
      vertex -19.4017 -15.9356 10
    endloop
  endfacet
  facet normal -0.104529 -0.994522 0
    outer loop
      vertex -15.4704 -10.5247 10
      vertex -13.6094 -10.7202 20
      vertex -15.4704 -10.5247 20
    endloop
  endfacet
  facet normal -0.104529 -0.994522 -0
    outer loop
      vertex -13.6094 -10.7202 20
      vertex -15.4704 -10.5247 10
      vertex -13.6094 -10.7202 10
    endloop
  endfacet
  facet normal -0.809017 -0.587785 0
    outer loop
      vertex -10.889 -13.1697 10
      vertex -11.9889 -11.6558 20
      vertex -11.9889 -11.6558 10
    endloop
  endfacet
  facet normal -0.809017 -0.587785 0
    outer loop
      vertex -11.9889 -11.6558 20
      vertex -10.889 -13.1697 10
      vertex -10.889 -13.1697 20
    endloop
  endfacet
  facet normal -0.104529 0.994522 0
    outer loop
      vertex -13.6094 -19.2798 10
      vertex -15.4704 -19.4753 20
      vertex -13.6094 -19.2798 20
    endloop
  endfacet
  facet normal -0.104529 0.994522 0
    outer loop
      vertex -15.4704 -19.4753 20
      vertex -13.6094 -19.2798 10
      vertex -15.4704 -19.4753 10
    endloop
  endfacet
  facet normal -0.500001 0.866025 0
    outer loop
      vertex -11.9889 -18.3442 10
      vertex -13.6094 -19.2798 20
      vertex -11.9889 -18.3442 20
    endloop
  endfacet
  facet normal -0.500001 0.866025 0
    outer loop
      vertex -13.6094 -19.2798 20
      vertex -11.9889 -18.3442 10
      vertex -13.6094 -19.2798 10
    endloop
  endfacet
  facet normal -0.5 -0.866025 0
    outer loop
      vertex -13.6094 -10.7202 10
      vertex -11.9889 -11.6558 20
      vertex -13.6094 -10.7202 20
    endloop
  endfacet
  facet normal -0.5 -0.866025 -0
    outer loop
      vertex -11.9889 -11.6558 20
      vertex -13.6094 -10.7202 10
      vertex -11.9889 -11.6558 10
    endloop
  endfacet
  facet normal 0.669131 -0.743145 0
    outer loop
      vertex -18.6406 -12.355 10
      vertex -17.25 -11.1029 20
      vertex -18.6406 -12.355 20
    endloop
  endfacet
  facet normal 0.669131 -0.743145 0
    outer loop
      vertex -17.25 -11.1029 20
      vertex -18.6406 -12.355 10
      vertex -17.25 -11.1029 10
    endloop
  endfacet
  facet normal 0.913545 -0.406737 0
    outer loop
      vertex -19.4017 -14.0644 20
      vertex -18.6406 -12.355 10
      vertex -18.6406 -12.355 20
    endloop
  endfacet
  facet normal 0.913545 -0.406737 0
    outer loop
      vertex -18.6406 -12.355 10
      vertex -19.4017 -14.0644 20
      vertex -19.4017 -14.0644 10
    endloop
  endfacet
  facet normal 0 0 -1
    outer loop
      vertex -10.889 -16.8303 20
      vertex -10.889 -13.1697 20
      vertex -10.5 -15 20
    endloop
  endfacet
  facet normal 0 0 -1
    outer loop
      vertex -11.9889 -18.3442 20
      vertex -10.889 -13.1697 20
      vertex -10.889 -16.8303 20
    endloop
  endfacet
  facet normal 0 0 -1
    outer loop
      vertex -11.9889 -18.3442 20
      vertex -11.9889 -11.6558 20
      vertex -10.889 -13.1697 20
    endloop
  endfacet
  facet normal 0 0 -1
    outer loop
      vertex -13.6094 -19.2798 20
      vertex -11.9889 -11.6558 20
      vertex -11.9889 -18.3442 20
    endloop
  endfacet
  facet normal 0 0 -1
    outer loop
      vertex -13.6094 -19.2798 20
      vertex -13.6094 -10.7202 20
      vertex -11.9889 -11.6558 20
    endloop
  endfacet
  facet normal 0 0 -1
    outer loop
      vertex -15.4704 -19.4753 20
      vertex -13.6094 -10.7202 20
      vertex -13.6094 -19.2798 20
    endloop
  endfacet
  facet normal 0 0 -1
    outer loop
      vertex -15.4704 -19.4753 20
      vertex -15.4704 -10.5247 20
      vertex -13.6094 -10.7202 20
    endloop
  endfacet
  facet normal 0 0 -1
    outer loop
      vertex -17.25 -18.8971 20
      vertex -15.4704 -10.5247 20
      vertex -15.4704 -19.4753 20
    endloop
  endfacet
  facet normal 0 0 -1
    outer loop
      vertex -17.25 -18.8971 20
      vertex -17.25 -11.1029 20
      vertex -15.4704 -10.5247 20
    endloop
  endfacet
  facet normal 0 0 -1
    outer loop
      vertex -18.6406 -17.645 20
      vertex -17.25 -11.1029 20
      vertex -17.25 -18.8971 20
    endloop
  endfacet
  facet normal 0 0 -1
    outer loop
      vertex -18.6406 -17.645 20
      vertex -18.6406 -12.355 20
      vertex -17.25 -11.1029 20
    endloop
  endfacet
  facet normal 0 0 -1
    outer loop
      vertex -19.4017 -15.9356 20
      vertex -18.6406 -12.355 20
      vertex -18.6406 -17.645 20
    endloop
  endfacet
  facet normal 0 0 -1
    outer loop
      vertex -18.6406 -12.355 20
      vertex -19.4017 -15.9356 20
      vertex -19.4017 -14.0644 20
    endloop
  endfacet
  facet normal 0.309017 -0.951056 0
    outer loop
      vertex -17.25 -11.1029 10
      vertex -15.4704 -10.5247 20
      vertex -17.25 -11.1029 20
    endloop
  endfacet
  facet normal 0.309017 -0.951056 0
    outer loop
      vertex -15.4704 -10.5247 20
      vertex -17.25 -11.1029 10
      vertex -15.4704 -10.5247 10
    endloop
  endfacet
  facet normal -0.978148 0.207911 0
    outer loop
      vertex -10.889 -16.8303 10
      vertex -10.5 -15 20
      vertex -10.5 -15 10
    endloop
  endfacet
  facet normal -0.978148 0.207911 0
    outer loop
      vertex -10.5 -15 20
      vertex -10.889 -16.8303 10
      vertex -10.889 -16.8303 20
    endloop
  endfacet
  facet normal 0.309018 0.951056 -0
    outer loop
      vertex -15.4704 -19.4753 10
      vertex -17.25 -18.8971 20
      vertex -15.4704 -19.4753 20
    endloop
  endfacet
  facet normal 0.309018 0.951056 0
    outer loop
      vertex -17.25 -18.8971 20
      vertex -15.4704 -19.4753 10
      vertex -17.25 -18.8971 10
    endloop
  endfacet
  facet normal -0.809017 0.587785 0
    outer loop
      vertex -11.9889 -18.3442 10
      vertex -10.889 -16.8303 20
      vertex -10.889 -16.8303 10
    endloop
  endfacet
  facet normal -0.809017 0.587785 0
    outer loop
      vertex -10.889 -16.8303 20
      vertex -11.9889 -18.3442 10
      vertex -11.9889 -18.3442 20
    endloop
  endfacet
  facet normal 0.669131 0.743145 -0
    outer loop
      vertex -17.25 -18.8971 10
      vertex -18.6406 -17.645 20
      vertex -17.25 -18.8971 20
    endloop
  endfacet
  facet normal 0.669131 0.743145 0
    outer loop
      vertex -18.6406 -17.645 20
      vertex -17.25 -18.8971 10
      vertex -18.6406 -17.645 10
    endloop
  endfacet
  facet normal 0.913545 0.406737 0
    outer loop
      vertex -18.6406 -17.645 20
      vertex -19.4017 -15.9356 10
      vertex -19.4017 -15.9356 20
    endloop
  endfacet
  facet normal 0.913545 0.406737 0
    outer loop
      vertex -19.4017 -15.9356 10
      vertex -18.6406 -17.645 20
      vertex -18.6406 -17.645 10
    endloop
  endfacet
  facet normal -0.978148 -0.207912 0
    outer loop
      vertex 19.5 -15 10
      vertex 19.111 -13.1697 20
      vertex 19.111 -13.1697 10
    endloop
  endfacet
  facet normal -0.978148 -0.207912 0
    outer loop
      vertex 19.111 -13.1697 20
      vertex 19.5 -15 10
      vertex 19.5 -15 20
    endloop
  endfacet
  facet normal 1 -0 0
    outer loop
      vertex 10.5983 -15.9356 20
      vertex 10.5983 -14.0644 10
      vertex 10.5983 -14.0644 20
    endloop
  endfacet
  facet normal 1 0 0
    outer loop
      vertex 10.5983 -14.0644 10
      vertex 10.5983 -15.9356 20
      vertex 10.5983 -15.9356 10
    endloop
  endfacet
  facet normal 0.913545 0.406737 0
    outer loop
      vertex 11.3594 -17.645 20
      vertex 10.5983 -15.9356 10
      vertex 10.5983 -15.9356 20
    endloop
  endfacet
  facet normal 0.913545 0.406737 0
    outer loop
      vertex 10.5983 -15.9356 10
      vertex 11.3594 -17.645 20
      vertex 11.3594 -17.645 10
    endloop
  endfacet
  facet normal -0.104529 -0.994522 0
    outer loop
      vertex 14.5296 -10.5247 10
      vertex 16.3906 -10.7202 20
      vertex 14.5296 -10.5247 20
    endloop
  endfacet
  facet normal -0.104529 -0.994522 -0
    outer loop
      vertex 16.3906 -10.7202 20
      vertex 14.5296 -10.5247 10
      vertex 16.3906 -10.7202 10
    endloop
  endfacet
  facet normal -0.809017 -0.587785 0
    outer loop
      vertex 19.111 -13.1697 10
      vertex 18.0111 -11.6558 20
      vertex 18.0111 -11.6558 10
    endloop
  endfacet
  facet normal -0.809017 -0.587785 0
    outer loop
      vertex 18.0111 -11.6558 20
      vertex 19.111 -13.1697 10
      vertex 19.111 -13.1697 20
    endloop
  endfacet
  facet normal -0.5 -0.866026 0
    outer loop
      vertex 16.3906 -10.7202 10
      vertex 18.0111 -11.6558 20
      vertex 16.3906 -10.7202 20
    endloop
  endfacet
  facet normal -0.5 -0.866026 -0
    outer loop
      vertex 18.0111 -11.6558 20
      vertex 16.3906 -10.7202 10
      vertex 18.0111 -11.6558 10
    endloop
  endfacet
  facet normal 0.309017 -0.951056 0
    outer loop
      vertex 12.75 -11.1029 10
      vertex 14.5296 -10.5247 20
      vertex 12.75 -11.1029 20
    endloop
  endfacet
  facet normal 0.309017 -0.951056 0
    outer loop
      vertex 14.5296 -10.5247 20
      vertex 12.75 -11.1029 10
      vertex 14.5296 -10.5247 10
    endloop
  endfacet
  facet normal 0.66913 -0.743145 0
    outer loop
      vertex 11.3594 -12.355 10
      vertex 12.75 -11.1029 20
      vertex 11.3594 -12.355 20
    endloop
  endfacet
  facet normal 0.66913 -0.743145 0
    outer loop
      vertex 12.75 -11.1029 20
      vertex 11.3594 -12.355 10
      vertex 12.75 -11.1029 10
    endloop
  endfacet
  facet normal -0.978148 0.207912 0
    outer loop
      vertex 19.111 -16.8303 10
      vertex 19.5 -15 20
      vertex 19.5 -15 10
    endloop
  endfacet
  facet normal -0.978148 0.207912 0
    outer loop
      vertex 19.5 -15 20
      vertex 19.111 -16.8303 10
      vertex 19.111 -16.8303 20
    endloop
  endfacet
  facet normal 0 0 -1
    outer loop
      vertex 19.111 -16.8303 20
      vertex 19.111 -13.1697 20
      vertex 19.5 -15 20
    endloop
  endfacet
  facet normal 0 0 -1
    outer loop
      vertex 18.0111 -18.3442 20
      vertex 19.111 -13.1697 20
      vertex 19.111 -16.8303 20
    endloop
  endfacet
  facet normal 0 0 -1
    outer loop
      vertex 18.0111 -18.3442 20
      vertex 18.0111 -11.6558 20
      vertex 19.111 -13.1697 20
    endloop
  endfacet
  facet normal 0 0 -1
    outer loop
      vertex 16.3906 -19.2798 20
      vertex 18.0111 -11.6558 20
      vertex 18.0111 -18.3442 20
    endloop
  endfacet
  facet normal 0 0 -1
    outer loop
      vertex 16.3906 -19.2798 20
      vertex 16.3906 -10.7202 20
      vertex 18.0111 -11.6558 20
    endloop
  endfacet
  facet normal 0 0 -1
    outer loop
      vertex 14.5296 -19.4753 20
      vertex 16.3906 -10.7202 20
      vertex 16.3906 -19.2798 20
    endloop
  endfacet
  facet normal 0 0 -1
    outer loop
      vertex 14.5296 -19.4753 20
      vertex 14.5296 -10.5247 20
      vertex 16.3906 -10.7202 20
    endloop
  endfacet
  facet normal 0 0 -1
    outer loop
      vertex 14.5296 -19.4753 20
      vertex 12.75 -11.1029 20
      vertex 14.5296 -10.5247 20
    endloop
  endfacet
  facet normal 0 0 -1
    outer loop
      vertex 12.75 -18.8971 20
      vertex 12.75 -11.1029 20
      vertex 14.5296 -19.4753 20
    endloop
  endfacet
  facet normal 0 0 -1
    outer loop
      vertex 11.3594 -17.645 20
      vertex 12.75 -11.1029 20
      vertex 12.75 -18.8971 20
    endloop
  endfacet
  facet normal 0 0 -1
    outer loop
      vertex 11.3594 -17.645 20
      vertex 11.3594 -12.355 20
      vertex 12.75 -11.1029 20
    endloop
  endfacet
  facet normal 0 0 -1
    outer loop
      vertex 10.5983 -15.9356 20
      vertex 11.3594 -12.355 20
      vertex 11.3594 -17.645 20
    endloop
  endfacet
  facet normal 0 0 -1
    outer loop
      vertex 11.3594 -12.355 20
      vertex 10.5983 -15.9356 20
      vertex 10.5983 -14.0644 20
    endloop
  endfacet
  facet normal 0.913545 -0.406737 0
    outer loop
      vertex 10.5983 -14.0644 20
      vertex 11.3594 -12.355 10
      vertex 11.3594 -12.355 20
    endloop
  endfacet
  facet normal 0.913545 -0.406737 0
    outer loop
      vertex 11.3594 -12.355 10
      vertex 10.5983 -14.0644 20
      vertex 10.5983 -14.0644 10
    endloop
  endfacet
  facet normal 0.309018 0.951056 -0
    outer loop
      vertex 14.5296 -19.4753 10
      vertex 12.75 -18.8971 20
      vertex 14.5296 -19.4753 20
    endloop
  endfacet
  facet normal 0.309018 0.951056 0
    outer loop
      vertex 12.75 -18.8971 20
      vertex 14.5296 -19.4753 10
      vertex 12.75 -18.8971 10
    endloop
  endfacet
  facet normal 0.669131 0.743145 -0
    outer loop
      vertex 12.75 -18.8971 10
      vertex 11.3594 -17.645 20
      vertex 12.75 -18.8971 20
    endloop
  endfacet
  facet normal 0.669131 0.743145 0
    outer loop
      vertex 11.3594 -17.645 20
      vertex 12.75 -18.8971 10
      vertex 11.3594 -17.645 10
    endloop
  endfacet
  facet normal -0.5 0.866025 0
    outer loop
      vertex 18.0111 -18.3442 10
      vertex 16.3906 -19.2798 20
      vertex 18.0111 -18.3442 20
    endloop
  endfacet
  facet normal -0.5 0.866025 0
    outer loop
      vertex 16.3906 -19.2798 20
      vertex 18.0111 -18.3442 10
      vertex 16.3906 -19.2798 10
    endloop
  endfacet
  facet normal -0.809017 0.587785 0
    outer loop
      vertex 18.0111 -18.3442 10
      vertex 19.111 -16.8303 20
      vertex 19.111 -16.8303 10
    endloop
  endfacet
  facet normal -0.809017 0.587785 0
    outer loop
      vertex 19.111 -16.8303 20
      vertex 18.0111 -18.3442 10
      vertex 18.0111 -18.3442 20
    endloop
  endfacet
  facet normal -0.104529 0.994522 0
    outer loop
      vertex 16.3906 -19.2798 10
      vertex 14.5296 -19.4753 20
      vertex 16.3906 -19.2798 20
    endloop
  endfacet
  facet normal -0.104529 0.994522 0
    outer loop
      vertex 14.5296 -19.4753 20
      vertex 16.3906 -19.2798 10
      vertex 14.5296 -19.4753 10
    endloop
  endfacet
  facet normal -0.978148 -0.207911 0
    outer loop
      vertex -10.5 15 10
      vertex -10.889 16.8303 20
      vertex -10.889 16.8303 10
    endloop
  endfacet
  facet normal -0.978148 -0.207911 0
    outer loop
      vertex -10.889 16.8303 20
      vertex -10.5 15 10
      vertex -10.5 15 20
    endloop
  endfacet
  facet normal 1 -0 0
    outer loop
      vertex -19.4017 14.0644 20
      vertex -19.4017 15.9356 10
      vertex -19.4017 15.9356 20
    endloop
  endfacet
  facet normal 1 0 0
    outer loop
      vertex -19.4017 15.9356 10
      vertex -19.4017 14.0644 20
      vertex -19.4017 14.0644 10
    endloop
  endfacet
  facet normal 0.913545 0.406737 0
    outer loop
      vertex -18.6406 12.355 20
      vertex -19.4017 14.0644 10
      vertex -19.4017 14.0644 20
    endloop
  endfacet
  facet normal 0.913545 0.406737 0
    outer loop
      vertex -19.4017 14.0644 10
      vertex -18.6406 12.355 20
      vertex -18.6406 12.355 10
    endloop
  endfacet
  facet normal -0.104529 -0.994522 0
    outer loop
      vertex -15.4704 19.4753 10
      vertex -13.6094 19.2798 20
      vertex -15.4704 19.4753 20
    endloop
  endfacet
  facet normal -0.104529 -0.994522 -0
    outer loop
      vertex -13.6094 19.2798 20
      vertex -15.4704 19.4753 10
      vertex -13.6094 19.2798 10
    endloop
  endfacet
  facet normal -0.809017 -0.587785 0
    outer loop
      vertex -10.889 16.8303 10
      vertex -11.9889 18.3442 20
      vertex -11.9889 18.3442 10
    endloop
  endfacet
  facet normal -0.809017 -0.587785 0
    outer loop
      vertex -11.9889 18.3442 20
      vertex -10.889 16.8303 10
      vertex -10.889 16.8303 20
    endloop
  endfacet
  facet normal -0.500001 -0.866025 0
    outer loop
      vertex -13.6094 19.2798 10
      vertex -11.9889 18.3442 20
      vertex -13.6094 19.2798 20
    endloop
  endfacet
  facet normal -0.500001 -0.866025 -0
    outer loop
      vertex -11.9889 18.3442 20
      vertex -13.6094 19.2798 10
      vertex -11.9889 18.3442 10
    endloop
  endfacet
  facet normal 0.309018 -0.951056 0
    outer loop
      vertex -17.25 18.8971 10
      vertex -15.4704 19.4753 20
      vertex -17.25 18.8971 20
    endloop
  endfacet
  facet normal 0.309018 -0.951056 0
    outer loop
      vertex -15.4704 19.4753 20
      vertex -17.25 18.8971 10
      vertex -15.4704 19.4753 10
    endloop
  endfacet
  facet normal 0.913545 -0.406737 0
    outer loop
      vertex -19.4017 15.9356 20
      vertex -18.6406 17.645 10
      vertex -18.6406 17.645 20
    endloop
  endfacet
  facet normal 0.913545 -0.406737 0
    outer loop
      vertex -18.6406 17.645 10
      vertex -19.4017 15.9356 20
      vertex -19.4017 15.9356 10
    endloop
  endfacet
  facet normal 0.669131 -0.743145 0
    outer loop
      vertex -18.6406 17.645 10
      vertex -17.25 18.8971 20
      vertex -18.6406 17.645 20
    endloop
  endfacet
  facet normal 0.669131 -0.743145 0
    outer loop
      vertex -17.25 18.8971 20
      vertex -18.6406 17.645 10
      vertex -17.25 18.8971 10
    endloop
  endfacet
  facet normal 0 0 -1
    outer loop
      vertex -10.889 13.1697 20
      vertex -10.889 16.8303 20
      vertex -10.5 15 20
    endloop
  endfacet
  facet normal 0 0 -1
    outer loop
      vertex -11.9889 11.6558 20
      vertex -10.889 16.8303 20
      vertex -10.889 13.1697 20
    endloop
  endfacet
  facet normal 0 0 -1
    outer loop
      vertex -11.9889 11.6558 20
      vertex -11.9889 18.3442 20
      vertex -10.889 16.8303 20
    endloop
  endfacet
  facet normal 0 0 -1
    outer loop
      vertex -13.6094 10.7202 20
      vertex -11.9889 18.3442 20
      vertex -11.9889 11.6558 20
    endloop
  endfacet
  facet normal 0 0 -1
    outer loop
      vertex -13.6094 10.7202 20
      vertex -13.6094 19.2798 20
      vertex -11.9889 18.3442 20
    endloop
  endfacet
  facet normal 0 0 -1
    outer loop
      vertex -15.4704 10.5247 20
      vertex -13.6094 19.2798 20
      vertex -13.6094 10.7202 20
    endloop
  endfacet
  facet normal 0 0 -1
    outer loop
      vertex -15.4704 10.5247 20
      vertex -15.4704 19.4753 20
      vertex -13.6094 19.2798 20
    endloop
  endfacet
  facet normal 0 0 -1
    outer loop
      vertex -17.25 11.1029 20
      vertex -15.4704 19.4753 20
      vertex -15.4704 10.5247 20
    endloop
  endfacet
  facet normal 0 0 -1
    outer loop
      vertex -17.25 11.1029 20
      vertex -17.25 18.8971 20
      vertex -15.4704 19.4753 20
    endloop
  endfacet
  facet normal 0 0 -1
    outer loop
      vertex -18.6406 12.355 20
      vertex -17.25 18.8971 20
      vertex -17.25 11.1029 20
    endloop
  endfacet
  facet normal 0 0 -1
    outer loop
      vertex -18.6406 12.355 20
      vertex -18.6406 17.645 20
      vertex -17.25 18.8971 20
    endloop
  endfacet
  facet normal 0 0 -1
    outer loop
      vertex -19.4017 14.0644 20
      vertex -18.6406 17.645 20
      vertex -18.6406 12.355 20
    endloop
  endfacet
  facet normal 0 0 -1
    outer loop
      vertex -18.6406 17.645 20
      vertex -19.4017 14.0644 20
      vertex -19.4017 15.9356 20
    endloop
  endfacet
  facet normal 0.309017 0.951056 -0
    outer loop
      vertex -15.4704 10.5247 10
      vertex -17.25 11.1029 20
      vertex -15.4704 10.5247 20
    endloop
  endfacet
  facet normal 0.309017 0.951056 0
    outer loop
      vertex -17.25 11.1029 20
      vertex -15.4704 10.5247 10
      vertex -17.25 11.1029 10
    endloop
  endfacet
  facet normal 0.669131 0.743145 -0
    outer loop
      vertex -17.25 11.1029 10
      vertex -18.6406 12.355 20
      vertex -17.25 11.1029 20
    endloop
  endfacet
  facet normal 0.669131 0.743145 0
    outer loop
      vertex -18.6406 12.355 20
      vertex -17.25 11.1029 10
      vertex -18.6406 12.355 10
    endloop
  endfacet
  facet normal -0.5 0.866025 0
    outer loop
      vertex -11.9889 11.6558 10
      vertex -13.6094 10.7202 20
      vertex -11.9889 11.6558 20
    endloop
  endfacet
  facet normal -0.5 0.866025 0
    outer loop
      vertex -13.6094 10.7202 20
      vertex -11.9889 11.6558 10
      vertex -13.6094 10.7202 10
    endloop
  endfacet
  facet normal -0.809017 0.587785 0
    outer loop
      vertex -11.9889 11.6558 10
      vertex -10.889 13.1697 20
      vertex -10.889 13.1697 10
    endloop
  endfacet
  facet normal -0.809017 0.587785 0
    outer loop
      vertex -10.889 13.1697 20
      vertex -11.9889 11.6558 10
      vertex -11.9889 11.6558 20
    endloop
  endfacet
  facet normal -0.978148 0.207911 0
    outer loop
      vertex -10.889 13.1697 10
      vertex -10.5 15 20
      vertex -10.5 15 10
    endloop
  endfacet
  facet normal -0.978148 0.207911 0
    outer loop
      vertex -10.5 15 20
      vertex -10.889 13.1697 10
      vertex -10.889 13.1697 20
    endloop
  endfacet
  facet normal -0.104529 0.994522 0
    outer loop
      vertex -13.6094 10.7202 10
      vertex -15.4704 10.5247 20
      vertex -13.6094 10.7202 20
    endloop
  endfacet
  facet normal -0.104529 0.994522 0
    outer loop
      vertex -15.4704 10.5247 20
      vertex -13.6094 10.7202 10
      vertex -15.4704 10.5247 10
    endloop
  endfacet
  facet normal -0.978148 -0.207912 0
    outer loop
      vertex 19.5 15 10
      vertex 19.111 16.8303 20
      vertex 19.111 16.8303 10
    endloop
  endfacet
  facet normal -0.978148 -0.207912 0
    outer loop
      vertex 19.111 16.8303 20
      vertex 19.5 15 10
      vertex 19.5 15 20
    endloop
  endfacet
  facet normal 1 -0 0
    outer loop
      vertex 10.5983 14.0644 20
      vertex 10.5983 15.9356 10
      vertex 10.5983 15.9356 20
    endloop
  endfacet
  facet normal 1 0 0
    outer loop
      vertex 10.5983 15.9356 10
      vertex 10.5983 14.0644 20
      vertex 10.5983 14.0644 10
    endloop
  endfacet
  facet normal 0.913545 0.406737 0
    outer loop
      vertex 11.3594 12.355 20
      vertex 10.5983 14.0644 10
      vertex 10.5983 14.0644 20
    endloop
  endfacet
  facet normal 0.913545 0.406737 0
    outer loop
      vertex 10.5983 14.0644 10
      vertex 11.3594 12.355 20
      vertex 11.3594 12.355 10
    endloop
  endfacet
  facet normal -0.104529 -0.994522 0
    outer loop
      vertex 14.5296 19.4753 10
      vertex 16.3906 19.2798 20
      vertex 14.5296 19.4753 20
    endloop
  endfacet
  facet normal -0.104529 -0.994522 -0
    outer loop
      vertex 16.3906 19.2798 20
      vertex 14.5296 19.4753 10
      vertex 16.3906 19.2798 10
    endloop
  endfacet
  facet normal -0.809017 -0.587785 0
    outer loop
      vertex 19.111 16.8303 10
      vertex 18.0111 18.3442 20
      vertex 18.0111 18.3442 10
    endloop
  endfacet
  facet normal -0.809017 -0.587785 0
    outer loop
      vertex 18.0111 18.3442 20
      vertex 19.111 16.8303 10
      vertex 19.111 16.8303 20
    endloop
  endfacet
  facet normal -0.5 -0.866025 0
    outer loop
      vertex 16.3906 19.2798 10
      vertex 18.0111 18.3442 20
      vertex 16.3906 19.2798 20
    endloop
  endfacet
  facet normal -0.5 -0.866025 -0
    outer loop
      vertex 18.0111 18.3442 20
      vertex 16.3906 19.2798 10
      vertex 18.0111 18.3442 10
    endloop
  endfacet
  facet normal 0.309018 -0.951056 0
    outer loop
      vertex 12.75 18.8971 10
      vertex 14.5296 19.4753 20
      vertex 12.75 18.8971 20
    endloop
  endfacet
  facet normal 0.309018 -0.951056 0
    outer loop
      vertex 14.5296 19.4753 20
      vertex 12.75 18.8971 10
      vertex 14.5296 19.4753 10
    endloop
  endfacet
  facet normal 0.66913 -0.743145 0
    outer loop
      vertex 11.3594 17.645 10
      vertex 12.75 18.8971 20
      vertex 11.3594 17.645 20
    endloop
  endfacet
  facet normal 0.66913 -0.743145 0
    outer loop
      vertex 12.75 18.8971 20
      vertex 11.3594 17.645 10
      vertex 12.75 18.8971 10
    endloop
  endfacet
  facet normal 0 0 -1
    outer loop
      vertex 19.111 13.1697 20
      vertex 19.111 16.8303 20
      vertex 19.5 15 20
    endloop
  endfacet
  facet normal 0 0 -1
    outer loop
      vertex 18.0111 11.6558 20
      vertex 19.111 16.8303 20
      vertex 19.111 13.1697 20
    endloop
  endfacet
  facet normal 0 0 -1
    outer loop
      vertex 18.0111 11.6558 20
      vertex 18.0111 18.3442 20
      vertex 19.111 16.8303 20
    endloop
  endfacet
  facet normal 0 0 -1
    outer loop
      vertex 16.3906 10.7202 20
      vertex 18.0111 18.3442 20
      vertex 18.0111 11.6558 20
    endloop
  endfacet
  facet normal 0 0 -1
    outer loop
      vertex 16.3906 10.7202 20
      vertex 16.3906 19.2798 20
      vertex 18.0111 18.3442 20
    endloop
  endfacet
  facet normal 0 0 -1
    outer loop
      vertex 14.5296 10.5247 20
      vertex 16.3906 19.2798 20
      vertex 16.3906 10.7202 20
    endloop
  endfacet
  facet normal 0 0 -1
    outer loop
      vertex 14.5296 10.5247 20
      vertex 14.5296 19.4753 20
      vertex 16.3906 19.2798 20
    endloop
  endfacet
  facet normal 0 0 -1
    outer loop
      vertex 14.5296 10.5247 20
      vertex 12.75 18.8971 20
      vertex 14.5296 19.4753 20
    endloop
  endfacet
  facet normal 0 0 -1
    outer loop
      vertex 12.75 11.1029 20
      vertex 12.75 18.8971 20
      vertex 14.5296 10.5247 20
    endloop
  endfacet
  facet normal 0 0 -1
    outer loop
      vertex 11.3594 12.355 20
      vertex 12.75 18.8971 20
      vertex 12.75 11.1029 20
    endloop
  endfacet
  facet normal 0 0 -1
    outer loop
      vertex 11.3594 12.355 20
      vertex 11.3594 17.645 20
      vertex 12.75 18.8971 20
    endloop
  endfacet
  facet normal 0 0 -1
    outer loop
      vertex 10.5983 14.0644 20
      vertex 11.3594 17.645 20
      vertex 11.3594 12.355 20
    endloop
  endfacet
  facet normal 0 0 -1
    outer loop
      vertex 11.3594 17.645 20
      vertex 10.5983 14.0644 20
      vertex 10.5983 15.9356 20
    endloop
  endfacet
  facet normal 0.913545 -0.406737 0
    outer loop
      vertex 10.5983 15.9356 20
      vertex 11.3594 17.645 10
      vertex 11.3594 17.645 20
    endloop
  endfacet
  facet normal 0.913545 -0.406737 0
    outer loop
      vertex 11.3594 17.645 10
      vertex 10.5983 15.9356 20
      vertex 10.5983 15.9356 10
    endloop
  endfacet
  facet normal 0.309017 0.951056 -0
    outer loop
      vertex 14.5296 10.5247 10
      vertex 12.75 11.1029 20
      vertex 14.5296 10.5247 20
    endloop
  endfacet
  facet normal 0.309017 0.951056 0
    outer loop
      vertex 12.75 11.1029 20
      vertex 14.5296 10.5247 10
      vertex 12.75 11.1029 10
    endloop
  endfacet
  facet normal 0.669131 0.743145 -0
    outer loop
      vertex 12.75 11.1029 10
      vertex 11.3594 12.355 20
      vertex 12.75 11.1029 20
    endloop
  endfacet
  facet normal 0.669131 0.743145 0
    outer loop
      vertex 11.3594 12.355 20
      vertex 12.75 11.1029 10
      vertex 11.3594 12.355 10
    endloop
  endfacet
  facet normal -0.5 0.866026 0
    outer loop
      vertex 18.0111 11.6558 10
      vertex 16.3906 10.7202 20
      vertex 18.0111 11.6558 20
    endloop
  endfacet
  facet normal -0.5 0.866026 0
    outer loop
      vertex 16.3906 10.7202 20
      vertex 18.0111 11.6558 10
      vertex 16.3906 10.7202 10
    endloop
  endfacet
  facet normal -0.809017 0.587785 0
    outer loop
      vertex 18.0111 11.6558 10
      vertex 19.111 13.1697 20
      vertex 19.111 13.1697 10
    endloop
  endfacet
  facet normal -0.809017 0.587785 0
    outer loop
      vertex 19.111 13.1697 20
      vertex 18.0111 11.6558 10
      vertex 18.0111 11.6558 20
    endloop
  endfacet
  facet normal -0.978148 0.207912 0
    outer loop
      vertex 19.111 13.1697 10
      vertex 19.5 15 20
      vertex 19.5 15 10
    endloop
  endfacet
  facet normal -0.978148 0.207912 0
    outer loop
      vertex 19.5 15 20
      vertex 19.111 13.1697 10
      vertex 19.111 13.1697 20
    endloop
  endfacet
  facet normal -0.104529 0.994522 0
    outer loop
      vertex 16.3906 10.7202 10
      vertex 14.5296 10.5247 20
      vertex 16.3906 10.7202 20
    endloop
  endfacet
  facet normal -0.104529 0.994522 0
    outer loop
      vertex 14.5296 10.5247 20
      vertex 16.3906 10.7202 10
      vertex 14.5296 10.5247 10
    endloop
  endfacet
endsolid OpenSCAD_Model
