solid OpenSCAD_Model
  facet normal -1 0 0
    outer loop
      vertex 22.5 22.5 -20
      vertex 22.5 37.5 70
      vertex 22.5 37.5 -20
    endloop
  endfacet
  facet normal -1 -0 0
    outer loop
      vertex 22.5 37.5 70
      vertex 22.5 22.5 -20
      vertex 22.5 22.5 70
    endloop
  endfacet
  facet normal 0 0 -1
    outer loop
      vertex 16.4134 19.1194 70
      vertex 22.5 22.5 70
      vertex 18.0355 18.0355 70
    endloop
  endfacet
  facet normal 0 0 -1
    outer loop
      vertex 22.5 37.5 70
      vertex 19.1194 43.5866 70
      vertex 19.5 45.5 70
    endloop
  endfacet
  facet normal 0 0 -1
    outer loop
      vertex 14.5 19.5 70
      vertex 22.5 22.5 70
      vertex 16.4134 19.1194 70
    endloop
  endfacet
  facet normal 0 0 -1
    outer loop
      vertex 22.5 37.5 70
      vertex 18.0355 41.9645 70
      vertex 19.1194 43.5866 70
    endloop
  endfacet
  facet normal -0 0 -1
    outer loop
      vertex 22.5 22.5 70
      vertex 14.5 19.5 70
      vertex 22.5 37.5 70
    endloop
  endfacet
  facet normal 0 0 -1
    outer loop
      vertex 22.5 37.5 70
      vertex 16.4134 40.8806 70
      vertex 18.0355 41.9645 70
    endloop
  endfacet
  facet normal 0 0 -1
    outer loop
      vertex 14.5 40.5 70
      vertex 22.5 37.5 70
      vertex 14.5 19.5 70
    endloop
  endfacet
  facet normal 0 0 -1
    outer loop
      vertex 22.5 37.5 70
      vertex 14.5 40.5 70
      vertex 16.4134 40.8806 70
    endloop
  endfacet
  facet normal 0 0 -1
    outer loop
      vertex 12.5866 19.1194 70
      vertex 14.5 40.5 70
      vertex 14.5 19.5 70
    endloop
  endfacet
  facet normal 0 0 -1
    outer loop
      vertex 12.5866 19.1194 70
      vertex 12.5866 40.8806 70
      vertex 14.5 40.5 70
    endloop
  endfacet
  facet normal 0 0 -1
    outer loop
      vertex 10.9645 18.0355 70
      vertex 12.5866 40.8806 70
      vertex 12.5866 19.1194 70
    endloop
  endfacet
  facet normal 0 0 -1
    outer loop
      vertex 10.9645 18.0355 70
      vertex 10.9645 41.9645 70
      vertex 12.5866 40.8806 70
    endloop
  endfacet
  facet normal 0 0 -1
    outer loop
      vertex 9.8806 16.4134 70
      vertex 10.9645 41.9645 70
      vertex 10.9645 18.0355 70
    endloop
  endfacet
  facet normal 0 0 -1
    outer loop
      vertex 9.8806 16.4134 70
      vertex 9.8806 43.5866 70
      vertex 10.9645 41.9645 70
    endloop
  endfacet
  facet normal 0 0 -1
    outer loop
      vertex 6.5 6.5 70
      vertex 9.8806 16.4134 70
      vertex 9.5 14.5 70
    endloop
  endfacet
  facet normal -0 0 -1
    outer loop
      vertex 9.8806 16.4134 70
      vertex 6.5 6.5 70
      vertex 9.8806 43.5866 70
    endloop
  endfacet
  facet normal 0 0 -1
    outer loop
      vertex 50.1194 43.5866 70
      vertex 53.5 53.5 70
      vertex 50.1194 16.4134 70
    endloop
  endfacet
  facet normal 0 0 -1
    outer loop
      vertex 53.5 53.5 70
      vertex 50.1194 43.5866 70
      vertex 50.5 45.5 70
    endloop
  endfacet
  facet normal 0 0 -1
    outer loop
      vertex 49.0355 18.0355 70
      vertex 50.1194 43.5866 70
      vertex 50.1194 16.4134 70
    endloop
  endfacet
  facet normal 0 0 -1
    outer loop
      vertex 49.0355 18.0355 70
      vertex 49.0355 41.9645 70
      vertex 50.1194 43.5866 70
    endloop
  endfacet
  facet normal 0 0 -1
    outer loop
      vertex 47.4134 19.1194 70
      vertex 49.0355 41.9645 70
      vertex 49.0355 18.0355 70
    endloop
  endfacet
  facet normal 0 0 -1
    outer loop
      vertex 47.4134 19.1194 70
      vertex 47.4134 40.8806 70
      vertex 49.0355 41.9645 70
    endloop
  endfacet
  facet normal 0 0 -1
    outer loop
      vertex 45.5 19.5 70
      vertex 47.4134 40.8806 70
      vertex 47.4134 19.1194 70
    endloop
  endfacet
  facet normal 0 0 -1
    outer loop
      vertex 45.5 19.5 70
      vertex 45.5 40.5 70
      vertex 47.4134 40.8806 70
    endloop
  endfacet
  facet normal 0 0 -1
    outer loop
      vertex 37.5 22.5 70
      vertex 45.5 19.5 70
      vertex 43.5866 19.1194 70
    endloop
  endfacet
  facet normal 0 0 -1
    outer loop
      vertex 45.5 19.5 70
      vertex 37.5 22.5 70
      vertex 45.5 40.5 70
    endloop
  endfacet
  facet normal 0 0 -1
    outer loop
      vertex 37.5 22.5 70
      vertex 43.5866 19.1194 70
      vertex 41.9645 18.0355 70
    endloop
  endfacet
  facet normal 0 0 -1
    outer loop
      vertex 37.5 37.5 70
      vertex 45.5 40.5 70
      vertex 37.5 22.5 70
    endloop
  endfacet
  facet normal 0 0 -1
    outer loop
      vertex 37.5 22.5 70
      vertex 41.9645 18.0355 70
      vertex 40.8806 16.4134 70
    endloop
  endfacet
  facet normal -0 0 -1
    outer loop
      vertex 45.5 40.5 70
      vertex 37.5 37.5 70
      vertex 43.5866 40.8806 70
    endloop
  endfacet
  facet normal 0 0 -1
    outer loop
      vertex 37.5 22.5 70
      vertex 40.8806 16.4134 70
      vertex 40.5 14.5 70
    endloop
  endfacet
  facet normal -0 0 -1
    outer loop
      vertex 43.5866 40.8806 70
      vertex 37.5 37.5 70
      vertex 41.9645 41.9645 70
    endloop
  endfacet
  facet normal 0 0 -1
    outer loop
      vertex 50.1194 16.4134 70
      vertex 53.5 6.5 70
      vertex 50.5 14.5 70
    endloop
  endfacet
  facet normal 0 0 -1
    outer loop
      vertex 53.5 6.5 70
      vertex 50.1194 12.5866 70
      vertex 50.5 14.5 70
    endloop
  endfacet
  facet normal 0 0 -1
    outer loop
      vertex 53.5 6.5 70
      vertex 49.0355 10.9645 70
      vertex 50.1194 12.5866 70
    endloop
  endfacet
  facet normal 0 0 -1
    outer loop
      vertex 53.5 6.5 70
      vertex 47.4134 9.8806 70
      vertex 49.0355 10.9645 70
    endloop
  endfacet
  facet normal 0 0 -1
    outer loop
      vertex 53.5 6.5 70
      vertex 45.5 9.5 70
      vertex 47.4134 9.8806 70
    endloop
  endfacet
  facet normal 0 0 -1
    outer loop
      vertex 53.5 6.5 70
      vertex 43.5866 9.8806 70
      vertex 45.5 9.5 70
    endloop
  endfacet
  facet normal -0 0 -1
    outer loop
      vertex 41.9645 41.9645 70
      vertex 37.5 37.5 70
      vertex 40.8806 43.5866 70
    endloop
  endfacet
  facet normal 0 0 -1
    outer loop
      vertex 19.5 14.5 70
      vertex 40.5 14.5 70
      vertex 40.8806 12.5866 70
    endloop
  endfacet
  facet normal 0 0 -1
    outer loop
      vertex 40.5 14.5 70
      vertex 19.5 14.5 70
      vertex 37.5 22.5 70
    endloop
  endfacet
  facet normal 0 0 -1
    outer loop
      vertex 19.1194 12.5866 70
      vertex 40.8806 12.5866 70
      vertex 41.9645 10.9645 70
    endloop
  endfacet
  facet normal 0 0 -1
    outer loop
      vertex 18.0355 10.9645 70
      vertex 41.9645 10.9645 70
      vertex 43.5866 9.8806 70
    endloop
  endfacet
  facet normal 0 0 -1
    outer loop
      vertex 19.1194 16.4134 70
      vertex 22.5 22.5 70
      vertex 19.5 14.5 70
    endloop
  endfacet
  facet normal -0 0 -1
    outer loop
      vertex 37.5 22.5 70
      vertex 19.5 14.5 70
      vertex 22.5 22.5 70
    endloop
  endfacet
  facet normal 0 0 -1
    outer loop
      vertex 16.4134 9.8806 70
      vertex 43.5866 9.8806 70
      vertex 53.5 6.5 70
    endloop
  endfacet
  facet normal 0 0 -1
    outer loop
      vertex 40.8806 12.5866 70
      vertex 19.1194 12.5866 70
      vertex 19.5 14.5 70
    endloop
  endfacet
  facet normal 0 0 -1
    outer loop
      vertex 41.9645 10.9645 70
      vertex 18.0355 10.9645 70
      vertex 19.1194 12.5866 70
    endloop
  endfacet
  facet normal 0 0 -1
    outer loop
      vertex 43.5866 9.8806 70
      vertex 16.4134 9.8806 70
      vertex 18.0355 10.9645 70
    endloop
  endfacet
  facet normal 0 0 -1
    outer loop
      vertex 6.5 6.5 70
      vertex 16.4134 9.8806 70
      vertex 53.5 6.5 70
    endloop
  endfacet
  facet normal 0 0 -1
    outer loop
      vertex 6.5 53.5 70
      vertex 9.8806 43.5866 70
      vertex 6.5 6.5 70
    endloop
  endfacet
  facet normal -0 0 -1
    outer loop
      vertex 9.8806 12.5866 70
      vertex 6.5 6.5 70
      vertex 9.5 14.5 70
    endloop
  endfacet
  facet normal -0 0 -1
    outer loop
      vertex 10.9645 10.9645 70
      vertex 6.5 6.5 70
      vertex 9.8806 12.5866 70
    endloop
  endfacet
  facet normal -0 0 -1
    outer loop
      vertex 12.5866 9.8806 70
      vertex 6.5 6.5 70
      vertex 10.9645 10.9645 70
    endloop
  endfacet
  facet normal -0 0 -1
    outer loop
      vertex 14.5 9.5 70
      vertex 6.5 6.5 70
      vertex 12.5866 9.8806 70
    endloop
  endfacet
  facet normal 0 0 -1
    outer loop
      vertex 16.4134 9.8806 70
      vertex 6.5 6.5 70
      vertex 14.5 9.5 70
    endloop
  endfacet
  facet normal 0 0 -1
    outer loop
      vertex 53.5 6.5 70
      vertex 50.1194 16.4134 70
      vertex 53.5 53.5 70
    endloop
  endfacet
  facet normal 0 0 -1
    outer loop
      vertex 50.1194 47.4134 70
      vertex 53.5 53.5 70
      vertex 50.5 45.5 70
    endloop
  endfacet
  facet normal 0 0 -1
    outer loop
      vertex 49.0355 49.0355 70
      vertex 53.5 53.5 70
      vertex 50.1194 47.4134 70
    endloop
  endfacet
  facet normal 0 0 -1
    outer loop
      vertex 47.4134 50.1194 70
      vertex 53.5 53.5 70
      vertex 49.0355 49.0355 70
    endloop
  endfacet
  facet normal 0 0 -1
    outer loop
      vertex 45.5 50.5 70
      vertex 53.5 53.5 70
      vertex 47.4134 50.1194 70
    endloop
  endfacet
  facet normal 0 0 -1
    outer loop
      vertex 43.5866 50.1194 70
      vertex 53.5 53.5 70
      vertex 45.5 50.5 70
    endloop
  endfacet
  facet normal -0 0 -1
    outer loop
      vertex 40.8806 43.5866 70
      vertex 37.5 37.5 70
      vertex 40.5 45.5 70
    endloop
  endfacet
  facet normal 0 0 -1
    outer loop
      vertex 19.5 45.5 70
      vertex 40.5 45.5 70
      vertex 37.5 37.5 70
    endloop
  endfacet
  facet normal 0 0 -1
    outer loop
      vertex 19.5 45.5 70
      vertex 37.5 37.5 70
      vertex 22.5 37.5 70
    endloop
  endfacet
  facet normal 0 0 -1
    outer loop
      vertex 40.5 45.5 70
      vertex 19.5 45.5 70
      vertex 40.8806 47.4134 70
    endloop
  endfacet
  facet normal 0 0 -1
    outer loop
      vertex 19.1194 47.4134 70
      vertex 40.8806 47.4134 70
      vertex 19.5 45.5 70
    endloop
  endfacet
  facet normal 0 0 -1
    outer loop
      vertex 18.0355 18.0355 70
      vertex 22.5 22.5 70
      vertex 19.1194 16.4134 70
    endloop
  endfacet
  facet normal 0 0 -1
    outer loop
      vertex 40.8806 47.4134 70
      vertex 19.1194 47.4134 70
      vertex 41.9645 49.0355 70
    endloop
  endfacet
  facet normal 0 0 -1
    outer loop
      vertex 18.0355 49.0355 70
      vertex 41.9645 49.0355 70
      vertex 19.1194 47.4134 70
    endloop
  endfacet
  facet normal 0 0 -1
    outer loop
      vertex 41.9645 49.0355 70
      vertex 18.0355 49.0355 70
      vertex 43.5866 50.1194 70
    endloop
  endfacet
  facet normal 0 0 -1
    outer loop
      vertex 16.4134 50.1194 70
      vertex 43.5866 50.1194 70
      vertex 18.0355 49.0355 70
    endloop
  endfacet
  facet normal 0 0 -1
    outer loop
      vertex 43.5866 50.1194 70
      vertex 16.4134 50.1194 70
      vertex 53.5 53.5 70
    endloop
  endfacet
  facet normal 0 0 -1
    outer loop
      vertex 6.5 53.5 70
      vertex 16.4134 50.1194 70
      vertex 14.5 50.5 70
    endloop
  endfacet
  facet normal 0 0 -1
    outer loop
      vertex 16.4134 50.1194 70
      vertex 6.5 53.5 70
      vertex 53.5 53.5 70
    endloop
  endfacet
  facet normal 0 0 -1
    outer loop
      vertex 12.5866 50.1194 70
      vertex 6.5 53.5 70
      vertex 14.5 50.5 70
    endloop
  endfacet
  facet normal 0 0 -1
    outer loop
      vertex 10.9645 49.0355 70
      vertex 6.5 53.5 70
      vertex 12.5866 50.1194 70
    endloop
  endfacet
  facet normal 0 0 -1
    outer loop
      vertex 9.8806 47.4134 70
      vertex 6.5 53.5 70
      vertex 10.9645 49.0355 70
    endloop
  endfacet
  facet normal 0 0 -1
    outer loop
      vertex 9.5 45.5 70
      vertex 6.5 53.5 70
      vertex 9.8806 47.4134 70
    endloop
  endfacet
  facet normal 0 0 -1
    outer loop
      vertex 9.8806 43.5866 70
      vertex 6.5 53.5 70
      vertex 9.5 45.5 70
    endloop
  endfacet
  facet normal 1 -0 0
    outer loop
      vertex 37.5 22.5 70
      vertex 37.5 37.5 -20
      vertex 37.5 37.5 70
    endloop
  endfacet
  facet normal 1 0 0
    outer loop
      vertex 37.5 37.5 -20
      vertex 37.5 22.5 70
      vertex 37.5 22.5 -20
    endloop
  endfacet
  facet normal 0 0 -1
    outer loop
      vertex 22.5 22.5 -20
      vertex 37.5 37.5 -20
      vertex 37.5 22.5 -20
    endloop
  endfacet
  facet normal -0 0 -1
    outer loop
      vertex 37.5 37.5 -20
      vertex 22.5 22.5 -20
      vertex 22.5 37.5 -20
    endloop
  endfacet
  facet normal 0 -1 0
    outer loop
      vertex 22.5 22.5 -20
      vertex 37.5 22.5 70
      vertex 22.5 22.5 70
    endloop
  endfacet
  facet normal 0 -1 -0
    outer loop
      vertex 37.5 22.5 70
      vertex 22.5 22.5 -20
      vertex 37.5 22.5 -20
    endloop
  endfacet
  facet normal 0 1 -0
    outer loop
      vertex 37.5 37.5 -20
      vertex 22.5 37.5 70
      vertex 37.5 37.5 70
    endloop
  endfacet
  facet normal 0 1 0
    outer loop
      vertex 22.5 37.5 70
      vertex 37.5 37.5 -20
      vertex 22.5 37.5 -20
    endloop
  endfacet
  facet normal -1 0 0
    outer loop
      vertex 6.5 6.5 70
      vertex 6.5 53.5 82
      vertex 6.5 53.5 70
    endloop
  endfacet
  facet normal -1 -0 0
    outer loop
      vertex 6.5 53.5 82
      vertex 6.5 6.5 70
      vertex 6.5 6.5 82
    endloop
  endfacet
  facet normal -0 0 1
    outer loop
      vertex 6.5 53.5 82
      vertex 53.5 6.5 82
      vertex 53.5 53.5 82
    endloop
  endfacet
  facet normal 0 0 1
    outer loop
      vertex 53.5 6.5 82
      vertex 6.5 53.5 82
      vertex 6.5 6.5 82
    endloop
  endfacet
  facet normal 1 -0 0
    outer loop
      vertex 53.5 6.5 82
      vertex 53.5 53.5 70
      vertex 53.5 53.5 82
    endloop
  endfacet
  facet normal 1 0 0
    outer loop
      vertex 53.5 53.5 70
      vertex 53.5 6.5 82
      vertex 53.5 6.5 70
    endloop
  endfacet
  facet normal 0 1 -0
    outer loop
      vertex 53.5 53.5 70
      vertex 6.5 53.5 82
      vertex 53.5 53.5 82
    endloop
  endfacet
  facet normal 0 1 0
    outer loop
      vertex 6.5 53.5 82
      vertex 53.5 53.5 70
      vertex 6.5 53.5 70
    endloop
  endfacet
  facet normal 0 -1 0
    outer loop
      vertex 6.5 6.5 70
      vertex 53.5 6.5 82
      vertex 6.5 6.5 82
    endloop
  endfacet
  facet normal 0 -1 -0
    outer loop
      vertex 53.5 6.5 82
      vertex 6.5 6.5 70
      vertex 53.5 6.5 70
    endloop
  endfacet
  facet normal -0.980785 -0.195091 0
    outer loop
      vertex 19.5 14.5 70
      vertex 19.1194 16.4134 79
      vertex 19.1194 16.4134 70
    endloop
  endfacet
  facet normal -0.980785 -0.195091 0
    outer loop
      vertex 19.1194 16.4134 79
      vertex 19.5 14.5 70
      vertex 19.5 14.5 79
    endloop
  endfacet
  facet normal 0.195091 -0.980785 0
    outer loop
      vertex 12.5866 19.1194 70
      vertex 14.5 19.5 79
      vertex 12.5866 19.1194 79
    endloop
  endfacet
  facet normal 0.195091 -0.980785 0
    outer loop
      vertex 14.5 19.5 79
      vertex 12.5866 19.1194 70
      vertex 14.5 19.5 70
    endloop
  endfacet
  facet normal -0.19509 0.980785 0
    outer loop
      vertex 16.4134 9.8806 70
      vertex 14.5 9.5 79
      vertex 16.4134 9.8806 79
    endloop
  endfacet
  facet normal -0.19509 0.980785 0
    outer loop
      vertex 14.5 9.5 79
      vertex 16.4134 9.8806 70
      vertex 14.5 9.5 70
    endloop
  endfacet
  facet normal -0.55557 0.83147 0
    outer loop
      vertex 18.0355 10.9645 70
      vertex 16.4134 9.8806 79
      vertex 18.0355 10.9645 79
    endloop
  endfacet
  facet normal -0.55557 0.83147 0
    outer loop
      vertex 16.4134 9.8806 79
      vertex 18.0355 10.9645 70
      vertex 16.4134 9.8806 70
    endloop
  endfacet
  facet normal -0.55557 -0.83147 0
    outer loop
      vertex 16.4134 19.1194 70
      vertex 18.0355 18.0355 79
      vertex 16.4134 19.1194 79
    endloop
  endfacet
  facet normal -0.55557 -0.83147 -0
    outer loop
      vertex 18.0355 18.0355 79
      vertex 16.4134 19.1194 70
      vertex 18.0355 18.0355 70
    endloop
  endfacet
  facet normal -0.83147 -0.55557 0
    outer loop
      vertex 19.1194 16.4134 70
      vertex 18.0355 18.0355 79
      vertex 18.0355 18.0355 70
    endloop
  endfacet
  facet normal -0.83147 -0.55557 0
    outer loop
      vertex 18.0355 18.0355 79
      vertex 19.1194 16.4134 70
      vertex 19.1194 16.4134 79
    endloop
  endfacet
  facet normal -0.195091 -0.980785 0
    outer loop
      vertex 14.5 19.5 70
      vertex 16.4134 19.1194 79
      vertex 14.5 19.5 79
    endloop
  endfacet
  facet normal -0.195091 -0.980785 -0
    outer loop
      vertex 16.4134 19.1194 79
      vertex 14.5 19.5 70
      vertex 16.4134 19.1194 70
    endloop
  endfacet
  facet normal 0.83147 -0.55557 0
    outer loop
      vertex 9.8806 16.4134 79
      vertex 10.9645 18.0355 70
      vertex 10.9645 18.0355 79
    endloop
  endfacet
  facet normal 0.83147 -0.55557 0
    outer loop
      vertex 10.9645 18.0355 70
      vertex 9.8806 16.4134 79
      vertex 9.8806 16.4134 70
    endloop
  endfacet
  facet normal 0.980785 -0.19509 0
    outer loop
      vertex 9.5 14.5 79
      vertex 9.8806 16.4134 70
      vertex 9.8806 16.4134 79
    endloop
  endfacet
  facet normal 0.980785 -0.19509 0
    outer loop
      vertex 9.8806 16.4134 70
      vertex 9.5 14.5 79
      vertex 9.5 14.5 70
    endloop
  endfacet
  facet normal 0 0 -1
    outer loop
      vertex 19.1194 12.5866 79
      vertex 19.1194 16.4134 79
      vertex 19.5 14.5 79
    endloop
  endfacet
  facet normal 0 0 -1
    outer loop
      vertex 18.0355 10.9645 79
      vertex 19.1194 16.4134 79
      vertex 19.1194 12.5866 79
    endloop
  endfacet
  facet normal 0 0 -1
    outer loop
      vertex 18.0355 10.9645 79
      vertex 18.0355 18.0355 79
      vertex 19.1194 16.4134 79
    endloop
  endfacet
  facet normal 0 0 -1
    outer loop
      vertex 16.4134 9.8806 79
      vertex 18.0355 18.0355 79
      vertex 18.0355 10.9645 79
    endloop
  endfacet
  facet normal 0 0 -1
    outer loop
      vertex 16.4134 9.8806 79
      vertex 16.4134 19.1194 79
      vertex 18.0355 18.0355 79
    endloop
  endfacet
  facet normal 0 0 -1
    outer loop
      vertex 14.5 9.5 79
      vertex 16.4134 19.1194 79
      vertex 16.4134 9.8806 79
    endloop
  endfacet
  facet normal 0 0 -1
    outer loop
      vertex 14.5 9.5 79
      vertex 14.5 19.5 79
      vertex 16.4134 19.1194 79
    endloop
  endfacet
  facet normal 0 0 -1
    outer loop
      vertex 12.5866 9.8806 79
      vertex 14.5 19.5 79
      vertex 14.5 9.5 79
    endloop
  endfacet
  facet normal 0 0 -1
    outer loop
      vertex 12.5866 9.8806 79
      vertex 12.5866 19.1194 79
      vertex 14.5 19.5 79
    endloop
  endfacet
  facet normal 0 0 -1
    outer loop
      vertex 10.9645 10.9645 79
      vertex 12.5866 19.1194 79
      vertex 12.5866 9.8806 79
    endloop
  endfacet
  facet normal 0 0 -1
    outer loop
      vertex 10.9645 10.9645 79
      vertex 10.9645 18.0355 79
      vertex 12.5866 19.1194 79
    endloop
  endfacet
  facet normal 0 0 -1
    outer loop
      vertex 9.8806 12.5866 79
      vertex 10.9645 18.0355 79
      vertex 10.9645 10.9645 79
    endloop
  endfacet
  facet normal 0 0 -1
    outer loop
      vertex 9.8806 12.5866 79
      vertex 9.8806 16.4134 79
      vertex 10.9645 18.0355 79
    endloop
  endfacet
  facet normal 0 -0 -1
    outer loop
      vertex 9.8806 16.4134 79
      vertex 9.8806 12.5866 79
      vertex 9.5 14.5 79
    endloop
  endfacet
  facet normal 0.55557 -0.83147 0
    outer loop
      vertex 10.9645 18.0355 70
      vertex 12.5866 19.1194 79
      vertex 10.9645 18.0355 79
    endloop
  endfacet
  facet normal 0.55557 -0.83147 0
    outer loop
      vertex 12.5866 19.1194 79
      vertex 10.9645 18.0355 70
      vertex 12.5866 19.1194 70
    endloop
  endfacet
  facet normal -0.980785 0.195091 0
    outer loop
      vertex 19.1194 12.5866 70
      vertex 19.5 14.5 79
      vertex 19.5 14.5 70
    endloop
  endfacet
  facet normal -0.980785 0.195091 0
    outer loop
      vertex 19.5 14.5 79
      vertex 19.1194 12.5866 70
      vertex 19.1194 12.5866 79
    endloop
  endfacet
  facet normal 0.19509 0.980785 -0
    outer loop
      vertex 14.5 9.5 70
      vertex 12.5866 9.8806 79
      vertex 14.5 9.5 79
    endloop
  endfacet
  facet normal 0.19509 0.980785 0
    outer loop
      vertex 12.5866 9.8806 79
      vertex 14.5 9.5 70
      vertex 12.5866 9.8806 70
    endloop
  endfacet
  facet normal 0.83147 0.55557 0
    outer loop
      vertex 10.9645 10.9645 79
      vertex 9.8806 12.5866 70
      vertex 9.8806 12.5866 79
    endloop
  endfacet
  facet normal 0.83147 0.55557 0
    outer loop
      vertex 9.8806 12.5866 70
      vertex 10.9645 10.9645 79
      vertex 10.9645 10.9645 70
    endloop
  endfacet
  facet normal 0.980785 0.19509 0
    outer loop
      vertex 9.8806 12.5866 79
      vertex 9.5 14.5 70
      vertex 9.5 14.5 79
    endloop
  endfacet
  facet normal 0.980785 0.19509 0
    outer loop
      vertex 9.5 14.5 70
      vertex 9.8806 12.5866 79
      vertex 9.8806 12.5866 70
    endloop
  endfacet
  facet normal -0.83147 0.55557 0
    outer loop
      vertex 18.0355 10.9645 70
      vertex 19.1194 12.5866 79
      vertex 19.1194 12.5866 70
    endloop
  endfacet
  facet normal -0.83147 0.55557 0
    outer loop
      vertex 19.1194 12.5866 79
      vertex 18.0355 10.9645 70
      vertex 18.0355 10.9645 79
    endloop
  endfacet
  facet normal 0.55557 0.83147 -0
    outer loop
      vertex 12.5866 9.8806 70
      vertex 10.9645 10.9645 79
      vertex 12.5866 9.8806 79
    endloop
  endfacet
  facet normal 0.55557 0.83147 0
    outer loop
      vertex 10.9645 10.9645 79
      vertex 12.5866 9.8806 70
      vertex 10.9645 10.9645 70
    endloop
  endfacet
  facet normal -0.980785 -0.195091 0
    outer loop
      vertex 19.5 45.5 70
      vertex 19.1194 47.4134 79
      vertex 19.1194 47.4134 70
    endloop
  endfacet
  facet normal -0.980785 -0.195091 0
    outer loop
      vertex 19.1194 47.4134 79
      vertex 19.5 45.5 70
      vertex 19.5 45.5 79
    endloop
  endfacet
  facet normal -0.195091 -0.980785 0
    outer loop
      vertex 14.5 50.5 70
      vertex 16.4134 50.1194 79
      vertex 14.5 50.5 79
    endloop
  endfacet
  facet normal -0.195091 -0.980785 -0
    outer loop
      vertex 16.4134 50.1194 79
      vertex 14.5 50.5 70
      vertex 16.4134 50.1194 70
    endloop
  endfacet
  facet normal 0.980785 0.19509 0
    outer loop
      vertex 9.8806 43.5866 79
      vertex 9.5 45.5 70
      vertex 9.5 45.5 79
    endloop
  endfacet
  facet normal 0.980785 0.19509 0
    outer loop
      vertex 9.5 45.5 70
      vertex 9.8806 43.5866 79
      vertex 9.8806 43.5866 70
    endloop
  endfacet
  facet normal -0.83147 0.55557 0
    outer loop
      vertex 18.0355 41.9645 70
      vertex 19.1194 43.5866 79
      vertex 19.1194 43.5866 70
    endloop
  endfacet
  facet normal -0.83147 0.55557 0
    outer loop
      vertex 19.1194 43.5866 79
      vertex 18.0355 41.9645 70
      vertex 18.0355 41.9645 79
    endloop
  endfacet
  facet normal -0.555571 0.831469 0
    outer loop
      vertex 18.0355 41.9645 70
      vertex 16.4134 40.8806 79
      vertex 18.0355 41.9645 79
    endloop
  endfacet
  facet normal -0.555571 0.831469 0
    outer loop
      vertex 16.4134 40.8806 79
      vertex 18.0355 41.9645 70
      vertex 16.4134 40.8806 70
    endloop
  endfacet
  facet normal -0.195089 0.980786 0
    outer loop
      vertex 16.4134 40.8806 70
      vertex 14.5 40.5 79
      vertex 16.4134 40.8806 79
    endloop
  endfacet
  facet normal -0.195089 0.980786 0
    outer loop
      vertex 14.5 40.5 79
      vertex 16.4134 40.8806 70
      vertex 14.5 40.5 70
    endloop
  endfacet
  facet normal -0.55557 -0.83147 0
    outer loop
      vertex 16.4134 50.1194 70
      vertex 18.0355 49.0355 79
      vertex 16.4134 50.1194 79
    endloop
  endfacet
  facet normal -0.55557 -0.83147 -0
    outer loop
      vertex 18.0355 49.0355 79
      vertex 16.4134 50.1194 70
      vertex 18.0355 49.0355 70
    endloop
  endfacet
  facet normal -0.83147 -0.55557 0
    outer loop
      vertex 19.1194 47.4134 70
      vertex 18.0355 49.0355 79
      vertex 18.0355 49.0355 70
    endloop
  endfacet
  facet normal -0.83147 -0.55557 0
    outer loop
      vertex 18.0355 49.0355 79
      vertex 19.1194 47.4134 70
      vertex 19.1194 47.4134 79
    endloop
  endfacet
  facet normal 0.195091 -0.980785 0
    outer loop
      vertex 12.5866 50.1194 70
      vertex 14.5 50.5 79
      vertex 12.5866 50.1194 79
    endloop
  endfacet
  facet normal 0.195091 -0.980785 0
    outer loop
      vertex 14.5 50.5 79
      vertex 12.5866 50.1194 70
      vertex 14.5 50.5 70
    endloop
  endfacet
  facet normal 0.55557 -0.83147 0
    outer loop
      vertex 10.9645 49.0355 70
      vertex 12.5866 50.1194 79
      vertex 10.9645 49.0355 79
    endloop
  endfacet
  facet normal 0.55557 -0.83147 0
    outer loop
      vertex 12.5866 50.1194 79
      vertex 10.9645 49.0355 70
      vertex 12.5866 50.1194 70
    endloop
  endfacet
  facet normal 0.83147 -0.55557 0
    outer loop
      vertex 9.8806 47.4134 79
      vertex 10.9645 49.0355 70
      vertex 10.9645 49.0355 79
    endloop
  endfacet
  facet normal 0.83147 -0.55557 0
    outer loop
      vertex 10.9645 49.0355 70
      vertex 9.8806 47.4134 79
      vertex 9.8806 47.4134 70
    endloop
  endfacet
  facet normal 0.83147 0.55557 0
    outer loop
      vertex 10.9645 41.9645 79
      vertex 9.8806 43.5866 70
      vertex 9.8806 43.5866 79
    endloop
  endfacet
  facet normal 0.83147 0.55557 0
    outer loop
      vertex 9.8806 43.5866 70
      vertex 10.9645 41.9645 79
      vertex 10.9645 41.9645 70
    endloop
  endfacet
  facet normal 0.195089 0.980786 -0
    outer loop
      vertex 14.5 40.5 70
      vertex 12.5866 40.8806 79
      vertex 14.5 40.5 79
    endloop
  endfacet
  facet normal 0.195089 0.980786 0
    outer loop
      vertex 12.5866 40.8806 79
      vertex 14.5 40.5 70
      vertex 12.5866 40.8806 70
    endloop
  endfacet
  facet normal 0 0 -1
    outer loop
      vertex 19.1194 43.5866 79
      vertex 19.1194 47.4134 79
      vertex 19.5 45.5 79
    endloop
  endfacet
  facet normal 0 0 -1
    outer loop
      vertex 18.0355 41.9645 79
      vertex 19.1194 47.4134 79
      vertex 19.1194 43.5866 79
    endloop
  endfacet
  facet normal 0 0 -1
    outer loop
      vertex 18.0355 41.9645 79
      vertex 18.0355 49.0355 79
      vertex 19.1194 47.4134 79
    endloop
  endfacet
  facet normal 0 0 -1
    outer loop
      vertex 16.4134 40.8806 79
      vertex 18.0355 49.0355 79
      vertex 18.0355 41.9645 79
    endloop
  endfacet
  facet normal 0 0 -1
    outer loop
      vertex 16.4134 40.8806 79
      vertex 16.4134 50.1194 79
      vertex 18.0355 49.0355 79
    endloop
  endfacet
  facet normal 0 0 -1
    outer loop
      vertex 14.5 40.5 79
      vertex 16.4134 50.1194 79
      vertex 16.4134 40.8806 79
    endloop
  endfacet
  facet normal 0 0 -1
    outer loop
      vertex 14.5 40.5 79
      vertex 14.5 50.5 79
      vertex 16.4134 50.1194 79
    endloop
  endfacet
  facet normal 0 0 -1
    outer loop
      vertex 12.5866 40.8806 79
      vertex 14.5 50.5 79
      vertex 14.5 40.5 79
    endloop
  endfacet
  facet normal 0 0 -1
    outer loop
      vertex 12.5866 40.8806 79
      vertex 12.5866 50.1194 79
      vertex 14.5 50.5 79
    endloop
  endfacet
  facet normal 0 0 -1
    outer loop
      vertex 10.9645 41.9645 79
      vertex 12.5866 50.1194 79
      vertex 12.5866 40.8806 79
    endloop
  endfacet
  facet normal 0 0 -1
    outer loop
      vertex 10.9645 41.9645 79
      vertex 10.9645 49.0355 79
      vertex 12.5866 50.1194 79
    endloop
  endfacet
  facet normal 0 0 -1
    outer loop
      vertex 9.8806 43.5866 79
      vertex 10.9645 49.0355 79
      vertex 10.9645 41.9645 79
    endloop
  endfacet
  facet normal 0 0 -1
    outer loop
      vertex 9.8806 43.5866 79
      vertex 9.8806 47.4134 79
      vertex 10.9645 49.0355 79
    endloop
  endfacet
  facet normal 0 -0 -1
    outer loop
      vertex 9.8806 47.4134 79
      vertex 9.8806 43.5866 79
      vertex 9.5 45.5 79
    endloop
  endfacet
  facet normal 0.980785 -0.19509 0
    outer loop
      vertex 9.5 45.5 79
      vertex 9.8806 47.4134 70
      vertex 9.8806 47.4134 79
    endloop
  endfacet
  facet normal 0.980785 -0.19509 0
    outer loop
      vertex 9.8806 47.4134 70
      vertex 9.5 45.5 79
      vertex 9.5 45.5 70
    endloop
  endfacet
  facet normal 0.555571 0.831469 -0
    outer loop
      vertex 12.5866 40.8806 70
      vertex 10.9645 41.9645 79
      vertex 12.5866 40.8806 79
    endloop
  endfacet
  facet normal 0.555571 0.831469 0
    outer loop
      vertex 10.9645 41.9645 79
      vertex 12.5866 40.8806 70
      vertex 10.9645 41.9645 70
    endloop
  endfacet
  facet normal -0.980785 0.195091 0
    outer loop
      vertex 19.1194 43.5866 70
      vertex 19.5 45.5 79
      vertex 19.5 45.5 70
    endloop
  endfacet
  facet normal -0.980785 0.195091 0
    outer loop
      vertex 19.5 45.5 79
      vertex 19.1194 43.5866 70
      vertex 19.1194 43.5866 79
    endloop
  endfacet
  facet normal -0.980785 -0.195091 0
    outer loop
      vertex 50.5 14.5 70
      vertex 50.1194 16.4134 79
      vertex 50.1194 16.4134 70
    endloop
  endfacet
  facet normal -0.980785 -0.195091 0
    outer loop
      vertex 50.1194 16.4134 79
      vertex 50.5 14.5 70
      vertex 50.5 14.5 79
    endloop
  endfacet
  facet normal 0.195091 -0.980785 0
    outer loop
      vertex 43.5866 19.1194 70
      vertex 45.5 19.5 79
      vertex 43.5866 19.1194 79
    endloop
  endfacet
  facet normal 0.195091 -0.980785 0
    outer loop
      vertex 45.5 19.5 79
      vertex 43.5866 19.1194 70
      vertex 45.5 19.5 70
    endloop
  endfacet
  facet normal -0.19509 0.980785 0
    outer loop
      vertex 47.4134 9.8806 70
      vertex 45.5 9.5 79
      vertex 47.4134 9.8806 79
    endloop
  endfacet
  facet normal -0.19509 0.980785 0
    outer loop
      vertex 45.5 9.5 79
      vertex 47.4134 9.8806 70
      vertex 45.5 9.5 70
    endloop
  endfacet
  facet normal -0.55557 0.83147 0
    outer loop
      vertex 49.0355 10.9645 70
      vertex 47.4134 9.8806 79
      vertex 49.0355 10.9645 79
    endloop
  endfacet
  facet normal -0.55557 0.83147 0
    outer loop
      vertex 47.4134 9.8806 79
      vertex 49.0355 10.9645 70
      vertex 47.4134 9.8806 70
    endloop
  endfacet
  facet normal -0.55557 -0.83147 0
    outer loop
      vertex 47.4134 19.1194 70
      vertex 49.0355 18.0355 79
      vertex 47.4134 19.1194 79
    endloop
  endfacet
  facet normal -0.55557 -0.83147 -0
    outer loop
      vertex 49.0355 18.0355 79
      vertex 47.4134 19.1194 70
      vertex 49.0355 18.0355 70
    endloop
  endfacet
  facet normal -0.83147 -0.55557 0
    outer loop
      vertex 50.1194 16.4134 70
      vertex 49.0355 18.0355 79
      vertex 49.0355 18.0355 70
    endloop
  endfacet
  facet normal -0.83147 -0.55557 0
    outer loop
      vertex 49.0355 18.0355 79
      vertex 50.1194 16.4134 70
      vertex 50.1194 16.4134 79
    endloop
  endfacet
  facet normal -0.195091 -0.980785 0
    outer loop
      vertex 45.5 19.5 70
      vertex 47.4134 19.1194 79
      vertex 45.5 19.5 79
    endloop
  endfacet
  facet normal -0.195091 -0.980785 -0
    outer loop
      vertex 47.4134 19.1194 79
      vertex 45.5 19.5 70
      vertex 47.4134 19.1194 70
    endloop
  endfacet
  facet normal 0.831469 -0.555571 0
    outer loop
      vertex 40.8806 16.4134 79
      vertex 41.9645 18.0355 70
      vertex 41.9645 18.0355 79
    endloop
  endfacet
  facet normal 0.831469 -0.555571 0
    outer loop
      vertex 41.9645 18.0355 70
      vertex 40.8806 16.4134 79
      vertex 40.8806 16.4134 70
    endloop
  endfacet
  facet normal 0.980786 -0.195089 0
    outer loop
      vertex 40.5 14.5 79
      vertex 40.8806 16.4134 70
      vertex 40.8806 16.4134 79
    endloop
  endfacet
  facet normal 0.980786 -0.195089 0
    outer loop
      vertex 40.8806 16.4134 70
      vertex 40.5 14.5 79
      vertex 40.5 14.5 70
    endloop
  endfacet
  facet normal 0 0 -1
    outer loop
      vertex 50.1194 12.5866 79
      vertex 50.1194 16.4134 79
      vertex 50.5 14.5 79
    endloop
  endfacet
  facet normal 0 0 -1
    outer loop
      vertex 49.0355 10.9645 79
      vertex 50.1194 16.4134 79
      vertex 50.1194 12.5866 79
    endloop
  endfacet
  facet normal 0 0 -1
    outer loop
      vertex 49.0355 10.9645 79
      vertex 49.0355 18.0355 79
      vertex 50.1194 16.4134 79
    endloop
  endfacet
  facet normal 0 0 -1
    outer loop
      vertex 47.4134 9.8806 79
      vertex 49.0355 18.0355 79
      vertex 49.0355 10.9645 79
    endloop
  endfacet
  facet normal 0 0 -1
    outer loop
      vertex 47.4134 9.8806 79
      vertex 47.4134 19.1194 79
      vertex 49.0355 18.0355 79
    endloop
  endfacet
  facet normal 0 0 -1
    outer loop
      vertex 45.5 9.5 79
      vertex 47.4134 19.1194 79
      vertex 47.4134 9.8806 79
    endloop
  endfacet
  facet normal 0 0 -1
    outer loop
      vertex 45.5 9.5 79
      vertex 45.5 19.5 79
      vertex 47.4134 19.1194 79
    endloop
  endfacet
  facet normal 0 0 -1
    outer loop
      vertex 43.5866 9.8806 79
      vertex 45.5 19.5 79
      vertex 45.5 9.5 79
    endloop
  endfacet
  facet normal 0 0 -1
    outer loop
      vertex 43.5866 9.8806 79
      vertex 43.5866 19.1194 79
      vertex 45.5 19.5 79
    endloop
  endfacet
  facet normal 0 0 -1
    outer loop
      vertex 41.9645 10.9645 79
      vertex 43.5866 19.1194 79
      vertex 43.5866 9.8806 79
    endloop
  endfacet
  facet normal 0 0 -1
    outer loop
      vertex 41.9645 10.9645 79
      vertex 41.9645 18.0355 79
      vertex 43.5866 19.1194 79
    endloop
  endfacet
  facet normal 0 0 -1
    outer loop
      vertex 40.8806 12.5866 79
      vertex 41.9645 18.0355 79
      vertex 41.9645 10.9645 79
    endloop
  endfacet
  facet normal 0 0 -1
    outer loop
      vertex 40.8806 12.5866 79
      vertex 40.8806 16.4134 79
      vertex 41.9645 18.0355 79
    endloop
  endfacet
  facet normal 0 -0 -1
    outer loop
      vertex 40.8806 16.4134 79
      vertex 40.8806 12.5866 79
      vertex 40.5 14.5 79
    endloop
  endfacet
  facet normal 0.55557 -0.83147 0
    outer loop
      vertex 41.9645 18.0355 70
      vertex 43.5866 19.1194 79
      vertex 41.9645 18.0355 79
    endloop
  endfacet
  facet normal 0.55557 -0.83147 0
    outer loop
      vertex 43.5866 19.1194 79
      vertex 41.9645 18.0355 70
      vertex 43.5866 19.1194 70
    endloop
  endfacet
  facet normal -0.980785 0.195091 0
    outer loop
      vertex 50.1194 12.5866 70
      vertex 50.5 14.5 79
      vertex 50.5 14.5 70
    endloop
  endfacet
  facet normal -0.980785 0.195091 0
    outer loop
      vertex 50.5 14.5 79
      vertex 50.1194 12.5866 70
      vertex 50.1194 12.5866 79
    endloop
  endfacet
  facet normal 0.19509 0.980785 -0
    outer loop
      vertex 45.5 9.5 70
      vertex 43.5866 9.8806 79
      vertex 45.5 9.5 79
    endloop
  endfacet
  facet normal 0.19509 0.980785 0
    outer loop
      vertex 43.5866 9.8806 79
      vertex 45.5 9.5 70
      vertex 43.5866 9.8806 70
    endloop
  endfacet
  facet normal 0.831469 0.555571 0
    outer loop
      vertex 41.9645 10.9645 79
      vertex 40.8806 12.5866 70
      vertex 40.8806 12.5866 79
    endloop
  endfacet
  facet normal 0.831469 0.555571 0
    outer loop
      vertex 40.8806 12.5866 70
      vertex 41.9645 10.9645 79
      vertex 41.9645 10.9645 70
    endloop
  endfacet
  facet normal 0.980786 0.195089 0
    outer loop
      vertex 40.8806 12.5866 79
      vertex 40.5 14.5 70
      vertex 40.5 14.5 79
    endloop
  endfacet
  facet normal 0.980786 0.195089 0
    outer loop
      vertex 40.5 14.5 70
      vertex 40.8806 12.5866 79
      vertex 40.8806 12.5866 70
    endloop
  endfacet
  facet normal -0.83147 0.55557 0
    outer loop
      vertex 49.0355 10.9645 70
      vertex 50.1194 12.5866 79
      vertex 50.1194 12.5866 70
    endloop
  endfacet
  facet normal -0.83147 0.55557 0
    outer loop
      vertex 50.1194 12.5866 79
      vertex 49.0355 10.9645 70
      vertex 49.0355 10.9645 79
    endloop
  endfacet
  facet normal 0.55557 0.83147 -0
    outer loop
      vertex 43.5866 9.8806 70
      vertex 41.9645 10.9645 79
      vertex 43.5866 9.8806 79
    endloop
  endfacet
  facet normal 0.55557 0.83147 0
    outer loop
      vertex 41.9645 10.9645 79
      vertex 43.5866 9.8806 70
      vertex 41.9645 10.9645 70
    endloop
  endfacet
  facet normal -0.980785 -0.195091 0
    outer loop
      vertex 50.5 45.5 70
      vertex 50.1194 47.4134 79
      vertex 50.1194 47.4134 70
    endloop
  endfacet
  facet normal -0.980785 -0.195091 0
    outer loop
      vertex 50.1194 47.4134 79
      vertex 50.5 45.5 70
      vertex 50.5 45.5 79
    endloop
  endfacet
  facet normal -0.195091 -0.980785 0
    outer loop
      vertex 45.5 50.5 70
      vertex 47.4134 50.1194 79
      vertex 45.5 50.5 79
    endloop
  endfacet
  facet normal -0.195091 -0.980785 -0
    outer loop
      vertex 47.4134 50.1194 79
      vertex 45.5 50.5 70
      vertex 47.4134 50.1194 70
    endloop
  endfacet
  facet normal 0.980786 0.195089 0
    outer loop
      vertex 40.8806 43.5866 79
      vertex 40.5 45.5 70
      vertex 40.5 45.5 79
    endloop
  endfacet
  facet normal 0.980786 0.195089 0
    outer loop
      vertex 40.5 45.5 70
      vertex 40.8806 43.5866 79
      vertex 40.8806 43.5866 70
    endloop
  endfacet
  facet normal -0.83147 0.55557 0
    outer loop
      vertex 49.0355 41.9645 70
      vertex 50.1194 43.5866 79
      vertex 50.1194 43.5866 70
    endloop
  endfacet
  facet normal -0.83147 0.55557 0
    outer loop
      vertex 50.1194 43.5866 79
      vertex 49.0355 41.9645 70
      vertex 49.0355 41.9645 79
    endloop
  endfacet
  facet normal -0.555571 0.831469 0
    outer loop
      vertex 49.0355 41.9645 70
      vertex 47.4134 40.8806 79
      vertex 49.0355 41.9645 79
    endloop
  endfacet
  facet normal -0.555571 0.831469 0
    outer loop
      vertex 47.4134 40.8806 79
      vertex 49.0355 41.9645 70
      vertex 47.4134 40.8806 70
    endloop
  endfacet
  facet normal -0.195089 0.980786 0
    outer loop
      vertex 47.4134 40.8806 70
      vertex 45.5 40.5 79
      vertex 47.4134 40.8806 79
    endloop
  endfacet
  facet normal -0.195089 0.980786 0
    outer loop
      vertex 45.5 40.5 79
      vertex 47.4134 40.8806 70
      vertex 45.5 40.5 70
    endloop
  endfacet
  facet normal -0.55557 -0.83147 0
    outer loop
      vertex 47.4134 50.1194 70
      vertex 49.0355 49.0355 79
      vertex 47.4134 50.1194 79
    endloop
  endfacet
  facet normal -0.55557 -0.83147 -0
    outer loop
      vertex 49.0355 49.0355 79
      vertex 47.4134 50.1194 70
      vertex 49.0355 49.0355 70
    endloop
  endfacet
  facet normal -0.83147 -0.55557 0
    outer loop
      vertex 50.1194 47.4134 70
      vertex 49.0355 49.0355 79
      vertex 49.0355 49.0355 70
    endloop
  endfacet
  facet normal -0.83147 -0.55557 0
    outer loop
      vertex 49.0355 49.0355 79
      vertex 50.1194 47.4134 70
      vertex 50.1194 47.4134 79
    endloop
  endfacet
  facet normal 0.195091 -0.980785 0
    outer loop
      vertex 43.5866 50.1194 70
      vertex 45.5 50.5 79
      vertex 43.5866 50.1194 79
    endloop
  endfacet
  facet normal 0.195091 -0.980785 0
    outer loop
      vertex 45.5 50.5 79
      vertex 43.5866 50.1194 70
      vertex 45.5 50.5 70
    endloop
  endfacet
  facet normal 0.55557 -0.83147 0
    outer loop
      vertex 41.9645 49.0355 70
      vertex 43.5866 50.1194 79
      vertex 41.9645 49.0355 79
    endloop
  endfacet
  facet normal 0.55557 -0.83147 0
    outer loop
      vertex 43.5866 50.1194 79
      vertex 41.9645 49.0355 70
      vertex 43.5866 50.1194 70
    endloop
  endfacet
  facet normal 0.980786 -0.195089 0
    outer loop
      vertex 40.5 45.5 79
      vertex 40.8806 47.4134 70
      vertex 40.8806 47.4134 79
    endloop
  endfacet
  facet normal 0.980786 -0.195089 0
    outer loop
      vertex 40.8806 47.4134 70
      vertex 40.5 45.5 79
      vertex 40.5 45.5 70
    endloop
  endfacet
  facet normal 0.831469 -0.555571 0
    outer loop
      vertex 40.8806 47.4134 79
      vertex 41.9645 49.0355 70
      vertex 41.9645 49.0355 79
    endloop
  endfacet
  facet normal 0.831469 -0.555571 0
    outer loop
      vertex 41.9645 49.0355 70
      vertex 40.8806 47.4134 79
      vertex 40.8806 47.4134 70
    endloop
  endfacet
  facet normal 0.831469 0.555571 0
    outer loop
      vertex 41.9645 41.9645 79
      vertex 40.8806 43.5866 70
      vertex 40.8806 43.5866 79
    endloop
  endfacet
  facet normal 0.831469 0.555571 0
    outer loop
      vertex 40.8806 43.5866 70
      vertex 41.9645 41.9645 79
      vertex 41.9645 41.9645 70
    endloop
  endfacet
  facet normal 0.195089 0.980786 -0
    outer loop
      vertex 45.5 40.5 70
      vertex 43.5866 40.8806 79
      vertex 45.5 40.5 79
    endloop
  endfacet
  facet normal 0.195089 0.980786 0
    outer loop
      vertex 43.5866 40.8806 79
      vertex 45.5 40.5 70
      vertex 43.5866 40.8806 70
    endloop
  endfacet
  facet normal 0.555571 0.831469 -0
    outer loop
      vertex 43.5866 40.8806 70
      vertex 41.9645 41.9645 79
      vertex 43.5866 40.8806 79
    endloop
  endfacet
  facet normal 0.555571 0.831469 0
    outer loop
      vertex 41.9645 41.9645 79
      vertex 43.5866 40.8806 70
      vertex 41.9645 41.9645 70
    endloop
  endfacet
  facet normal 0 0 -1
    outer loop
      vertex 50.1194 43.5866 79
      vertex 50.1194 47.4134 79
      vertex 50.5 45.5 79
    endloop
  endfacet
  facet normal 0 0 -1
    outer loop
      vertex 49.0355 41.9645 79
      vertex 50.1194 47.4134 79
      vertex 50.1194 43.5866 79
    endloop
  endfacet
  facet normal 0 0 -1
    outer loop
      vertex 49.0355 41.9645 79
      vertex 49.0355 49.0355 79
      vertex 50.1194 47.4134 79
    endloop
  endfacet
  facet normal 0 0 -1
    outer loop
      vertex 47.4134 40.8806 79
      vertex 49.0355 49.0355 79
      vertex 49.0355 41.9645 79
    endloop
  endfacet
  facet normal 0 0 -1
    outer loop
      vertex 47.4134 40.8806 79
      vertex 47.4134 50.1194 79
      vertex 49.0355 49.0355 79
    endloop
  endfacet
  facet normal 0 0 -1
    outer loop
      vertex 45.5 40.5 79
      vertex 47.4134 50.1194 79
      vertex 47.4134 40.8806 79
    endloop
  endfacet
  facet normal 0 0 -1
    outer loop
      vertex 45.5 40.5 79
      vertex 45.5 50.5 79
      vertex 47.4134 50.1194 79
    endloop
  endfacet
  facet normal 0 0 -1
    outer loop
      vertex 43.5866 40.8806 79
      vertex 45.5 50.5 79
      vertex 45.5 40.5 79
    endloop
  endfacet
  facet normal 0 0 -1
    outer loop
      vertex 43.5866 40.8806 79
      vertex 43.5866 50.1194 79
      vertex 45.5 50.5 79
    endloop
  endfacet
  facet normal 0 0 -1
    outer loop
      vertex 41.9645 41.9645 79
      vertex 43.5866 50.1194 79
      vertex 43.5866 40.8806 79
    endloop
  endfacet
  facet normal 0 0 -1
    outer loop
      vertex 41.9645 41.9645 79
      vertex 41.9645 49.0355 79
      vertex 43.5866 50.1194 79
    endloop
  endfacet
  facet normal 0 0 -1
    outer loop
      vertex 40.8806 43.5866 79
      vertex 41.9645 49.0355 79
      vertex 41.9645 41.9645 79
    endloop
  endfacet
  facet normal 0 0 -1
    outer loop
      vertex 40.8806 43.5866 79
      vertex 40.8806 47.4134 79
      vertex 41.9645 49.0355 79
    endloop
  endfacet
  facet normal 0 -0 -1
    outer loop
      vertex 40.8806 47.4134 79
      vertex 40.8806 43.5866 79
      vertex 40.5 45.5 79
    endloop
  endfacet
  facet normal -0.980785 0.195091 0
    outer loop
      vertex 50.1194 43.5866 70
      vertex 50.5 45.5 79
      vertex 50.5 45.5 70
    endloop
  endfacet
  facet normal -0.980785 0.195091 0
    outer loop
      vertex 50.5 45.5 79
      vertex 50.1194 43.5866 70
      vertex 50.1194 43.5866 79
    endloop
  endfacet
endsolid OpenSCAD_Model
