solid OpenSCAD_Model
  facet normal -0.866025 0 0.5
    outer loop
      vertex 0 0 0
      vertex 40.4145 40 70
      vertex 0 40 0
    endloop
  endfacet
  facet normal -0.866025 0 0.5
    outer loop
      vertex 40.4145 40 70
      vertex 0 0 0
      vertex 40.4145 0 70
    endloop
  endfacet
  facet normal 0 -1 0
    outer loop
      vertex 34.641 0 0
      vertex 40.4145 0 70
      vertex 0 0 0
    endloop
  endfacet
  facet normal 0 -1 -0
    outer loop
      vertex 40.4145 0 70
      vertex 34.641 0 0
      vertex 75.0555 0 70
    endloop
  endfacet
  facet normal 0 1 0
    outer loop
      vertex 34.641 40 0
      vertex 40.4145 40 70
      vertex 75.0555 40 70
    endloop
  endfacet
  facet normal 0 1 0
    outer loop
      vertex 40.4145 40 70
      vertex 34.641 40 0
      vertex 0 40 0
    endloop
  endfacet
  facet normal 0.866025 0 -0.5
    outer loop
      vertex 75.0555 0 70
      vertex 34.641 40 0
      vertex 75.0555 40 70
    endloop
  endfacet
  facet normal 0.866025 0 -0.5
    outer loop
      vertex 34.641 40 0
      vertex 75.0555 0 70
      vertex 34.641 0 0
    endloop
  endfacet
  facet normal 0 0 -1
    outer loop
      vertex 0 0 0
      vertex 34.641 40 0
      vertex 34.641 0 0
    endloop
  endfacet
  facet normal -0 0 -1
    outer loop
      vertex 34.641 40 0
      vertex 0 0 0
      vertex 0 40 0
    endloop
  endfacet
  facet normal -0 0 1
    outer loop
      vertex 40.4145 40 70
      vertex 75.0555 0 70
      vertex 75.0555 40 70
    endloop
  endfacet
  facet normal 0 0 1
    outer loop
      vertex 75.0555 0 70
      vertex 40.4145 40 70
      vertex 40.4145 0 70
    endloop
  endfacet
endsolid OpenSCAD_Model
