solid OpenSCAD_Model
  facet normal -0.707107 0 0.707107
    outer loop
      vertex 0 0 0
      vertex 70 40 70
      vertex 0 40 0
    endloop
  endfacet
  facet normal -0.707107 0 0.707107
    outer loop
      vertex 70 40 70
      vertex 0 0 0
      vertex 70 0 70
    endloop
  endfacet
  facet normal 0.707107 0 -0.707107
    outer loop
      vertex 112.426 0 70
      vertex 42.4264 40 0
      vertex 112.426 40 70
    endloop
  endfacet
  facet normal 0.707107 0 -0.707107
    outer loop
      vertex 42.4264 40 0
      vertex 112.426 0 70
      vertex 42.4264 0 0
    endloop
  endfacet
  facet normal 0 1 0
    outer loop
      vertex 42.4264 40 0
      vertex 70 40 70
      vertex 112.426 40 70
    endloop
  endfacet
  facet normal 0 1 0
    outer loop
      vertex 70 40 70
      vertex 42.4264 40 0
      vertex 0 40 0
    endloop
  endfacet
  facet normal 0 -1 0
    outer loop
      vertex 42.4264 0 0
      vertex 70 0 70
      vertex 0 0 0
    endloop
  endfacet
  facet normal 0 -1 -0
    outer loop
      vertex 70 0 70
      vertex 42.4264 0 0
      vertex 112.426 0 70
    endloop
  endfacet
  facet normal 0 0 -1
    outer loop
      vertex 0 0 0
      vertex 42.4264 40 0
      vertex 42.4264 0 0
    endloop
  endfacet
  facet normal -0 0 -1
    outer loop
      vertex 42.4264 40 0
      vertex 0 0 0
      vertex 0 40 0
    endloop
  endfacet
  facet normal -0 0 1
    outer loop
      vertex 70 40 70
      vertex 112.426 0 70
      vertex 112.426 40 70
    endloop
  endfacet
  facet normal 0 0 1
    outer loop
      vertex 112.426 0 70
      vertex 70 40 70
      vertex 70 0 70
    endloop
  endfacet
endsolid OpenSCAD_Model
