solid OpenSCAD_Model
  facet normal -0.939693 -0.34202 0
    outer loop
      vertex 22.65 20 0
      vertex 22.03 21.7034 13
      vertex 22.03 21.7034 0
    endloop
  endfacet
  facet normal -0.939693 -0.34202 0
    outer loop
      vertex 22.03 21.7034 13
      vertex 22.65 20 0
      vertex 22.65 20 13
    endloop
  endfacet
  facet normal 1 -0 0
    outer loop
      vertex 17.5098 19.0936 13
      vertex 17.5098 20.9064 0
      vertex 17.5098 20.9064 13
    endloop
  endfacet
  facet normal 1 0 0
    outer loop
      vertex 17.5098 20.9064 0
      vertex 17.5098 19.0936 13
      vertex 17.5098 19.0936 0
    endloop
  endfacet
  facet normal 0 0 -1
    outer loop
      vertex 110 0 0
      vertex 97.65 20 0
      vertex 110 40 0
    endloop
  endfacet
  facet normal 0 0 -1
    outer loop
      vertex 110 0 0
      vertex 97.03 18.2966 0
      vertex 97.65 20 0
    endloop
  endfacet
  facet normal 0 0 -1
    outer loop
      vertex 110 0 0
      vertex 95.4602 17.3903 0
      vertex 97.03 18.2966 0
    endloop
  endfacet
  facet normal 0 0 -1
    outer loop
      vertex 110 0 0
      vertex 93.675 17.705 0
      vertex 95.4602 17.3903 0
    endloop
  endfacet
  facet normal 0 0 -1
    outer loop
      vertex 92.5098 19.0936 0
      vertex 82.65 20 0
      vertex 92.5098 20.9064 0
    endloop
  endfacet
  facet normal 0 0 -1
    outer loop
      vertex 82.03 18.2966 0
      vertex 92.5098 19.0936 0
      vertex 93.675 17.705 0
    endloop
  endfacet
  facet normal 0 0 -1
    outer loop
      vertex 80.4602 17.3903 0
      vertex 93.675 17.705 0
      vertex 110 0 0
    endloop
  endfacet
  facet normal -0 0 -1
    outer loop
      vertex 92.5098 19.0936 0
      vertex 82.03 18.2966 0
      vertex 82.65 20 0
    endloop
  endfacet
  facet normal -0 0 -1
    outer loop
      vertex 93.675 17.705 0
      vertex 80.4602 17.3903 0
      vertex 82.03 18.2966 0
    endloop
  endfacet
  facet normal 0 0 -1
    outer loop
      vertex 65.4602 17.3903 0
      vertex 80.4602 17.3903 0
      vertex 110 0 0
    endloop
  endfacet
  facet normal 0 0 -1
    outer loop
      vertex 77.5098 19.0936 0
      vertex 67.65 20 0
      vertex 77.5098 20.9064 0
    endloop
  endfacet
  facet normal 0 0 -1
    outer loop
      vertex 67.03 18.2966 0
      vertex 77.5098 19.0936 0
      vertex 78.675 17.705 0
    endloop
  endfacet
  facet normal 0 0 -1
    outer loop
      vertex 80.4602 17.3903 0
      vertex 65.4602 17.3903 0
      vertex 78.675 17.705 0
    endloop
  endfacet
  facet normal -0 0 -1
    outer loop
      vertex 77.5098 19.0936 0
      vertex 67.03 18.2966 0
      vertex 67.65 20 0
    endloop
  endfacet
  facet normal -0 0 -1
    outer loop
      vertex 78.675 17.705 0
      vertex 65.4602 17.3903 0
      vertex 67.03 18.2966 0
    endloop
  endfacet
  facet normal 0 0 -1
    outer loop
      vertex 50.4602 17.3903 0
      vertex 65.4602 17.3903 0
      vertex 110 0 0
    endloop
  endfacet
  facet normal 0 0 -1
    outer loop
      vertex 62.5098 19.0936 0
      vertex 52.65 20 0
      vertex 62.5098 20.9064 0
    endloop
  endfacet
  facet normal 0 0 -1
    outer loop
      vertex 52.03 18.2966 0
      vertex 62.5098 19.0936 0
      vertex 63.675 17.705 0
    endloop
  endfacet
  facet normal 0 0 -1
    outer loop
      vertex 65.4602 17.3903 0
      vertex 50.4602 17.3903 0
      vertex 63.675 17.705 0
    endloop
  endfacet
  facet normal -0 0 -1
    outer loop
      vertex 62.5098 19.0936 0
      vertex 52.03 18.2966 0
      vertex 52.65 20 0
    endloop
  endfacet
  facet normal -0 0 -1
    outer loop
      vertex 63.675 17.705 0
      vertex 50.4602 17.3903 0
      vertex 52.03 18.2966 0
    endloop
  endfacet
  facet normal 0 0 -1
    outer loop
      vertex 0 0 0
      vertex 50.4602 17.3903 0
      vertex 110 0 0
    endloop
  endfacet
  facet normal 0 0 -1
    outer loop
      vertex 47.5098 19.0936 0
      vertex 37.65 20 0
      vertex 47.5098 20.9064 0
    endloop
  endfacet
  facet normal 0 0 -1
    outer loop
      vertex 37.03 18.2966 0
      vertex 47.5098 19.0936 0
      vertex 48.675 17.705 0
    endloop
  endfacet
  facet normal 0 -0 -1
    outer loop
      vertex 35.4602 17.3903 0
      vertex 50.4602 17.3903 0
      vertex 0 0 0
    endloop
  endfacet
  facet normal -0 0 -1
    outer loop
      vertex 47.5098 19.0936 0
      vertex 37.03 18.2966 0
      vertex 37.65 20 0
    endloop
  endfacet
  facet normal -0 0 -1
    outer loop
      vertex 48.675 17.705 0
      vertex 35.4602 17.3903 0
      vertex 37.03 18.2966 0
    endloop
  endfacet
  facet normal 0 0 -1
    outer loop
      vertex 50.4602 17.3903 0
      vertex 35.4602 17.3903 0
      vertex 48.675 17.705 0
    endloop
  endfacet
  facet normal 0 0 -1
    outer loop
      vertex 32.5098 19.0936 0
      vertex 22.65 20 0
      vertex 32.5098 20.9064 0
    endloop
  endfacet
  facet normal 0 0 -1
    outer loop
      vertex 22.03 18.2966 0
      vertex 32.5098 19.0936 0
      vertex 33.675 17.705 0
    endloop
  endfacet
  facet normal -0 0 -1
    outer loop
      vertex 35.4602 17.3903 0
      vertex 0 0 0
      vertex 33.675 17.705 0
    endloop
  endfacet
  facet normal -0 0 -1
    outer loop
      vertex 32.5098 19.0936 0
      vertex 22.03 18.2966 0
      vertex 22.65 20 0
    endloop
  endfacet
  facet normal -0 0 -1
    outer loop
      vertex 33.675 17.705 0
      vertex 20.4602 17.3903 0
      vertex 22.03 18.2966 0
    endloop
  endfacet
  facet normal 0 0 -1
    outer loop
      vertex 33.675 17.705 0
      vertex 0 0 0
      vertex 20.4602 17.3903 0
    endloop
  endfacet
  facet normal -0 0 -1
    outer loop
      vertex 17.5098 19.0936 0
      vertex 0 0 0
      vertex 17.5098 20.9064 0
    endloop
  endfacet
  facet normal -0 0 -1
    outer loop
      vertex 18.675 17.705 0
      vertex 0 0 0
      vertex 17.5098 19.0936 0
    endloop
  endfacet
  facet normal -0 0 -1
    outer loop
      vertex 20.4602 17.3903 0
      vertex 0 0 0
      vertex 18.675 17.705 0
    endloop
  endfacet
  facet normal 0 0 -1
    outer loop
      vertex 97.03 21.7034 0
      vertex 110 40 0
      vertex 97.65 20 0
    endloop
  endfacet
  facet normal 0 0 -1
    outer loop
      vertex 95.4602 22.6097 0
      vertex 110 40 0
      vertex 97.03 21.7034 0
    endloop
  endfacet
  facet normal 0 0 -1
    outer loop
      vertex 93.675 22.295 0
      vertex 110 40 0
      vertex 95.4602 22.6097 0
    endloop
  endfacet
  facet normal 0 0 -1
    outer loop
      vertex 82.03 21.7034 0
      vertex 92.5098 20.9064 0
      vertex 82.65 20 0
    endloop
  endfacet
  facet normal 0 0 -1
    outer loop
      vertex 92.5098 20.9064 0
      vertex 82.03 21.7034 0
      vertex 93.675 22.295 0
    endloop
  endfacet
  facet normal 0 0 -1
    outer loop
      vertex 80.4602 22.6097 0
      vertex 93.675 22.295 0
      vertex 82.03 21.7034 0
    endloop
  endfacet
  facet normal 0 0 -1
    outer loop
      vertex 93.675 22.295 0
      vertex 80.4602 22.6097 0
      vertex 110 40 0
    endloop
  endfacet
  facet normal 0 0 -1
    outer loop
      vertex 65.4602 22.6097 0
      vertex 80.4602 22.6097 0
      vertex 78.675 22.295 0
    endloop
  endfacet
  facet normal 0 0 -1
    outer loop
      vertex 67.03 21.7034 0
      vertex 77.5098 20.9064 0
      vertex 67.65 20 0
    endloop
  endfacet
  facet normal 0 0 -1
    outer loop
      vertex 77.5098 20.9064 0
      vertex 67.03 21.7034 0
      vertex 78.675 22.295 0
    endloop
  endfacet
  facet normal 0 0 -1
    outer loop
      vertex 65.4602 22.6097 0
      vertex 78.675 22.295 0
      vertex 67.03 21.7034 0
    endloop
  endfacet
  facet normal 0 0 -1
    outer loop
      vertex 80.4602 22.6097 0
      vertex 65.4602 22.6097 0
      vertex 110 40 0
    endloop
  endfacet
  facet normal 0 0 -1
    outer loop
      vertex 50.4602 22.6097 0
      vertex 65.4602 22.6097 0
      vertex 63.675 22.295 0
    endloop
  endfacet
  facet normal 0 0 -1
    outer loop
      vertex 52.03 21.7034 0
      vertex 62.5098 20.9064 0
      vertex 52.65 20 0
    endloop
  endfacet
  facet normal 0 0 -1
    outer loop
      vertex 62.5098 20.9064 0
      vertex 52.03 21.7034 0
      vertex 63.675 22.295 0
    endloop
  endfacet
  facet normal 0 0 -1
    outer loop
      vertex 50.4602 22.6097 0
      vertex 63.675 22.295 0
      vertex 52.03 21.7034 0
    endloop
  endfacet
  facet normal 0 0 -1
    outer loop
      vertex 65.4602 22.6097 0
      vertex 50.4602 22.6097 0
      vertex 110 40 0
    endloop
  endfacet
  facet normal 0 0 -1
    outer loop
      vertex 35.4602 22.6097 0
      vertex 50.4602 22.6097 0
      vertex 48.675 22.295 0
    endloop
  endfacet
  facet normal 0 0 -1
    outer loop
      vertex 37.03 21.7034 0
      vertex 47.5098 20.9064 0
      vertex 37.65 20 0
    endloop
  endfacet
  facet normal 0 0 -1
    outer loop
      vertex 47.5098 20.9064 0
      vertex 37.03 21.7034 0
      vertex 48.675 22.295 0
    endloop
  endfacet
  facet normal 0 0 -1
    outer loop
      vertex 35.4602 22.6097 0
      vertex 48.675 22.295 0
      vertex 37.03 21.7034 0
    endloop
  endfacet
  facet normal 0 0 -1
    outer loop
      vertex 50.4602 22.6097 0
      vertex 35.4602 22.6097 0
      vertex 0 40 0
    endloop
  endfacet
  facet normal 0 0 -1
    outer loop
      vertex 0 40 0
      vertex 35.4602 22.6097 0
      vertex 33.675 22.295 0
    endloop
  endfacet
  facet normal 0 0 -1
    outer loop
      vertex 22.03 21.7034 0
      vertex 32.5098 20.9064 0
      vertex 22.65 20 0
    endloop
  endfacet
  facet normal 0 0 -1
    outer loop
      vertex 32.5098 20.9064 0
      vertex 22.03 21.7034 0
      vertex 33.675 22.295 0
    endloop
  endfacet
  facet normal 0 0 -1
    outer loop
      vertex 20.4602 22.6097 0
      vertex 33.675 22.295 0
      vertex 22.03 21.7034 0
    endloop
  endfacet
  facet normal 0 0 -1
    outer loop
      vertex 0 40 0
      vertex 33.675 22.295 0
      vertex 20.4602 22.6097 0
    endloop
  endfacet
  facet normal 0 0 -1
    outer loop
      vertex 0 40 0
      vertex 20.4602 22.6097 0
      vertex 18.675 22.295 0
    endloop
  endfacet
  facet normal 0 0 -1
    outer loop
      vertex 50.4602 22.6097 0
      vertex 0 40 0
      vertex 110 40 0
    endloop
  endfacet
  facet normal 0 0 -1
    outer loop
      vertex 17.5098 20.9064 0
      vertex 0 40 0
      vertex 18.675 22.295 0
    endloop
  endfacet
  facet normal 0 0 -1
    outer loop
      vertex 0 40 0
      vertex 17.5098 20.9064 0
      vertex 0 0 0
    endloop
  endfacet
  facet normal 0.173648 -0.984808 0
    outer loop
      vertex 18.675 22.295 0
      vertex 20.4602 22.6097 13
      vertex 18.675 22.295 13
    endloop
  endfacet
  facet normal 0.173648 -0.984808 0
    outer loop
      vertex 20.4602 22.6097 13
      vertex 18.675 22.295 0
      vertex 20.4602 22.6097 0
    endloop
  endfacet
  facet normal -0.5 -0.866025 0
    outer loop
      vertex 20.4602 22.6097 0
      vertex 22.03 21.7034 13
      vertex 20.4602 22.6097 13
    endloop
  endfacet
  facet normal -0.5 -0.866025 -0
    outer loop
      vertex 22.03 21.7034 13
      vertex 20.4602 22.6097 0
      vertex 22.03 21.7034 0
    endloop
  endfacet
  facet normal 0.766045 -0.642787 0
    outer loop
      vertex 17.5098 20.9064 13
      vertex 18.675 22.295 0
      vertex 18.675 22.295 13
    endloop
  endfacet
  facet normal 0.766045 -0.642787 0
    outer loop
      vertex 18.675 22.295 0
      vertex 17.5098 20.9064 13
      vertex 17.5098 20.9064 0
    endloop
  endfacet
  facet normal -0.5 0.866026 0
    outer loop
      vertex 22.03 18.2966 0
      vertex 20.4602 17.3903 13
      vertex 22.03 18.2966 13
    endloop
  endfacet
  facet normal -0.5 0.866026 0
    outer loop
      vertex 20.4602 17.3903 13
      vertex 22.03 18.2966 0
      vertex 20.4602 17.3903 0
    endloop
  endfacet
  facet normal 0.766045 0.642787 0
    outer loop
      vertex 18.675 17.705 13
      vertex 17.5098 19.0936 0
      vertex 17.5098 19.0936 13
    endloop
  endfacet
  facet normal 0.766045 0.642787 0
    outer loop
      vertex 17.5098 19.0936 0
      vertex 18.675 17.705 13
      vertex 18.675 17.705 0
    endloop
  endfacet
  facet normal -0.939693 0.34202 0
    outer loop
      vertex 22.03 18.2966 0
      vertex 22.65 20 13
      vertex 22.65 20 0
    endloop
  endfacet
  facet normal -0.939693 0.34202 0
    outer loop
      vertex 22.65 20 13
      vertex 22.03 18.2966 0
      vertex 22.03 18.2966 13
    endloop
  endfacet
  facet normal 0.173648 0.984808 -0
    outer loop
      vertex 20.4602 17.3903 0
      vertex 18.675 17.705 13
      vertex 20.4602 17.3903 13
    endloop
  endfacet
  facet normal 0.173648 0.984808 0
    outer loop
      vertex 18.675 17.705 13
      vertex 20.4602 17.3903 0
      vertex 18.675 17.705 0
    endloop
  endfacet
  facet normal -0.939692 -0.342021 0
    outer loop
      vertex 37.65 20 0
      vertex 37.03 21.7034 13
      vertex 37.03 21.7034 0
    endloop
  endfacet
  facet normal -0.939692 -0.342021 0
    outer loop
      vertex 37.03 21.7034 13
      vertex 37.65 20 0
      vertex 37.65 20 13
    endloop
  endfacet
  facet normal 1 -0 0
    outer loop
      vertex 32.5098 19.0936 13
      vertex 32.5098 20.9064 0
      vertex 32.5098 20.9064 13
    endloop
  endfacet
  facet normal 1 0 0
    outer loop
      vertex 32.5098 20.9064 0
      vertex 32.5098 19.0936 13
      vertex 32.5098 19.0936 0
    endloop
  endfacet
  facet normal 0.173648 -0.984808 0
    outer loop
      vertex 33.675 22.295 0
      vertex 35.4602 22.6097 13
      vertex 33.675 22.295 13
    endloop
  endfacet
  facet normal 0.173648 -0.984808 0
    outer loop
      vertex 35.4602 22.6097 13
      vertex 33.675 22.295 0
      vertex 35.4602 22.6097 0
    endloop
  endfacet
  facet normal -0.5 -0.866025 0
    outer loop
      vertex 35.4602 22.6097 0
      vertex 37.03 21.7034 13
      vertex 35.4602 22.6097 13
    endloop
  endfacet
  facet normal -0.5 -0.866025 -0
    outer loop
      vertex 37.03 21.7034 13
      vertex 35.4602 22.6097 0
      vertex 37.03 21.7034 0
    endloop
  endfacet
  facet normal 0.766045 -0.642787 0
    outer loop
      vertex 32.5098 20.9064 13
      vertex 33.675 22.295 0
      vertex 33.675 22.295 13
    endloop
  endfacet
  facet normal 0.766045 -0.642787 0
    outer loop
      vertex 33.675 22.295 0
      vertex 32.5098 20.9064 13
      vertex 32.5098 20.9064 0
    endloop
  endfacet
  facet normal -0.5 0.866026 0
    outer loop
      vertex 37.03 18.2966 0
      vertex 35.4602 17.3903 13
      vertex 37.03 18.2966 13
    endloop
  endfacet
  facet normal -0.5 0.866026 0
    outer loop
      vertex 35.4602 17.3903 13
      vertex 37.03 18.2966 0
      vertex 35.4602 17.3903 0
    endloop
  endfacet
  facet normal 0.766045 0.642787 0
    outer loop
      vertex 33.675 17.705 13
      vertex 32.5098 19.0936 0
      vertex 32.5098 19.0936 13
    endloop
  endfacet
  facet normal 0.766045 0.642787 0
    outer loop
      vertex 32.5098 19.0936 0
      vertex 33.675 17.705 13
      vertex 33.675 17.705 0
    endloop
  endfacet
  facet normal 0.173648 0.984808 -0
    outer loop
      vertex 35.4602 17.3903 0
      vertex 33.675 17.705 13
      vertex 35.4602 17.3903 13
    endloop
  endfacet
  facet normal 0.173648 0.984808 0
    outer loop
      vertex 33.675 17.705 13
      vertex 35.4602 17.3903 0
      vertex 33.675 17.705 0
    endloop
  endfacet
  facet normal -0.939692 0.342021 0
    outer loop
      vertex 37.03 18.2966 0
      vertex 37.65 20 13
      vertex 37.65 20 0
    endloop
  endfacet
  facet normal -0.939692 0.342021 0
    outer loop
      vertex 37.65 20 13
      vertex 37.03 18.2966 0
      vertex 37.03 18.2966 13
    endloop
  endfacet
  facet normal -0.939692 -0.342021 0
    outer loop
      vertex 52.65 20 0
      vertex 52.03 21.7034 13
      vertex 52.03 21.7034 0
    endloop
  endfacet
  facet normal -0.939692 -0.342021 0
    outer loop
      vertex 52.03 21.7034 13
      vertex 52.65 20 0
      vertex 52.65 20 13
    endloop
  endfacet
  facet normal 1 -0 0
    outer loop
      vertex 47.5098 19.0936 13
      vertex 47.5098 20.9064 0
      vertex 47.5098 20.9064 13
    endloop
  endfacet
  facet normal 1 0 0
    outer loop
      vertex 47.5098 20.9064 0
      vertex 47.5098 19.0936 13
      vertex 47.5098 19.0936 0
    endloop
  endfacet
  facet normal 0.173648 -0.984808 0
    outer loop
      vertex 48.675 22.295 0
      vertex 50.4602 22.6097 13
      vertex 48.675 22.295 13
    endloop
  endfacet
  facet normal 0.173648 -0.984808 0
    outer loop
      vertex 50.4602 22.6097 13
      vertex 48.675 22.295 0
      vertex 50.4602 22.6097 0
    endloop
  endfacet
  facet normal -0.5 -0.866025 0
    outer loop
      vertex 50.4602 22.6097 0
      vertex 52.03 21.7034 13
      vertex 50.4602 22.6097 13
    endloop
  endfacet
  facet normal -0.5 -0.866025 -0
    outer loop
      vertex 52.03 21.7034 13
      vertex 50.4602 22.6097 0
      vertex 52.03 21.7034 0
    endloop
  endfacet
  facet normal 0.766045 -0.642787 0
    outer loop
      vertex 47.5098 20.9064 13
      vertex 48.675 22.295 0
      vertex 48.675 22.295 13
    endloop
  endfacet
  facet normal 0.766045 -0.642787 0
    outer loop
      vertex 48.675 22.295 0
      vertex 47.5098 20.9064 13
      vertex 47.5098 20.9064 0
    endloop
  endfacet
  facet normal -0.5 0.866026 0
    outer loop
      vertex 52.03 18.2966 0
      vertex 50.4602 17.3903 13
      vertex 52.03 18.2966 13
    endloop
  endfacet
  facet normal -0.5 0.866026 0
    outer loop
      vertex 50.4602 17.3903 13
      vertex 52.03 18.2966 0
      vertex 50.4602 17.3903 0
    endloop
  endfacet
  facet normal 0.766045 0.642787 0
    outer loop
      vertex 48.675 17.705 13
      vertex 47.5098 19.0936 0
      vertex 47.5098 19.0936 13
    endloop
  endfacet
  facet normal 0.766045 0.642787 0
    outer loop
      vertex 47.5098 19.0936 0
      vertex 48.675 17.705 13
      vertex 48.675 17.705 0
    endloop
  endfacet
  facet normal 0.173648 0.984808 -0
    outer loop
      vertex 50.4602 17.3903 0
      vertex 48.675 17.705 13
      vertex 50.4602 17.3903 13
    endloop
  endfacet
  facet normal 0.173648 0.984808 0
    outer loop
      vertex 48.675 17.705 13
      vertex 50.4602 17.3903 0
      vertex 48.675 17.705 0
    endloop
  endfacet
  facet normal -0.939692 0.342021 0
    outer loop
      vertex 52.03 18.2966 0
      vertex 52.65 20 13
      vertex 52.65 20 0
    endloop
  endfacet
  facet normal -0.939692 0.342021 0
    outer loop
      vertex 52.65 20 13
      vertex 52.03 18.2966 0
      vertex 52.03 18.2966 13
    endloop
  endfacet
  facet normal -0.939692 -0.342023 0
    outer loop
      vertex 67.65 20 0
      vertex 67.03 21.7034 13
      vertex 67.03 21.7034 0
    endloop
  endfacet
  facet normal -0.939692 -0.342023 0
    outer loop
      vertex 67.03 21.7034 13
      vertex 67.65 20 0
      vertex 67.65 20 13
    endloop
  endfacet
  facet normal 1 -0 0
    outer loop
      vertex 62.5098 19.0936 13
      vertex 62.5098 20.9064 0
      vertex 62.5098 20.9064 13
    endloop
  endfacet
  facet normal 1 0 0
    outer loop
      vertex 62.5098 20.9064 0
      vertex 62.5098 19.0936 13
      vertex 62.5098 19.0936 0
    endloop
  endfacet
  facet normal 0.173648 -0.984808 0
    outer loop
      vertex 63.675 22.295 0
      vertex 65.4602 22.6097 13
      vertex 63.675 22.295 13
    endloop
  endfacet
  facet normal 0.173648 -0.984808 0
    outer loop
      vertex 65.4602 22.6097 13
      vertex 63.675 22.295 0
      vertex 65.4602 22.6097 0
    endloop
  endfacet
  facet normal -0.500001 -0.866025 0
    outer loop
      vertex 65.4602 22.6097 0
      vertex 67.03 21.7034 13
      vertex 65.4602 22.6097 13
    endloop
  endfacet
  facet normal -0.500001 -0.866025 -0
    outer loop
      vertex 67.03 21.7034 13
      vertex 65.4602 22.6097 0
      vertex 67.03 21.7034 0
    endloop
  endfacet
  facet normal 0.766045 -0.642787 0
    outer loop
      vertex 62.5098 20.9064 13
      vertex 63.675 22.295 0
      vertex 63.675 22.295 13
    endloop
  endfacet
  facet normal 0.766045 -0.642787 0
    outer loop
      vertex 63.675 22.295 0
      vertex 62.5098 20.9064 13
      vertex 62.5098 20.9064 0
    endloop
  endfacet
  facet normal -0.500001 0.866025 0
    outer loop
      vertex 67.03 18.2966 0
      vertex 65.4602 17.3903 13
      vertex 67.03 18.2966 13
    endloop
  endfacet
  facet normal -0.500001 0.866025 0
    outer loop
      vertex 65.4602 17.3903 13
      vertex 67.03 18.2966 0
      vertex 65.4602 17.3903 0
    endloop
  endfacet
  facet normal 0.766045 0.642787 0
    outer loop
      vertex 63.675 17.705 13
      vertex 62.5098 19.0936 0
      vertex 62.5098 19.0936 13
    endloop
  endfacet
  facet normal 0.766045 0.642787 0
    outer loop
      vertex 62.5098 19.0936 0
      vertex 63.675 17.705 13
      vertex 63.675 17.705 0
    endloop
  endfacet
  facet normal 0.173648 0.984808 -0
    outer loop
      vertex 65.4602 17.3903 0
      vertex 63.675 17.705 13
      vertex 65.4602 17.3903 13
    endloop
  endfacet
  facet normal 0.173648 0.984808 0
    outer loop
      vertex 63.675 17.705 13
      vertex 65.4602 17.3903 0
      vertex 63.675 17.705 0
    endloop
  endfacet
  facet normal -0.939692 0.342023 0
    outer loop
      vertex 67.03 18.2966 0
      vertex 67.65 20 13
      vertex 67.65 20 0
    endloop
  endfacet
  facet normal -0.939692 0.342023 0
    outer loop
      vertex 67.65 20 13
      vertex 67.03 18.2966 0
      vertex 67.03 18.2966 13
    endloop
  endfacet
  facet normal -0.939692 -0.342023 0
    outer loop
      vertex 82.65 20 0
      vertex 82.03 21.7034 13
      vertex 82.03 21.7034 0
    endloop
  endfacet
  facet normal -0.939692 -0.342023 0
    outer loop
      vertex 82.03 21.7034 13
      vertex 82.65 20 0
      vertex 82.65 20 13
    endloop
  endfacet
  facet normal 1 -0 0
    outer loop
      vertex 77.5098 19.0936 13
      vertex 77.5098 20.9064 0
      vertex 77.5098 20.9064 13
    endloop
  endfacet
  facet normal 1 0 0
    outer loop
      vertex 77.5098 20.9064 0
      vertex 77.5098 19.0936 13
      vertex 77.5098 19.0936 0
    endloop
  endfacet
  facet normal 0.173649 -0.984808 0
    outer loop
      vertex 78.675 22.295 0
      vertex 80.4602 22.6097 13
      vertex 78.675 22.295 13
    endloop
  endfacet
  facet normal 0.173649 -0.984808 0
    outer loop
      vertex 80.4602 22.6097 13
      vertex 78.675 22.295 0
      vertex 80.4602 22.6097 0
    endloop
  endfacet
  facet normal -0.500001 -0.866025 0
    outer loop
      vertex 80.4602 22.6097 0
      vertex 82.03 21.7034 13
      vertex 80.4602 22.6097 13
    endloop
  endfacet
  facet normal -0.500001 -0.866025 -0
    outer loop
      vertex 82.03 21.7034 13
      vertex 80.4602 22.6097 0
      vertex 82.03 21.7034 0
    endloop
  endfacet
  facet normal 0.766043 -0.642789 0
    outer loop
      vertex 77.5098 20.9064 13
      vertex 78.675 22.295 0
      vertex 78.675 22.295 13
    endloop
  endfacet
  facet normal 0.766043 -0.642789 0
    outer loop
      vertex 78.675 22.295 0
      vertex 77.5098 20.9064 13
      vertex 77.5098 20.9064 0
    endloop
  endfacet
  facet normal -0.500001 0.866025 0
    outer loop
      vertex 82.03 18.2966 0
      vertex 80.4602 17.3903 13
      vertex 82.03 18.2966 13
    endloop
  endfacet
  facet normal -0.500001 0.866025 0
    outer loop
      vertex 80.4602 17.3903 13
      vertex 82.03 18.2966 0
      vertex 80.4602 17.3903 0
    endloop
  endfacet
  facet normal 0.766043 0.642789 0
    outer loop
      vertex 78.675 17.705 13
      vertex 77.5098 19.0936 0
      vertex 77.5098 19.0936 13
    endloop
  endfacet
  facet normal 0.766043 0.642789 0
    outer loop
      vertex 77.5098 19.0936 0
      vertex 78.675 17.705 13
      vertex 78.675 17.705 0
    endloop
  endfacet
  facet normal -0.939692 0.342023 0
    outer loop
      vertex 82.03 18.2966 0
      vertex 82.65 20 13
      vertex 82.65 20 0
    endloop
  endfacet
  facet normal -0.939692 0.342023 0
    outer loop
      vertex 82.65 20 13
      vertex 82.03 18.2966 0
      vertex 82.03 18.2966 13
    endloop
  endfacet
  facet normal 0.173649 0.984808 -0
    outer loop
      vertex 80.4602 17.3903 0
      vertex 78.675 17.705 13
      vertex 80.4602 17.3903 13
    endloop
  endfacet
  facet normal 0.173649 0.984808 0
    outer loop
      vertex 78.675 17.705 13
      vertex 80.4602 17.3903 0
      vertex 78.675 17.705 0
    endloop
  endfacet
  facet normal -0.939692 -0.342023 0
    outer loop
      vertex 97.65 20 0
      vertex 97.03 21.7034 13
      vertex 97.03 21.7034 0
    endloop
  endfacet
  facet normal -0.939692 -0.342023 0
    outer loop
      vertex 97.03 21.7034 13
      vertex 97.65 20 0
      vertex 97.65 20 13
    endloop
  endfacet
  facet normal 1 -0 0
    outer loop
      vertex 92.5098 19.0936 13
      vertex 92.5098 20.9064 0
      vertex 92.5098 20.9064 13
    endloop
  endfacet
  facet normal 1 0 0
    outer loop
      vertex 92.5098 20.9064 0
      vertex 92.5098 19.0936 13
      vertex 92.5098 19.0936 0
    endloop
  endfacet
  facet normal 0.173649 -0.984808 0
    outer loop
      vertex 93.675 22.295 0
      vertex 95.4602 22.6097 13
      vertex 93.675 22.295 13
    endloop
  endfacet
  facet normal 0.173649 -0.984808 0
    outer loop
      vertex 95.4602 22.6097 13
      vertex 93.675 22.295 0
      vertex 95.4602 22.6097 0
    endloop
  endfacet
  facet normal -0.500001 -0.866025 0
    outer loop
      vertex 95.4602 22.6097 0
      vertex 97.03 21.7034 13
      vertex 95.4602 22.6097 13
    endloop
  endfacet
  facet normal -0.500001 -0.866025 -0
    outer loop
      vertex 97.03 21.7034 13
      vertex 95.4602 22.6097 0
      vertex 97.03 21.7034 0
    endloop
  endfacet
  facet normal 0.766043 -0.642789 0
    outer loop
      vertex 92.5098 20.9064 13
      vertex 93.675 22.295 0
      vertex 93.675 22.295 13
    endloop
  endfacet
  facet normal 0.766043 -0.642789 0
    outer loop
      vertex 93.675 22.295 0
      vertex 92.5098 20.9064 13
      vertex 92.5098 20.9064 0
    endloop
  endfacet
  facet normal -0.500001 0.866025 0
    outer loop
      vertex 97.03 18.2966 0
      vertex 95.4602 17.3903 13
      vertex 97.03 18.2966 13
    endloop
  endfacet
  facet normal -0.500001 0.866025 0
    outer loop
      vertex 95.4602 17.3903 13
      vertex 97.03 18.2966 0
      vertex 95.4602 17.3903 0
    endloop
  endfacet
  facet normal 0.766043 0.642789 0
    outer loop
      vertex 93.675 17.705 13
      vertex 92.5098 19.0936 0
      vertex 92.5098 19.0936 13
    endloop
  endfacet
  facet normal 0.766043 0.642789 0
    outer loop
      vertex 92.5098 19.0936 0
      vertex 93.675 17.705 13
      vertex 93.675 17.705 0
    endloop
  endfacet
  facet normal -0.939692 0.342023 0
    outer loop
      vertex 97.03 18.2966 0
      vertex 97.65 20 13
      vertex 97.65 20 0
    endloop
  endfacet
  facet normal -0.939692 0.342023 0
    outer loop
      vertex 97.65 20 13
      vertex 97.03 18.2966 0
      vertex 97.03 18.2966 13
    endloop
  endfacet
  facet normal 0.173649 0.984808 -0
    outer loop
      vertex 95.4602 17.3903 0
      vertex 93.675 17.705 13
      vertex 95.4602 17.3903 13
    endloop
  endfacet
  facet normal 0.173649 0.984808 0
    outer loop
      vertex 93.675 17.705 13
      vertex 95.4602 17.3903 0
      vertex 93.675 17.705 0
    endloop
  endfacet
  facet normal -1 0 0
    outer loop
      vertex 0 0 0
      vertex 0 40 13
      vertex 0 40 0
    endloop
  endfacet
  facet normal -1 -0 0
    outer loop
      vertex 0 40 13
      vertex 0 0 0
      vertex 0 0 13
    endloop
  endfacet
  facet normal 0 0 1
    outer loop
      vertex 110 40 13
      vertex 97.65 20 13
      vertex 110 0 13
    endloop
  endfacet
  facet normal 0 0 1
    outer loop
      vertex 110 40 13
      vertex 97.03 21.7034 13
      vertex 97.65 20 13
    endloop
  endfacet
  facet normal 0 0 1
    outer loop
      vertex 110 40 13
      vertex 95.4602 22.6097 13
      vertex 97.03 21.7034 13
    endloop
  endfacet
  facet normal 0 0 1
    outer loop
      vertex 110 40 13
      vertex 93.675 22.295 13
      vertex 95.4602 22.6097 13
    endloop
  endfacet
  facet normal 0 0 1
    outer loop
      vertex 92.5098 20.9064 13
      vertex 82.65 20 13
      vertex 92.5098 19.0936 13
    endloop
  endfacet
  facet normal -0 0 1
    outer loop
      vertex 82.03 21.7034 13
      vertex 92.5098 20.9064 13
      vertex 93.675 22.295 13
    endloop
  endfacet
  facet normal -0 0 1
    outer loop
      vertex 80.4602 22.6097 13
      vertex 93.675 22.295 13
      vertex 110 40 13
    endloop
  endfacet
  facet normal 0 0 1
    outer loop
      vertex 92.5098 20.9064 13
      vertex 82.03 21.7034 13
      vertex 82.65 20 13
    endloop
  endfacet
  facet normal 0 0 1
    outer loop
      vertex 93.675 22.295 13
      vertex 80.4602 22.6097 13
      vertex 82.03 21.7034 13
    endloop
  endfacet
  facet normal 0 0 1
    outer loop
      vertex 65.4602 22.6097 13
      vertex 80.4602 22.6097 13
      vertex 110 40 13
    endloop
  endfacet
  facet normal 0 0 1
    outer loop
      vertex 77.5098 20.9064 13
      vertex 67.65 20 13
      vertex 77.5098 19.0936 13
    endloop
  endfacet
  facet normal -0 0 1
    outer loop
      vertex 67.03 21.7034 13
      vertex 77.5098 20.9064 13
      vertex 78.675 22.295 13
    endloop
  endfacet
  facet normal 0 0 1
    outer loop
      vertex 80.4602 22.6097 13
      vertex 65.4602 22.6097 13
      vertex 78.675 22.295 13
    endloop
  endfacet
  facet normal 0 0 1
    outer loop
      vertex 77.5098 20.9064 13
      vertex 67.03 21.7034 13
      vertex 67.65 20 13
    endloop
  endfacet
  facet normal 0 0 1
    outer loop
      vertex 78.675 22.295 13
      vertex 65.4602 22.6097 13
      vertex 67.03 21.7034 13
    endloop
  endfacet
  facet normal 0 0 1
    outer loop
      vertex 50.4602 22.6097 13
      vertex 65.4602 22.6097 13
      vertex 110 40 13
    endloop
  endfacet
  facet normal 0 0 1
    outer loop
      vertex 62.5098 20.9064 13
      vertex 52.65 20 13
      vertex 62.5098 19.0936 13
    endloop
  endfacet
  facet normal -0 0 1
    outer loop
      vertex 52.03 21.7034 13
      vertex 62.5098 20.9064 13
      vertex 63.675 22.295 13
    endloop
  endfacet
  facet normal 0 0 1
    outer loop
      vertex 65.4602 22.6097 13
      vertex 50.4602 22.6097 13
      vertex 63.675 22.295 13
    endloop
  endfacet
  facet normal 0 0 1
    outer loop
      vertex 62.5098 20.9064 13
      vertex 52.03 21.7034 13
      vertex 52.65 20 13
    endloop
  endfacet
  facet normal 0 0 1
    outer loop
      vertex 63.675 22.295 13
      vertex 50.4602 22.6097 13
      vertex 52.03 21.7034 13
    endloop
  endfacet
  facet normal -0 0 1
    outer loop
      vertex 0 40 13
      vertex 50.4602 22.6097 13
      vertex 110 40 13
    endloop
  endfacet
  facet normal 0 0 1
    outer loop
      vertex 47.5098 20.9064 13
      vertex 37.65 20 13
      vertex 47.5098 19.0936 13
    endloop
  endfacet
  facet normal -0 0 1
    outer loop
      vertex 37.03 21.7034 13
      vertex 47.5098 20.9064 13
      vertex 48.675 22.295 13
    endloop
  endfacet
  facet normal 0 -0 1
    outer loop
      vertex 35.4602 22.6097 13
      vertex 50.4602 22.6097 13
      vertex 0 40 13
    endloop
  endfacet
  facet normal 0 0 1
    outer loop
      vertex 47.5098 20.9064 13
      vertex 37.03 21.7034 13
      vertex 37.65 20 13
    endloop
  endfacet
  facet normal 0 0 1
    outer loop
      vertex 48.675 22.295 13
      vertex 35.4602 22.6097 13
      vertex 37.03 21.7034 13
    endloop
  endfacet
  facet normal 0 0 1
    outer loop
      vertex 50.4602 22.6097 13
      vertex 35.4602 22.6097 13
      vertex 48.675 22.295 13
    endloop
  endfacet
  facet normal 0 0 1
    outer loop
      vertex 32.5098 20.9064 13
      vertex 22.65 20 13
      vertex 32.5098 19.0936 13
    endloop
  endfacet
  facet normal -0 0 1
    outer loop
      vertex 22.03 21.7034 13
      vertex 32.5098 20.9064 13
      vertex 33.675 22.295 13
    endloop
  endfacet
  facet normal 0 0 1
    outer loop
      vertex 35.4602 22.6097 13
      vertex 0 40 13
      vertex 33.675 22.295 13
    endloop
  endfacet
  facet normal 0 0 1
    outer loop
      vertex 32.5098 20.9064 13
      vertex 22.03 21.7034 13
      vertex 22.65 20 13
    endloop
  endfacet
  facet normal 0 0 1
    outer loop
      vertex 33.675 22.295 13
      vertex 20.4602 22.6097 13
      vertex 22.03 21.7034 13
    endloop
  endfacet
  facet normal 0 0 1
    outer loop
      vertex 33.675 22.295 13
      vertex 0 40 13
      vertex 20.4602 22.6097 13
    endloop
  endfacet
  facet normal 0 0 1
    outer loop
      vertex 17.5098 20.9064 13
      vertex 0 40 13
      vertex 17.5098 19.0936 13
    endloop
  endfacet
  facet normal 0 0 1
    outer loop
      vertex 18.675 22.295 13
      vertex 0 40 13
      vertex 17.5098 20.9064 13
    endloop
  endfacet
  facet normal 0 0 1
    outer loop
      vertex 20.4602 22.6097 13
      vertex 0 40 13
      vertex 18.675 22.295 13
    endloop
  endfacet
  facet normal -0 0 1
    outer loop
      vertex 97.03 18.2966 13
      vertex 110 0 13
      vertex 97.65 20 13
    endloop
  endfacet
  facet normal -0 0 1
    outer loop
      vertex 95.4602 17.3903 13
      vertex 110 0 13
      vertex 97.03 18.2966 13
    endloop
  endfacet
  facet normal 0 0 1
    outer loop
      vertex 93.675 17.705 13
      vertex 110 0 13
      vertex 95.4602 17.3903 13
    endloop
  endfacet
  facet normal 0 0 1
    outer loop
      vertex 82.03 18.2966 13
      vertex 92.5098 19.0936 13
      vertex 82.65 20 13
    endloop
  endfacet
  facet normal 0 0 1
    outer loop
      vertex 92.5098 19.0936 13
      vertex 82.03 18.2966 13
      vertex 93.675 17.705 13
    endloop
  endfacet
  facet normal 0 0 1
    outer loop
      vertex 80.4602 17.3903 13
      vertex 93.675 17.705 13
      vertex 82.03 18.2966 13
    endloop
  endfacet
  facet normal 0 0 1
    outer loop
      vertex 93.675 17.705 13
      vertex 80.4602 17.3903 13
      vertex 110 0 13
    endloop
  endfacet
  facet normal 0 0 1
    outer loop
      vertex 65.4602 17.3903 13
      vertex 80.4602 17.3903 13
      vertex 78.675 17.705 13
    endloop
  endfacet
  facet normal 0 0 1
    outer loop
      vertex 67.03 18.2966 13
      vertex 77.5098 19.0936 13
      vertex 67.65 20 13
    endloop
  endfacet
  facet normal 0 0 1
    outer loop
      vertex 77.5098 19.0936 13
      vertex 67.03 18.2966 13
      vertex 78.675 17.705 13
    endloop
  endfacet
  facet normal 0 0 1
    outer loop
      vertex 65.4602 17.3903 13
      vertex 78.675 17.705 13
      vertex 67.03 18.2966 13
    endloop
  endfacet
  facet normal 0 0 1
    outer loop
      vertex 80.4602 17.3903 13
      vertex 65.4602 17.3903 13
      vertex 110 0 13
    endloop
  endfacet
  facet normal 0 0 1
    outer loop
      vertex 50.4602 17.3903 13
      vertex 65.4602 17.3903 13
      vertex 63.675 17.705 13
    endloop
  endfacet
  facet normal 0 0 1
    outer loop
      vertex 52.03 18.2966 13
      vertex 62.5098 19.0936 13
      vertex 52.65 20 13
    endloop
  endfacet
  facet normal 0 0 1
    outer loop
      vertex 62.5098 19.0936 13
      vertex 52.03 18.2966 13
      vertex 63.675 17.705 13
    endloop
  endfacet
  facet normal 0 0 1
    outer loop
      vertex 50.4602 17.3903 13
      vertex 63.675 17.705 13
      vertex 52.03 18.2966 13
    endloop
  endfacet
  facet normal 0 0 1
    outer loop
      vertex 65.4602 17.3903 13
      vertex 50.4602 17.3903 13
      vertex 110 0 13
    endloop
  endfacet
  facet normal 0 0 1
    outer loop
      vertex 35.4602 17.3903 13
      vertex 50.4602 17.3903 13
      vertex 48.675 17.705 13
    endloop
  endfacet
  facet normal 0 0 1
    outer loop
      vertex 37.03 18.2966 13
      vertex 47.5098 19.0936 13
      vertex 37.65 20 13
    endloop
  endfacet
  facet normal 0 0 1
    outer loop
      vertex 47.5098 19.0936 13
      vertex 37.03 18.2966 13
      vertex 48.675 17.705 13
    endloop
  endfacet
  facet normal 0 0 1
    outer loop
      vertex 35.4602 17.3903 13
      vertex 48.675 17.705 13
      vertex 37.03 18.2966 13
    endloop
  endfacet
  facet normal 0 0 1
    outer loop
      vertex 50.4602 17.3903 13
      vertex 35.4602 17.3903 13
      vertex 0 0 13
    endloop
  endfacet
  facet normal 0 0 1
    outer loop
      vertex 0 0 13
      vertex 35.4602 17.3903 13
      vertex 33.675 17.705 13
    endloop
  endfacet
  facet normal 0 0 1
    outer loop
      vertex 22.03 18.2966 13
      vertex 32.5098 19.0936 13
      vertex 22.65 20 13
    endloop
  endfacet
  facet normal 0 0 1
    outer loop
      vertex 32.5098 19.0936 13
      vertex 22.03 18.2966 13
      vertex 33.675 17.705 13
    endloop
  endfacet
  facet normal 0 0 1
    outer loop
      vertex 20.4602 17.3903 13
      vertex 33.675 17.705 13
      vertex 22.03 18.2966 13
    endloop
  endfacet
  facet normal 0 0 1
    outer loop
      vertex 0 0 13
      vertex 33.675 17.705 13
      vertex 20.4602 17.3903 13
    endloop
  endfacet
  facet normal 0 0 1
    outer loop
      vertex 0 0 13
      vertex 20.4602 17.3903 13
      vertex 18.675 17.705 13
    endloop
  endfacet
  facet normal 0 0 1
    outer loop
      vertex 50.4602 17.3903 13
      vertex 0 0 13
      vertex 110 0 13
    endloop
  endfacet
  facet normal 0 0 1
    outer loop
      vertex 17.5098 19.0936 13
      vertex 0 0 13
      vertex 18.675 17.705 13
    endloop
  endfacet
  facet normal 0 0 1
    outer loop
      vertex 0 0 13
      vertex 17.5098 19.0936 13
      vertex 0 40 13
    endloop
  endfacet
  facet normal 1 -0 0
    outer loop
      vertex 110 0 13
      vertex 110 40 0
      vertex 110 40 13
    endloop
  endfacet
  facet normal 1 0 0
    outer loop
      vertex 110 40 0
      vertex 110 0 13
      vertex 110 0 0
    endloop
  endfacet
  facet normal 0 1 -0
    outer loop
      vertex 110 40 0
      vertex 0 40 13
      vertex 110 40 13
    endloop
  endfacet
  facet normal 0 1 0
    outer loop
      vertex 0 40 13
      vertex 110 40 0
      vertex 0 40 0
    endloop
  endfacet
  facet normal 0 -1 0
    outer loop
      vertex 0 0 0
      vertex 110 0 13
      vertex 0 0 13
    endloop
  endfacet
  facet normal 0 -1 -0
    outer loop
      vertex 110 0 13
      vertex 0 0 0
      vertex 110 0 0
    endloop
  endfacet
endsolid OpenSCAD_Model
