solid OpenSCAD_Model
  facet normal -0.866026 -0.5 0
    outer loop
      vertex 12.7896 5.69431 0
      vertex 11.3262 8.22899 25
      vertex 11.3262 8.22899 0
    endloop
  endfacet
  facet normal -0.866026 -0.5 0
    outer loop
      vertex 11.3262 8.22899 25
      vertex 12.7896 5.69431 0
      vertex 12.7896 5.69431 25
    endloop
  endfacet
  facet normal 0.994522 -0.104529 0
    outer loop
      vertex -14 0 25
      vertex -13.6941 2.91076 0
      vertex -13.6941 2.91076 25
    endloop
  endfacet
  facet normal 0.994522 -0.104529 0
    outer loop
      vertex -13.6941 2.91076 0
      vertex -14 0 25
      vertex -14 0 0
    endloop
  endfacet
  facet normal 0 -1 0
    outer loop
      vertex -1.4634 13.9233 0
      vertex 1.4634 13.9233 25
      vertex -1.4634 13.9233 25
    endloop
  endfacet
  facet normal 0 -1 -0
    outer loop
      vertex 1.4634 13.9233 25
      vertex -1.4634 13.9233 0
      vertex 1.4634 13.9233 0
    endloop
  endfacet
  facet normal -0.743145 -0.669131 0
    outer loop
      vertex 11.3262 8.22899 0
      vertex 9.36783 10.404 25
      vertex 9.36783 10.404 0
    endloop
  endfacet
  facet normal -0.743145 -0.669131 0
    outer loop
      vertex 9.36783 10.404 25
      vertex 11.3262 8.22899 0
      vertex 11.3262 8.22899 25
    endloop
  endfacet
  facet normal -0.207912 -0.978148 0
    outer loop
      vertex 1.4634 13.9233 0
      vertex 4.32624 13.3148 25
      vertex 1.4634 13.9233 25
    endloop
  endfacet
  facet normal -0.207912 -0.978148 -0
    outer loop
      vertex 4.32624 13.3148 25
      vertex 1.4634 13.9233 0
      vertex 4.32624 13.3148 0
    endloop
  endfacet
  facet normal 0.406737 -0.913545 0
    outer loop
      vertex -7 12.1244 0
      vertex -4.32624 13.3148 25
      vertex -7 12.1244 25
    endloop
  endfacet
  facet normal 0.406737 -0.913545 0
    outer loop
      vertex -4.32624 13.3148 25
      vertex -7 12.1244 0
      vertex -4.32624 13.3148 0
    endloop
  endfacet
  facet normal 0.951056 -0.309017 0
    outer loop
      vertex -13.6941 2.91076 25
      vertex -12.7896 5.69431 0
      vertex -12.7896 5.69431 25
    endloop
  endfacet
  facet normal 0.951056 -0.309017 0
    outer loop
      vertex -12.7896 5.69431 0
      vertex -13.6941 2.91076 25
      vertex -13.6941 2.91076 0
    endloop
  endfacet
  facet normal -0.994522 0.104529 0
    outer loop
      vertex 13.6941 -2.91076 0
      vertex 14 0 25
      vertex 14 0 0
    endloop
  endfacet
  facet normal -0.994522 0.104529 0
    outer loop
      vertex 14 0 25
      vertex 13.6941 -2.91076 0
      vertex 13.6941 -2.91076 25
    endloop
  endfacet
  facet normal -0.207912 0.978148 0
    outer loop
      vertex 4.32624 -13.3148 0
      vertex 1.4634 -13.9233 25
      vertex 4.32624 -13.3148 25
    endloop
  endfacet
  facet normal -0.207912 0.978148 0
    outer loop
      vertex 1.4634 -13.9233 25
      vertex 4.32624 -13.3148 0
      vertex 1.4634 -13.9233 0
    endloop
  endfacet
  facet normal -0.951056 -0.309017 0
    outer loop
      vertex 13.6941 2.91076 0
      vertex 12.7896 5.69431 25
      vertex 12.7896 5.69431 0
    endloop
  endfacet
  facet normal -0.951056 -0.309017 0
    outer loop
      vertex 12.7896 5.69431 25
      vertex 13.6941 2.91076 0
      vertex 13.6941 2.91076 25
    endloop
  endfacet
  facet normal -0.587785 -0.809017 0
    outer loop
      vertex 7 12.1244 0
      vertex 9.36783 10.404 25
      vertex 7 12.1244 25
    endloop
  endfacet
  facet normal -0.587785 -0.809017 -0
    outer loop
      vertex 9.36783 10.404 25
      vertex 7 12.1244 0
      vertex 9.36783 10.404 0
    endloop
  endfacet
  facet normal -0.406737 -0.913545 0
    outer loop
      vertex 4.32624 13.3148 0
      vertex 7 12.1244 25
      vertex 4.32624 13.3148 25
    endloop
  endfacet
  facet normal -0.406737 -0.913545 -0
    outer loop
      vertex 7 12.1244 25
      vertex 4.32624 13.3148 0
      vertex 7 12.1244 0
    endloop
  endfacet
  facet normal 0 0 -1
    outer loop
      vertex 3.5 0 25
      vertex 14 0 25
      vertex 13.6941 -2.91076 25
    endloop
  endfacet
  facet normal 0 0 -1
    outer loop
      vertex 2.94439 -1.89224 25
      vertex 13.6941 -2.91076 25
      vertex 12.7896 -5.69431 25
    endloop
  endfacet
  facet normal 0 0 -1
    outer loop
      vertex 14 0 25
      vertex 3.5 0 25
      vertex 13.6941 2.91076 25
    endloop
  endfacet
  facet normal 0 0 -1
    outer loop
      vertex 2.94439 -1.89224 25
      vertex 12.7896 -5.69431 25
      vertex 11.3262 -8.22899 25
    endloop
  endfacet
  facet normal 0 0 -1
    outer loop
      vertex 2.94439 1.89224 25
      vertex 13.6941 2.91076 25
      vertex 3.5 0 25
    endloop
  endfacet
  facet normal 0 0 -1
    outer loop
      vertex 2.94439 -1.89224 25
      vertex 11.3262 -8.22899 25
      vertex 9.36783 -10.404 25
    endloop
  endfacet
  facet normal -0 0 -1
    outer loop
      vertex 13.6941 2.91076 25
      vertex 2.94439 1.89224 25
      vertex 12.7896 5.69431 25
    endloop
  endfacet
  facet normal 0 0 -1
    outer loop
      vertex 1.45395 -3.18371 25
      vertex 9.36783 -10.404 25
      vertex 7 -12.1244 25
    endloop
  endfacet
  facet normal -0 0 -1
    outer loop
      vertex 12.7896 5.69431 25
      vertex 2.94439 1.89224 25
      vertex 11.3262 8.22899 25
    endloop
  endfacet
  facet normal 0 0 -1
    outer loop
      vertex 1.45395 -3.18371 25
      vertex 7 -12.1244 25
      vertex 4.32624 -13.3148 25
    endloop
  endfacet
  facet normal -0 0 -1
    outer loop
      vertex 11.3262 8.22899 25
      vertex 2.94439 1.89224 25
      vertex 9.36783 10.404 25
    endloop
  endfacet
  facet normal 0 0 -1
    outer loop
      vertex 1.45395 3.18371 25
      vertex 9.36783 10.404 25
      vertex 2.94439 1.89224 25
    endloop
  endfacet
  facet normal 0 0 -1
    outer loop
      vertex 13.6941 -2.91076 25
      vertex 2.94439 -1.89224 25
      vertex 3.5 0 25
    endloop
  endfacet
  facet normal 0 0 -1
    outer loop
      vertex 1.45395 -3.18371 25
      vertex 4.32624 -13.3148 25
      vertex 1.4634 -13.9233 25
    endloop
  endfacet
  facet normal 0 0 -1
    outer loop
      vertex 9.36783 -10.404 25
      vertex 1.45395 -3.18371 25
      vertex 2.94439 -1.89224 25
    endloop
  endfacet
  facet normal 0 0 -1
    outer loop
      vertex 1.4634 -13.9233 25
      vertex -0.498101 -3.46437 25
      vertex 1.45395 -3.18371 25
    endloop
  endfacet
  facet normal 0 0 -1
    outer loop
      vertex -1.4634 -13.9233 25
      vertex -0.498101 -3.46437 25
      vertex 1.4634 -13.9233 25
    endloop
  endfacet
  facet normal 0 0 -1
    outer loop
      vertex -4.32624 -13.3148 25
      vertex -0.498101 -3.46437 25
      vertex -1.4634 -13.9233 25
    endloop
  endfacet
  facet normal 0 0 -1
    outer loop
      vertex -7 -12.1244 25
      vertex -0.498101 -3.46437 25
      vertex -4.32624 -13.3148 25
    endloop
  endfacet
  facet normal 0 0 -1
    outer loop
      vertex -9.36783 -10.404 25
      vertex -2.29201 -2.64512 25
      vertex -7 -12.1244 25
    endloop
  endfacet
  facet normal -0 0 -1
    outer loop
      vertex -0.498101 -3.46437 25
      vertex -7 -12.1244 25
      vertex -2.29201 -2.64512 25
    endloop
  endfacet
  facet normal -0 0 -1
    outer loop
      vertex 9.36783 10.404 25
      vertex 1.45395 3.18371 25
      vertex 7 12.1244 25
    endloop
  endfacet
  facet normal -0 0 -1
    outer loop
      vertex 7 12.1244 25
      vertex 1.45395 3.18371 25
      vertex 4.32624 13.3148 25
    endloop
  endfacet
  facet normal -0 0 -1
    outer loop
      vertex 4.32624 13.3148 25
      vertex 1.45395 3.18371 25
      vertex 1.4634 13.9233 25
    endloop
  endfacet
  facet normal 0 0 -1
    outer loop
      vertex -0.498101 3.46437 25
      vertex 1.4634 13.9233 25
      vertex 1.45395 3.18371 25
    endloop
  endfacet
  facet normal 0 0 -1
    outer loop
      vertex -0.498101 3.46437 25
      vertex -1.4634 13.9233 25
      vertex 1.4634 13.9233 25
    endloop
  endfacet
  facet normal 0 0 -1
    outer loop
      vertex -7 12.1244 25
      vertex -0.498101 3.46437 25
      vertex -2.29201 2.64512 25
    endloop
  endfacet
  facet normal 0 0 -1
    outer loop
      vertex -11.3262 8.22899 25
      vertex -2.29201 2.64512 25
      vertex -3.35822 0.986063 25
    endloop
  endfacet
  facet normal 0 0 -1
    outer loop
      vertex -0.498101 3.46437 25
      vertex -4.32624 13.3148 25
      vertex -1.4634 13.9233 25
    endloop
  endfacet
  facet normal 0 0 -1
    outer loop
      vertex -11.3262 -8.22899 25
      vertex -2.29201 -2.64512 25
      vertex -9.36783 -10.404 25
    endloop
  endfacet
  facet normal 0 0 -1
    outer loop
      vertex -0.498101 3.46437 25
      vertex -7 12.1244 25
      vertex -4.32624 13.3148 25
    endloop
  endfacet
  facet normal -0 0 -1
    outer loop
      vertex -2.29201 -2.64512 25
      vertex -11.3262 -8.22899 25
      vertex -3.35822 -0.986063 25
    endloop
  endfacet
  facet normal 0 0 -1
    outer loop
      vertex -12.7896 -5.69431 25
      vertex -3.35822 -0.986063 25
      vertex -11.3262 -8.22899 25
    endloop
  endfacet
  facet normal 0 0 -1
    outer loop
      vertex -2.29201 2.64512 25
      vertex -9.36783 10.404 25
      vertex -7 12.1244 25
    endloop
  endfacet
  facet normal 0 0 -1
    outer loop
      vertex -13.6941 -2.91076 25
      vertex -3.35822 -0.986063 25
      vertex -12.7896 -5.69431 25
    endloop
  endfacet
  facet normal 0 0 -1
    outer loop
      vertex -2.29201 2.64512 25
      vertex -11.3262 8.22899 25
      vertex -9.36783 10.404 25
    endloop
  endfacet
  facet normal 0 0 -1
    outer loop
      vertex -14 0 25
      vertex -3.35822 -0.986063 25
      vertex -13.6941 -2.91076 25
    endloop
  endfacet
  facet normal 0 0 -1
    outer loop
      vertex -3.35822 0.986063 25
      vertex -12.7896 5.69431 25
      vertex -11.3262 8.22899 25
    endloop
  endfacet
  facet normal 0 0 -1
    outer loop
      vertex -3.35822 -0.986063 25
      vertex -14 0 25
      vertex -3.35822 0.986063 25
    endloop
  endfacet
  facet normal 0 0 -1
    outer loop
      vertex -3.35822 0.986063 25
      vertex -13.6941 2.91076 25
      vertex -12.7896 5.69431 25
    endloop
  endfacet
  facet normal -0 0 -1
    outer loop
      vertex -3.35822 0.986063 25
      vertex -14 0 25
      vertex -13.6941 2.91076 25
    endloop
  endfacet
  facet normal 0.866026 -0.5 0
    outer loop
      vertex -12.7896 5.69431 25
      vertex -11.3262 8.22899 0
      vertex -11.3262 8.22899 25
    endloop
  endfacet
  facet normal 0.866026 -0.5 0
    outer loop
      vertex -11.3262 8.22899 0
      vertex -12.7896 5.69431 25
      vertex -12.7896 5.69431 0
    endloop
  endfacet
  facet normal 0.587785 -0.809017 0
    outer loop
      vertex -9.36783 10.404 0
      vertex -7 12.1244 25
      vertex -9.36783 10.404 25
    endloop
  endfacet
  facet normal 0.587785 -0.809017 0
    outer loop
      vertex -7 12.1244 25
      vertex -9.36783 10.404 0
      vertex -7 12.1244 0
    endloop
  endfacet
  facet normal 0.207912 -0.978148 0
    outer loop
      vertex -4.32624 13.3148 0
      vertex -1.4634 13.9233 25
      vertex -4.32624 13.3148 25
    endloop
  endfacet
  facet normal 0.207912 -0.978148 0
    outer loop
      vertex -1.4634 13.9233 25
      vertex -4.32624 13.3148 0
      vertex -1.4634 13.9233 0
    endloop
  endfacet
  facet normal 0.743145 -0.669131 0
    outer loop
      vertex -11.3262 8.22899 25
      vertex -9.36783 10.404 0
      vertex -9.36783 10.404 25
    endloop
  endfacet
  facet normal 0.743145 -0.669131 0
    outer loop
      vertex -9.36783 10.404 0
      vertex -11.3262 8.22899 25
      vertex -11.3262 8.22899 0
    endloop
  endfacet
  facet normal -0.994522 -0.104529 0
    outer loop
      vertex 14 0 0
      vertex 13.6941 2.91076 25
      vertex 13.6941 2.91076 0
    endloop
  endfacet
  facet normal -0.994522 -0.104529 0
    outer loop
      vertex 13.6941 2.91076 25
      vertex 14 0 0
      vertex 14 0 25
    endloop
  endfacet
  facet normal -0.951056 0.309017 0
    outer loop
      vertex 12.7896 -5.69431 0
      vertex 13.6941 -2.91076 25
      vertex 13.6941 -2.91076 0
    endloop
  endfacet
  facet normal -0.951056 0.309017 0
    outer loop
      vertex 13.6941 -2.91076 25
      vertex 12.7896 -5.69431 0
      vertex 12.7896 -5.69431 25
    endloop
  endfacet
  facet normal 0.994522 0.104529 0
    outer loop
      vertex -13.6941 -2.91076 25
      vertex -14 0 0
      vertex -14 0 25
    endloop
  endfacet
  facet normal 0.994522 0.104529 0
    outer loop
      vertex -14 0 0
      vertex -13.6941 -2.91076 25
      vertex -13.6941 -2.91076 0
    endloop
  endfacet
  facet normal -0.587785 0.809017 0
    outer loop
      vertex 9.36783 -10.404 0
      vertex 7 -12.1244 25
      vertex 9.36783 -10.404 25
    endloop
  endfacet
  facet normal -0.587785 0.809017 0
    outer loop
      vertex 7 -12.1244 25
      vertex 9.36783 -10.404 0
      vertex 7 -12.1244 0
    endloop
  endfacet
  facet normal -0.866026 0.5 0
    outer loop
      vertex 11.3262 -8.22899 0
      vertex 12.7896 -5.69431 25
      vertex 12.7896 -5.69431 0
    endloop
  endfacet
  facet normal -0.866026 0.5 0
    outer loop
      vertex 12.7896 -5.69431 25
      vertex 11.3262 -8.22899 0
      vertex 11.3262 -8.22899 25
    endloop
  endfacet
  facet normal 0 1 -0
    outer loop
      vertex 1.4634 -13.9233 0
      vertex -1.4634 -13.9233 25
      vertex 1.4634 -13.9233 25
    endloop
  endfacet
  facet normal 0 1 0
    outer loop
      vertex -1.4634 -13.9233 25
      vertex 1.4634 -13.9233 0
      vertex -1.4634 -13.9233 0
    endloop
  endfacet
  facet normal -0.406737 0.913545 0
    outer loop
      vertex 7 -12.1244 0
      vertex 4.32624 -13.3148 25
      vertex 7 -12.1244 25
    endloop
  endfacet
  facet normal -0.406737 0.913545 0
    outer loop
      vertex 4.32624 -13.3148 25
      vertex 7 -12.1244 0
      vertex 4.32624 -13.3148 0
    endloop
  endfacet
  facet normal 0.866026 0.5 0
    outer loop
      vertex -11.3262 -8.22899 25
      vertex -12.7896 -5.69431 0
      vertex -12.7896 -5.69431 25
    endloop
  endfacet
  facet normal 0.866026 0.5 0
    outer loop
      vertex -12.7896 -5.69431 0
      vertex -11.3262 -8.22899 25
      vertex -11.3262 -8.22899 0
    endloop
  endfacet
  facet normal 0 0 -1
    outer loop
      vertex 20 -20 0
      vertex 14 0 0
      vertex 20 20 0
    endloop
  endfacet
  facet normal 0 0 -1
    outer loop
      vertex 20 -20 0
      vertex 13.6941 -2.91076 0
      vertex 14 0 0
    endloop
  endfacet
  facet normal 0 0 -1
    outer loop
      vertex 20 -20 0
      vertex 12.7896 -5.69431 0
      vertex 13.6941 -2.91076 0
    endloop
  endfacet
  facet normal 0 0 -1
    outer loop
      vertex 20 -20 0
      vertex 11.3262 -8.22899 0
      vertex 12.7896 -5.69431 0
    endloop
  endfacet
  facet normal 0 0 -1
    outer loop
      vertex 20 -20 0
      vertex 9.36783 -10.404 0
      vertex 11.3262 -8.22899 0
    endloop
  endfacet
  facet normal 0 0 -1
    outer loop
      vertex 20 -20 0
      vertex 7 -12.1244 0
      vertex 9.36783 -10.404 0
    endloop
  endfacet
  facet normal 0 0 -1
    outer loop
      vertex 20 -20 0
      vertex 4.32624 -13.3148 0
      vertex 7 -12.1244 0
    endloop
  endfacet
  facet normal 0 0 -1
    outer loop
      vertex 20 -20 0
      vertex 1.4634 -13.9233 0
      vertex 4.32624 -13.3148 0
    endloop
  endfacet
  facet normal 0 0 -1
    outer loop
      vertex 20 -20 0
      vertex -1.4634 -13.9233 0
      vertex 1.4634 -13.9233 0
    endloop
  endfacet
  facet normal 0 0 -1
    outer loop
      vertex -20 -20 0
      vertex -1.4634 -13.9233 0
      vertex 20 -20 0
    endloop
  endfacet
  facet normal -0 0 -1
    outer loop
      vertex -13.6941 -2.91076 0
      vertex -20 -20 0
      vertex -14 0 0
    endloop
  endfacet
  facet normal -0 0 -1
    outer loop
      vertex -12.7896 -5.69431 0
      vertex -20 -20 0
      vertex -13.6941 -2.91076 0
    endloop
  endfacet
  facet normal -0 0 -1
    outer loop
      vertex -11.3262 -8.22899 0
      vertex -20 -20 0
      vertex -12.7896 -5.69431 0
    endloop
  endfacet
  facet normal -0 0 -1
    outer loop
      vertex -9.36783 -10.404 0
      vertex -20 -20 0
      vertex -11.3262 -8.22899 0
    endloop
  endfacet
  facet normal -0 0 -1
    outer loop
      vertex -7 -12.1244 0
      vertex -20 -20 0
      vertex -9.36783 -10.404 0
    endloop
  endfacet
  facet normal -0 0 -1
    outer loop
      vertex -4.32624 -13.3148 0
      vertex -20 -20 0
      vertex -7 -12.1244 0
    endloop
  endfacet
  facet normal -0 0 -1
    outer loop
      vertex -1.4634 -13.9233 0
      vertex -20 -20 0
      vertex -4.32624 -13.3148 0
    endloop
  endfacet
  facet normal 0 0 -1
    outer loop
      vertex 13.6941 2.91076 0
      vertex 20 20 0
      vertex 14 0 0
    endloop
  endfacet
  facet normal 0 0 -1
    outer loop
      vertex 12.7896 5.69431 0
      vertex 20 20 0
      vertex 13.6941 2.91076 0
    endloop
  endfacet
  facet normal 0 0 -1
    outer loop
      vertex 11.3262 8.22899 0
      vertex 20 20 0
      vertex 12.7896 5.69431 0
    endloop
  endfacet
  facet normal 0 0 -1
    outer loop
      vertex 9.36783 10.404 0
      vertex 20 20 0
      vertex 11.3262 8.22899 0
    endloop
  endfacet
  facet normal 0 0 -1
    outer loop
      vertex 7 12.1244 0
      vertex 20 20 0
      vertex 9.36783 10.404 0
    endloop
  endfacet
  facet normal 0 0 -1
    outer loop
      vertex 4.32624 13.3148 0
      vertex 20 20 0
      vertex 7 12.1244 0
    endloop
  endfacet
  facet normal 0 0 -1
    outer loop
      vertex 1.4634 13.9233 0
      vertex 20 20 0
      vertex 4.32624 13.3148 0
    endloop
  endfacet
  facet normal 0 0 -1
    outer loop
      vertex -1.4634 13.9233 0
      vertex 20 20 0
      vertex 1.4634 13.9233 0
    endloop
  endfacet
  facet normal 0 0 -1
    outer loop
      vertex -20 20 0
      vertex -1.4634 13.9233 0
      vertex -4.32624 13.3148 0
    endloop
  endfacet
  facet normal 0 0 -1
    outer loop
      vertex -20 20 0
      vertex -14 0 0
      vertex -20 -20 0
    endloop
  endfacet
  facet normal 0 0 -1
    outer loop
      vertex -1.4634 13.9233 0
      vertex -20 20 0
      vertex 20 20 0
    endloop
  endfacet
  facet normal 0 0 -1
    outer loop
      vertex -7 12.1244 0
      vertex -20 20 0
      vertex -4.32624 13.3148 0
    endloop
  endfacet
  facet normal 0 0 -1
    outer loop
      vertex -9.36783 10.404 0
      vertex -20 20 0
      vertex -7 12.1244 0
    endloop
  endfacet
  facet normal 0 0 -1
    outer loop
      vertex -11.3262 8.22899 0
      vertex -20 20 0
      vertex -9.36783 10.404 0
    endloop
  endfacet
  facet normal 0 0 -1
    outer loop
      vertex -12.7896 5.69431 0
      vertex -20 20 0
      vertex -11.3262 8.22899 0
    endloop
  endfacet
  facet normal 0 0 -1
    outer loop
      vertex -13.6941 2.91076 0
      vertex -20 20 0
      vertex -12.7896 5.69431 0
    endloop
  endfacet
  facet normal 0 0 -1
    outer loop
      vertex -14 0 0
      vertex -20 20 0
      vertex -13.6941 2.91076 0
    endloop
  endfacet
  facet normal 0.951056 0.309017 0
    outer loop
      vertex -12.7896 -5.69431 25
      vertex -13.6941 -2.91076 0
      vertex -13.6941 -2.91076 25
    endloop
  endfacet
  facet normal 0.951056 0.309017 0
    outer loop
      vertex -13.6941 -2.91076 0
      vertex -12.7896 -5.69431 25
      vertex -12.7896 -5.69431 0
    endloop
  endfacet
  facet normal 0.743145 0.669131 0
    outer loop
      vertex -9.36783 -10.404 25
      vertex -11.3262 -8.22899 0
      vertex -11.3262 -8.22899 25
    endloop
  endfacet
  facet normal 0.743145 0.669131 0
    outer loop
      vertex -11.3262 -8.22899 0
      vertex -9.36783 -10.404 25
      vertex -9.36783 -10.404 0
    endloop
  endfacet
  facet normal 0.207912 0.978148 -0
    outer loop
      vertex -1.4634 -13.9233 0
      vertex -4.32624 -13.3148 25
      vertex -1.4634 -13.9233 25
    endloop
  endfacet
  facet normal 0.207912 0.978148 0
    outer loop
      vertex -4.32624 -13.3148 25
      vertex -1.4634 -13.9233 0
      vertex -4.32624 -13.3148 0
    endloop
  endfacet
  facet normal -0.743145 0.669131 0
    outer loop
      vertex 9.36783 -10.404 0
      vertex 11.3262 -8.22899 25
      vertex 11.3262 -8.22899 0
    endloop
  endfacet
  facet normal -0.743145 0.669131 0
    outer loop
      vertex 11.3262 -8.22899 25
      vertex 9.36783 -10.404 0
      vertex 9.36783 -10.404 25
    endloop
  endfacet
  facet normal 0.406737 0.913545 -0
    outer loop
      vertex -4.32624 -13.3148 0
      vertex -7 -12.1244 25
      vertex -4.32624 -13.3148 25
    endloop
  endfacet
  facet normal 0.406737 0.913545 0
    outer loop
      vertex -7 -12.1244 25
      vertex -4.32624 -13.3148 0
      vertex -7 -12.1244 0
    endloop
  endfacet
  facet normal 0.587785 0.809017 -0
    outer loop
      vertex -7 -12.1244 0
      vertex -9.36783 -10.404 25
      vertex -7 -12.1244 25
    endloop
  endfacet
  facet normal 0.587785 0.809017 0
    outer loop
      vertex -9.36783 -10.404 25
      vertex -7 -12.1244 0
      vertex -9.36783 -10.404 0
    endloop
  endfacet
  facet normal -0.959493 -0.281733 0
    outer loop
      vertex 3.5 0 25
      vertex 2.94439 1.89224 35
      vertex 2.94439 1.89224 25
    endloop
  endfacet
  facet normal -0.959493 -0.281733 0
    outer loop
      vertex 2.94439 1.89224 35
      vertex 3.5 0 25
      vertex 3.5 0 35
    endloop
  endfacet
  facet normal 1 -0 0
    outer loop
      vertex -3.35822 -0.986063 35
      vertex -3.35822 0.986063 25
      vertex -3.35822 0.986063 35
    endloop
  endfacet
  facet normal 1 0 0
    outer loop
      vertex -3.35822 0.986063 25
      vertex -3.35822 -0.986063 35
      vertex -3.35822 -0.986063 25
    endloop
  endfacet
  facet normal 0.415415 -0.909632 0
    outer loop
      vertex -2.29201 2.64512 25
      vertex -0.498101 3.46437 35
      vertex -2.29201 2.64512 35
    endloop
  endfacet
  facet normal 0.415415 -0.909632 0
    outer loop
      vertex -0.498101 3.46437 35
      vertex -2.29201 2.64512 25
      vertex -0.498101 3.46437 25
    endloop
  endfacet
  facet normal 0 0 1
    outer loop
      vertex 20 20 35
      vertex 3.5 0 35
      vertex 20 -20 35
    endloop
  endfacet
  facet normal 0 0 1
    outer loop
      vertex 20 20 35
      vertex 2.94439 1.89224 35
      vertex 3.5 0 35
    endloop
  endfacet
  facet normal 0 0 1
    outer loop
      vertex 20 20 35
      vertex 1.45395 3.18371 35
      vertex 2.94439 1.89224 35
    endloop
  endfacet
  facet normal 0 0 1
    outer loop
      vertex 20 20 35
      vertex -0.498101 3.46437 35
      vertex 1.45395 3.18371 35
    endloop
  endfacet
  facet normal -0 0 1
    outer loop
      vertex -20 20 35
      vertex -0.498101 3.46437 35
      vertex 20 20 35
    endloop
  endfacet
  facet normal 0 0 1
    outer loop
      vertex -3.35822 0.986063 35
      vertex -20 20 35
      vertex -3.35822 -0.986063 35
    endloop
  endfacet
  facet normal 0 0 1
    outer loop
      vertex -2.29201 2.64512 35
      vertex -20 20 35
      vertex -3.35822 0.986063 35
    endloop
  endfacet
  facet normal 0 0 1
    outer loop
      vertex -0.498101 3.46437 35
      vertex -20 20 35
      vertex -2.29201 2.64512 35
    endloop
  endfacet
  facet normal -0 0 1
    outer loop
      vertex 2.94439 -1.89224 35
      vertex 20 -20 35
      vertex 3.5 0 35
    endloop
  endfacet
  facet normal -0 0 1
    outer loop
      vertex 1.45395 -3.18371 35
      vertex 20 -20 35
      vertex 2.94439 -1.89224 35
    endloop
  endfacet
  facet normal -0 0 1
    outer loop
      vertex -0.498101 -3.46437 35
      vertex 20 -20 35
      vertex 1.45395 -3.18371 35
    endloop
  endfacet
  facet normal 0 0 1
    outer loop
      vertex -20 -20 35
      vertex -0.498101 -3.46437 35
      vertex -2.29201 -2.64512 35
    endloop
  endfacet
  facet normal 0 0 1
    outer loop
      vertex -20 -20 35
      vertex -3.35822 -0.986063 35
      vertex -20 20 35
    endloop
  endfacet
  facet normal 0 0 1
    outer loop
      vertex -0.498101 -3.46437 35
      vertex -20 -20 35
      vertex 20 -20 35
    endloop
  endfacet
  facet normal 0 0 1
    outer loop
      vertex -3.35822 -0.986063 35
      vertex -20 -20 35
      vertex -2.29201 -2.64512 35
    endloop
  endfacet
  facet normal 0.841254 -0.540641 0
    outer loop
      vertex -3.35822 0.986063 35
      vertex -2.29201 2.64512 25
      vertex -2.29201 2.64512 35
    endloop
  endfacet
  facet normal 0.841254 -0.540641 0
    outer loop
      vertex -2.29201 2.64512 25
      vertex -3.35822 0.986063 35
      vertex -3.35822 0.986063 25
    endloop
  endfacet
  facet normal -0.959493 0.281733 0
    outer loop
      vertex 2.94439 -1.89224 25
      vertex 3.5 0 35
      vertex 3.5 0 25
    endloop
  endfacet
  facet normal -0.959493 0.281733 0
    outer loop
      vertex 3.5 0 35
      vertex 2.94439 -1.89224 25
      vertex 2.94439 -1.89224 35
    endloop
  endfacet
  facet normal -0.142315 -0.989821 0
    outer loop
      vertex -0.498101 3.46437 25
      vertex 1.45395 3.18371 35
      vertex -0.498101 3.46437 35
    endloop
  endfacet
  facet normal -0.142315 -0.989821 -0
    outer loop
      vertex 1.45395 3.18371 35
      vertex -0.498101 3.46437 25
      vertex 1.45395 3.18371 25
    endloop
  endfacet
  facet normal -0.654861 -0.75575 0
    outer loop
      vertex 1.45395 3.18371 25
      vertex 2.94439 1.89224 35
      vertex 1.45395 3.18371 35
    endloop
  endfacet
  facet normal -0.654861 -0.75575 -0
    outer loop
      vertex 2.94439 1.89224 35
      vertex 1.45395 3.18371 25
      vertex 2.94439 1.89224 25
    endloop
  endfacet
  facet normal 0.841254 0.540641 0
    outer loop
      vertex -2.29201 -2.64512 35
      vertex -3.35822 -0.986063 25
      vertex -3.35822 -0.986063 35
    endloop
  endfacet
  facet normal 0.841254 0.540641 0
    outer loop
      vertex -3.35822 -0.986063 25
      vertex -2.29201 -2.64512 35
      vertex -2.29201 -2.64512 25
    endloop
  endfacet
  facet normal -0.654861 0.75575 0
    outer loop
      vertex 2.94439 -1.89224 25
      vertex 1.45395 -3.18371 35
      vertex 2.94439 -1.89224 35
    endloop
  endfacet
  facet normal -0.654861 0.75575 0
    outer loop
      vertex 1.45395 -3.18371 35
      vertex 2.94439 -1.89224 25
      vertex 1.45395 -3.18371 25
    endloop
  endfacet
  facet normal -0.142315 0.989821 0
    outer loop
      vertex 1.45395 -3.18371 25
      vertex -0.498101 -3.46437 35
      vertex 1.45395 -3.18371 35
    endloop
  endfacet
  facet normal -0.142315 0.989821 0
    outer loop
      vertex -0.498101 -3.46437 35
      vertex 1.45395 -3.18371 25
      vertex -0.498101 -3.46437 25
    endloop
  endfacet
  facet normal 0.415415 0.909632 -0
    outer loop
      vertex -0.498101 -3.46437 25
      vertex -2.29201 -2.64512 35
      vertex -0.498101 -3.46437 35
    endloop
  endfacet
  facet normal 0.415415 0.909632 0
    outer loop
      vertex -2.29201 -2.64512 35
      vertex -0.498101 -3.46437 25
      vertex -2.29201 -2.64512 25
    endloop
  endfacet
  facet normal -1 0 0
    outer loop
      vertex -20 -20 0
      vertex -20 20 35
      vertex -20 20 0
    endloop
  endfacet
  facet normal -1 -0 0
    outer loop
      vertex -20 20 35
      vertex -20 -20 0
      vertex -20 -20 35
    endloop
  endfacet
  facet normal 1 -0 0
    outer loop
      vertex 20 -20 35
      vertex 20 20 0
      vertex 20 20 35
    endloop
  endfacet
  facet normal 1 0 0
    outer loop
      vertex 20 20 0
      vertex 20 -20 35
      vertex 20 -20 0
    endloop
  endfacet
  facet normal 0 -1 0
    outer loop
      vertex -20 -20 0
      vertex 20 -20 35
      vertex -20 -20 35
    endloop
  endfacet
  facet normal 0 -1 -0
    outer loop
      vertex 20 -20 35
      vertex -20 -20 0
      vertex 20 -20 0
    endloop
  endfacet
  facet normal 0 1 -0
    outer loop
      vertex 20 20 0
      vertex -20 20 35
      vertex 20 20 35
    endloop
  endfacet
  facet normal 0 1 0
    outer loop
      vertex -20 20 35
      vertex 20 20 0
      vertex -20 20 0
    endloop
  endfacet
endsolid OpenSCAD_Model
