solid OpenSCAD_Model
  facet normal 0 0 -1
    outer loop
      vertex 0 0 0
      vertex 0 32.8355 0
      vertex 60 0 0
    endloop
  endfacet
  facet normal 0 0 1
    outer loop
      vertex 60 0 40
      vertex 0 32.8355 40
      vertex 0 0 40
    endloop
  endfacet
  facet normal -1 0 0
    outer loop
      vertex 0 0 0
      vertex 0 32.8355 40
      vertex 0 32.8355 0
    endloop
  endfacet
  facet normal -1 0 0
    outer loop
      vertex 0 0 0
      vertex 0 0 40
      vertex 0 32.8355 40
    endloop
  endfacet
  facet normal 0 -1 0
    outer loop
      vertex 60 0 0
      vertex 0 0 40
      vertex 0 0 0
    endloop
  endfacet
  facet normal 0 -1 0
    outer loop
      vertex 60 0 0
      vertex 60 0 40
      vertex 0 0 40
    endloop
  endfacet
  facet normal 0.480071 0.877229 0
    outer loop
      vertex 0 32.8355 0
      vertex 60 0 40
      vertex 60 0 0
    endloop
  endfacet
  facet normal 0.480071 0.877229 -0
    outer loop
      vertex 0 32.8355 0
      vertex 0 32.8355 40
      vertex 60 0 40
    endloop
  endfacet
endsolid OpenSCAD_Model
