solid OpenSCAD_Model
  facet normal -1 0 0
    outer loop
      vertex 0 0 0
      vertex 0 15 15
      vertex 0 15 0
    endloop
  endfacet
  facet normal -1 -0 0
    outer loop
      vertex 0 15 15
      vertex 0 0 0
      vertex 0 0 15
    endloop
  endfacet
  facet normal 0 0 1
    outer loop
      vertex 15 60 15
      vertex 10 55 15
      vertex 15 15 15
    endloop
  endfacet
  facet normal 0 -0 1
    outer loop
      vertex 10 55 15
      vertex 15 60 15
      vertex 7 55 15
    endloop
  endfacet
  facet normal 0 0 1
    outer loop
      vertex 25 15 15
      vertex 30 55 15
      vertex 25 60 15
    endloop
  endfacet
  facet normal 0 0 1
    outer loop
      vertex 25 60 15
      vertex 30 55 15
      vertex 33 55 15
    endloop
  endfacet
  facet normal -0 0 1
    outer loop
      vertex 30 15 15
      vertex 40 0 15
      vertex 40 15 15
    endloop
  endfacet
  facet normal 0 0 1
    outer loop
      vertex 30 55 15
      vertex 25 15 15
      vertex 30 15 15
    endloop
  endfacet
  facet normal -0 0 1
    outer loop
      vertex 25 15 15
      vertex 40 0 15
      vertex 30 15 15
    endloop
  endfacet
  facet normal -0 0 1
    outer loop
      vertex 15 15 15
      vertex 40 0 15
      vertex 25 15 15
    endloop
  endfacet
  facet normal 0 0 1
    outer loop
      vertex 10 15 15
      vertex 15 15 15
      vertex 10 55 15
    endloop
  endfacet
  facet normal 0 0 1
    outer loop
      vertex 0 0 15
      vertex 15 15 15
      vertex 10 15 15
    endloop
  endfacet
  facet normal 0 0 1
    outer loop
      vertex 0 0 15
      vertex 10 15 15
      vertex 0 15 15
    endloop
  endfacet
  facet normal 0 0 1
    outer loop
      vertex 15 15 15
      vertex 0 0 15
      vertex 40 0 15
    endloop
  endfacet
  facet normal 1 -0 0
    outer loop
      vertex 40 0 15
      vertex 40 15 0
      vertex 40 15 15
    endloop
  endfacet
  facet normal 1 0 0
    outer loop
      vertex 40 15 0
      vertex 40 0 15
      vertex 40 0 0
    endloop
  endfacet
  facet normal 0 1 -0
    outer loop
      vertex 25 15 0
      vertex 15 15 15
      vertex 25 15 15
    endloop
  endfacet
  facet normal 0 1 0
    outer loop
      vertex 15 15 15
      vertex 25 15 0
      vertex 15 15 0
    endloop
  endfacet
  facet normal 0 1 -0
    outer loop
      vertex 40 15 0
      vertex 30 15 15
      vertex 40 15 15
    endloop
  endfacet
  facet normal 0 1 0
    outer loop
      vertex 30 15 15
      vertex 40 15 0
      vertex 30 15 0
    endloop
  endfacet
  facet normal 0 1 -0
    outer loop
      vertex 10 15 0
      vertex 0 15 15
      vertex 10 15 15
    endloop
  endfacet
  facet normal 0 1 0
    outer loop
      vertex 0 15 15
      vertex 10 15 0
      vertex 0 15 0
    endloop
  endfacet
  facet normal 0 0 -1
    outer loop
      vertex 40 0 0
      vertex 30 15 0
      vertex 40 15 0
    endloop
  endfacet
  facet normal 0 0 -1
    outer loop
      vertex 30 15 0
      vertex 25 15 0
      vertex 30 55 0
    endloop
  endfacet
  facet normal 0 0 -1
    outer loop
      vertex 40 0 0
      vertex 25 15 0
      vertex 30 15 0
    endloop
  endfacet
  facet normal 0 0 -1
    outer loop
      vertex 40 0 0
      vertex 15 15 0
      vertex 25 15 0
    endloop
  endfacet
  facet normal 0 0 -1
    outer loop
      vertex 10 55 0
      vertex 15 15 0
      vertex 10 15 0
    endloop
  endfacet
  facet normal 0 0 -1
    outer loop
      vertex 0 0 0
      vertex 15 15 0
      vertex 40 0 0
    endloop
  endfacet
  facet normal -0 0 -1
    outer loop
      vertex 15 15 0
      vertex 0 0 0
      vertex 10 15 0
    endloop
  endfacet
  facet normal -0 0 -1
    outer loop
      vertex 10 15 0
      vertex 0 0 0
      vertex 0 15 0
    endloop
  endfacet
  facet normal 0 0 -1
    outer loop
      vertex 30 55 0
      vertex 25 60 0
      vertex 33 55 0
    endloop
  endfacet
  facet normal 0 0 -1
    outer loop
      vertex 25 60 0
      vertex 30 55 0
      vertex 25 15 0
    endloop
  endfacet
  facet normal 0 0 -1
    outer loop
      vertex 15 15 0
      vertex 10 55 0
      vertex 15 60 0
    endloop
  endfacet
  facet normal 0 0 -1
    outer loop
      vertex 15 60 0
      vertex 10 55 0
      vertex 7 55 0
    endloop
  endfacet
  facet normal 0 -1 0
    outer loop
      vertex 34.3029 0 5.69706
      vertex 34.3029 0 10.3029
      vertex 29.6971 0 5.69706
    endloop
  endfacet
  facet normal 0 -1 0
    outer loop
      vertex 34.3029 0 10.3029
      vertex 34.3029 0 5.69706
      vertex 36 0 6.4
    endloop
  endfacet
  facet normal 0 -1 0
    outer loop
      vertex 30.4 0 4
      vertex 34.3029 0 5.69706
      vertex 29.6971 0 5.69706
    endloop
  endfacet
  facet normal 0 -1 0
    outer loop
      vertex 30.4 0 4
      vertex 33.6 0 4
      vertex 34.3029 0 5.69706
    endloop
  endfacet
  facet normal 0 -1 0
    outer loop
      vertex 29.6971 0 2.30294
      vertex 33.6 0 4
      vertex 30.4 0 4
    endloop
  endfacet
  facet normal 0 -1 0
    outer loop
      vertex 29.6971 0 2.30294
      vertex 34.3029 0 2.30294
      vertex 33.6 0 4
    endloop
  endfacet
  facet normal 0 -1 0
    outer loop
      vertex 28 0 1.6
      vertex 34.3029 0 2.30294
      vertex 29.6971 0 2.30294
    endloop
  endfacet
  facet normal 0 -1 -0
    outer loop
      vertex 34.3029 0 2.30294
      vertex 28 0 1.6
      vertex 36 0 1.6
    endloop
  endfacet
  facet normal 0 -1 0
    outer loop
      vertex 26.3029 0 5.69706
      vertex 26.3029 0 10.3029
      vertex 21.6971 0 5.69706
    endloop
  endfacet
  facet normal 0 -1 0
    outer loop
      vertex 26.3029 0 10.3029
      vertex 26.3029 0 5.69706
      vertex 28 0 6.4
    endloop
  endfacet
  facet normal 0 -1 0
    outer loop
      vertex 22.4 0 4
      vertex 26.3029 0 5.69706
      vertex 21.6971 0 5.69706
    endloop
  endfacet
  facet normal 0 -1 0
    outer loop
      vertex 22.4 0 4
      vertex 25.6 0 4
      vertex 26.3029 0 5.69706
    endloop
  endfacet
  facet normal 0 -1 0
    outer loop
      vertex 21.6971 0 2.30294
      vertex 25.6 0 4
      vertex 22.4 0 4
    endloop
  endfacet
  facet normal 0 -1 0
    outer loop
      vertex 21.6971 0 2.30294
      vertex 26.3029 0 2.30294
      vertex 25.6 0 4
    endloop
  endfacet
  facet normal 0 -1 0
    outer loop
      vertex 20 0 1.6
      vertex 26.3029 0 2.30294
      vertex 21.6971 0 2.30294
    endloop
  endfacet
  facet normal 0 -1 -0
    outer loop
      vertex 26.3029 0 2.30294
      vertex 20 0 1.6
      vertex 28 0 1.6
    endloop
  endfacet
  facet normal 0 -1 0
    outer loop
      vertex 18.3029 0 5.69706
      vertex 18.3029 0 10.3029
      vertex 13.6971 0 5.69706
    endloop
  endfacet
  facet normal 0 -1 0
    outer loop
      vertex 18.3029 0 10.3029
      vertex 18.3029 0 5.69706
      vertex 20 0 6.4
    endloop
  endfacet
  facet normal 0 -1 0
    outer loop
      vertex 14.4 0 4
      vertex 18.3029 0 5.69706
      vertex 13.6971 0 5.69706
    endloop
  endfacet
  facet normal 0 -1 0
    outer loop
      vertex 14.4 0 4
      vertex 17.6 0 4
      vertex 18.3029 0 5.69706
    endloop
  endfacet
  facet normal 0 -1 0
    outer loop
      vertex 13.6971 0 2.30294
      vertex 17.6 0 4
      vertex 14.4 0 4
    endloop
  endfacet
  facet normal 0 -1 0
    outer loop
      vertex 13.6971 0 2.30294
      vertex 18.3029 0 2.30294
      vertex 17.6 0 4
    endloop
  endfacet
  facet normal 0 -1 0
    outer loop
      vertex 12 0 1.6
      vertex 18.3029 0 2.30294
      vertex 13.6971 0 2.30294
    endloop
  endfacet
  facet normal 0 -1 -0
    outer loop
      vertex 18.3029 0 2.30294
      vertex 12 0 1.6
      vertex 20 0 1.6
    endloop
  endfacet
  facet normal 0 -1 0
    outer loop
      vertex 10.3029 0 5.69706
      vertex 10.3029 0 10.3029
      vertex 5.69706 0 5.69706
    endloop
  endfacet
  facet normal 0 -1 0
    outer loop
      vertex 10.3029 0 10.3029
      vertex 10.3029 0 5.69706
      vertex 12 0 6.4
    endloop
  endfacet
  facet normal 0 -1 0
    outer loop
      vertex 6.4 0 4
      vertex 10.3029 0 5.69706
      vertex 5.69706 0 5.69706
    endloop
  endfacet
  facet normal 0 -1 0
    outer loop
      vertex 6.4 0 4
      vertex 9.6 0 4
      vertex 10.3029 0 5.69706
    endloop
  endfacet
  facet normal 0 -1 0
    outer loop
      vertex 5.69706 0 2.30294
      vertex 9.6 0 4
      vertex 6.4 0 4
    endloop
  endfacet
  facet normal 0 -1 0
    outer loop
      vertex 5.69706 0 2.30294
      vertex 10.3029 0 2.30294
      vertex 9.6 0 4
    endloop
  endfacet
  facet normal 0 -1 0
    outer loop
      vertex 4 0 1.6
      vertex 10.3029 0 2.30294
      vertex 5.69706 0 2.30294
    endloop
  endfacet
  facet normal 0 -1 -0
    outer loop
      vertex 10.3029 0 2.30294
      vertex 4 0 1.6
      vertex 12 0 1.6
    endloop
  endfacet
  facet normal 0 -1 0
    outer loop
      vertex 29.6971 0 13.6971
      vertex 36 0 14.4
      vertex 28 0 14.4
    endloop
  endfacet
  facet normal 0 -1 0
    outer loop
      vertex 29.6971 0 13.6971
      vertex 34.3029 0 13.6971
      vertex 36 0 14.4
    endloop
  endfacet
  facet normal 0 -1 0
    outer loop
      vertex 30.4 0 12
      vertex 34.3029 0 13.6971
      vertex 29.6971 0 13.6971
    endloop
  endfacet
  facet normal 0 -1 0
    outer loop
      vertex 30.4 0 12
      vertex 33.6 0 12
      vertex 34.3029 0 13.6971
    endloop
  endfacet
  facet normal 0 -1 0
    outer loop
      vertex 29.6971 0 10.3029
      vertex 33.6 0 12
      vertex 30.4 0 12
    endloop
  endfacet
  facet normal 0 -1 0
    outer loop
      vertex 29.6971 0 10.3029
      vertex 34.3029 0 10.3029
      vertex 33.6 0 12
    endloop
  endfacet
  facet normal 0 -1 0
    outer loop
      vertex 28 0 6.4
      vertex 29.6971 0 10.3029
      vertex 28 0 9.6
    endloop
  endfacet
  facet normal 0 -1 0
    outer loop
      vertex 29.6971 0 5.69706
      vertex 29.6971 0 10.3029
      vertex 28 0 6.4
    endloop
  endfacet
  facet normal 0 -1 0
    outer loop
      vertex 21.6971 0 13.6971
      vertex 28 0 14.4
      vertex 20 0 14.4
    endloop
  endfacet
  facet normal 0 -1 0
    outer loop
      vertex 21.6971 0 13.6971
      vertex 26.3029 0 13.6971
      vertex 28 0 14.4
    endloop
  endfacet
  facet normal 0 -1 0
    outer loop
      vertex 22.4 0 12
      vertex 26.3029 0 13.6971
      vertex 21.6971 0 13.6971
    endloop
  endfacet
  facet normal 0 -1 0
    outer loop
      vertex 22.4 0 12
      vertex 25.6 0 12
      vertex 26.3029 0 13.6971
    endloop
  endfacet
  facet normal 0 -1 0
    outer loop
      vertex 21.6971 0 10.3029
      vertex 25.6 0 12
      vertex 22.4 0 12
    endloop
  endfacet
  facet normal 0 -1 0
    outer loop
      vertex 21.6971 0 10.3029
      vertex 26.3029 0 10.3029
      vertex 25.6 0 12
    endloop
  endfacet
  facet normal 0 -1 0
    outer loop
      vertex 20 0 6.4
      vertex 21.6971 0 10.3029
      vertex 20 0 9.6
    endloop
  endfacet
  facet normal 0 -1 0
    outer loop
      vertex 21.6971 0 5.69706
      vertex 21.6971 0 10.3029
      vertex 20 0 6.4
    endloop
  endfacet
  facet normal 0 -1 0
    outer loop
      vertex 13.6971 0 13.6971
      vertex 20 0 14.4
      vertex 12 0 14.4
    endloop
  endfacet
  facet normal 0 -1 0
    outer loop
      vertex 13.6971 0 13.6971
      vertex 18.3029 0 13.6971
      vertex 20 0 14.4
    endloop
  endfacet
  facet normal 0 -1 0
    outer loop
      vertex 14.4 0 12
      vertex 18.3029 0 13.6971
      vertex 13.6971 0 13.6971
    endloop
  endfacet
  facet normal 0 -1 0
    outer loop
      vertex 14.4 0 12
      vertex 17.6 0 12
      vertex 18.3029 0 13.6971
    endloop
  endfacet
  facet normal 0 -1 0
    outer loop
      vertex 13.6971 0 10.3029
      vertex 17.6 0 12
      vertex 14.4 0 12
    endloop
  endfacet
  facet normal 0 -1 0
    outer loop
      vertex 13.6971 0 10.3029
      vertex 18.3029 0 10.3029
      vertex 17.6 0 12
    endloop
  endfacet
  facet normal 0 -1 0
    outer loop
      vertex 12 0 6.4
      vertex 13.6971 0 10.3029
      vertex 12 0 9.6
    endloop
  endfacet
  facet normal 0 -1 0
    outer loop
      vertex 13.6971 0 5.69706
      vertex 13.6971 0 10.3029
      vertex 12 0 6.4
    endloop
  endfacet
  facet normal 0 -1 0
    outer loop
      vertex 5.69706 0 13.6971
      vertex 12 0 14.4
      vertex 4 0 14.4
    endloop
  endfacet
  facet normal 0 -1 0
    outer loop
      vertex 5.69706 0 13.6971
      vertex 10.3029 0 13.6971
      vertex 12 0 14.4
    endloop
  endfacet
  facet normal 0 -1 0
    outer loop
      vertex 6.4 0 12
      vertex 10.3029 0 13.6971
      vertex 5.69706 0 13.6971
    endloop
  endfacet
  facet normal 0 -1 0
    outer loop
      vertex 6.4 0 12
      vertex 9.6 0 12
      vertex 10.3029 0 13.6971
    endloop
  endfacet
  facet normal 0 -1 0
    outer loop
      vertex 5.69706 0 10.3029
      vertex 9.6 0 12
      vertex 6.4 0 12
    endloop
  endfacet
  facet normal 0 -1 0
    outer loop
      vertex 5.69706 0 10.3029
      vertex 10.3029 0 10.3029
      vertex 9.6 0 12
    endloop
  endfacet
  facet normal 0 -1 0
    outer loop
      vertex 4 0 6.4
      vertex 5.69706 0 10.3029
      vertex 4 0 9.6
    endloop
  endfacet
  facet normal 0 -1 0
    outer loop
      vertex 5.69706 0 5.69706
      vertex 5.69706 0 10.3029
      vertex 4 0 6.4
    endloop
  endfacet
  facet normal 0 -1 0
    outer loop
      vertex 12 0 14.4
      vertex 0 0 15
      vertex 4 0 14.4
    endloop
  endfacet
  facet normal 0 -1 0
    outer loop
      vertex 0 0 15
      vertex 2.30294 0 13.6971
      vertex 4 0 14.4
    endloop
  endfacet
  facet normal 0 -1 0
    outer loop
      vertex 0 0 15
      vertex 1.6 0 12
      vertex 2.30294 0 13.6971
    endloop
  endfacet
  facet normal 0 -1 0
    outer loop
      vertex 1.6 0 4
      vertex 1.6 0 12
      vertex 0 0 15
    endloop
  endfacet
  facet normal 0 -1 0
    outer loop
      vertex 10.3029 0 10.3029
      vertex 12 0 6.4
      vertex 12 0 9.6
    endloop
  endfacet
  facet normal 0 -1 0
    outer loop
      vertex 13.6971 0 10.3029
      vertex 13.6971 0 5.69706
      vertex 18.3029 0 10.3029
    endloop
  endfacet
  facet normal 0 -1 0
    outer loop
      vertex 21.6971 0 10.3029
      vertex 21.6971 0 5.69706
      vertex 26.3029 0 10.3029
    endloop
  endfacet
  facet normal 0 -1 0
    outer loop
      vertex 5.69706 0 10.3029
      vertex 5.69706 0 5.69706
      vertex 10.3029 0 10.3029
    endloop
  endfacet
  facet normal 0 -1 0
    outer loop
      vertex 2.30294 0 10.3029
      vertex 4 0 6.4
      vertex 4 0 9.6
    endloop
  endfacet
  facet normal 0 -1 0
    outer loop
      vertex 1.6 0 12
      vertex 1.6 0 4
      vertex 2.30294 0 10.3029
    endloop
  endfacet
  facet normal 0 -1 0
    outer loop
      vertex 2.30294 0 10.3029
      vertex 2.30294 0 5.69706
      vertex 4 0 6.4
    endloop
  endfacet
  facet normal 0 -1 -0
    outer loop
      vertex 2.30294 0 10.3029
      vertex 1.6 0 4
      vertex 2.30294 0 5.69706
    endloop
  endfacet
  facet normal 0 -1 0
    outer loop
      vertex 0 0 0
      vertex 12 0 1.6
      vertex 4 0 1.6
    endloop
  endfacet
  facet normal 0 -1 -0
    outer loop
      vertex 12 0 1.6
      vertex 0 0 0
      vertex 20 0 1.6
    endloop
  endfacet
  facet normal 0 -1 0
    outer loop
      vertex 40 0 0
      vertex 20 0 1.6
      vertex 0 0 0
    endloop
  endfacet
  facet normal 0 -1 0
    outer loop
      vertex 20 0 1.6
      vertex 40 0 0
      vertex 28 0 1.6
    endloop
  endfacet
  facet normal 0 -1 -0
    outer loop
      vertex 2.30294 0 2.30294
      vertex 0 0 0
      vertex 4 0 1.6
    endloop
  endfacet
  facet normal 0 -1 -0
    outer loop
      vertex 1.6 0 4
      vertex 0 0 0
      vertex 2.30294 0 2.30294
    endloop
  endfacet
  facet normal 0 -1 0
    outer loop
      vertex 0 0 0
      vertex 1.6 0 4
      vertex 0 0 15
    endloop
  endfacet
  facet normal 0 -1 0
    outer loop
      vertex 20 0 14.4
      vertex 0 0 15
      vertex 12 0 14.4
    endloop
  endfacet
  facet normal 0 -1 0
    outer loop
      vertex 0 0 15
      vertex 20 0 14.4
      vertex 40 0 15
    endloop
  endfacet
  facet normal 0 -1 0
    outer loop
      vertex 28 0 14.4
      vertex 40 0 15
      vertex 20 0 14.4
    endloop
  endfacet
  facet normal 0 -1 0
    outer loop
      vertex 36 0 14.4
      vertex 40 0 15
      vertex 28 0 14.4
    endloop
  endfacet
  facet normal 0 -1 0
    outer loop
      vertex 37.6971 0 13.6971
      vertex 40 0 15
      vertex 36 0 14.4
    endloop
  endfacet
  facet normal 0 -1 0
    outer loop
      vertex 38.4 0 12
      vertex 40 0 15
      vertex 37.6971 0 13.6971
    endloop
  endfacet
  facet normal 0 -1 0
    outer loop
      vertex 38.4 0 4
      vertex 38.4 0 12
      vertex 37.6971 0 10.3029
    endloop
  endfacet
  facet normal 0 -1 0
    outer loop
      vertex 18.3029 0 10.3029
      vertex 20 0 6.4
      vertex 20 0 9.6
    endloop
  endfacet
  facet normal 0 -1 0
    outer loop
      vertex 26.3029 0 10.3029
      vertex 28 0 6.4
      vertex 28 0 9.6
    endloop
  endfacet
  facet normal 0 -1 0
    outer loop
      vertex 29.6971 0 10.3029
      vertex 29.6971 0 5.69706
      vertex 34.3029 0 10.3029
    endloop
  endfacet
  facet normal 0 -1 0
    outer loop
      vertex 34.3029 0 10.3029
      vertex 36 0 6.4
      vertex 36 0 9.6
    endloop
  endfacet
  facet normal 0 -1 0
    outer loop
      vertex 36 0 6.4
      vertex 37.6971 0 10.3029
      vertex 36 0 9.6
    endloop
  endfacet
  facet normal 0 -1 0
    outer loop
      vertex 37.6971 0 5.69706
      vertex 37.6971 0 10.3029
      vertex 36 0 6.4
    endloop
  endfacet
  facet normal 0 -1 0
    outer loop
      vertex 38.4 0 4
      vertex 37.6971 0 10.3029
      vertex 37.6971 0 5.69706
    endloop
  endfacet
  facet normal 0 -1 0
    outer loop
      vertex 38.4 0 12
      vertex 38.4 0 4
      vertex 40 0 15
    endloop
  endfacet
  facet normal 0 -1 0
    outer loop
      vertex 38.4 0 4
      vertex 40 0 0
      vertex 40 0 15
    endloop
  endfacet
  facet normal 0 -1 0
    outer loop
      vertex 37.6971 0 2.30294
      vertex 40 0 0
      vertex 38.4 0 4
    endloop
  endfacet
  facet normal 0 -1 0
    outer loop
      vertex 36 0 1.6
      vertex 40 0 0
      vertex 37.6971 0 2.30294
    endloop
  endfacet
  facet normal 0 -1 0
    outer loop
      vertex 28 0 1.6
      vertex 40 0 0
      vertex 36 0 1.6
    endloop
  endfacet
  facet normal -1 0 0
    outer loop
      vertex 10 15 0
      vertex 10 55 15
      vertex 10 55 0
    endloop
  endfacet
  facet normal -1 -0 0
    outer loop
      vertex 10 55 15
      vertex 10 15 0
      vertex 10 15 15
    endloop
  endfacet
  facet normal 1 -0 0
    outer loop
      vertex 15 15 15
      vertex 15 60 0
      vertex 15 60 15
    endloop
  endfacet
  facet normal 1 0 0
    outer loop
      vertex 15 60 0
      vertex 15 15 15
      vertex 15 15 0
    endloop
  endfacet
  facet normal 0 -1 0
    outer loop
      vertex 7 55 0
      vertex 10 55 15
      vertex 7 55 15
    endloop
  endfacet
  facet normal 0 -1 -0
    outer loop
      vertex 10 55 15
      vertex 7 55 0
      vertex 10 55 0
    endloop
  endfacet
  facet normal -1 0 0
    outer loop
      vertex 25 15 0
      vertex 25 60 15
      vertex 25 60 0
    endloop
  endfacet
  facet normal -1 -0 0
    outer loop
      vertex 25 60 15
      vertex 25 15 0
      vertex 25 15 15
    endloop
  endfacet
  facet normal 1 -0 0
    outer loop
      vertex 30 15 15
      vertex 30 55 0
      vertex 30 55 15
    endloop
  endfacet
  facet normal 1 0 0
    outer loop
      vertex 30 55 0
      vertex 30 15 15
      vertex 30 15 0
    endloop
  endfacet
  facet normal 0 -1 0
    outer loop
      vertex 30 55 0
      vertex 33 55 15
      vertex 30 55 15
    endloop
  endfacet
  facet normal 0 -1 -0
    outer loop
      vertex 33 55 15
      vertex 30 55 0
      vertex 33 55 0
    endloop
  endfacet
  facet normal -0.529999 0.847998 0
    outer loop
      vertex 15 60 0
      vertex 7 55 15
      vertex 15 60 15
    endloop
  endfacet
  facet normal -0.529999 0.847998 0
    outer loop
      vertex 7 55 15
      vertex 15 60 0
      vertex 7 55 0
    endloop
  endfacet
  facet normal 0.529999 0.847998 -0
    outer loop
      vertex 33 55 0
      vertex 25 60 15
      vertex 33 55 15
    endloop
  endfacet
  facet normal 0.529999 0.847998 0
    outer loop
      vertex 25 60 15
      vertex 33 55 0
      vertex 25 60 0
    endloop
  endfacet
  facet normal 0.923879 -0 0.382684
    outer loop
      vertex 5.69706 -1.8 5.69706
      vertex 6.4 0 4
      vertex 5.69706 0 5.69706
    endloop
  endfacet
  facet normal 0.923879 0 0.382684
    outer loop
      vertex 6.4 0 4
      vertex 5.69706 -1.8 5.69706
      vertex 6.4 -1.8 4
    endloop
  endfacet
  facet normal -0.923879 0 0.382684
    outer loop
      vertex 1.6 -1.8 4
      vertex 2.30294 0 5.69706
      vertex 1.6 0 4
    endloop
  endfacet
  facet normal -0.923879 0 0.382684
    outer loop
      vertex 2.30294 0 5.69706
      vertex 1.6 -1.8 4
      vertex 2.30294 -1.8 5.69706
    endloop
  endfacet
  facet normal 0.382684 0 0.923879
    outer loop
      vertex 4 0 6.4
      vertex 5.69706 -1.8 5.69706
      vertex 5.69706 0 5.69706
    endloop
  endfacet
  facet normal 0.382684 0 0.923879
    outer loop
      vertex 5.69706 -1.8 5.69706
      vertex 4 0 6.4
      vertex 4 -1.8 6.4
    endloop
  endfacet
  facet normal 0 -1 0
    outer loop
      vertex 2.30294 -1.8 5.69706
      vertex 5.69706 -1.8 5.69706
      vertex 4 -1.8 6.4
    endloop
  endfacet
  facet normal 0 -1 0
    outer loop
      vertex 1.6 -1.8 4
      vertex 5.69706 -1.8 5.69706
      vertex 2.30294 -1.8 5.69706
    endloop
  endfacet
  facet normal 0 -1 0
    outer loop
      vertex 1.6 -1.8 4
      vertex 6.4 -1.8 4
      vertex 5.69706 -1.8 5.69706
    endloop
  endfacet
  facet normal 0 -1 0
    outer loop
      vertex 2.30294 -1.8 2.30294
      vertex 6.4 -1.8 4
      vertex 1.6 -1.8 4
    endloop
  endfacet
  facet normal 0 -1 0
    outer loop
      vertex 2.30294 -1.8 2.30294
      vertex 5.69706 -1.8 2.30294
      vertex 6.4 -1.8 4
    endloop
  endfacet
  facet normal -0 -1 0
    outer loop
      vertex 5.69706 -1.8 2.30294
      vertex 2.30294 -1.8 2.30294
      vertex 4 -1.8 1.6
    endloop
  endfacet
  facet normal -0.382684 0 0.923879
    outer loop
      vertex 2.30294 0 5.69706
      vertex 4 -1.8 6.4
      vertex 4 0 6.4
    endloop
  endfacet
  facet normal -0.382684 0 0.923879
    outer loop
      vertex 4 -1.8 6.4
      vertex 2.30294 0 5.69706
      vertex 2.30294 -1.8 5.69706
    endloop
  endfacet
  facet normal 0.382684 0 -0.923879
    outer loop
      vertex 4 -1.8 1.6
      vertex 5.69706 0 2.30294
      vertex 5.69706 -1.8 2.30294
    endloop
  endfacet
  facet normal 0.382684 0 -0.923879
    outer loop
      vertex 5.69706 0 2.30294
      vertex 4 -1.8 1.6
      vertex 4 0 1.6
    endloop
  endfacet
  facet normal -0.923879 0 -0.382684
    outer loop
      vertex 2.30294 -1.8 2.30294
      vertex 1.6 0 4
      vertex 2.30294 0 2.30294
    endloop
  endfacet
  facet normal -0.923879 -0 -0.382684
    outer loop
      vertex 1.6 0 4
      vertex 2.30294 -1.8 2.30294
      vertex 1.6 -1.8 4
    endloop
  endfacet
  facet normal 0.923879 0 -0.382684
    outer loop
      vertex 6.4 -1.8 4
      vertex 5.69706 0 2.30294
      vertex 6.4 0 4
    endloop
  endfacet
  facet normal 0.923879 0 -0.382684
    outer loop
      vertex 5.69706 0 2.30294
      vertex 6.4 -1.8 4
      vertex 5.69706 -1.8 2.30294
    endloop
  endfacet
  facet normal -0.382684 0 -0.923879
    outer loop
      vertex 2.30294 -1.8 2.30294
      vertex 4 0 1.6
      vertex 4 -1.8 1.6
    endloop
  endfacet
  facet normal -0.382684 0 -0.923879
    outer loop
      vertex 4 0 1.6
      vertex 2.30294 -1.8 2.30294
      vertex 2.30294 0 2.30294
    endloop
  endfacet
  facet normal 0.923879 -0 0.382684
    outer loop
      vertex 5.69706 -1.8 13.6971
      vertex 6.4 0 12
      vertex 5.69706 0 13.6971
    endloop
  endfacet
  facet normal 0.923879 0 0.382684
    outer loop
      vertex 6.4 0 12
      vertex 5.69706 -1.8 13.6971
      vertex 6.4 -1.8 12
    endloop
  endfacet
  facet normal -0.382684 0 0.923879
    outer loop
      vertex 2.30294 0 13.6971
      vertex 4 -1.8 14.4
      vertex 4 0 14.4
    endloop
  endfacet
  facet normal -0.382684 0 0.923879
    outer loop
      vertex 4 -1.8 14.4
      vertex 2.30294 0 13.6971
      vertex 2.30294 -1.8 13.6971
    endloop
  endfacet
  facet normal 0.382684 0 0.923879
    outer loop
      vertex 4 0 14.4
      vertex 5.69706 -1.8 13.6971
      vertex 5.69706 0 13.6971
    endloop
  endfacet
  facet normal 0.382684 0 0.923879
    outer loop
      vertex 5.69706 -1.8 13.6971
      vertex 4 0 14.4
      vertex 4 -1.8 14.4
    endloop
  endfacet
  facet normal 0 -1 0
    outer loop
      vertex 2.30294 -1.8 13.6971
      vertex 5.69706 -1.8 13.6971
      vertex 4 -1.8 14.4
    endloop
  endfacet
  facet normal 0 -1 0
    outer loop
      vertex 1.6 -1.8 12
      vertex 5.69706 -1.8 13.6971
      vertex 2.30294 -1.8 13.6971
    endloop
  endfacet
  facet normal 0 -1 0
    outer loop
      vertex 1.6 -1.8 12
      vertex 6.4 -1.8 12
      vertex 5.69706 -1.8 13.6971
    endloop
  endfacet
  facet normal 0 -1 0
    outer loop
      vertex 2.30294 -1.8 10.3029
      vertex 6.4 -1.8 12
      vertex 1.6 -1.8 12
    endloop
  endfacet
  facet normal 0 -1 0
    outer loop
      vertex 2.30294 -1.8 10.3029
      vertex 5.69706 -1.8 10.3029
      vertex 6.4 -1.8 12
    endloop
  endfacet
  facet normal -0 -1 0
    outer loop
      vertex 5.69706 -1.8 10.3029
      vertex 2.30294 -1.8 10.3029
      vertex 4 -1.8 9.6
    endloop
  endfacet
  facet normal -0.923879 0 0.382684
    outer loop
      vertex 1.6 -1.8 12
      vertex 2.30294 0 13.6971
      vertex 1.6 0 12
    endloop
  endfacet
  facet normal -0.923879 0 0.382684
    outer loop
      vertex 2.30294 0 13.6971
      vertex 1.6 -1.8 12
      vertex 2.30294 -1.8 13.6971
    endloop
  endfacet
  facet normal 0.92388 0 -0.382683
    outer loop
      vertex 6.4 -1.8 12
      vertex 5.69706 0 10.3029
      vertex 6.4 0 12
    endloop
  endfacet
  facet normal 0.92388 0 -0.382683
    outer loop
      vertex 5.69706 0 10.3029
      vertex 6.4 -1.8 12
      vertex 5.69706 -1.8 10.3029
    endloop
  endfacet
  facet normal -0.382684 0 -0.923879
    outer loop
      vertex 2.30294 -1.8 10.3029
      vertex 4 0 9.6
      vertex 4 -1.8 9.6
    endloop
  endfacet
  facet normal -0.382684 0 -0.923879
    outer loop
      vertex 4 0 9.6
      vertex 2.30294 -1.8 10.3029
      vertex 2.30294 0 10.3029
    endloop
  endfacet
  facet normal -0.92388 0 -0.382683
    outer loop
      vertex 2.30294 -1.8 10.3029
      vertex 1.6 0 12
      vertex 2.30294 0 10.3029
    endloop
  endfacet
  facet normal -0.92388 -0 -0.382683
    outer loop
      vertex 1.6 0 12
      vertex 2.30294 -1.8 10.3029
      vertex 1.6 -1.8 12
    endloop
  endfacet
  facet normal 0.382684 0 -0.923879
    outer loop
      vertex 4 -1.8 9.6
      vertex 5.69706 0 10.3029
      vertex 5.69706 -1.8 10.3029
    endloop
  endfacet
  facet normal 0.382684 0 -0.923879
    outer loop
      vertex 5.69706 0 10.3029
      vertex 4 -1.8 9.6
      vertex 4 0 9.6
    endloop
  endfacet
  facet normal 0.923879 -0 0.382684
    outer loop
      vertex 13.6971 -1.8 5.69706
      vertex 14.4 0 4
      vertex 13.6971 0 5.69706
    endloop
  endfacet
  facet normal 0.923879 0 0.382684
    outer loop
      vertex 14.4 0 4
      vertex 13.6971 -1.8 5.69706
      vertex 14.4 -1.8 4
    endloop
  endfacet
  facet normal -0.923879 0 0.382684
    outer loop
      vertex 9.6 -1.8 4
      vertex 10.3029 0 5.69706
      vertex 9.6 0 4
    endloop
  endfacet
  facet normal -0.923879 0 0.382684
    outer loop
      vertex 10.3029 0 5.69706
      vertex 9.6 -1.8 4
      vertex 10.3029 -1.8 5.69706
    endloop
  endfacet
  facet normal 0.382684 0 0.923879
    outer loop
      vertex 12 0 6.4
      vertex 13.6971 -1.8 5.69706
      vertex 13.6971 0 5.69706
    endloop
  endfacet
  facet normal 0.382684 0 0.923879
    outer loop
      vertex 13.6971 -1.8 5.69706
      vertex 12 0 6.4
      vertex 12 -1.8 6.4
    endloop
  endfacet
  facet normal -0.382683 0 0.92388
    outer loop
      vertex 10.3029 0 5.69706
      vertex 12 -1.8 6.4
      vertex 12 0 6.4
    endloop
  endfacet
  facet normal -0.382683 0 0.92388
    outer loop
      vertex 12 -1.8 6.4
      vertex 10.3029 0 5.69706
      vertex 10.3029 -1.8 5.69706
    endloop
  endfacet
  facet normal 0.382684 0 -0.923879
    outer loop
      vertex 12 -1.8 1.6
      vertex 13.6971 0 2.30294
      vertex 13.6971 -1.8 2.30294
    endloop
  endfacet
  facet normal 0.382684 0 -0.923879
    outer loop
      vertex 13.6971 0 2.30294
      vertex 12 -1.8 1.6
      vertex 12 0 1.6
    endloop
  endfacet
  facet normal -0.923879 0 -0.382684
    outer loop
      vertex 10.3029 -1.8 2.30294
      vertex 9.6 0 4
      vertex 10.3029 0 2.30294
    endloop
  endfacet
  facet normal -0.923879 -0 -0.382684
    outer loop
      vertex 9.6 0 4
      vertex 10.3029 -1.8 2.30294
      vertex 9.6 -1.8 4
    endloop
  endfacet
  facet normal 0.923879 0 -0.382684
    outer loop
      vertex 14.4 -1.8 4
      vertex 13.6971 0 2.30294
      vertex 14.4 0 4
    endloop
  endfacet
  facet normal 0.923879 0 -0.382684
    outer loop
      vertex 13.6971 0 2.30294
      vertex 14.4 -1.8 4
      vertex 13.6971 -1.8 2.30294
    endloop
  endfacet
  facet normal -0.382683 0 -0.92388
    outer loop
      vertex 10.3029 -1.8 2.30294
      vertex 12 0 1.6
      vertex 12 -1.8 1.6
    endloop
  endfacet
  facet normal -0.382683 0 -0.92388
    outer loop
      vertex 12 0 1.6
      vertex 10.3029 -1.8 2.30294
      vertex 10.3029 0 2.30294
    endloop
  endfacet
  facet normal 0 -1 0
    outer loop
      vertex 10.3029 -1.8 5.69706
      vertex 13.6971 -1.8 5.69706
      vertex 12 -1.8 6.4
    endloop
  endfacet
  facet normal 0 -1 0
    outer loop
      vertex 9.6 -1.8 4
      vertex 13.6971 -1.8 5.69706
      vertex 10.3029 -1.8 5.69706
    endloop
  endfacet
  facet normal 0 -1 0
    outer loop
      vertex 9.6 -1.8 4
      vertex 14.4 -1.8 4
      vertex 13.6971 -1.8 5.69706
    endloop
  endfacet
  facet normal 0 -1 0
    outer loop
      vertex 10.3029 -1.8 2.30294
      vertex 14.4 -1.8 4
      vertex 9.6 -1.8 4
    endloop
  endfacet
  facet normal 0 -1 0
    outer loop
      vertex 10.3029 -1.8 2.30294
      vertex 13.6971 -1.8 2.30294
      vertex 14.4 -1.8 4
    endloop
  endfacet
  facet normal -0 -1 0
    outer loop
      vertex 13.6971 -1.8 2.30294
      vertex 10.3029 -1.8 2.30294
      vertex 12 -1.8 1.6
    endloop
  endfacet
  facet normal 0.923879 -0 0.382684
    outer loop
      vertex 13.6971 -1.8 13.6971
      vertex 14.4 0 12
      vertex 13.6971 0 13.6971
    endloop
  endfacet
  facet normal 0.923879 0 0.382684
    outer loop
      vertex 14.4 0 12
      vertex 13.6971 -1.8 13.6971
      vertex 14.4 -1.8 12
    endloop
  endfacet
  facet normal -0.92388 0 -0.382683
    outer loop
      vertex 10.3029 -1.8 10.3029
      vertex 9.6 0 12
      vertex 10.3029 0 10.3029
    endloop
  endfacet
  facet normal -0.92388 -0 -0.382683
    outer loop
      vertex 9.6 0 12
      vertex 10.3029 -1.8 10.3029
      vertex 9.6 -1.8 12
    endloop
  endfacet
  facet normal -0.382683 0 0.92388
    outer loop
      vertex 10.3029 0 13.6971
      vertex 12 -1.8 14.4
      vertex 12 0 14.4
    endloop
  endfacet
  facet normal -0.382683 0 0.92388
    outer loop
      vertex 12 -1.8 14.4
      vertex 10.3029 0 13.6971
      vertex 10.3029 -1.8 13.6971
    endloop
  endfacet
  facet normal 0.382684 0 0.923879
    outer loop
      vertex 12 0 14.4
      vertex 13.6971 -1.8 13.6971
      vertex 13.6971 0 13.6971
    endloop
  endfacet
  facet normal 0.382684 0 0.923879
    outer loop
      vertex 13.6971 -1.8 13.6971
      vertex 12 0 14.4
      vertex 12 -1.8 14.4
    endloop
  endfacet
  facet normal 0 -1 0
    outer loop
      vertex 10.3029 -1.8 13.6971
      vertex 13.6971 -1.8 13.6971
      vertex 12 -1.8 14.4
    endloop
  endfacet
  facet normal 0 -1 0
    outer loop
      vertex 9.6 -1.8 12
      vertex 13.6971 -1.8 13.6971
      vertex 10.3029 -1.8 13.6971
    endloop
  endfacet
  facet normal 0 -1 0
    outer loop
      vertex 9.6 -1.8 12
      vertex 14.4 -1.8 12
      vertex 13.6971 -1.8 13.6971
    endloop
  endfacet
  facet normal 0 -1 0
    outer loop
      vertex 10.3029 -1.8 10.3029
      vertex 14.4 -1.8 12
      vertex 9.6 -1.8 12
    endloop
  endfacet
  facet normal 0 -1 0
    outer loop
      vertex 10.3029 -1.8 10.3029
      vertex 13.6971 -1.8 10.3029
      vertex 14.4 -1.8 12
    endloop
  endfacet
  facet normal -0 -1 0
    outer loop
      vertex 13.6971 -1.8 10.3029
      vertex 10.3029 -1.8 10.3029
      vertex 12 -1.8 9.6
    endloop
  endfacet
  facet normal -0.923879 0 0.382684
    outer loop
      vertex 9.6 -1.8 12
      vertex 10.3029 0 13.6971
      vertex 9.6 0 12
    endloop
  endfacet
  facet normal -0.923879 0 0.382684
    outer loop
      vertex 10.3029 0 13.6971
      vertex 9.6 -1.8 12
      vertex 10.3029 -1.8 13.6971
    endloop
  endfacet
  facet normal 0.92388 0 -0.382683
    outer loop
      vertex 14.4 -1.8 12
      vertex 13.6971 0 10.3029
      vertex 14.4 0 12
    endloop
  endfacet
  facet normal 0.92388 0 -0.382683
    outer loop
      vertex 13.6971 0 10.3029
      vertex 14.4 -1.8 12
      vertex 13.6971 -1.8 10.3029
    endloop
  endfacet
  facet normal 0.382684 0 -0.923879
    outer loop
      vertex 12 -1.8 9.6
      vertex 13.6971 0 10.3029
      vertex 13.6971 -1.8 10.3029
    endloop
  endfacet
  facet normal 0.382684 0 -0.923879
    outer loop
      vertex 13.6971 0 10.3029
      vertex 12 -1.8 9.6
      vertex 12 0 9.6
    endloop
  endfacet
  facet normal -0.382683 0 -0.92388
    outer loop
      vertex 10.3029 -1.8 10.3029
      vertex 12 0 9.6
      vertex 12 -1.8 9.6
    endloop
  endfacet
  facet normal -0.382683 0 -0.92388
    outer loop
      vertex 12 0 9.6
      vertex 10.3029 -1.8 10.3029
      vertex 10.3029 0 10.3029
    endloop
  endfacet
  facet normal 0.923879 -0 0.382684
    outer loop
      vertex 21.6971 -1.8 5.69706
      vertex 22.4 0 4
      vertex 21.6971 0 5.69706
    endloop
  endfacet
  facet normal 0.923879 0 0.382684
    outer loop
      vertex 22.4 0 4
      vertex 21.6971 -1.8 5.69706
      vertex 22.4 -1.8 4
    endloop
  endfacet
  facet normal -0.923879 0 0.382684
    outer loop
      vertex 17.6 -1.8 4
      vertex 18.3029 0 5.69706
      vertex 17.6 0 4
    endloop
  endfacet
  facet normal -0.923879 0 0.382684
    outer loop
      vertex 18.3029 0 5.69706
      vertex 17.6 -1.8 4
      vertex 18.3029 -1.8 5.69706
    endloop
  endfacet
  facet normal 0.382684 0 0.923879
    outer loop
      vertex 20 0 6.4
      vertex 21.6971 -1.8 5.69706
      vertex 21.6971 0 5.69706
    endloop
  endfacet
  facet normal 0.382684 0 0.923879
    outer loop
      vertex 21.6971 -1.8 5.69706
      vertex 20 0 6.4
      vertex 20 -1.8 6.4
    endloop
  endfacet
  facet normal -0.382684 0 0.923879
    outer loop
      vertex 18.3029 0 5.69706
      vertex 20 -1.8 6.4
      vertex 20 0 6.4
    endloop
  endfacet
  facet normal -0.382684 0 0.923879
    outer loop
      vertex 20 -1.8 6.4
      vertex 18.3029 0 5.69706
      vertex 18.3029 -1.8 5.69706
    endloop
  endfacet
  facet normal 0.382684 0 -0.923879
    outer loop
      vertex 20 -1.8 1.6
      vertex 21.6971 0 2.30294
      vertex 21.6971 -1.8 2.30294
    endloop
  endfacet
  facet normal 0.382684 0 -0.923879
    outer loop
      vertex 21.6971 0 2.30294
      vertex 20 -1.8 1.6
      vertex 20 0 1.6
    endloop
  endfacet
  facet normal -0.923879 0 -0.382684
    outer loop
      vertex 18.3029 -1.8 2.30294
      vertex 17.6 0 4
      vertex 18.3029 0 2.30294
    endloop
  endfacet
  facet normal -0.923879 -0 -0.382684
    outer loop
      vertex 17.6 0 4
      vertex 18.3029 -1.8 2.30294
      vertex 17.6 -1.8 4
    endloop
  endfacet
  facet normal 0.923879 0 -0.382684
    outer loop
      vertex 22.4 -1.8 4
      vertex 21.6971 0 2.30294
      vertex 22.4 0 4
    endloop
  endfacet
  facet normal 0.923879 0 -0.382684
    outer loop
      vertex 21.6971 0 2.30294
      vertex 22.4 -1.8 4
      vertex 21.6971 -1.8 2.30294
    endloop
  endfacet
  facet normal -0.382684 0 -0.923879
    outer loop
      vertex 18.3029 -1.8 2.30294
      vertex 20 0 1.6
      vertex 20 -1.8 1.6
    endloop
  endfacet
  facet normal -0.382684 0 -0.923879
    outer loop
      vertex 20 0 1.6
      vertex 18.3029 -1.8 2.30294
      vertex 18.3029 0 2.30294
    endloop
  endfacet
  facet normal 0 -1 0
    outer loop
      vertex 18.3029 -1.8 5.69706
      vertex 21.6971 -1.8 5.69706
      vertex 20 -1.8 6.4
    endloop
  endfacet
  facet normal 0 -1 0
    outer loop
      vertex 17.6 -1.8 4
      vertex 21.6971 -1.8 5.69706
      vertex 18.3029 -1.8 5.69706
    endloop
  endfacet
  facet normal 0 -1 0
    outer loop
      vertex 17.6 -1.8 4
      vertex 22.4 -1.8 4
      vertex 21.6971 -1.8 5.69706
    endloop
  endfacet
  facet normal 0 -1 0
    outer loop
      vertex 18.3029 -1.8 2.30294
      vertex 22.4 -1.8 4
      vertex 17.6 -1.8 4
    endloop
  endfacet
  facet normal 0 -1 0
    outer loop
      vertex 18.3029 -1.8 2.30294
      vertex 21.6971 -1.8 2.30294
      vertex 22.4 -1.8 4
    endloop
  endfacet
  facet normal -0 -1 0
    outer loop
      vertex 21.6971 -1.8 2.30294
      vertex 18.3029 -1.8 2.30294
      vertex 20 -1.8 1.6
    endloop
  endfacet
  facet normal 0.923879 -0 0.382684
    outer loop
      vertex 21.6971 -1.8 13.6971
      vertex 22.4 0 12
      vertex 21.6971 0 13.6971
    endloop
  endfacet
  facet normal 0.923879 0 0.382684
    outer loop
      vertex 22.4 0 12
      vertex 21.6971 -1.8 13.6971
      vertex 22.4 -1.8 12
    endloop
  endfacet
  facet normal -0.923879 0 -0.382684
    outer loop
      vertex 18.3029 -1.8 10.3029
      vertex 17.6 0 12
      vertex 18.3029 0 10.3029
    endloop
  endfacet
  facet normal -0.923879 -0 -0.382684
    outer loop
      vertex 17.6 0 12
      vertex 18.3029 -1.8 10.3029
      vertex 17.6 -1.8 12
    endloop
  endfacet
  facet normal -0.382684 0 0.923879
    outer loop
      vertex 18.3029 0 13.6971
      vertex 20 -1.8 14.4
      vertex 20 0 14.4
    endloop
  endfacet
  facet normal -0.382684 0 0.923879
    outer loop
      vertex 20 -1.8 14.4
      vertex 18.3029 0 13.6971
      vertex 18.3029 -1.8 13.6971
    endloop
  endfacet
  facet normal 0.382684 0 0.923879
    outer loop
      vertex 20 0 14.4
      vertex 21.6971 -1.8 13.6971
      vertex 21.6971 0 13.6971
    endloop
  endfacet
  facet normal 0.382684 0 0.923879
    outer loop
      vertex 21.6971 -1.8 13.6971
      vertex 20 0 14.4
      vertex 20 -1.8 14.4
    endloop
  endfacet
  facet normal 0 -1 0
    outer loop
      vertex 18.3029 -1.8 13.6971
      vertex 21.6971 -1.8 13.6971
      vertex 20 -1.8 14.4
    endloop
  endfacet
  facet normal 0 -1 0
    outer loop
      vertex 17.6 -1.8 12
      vertex 21.6971 -1.8 13.6971
      vertex 18.3029 -1.8 13.6971
    endloop
  endfacet
  facet normal 0 -1 0
    outer loop
      vertex 17.6 -1.8 12
      vertex 22.4 -1.8 12
      vertex 21.6971 -1.8 13.6971
    endloop
  endfacet
  facet normal 0 -1 0
    outer loop
      vertex 18.3029 -1.8 10.3029
      vertex 22.4 -1.8 12
      vertex 17.6 -1.8 12
    endloop
  endfacet
  facet normal 0 -1 0
    outer loop
      vertex 18.3029 -1.8 10.3029
      vertex 21.6971 -1.8 10.3029
      vertex 22.4 -1.8 12
    endloop
  endfacet
  facet normal -0 -1 0
    outer loop
      vertex 21.6971 -1.8 10.3029
      vertex 18.3029 -1.8 10.3029
      vertex 20 -1.8 9.6
    endloop
  endfacet
  facet normal -0.923879 0 0.382684
    outer loop
      vertex 17.6 -1.8 12
      vertex 18.3029 0 13.6971
      vertex 17.6 0 12
    endloop
  endfacet
  facet normal -0.923879 0 0.382684
    outer loop
      vertex 18.3029 0 13.6971
      vertex 17.6 -1.8 12
      vertex 18.3029 -1.8 13.6971
    endloop
  endfacet
  facet normal 0.92388 0 -0.382683
    outer loop
      vertex 22.4 -1.8 12
      vertex 21.6971 0 10.3029
      vertex 22.4 0 12
    endloop
  endfacet
  facet normal 0.92388 0 -0.382683
    outer loop
      vertex 21.6971 0 10.3029
      vertex 22.4 -1.8 12
      vertex 21.6971 -1.8 10.3029
    endloop
  endfacet
  facet normal 0.382684 0 -0.923879
    outer loop
      vertex 20 -1.8 9.6
      vertex 21.6971 0 10.3029
      vertex 21.6971 -1.8 10.3029
    endloop
  endfacet
  facet normal 0.382684 0 -0.923879
    outer loop
      vertex 21.6971 0 10.3029
      vertex 20 -1.8 9.6
      vertex 20 0 9.6
    endloop
  endfacet
  facet normal -0.382684 0 -0.923879
    outer loop
      vertex 18.3029 -1.8 10.3029
      vertex 20 0 9.6
      vertex 20 -1.8 9.6
    endloop
  endfacet
  facet normal -0.382684 0 -0.923879
    outer loop
      vertex 20 0 9.6
      vertex 18.3029 -1.8 10.3029
      vertex 18.3029 0 10.3029
    endloop
  endfacet
  facet normal 0.923879 -0 0.382684
    outer loop
      vertex 29.6971 -1.8 5.69706
      vertex 30.4 0 4
      vertex 29.6971 0 5.69706
    endloop
  endfacet
  facet normal 0.923879 0 0.382684
    outer loop
      vertex 30.4 0 4
      vertex 29.6971 -1.8 5.69706
      vertex 30.4 -1.8 4
    endloop
  endfacet
  facet normal -0.923879 0 0.382684
    outer loop
      vertex 25.6 -1.8 4
      vertex 26.3029 0 5.69706
      vertex 25.6 0 4
    endloop
  endfacet
  facet normal -0.923879 0 0.382684
    outer loop
      vertex 26.3029 0 5.69706
      vertex 25.6 -1.8 4
      vertex 26.3029 -1.8 5.69706
    endloop
  endfacet
  facet normal 0.382684 0 0.923879
    outer loop
      vertex 28 0 6.4
      vertex 29.6971 -1.8 5.69706
      vertex 29.6971 0 5.69706
    endloop
  endfacet
  facet normal 0.382684 0 0.923879
    outer loop
      vertex 29.6971 -1.8 5.69706
      vertex 28 0 6.4
      vertex 28 -1.8 6.4
    endloop
  endfacet
  facet normal -0.382684 0 0.923879
    outer loop
      vertex 26.3029 0 5.69706
      vertex 28 -1.8 6.4
      vertex 28 0 6.4
    endloop
  endfacet
  facet normal -0.382684 0 0.923879
    outer loop
      vertex 28 -1.8 6.4
      vertex 26.3029 0 5.69706
      vertex 26.3029 -1.8 5.69706
    endloop
  endfacet
  facet normal 0.382684 0 -0.923879
    outer loop
      vertex 28 -1.8 1.6
      vertex 29.6971 0 2.30294
      vertex 29.6971 -1.8 2.30294
    endloop
  endfacet
  facet normal 0.382684 0 -0.923879
    outer loop
      vertex 29.6971 0 2.30294
      vertex 28 -1.8 1.6
      vertex 28 0 1.6
    endloop
  endfacet
  facet normal -0.923879 0 -0.382684
    outer loop
      vertex 26.3029 -1.8 2.30294
      vertex 25.6 0 4
      vertex 26.3029 0 2.30294
    endloop
  endfacet
  facet normal -0.923879 -0 -0.382684
    outer loop
      vertex 25.6 0 4
      vertex 26.3029 -1.8 2.30294
      vertex 25.6 -1.8 4
    endloop
  endfacet
  facet normal 0.923879 0 -0.382684
    outer loop
      vertex 30.4 -1.8 4
      vertex 29.6971 0 2.30294
      vertex 30.4 0 4
    endloop
  endfacet
  facet normal 0.923879 0 -0.382684
    outer loop
      vertex 29.6971 0 2.30294
      vertex 30.4 -1.8 4
      vertex 29.6971 -1.8 2.30294
    endloop
  endfacet
  facet normal -0.382684 0 -0.923879
    outer loop
      vertex 26.3029 -1.8 2.30294
      vertex 28 0 1.6
      vertex 28 -1.8 1.6
    endloop
  endfacet
  facet normal -0.382684 0 -0.923879
    outer loop
      vertex 28 0 1.6
      vertex 26.3029 -1.8 2.30294
      vertex 26.3029 0 2.30294
    endloop
  endfacet
  facet normal 0 -1 0
    outer loop
      vertex 26.3029 -1.8 5.69706
      vertex 29.6971 -1.8 5.69706
      vertex 28 -1.8 6.4
    endloop
  endfacet
  facet normal 0 -1 0
    outer loop
      vertex 25.6 -1.8 4
      vertex 29.6971 -1.8 5.69706
      vertex 26.3029 -1.8 5.69706
    endloop
  endfacet
  facet normal 0 -1 0
    outer loop
      vertex 25.6 -1.8 4
      vertex 30.4 -1.8 4
      vertex 29.6971 -1.8 5.69706
    endloop
  endfacet
  facet normal 0 -1 0
    outer loop
      vertex 26.3029 -1.8 2.30294
      vertex 30.4 -1.8 4
      vertex 25.6 -1.8 4
    endloop
  endfacet
  facet normal 0 -1 0
    outer loop
      vertex 26.3029 -1.8 2.30294
      vertex 29.6971 -1.8 2.30294
      vertex 30.4 -1.8 4
    endloop
  endfacet
  facet normal -0 -1 0
    outer loop
      vertex 29.6971 -1.8 2.30294
      vertex 26.3029 -1.8 2.30294
      vertex 28 -1.8 1.6
    endloop
  endfacet
  facet normal 0.923879 -0 0.382684
    outer loop
      vertex 29.6971 -1.8 13.6971
      vertex 30.4 0 12
      vertex 29.6971 0 13.6971
    endloop
  endfacet
  facet normal 0.923879 0 0.382684
    outer loop
      vertex 30.4 0 12
      vertex 29.6971 -1.8 13.6971
      vertex 30.4 -1.8 12
    endloop
  endfacet
  facet normal -0.923879 0 -0.382684
    outer loop
      vertex 26.3029 -1.8 10.3029
      vertex 25.6 0 12
      vertex 26.3029 0 10.3029
    endloop
  endfacet
  facet normal -0.923879 -0 -0.382684
    outer loop
      vertex 25.6 0 12
      vertex 26.3029 -1.8 10.3029
      vertex 25.6 -1.8 12
    endloop
  endfacet
  facet normal -0.382684 0 0.923879
    outer loop
      vertex 26.3029 0 13.6971
      vertex 28 -1.8 14.4
      vertex 28 0 14.4
    endloop
  endfacet
  facet normal -0.382684 0 0.923879
    outer loop
      vertex 28 -1.8 14.4
      vertex 26.3029 0 13.6971
      vertex 26.3029 -1.8 13.6971
    endloop
  endfacet
  facet normal 0.382684 0 0.923879
    outer loop
      vertex 28 0 14.4
      vertex 29.6971 -1.8 13.6971
      vertex 29.6971 0 13.6971
    endloop
  endfacet
  facet normal 0.382684 0 0.923879
    outer loop
      vertex 29.6971 -1.8 13.6971
      vertex 28 0 14.4
      vertex 28 -1.8 14.4
    endloop
  endfacet
  facet normal 0 -1 0
    outer loop
      vertex 26.3029 -1.8 13.6971
      vertex 29.6971 -1.8 13.6971
      vertex 28 -1.8 14.4
    endloop
  endfacet
  facet normal 0 -1 0
    outer loop
      vertex 25.6 -1.8 12
      vertex 29.6971 -1.8 13.6971
      vertex 26.3029 -1.8 13.6971
    endloop
  endfacet
  facet normal 0 -1 0
    outer loop
      vertex 25.6 -1.8 12
      vertex 30.4 -1.8 12
      vertex 29.6971 -1.8 13.6971
    endloop
  endfacet
  facet normal 0 -1 0
    outer loop
      vertex 26.3029 -1.8 10.3029
      vertex 30.4 -1.8 12
      vertex 25.6 -1.8 12
    endloop
  endfacet
  facet normal 0 -1 0
    outer loop
      vertex 26.3029 -1.8 10.3029
      vertex 29.6971 -1.8 10.3029
      vertex 30.4 -1.8 12
    endloop
  endfacet
  facet normal -0 -1 0
    outer loop
      vertex 29.6971 -1.8 10.3029
      vertex 26.3029 -1.8 10.3029
      vertex 28 -1.8 9.6
    endloop
  endfacet
  facet normal -0.923879 0 0.382684
    outer loop
      vertex 25.6 -1.8 12
      vertex 26.3029 0 13.6971
      vertex 25.6 0 12
    endloop
  endfacet
  facet normal -0.923879 0 0.382684
    outer loop
      vertex 26.3029 0 13.6971
      vertex 25.6 -1.8 12
      vertex 26.3029 -1.8 13.6971
    endloop
  endfacet
  facet normal 0.92388 0 -0.382683
    outer loop
      vertex 30.4 -1.8 12
      vertex 29.6971 0 10.3029
      vertex 30.4 0 12
    endloop
  endfacet
  facet normal 0.92388 0 -0.382683
    outer loop
      vertex 29.6971 0 10.3029
      vertex 30.4 -1.8 12
      vertex 29.6971 -1.8 10.3029
    endloop
  endfacet
  facet normal 0.382684 0 -0.923879
    outer loop
      vertex 28 -1.8 9.6
      vertex 29.6971 0 10.3029
      vertex 29.6971 -1.8 10.3029
    endloop
  endfacet
  facet normal 0.382684 0 -0.923879
    outer loop
      vertex 29.6971 0 10.3029
      vertex 28 -1.8 9.6
      vertex 28 0 9.6
    endloop
  endfacet
  facet normal -0.382684 0 -0.923879
    outer loop
      vertex 26.3029 -1.8 10.3029
      vertex 28 0 9.6
      vertex 28 -1.8 9.6
    endloop
  endfacet
  facet normal -0.382684 0 -0.923879
    outer loop
      vertex 28 0 9.6
      vertex 26.3029 -1.8 10.3029
      vertex 26.3029 0 10.3029
    endloop
  endfacet
  facet normal 0.923879 -0 0.382684
    outer loop
      vertex 37.6971 -1.8 5.69706
      vertex 38.4 0 4
      vertex 37.6971 0 5.69706
    endloop
  endfacet
  facet normal 0.923879 0 0.382684
    outer loop
      vertex 38.4 0 4
      vertex 37.6971 -1.8 5.69706
      vertex 38.4 -1.8 4
    endloop
  endfacet
  facet normal -0.923879 0 0.382684
    outer loop
      vertex 33.6 -1.8 4
      vertex 34.3029 0 5.69706
      vertex 33.6 0 4
    endloop
  endfacet
  facet normal -0.923879 0 0.382684
    outer loop
      vertex 34.3029 0 5.69706
      vertex 33.6 -1.8 4
      vertex 34.3029 -1.8 5.69706
    endloop
  endfacet
  facet normal 0.382684 0 0.923879
    outer loop
      vertex 36 0 6.4
      vertex 37.6971 -1.8 5.69706
      vertex 37.6971 0 5.69706
    endloop
  endfacet
  facet normal 0.382684 0 0.923879
    outer loop
      vertex 37.6971 -1.8 5.69706
      vertex 36 0 6.4
      vertex 36 -1.8 6.4
    endloop
  endfacet
  facet normal -0.382684 0 0.923879
    outer loop
      vertex 34.3029 0 5.69706
      vertex 36 -1.8 6.4
      vertex 36 0 6.4
    endloop
  endfacet
  facet normal -0.382684 0 0.923879
    outer loop
      vertex 36 -1.8 6.4
      vertex 34.3029 0 5.69706
      vertex 34.3029 -1.8 5.69706
    endloop
  endfacet
  facet normal 0.382684 0 -0.923879
    outer loop
      vertex 36 -1.8 1.6
      vertex 37.6971 0 2.30294
      vertex 37.6971 -1.8 2.30294
    endloop
  endfacet
  facet normal 0.382684 0 -0.923879
    outer loop
      vertex 37.6971 0 2.30294
      vertex 36 -1.8 1.6
      vertex 36 0 1.6
    endloop
  endfacet
  facet normal -0.923879 0 -0.382684
    outer loop
      vertex 34.3029 -1.8 2.30294
      vertex 33.6 0 4
      vertex 34.3029 0 2.30294
    endloop
  endfacet
  facet normal -0.923879 -0 -0.382684
    outer loop
      vertex 33.6 0 4
      vertex 34.3029 -1.8 2.30294
      vertex 33.6 -1.8 4
    endloop
  endfacet
  facet normal 0.923879 0 -0.382684
    outer loop
      vertex 38.4 -1.8 4
      vertex 37.6971 0 2.30294
      vertex 38.4 0 4
    endloop
  endfacet
  facet normal 0.923879 0 -0.382684
    outer loop
      vertex 37.6971 0 2.30294
      vertex 38.4 -1.8 4
      vertex 37.6971 -1.8 2.30294
    endloop
  endfacet
  facet normal -0.382684 0 -0.923879
    outer loop
      vertex 34.3029 -1.8 2.30294
      vertex 36 0 1.6
      vertex 36 -1.8 1.6
    endloop
  endfacet
  facet normal -0.382684 0 -0.923879
    outer loop
      vertex 36 0 1.6
      vertex 34.3029 -1.8 2.30294
      vertex 34.3029 0 2.30294
    endloop
  endfacet
  facet normal 0 -1 0
    outer loop
      vertex 34.3029 -1.8 5.69706
      vertex 37.6971 -1.8 5.69706
      vertex 36 -1.8 6.4
    endloop
  endfacet
  facet normal 0 -1 0
    outer loop
      vertex 33.6 -1.8 4
      vertex 37.6971 -1.8 5.69706
      vertex 34.3029 -1.8 5.69706
    endloop
  endfacet
  facet normal 0 -1 0
    outer loop
      vertex 33.6 -1.8 4
      vertex 38.4 -1.8 4
      vertex 37.6971 -1.8 5.69706
    endloop
  endfacet
  facet normal 0 -1 0
    outer loop
      vertex 34.3029 -1.8 2.30294
      vertex 38.4 -1.8 4
      vertex 33.6 -1.8 4
    endloop
  endfacet
  facet normal 0 -1 0
    outer loop
      vertex 34.3029 -1.8 2.30294
      vertex 37.6971 -1.8 2.30294
      vertex 38.4 -1.8 4
    endloop
  endfacet
  facet normal -0 -1 0
    outer loop
      vertex 37.6971 -1.8 2.30294
      vertex 34.3029 -1.8 2.30294
      vertex 36 -1.8 1.6
    endloop
  endfacet
  facet normal 0.923879 -0 0.382684
    outer loop
      vertex 37.6971 -1.8 13.6971
      vertex 38.4 0 12
      vertex 37.6971 0 13.6971
    endloop
  endfacet
  facet normal 0.923879 0 0.382684
    outer loop
      vertex 38.4 0 12
      vertex 37.6971 -1.8 13.6971
      vertex 38.4 -1.8 12
    endloop
  endfacet
  facet normal -0.382684 0 0.923879
    outer loop
      vertex 34.3029 0 13.6971
      vertex 36 -1.8 14.4
      vertex 36 0 14.4
    endloop
  endfacet
  facet normal -0.382684 0 0.923879
    outer loop
      vertex 36 -1.8 14.4
      vertex 34.3029 0 13.6971
      vertex 34.3029 -1.8 13.6971
    endloop
  endfacet
  facet normal 0.382684 0 0.923879
    outer loop
      vertex 36 0 14.4
      vertex 37.6971 -1.8 13.6971
      vertex 37.6971 0 13.6971
    endloop
  endfacet
  facet normal 0.382684 0 0.923879
    outer loop
      vertex 37.6971 -1.8 13.6971
      vertex 36 0 14.4
      vertex 36 -1.8 14.4
    endloop
  endfacet
  facet normal 0 -1 0
    outer loop
      vertex 34.3029 -1.8 13.6971
      vertex 37.6971 -1.8 13.6971
      vertex 36 -1.8 14.4
    endloop
  endfacet
  facet normal 0 -1 0
    outer loop
      vertex 33.6 -1.8 12
      vertex 37.6971 -1.8 13.6971
      vertex 34.3029 -1.8 13.6971
    endloop
  endfacet
  facet normal 0 -1 0
    outer loop
      vertex 33.6 -1.8 12
      vertex 38.4 -1.8 12
      vertex 37.6971 -1.8 13.6971
    endloop
  endfacet
  facet normal 0 -1 0
    outer loop
      vertex 34.3029 -1.8 10.3029
      vertex 38.4 -1.8 12
      vertex 33.6 -1.8 12
    endloop
  endfacet
  facet normal 0 -1 0
    outer loop
      vertex 34.3029 -1.8 10.3029
      vertex 37.6971 -1.8 10.3029
      vertex 38.4 -1.8 12
    endloop
  endfacet
  facet normal -0 -1 0
    outer loop
      vertex 37.6971 -1.8 10.3029
      vertex 34.3029 -1.8 10.3029
      vertex 36 -1.8 9.6
    endloop
  endfacet
  facet normal -0.923879 0 0.382684
    outer loop
      vertex 33.6 -1.8 12
      vertex 34.3029 0 13.6971
      vertex 33.6 0 12
    endloop
  endfacet
  facet normal -0.923879 0 0.382684
    outer loop
      vertex 34.3029 0 13.6971
      vertex 33.6 -1.8 12
      vertex 34.3029 -1.8 13.6971
    endloop
  endfacet
  facet normal 0.923879 0 -0.382684
    outer loop
      vertex 38.4 -1.8 12
      vertex 37.6971 0 10.3029
      vertex 38.4 0 12
    endloop
  endfacet
  facet normal 0.923879 0 -0.382684
    outer loop
      vertex 37.6971 0 10.3029
      vertex 38.4 -1.8 12
      vertex 37.6971 -1.8 10.3029
    endloop
  endfacet
  facet normal -0.923879 0 -0.382684
    outer loop
      vertex 34.3029 -1.8 10.3029
      vertex 33.6 0 12
      vertex 34.3029 0 10.3029
    endloop
  endfacet
  facet normal -0.923879 -0 -0.382684
    outer loop
      vertex 33.6 0 12
      vertex 34.3029 -1.8 10.3029
      vertex 33.6 -1.8 12
    endloop
  endfacet
  facet normal 0.382684 0 -0.923879
    outer loop
      vertex 36 -1.8 9.6
      vertex 37.6971 0 10.3029
      vertex 37.6971 -1.8 10.3029
    endloop
  endfacet
  facet normal 0.382684 0 -0.923879
    outer loop
      vertex 37.6971 0 10.3029
      vertex 36 -1.8 9.6
      vertex 36 0 9.6
    endloop
  endfacet
  facet normal -0.382684 0 -0.923879
    outer loop
      vertex 34.3029 -1.8 10.3029
      vertex 36 0 9.6
      vertex 36 -1.8 9.6
    endloop
  endfacet
  facet normal -0.382684 0 -0.923879
    outer loop
      vertex 36 0 9.6
      vertex 34.3029 -1.8 10.3029
      vertex 34.3029 0 10.3029
    endloop
  endfacet
endsolid OpenSCAD_Model
