solid OpenSCAD_Model
  facet normal -1 0 0
    outer loop
      vertex 0 0 0
      vertex 0 15 30
      vertex 0 15 0
    endloop
  endfacet
  facet normal -1 -0 0
    outer loop
      vertex 0 15 30
      vertex 0 0 0
      vertex 0 0 30
    endloop
  endfacet
  facet normal 0 0 -1
    outer loop
      vertex 8.5 0 15
      vertex 31.5 15 15
      vertex 31.5 0 15
    endloop
  endfacet
  facet normal -0 0 -1
    outer loop
      vertex 31.5 15 15
      vertex 8.5 0 15
      vertex 8.5 15 15
    endloop
  endfacet
  facet normal 1 -0 0
    outer loop
      vertex 8.5 0 15
      vertex 8.5 15 0
      vertex 8.5 15 15
    endloop
  endfacet
  facet normal 1 0 0
    outer loop
      vertex 8.5 15 0
      vertex 8.5 0 15
      vertex 8.5 0 0
    endloop
  endfacet
  facet normal 0 1 0
    outer loop
      vertex 40 15 30
      vertex 31.5 15 15
      vertex 0 15 30
    endloop
  endfacet
  facet normal 0 1 -0
    outer loop
      vertex 40 15 0
      vertex 31.5 15 15
      vertex 40 15 30
    endloop
  endfacet
  facet normal 0 1 0
    outer loop
      vertex 31.5 15 15
      vertex 40 15 0
      vertex 31.5 15 0
    endloop
  endfacet
  facet normal 0 1 -0
    outer loop
      vertex 8.5 15 15
      vertex 0 15 30
      vertex 31.5 15 15
    endloop
  endfacet
  facet normal 0 1 0
    outer loop
      vertex 0 15 0
      vertex 8.5 15 15
      vertex 8.5 15 0
    endloop
  endfacet
  facet normal 0 1 0
    outer loop
      vertex 8.5 15 15
      vertex 0 15 0
      vertex 0 15 30
    endloop
  endfacet
  facet normal 0 0 -1
    outer loop
      vertex 0 0 0
      vertex 8.5 15 0
      vertex 8.5 0 0
    endloop
  endfacet
  facet normal -0 0 -1
    outer loop
      vertex 8.5 15 0
      vertex 0 0 0
      vertex 0 15 0
    endloop
  endfacet
  facet normal 0 -1 0
    outer loop
      vertex 0 0 30
      vertex 8.5 0 15
      vertex 40 0 30
    endloop
  endfacet
  facet normal 0 -1 0
    outer loop
      vertex 0 0 0
      vertex 8.5 0 15
      vertex 0 0 30
    endloop
  endfacet
  facet normal 0 -1 -0
    outer loop
      vertex 8.5 0 15
      vertex 0 0 0
      vertex 8.5 0 0
    endloop
  endfacet
  facet normal 0 -1 0
    outer loop
      vertex 31.5 0 15
      vertex 40 0 30
      vertex 8.5 0 15
    endloop
  endfacet
  facet normal 0 -1 0
    outer loop
      vertex 40 0 0
      vertex 31.5 0 15
      vertex 31.5 0 0
    endloop
  endfacet
  facet normal 0 -1 0
    outer loop
      vertex 31.5 0 15
      vertex 40 0 0
      vertex 40 0 30
    endloop
  endfacet
  facet normal -1 0 0
    outer loop
      vertex 31.5 0 0
      vertex 31.5 15 15
      vertex 31.5 15 0
    endloop
  endfacet
  facet normal -1 -0 0
    outer loop
      vertex 31.5 15 15
      vertex 31.5 0 0
      vertex 31.5 0 15
    endloop
  endfacet
  facet normal 1 -0 0
    outer loop
      vertex 40 0 30
      vertex 40 15 0
      vertex 40 15 30
    endloop
  endfacet
  facet normal 1 0 0
    outer loop
      vertex 40 15 0
      vertex 40 0 30
      vertex 40 0 0
    endloop
  endfacet
  facet normal 0 0 -1
    outer loop
      vertex 31.5 0 0
      vertex 40 15 0
      vertex 40 0 0
    endloop
  endfacet
  facet normal -0 0 -1
    outer loop
      vertex 40 15 0
      vertex 31.5 0 0
      vertex 31.5 15 0
    endloop
  endfacet
  facet normal 0 0 1
    outer loop
      vertex 5.69706 5.69706 30
      vertex 10.3029 5.69706 30
      vertex 5.69706 10.3029 30
    endloop
  endfacet
  facet normal 0 0 1
    outer loop
      vertex 10.3029 5.69706 30
      vertex 5.69706 5.69706 30
      vertex 6.4 4 30
    endloop
  endfacet
  facet normal -0 0 1
    outer loop
      vertex 4 9.6 30
      vertex 5.69706 5.69706 30
      vertex 5.69706 10.3029 30
    endloop
  endfacet
  facet normal 0 0 1
    outer loop
      vertex 4 9.6 30
      vertex 4 6.4 30
      vertex 5.69706 5.69706 30
    endloop
  endfacet
  facet normal 0 0 1
    outer loop
      vertex 2.30294 10.3029 30
      vertex 4 6.4 30
      vertex 4 9.6 30
    endloop
  endfacet
  facet normal 0 0 1
    outer loop
      vertex 2.30294 10.3029 30
      vertex 2.30294 5.69706 30
      vertex 4 6.4 30
    endloop
  endfacet
  facet normal 0 0 1
    outer loop
      vertex 1.6 12 30
      vertex 2.30294 5.69706 30
      vertex 2.30294 10.3029 30
    endloop
  endfacet
  facet normal 0 0 1
    outer loop
      vertex 2.30294 5.69706 30
      vertex 1.6 12 30
      vertex 1.6 4 30
    endloop
  endfacet
  facet normal 0 0 1
    outer loop
      vertex 13.6971 5.69706 30
      vertex 18.3029 5.69706 30
      vertex 13.6971 10.3029 30
    endloop
  endfacet
  facet normal 0 0 1
    outer loop
      vertex 18.3029 5.69706 30
      vertex 13.6971 5.69706 30
      vertex 14.4 4 30
    endloop
  endfacet
  facet normal -0 0 1
    outer loop
      vertex 12 9.6 30
      vertex 13.6971 5.69706 30
      vertex 13.6971 10.3029 30
    endloop
  endfacet
  facet normal 0 0 1
    outer loop
      vertex 12 9.6 30
      vertex 12 6.4 30
      vertex 13.6971 5.69706 30
    endloop
  endfacet
  facet normal 0 0 1
    outer loop
      vertex 10.3029 10.3029 30
      vertex 12 6.4 30
      vertex 12 9.6 30
    endloop
  endfacet
  facet normal 0 0 1
    outer loop
      vertex 10.3029 10.3029 30
      vertex 10.3029 5.69706 30
      vertex 12 6.4 30
    endloop
  endfacet
  facet normal -0 0 1
    outer loop
      vertex 6.4 12 30
      vertex 10.3029 10.3029 30
      vertex 9.6 12 30
    endloop
  endfacet
  facet normal 0 0 1
    outer loop
      vertex 5.69706 10.3029 30
      vertex 10.3029 10.3029 30
      vertex 6.4 12 30
    endloop
  endfacet
  facet normal 0 0 1
    outer loop
      vertex 21.6971 5.69706 30
      vertex 26.3029 5.69706 30
      vertex 21.6971 10.3029 30
    endloop
  endfacet
  facet normal 0 0 1
    outer loop
      vertex 26.3029 5.69706 30
      vertex 21.6971 5.69706 30
      vertex 22.4 4 30
    endloop
  endfacet
  facet normal -0 0 1
    outer loop
      vertex 20 9.6 30
      vertex 21.6971 5.69706 30
      vertex 21.6971 10.3029 30
    endloop
  endfacet
  facet normal 0 0 1
    outer loop
      vertex 20 9.6 30
      vertex 20 6.4 30
      vertex 21.6971 5.69706 30
    endloop
  endfacet
  facet normal 0 0 1
    outer loop
      vertex 18.3029 10.3029 30
      vertex 20 6.4 30
      vertex 20 9.6 30
    endloop
  endfacet
  facet normal 0 0 1
    outer loop
      vertex 18.3029 10.3029 30
      vertex 18.3029 5.69706 30
      vertex 20 6.4 30
    endloop
  endfacet
  facet normal -0 0 1
    outer loop
      vertex 14.4 12 30
      vertex 18.3029 10.3029 30
      vertex 17.6 12 30
    endloop
  endfacet
  facet normal 0 0 1
    outer loop
      vertex 13.6971 10.3029 30
      vertex 18.3029 10.3029 30
      vertex 14.4 12 30
    endloop
  endfacet
  facet normal 0 0 1
    outer loop
      vertex 29.6971 5.69706 30
      vertex 34.3029 5.69706 30
      vertex 29.6971 10.3029 30
    endloop
  endfacet
  facet normal 0 0 1
    outer loop
      vertex 34.3029 5.69706 30
      vertex 29.6971 5.69706 30
      vertex 30.4 4 30
    endloop
  endfacet
  facet normal -0 0 1
    outer loop
      vertex 28 9.6 30
      vertex 29.6971 5.69706 30
      vertex 29.6971 10.3029 30
    endloop
  endfacet
  facet normal 0 0 1
    outer loop
      vertex 28 9.6 30
      vertex 28 6.4 30
      vertex 29.6971 5.69706 30
    endloop
  endfacet
  facet normal 0 0 1
    outer loop
      vertex 26.3029 10.3029 30
      vertex 28 6.4 30
      vertex 28 9.6 30
    endloop
  endfacet
  facet normal 0 0 1
    outer loop
      vertex 26.3029 10.3029 30
      vertex 26.3029 5.69706 30
      vertex 28 6.4 30
    endloop
  endfacet
  facet normal -0 0 1
    outer loop
      vertex 22.4 12 30
      vertex 26.3029 10.3029 30
      vertex 25.6 12 30
    endloop
  endfacet
  facet normal 0 0 1
    outer loop
      vertex 21.6971 10.3029 30
      vertex 26.3029 10.3029 30
      vertex 22.4 12 30
    endloop
  endfacet
  facet normal -0 0 1
    outer loop
      vertex 37.6971 10.3029 30
      vertex 38.4 4 30
      vertex 38.4 12 30
    endloop
  endfacet
  facet normal 0 0 1
    outer loop
      vertex 37.6971 10.3029 30
      vertex 37.6971 5.69706 30
      vertex 38.4 4 30
    endloop
  endfacet
  facet normal -0 0 1
    outer loop
      vertex 36 9.6 30
      vertex 37.6971 5.69706 30
      vertex 37.6971 10.3029 30
    endloop
  endfacet
  facet normal 0 0 1
    outer loop
      vertex 36 9.6 30
      vertex 36 6.4 30
      vertex 37.6971 5.69706 30
    endloop
  endfacet
  facet normal 0 0 1
    outer loop
      vertex 34.3029 10.3029 30
      vertex 36 6.4 30
      vertex 36 9.6 30
    endloop
  endfacet
  facet normal 0 0 1
    outer loop
      vertex 34.3029 10.3029 30
      vertex 34.3029 5.69706 30
      vertex 36 6.4 30
    endloop
  endfacet
  facet normal -0 0 1
    outer loop
      vertex 30.4 12 30
      vertex 34.3029 10.3029 30
      vertex 33.6 12 30
    endloop
  endfacet
  facet normal 0 0 1
    outer loop
      vertex 29.6971 10.3029 30
      vertex 34.3029 10.3029 30
      vertex 30.4 12 30
    endloop
  endfacet
  facet normal 0 0 1
    outer loop
      vertex 38.4 4 30
      vertex 40 15 30
      vertex 38.4 12 30
    endloop
  endfacet
  facet normal 0 0 1
    outer loop
      vertex 40 15 30
      vertex 37.6971 13.6971 30
      vertex 38.4 12 30
    endloop
  endfacet
  facet normal 0 0 1
    outer loop
      vertex 40 15 30
      vertex 36 14.4 30
      vertex 37.6971 13.6971 30
    endloop
  endfacet
  facet normal 0 0 1
    outer loop
      vertex 34.3029 10.3029 30
      vertex 29.6971 10.3029 30
      vertex 34.3029 5.69706 30
    endloop
  endfacet
  facet normal 0 0 1
    outer loop
      vertex 34.3029 13.6971 30
      vertex 30.4 12 30
      vertex 33.6 12 30
    endloop
  endfacet
  facet normal 0 0 1
    outer loop
      vertex 34.3029 13.6971 30
      vertex 29.6971 13.6971 30
      vertex 30.4 12 30
    endloop
  endfacet
  facet normal 0 0 1
    outer loop
      vertex 36 14.4 30
      vertex 29.6971 13.6971 30
      vertex 34.3029 13.6971 30
    endloop
  endfacet
  facet normal 0 0 1
    outer loop
      vertex 28 14.4 30
      vertex 36 14.4 30
      vertex 40 15 30
    endloop
  endfacet
  facet normal 0 0 1
    outer loop
      vertex 36 14.4 30
      vertex 28 14.4 30
      vertex 29.6971 13.6971 30
    endloop
  endfacet
  facet normal 0 0 1
    outer loop
      vertex 26.3029 10.3029 30
      vertex 21.6971 10.3029 30
      vertex 26.3029 5.69706 30
    endloop
  endfacet
  facet normal 0 0 1
    outer loop
      vertex 26.3029 13.6971 30
      vertex 22.4 12 30
      vertex 25.6 12 30
    endloop
  endfacet
  facet normal 0 0 1
    outer loop
      vertex 26.3029 13.6971 30
      vertex 21.6971 13.6971 30
      vertex 22.4 12 30
    endloop
  endfacet
  facet normal 0 0 1
    outer loop
      vertex 28 14.4 30
      vertex 21.6971 13.6971 30
      vertex 26.3029 13.6971 30
    endloop
  endfacet
  facet normal 0 0 1
    outer loop
      vertex 28 14.4 30
      vertex 20 14.4 30
      vertex 21.6971 13.6971 30
    endloop
  endfacet
  facet normal 0 0 1
    outer loop
      vertex 40 15 30
      vertex 20 14.4 30
      vertex 28 14.4 30
    endloop
  endfacet
  facet normal 0 0 1
    outer loop
      vertex 18.3029 10.3029 30
      vertex 13.6971 10.3029 30
      vertex 18.3029 5.69706 30
    endloop
  endfacet
  facet normal 0 0 1
    outer loop
      vertex 18.3029 13.6971 30
      vertex 14.4 12 30
      vertex 17.6 12 30
    endloop
  endfacet
  facet normal 0 0 1
    outer loop
      vertex 18.3029 13.6971 30
      vertex 13.6971 13.6971 30
      vertex 14.4 12 30
    endloop
  endfacet
  facet normal 0 0 1
    outer loop
      vertex 20 14.4 30
      vertex 13.6971 13.6971 30
      vertex 18.3029 13.6971 30
    endloop
  endfacet
  facet normal 0 0 1
    outer loop
      vertex 20 14.4 30
      vertex 12 14.4 30
      vertex 13.6971 13.6971 30
    endloop
  endfacet
  facet normal -0 0 1
    outer loop
      vertex 0 15 30
      vertex 20 14.4 30
      vertex 40 15 30
    endloop
  endfacet
  facet normal 0 0 1
    outer loop
      vertex 10.3029 10.3029 30
      vertex 5.69706 10.3029 30
      vertex 10.3029 5.69706 30
    endloop
  endfacet
  facet normal 0 0 1
    outer loop
      vertex 10.3029 13.6971 30
      vertex 6.4 12 30
      vertex 9.6 12 30
    endloop
  endfacet
  facet normal 0 0 1
    outer loop
      vertex 10.3029 13.6971 30
      vertex 5.69706 13.6971 30
      vertex 6.4 12 30
    endloop
  endfacet
  facet normal 0 0 1
    outer loop
      vertex 12 14.4 30
      vertex 5.69706 13.6971 30
      vertex 10.3029 13.6971 30
    endloop
  endfacet
  facet normal 0 0 1
    outer loop
      vertex 12 14.4 30
      vertex 4 14.4 30
      vertex 5.69706 13.6971 30
    endloop
  endfacet
  facet normal 0 0 1
    outer loop
      vertex 20 14.4 30
      vertex 0 15 30
      vertex 12 14.4 30
    endloop
  endfacet
  facet normal 0 0 1
    outer loop
      vertex 1.6 12 30
      vertex 0 15 30
      vertex 1.6 4 30
    endloop
  endfacet
  facet normal 0 0 1
    outer loop
      vertex 2.30294 13.6971 30
      vertex 0 15 30
      vertex 1.6 12 30
    endloop
  endfacet
  facet normal 0 0 1
    outer loop
      vertex 4 14.4 30
      vertex 0 15 30
      vertex 2.30294 13.6971 30
    endloop
  endfacet
  facet normal 0 0 1
    outer loop
      vertex 12 14.4 30
      vertex 0 15 30
      vertex 4 14.4 30
    endloop
  endfacet
  facet normal 0 0 1
    outer loop
      vertex 40 15 30
      vertex 38.4 4 30
      vertex 40 0 30
    endloop
  endfacet
  facet normal -0 0 1
    outer loop
      vertex 37.6971 2.30294 30
      vertex 40 0 30
      vertex 38.4 4 30
    endloop
  endfacet
  facet normal -0 0 1
    outer loop
      vertex 36 1.6 30
      vertex 40 0 30
      vertex 37.6971 2.30294 30
    endloop
  endfacet
  facet normal 0 0 1
    outer loop
      vertex 34.3029 5.69706 30
      vertex 30.4 4 30
      vertex 33.6 4 30
    endloop
  endfacet
  facet normal -0 0 1
    outer loop
      vertex 30.4 4 30
      vertex 34.3029 2.30294 30
      vertex 33.6 4 30
    endloop
  endfacet
  facet normal 0 0 1
    outer loop
      vertex 29.6971 2.30294 30
      vertex 34.3029 2.30294 30
      vertex 30.4 4 30
    endloop
  endfacet
  facet normal -0 0 1
    outer loop
      vertex 29.6971 2.30294 30
      vertex 36 1.6 30
      vertex 34.3029 2.30294 30
    endloop
  endfacet
  facet normal 0 0 1
    outer loop
      vertex 28 1.6 30
      vertex 36 1.6 30
      vertex 29.6971 2.30294 30
    endloop
  endfacet
  facet normal 0 0 1
    outer loop
      vertex 36 1.6 30
      vertex 28 1.6 30
      vertex 40 0 30
    endloop
  endfacet
  facet normal 0 0 1
    outer loop
      vertex 26.3029 5.69706 30
      vertex 22.4 4 30
      vertex 25.6 4 30
    endloop
  endfacet
  facet normal -0 0 1
    outer loop
      vertex 22.4 4 30
      vertex 26.3029 2.30294 30
      vertex 25.6 4 30
    endloop
  endfacet
  facet normal 0 0 1
    outer loop
      vertex 21.6971 2.30294 30
      vertex 26.3029 2.30294 30
      vertex 22.4 4 30
    endloop
  endfacet
  facet normal -0 0 1
    outer loop
      vertex 21.6971 2.30294 30
      vertex 28 1.6 30
      vertex 26.3029 2.30294 30
    endloop
  endfacet
  facet normal 0 0 1
    outer loop
      vertex 20 1.6 30
      vertex 28 1.6 30
      vertex 21.6971 2.30294 30
    endloop
  endfacet
  facet normal 0 0 1
    outer loop
      vertex 28 1.6 30
      vertex 20 1.6 30
      vertex 40 0 30
    endloop
  endfacet
  facet normal 0 0 1
    outer loop
      vertex 18.3029 5.69706 30
      vertex 14.4 4 30
      vertex 17.6 4 30
    endloop
  endfacet
  facet normal -0 0 1
    outer loop
      vertex 14.4 4 30
      vertex 18.3029 2.30294 30
      vertex 17.6 4 30
    endloop
  endfacet
  facet normal 0 0 1
    outer loop
      vertex 13.6971 2.30294 30
      vertex 18.3029 2.30294 30
      vertex 14.4 4 30
    endloop
  endfacet
  facet normal -0 0 1
    outer loop
      vertex 13.6971 2.30294 30
      vertex 20 1.6 30
      vertex 18.3029 2.30294 30
    endloop
  endfacet
  facet normal 0 0 1
    outer loop
      vertex 12 1.6 30
      vertex 20 1.6 30
      vertex 13.6971 2.30294 30
    endloop
  endfacet
  facet normal 0 0 1
    outer loop
      vertex 0 0 30
      vertex 20 1.6 30
      vertex 12 1.6 30
    endloop
  endfacet
  facet normal 0 0 1
    outer loop
      vertex 10.3029 5.69706 30
      vertex 6.4 4 30
      vertex 9.6 4 30
    endloop
  endfacet
  facet normal -0 0 1
    outer loop
      vertex 6.4 4 30
      vertex 10.3029 2.30294 30
      vertex 9.6 4 30
    endloop
  endfacet
  facet normal 0 0 1
    outer loop
      vertex 5.69706 2.30294 30
      vertex 10.3029 2.30294 30
      vertex 6.4 4 30
    endloop
  endfacet
  facet normal -0 0 1
    outer loop
      vertex 5.69706 2.30294 30
      vertex 12 1.6 30
      vertex 10.3029 2.30294 30
    endloop
  endfacet
  facet normal 0 0 1
    outer loop
      vertex 4 1.6 30
      vertex 12 1.6 30
      vertex 5.69706 2.30294 30
    endloop
  endfacet
  facet normal 0 0 1
    outer loop
      vertex 0 0 30
      vertex 12 1.6 30
      vertex 4 1.6 30
    endloop
  endfacet
  facet normal 0 0 1
    outer loop
      vertex 20 1.6 30
      vertex 0 0 30
      vertex 40 0 30
    endloop
  endfacet
  facet normal 0 0 1
    outer loop
      vertex 2.30294 2.30294 30
      vertex 0 0 30
      vertex 4 1.6 30
    endloop
  endfacet
  facet normal 0 0 1
    outer loop
      vertex 1.6 4 30
      vertex 0 0 30
      vertex 2.30294 2.30294 30
    endloop
  endfacet
  facet normal 0 0 1
    outer loop
      vertex 0 0 30
      vertex 1.6 4 30
      vertex 0 15 30
    endloop
  endfacet
  facet normal 0.923879 0.382684 0
    outer loop
      vertex 6.4 4 -7.62939e-007
      vertex 5.69706 5.69706 -1.8
      vertex 5.69706 5.69706 -7.62939e-007
    endloop
  endfacet
  facet normal 0.923879 0.382684 0
    outer loop
      vertex 5.69706 5.69706 -1.8
      vertex 6.4 4 -7.62939e-007
      vertex 6.4 4 -1.8
    endloop
  endfacet
  facet normal -0.923879 0.382684 0
    outer loop
      vertex 1.6 4 -1.8
      vertex 2.30294 5.69706 -7.62939e-007
      vertex 2.30294 5.69706 -1.8
    endloop
  endfacet
  facet normal -0.923879 0.382684 0
    outer loop
      vertex 2.30294 5.69706 -7.62939e-007
      vertex 1.6 4 -1.8
      vertex 1.6 4 -7.62939e-007
    endloop
  endfacet
  facet normal 0.382684 0.923879 -0
    outer loop
      vertex 5.69706 5.69706 -1.8
      vertex 4 6.4 -7.62939e-007
      vertex 5.69706 5.69706 -7.62939e-007
    endloop
  endfacet
  facet normal 0.382684 0.923879 0
    outer loop
      vertex 4 6.4 -7.62939e-007
      vertex 5.69706 5.69706 -1.8
      vertex 4 6.4 -1.8
    endloop
  endfacet
  facet normal 0 0 -1
    outer loop
      vertex 5.69706 10.3029 -1.8
      vertex 5.69706 13.6971 -1.8
      vertex 6.4 12 -1.8
    endloop
  endfacet
  facet normal 0 0 -1
    outer loop
      vertex 4 9.6 -1.8
      vertex 5.69706 13.6971 -1.8
      vertex 5.69706 10.3029 -1.8
    endloop
  endfacet
  facet normal 0 0 -1
    outer loop
      vertex 4 9.6 -1.8
      vertex 4 14.4 -1.8
      vertex 5.69706 13.6971 -1.8
    endloop
  endfacet
  facet normal 0 0 -1
    outer loop
      vertex 2.30294 10.3029 -1.8
      vertex 4 14.4 -1.8
      vertex 4 9.6 -1.8
    endloop
  endfacet
  facet normal 0 0 -1
    outer loop
      vertex 2.30294 10.3029 -1.8
      vertex 2.30294 13.6971 -1.8
      vertex 4 14.4 -1.8
    endloop
  endfacet
  facet normal 0 -0 -1
    outer loop
      vertex 2.30294 13.6971 -1.8
      vertex 2.30294 10.3029 -1.8
      vertex 1.6 12 -1.8
    endloop
  endfacet
  facet normal 0 0 -1
    outer loop
      vertex 5.69706 2.30294 -1.8
      vertex 5.69706 5.69706 -1.8
      vertex 6.4 4 -1.8
    endloop
  endfacet
  facet normal 0 0 -1
    outer loop
      vertex 4 1.6 -1.8
      vertex 5.69706 5.69706 -1.8
      vertex 5.69706 2.30294 -1.8
    endloop
  endfacet
  facet normal 0 0 -1
    outer loop
      vertex 4 1.6 -1.8
      vertex 4 6.4 -1.8
      vertex 5.69706 5.69706 -1.8
    endloop
  endfacet
  facet normal 0 0 -1
    outer loop
      vertex 2.30294 2.30294 -1.8
      vertex 4 6.4 -1.8
      vertex 4 1.6 -1.8
    endloop
  endfacet
  facet normal 0 0 -1
    outer loop
      vertex 2.30294 2.30294 -1.8
      vertex 2.30294 5.69706 -1.8
      vertex 4 6.4 -1.8
    endloop
  endfacet
  facet normal 0 -0 -1
    outer loop
      vertex 2.30294 5.69706 -1.8
      vertex 2.30294 2.30294 -1.8
      vertex 1.6 4 -1.8
    endloop
  endfacet
  facet normal 0 0 1
    outer loop
      vertex 5.69706 5.69706 -7.62939e-007
      vertex 5.69706 2.30294 -7.62939e-007
      vertex 6.4 4 -7.62939e-007
    endloop
  endfacet
  facet normal 0 0 1
    outer loop
      vertex 4 6.4 -7.62939e-007
      vertex 5.69706 2.30294 -7.62939e-007
      vertex 5.69706 5.69706 -7.62939e-007
    endloop
  endfacet
  facet normal 0 0 1
    outer loop
      vertex 4 6.4 -7.62939e-007
      vertex 4 1.6 -7.62939e-007
      vertex 5.69706 2.30294 -7.62939e-007
    endloop
  endfacet
  facet normal -0 0 1
    outer loop
      vertex 2.30294 5.69706 -7.62939e-007
      vertex 4 1.6 -7.62939e-007
      vertex 4 6.4 -7.62939e-007
    endloop
  endfacet
  facet normal 0 0 1
    outer loop
      vertex 2.30294 5.69706 -7.62939e-007
      vertex 2.30294 2.30294 -7.62939e-007
      vertex 4 1.6 -7.62939e-007
    endloop
  endfacet
  facet normal 0 -0 1
    outer loop
      vertex 2.30294 2.30294 -7.62939e-007
      vertex 2.30294 5.69706 -7.62939e-007
      vertex 1.6 4 -7.62939e-007
    endloop
  endfacet
  facet normal -0.382684 0.923879 0
    outer loop
      vertex 4 6.4 -1.8
      vertex 2.30294 5.69706 -7.62939e-007
      vertex 4 6.4 -7.62939e-007
    endloop
  endfacet
  facet normal -0.382684 0.923879 0
    outer loop
      vertex 2.30294 5.69706 -7.62939e-007
      vertex 4 6.4 -1.8
      vertex 2.30294 5.69706 -1.8
    endloop
  endfacet
  facet normal 0.382684 -0.923879 0
    outer loop
      vertex 4 1.6 -1.8
      vertex 5.69706 2.30294 -7.62939e-007
      vertex 4 1.6 -7.62939e-007
    endloop
  endfacet
  facet normal 0.382684 -0.923879 0
    outer loop
      vertex 5.69706 2.30294 -7.62939e-007
      vertex 4 1.6 -1.8
      vertex 5.69706 2.30294 -1.8
    endloop
  endfacet
  facet normal -0.923879 -0.382684 0
    outer loop
      vertex 2.30294 2.30294 -1.8
      vertex 1.6 4 -7.62939e-007
      vertex 1.6 4 -1.8
    endloop
  endfacet
  facet normal -0.923879 -0.382684 0
    outer loop
      vertex 1.6 4 -7.62939e-007
      vertex 2.30294 2.30294 -1.8
      vertex 2.30294 2.30294 -7.62939e-007
    endloop
  endfacet
  facet normal 0.923879 -0.382684 0
    outer loop
      vertex 5.69706 2.30294 -7.62939e-007
      vertex 6.4 4 -1.8
      vertex 6.4 4 -7.62939e-007
    endloop
  endfacet
  facet normal 0.923879 -0.382684 0
    outer loop
      vertex 6.4 4 -1.8
      vertex 5.69706 2.30294 -7.62939e-007
      vertex 5.69706 2.30294 -1.8
    endloop
  endfacet
  facet normal -0.382684 -0.923879 0
    outer loop
      vertex 2.30294 2.30294 -1.8
      vertex 4 1.6 -7.62939e-007
      vertex 2.30294 2.30294 -7.62939e-007
    endloop
  endfacet
  facet normal -0.382684 -0.923879 -0
    outer loop
      vertex 4 1.6 -7.62939e-007
      vertex 2.30294 2.30294 -1.8
      vertex 4 1.6 -1.8
    endloop
  endfacet
  facet normal 0.923879 0.382684 0
    outer loop
      vertex 6.4 12 -7.62939e-007
      vertex 5.69706 13.6971 -1.8
      vertex 5.69706 13.6971 -7.62939e-007
    endloop
  endfacet
  facet normal 0.923879 0.382684 0
    outer loop
      vertex 5.69706 13.6971 -1.8
      vertex 6.4 12 -7.62939e-007
      vertex 6.4 12 -1.8
    endloop
  endfacet
  facet normal -0.382684 0.923879 0
    outer loop
      vertex 4 14.4 -1.8
      vertex 2.30294 13.6971 -7.62939e-007
      vertex 4 14.4 -7.62939e-007
    endloop
  endfacet
  facet normal -0.382684 0.923879 0
    outer loop
      vertex 2.30294 13.6971 -7.62939e-007
      vertex 4 14.4 -1.8
      vertex 2.30294 13.6971 -1.8
    endloop
  endfacet
  facet normal 0.382684 0.923879 -0
    outer loop
      vertex 5.69706 13.6971 -1.8
      vertex 4 14.4 -7.62939e-007
      vertex 5.69706 13.6971 -7.62939e-007
    endloop
  endfacet
  facet normal 0.382684 0.923879 0
    outer loop
      vertex 4 14.4 -7.62939e-007
      vertex 5.69706 13.6971 -1.8
      vertex 4 14.4 -1.8
    endloop
  endfacet
  facet normal 0 0 1
    outer loop
      vertex 5.69706 13.6971 -7.62939e-007
      vertex 5.69706 10.3029 -7.62939e-007
      vertex 6.4 12 -7.62939e-007
    endloop
  endfacet
  facet normal 0 0 1
    outer loop
      vertex 4 14.4 -7.62939e-007
      vertex 5.69706 10.3029 -7.62939e-007
      vertex 5.69706 13.6971 -7.62939e-007
    endloop
  endfacet
  facet normal 0 0 1
    outer loop
      vertex 4 14.4 -7.62939e-007
      vertex 4 9.6 -7.62939e-007
      vertex 5.69706 10.3029 -7.62939e-007
    endloop
  endfacet
  facet normal -0 0 1
    outer loop
      vertex 2.30294 13.6971 -7.62939e-007
      vertex 4 9.6 -7.62939e-007
      vertex 4 14.4 -7.62939e-007
    endloop
  endfacet
  facet normal 0 0 1
    outer loop
      vertex 2.30294 13.6971 -7.62939e-007
      vertex 2.30294 10.3029 -7.62939e-007
      vertex 4 9.6 -7.62939e-007
    endloop
  endfacet
  facet normal 0 -0 1
    outer loop
      vertex 2.30294 10.3029 -7.62939e-007
      vertex 2.30294 13.6971 -7.62939e-007
      vertex 1.6 12 -7.62939e-007
    endloop
  endfacet
  facet normal -0.923879 0.382684 0
    outer loop
      vertex 1.6 12 -1.8
      vertex 2.30294 13.6971 -7.62939e-007
      vertex 2.30294 13.6971 -1.8
    endloop
  endfacet
  facet normal -0.923879 0.382684 0
    outer loop
      vertex 2.30294 13.6971 -7.62939e-007
      vertex 1.6 12 -1.8
      vertex 1.6 12 -7.62939e-007
    endloop
  endfacet
  facet normal 0.92388 -0.382683 0
    outer loop
      vertex 5.69706 10.3029 -7.62939e-007
      vertex 6.4 12 -1.8
      vertex 6.4 12 -7.62939e-007
    endloop
  endfacet
  facet normal 0.92388 -0.382683 0
    outer loop
      vertex 6.4 12 -1.8
      vertex 5.69706 10.3029 -7.62939e-007
      vertex 5.69706 10.3029 -1.8
    endloop
  endfacet
  facet normal -0.382684 -0.923879 0
    outer loop
      vertex 2.30294 10.3029 -1.8
      vertex 4 9.6 -7.62939e-007
      vertex 2.30294 10.3029 -7.62939e-007
    endloop
  endfacet
  facet normal -0.382684 -0.923879 -0
    outer loop
      vertex 4 9.6 -7.62939e-007
      vertex 2.30294 10.3029 -1.8
      vertex 4 9.6 -1.8
    endloop
  endfacet
  facet normal -0.92388 -0.382683 0
    outer loop
      vertex 2.30294 10.3029 -1.8
      vertex 1.6 12 -7.62939e-007
      vertex 1.6 12 -1.8
    endloop
  endfacet
  facet normal -0.92388 -0.382683 0
    outer loop
      vertex 1.6 12 -7.62939e-007
      vertex 2.30294 10.3029 -1.8
      vertex 2.30294 10.3029 -7.62939e-007
    endloop
  endfacet
  facet normal 0.382684 -0.923879 0
    outer loop
      vertex 4 9.6 -1.8
      vertex 5.69706 10.3029 -7.62939e-007
      vertex 4 9.6 -7.62939e-007
    endloop
  endfacet
  facet normal 0.382684 -0.923879 0
    outer loop
      vertex 5.69706 10.3029 -7.62939e-007
      vertex 4 9.6 -1.8
      vertex 5.69706 10.3029 -1.8
    endloop
  endfacet
  facet normal 0.923879 0.382684 0
    outer loop
      vertex 38.4 4 -7.62939e-007
      vertex 37.6971 5.69706 -1.8
      vertex 37.6971 5.69706 -7.62939e-007
    endloop
  endfacet
  facet normal 0.923879 0.382684 0
    outer loop
      vertex 37.6971 5.69706 -1.8
      vertex 38.4 4 -7.62939e-007
      vertex 38.4 4 -1.8
    endloop
  endfacet
  facet normal -0.923879 0.382684 0
    outer loop
      vertex 33.6 4 -1.8
      vertex 34.3029 5.69706 -7.62939e-007
      vertex 34.3029 5.69706 -1.8
    endloop
  endfacet
  facet normal -0.923879 0.382684 0
    outer loop
      vertex 34.3029 5.69706 -7.62939e-007
      vertex 33.6 4 -1.8
      vertex 33.6 4 -7.62939e-007
    endloop
  endfacet
  facet normal 0.382684 0.923879 -0
    outer loop
      vertex 37.6971 5.69706 -1.8
      vertex 36 6.4 -7.62939e-007
      vertex 37.6971 5.69706 -7.62939e-007
    endloop
  endfacet
  facet normal 0.382684 0.923879 0
    outer loop
      vertex 36 6.4 -7.62939e-007
      vertex 37.6971 5.69706 -1.8
      vertex 36 6.4 -1.8
    endloop
  endfacet
  facet normal 0 0 -1
    outer loop
      vertex 37.6971 10.3029 -1.8
      vertex 37.6971 13.6971 -1.8
      vertex 38.4 12 -1.8
    endloop
  endfacet
  facet normal 0 0 -1
    outer loop
      vertex 36 9.6 -1.8
      vertex 37.6971 13.6971 -1.8
      vertex 37.6971 10.3029 -1.8
    endloop
  endfacet
  facet normal 0 0 -1
    outer loop
      vertex 36 9.6 -1.8
      vertex 36 14.4 -1.8
      vertex 37.6971 13.6971 -1.8
    endloop
  endfacet
  facet normal 0 0 -1
    outer loop
      vertex 34.3029 10.3029 -1.8
      vertex 36 14.4 -1.8
      vertex 36 9.6 -1.8
    endloop
  endfacet
  facet normal 0 0 -1
    outer loop
      vertex 34.3029 10.3029 -1.8
      vertex 34.3029 13.6971 -1.8
      vertex 36 14.4 -1.8
    endloop
  endfacet
  facet normal 0 -0 -1
    outer loop
      vertex 34.3029 13.6971 -1.8
      vertex 34.3029 10.3029 -1.8
      vertex 33.6 12 -1.8
    endloop
  endfacet
  facet normal 0 0 -1
    outer loop
      vertex 37.6971 2.30294 -1.8
      vertex 37.6971 5.69706 -1.8
      vertex 38.4 4 -1.8
    endloop
  endfacet
  facet normal 0 0 -1
    outer loop
      vertex 36 1.6 -1.8
      vertex 37.6971 5.69706 -1.8
      vertex 37.6971 2.30294 -1.8
    endloop
  endfacet
  facet normal 0 0 -1
    outer loop
      vertex 36 1.6 -1.8
      vertex 36 6.4 -1.8
      vertex 37.6971 5.69706 -1.8
    endloop
  endfacet
  facet normal 0 0 -1
    outer loop
      vertex 34.3029 2.30294 -1.8
      vertex 36 6.4 -1.8
      vertex 36 1.6 -1.8
    endloop
  endfacet
  facet normal 0 0 -1
    outer loop
      vertex 34.3029 2.30294 -1.8
      vertex 34.3029 5.69706 -1.8
      vertex 36 6.4 -1.8
    endloop
  endfacet
  facet normal 0 -0 -1
    outer loop
      vertex 34.3029 5.69706 -1.8
      vertex 34.3029 2.30294 -1.8
      vertex 33.6 4 -1.8
    endloop
  endfacet
  facet normal -0.382684 0.923879 0
    outer loop
      vertex 36 6.4 -1.8
      vertex 34.3029 5.69706 -7.62939e-007
      vertex 36 6.4 -7.62939e-007
    endloop
  endfacet
  facet normal -0.382684 0.923879 0
    outer loop
      vertex 34.3029 5.69706 -7.62939e-007
      vertex 36 6.4 -1.8
      vertex 34.3029 5.69706 -1.8
    endloop
  endfacet
  facet normal 0.382684 -0.923879 0
    outer loop
      vertex 36 1.6 -1.8
      vertex 37.6971 2.30294 -7.62939e-007
      vertex 36 1.6 -7.62939e-007
    endloop
  endfacet
  facet normal 0.382684 -0.923879 0
    outer loop
      vertex 37.6971 2.30294 -7.62939e-007
      vertex 36 1.6 -1.8
      vertex 37.6971 2.30294 -1.8
    endloop
  endfacet
  facet normal -0.923879 -0.382684 0
    outer loop
      vertex 34.3029 2.30294 -1.8
      vertex 33.6 4 -7.62939e-007
      vertex 33.6 4 -1.8
    endloop
  endfacet
  facet normal -0.923879 -0.382684 0
    outer loop
      vertex 33.6 4 -7.62939e-007
      vertex 34.3029 2.30294 -1.8
      vertex 34.3029 2.30294 -7.62939e-007
    endloop
  endfacet
  facet normal 0.923879 -0.382684 0
    outer loop
      vertex 37.6971 2.30294 -7.62939e-007
      vertex 38.4 4 -1.8
      vertex 38.4 4 -7.62939e-007
    endloop
  endfacet
  facet normal 0.923879 -0.382684 0
    outer loop
      vertex 38.4 4 -1.8
      vertex 37.6971 2.30294 -7.62939e-007
      vertex 37.6971 2.30294 -1.8
    endloop
  endfacet
  facet normal -0.382684 -0.923879 0
    outer loop
      vertex 34.3029 2.30294 -1.8
      vertex 36 1.6 -7.62939e-007
      vertex 34.3029 2.30294 -7.62939e-007
    endloop
  endfacet
  facet normal -0.382684 -0.923879 -0
    outer loop
      vertex 36 1.6 -7.62939e-007
      vertex 34.3029 2.30294 -1.8
      vertex 36 1.6 -1.8
    endloop
  endfacet
  facet normal 0 0 1
    outer loop
      vertex 37.6971 5.69706 -7.62939e-007
      vertex 37.6971 2.30294 -7.62939e-007
      vertex 38.4 4 -7.62939e-007
    endloop
  endfacet
  facet normal 0 0 1
    outer loop
      vertex 36 6.4 -7.62939e-007
      vertex 37.6971 2.30294 -7.62939e-007
      vertex 37.6971 5.69706 -7.62939e-007
    endloop
  endfacet
  facet normal 0 0 1
    outer loop
      vertex 36 6.4 -7.62939e-007
      vertex 36 1.6 -7.62939e-007
      vertex 37.6971 2.30294 -7.62939e-007
    endloop
  endfacet
  facet normal -0 0 1
    outer loop
      vertex 34.3029 5.69706 -7.62939e-007
      vertex 36 1.6 -7.62939e-007
      vertex 36 6.4 -7.62939e-007
    endloop
  endfacet
  facet normal 0 0 1
    outer loop
      vertex 34.3029 5.69706 -7.62939e-007
      vertex 34.3029 2.30294 -7.62939e-007
      vertex 36 1.6 -7.62939e-007
    endloop
  endfacet
  facet normal 0 -0 1
    outer loop
      vertex 34.3029 2.30294 -7.62939e-007
      vertex 34.3029 5.69706 -7.62939e-007
      vertex 33.6 4 -7.62939e-007
    endloop
  endfacet
  facet normal 0.923879 0.382684 0
    outer loop
      vertex 38.4 12 -7.62939e-007
      vertex 37.6971 13.6971 -1.8
      vertex 37.6971 13.6971 -7.62939e-007
    endloop
  endfacet
  facet normal 0.923879 0.382684 0
    outer loop
      vertex 37.6971 13.6971 -1.8
      vertex 38.4 12 -7.62939e-007
      vertex 38.4 12 -1.8
    endloop
  endfacet
  facet normal -0.382684 0.923879 0
    outer loop
      vertex 36 14.4 -1.8
      vertex 34.3029 13.6971 -7.62939e-007
      vertex 36 14.4 -7.62939e-007
    endloop
  endfacet
  facet normal -0.382684 0.923879 0
    outer loop
      vertex 34.3029 13.6971 -7.62939e-007
      vertex 36 14.4 -1.8
      vertex 34.3029 13.6971 -1.8
    endloop
  endfacet
  facet normal 0.382684 0.923879 -0
    outer loop
      vertex 37.6971 13.6971 -1.8
      vertex 36 14.4 -7.62939e-007
      vertex 37.6971 13.6971 -7.62939e-007
    endloop
  endfacet
  facet normal 0.382684 0.923879 0
    outer loop
      vertex 36 14.4 -7.62939e-007
      vertex 37.6971 13.6971 -1.8
      vertex 36 14.4 -1.8
    endloop
  endfacet
  facet normal 0 0 1
    outer loop
      vertex 37.6971 13.6971 -7.62939e-007
      vertex 37.6971 10.3029 -7.62939e-007
      vertex 38.4 12 -7.62939e-007
    endloop
  endfacet
  facet normal 0 0 1
    outer loop
      vertex 36 14.4 -7.62939e-007
      vertex 37.6971 10.3029 -7.62939e-007
      vertex 37.6971 13.6971 -7.62939e-007
    endloop
  endfacet
  facet normal 0 0 1
    outer loop
      vertex 36 14.4 -7.62939e-007
      vertex 36 9.6 -7.62939e-007
      vertex 37.6971 10.3029 -7.62939e-007
    endloop
  endfacet
  facet normal -0 0 1
    outer loop
      vertex 34.3029 13.6971 -7.62939e-007
      vertex 36 9.6 -7.62939e-007
      vertex 36 14.4 -7.62939e-007
    endloop
  endfacet
  facet normal 0 0 1
    outer loop
      vertex 34.3029 13.6971 -7.62939e-007
      vertex 34.3029 10.3029 -7.62939e-007
      vertex 36 9.6 -7.62939e-007
    endloop
  endfacet
  facet normal 0 -0 1
    outer loop
      vertex 34.3029 10.3029 -7.62939e-007
      vertex 34.3029 13.6971 -7.62939e-007
      vertex 33.6 12 -7.62939e-007
    endloop
  endfacet
  facet normal -0.923879 0.382684 0
    outer loop
      vertex 33.6 12 -1.8
      vertex 34.3029 13.6971 -7.62939e-007
      vertex 34.3029 13.6971 -1.8
    endloop
  endfacet
  facet normal -0.923879 0.382684 0
    outer loop
      vertex 34.3029 13.6971 -7.62939e-007
      vertex 33.6 12 -1.8
      vertex 33.6 12 -7.62939e-007
    endloop
  endfacet
  facet normal 0.923879 -0.382684 0
    outer loop
      vertex 37.6971 10.3029 -7.62939e-007
      vertex 38.4 12 -1.8
      vertex 38.4 12 -7.62939e-007
    endloop
  endfacet
  facet normal 0.923879 -0.382684 0
    outer loop
      vertex 38.4 12 -1.8
      vertex 37.6971 10.3029 -7.62939e-007
      vertex 37.6971 10.3029 -1.8
    endloop
  endfacet
  facet normal -0.923879 -0.382684 0
    outer loop
      vertex 34.3029 10.3029 -1.8
      vertex 33.6 12 -7.62939e-007
      vertex 33.6 12 -1.8
    endloop
  endfacet
  facet normal -0.923879 -0.382684 0
    outer loop
      vertex 33.6 12 -7.62939e-007
      vertex 34.3029 10.3029 -1.8
      vertex 34.3029 10.3029 -7.62939e-007
    endloop
  endfacet
  facet normal 0.382684 -0.923879 0
    outer loop
      vertex 36 9.6 -1.8
      vertex 37.6971 10.3029 -7.62939e-007
      vertex 36 9.6 -7.62939e-007
    endloop
  endfacet
  facet normal 0.382684 -0.923879 0
    outer loop
      vertex 37.6971 10.3029 -7.62939e-007
      vertex 36 9.6 -1.8
      vertex 37.6971 10.3029 -1.8
    endloop
  endfacet
  facet normal -0.382684 -0.923879 0
    outer loop
      vertex 34.3029 10.3029 -1.8
      vertex 36 9.6 -7.62939e-007
      vertex 34.3029 10.3029 -7.62939e-007
    endloop
  endfacet
  facet normal -0.382684 -0.923879 -0
    outer loop
      vertex 36 9.6 -7.62939e-007
      vertex 34.3029 10.3029 -1.8
      vertex 36 9.6 -1.8
    endloop
  endfacet
  facet normal 0.923879 0.382684 0
    outer loop
      vertex 6.4 4 31.8
      vertex 5.69706 5.69706 30
      vertex 5.69706 5.69706 31.8
    endloop
  endfacet
  facet normal 0.923879 0.382684 0
    outer loop
      vertex 5.69706 5.69706 30
      vertex 6.4 4 31.8
      vertex 6.4 4 30
    endloop
  endfacet
  facet normal -0.923879 0.382684 0
    outer loop
      vertex 1.6 4 30
      vertex 2.30294 5.69706 31.8
      vertex 2.30294 5.69706 30
    endloop
  endfacet
  facet normal -0.923879 0.382684 0
    outer loop
      vertex 2.30294 5.69706 31.8
      vertex 1.6 4 30
      vertex 1.6 4 31.8
    endloop
  endfacet
  facet normal 0.382684 0.923879 -0
    outer loop
      vertex 5.69706 5.69706 30
      vertex 4 6.4 31.8
      vertex 5.69706 5.69706 31.8
    endloop
  endfacet
  facet normal 0.382684 0.923879 0
    outer loop
      vertex 4 6.4 31.8
      vertex 5.69706 5.69706 30
      vertex 4 6.4 30
    endloop
  endfacet
  facet normal 0 0 1
    outer loop
      vertex 5.69706 5.69706 31.8
      vertex 5.69706 2.30294 31.8
      vertex 6.4 4 31.8
    endloop
  endfacet
  facet normal 0 0 1
    outer loop
      vertex 4 6.4 31.8
      vertex 5.69706 2.30294 31.8
      vertex 5.69706 5.69706 31.8
    endloop
  endfacet
  facet normal 0 0 1
    outer loop
      vertex 4 6.4 31.8
      vertex 4 1.6 31.8
      vertex 5.69706 2.30294 31.8
    endloop
  endfacet
  facet normal -0 0 1
    outer loop
      vertex 2.30294 5.69706 31.8
      vertex 4 1.6 31.8
      vertex 4 6.4 31.8
    endloop
  endfacet
  facet normal 0 0 1
    outer loop
      vertex 2.30294 5.69706 31.8
      vertex 2.30294 2.30294 31.8
      vertex 4 1.6 31.8
    endloop
  endfacet
  facet normal 0 -0 1
    outer loop
      vertex 2.30294 2.30294 31.8
      vertex 2.30294 5.69706 31.8
      vertex 1.6 4 31.8
    endloop
  endfacet
  facet normal -0.382684 0.923879 0
    outer loop
      vertex 4 6.4 30
      vertex 2.30294 5.69706 31.8
      vertex 4 6.4 31.8
    endloop
  endfacet
  facet normal -0.382684 0.923879 0
    outer loop
      vertex 2.30294 5.69706 31.8
      vertex 4 6.4 30
      vertex 2.30294 5.69706 30
    endloop
  endfacet
  facet normal 0.382684 -0.923879 0
    outer loop
      vertex 4 1.6 30
      vertex 5.69706 2.30294 31.8
      vertex 4 1.6 31.8
    endloop
  endfacet
  facet normal 0.382684 -0.923879 0
    outer loop
      vertex 5.69706 2.30294 31.8
      vertex 4 1.6 30
      vertex 5.69706 2.30294 30
    endloop
  endfacet
  facet normal -0.923879 -0.382684 0
    outer loop
      vertex 2.30294 2.30294 30
      vertex 1.6 4 31.8
      vertex 1.6 4 30
    endloop
  endfacet
  facet normal -0.923879 -0.382684 0
    outer loop
      vertex 1.6 4 31.8
      vertex 2.30294 2.30294 30
      vertex 2.30294 2.30294 31.8
    endloop
  endfacet
  facet normal 0.923879 -0.382684 0
    outer loop
      vertex 5.69706 2.30294 31.8
      vertex 6.4 4 30
      vertex 6.4 4 31.8
    endloop
  endfacet
  facet normal 0.923879 -0.382684 0
    outer loop
      vertex 6.4 4 30
      vertex 5.69706 2.30294 31.8
      vertex 5.69706 2.30294 30
    endloop
  endfacet
  facet normal -0.382684 -0.923879 0
    outer loop
      vertex 2.30294 2.30294 30
      vertex 4 1.6 31.8
      vertex 2.30294 2.30294 31.8
    endloop
  endfacet
  facet normal -0.382684 -0.923879 -0
    outer loop
      vertex 4 1.6 31.8
      vertex 2.30294 2.30294 30
      vertex 4 1.6 30
    endloop
  endfacet
  facet normal 0.923879 0.382684 0
    outer loop
      vertex 6.4 12 31.8
      vertex 5.69706 13.6971 30
      vertex 5.69706 13.6971 31.8
    endloop
  endfacet
  facet normal 0.923879 0.382684 0
    outer loop
      vertex 5.69706 13.6971 30
      vertex 6.4 12 31.8
      vertex 6.4 12 30
    endloop
  endfacet
  facet normal -0.382684 0.923879 0
    outer loop
      vertex 4 14.4 30
      vertex 2.30294 13.6971 31.8
      vertex 4 14.4 31.8
    endloop
  endfacet
  facet normal -0.382684 0.923879 0
    outer loop
      vertex 2.30294 13.6971 31.8
      vertex 4 14.4 30
      vertex 2.30294 13.6971 30
    endloop
  endfacet
  facet normal 0.382684 0.923879 -0
    outer loop
      vertex 5.69706 13.6971 30
      vertex 4 14.4 31.8
      vertex 5.69706 13.6971 31.8
    endloop
  endfacet
  facet normal 0.382684 0.923879 0
    outer loop
      vertex 4 14.4 31.8
      vertex 5.69706 13.6971 30
      vertex 4 14.4 30
    endloop
  endfacet
  facet normal 0 0 1
    outer loop
      vertex 5.69706 13.6971 31.8
      vertex 5.69706 10.3029 31.8
      vertex 6.4 12 31.8
    endloop
  endfacet
  facet normal 0 0 1
    outer loop
      vertex 4 14.4 31.8
      vertex 5.69706 10.3029 31.8
      vertex 5.69706 13.6971 31.8
    endloop
  endfacet
  facet normal 0 0 1
    outer loop
      vertex 4 14.4 31.8
      vertex 4 9.6 31.8
      vertex 5.69706 10.3029 31.8
    endloop
  endfacet
  facet normal -0 0 1
    outer loop
      vertex 2.30294 13.6971 31.8
      vertex 4 9.6 31.8
      vertex 4 14.4 31.8
    endloop
  endfacet
  facet normal 0 0 1
    outer loop
      vertex 2.30294 13.6971 31.8
      vertex 2.30294 10.3029 31.8
      vertex 4 9.6 31.8
    endloop
  endfacet
  facet normal 0 -0 1
    outer loop
      vertex 2.30294 10.3029 31.8
      vertex 2.30294 13.6971 31.8
      vertex 1.6 12 31.8
    endloop
  endfacet
  facet normal -0.923879 0.382684 0
    outer loop
      vertex 1.6 12 30
      vertex 2.30294 13.6971 31.8
      vertex 2.30294 13.6971 30
    endloop
  endfacet
  facet normal -0.923879 0.382684 0
    outer loop
      vertex 2.30294 13.6971 31.8
      vertex 1.6 12 30
      vertex 1.6 12 31.8
    endloop
  endfacet
  facet normal 0.92388 -0.382683 0
    outer loop
      vertex 5.69706 10.3029 31.8
      vertex 6.4 12 30
      vertex 6.4 12 31.8
    endloop
  endfacet
  facet normal 0.92388 -0.382683 0
    outer loop
      vertex 6.4 12 30
      vertex 5.69706 10.3029 31.8
      vertex 5.69706 10.3029 30
    endloop
  endfacet
  facet normal -0.382684 -0.923879 0
    outer loop
      vertex 2.30294 10.3029 30
      vertex 4 9.6 31.8
      vertex 2.30294 10.3029 31.8
    endloop
  endfacet
  facet normal -0.382684 -0.923879 -0
    outer loop
      vertex 4 9.6 31.8
      vertex 2.30294 10.3029 30
      vertex 4 9.6 30
    endloop
  endfacet
  facet normal -0.92388 -0.382683 0
    outer loop
      vertex 2.30294 10.3029 30
      vertex 1.6 12 31.8
      vertex 1.6 12 30
    endloop
  endfacet
  facet normal -0.92388 -0.382683 0
    outer loop
      vertex 1.6 12 31.8
      vertex 2.30294 10.3029 30
      vertex 2.30294 10.3029 31.8
    endloop
  endfacet
  facet normal 0.382684 -0.923879 0
    outer loop
      vertex 4 9.6 30
      vertex 5.69706 10.3029 31.8
      vertex 4 9.6 31.8
    endloop
  endfacet
  facet normal 0.382684 -0.923879 0
    outer loop
      vertex 5.69706 10.3029 31.8
      vertex 4 9.6 30
      vertex 5.69706 10.3029 30
    endloop
  endfacet
  facet normal 0.923879 0.382684 0
    outer loop
      vertex 14.4 4 31.8
      vertex 13.6971 5.69706 30
      vertex 13.6971 5.69706 31.8
    endloop
  endfacet
  facet normal 0.923879 0.382684 0
    outer loop
      vertex 13.6971 5.69706 30
      vertex 14.4 4 31.8
      vertex 14.4 4 30
    endloop
  endfacet
  facet normal -0.923879 0.382684 0
    outer loop
      vertex 9.6 4 30
      vertex 10.3029 5.69706 31.8
      vertex 10.3029 5.69706 30
    endloop
  endfacet
  facet normal -0.923879 0.382684 0
    outer loop
      vertex 10.3029 5.69706 31.8
      vertex 9.6 4 30
      vertex 9.6 4 31.8
    endloop
  endfacet
  facet normal 0.382684 0.923879 -0
    outer loop
      vertex 13.6971 5.69706 30
      vertex 12 6.4 31.8
      vertex 13.6971 5.69706 31.8
    endloop
  endfacet
  facet normal 0.382684 0.923879 0
    outer loop
      vertex 12 6.4 31.8
      vertex 13.6971 5.69706 30
      vertex 12 6.4 30
    endloop
  endfacet
  facet normal -0.382683 0.92388 0
    outer loop
      vertex 12 6.4 30
      vertex 10.3029 5.69706 31.8
      vertex 12 6.4 31.8
    endloop
  endfacet
  facet normal -0.382683 0.92388 0
    outer loop
      vertex 10.3029 5.69706 31.8
      vertex 12 6.4 30
      vertex 10.3029 5.69706 30
    endloop
  endfacet
  facet normal 0.382684 -0.923879 0
    outer loop
      vertex 12 1.6 30
      vertex 13.6971 2.30294 31.8
      vertex 12 1.6 31.8
    endloop
  endfacet
  facet normal 0.382684 -0.923879 0
    outer loop
      vertex 13.6971 2.30294 31.8
      vertex 12 1.6 30
      vertex 13.6971 2.30294 30
    endloop
  endfacet
  facet normal -0.923879 -0.382684 0
    outer loop
      vertex 10.3029 2.30294 30
      vertex 9.6 4 31.8
      vertex 9.6 4 30
    endloop
  endfacet
  facet normal -0.923879 -0.382684 0
    outer loop
      vertex 9.6 4 31.8
      vertex 10.3029 2.30294 30
      vertex 10.3029 2.30294 31.8
    endloop
  endfacet
  facet normal 0.923879 -0.382684 0
    outer loop
      vertex 13.6971 2.30294 31.8
      vertex 14.4 4 30
      vertex 14.4 4 31.8
    endloop
  endfacet
  facet normal 0.923879 -0.382684 0
    outer loop
      vertex 14.4 4 30
      vertex 13.6971 2.30294 31.8
      vertex 13.6971 2.30294 30
    endloop
  endfacet
  facet normal -0.382683 -0.92388 0
    outer loop
      vertex 10.3029 2.30294 30
      vertex 12 1.6 31.8
      vertex 10.3029 2.30294 31.8
    endloop
  endfacet
  facet normal -0.382683 -0.92388 -0
    outer loop
      vertex 12 1.6 31.8
      vertex 10.3029 2.30294 30
      vertex 12 1.6 30
    endloop
  endfacet
  facet normal 0 0 1
    outer loop
      vertex 13.6971 5.69706 31.8
      vertex 13.6971 2.30294 31.8
      vertex 14.4 4 31.8
    endloop
  endfacet
  facet normal 0 0 1
    outer loop
      vertex 12 6.4 31.8
      vertex 13.6971 2.30294 31.8
      vertex 13.6971 5.69706 31.8
    endloop
  endfacet
  facet normal 0 0 1
    outer loop
      vertex 12 6.4 31.8
      vertex 12 1.6 31.8
      vertex 13.6971 2.30294 31.8
    endloop
  endfacet
  facet normal -0 0 1
    outer loop
      vertex 10.3029 5.69706 31.8
      vertex 12 1.6 31.8
      vertex 12 6.4 31.8
    endloop
  endfacet
  facet normal 0 0 1
    outer loop
      vertex 10.3029 5.69706 31.8
      vertex 10.3029 2.30294 31.8
      vertex 12 1.6 31.8
    endloop
  endfacet
  facet normal 0 -0 1
    outer loop
      vertex 10.3029 2.30294 31.8
      vertex 10.3029 5.69706 31.8
      vertex 9.6 4 31.8
    endloop
  endfacet
  facet normal 0.923879 0.382684 0
    outer loop
      vertex 14.4 12 31.8
      vertex 13.6971 13.6971 30
      vertex 13.6971 13.6971 31.8
    endloop
  endfacet
  facet normal 0.923879 0.382684 0
    outer loop
      vertex 13.6971 13.6971 30
      vertex 14.4 12 31.8
      vertex 14.4 12 30
    endloop
  endfacet
  facet normal -0.92388 -0.382683 0
    outer loop
      vertex 10.3029 10.3029 30
      vertex 9.6 12 31.8
      vertex 9.6 12 30
    endloop
  endfacet
  facet normal -0.92388 -0.382683 0
    outer loop
      vertex 9.6 12 31.8
      vertex 10.3029 10.3029 30
      vertex 10.3029 10.3029 31.8
    endloop
  endfacet
  facet normal -0.382683 0.92388 0
    outer loop
      vertex 12 14.4 30
      vertex 10.3029 13.6971 31.8
      vertex 12 14.4 31.8
    endloop
  endfacet
  facet normal -0.382683 0.92388 0
    outer loop
      vertex 10.3029 13.6971 31.8
      vertex 12 14.4 30
      vertex 10.3029 13.6971 30
    endloop
  endfacet
  facet normal 0.382684 0.923879 -0
    outer loop
      vertex 13.6971 13.6971 30
      vertex 12 14.4 31.8
      vertex 13.6971 13.6971 31.8
    endloop
  endfacet
  facet normal 0.382684 0.923879 0
    outer loop
      vertex 12 14.4 31.8
      vertex 13.6971 13.6971 30
      vertex 12 14.4 30
    endloop
  endfacet
  facet normal 0 0 1
    outer loop
      vertex 13.6971 13.6971 31.8
      vertex 13.6971 10.3029 31.8
      vertex 14.4 12 31.8
    endloop
  endfacet
  facet normal 0 0 1
    outer loop
      vertex 12 14.4 31.8
      vertex 13.6971 10.3029 31.8
      vertex 13.6971 13.6971 31.8
    endloop
  endfacet
  facet normal 0 0 1
    outer loop
      vertex 12 14.4 31.8
      vertex 12 9.6 31.8
      vertex 13.6971 10.3029 31.8
    endloop
  endfacet
  facet normal -0 0 1
    outer loop
      vertex 10.3029 13.6971 31.8
      vertex 12 9.6 31.8
      vertex 12 14.4 31.8
    endloop
  endfacet
  facet normal 0 0 1
    outer loop
      vertex 10.3029 13.6971 31.8
      vertex 10.3029 10.3029 31.8
      vertex 12 9.6 31.8
    endloop
  endfacet
  facet normal 0 -0 1
    outer loop
      vertex 10.3029 10.3029 31.8
      vertex 10.3029 13.6971 31.8
      vertex 9.6 12 31.8
    endloop
  endfacet
  facet normal -0.923879 0.382684 0
    outer loop
      vertex 9.6 12 30
      vertex 10.3029 13.6971 31.8
      vertex 10.3029 13.6971 30
    endloop
  endfacet
  facet normal -0.923879 0.382684 0
    outer loop
      vertex 10.3029 13.6971 31.8
      vertex 9.6 12 30
      vertex 9.6 12 31.8
    endloop
  endfacet
  facet normal 0.92388 -0.382683 0
    outer loop
      vertex 13.6971 10.3029 31.8
      vertex 14.4 12 30
      vertex 14.4 12 31.8
    endloop
  endfacet
  facet normal 0.92388 -0.382683 0
    outer loop
      vertex 14.4 12 30
      vertex 13.6971 10.3029 31.8
      vertex 13.6971 10.3029 30
    endloop
  endfacet
  facet normal 0.382684 -0.923879 0
    outer loop
      vertex 12 9.6 30
      vertex 13.6971 10.3029 31.8
      vertex 12 9.6 31.8
    endloop
  endfacet
  facet normal 0.382684 -0.923879 0
    outer loop
      vertex 13.6971 10.3029 31.8
      vertex 12 9.6 30
      vertex 13.6971 10.3029 30
    endloop
  endfacet
  facet normal -0.382683 -0.92388 0
    outer loop
      vertex 10.3029 10.3029 30
      vertex 12 9.6 31.8
      vertex 10.3029 10.3029 31.8
    endloop
  endfacet
  facet normal -0.382683 -0.92388 -0
    outer loop
      vertex 12 9.6 31.8
      vertex 10.3029 10.3029 30
      vertex 12 9.6 30
    endloop
  endfacet
  facet normal 0.923879 0.382684 0
    outer loop
      vertex 22.4 4 31.8
      vertex 21.6971 5.69706 30
      vertex 21.6971 5.69706 31.8
    endloop
  endfacet
  facet normal 0.923879 0.382684 0
    outer loop
      vertex 21.6971 5.69706 30
      vertex 22.4 4 31.8
      vertex 22.4 4 30
    endloop
  endfacet
  facet normal -0.923879 0.382684 0
    outer loop
      vertex 17.6 4 30
      vertex 18.3029 5.69706 31.8
      vertex 18.3029 5.69706 30
    endloop
  endfacet
  facet normal -0.923879 0.382684 0
    outer loop
      vertex 18.3029 5.69706 31.8
      vertex 17.6 4 30
      vertex 17.6 4 31.8
    endloop
  endfacet
  facet normal 0.382684 0.923879 -0
    outer loop
      vertex 21.6971 5.69706 30
      vertex 20 6.4 31.8
      vertex 21.6971 5.69706 31.8
    endloop
  endfacet
  facet normal 0.382684 0.923879 0
    outer loop
      vertex 20 6.4 31.8
      vertex 21.6971 5.69706 30
      vertex 20 6.4 30
    endloop
  endfacet
  facet normal -0.382684 0.923879 0
    outer loop
      vertex 20 6.4 30
      vertex 18.3029 5.69706 31.8
      vertex 20 6.4 31.8
    endloop
  endfacet
  facet normal -0.382684 0.923879 0
    outer loop
      vertex 18.3029 5.69706 31.8
      vertex 20 6.4 30
      vertex 18.3029 5.69706 30
    endloop
  endfacet
  facet normal 0.382684 -0.923879 0
    outer loop
      vertex 20 1.6 30
      vertex 21.6971 2.30294 31.8
      vertex 20 1.6 31.8
    endloop
  endfacet
  facet normal 0.382684 -0.923879 0
    outer loop
      vertex 21.6971 2.30294 31.8
      vertex 20 1.6 30
      vertex 21.6971 2.30294 30
    endloop
  endfacet
  facet normal -0.923879 -0.382684 0
    outer loop
      vertex 18.3029 2.30294 30
      vertex 17.6 4 31.8
      vertex 17.6 4 30
    endloop
  endfacet
  facet normal -0.923879 -0.382684 0
    outer loop
      vertex 17.6 4 31.8
      vertex 18.3029 2.30294 30
      vertex 18.3029 2.30294 31.8
    endloop
  endfacet
  facet normal 0.923879 -0.382684 0
    outer loop
      vertex 21.6971 2.30294 31.8
      vertex 22.4 4 30
      vertex 22.4 4 31.8
    endloop
  endfacet
  facet normal 0.923879 -0.382684 0
    outer loop
      vertex 22.4 4 30
      vertex 21.6971 2.30294 31.8
      vertex 21.6971 2.30294 30
    endloop
  endfacet
  facet normal -0.382684 -0.923879 0
    outer loop
      vertex 18.3029 2.30294 30
      vertex 20 1.6 31.8
      vertex 18.3029 2.30294 31.8
    endloop
  endfacet
  facet normal -0.382684 -0.923879 -0
    outer loop
      vertex 20 1.6 31.8
      vertex 18.3029 2.30294 30
      vertex 20 1.6 30
    endloop
  endfacet
  facet normal 0 0 1
    outer loop
      vertex 21.6971 5.69706 31.8
      vertex 21.6971 2.30294 31.8
      vertex 22.4 4 31.8
    endloop
  endfacet
  facet normal 0 0 1
    outer loop
      vertex 20 6.4 31.8
      vertex 21.6971 2.30294 31.8
      vertex 21.6971 5.69706 31.8
    endloop
  endfacet
  facet normal 0 0 1
    outer loop
      vertex 20 6.4 31.8
      vertex 20 1.6 31.8
      vertex 21.6971 2.30294 31.8
    endloop
  endfacet
  facet normal -0 0 1
    outer loop
      vertex 18.3029 5.69706 31.8
      vertex 20 1.6 31.8
      vertex 20 6.4 31.8
    endloop
  endfacet
  facet normal 0 0 1
    outer loop
      vertex 18.3029 5.69706 31.8
      vertex 18.3029 2.30294 31.8
      vertex 20 1.6 31.8
    endloop
  endfacet
  facet normal 0 -0 1
    outer loop
      vertex 18.3029 2.30294 31.8
      vertex 18.3029 5.69706 31.8
      vertex 17.6 4 31.8
    endloop
  endfacet
  facet normal 0.923879 0.382684 0
    outer loop
      vertex 22.4 12 31.8
      vertex 21.6971 13.6971 30
      vertex 21.6971 13.6971 31.8
    endloop
  endfacet
  facet normal 0.923879 0.382684 0
    outer loop
      vertex 21.6971 13.6971 30
      vertex 22.4 12 31.8
      vertex 22.4 12 30
    endloop
  endfacet
  facet normal -0.923879 -0.382684 0
    outer loop
      vertex 18.3029 10.3029 30
      vertex 17.6 12 31.8
      vertex 17.6 12 30
    endloop
  endfacet
  facet normal -0.923879 -0.382684 0
    outer loop
      vertex 17.6 12 31.8
      vertex 18.3029 10.3029 30
      vertex 18.3029 10.3029 31.8
    endloop
  endfacet
  facet normal -0.382684 0.923879 0
    outer loop
      vertex 20 14.4 30
      vertex 18.3029 13.6971 31.8
      vertex 20 14.4 31.8
    endloop
  endfacet
  facet normal -0.382684 0.923879 0
    outer loop
      vertex 18.3029 13.6971 31.8
      vertex 20 14.4 30
      vertex 18.3029 13.6971 30
    endloop
  endfacet
  facet normal 0.382684 0.923879 -0
    outer loop
      vertex 21.6971 13.6971 30
      vertex 20 14.4 31.8
      vertex 21.6971 13.6971 31.8
    endloop
  endfacet
  facet normal 0.382684 0.923879 0
    outer loop
      vertex 20 14.4 31.8
      vertex 21.6971 13.6971 30
      vertex 20 14.4 30
    endloop
  endfacet
  facet normal 0 0 1
    outer loop
      vertex 21.6971 13.6971 31.8
      vertex 21.6971 10.3029 31.8
      vertex 22.4 12 31.8
    endloop
  endfacet
  facet normal 0 0 1
    outer loop
      vertex 20 14.4 31.8
      vertex 21.6971 10.3029 31.8
      vertex 21.6971 13.6971 31.8
    endloop
  endfacet
  facet normal 0 0 1
    outer loop
      vertex 20 14.4 31.8
      vertex 20 9.6 31.8
      vertex 21.6971 10.3029 31.8
    endloop
  endfacet
  facet normal -0 0 1
    outer loop
      vertex 18.3029 13.6971 31.8
      vertex 20 9.6 31.8
      vertex 20 14.4 31.8
    endloop
  endfacet
  facet normal 0 0 1
    outer loop
      vertex 18.3029 13.6971 31.8
      vertex 18.3029 10.3029 31.8
      vertex 20 9.6 31.8
    endloop
  endfacet
  facet normal 0 -0 1
    outer loop
      vertex 18.3029 10.3029 31.8
      vertex 18.3029 13.6971 31.8
      vertex 17.6 12 31.8
    endloop
  endfacet
  facet normal -0.923879 0.382684 0
    outer loop
      vertex 17.6 12 30
      vertex 18.3029 13.6971 31.8
      vertex 18.3029 13.6971 30
    endloop
  endfacet
  facet normal -0.923879 0.382684 0
    outer loop
      vertex 18.3029 13.6971 31.8
      vertex 17.6 12 30
      vertex 17.6 12 31.8
    endloop
  endfacet
  facet normal 0.92388 -0.382683 0
    outer loop
      vertex 21.6971 10.3029 31.8
      vertex 22.4 12 30
      vertex 22.4 12 31.8
    endloop
  endfacet
  facet normal 0.92388 -0.382683 0
    outer loop
      vertex 22.4 12 30
      vertex 21.6971 10.3029 31.8
      vertex 21.6971 10.3029 30
    endloop
  endfacet
  facet normal 0.382684 -0.923879 0
    outer loop
      vertex 20 9.6 30
      vertex 21.6971 10.3029 31.8
      vertex 20 9.6 31.8
    endloop
  endfacet
  facet normal 0.382684 -0.923879 0
    outer loop
      vertex 21.6971 10.3029 31.8
      vertex 20 9.6 30
      vertex 21.6971 10.3029 30
    endloop
  endfacet
  facet normal -0.382684 -0.923879 0
    outer loop
      vertex 18.3029 10.3029 30
      vertex 20 9.6 31.8
      vertex 18.3029 10.3029 31.8
    endloop
  endfacet
  facet normal -0.382684 -0.923879 -0
    outer loop
      vertex 20 9.6 31.8
      vertex 18.3029 10.3029 30
      vertex 20 9.6 30
    endloop
  endfacet
  facet normal 0.923879 0.382684 0
    outer loop
      vertex 30.4 4 31.8
      vertex 29.6971 5.69706 30
      vertex 29.6971 5.69706 31.8
    endloop
  endfacet
  facet normal 0.923879 0.382684 0
    outer loop
      vertex 29.6971 5.69706 30
      vertex 30.4 4 31.8
      vertex 30.4 4 30
    endloop
  endfacet
  facet normal -0.923879 0.382684 0
    outer loop
      vertex 25.6 4 30
      vertex 26.3029 5.69706 31.8
      vertex 26.3029 5.69706 30
    endloop
  endfacet
  facet normal -0.923879 0.382684 0
    outer loop
      vertex 26.3029 5.69706 31.8
      vertex 25.6 4 30
      vertex 25.6 4 31.8
    endloop
  endfacet
  facet normal 0.382684 0.923879 -0
    outer loop
      vertex 29.6971 5.69706 30
      vertex 28 6.4 31.8
      vertex 29.6971 5.69706 31.8
    endloop
  endfacet
  facet normal 0.382684 0.923879 0
    outer loop
      vertex 28 6.4 31.8
      vertex 29.6971 5.69706 30
      vertex 28 6.4 30
    endloop
  endfacet
  facet normal -0.382684 0.923879 0
    outer loop
      vertex 28 6.4 30
      vertex 26.3029 5.69706 31.8
      vertex 28 6.4 31.8
    endloop
  endfacet
  facet normal -0.382684 0.923879 0
    outer loop
      vertex 26.3029 5.69706 31.8
      vertex 28 6.4 30
      vertex 26.3029 5.69706 30
    endloop
  endfacet
  facet normal 0.382684 -0.923879 0
    outer loop
      vertex 28 1.6 30
      vertex 29.6971 2.30294 31.8
      vertex 28 1.6 31.8
    endloop
  endfacet
  facet normal 0.382684 -0.923879 0
    outer loop
      vertex 29.6971 2.30294 31.8
      vertex 28 1.6 30
      vertex 29.6971 2.30294 30
    endloop
  endfacet
  facet normal -0.923879 -0.382684 0
    outer loop
      vertex 26.3029 2.30294 30
      vertex 25.6 4 31.8
      vertex 25.6 4 30
    endloop
  endfacet
  facet normal -0.923879 -0.382684 0
    outer loop
      vertex 25.6 4 31.8
      vertex 26.3029 2.30294 30
      vertex 26.3029 2.30294 31.8
    endloop
  endfacet
  facet normal 0.923879 -0.382684 0
    outer loop
      vertex 29.6971 2.30294 31.8
      vertex 30.4 4 30
      vertex 30.4 4 31.8
    endloop
  endfacet
  facet normal 0.923879 -0.382684 0
    outer loop
      vertex 30.4 4 30
      vertex 29.6971 2.30294 31.8
      vertex 29.6971 2.30294 30
    endloop
  endfacet
  facet normal -0.382684 -0.923879 0
    outer loop
      vertex 26.3029 2.30294 30
      vertex 28 1.6 31.8
      vertex 26.3029 2.30294 31.8
    endloop
  endfacet
  facet normal -0.382684 -0.923879 -0
    outer loop
      vertex 28 1.6 31.8
      vertex 26.3029 2.30294 30
      vertex 28 1.6 30
    endloop
  endfacet
  facet normal 0 0 1
    outer loop
      vertex 29.6971 5.69706 31.8
      vertex 29.6971 2.30294 31.8
      vertex 30.4 4 31.8
    endloop
  endfacet
  facet normal 0 0 1
    outer loop
      vertex 28 6.4 31.8
      vertex 29.6971 2.30294 31.8
      vertex 29.6971 5.69706 31.8
    endloop
  endfacet
  facet normal 0 0 1
    outer loop
      vertex 28 6.4 31.8
      vertex 28 1.6 31.8
      vertex 29.6971 2.30294 31.8
    endloop
  endfacet
  facet normal -0 0 1
    outer loop
      vertex 26.3029 5.69706 31.8
      vertex 28 1.6 31.8
      vertex 28 6.4 31.8
    endloop
  endfacet
  facet normal 0 0 1
    outer loop
      vertex 26.3029 5.69706 31.8
      vertex 26.3029 2.30294 31.8
      vertex 28 1.6 31.8
    endloop
  endfacet
  facet normal 0 -0 1
    outer loop
      vertex 26.3029 2.30294 31.8
      vertex 26.3029 5.69706 31.8
      vertex 25.6 4 31.8
    endloop
  endfacet
  facet normal 0.923879 0.382684 0
    outer loop
      vertex 30.4 12 31.8
      vertex 29.6971 13.6971 30
      vertex 29.6971 13.6971 31.8
    endloop
  endfacet
  facet normal 0.923879 0.382684 0
    outer loop
      vertex 29.6971 13.6971 30
      vertex 30.4 12 31.8
      vertex 30.4 12 30
    endloop
  endfacet
  facet normal -0.923879 -0.382684 0
    outer loop
      vertex 26.3029 10.3029 30
      vertex 25.6 12 31.8
      vertex 25.6 12 30
    endloop
  endfacet
  facet normal -0.923879 -0.382684 0
    outer loop
      vertex 25.6 12 31.8
      vertex 26.3029 10.3029 30
      vertex 26.3029 10.3029 31.8
    endloop
  endfacet
  facet normal -0.382684 0.923879 0
    outer loop
      vertex 28 14.4 30
      vertex 26.3029 13.6971 31.8
      vertex 28 14.4 31.8
    endloop
  endfacet
  facet normal -0.382684 0.923879 0
    outer loop
      vertex 26.3029 13.6971 31.8
      vertex 28 14.4 30
      vertex 26.3029 13.6971 30
    endloop
  endfacet
  facet normal 0.382684 0.923879 -0
    outer loop
      vertex 29.6971 13.6971 30
      vertex 28 14.4 31.8
      vertex 29.6971 13.6971 31.8
    endloop
  endfacet
  facet normal 0.382684 0.923879 0
    outer loop
      vertex 28 14.4 31.8
      vertex 29.6971 13.6971 30
      vertex 28 14.4 30
    endloop
  endfacet
  facet normal 0 0 1
    outer loop
      vertex 29.6971 13.6971 31.8
      vertex 29.6971 10.3029 31.8
      vertex 30.4 12 31.8
    endloop
  endfacet
  facet normal 0 0 1
    outer loop
      vertex 28 14.4 31.8
      vertex 29.6971 10.3029 31.8
      vertex 29.6971 13.6971 31.8
    endloop
  endfacet
  facet normal 0 0 1
    outer loop
      vertex 28 14.4 31.8
      vertex 28 9.6 31.8
      vertex 29.6971 10.3029 31.8
    endloop
  endfacet
  facet normal -0 0 1
    outer loop
      vertex 26.3029 13.6971 31.8
      vertex 28 9.6 31.8
      vertex 28 14.4 31.8
    endloop
  endfacet
  facet normal 0 0 1
    outer loop
      vertex 26.3029 13.6971 31.8
      vertex 26.3029 10.3029 31.8
      vertex 28 9.6 31.8
    endloop
  endfacet
  facet normal 0 -0 1
    outer loop
      vertex 26.3029 10.3029 31.8
      vertex 26.3029 13.6971 31.8
      vertex 25.6 12 31.8
    endloop
  endfacet
  facet normal -0.923879 0.382684 0
    outer loop
      vertex 25.6 12 30
      vertex 26.3029 13.6971 31.8
      vertex 26.3029 13.6971 30
    endloop
  endfacet
  facet normal -0.923879 0.382684 0
    outer loop
      vertex 26.3029 13.6971 31.8
      vertex 25.6 12 30
      vertex 25.6 12 31.8
    endloop
  endfacet
  facet normal 0.92388 -0.382683 0
    outer loop
      vertex 29.6971 10.3029 31.8
      vertex 30.4 12 30
      vertex 30.4 12 31.8
    endloop
  endfacet
  facet normal 0.92388 -0.382683 0
    outer loop
      vertex 30.4 12 30
      vertex 29.6971 10.3029 31.8
      vertex 29.6971 10.3029 30
    endloop
  endfacet
  facet normal 0.382684 -0.923879 0
    outer loop
      vertex 28 9.6 30
      vertex 29.6971 10.3029 31.8
      vertex 28 9.6 31.8
    endloop
  endfacet
  facet normal 0.382684 -0.923879 0
    outer loop
      vertex 29.6971 10.3029 31.8
      vertex 28 9.6 30
      vertex 29.6971 10.3029 30
    endloop
  endfacet
  facet normal -0.382684 -0.923879 0
    outer loop
      vertex 26.3029 10.3029 30
      vertex 28 9.6 31.8
      vertex 26.3029 10.3029 31.8
    endloop
  endfacet
  facet normal -0.382684 -0.923879 -0
    outer loop
      vertex 28 9.6 31.8
      vertex 26.3029 10.3029 30
      vertex 28 9.6 30
    endloop
  endfacet
  facet normal 0.923879 0.382684 0
    outer loop
      vertex 38.4 4 31.8
      vertex 37.6971 5.69706 30
      vertex 37.6971 5.69706 31.8
    endloop
  endfacet
  facet normal 0.923879 0.382684 0
    outer loop
      vertex 37.6971 5.69706 30
      vertex 38.4 4 31.8
      vertex 38.4 4 30
    endloop
  endfacet
  facet normal -0.923879 0.382684 0
    outer loop
      vertex 33.6 4 30
      vertex 34.3029 5.69706 31.8
      vertex 34.3029 5.69706 30
    endloop
  endfacet
  facet normal -0.923879 0.382684 0
    outer loop
      vertex 34.3029 5.69706 31.8
      vertex 33.6 4 30
      vertex 33.6 4 31.8
    endloop
  endfacet
  facet normal 0.382684 0.923879 -0
    outer loop
      vertex 37.6971 5.69706 30
      vertex 36 6.4 31.8
      vertex 37.6971 5.69706 31.8
    endloop
  endfacet
  facet normal 0.382684 0.923879 0
    outer loop
      vertex 36 6.4 31.8
      vertex 37.6971 5.69706 30
      vertex 36 6.4 30
    endloop
  endfacet
  facet normal -0.382684 0.923879 0
    outer loop
      vertex 36 6.4 30
      vertex 34.3029 5.69706 31.8
      vertex 36 6.4 31.8
    endloop
  endfacet
  facet normal -0.382684 0.923879 0
    outer loop
      vertex 34.3029 5.69706 31.8
      vertex 36 6.4 30
      vertex 34.3029 5.69706 30
    endloop
  endfacet
  facet normal 0.382684 -0.923879 0
    outer loop
      vertex 36 1.6 30
      vertex 37.6971 2.30294 31.8
      vertex 36 1.6 31.8
    endloop
  endfacet
  facet normal 0.382684 -0.923879 0
    outer loop
      vertex 37.6971 2.30294 31.8
      vertex 36 1.6 30
      vertex 37.6971 2.30294 30
    endloop
  endfacet
  facet normal -0.923879 -0.382684 0
    outer loop
      vertex 34.3029 2.30294 30
      vertex 33.6 4 31.8
      vertex 33.6 4 30
    endloop
  endfacet
  facet normal -0.923879 -0.382684 0
    outer loop
      vertex 33.6 4 31.8
      vertex 34.3029 2.30294 30
      vertex 34.3029 2.30294 31.8
    endloop
  endfacet
  facet normal 0.923879 -0.382684 0
    outer loop
      vertex 37.6971 2.30294 31.8
      vertex 38.4 4 30
      vertex 38.4 4 31.8
    endloop
  endfacet
  facet normal 0.923879 -0.382684 0
    outer loop
      vertex 38.4 4 30
      vertex 37.6971 2.30294 31.8
      vertex 37.6971 2.30294 30
    endloop
  endfacet
  facet normal -0.382684 -0.923879 0
    outer loop
      vertex 34.3029 2.30294 30
      vertex 36 1.6 31.8
      vertex 34.3029 2.30294 31.8
    endloop
  endfacet
  facet normal -0.382684 -0.923879 -0
    outer loop
      vertex 36 1.6 31.8
      vertex 34.3029 2.30294 30
      vertex 36 1.6 30
    endloop
  endfacet
  facet normal 0 0 1
    outer loop
      vertex 37.6971 5.69706 31.8
      vertex 37.6971 2.30294 31.8
      vertex 38.4 4 31.8
    endloop
  endfacet
  facet normal 0 0 1
    outer loop
      vertex 36 6.4 31.8
      vertex 37.6971 2.30294 31.8
      vertex 37.6971 5.69706 31.8
    endloop
  endfacet
  facet normal 0 0 1
    outer loop
      vertex 36 6.4 31.8
      vertex 36 1.6 31.8
      vertex 37.6971 2.30294 31.8
    endloop
  endfacet
  facet normal -0 0 1
    outer loop
      vertex 34.3029 5.69706 31.8
      vertex 36 1.6 31.8
      vertex 36 6.4 31.8
    endloop
  endfacet
  facet normal 0 0 1
    outer loop
      vertex 34.3029 5.69706 31.8
      vertex 34.3029 2.30294 31.8
      vertex 36 1.6 31.8
    endloop
  endfacet
  facet normal 0 -0 1
    outer loop
      vertex 34.3029 2.30294 31.8
      vertex 34.3029 5.69706 31.8
      vertex 33.6 4 31.8
    endloop
  endfacet
  facet normal 0.923879 0.382684 0
    outer loop
      vertex 38.4 12 31.8
      vertex 37.6971 13.6971 30
      vertex 37.6971 13.6971 31.8
    endloop
  endfacet
  facet normal 0.923879 0.382684 0
    outer loop
      vertex 37.6971 13.6971 30
      vertex 38.4 12 31.8
      vertex 38.4 12 30
    endloop
  endfacet
  facet normal -0.382684 0.923879 0
    outer loop
      vertex 36 14.4 30
      vertex 34.3029 13.6971 31.8
      vertex 36 14.4 31.8
    endloop
  endfacet
  facet normal -0.382684 0.923879 0
    outer loop
      vertex 34.3029 13.6971 31.8
      vertex 36 14.4 30
      vertex 34.3029 13.6971 30
    endloop
  endfacet
  facet normal 0.382684 0.923879 -0
    outer loop
      vertex 37.6971 13.6971 30
      vertex 36 14.4 31.8
      vertex 37.6971 13.6971 31.8
    endloop
  endfacet
  facet normal 0.382684 0.923879 0
    outer loop
      vertex 36 14.4 31.8
      vertex 37.6971 13.6971 30
      vertex 36 14.4 30
    endloop
  endfacet
  facet normal 0 0 1
    outer loop
      vertex 37.6971 13.6971 31.8
      vertex 37.6971 10.3029 31.8
      vertex 38.4 12 31.8
    endloop
  endfacet
  facet normal 0 0 1
    outer loop
      vertex 36 14.4 31.8
      vertex 37.6971 10.3029 31.8
      vertex 37.6971 13.6971 31.8
    endloop
  endfacet
  facet normal 0 0 1
    outer loop
      vertex 36 14.4 31.8
      vertex 36 9.6 31.8
      vertex 37.6971 10.3029 31.8
    endloop
  endfacet
  facet normal -0 0 1
    outer loop
      vertex 34.3029 13.6971 31.8
      vertex 36 9.6 31.8
      vertex 36 14.4 31.8
    endloop
  endfacet
  facet normal 0 0 1
    outer loop
      vertex 34.3029 13.6971 31.8
      vertex 34.3029 10.3029 31.8
      vertex 36 9.6 31.8
    endloop
  endfacet
  facet normal 0 -0 1
    outer loop
      vertex 34.3029 10.3029 31.8
      vertex 34.3029 13.6971 31.8
      vertex 33.6 12 31.8
    endloop
  endfacet
  facet normal -0.923879 0.382684 0
    outer loop
      vertex 33.6 12 30
      vertex 34.3029 13.6971 31.8
      vertex 34.3029 13.6971 30
    endloop
  endfacet
  facet normal -0.923879 0.382684 0
    outer loop
      vertex 34.3029 13.6971 31.8
      vertex 33.6 12 30
      vertex 33.6 12 31.8
    endloop
  endfacet
  facet normal 0.923879 -0.382684 0
    outer loop
      vertex 37.6971 10.3029 31.8
      vertex 38.4 12 30
      vertex 38.4 12 31.8
    endloop
  endfacet
  facet normal 0.923879 -0.382684 0
    outer loop
      vertex 38.4 12 30
      vertex 37.6971 10.3029 31.8
      vertex 37.6971 10.3029 30
    endloop
  endfacet
  facet normal -0.923879 -0.382684 0
    outer loop
      vertex 34.3029 10.3029 30
      vertex 33.6 12 31.8
      vertex 33.6 12 30
    endloop
  endfacet
  facet normal -0.923879 -0.382684 0
    outer loop
      vertex 33.6 12 31.8
      vertex 34.3029 10.3029 30
      vertex 34.3029 10.3029 31.8
    endloop
  endfacet
  facet normal 0.382684 -0.923879 0
    outer loop
      vertex 36 9.6 30
      vertex 37.6971 10.3029 31.8
      vertex 36 9.6 31.8
    endloop
  endfacet
  facet normal 0.382684 -0.923879 0
    outer loop
      vertex 37.6971 10.3029 31.8
      vertex 36 9.6 30
      vertex 37.6971 10.3029 30
    endloop
  endfacet
  facet normal -0.382684 -0.923879 0
    outer loop
      vertex 34.3029 10.3029 30
      vertex 36 9.6 31.8
      vertex 34.3029 10.3029 31.8
    endloop
  endfacet
  facet normal -0.382684 -0.923879 -0
    outer loop
      vertex 36 9.6 31.8
      vertex 34.3029 10.3029 30
      vertex 36 9.6 30
    endloop
  endfacet
endsolid OpenSCAD_Model
