solid OpenSCAD_Model
  facet normal -1 0 0
    outer loop
      vertex 0 10 0
      vertex 0 20 25
      vertex 0 20 0
    endloop
  endfacet
  facet normal -1 -0 0
    outer loop
      vertex 0 20 25
      vertex 0 10 0
      vertex 0 10 25
    endloop
  endfacet
  facet normal -0 0 1
    outer loop
      vertex 0 20 25
      vertex 25 10 25
      vertex 25 20 25
    endloop
  endfacet
  facet normal 0 0 1
    outer loop
      vertex 25 10 25
      vertex 0 20 25
      vertex 0 10 25
    endloop
  endfacet
  facet normal 1 -0 0
    outer loop
      vertex 25 10 25
      vertex 25 20 0
      vertex 25 20 25
    endloop
  endfacet
  facet normal 1 0 0
    outer loop
      vertex 25 20 0
      vertex 25 10 25
      vertex 25 10 0
    endloop
  endfacet
  facet normal 0 0 -1
    outer loop
      vertex 0 10 0
      vertex 25 20 0
      vertex 25 10 0
    endloop
  endfacet
  facet normal -0 0 -1
    outer loop
      vertex 25 20 0
      vertex 0 10 0
      vertex 0 20 0
    endloop
  endfacet
  facet normal 0 -1 0
    outer loop
      vertex 0 10 25
      vertex 4.5 10 20.5
      vertex 25 10 25
    endloop
  endfacet
  facet normal 0 -1 0
    outer loop
      vertex 0 10 25
      vertex 4.5 10 4.5
      vertex 4.5 10 20.5
    endloop
  endfacet
  facet normal 0 -1 -0
    outer loop
      vertex 4.5 10 4.5
      vertex 0 10 0
      vertex 20.5 10 4.5
    endloop
  endfacet
  facet normal 0 -1 0
    outer loop
      vertex 0 10 0
      vertex 4.5 10 4.5
      vertex 0 10 25
    endloop
  endfacet
  facet normal 0 -1 0
    outer loop
      vertex 20.5 10 20.5
      vertex 25 10 25
      vertex 4.5 10 20.5
    endloop
  endfacet
  facet normal 0 -1 0
    outer loop
      vertex 20.5 10 4.5
      vertex 25 10 25
      vertex 20.5 10 20.5
    endloop
  endfacet
  facet normal 0 -1 0
    outer loop
      vertex 20.5 10 4.5
      vertex 25 10 0
      vertex 25 10 25
    endloop
  endfacet
  facet normal 0 -1 0
    outer loop
      vertex 25 10 0
      vertex 20.5 10 4.5
      vertex 0 10 0
    endloop
  endfacet
  facet normal 0 1 -0
    outer loop
      vertex 25 20 0
      vertex 0 20 25
      vertex 25 20 25
    endloop
  endfacet
  facet normal 0 1 0
    outer loop
      vertex 0 20 25
      vertex 25 20 0
      vertex 0 20 0
    endloop
  endfacet
  facet normal -1 0 0
    outer loop
      vertex 4.5 -11.8 9.80711
      vertex 4.5 -10 14.1929
      vertex 4.5 -10 9.80711
    endloop
  endfacet
  facet normal -1 -0 0
    outer loop
      vertex 4.5 -10 14.1929
      vertex 4.5 -11.8 9.80711
      vertex 4.5 -11.8 14.1929
    endloop
  endfacet
  facet normal -1 0 0
    outer loop
      vertex 4.5 -10 9.80711
      vertex 4.5 10 4.5
      vertex 4.5 -10 6.19289
    endloop
  endfacet
  facet normal -1 0 0
    outer loop
      vertex 4.5 -11.8 4.5
      vertex 4.5 -10 6.19289
      vertex 4.5 10 4.5
    endloop
  endfacet
  facet normal -1 -0 0
    outer loop
      vertex 4.5 -10 6.19289
      vertex 4.5 -11.8 4.5
      vertex 4.5 -11.8 6.19289
    endloop
  endfacet
  facet normal -1 0 0
    outer loop
      vertex 4.5 -10 14.1929
      vertex 4.5 10 4.5
      vertex 4.5 -10 9.80711
    endloop
  endfacet
  facet normal -1 0 0
    outer loop
      vertex 4.5 10 4.5
      vertex 4.5 -10 14.1929
      vertex 4.5 10 20.5
    endloop
  endfacet
  facet normal -1 0 0
    outer loop
      vertex 4.5 -10 17.8071
      vertex 4.5 10 20.5
      vertex 4.5 -10 14.1929
    endloop
  endfacet
  facet normal -1 0 0
    outer loop
      vertex 4.5 -11.8 20.5
      vertex 4.5 -10 17.8071
      vertex 4.5 -11.8 17.8071
    endloop
  endfacet
  facet normal -1 0 0
    outer loop
      vertex 4.5 -10 17.8071
      vertex 4.5 -11.8 20.5
      vertex 4.5 10 20.5
    endloop
  endfacet
  facet normal 0 0 1
    outer loop
      vertex 20.5 10 20.5
      vertex 17.8071 -10 20.5
      vertex 20.5 -11.8 20.5
    endloop
  endfacet
  facet normal 0 0 1
    outer loop
      vertex 20.5 10 20.5
      vertex 14.1929 -10 20.5
      vertex 17.8071 -10 20.5
    endloop
  endfacet
  facet normal 0 0 1
    outer loop
      vertex 14.1929 -10 20.5
      vertex 9.80711 -10 20.5
      vertex 14.1929 -11.8 20.5
    endloop
  endfacet
  facet normal -0 0 1
    outer loop
      vertex 4.5 10 20.5
      vertex 14.1929 -10 20.5
      vertex 20.5 10 20.5
    endloop
  endfacet
  facet normal 0 0 1
    outer loop
      vertex 14.1929 -10 20.5
      vertex 4.5 10 20.5
      vertex 9.80711 -10 20.5
    endloop
  endfacet
  facet normal 0 0 1
    outer loop
      vertex 9.80711 -10 20.5
      vertex 4.5 10 20.5
      vertex 6.19289 -10 20.5
    endloop
  endfacet
  facet normal 0 0 1
    outer loop
      vertex 4.5 -11.8 20.5
      vertex 6.19289 -10 20.5
      vertex 4.5 10 20.5
    endloop
  endfacet
  facet normal 0 0 1
    outer loop
      vertex 6.19289 -10 20.5
      vertex 4.5 -11.8 20.5
      vertex 6.19289 -11.8 20.5
    endloop
  endfacet
  facet normal 0 0 1
    outer loop
      vertex 20.5 -11.8 20.5
      vertex 17.8071 -10 20.5
      vertex 17.8071 -11.8 20.5
    endloop
  endfacet
  facet normal 0 0 1
    outer loop
      vertex 14.1929 -11.8 20.5
      vertex 9.80711 -10 20.5
      vertex 9.80711 -11.8 20.5
    endloop
  endfacet
  facet normal 1 -0 0
    outer loop
      vertex 20.5 -11.8 14.1929
      vertex 20.5 -10 9.80711
      vertex 20.5 -10 14.1929
    endloop
  endfacet
  facet normal 1 0 0
    outer loop
      vertex 20.5 -10 9.80711
      vertex 20.5 -11.8 14.1929
      vertex 20.5 -11.8 9.80711
    endloop
  endfacet
  facet normal 1 0 0
    outer loop
      vertex 20.5 -10 14.1929
      vertex 20.5 10 20.5
      vertex 20.5 -10 17.8071
    endloop
  endfacet
  facet normal 1 -0 0
    outer loop
      vertex 20.5 -11.8 20.5
      vertex 20.5 -10 17.8071
      vertex 20.5 10 20.5
    endloop
  endfacet
  facet normal 1 0 0
    outer loop
      vertex 20.5 -10 17.8071
      vertex 20.5 -11.8 20.5
      vertex 20.5 -11.8 17.8071
    endloop
  endfacet
  facet normal 1 0 0
    outer loop
      vertex 20.5 10 20.5
      vertex 20.5 -10 14.1929
      vertex 20.5 10 4.5
    endloop
  endfacet
  facet normal 1 -0 0
    outer loop
      vertex 20.5 -10 9.80711
      vertex 20.5 10 4.5
      vertex 20.5 -10 14.1929
    endloop
  endfacet
  facet normal 1 -0 0
    outer loop
      vertex 20.5 -10 6.19289
      vertex 20.5 10 4.5
      vertex 20.5 -10 9.80711
    endloop
  endfacet
  facet normal 1 0 0
    outer loop
      vertex 20.5 -11.8 4.5
      vertex 20.5 -10 6.19289
      vertex 20.5 -11.8 6.19289
    endloop
  endfacet
  facet normal 1 0 0
    outer loop
      vertex 20.5 -10 6.19289
      vertex 20.5 -11.8 4.5
      vertex 20.5 10 4.5
    endloop
  endfacet
  facet normal 0 0 -1
    outer loop
      vertex 6.19289 -11.8 4.5
      vertex 4.5 -11.8 4.5
      vertex 6.19289 -10 4.5
    endloop
  endfacet
  facet normal 0 0 -1
    outer loop
      vertex 14.1929 -11.8 4.5
      vertex 9.80711 -11.8 4.5
      vertex 14.1929 -10 4.5
    endloop
  endfacet
  facet normal 0 0 -1
    outer loop
      vertex 17.8071 -10 4.5
      vertex 20.5 -11.8 4.5
      vertex 17.8071 -11.8 4.5
    endloop
  endfacet
  facet normal 0 0 -1
    outer loop
      vertex 20.5 -11.8 4.5
      vertex 17.8071 -10 4.5
      vertex 20.5 10 4.5
    endloop
  endfacet
  facet normal 0 0 -1
    outer loop
      vertex 14.1929 -10 4.5
      vertex 20.5 10 4.5
      vertex 17.8071 -10 4.5
    endloop
  endfacet
  facet normal 0 0 -1
    outer loop
      vertex 9.80711 -10 4.5
      vertex 14.1929 -10 4.5
      vertex 9.80711 -11.8 4.5
    endloop
  endfacet
  facet normal 0 0 -1
    outer loop
      vertex 4.5 10 4.5
      vertex 14.1929 -10 4.5
      vertex 9.80711 -10 4.5
    endloop
  endfacet
  facet normal 0 0 -1
    outer loop
      vertex 4.5 10 4.5
      vertex 9.80711 -10 4.5
      vertex 6.19289 -10 4.5
    endloop
  endfacet
  facet normal 0 0 -1
    outer loop
      vertex 4.5 10 4.5
      vertex 6.19289 -10 4.5
      vertex 4.5 -11.8 4.5
    endloop
  endfacet
  facet normal 0 0 -1
    outer loop
      vertex 14.1929 -10 4.5
      vertex 4.5 10 4.5
      vertex 20.5 10 4.5
    endloop
  endfacet
  facet normal 0 -1 0
    outer loop
      vertex 18.3029 -10 5.69706
      vertex 18.3029 -10 10.3029
      vertex 13.6971 -10 5.69706
    endloop
  endfacet
  facet normal 0 -1 0
    outer loop
      vertex 18.3029 -10 10.3029
      vertex 18.3029 -10 5.69706
      vertex 20 -10 6.4
    endloop
  endfacet
  facet normal 0 -1 0
    outer loop
      vertex 14.1929 -10 4.5
      vertex 18.3029 -10 5.69706
      vertex 13.6971 -10 5.69706
    endloop
  endfacet
  facet normal 0 -1 0
    outer loop
      vertex 18.3029 -10 5.69706
      vertex 14.1929 -10 4.5
      vertex 17.8071 -10 4.5
    endloop
  endfacet
  facet normal 0 -1 0
    outer loop
      vertex 18.3029 -10 13.6971
      vertex 18.3029 -10 18.3029
      vertex 13.6971 -10 13.6971
    endloop
  endfacet
  facet normal 0 -1 0
    outer loop
      vertex 18.3029 -10 18.3029
      vertex 18.3029 -10 13.6971
      vertex 20 -10 14.4
    endloop
  endfacet
  facet normal 0 -1 0
    outer loop
      vertex 14.4 -10 12
      vertex 18.3029 -10 13.6971
      vertex 13.6971 -10 13.6971
    endloop
  endfacet
  facet normal 0 -1 0
    outer loop
      vertex 14.4 -10 12
      vertex 17.6 -10 12
      vertex 18.3029 -10 13.6971
    endloop
  endfacet
  facet normal 0 -1 0
    outer loop
      vertex 13.6971 -10 10.3029
      vertex 17.6 -10 12
      vertex 14.4 -10 12
    endloop
  endfacet
  facet normal 0 -1 0
    outer loop
      vertex 13.6971 -10 10.3029
      vertex 18.3029 -10 10.3029
      vertex 17.6 -10 12
    endloop
  endfacet
  facet normal 0 -1 0
    outer loop
      vertex 12 -10 6.4
      vertex 13.6971 -10 10.3029
      vertex 12 -10 9.6
    endloop
  endfacet
  facet normal 0 -1 0
    outer loop
      vertex 13.6971 -10 5.69706
      vertex 13.6971 -10 10.3029
      vertex 12 -10 6.4
    endloop
  endfacet
  facet normal 0 -1 0
    outer loop
      vertex 6.4 -10 20
      vertex 9.80711 -10 20.5
      vertex 6.19289 -10 20.5
    endloop
  endfacet
  facet normal 0 -1 0
    outer loop
      vertex 6.4 -10 20
      vertex 9.6 -10 20
      vertex 9.80711 -10 20.5
    endloop
  endfacet
  facet normal 0 -1 0
    outer loop
      vertex 5.69706 -10 18.3029
      vertex 9.6 -10 20
      vertex 6.4 -10 20
    endloop
  endfacet
  facet normal 0 -1 0
    outer loop
      vertex 5.69706 -10 18.3029
      vertex 10.3029 -10 18.3029
      vertex 9.6 -10 20
    endloop
  endfacet
  facet normal 0 -1 0
    outer loop
      vertex 5.69706 -10 13.6971
      vertex 5.69706 -10 18.3029
      vertex 4.5 -10 17.8071
    endloop
  endfacet
  facet normal 0 -1 0
    outer loop
      vertex 5.69706 -10 18.3029
      vertex 5.69706 -10 13.6971
      vertex 10.3029 -10 18.3029
    endloop
  endfacet
  facet normal 0 -1 0
    outer loop
      vertex 13.6971 -10 18.3029
      vertex 13.6971 -10 13.6971
      vertex 18.3029 -10 18.3029
    endloop
  endfacet
  facet normal 0 -1 0
    outer loop
      vertex 10.3029 -10 18.3029
      vertex 10.3029 -10 13.6971
      vertex 12 -10 17.6
    endloop
  endfacet
  facet normal 0 -1 0
    outer loop
      vertex 5.69706 -10 13.6971
      vertex 4.5 -10 17.8071
      vertex 4.5 -10 14.1929
    endloop
  endfacet
  facet normal 0 -1 -0
    outer loop
      vertex 10.3029 -10 18.3029
      vertex 5.69706 -10 13.6971
      vertex 10.3029 -10 13.6971
    endloop
  endfacet
  facet normal 0 -1 -0
    outer loop
      vertex 12 -10 17.6
      vertex 10.3029 -10 13.6971
      vertex 12 -10 14.4
    endloop
  endfacet
  facet normal 0 -1 0
    outer loop
      vertex 6.4 -10 12
      vertex 10.3029 -10 13.6971
      vertex 5.69706 -10 13.6971
    endloop
  endfacet
  facet normal 0 -1 0
    outer loop
      vertex 6.4 -10 12
      vertex 9.6 -10 12
      vertex 10.3029 -10 13.6971
    endloop
  endfacet
  facet normal 0 -1 0
    outer loop
      vertex 5.69706 -10 10.3029
      vertex 9.6 -10 12
      vertex 6.4 -10 12
    endloop
  endfacet
  facet normal 0 -1 0
    outer loop
      vertex 5.69706 -10 10.3029
      vertex 10.3029 -10 10.3029
      vertex 9.6 -10 12
    endloop
  endfacet
  facet normal 0 -1 0
    outer loop
      vertex 5.69706 -10 5.69706
      vertex 5.69706 -10 10.3029
      vertex 4.5 -10 9.80711
    endloop
  endfacet
  facet normal 0 -1 0
    outer loop
      vertex 5.69706 -10 10.3029
      vertex 5.69706 -10 5.69706
      vertex 10.3029 -10 10.3029
    endloop
  endfacet
  facet normal 0 -1 0
    outer loop
      vertex 13.6971 -10 10.3029
      vertex 13.6971 -10 5.69706
      vertex 18.3029 -10 10.3029
    endloop
  endfacet
  facet normal 0 -1 0
    outer loop
      vertex 10.3029 -10 10.3029
      vertex 10.3029 -10 5.69706
      vertex 12 -10 9.6
    endloop
  endfacet
  facet normal 0 -1 0
    outer loop
      vertex 5.69706 -10 5.69706
      vertex 4.5 -10 9.80711
      vertex 4.5 -10 6.19289
    endloop
  endfacet
  facet normal 0 -1 -0
    outer loop
      vertex 10.3029 -10 10.3029
      vertex 5.69706 -10 5.69706
      vertex 10.3029 -10 5.69706
    endloop
  endfacet
  facet normal 0 -1 -0
    outer loop
      vertex 12 -10 9.6
      vertex 10.3029 -10 5.69706
      vertex 12 -10 6.4
    endloop
  endfacet
  facet normal 0 -1 0
    outer loop
      vertex 6.19289 -10 4.5
      vertex 10.3029 -10 5.69706
      vertex 5.69706 -10 5.69706
    endloop
  endfacet
  facet normal 0 -1 0
    outer loop
      vertex 10.3029 -10 5.69706
      vertex 6.19289 -10 4.5
      vertex 9.80711 -10 4.5
    endloop
  endfacet
  facet normal 0 -1 0
    outer loop
      vertex 14.4 -10 20
      vertex 17.8071 -10 20.5
      vertex 14.1929 -10 20.5
    endloop
  endfacet
  facet normal 0 -1 0
    outer loop
      vertex 14.4 -10 20
      vertex 17.6 -10 20
      vertex 17.8071 -10 20.5
    endloop
  endfacet
  facet normal 0 -1 0
    outer loop
      vertex 13.6971 -10 18.3029
      vertex 17.6 -10 20
      vertex 14.4 -10 20
    endloop
  endfacet
  facet normal 0 -1 0
    outer loop
      vertex 13.6971 -10 18.3029
      vertex 18.3029 -10 18.3029
      vertex 17.6 -10 20
    endloop
  endfacet
  facet normal 0 -1 0
    outer loop
      vertex 12 -10 14.4
      vertex 13.6971 -10 18.3029
      vertex 12 -10 17.6
    endloop
  endfacet
  facet normal 0 -1 0
    outer loop
      vertex 13.6971 -10 13.6971
      vertex 13.6971 -10 18.3029
      vertex 12 -10 14.4
    endloop
  endfacet
  facet normal 0 -1 0
    outer loop
      vertex 18.3029 -10 18.3029
      vertex 20 -10 14.4
      vertex 20 -10 17.6
    endloop
  endfacet
  facet normal 0 -1 0
    outer loop
      vertex 20 -10 14.4
      vertex 20.5 -10 17.8071
      vertex 20 -10 17.6
    endloop
  endfacet
  facet normal 0 -1 -0
    outer loop
      vertex 20.5 -10 17.8071
      vertex 20 -10 14.4
      vertex 20.5 -10 14.1929
    endloop
  endfacet
  facet normal 0 -1 0
    outer loop
      vertex 18.3029 -10 10.3029
      vertex 20 -10 6.4
      vertex 20 -10 9.6
    endloop
  endfacet
  facet normal 0 -1 0
    outer loop
      vertex 20 -10 6.4
      vertex 20.5 -10 9.80711
      vertex 20 -10 9.6
    endloop
  endfacet
  facet normal 0 -1 -0
    outer loop
      vertex 20.5 -10 9.80711
      vertex 20 -10 6.4
      vertex 20.5 -10 6.19289
    endloop
  endfacet
  facet normal 0.92388 -0 0.382683
    outer loop
      vertex 5.69706 -11.8 5.69706
      vertex 6.19289 -10 4.5
      vertex 5.69706 -10 5.69706
    endloop
  endfacet
  facet normal 0.92388 0 0.382683
    outer loop
      vertex 6.19289 -10 4.5
      vertex 5.69706 -11.8 5.69706
      vertex 6.19289 -11.8 4.5
    endloop
  endfacet
  facet normal 0.382683 0 0.92388
    outer loop
      vertex 4.5 -10 6.19289
      vertex 5.69706 -11.8 5.69706
      vertex 5.69706 -10 5.69706
    endloop
  endfacet
  facet normal 0.382683 0 0.92388
    outer loop
      vertex 5.69706 -11.8 5.69706
      vertex 4.5 -10 6.19289
      vertex 4.5 -11.8 6.19289
    endloop
  endfacet
  facet normal 0 -1 0
    outer loop
      vertex 4.5 -11.8 4.5
      vertex 5.69706 -11.8 5.69706
      vertex 4.5 -11.8 6.19289
    endloop
  endfacet
  facet normal 0 -1 -0
    outer loop
      vertex 5.69706 -11.8 5.69706
      vertex 4.5 -11.8 4.5
      vertex 6.19289 -11.8 4.5
    endloop
  endfacet
  facet normal 0.923879 -0 0.382684
    outer loop
      vertex 5.69706 -11.8 13.6971
      vertex 6.4 -10 12
      vertex 5.69706 -10 13.6971
    endloop
  endfacet
  facet normal 0.923879 0 0.382684
    outer loop
      vertex 6.4 -10 12
      vertex 5.69706 -11.8 13.6971
      vertex 6.4 -11.8 12
    endloop
  endfacet
  facet normal 0.382684 0 0.923879
    outer loop
      vertex 4.5 -10 14.1929
      vertex 5.69706 -11.8 13.6971
      vertex 5.69706 -10 13.6971
    endloop
  endfacet
  facet normal 0.382684 0 0.923879
    outer loop
      vertex 5.69706 -11.8 13.6971
      vertex 4.5 -10 14.1929
      vertex 4.5 -11.8 14.1929
    endloop
  endfacet
  facet normal 0 -1 0
    outer loop
      vertex 4.5 -11.8 14.1929
      vertex 6.4 -11.8 12
      vertex 5.69706 -11.8 13.6971
    endloop
  endfacet
  facet normal 0 -1 0
    outer loop
      vertex 4.5 -11.8 9.80711
      vertex 6.4 -11.8 12
      vertex 4.5 -11.8 14.1929
    endloop
  endfacet
  facet normal 0 -1 0
    outer loop
      vertex 6.4 -11.8 12
      vertex 4.5 -11.8 9.80711
      vertex 5.69706 -11.8 10.3029
    endloop
  endfacet
  facet normal 0.92388 0 -0.382683
    outer loop
      vertex 6.4 -11.8 12
      vertex 5.69706 -10 10.3029
      vertex 6.4 -10 12
    endloop
  endfacet
  facet normal 0.92388 0 -0.382683
    outer loop
      vertex 5.69706 -10 10.3029
      vertex 6.4 -11.8 12
      vertex 5.69706 -11.8 10.3029
    endloop
  endfacet
  facet normal 0.382684 0 -0.923879
    outer loop
      vertex 4.5 -11.8 9.80711
      vertex 5.69706 -10 10.3029
      vertex 5.69706 -11.8 10.3029
    endloop
  endfacet
  facet normal 0.382684 0 -0.923879
    outer loop
      vertex 5.69706 -10 10.3029
      vertex 4.5 -11.8 9.80711
      vertex 4.5 -10 9.80711
    endloop
  endfacet
  facet normal 0.923879 -0 0.382684
    outer loop
      vertex 6.19289 -11.8 20.5
      vertex 6.4 -10 20
      vertex 6.19289 -10 20.5
    endloop
  endfacet
  facet normal 0.923879 0 0.382684
    outer loop
      vertex 6.4 -10 20
      vertex 6.19289 -11.8 20.5
      vertex 6.4 -11.8 20
    endloop
  endfacet
  facet normal 0 -1 0
    outer loop
      vertex 4.5 -11.8 20.5
      vertex 6.4 -11.8 20
      vertex 6.19289 -11.8 20.5
    endloop
  endfacet
  facet normal 0 -1 0
    outer loop
      vertex 4.5 -11.8 20.5
      vertex 5.69706 -11.8 18.3029
      vertex 6.4 -11.8 20
    endloop
  endfacet
  facet normal -0 -1 0
    outer loop
      vertex 5.69706 -11.8 18.3029
      vertex 4.5 -11.8 20.5
      vertex 4.5 -11.8 17.8071
    endloop
  endfacet
  facet normal 0.923879 0 -0.382684
    outer loop
      vertex 6.4 -11.8 20
      vertex 5.69706 -10 18.3029
      vertex 6.4 -10 20
    endloop
  endfacet
  facet normal 0.923879 0 -0.382684
    outer loop
      vertex 5.69706 -10 18.3029
      vertex 6.4 -11.8 20
      vertex 5.69706 -11.8 18.3029
    endloop
  endfacet
  facet normal 0.382684 0 -0.923879
    outer loop
      vertex 4.5 -11.8 17.8071
      vertex 5.69706 -10 18.3029
      vertex 5.69706 -11.8 18.3029
    endloop
  endfacet
  facet normal 0.382684 0 -0.923879
    outer loop
      vertex 5.69706 -10 18.3029
      vertex 4.5 -11.8 17.8071
      vertex 4.5 -10 17.8071
    endloop
  endfacet
  facet normal 0.923879 -0 0.382684
    outer loop
      vertex 13.6971 -11.8 5.69706
      vertex 14.1929 -10 4.5
      vertex 13.6971 -10 5.69706
    endloop
  endfacet
  facet normal 0.923879 0 0.382684
    outer loop
      vertex 14.1929 -10 4.5
      vertex 13.6971 -11.8 5.69706
      vertex 14.1929 -11.8 4.5
    endloop
  endfacet
  facet normal -0.923879 0 0.382684
    outer loop
      vertex 9.80711 -11.8 4.5
      vertex 10.3029 -10 5.69706
      vertex 9.80711 -10 4.5
    endloop
  endfacet
  facet normal -0.923879 0 0.382684
    outer loop
      vertex 10.3029 -10 5.69706
      vertex 9.80711 -11.8 4.5
      vertex 10.3029 -11.8 5.69706
    endloop
  endfacet
  facet normal 0.382684 0 0.923879
    outer loop
      vertex 12 -10 6.4
      vertex 13.6971 -11.8 5.69706
      vertex 13.6971 -10 5.69706
    endloop
  endfacet
  facet normal 0.382684 0 0.923879
    outer loop
      vertex 13.6971 -11.8 5.69706
      vertex 12 -10 6.4
      vertex 12 -11.8 6.4
    endloop
  endfacet
  facet normal 0 -1 0
    outer loop
      vertex 9.80711 -11.8 4.5
      vertex 12 -11.8 6.4
      vertex 10.3029 -11.8 5.69706
    endloop
  endfacet
  facet normal 0 -1 0
    outer loop
      vertex 14.1929 -11.8 4.5
      vertex 12 -11.8 6.4
      vertex 9.80711 -11.8 4.5
    endloop
  endfacet
  facet normal 0 -1 0
    outer loop
      vertex 12 -11.8 6.4
      vertex 14.1929 -11.8 4.5
      vertex 13.6971 -11.8 5.69706
    endloop
  endfacet
  facet normal -0.382683 0 0.92388
    outer loop
      vertex 10.3029 -10 5.69706
      vertex 12 -11.8 6.4
      vertex 12 -10 6.4
    endloop
  endfacet
  facet normal -0.382683 0 0.92388
    outer loop
      vertex 12 -11.8 6.4
      vertex 10.3029 -10 5.69706
      vertex 10.3029 -11.8 5.69706
    endloop
  endfacet
  facet normal 0.923879 -0 0.382684
    outer loop
      vertex 13.6971 -11.8 13.6971
      vertex 14.4 -10 12
      vertex 13.6971 -10 13.6971
    endloop
  endfacet
  facet normal 0.923879 0 0.382684
    outer loop
      vertex 14.4 -10 12
      vertex 13.6971 -11.8 13.6971
      vertex 14.4 -11.8 12
    endloop
  endfacet
  facet normal -0.382683 0 0.92388
    outer loop
      vertex 10.3029 -10 13.6971
      vertex 12 -11.8 14.4
      vertex 12 -10 14.4
    endloop
  endfacet
  facet normal -0.382683 0 0.92388
    outer loop
      vertex 12 -11.8 14.4
      vertex 10.3029 -10 13.6971
      vertex 10.3029 -11.8 13.6971
    endloop
  endfacet
  facet normal 0.382684 0 0.923879
    outer loop
      vertex 12 -10 14.4
      vertex 13.6971 -11.8 13.6971
      vertex 13.6971 -10 13.6971
    endloop
  endfacet
  facet normal 0.382684 0 0.923879
    outer loop
      vertex 13.6971 -11.8 13.6971
      vertex 12 -10 14.4
      vertex 12 -11.8 14.4
    endloop
  endfacet
  facet normal 0 -1 0
    outer loop
      vertex 10.3029 -11.8 13.6971
      vertex 13.6971 -11.8 13.6971
      vertex 12 -11.8 14.4
    endloop
  endfacet
  facet normal 0 -1 0
    outer loop
      vertex 9.6 -11.8 12
      vertex 13.6971 -11.8 13.6971
      vertex 10.3029 -11.8 13.6971
    endloop
  endfacet
  facet normal 0 -1 0
    outer loop
      vertex 9.6 -11.8 12
      vertex 14.4 -11.8 12
      vertex 13.6971 -11.8 13.6971
    endloop
  endfacet
  facet normal 0 -1 0
    outer loop
      vertex 10.3029 -11.8 10.3029
      vertex 14.4 -11.8 12
      vertex 9.6 -11.8 12
    endloop
  endfacet
  facet normal 0 -1 0
    outer loop
      vertex 10.3029 -11.8 10.3029
      vertex 13.6971 -11.8 10.3029
      vertex 14.4 -11.8 12
    endloop
  endfacet
  facet normal -0 -1 0
    outer loop
      vertex 13.6971 -11.8 10.3029
      vertex 10.3029 -11.8 10.3029
      vertex 12 -11.8 9.6
    endloop
  endfacet
  facet normal -0.923879 0 0.382684
    outer loop
      vertex 9.6 -11.8 12
      vertex 10.3029 -10 13.6971
      vertex 9.6 -10 12
    endloop
  endfacet
  facet normal -0.923879 0 0.382684
    outer loop
      vertex 10.3029 -10 13.6971
      vertex 9.6 -11.8 12
      vertex 10.3029 -11.8 13.6971
    endloop
  endfacet
  facet normal 0.92388 0 -0.382683
    outer loop
      vertex 14.4 -11.8 12
      vertex 13.6971 -10 10.3029
      vertex 14.4 -10 12
    endloop
  endfacet
  facet normal 0.92388 0 -0.382683
    outer loop
      vertex 13.6971 -10 10.3029
      vertex 14.4 -11.8 12
      vertex 13.6971 -11.8 10.3029
    endloop
  endfacet
  facet normal -0.92388 0 -0.382683
    outer loop
      vertex 10.3029 -11.8 10.3029
      vertex 9.6 -10 12
      vertex 10.3029 -10 10.3029
    endloop
  endfacet
  facet normal -0.92388 -0 -0.382683
    outer loop
      vertex 9.6 -10 12
      vertex 10.3029 -11.8 10.3029
      vertex 9.6 -11.8 12
    endloop
  endfacet
  facet normal 0.382684 0 -0.923879
    outer loop
      vertex 12 -11.8 9.6
      vertex 13.6971 -10 10.3029
      vertex 13.6971 -11.8 10.3029
    endloop
  endfacet
  facet normal 0.382684 0 -0.923879
    outer loop
      vertex 13.6971 -10 10.3029
      vertex 12 -11.8 9.6
      vertex 12 -10 9.6
    endloop
  endfacet
  facet normal -0.382683 0 -0.92388
    outer loop
      vertex 10.3029 -11.8 10.3029
      vertex 12 -10 9.6
      vertex 12 -11.8 9.6
    endloop
  endfacet
  facet normal -0.382683 0 -0.92388
    outer loop
      vertex 12 -10 9.6
      vertex 10.3029 -11.8 10.3029
      vertex 10.3029 -10 10.3029
    endloop
  endfacet
  facet normal 0.92388 -0 0.382683
    outer loop
      vertex 14.1929 -11.8 20.5
      vertex 14.4 -10 20
      vertex 14.1929 -10 20.5
    endloop
  endfacet
  facet normal 0.92388 0 0.382683
    outer loop
      vertex 14.4 -10 20
      vertex 14.1929 -11.8 20.5
      vertex 14.4 -11.8 20
    endloop
  endfacet
  facet normal -0.382684 0 -0.923879
    outer loop
      vertex 10.3029 -11.8 18.3029
      vertex 12 -10 17.6
      vertex 12 -11.8 17.6
    endloop
  endfacet
  facet normal -0.382684 0 -0.923879
    outer loop
      vertex 12 -10 17.6
      vertex 10.3029 -11.8 18.3029
      vertex 10.3029 -10 18.3029
    endloop
  endfacet
  facet normal 0 -1 0
    outer loop
      vertex 10.3029 -11.8 18.3029
      vertex 9.80711 -11.8 20.5
      vertex 9.6 -11.8 20
    endloop
  endfacet
  facet normal 0 -1 0
    outer loop
      vertex 12 -11.8 17.6
      vertex 9.80711 -11.8 20.5
      vertex 10.3029 -11.8 18.3029
    endloop
  endfacet
  facet normal 0 -1 0
    outer loop
      vertex 9.80711 -11.8 20.5
      vertex 12 -11.8 17.6
      vertex 14.1929 -11.8 20.5
    endloop
  endfacet
  facet normal 0 -1 -0
    outer loop
      vertex 14.1929 -11.8 20.5
      vertex 13.6971 -11.8 18.3029
      vertex 14.4 -11.8 20
    endloop
  endfacet
  facet normal 0 -1 0
    outer loop
      vertex 14.1929 -11.8 20.5
      vertex 12 -11.8 17.6
      vertex 13.6971 -11.8 18.3029
    endloop
  endfacet
  facet normal -0.92388 0 0.382683
    outer loop
      vertex 9.6 -11.8 20
      vertex 9.80711 -10 20.5
      vertex 9.6 -10 20
    endloop
  endfacet
  facet normal -0.92388 0 0.382683
    outer loop
      vertex 9.80711 -10 20.5
      vertex 9.6 -11.8 20
      vertex 9.80711 -11.8 20.5
    endloop
  endfacet
  facet normal -0.923879 0 -0.382684
    outer loop
      vertex 10.3029 -11.8 18.3029
      vertex 9.6 -10 20
      vertex 10.3029 -10 18.3029
    endloop
  endfacet
  facet normal -0.923879 -0 -0.382684
    outer loop
      vertex 9.6 -10 20
      vertex 10.3029 -11.8 18.3029
      vertex 9.6 -11.8 20
    endloop
  endfacet
  facet normal 0.382684 0 -0.923879
    outer loop
      vertex 12 -11.8 17.6
      vertex 13.6971 -10 18.3029
      vertex 13.6971 -11.8 18.3029
    endloop
  endfacet
  facet normal 0.382684 0 -0.923879
    outer loop
      vertex 13.6971 -10 18.3029
      vertex 12 -11.8 17.6
      vertex 12 -10 17.6
    endloop
  endfacet
  facet normal 0.923879 0 -0.382684
    outer loop
      vertex 14.4 -11.8 20
      vertex 13.6971 -10 18.3029
      vertex 14.4 -10 20
    endloop
  endfacet
  facet normal 0.923879 0 -0.382684
    outer loop
      vertex 13.6971 -10 18.3029
      vertex 14.4 -11.8 20
      vertex 13.6971 -11.8 18.3029
    endloop
  endfacet
  facet normal -0.923879 0 0.382684
    outer loop
      vertex 17.8071 -11.8 4.5
      vertex 18.3029 -10 5.69706
      vertex 17.8071 -10 4.5
    endloop
  endfacet
  facet normal -0.923879 0 0.382684
    outer loop
      vertex 18.3029 -10 5.69706
      vertex 17.8071 -11.8 4.5
      vertex 18.3029 -11.8 5.69706
    endloop
  endfacet
  facet normal 0.382684 0 0.923879
    outer loop
      vertex 20 -10 6.4
      vertex 20.5 -11.8 6.19289
      vertex 20.5 -10 6.19289
    endloop
  endfacet
  facet normal 0.382684 0 0.923879
    outer loop
      vertex 20.5 -11.8 6.19289
      vertex 20 -10 6.4
      vertex 20 -11.8 6.4
    endloop
  endfacet
  facet normal 0 -1 0
    outer loop
      vertex 20.5 -11.8 4.5
      vertex 20 -11.8 6.4
      vertex 18.3029 -11.8 5.69706
    endloop
  endfacet
  facet normal 0 -1 0
    outer loop
      vertex 20.5 -11.8 4.5
      vertex 18.3029 -11.8 5.69706
      vertex 17.8071 -11.8 4.5
    endloop
  endfacet
  facet normal 0 -1 0
    outer loop
      vertex 20 -11.8 6.4
      vertex 20.5 -11.8 4.5
      vertex 20.5 -11.8 6.19289
    endloop
  endfacet
  facet normal -0.382684 0 0.923879
    outer loop
      vertex 18.3029 -10 5.69706
      vertex 20 -11.8 6.4
      vertex 20 -10 6.4
    endloop
  endfacet
  facet normal -0.382684 0 0.923879
    outer loop
      vertex 20 -11.8 6.4
      vertex 18.3029 -10 5.69706
      vertex 18.3029 -11.8 5.69706
    endloop
  endfacet
  facet normal -0.923879 0 -0.382684
    outer loop
      vertex 18.3029 -11.8 10.3029
      vertex 17.6 -10 12
      vertex 18.3029 -10 10.3029
    endloop
  endfacet
  facet normal -0.923879 -0 -0.382684
    outer loop
      vertex 17.6 -10 12
      vertex 18.3029 -11.8 10.3029
      vertex 17.6 -11.8 12
    endloop
  endfacet
  facet normal -0.382684 0 0.923879
    outer loop
      vertex 18.3029 -10 13.6971
      vertex 20 -11.8 14.4
      vertex 20 -10 14.4
    endloop
  endfacet
  facet normal -0.382684 0 0.923879
    outer loop
      vertex 20 -11.8 14.4
      vertex 18.3029 -10 13.6971
      vertex 18.3029 -11.8 13.6971
    endloop
  endfacet
  facet normal 0.382683 0 0.92388
    outer loop
      vertex 20 -10 14.4
      vertex 20.5 -11.8 14.1929
      vertex 20.5 -10 14.1929
    endloop
  endfacet
  facet normal 0.382683 0 0.92388
    outer loop
      vertex 20.5 -11.8 14.1929
      vertex 20 -10 14.4
      vertex 20 -11.8 14.4
    endloop
  endfacet
  facet normal 0 -1 0
    outer loop
      vertex 18.3029 -11.8 13.6971
      vertex 20.5 -11.8 14.1929
      vertex 20 -11.8 14.4
    endloop
  endfacet
  facet normal 0 -1 0
    outer loop
      vertex 17.6 -11.8 12
      vertex 20.5 -11.8 14.1929
      vertex 18.3029 -11.8 13.6971
    endloop
  endfacet
  facet normal 0 -1 0
    outer loop
      vertex 20.5 -11.8 9.80711
      vertex 17.6 -11.8 12
      vertex 18.3029 -11.8 10.3029
    endloop
  endfacet
  facet normal 0 -1 0
    outer loop
      vertex 17.6 -11.8 12
      vertex 20.5 -11.8 9.80711
      vertex 20.5 -11.8 14.1929
    endloop
  endfacet
  facet normal -0 -1 0
    outer loop
      vertex 20.5 -11.8 9.80711
      vertex 18.3029 -11.8 10.3029
      vertex 20 -11.8 9.6
    endloop
  endfacet
  facet normal -0.923879 0 0.382684
    outer loop
      vertex 17.6 -11.8 12
      vertex 18.3029 -10 13.6971
      vertex 17.6 -10 12
    endloop
  endfacet
  facet normal -0.923879 0 0.382684
    outer loop
      vertex 18.3029 -10 13.6971
      vertex 17.6 -11.8 12
      vertex 18.3029 -11.8 13.6971
    endloop
  endfacet
  facet normal 0.382683 0 -0.92388
    outer loop
      vertex 20 -11.8 9.6
      vertex 20.5 -10 9.80711
      vertex 20.5 -11.8 9.80711
    endloop
  endfacet
  facet normal 0.382683 0 -0.92388
    outer loop
      vertex 20.5 -10 9.80711
      vertex 20 -11.8 9.6
      vertex 20 -10 9.6
    endloop
  endfacet
  facet normal -0.382684 0 -0.923879
    outer loop
      vertex 18.3029 -11.8 10.3029
      vertex 20 -10 9.6
      vertex 20 -11.8 9.6
    endloop
  endfacet
  facet normal -0.382684 0 -0.923879
    outer loop
      vertex 20 -10 9.6
      vertex 18.3029 -11.8 10.3029
      vertex 18.3029 -10 10.3029
    endloop
  endfacet
  facet normal -0.923879 0 -0.382684
    outer loop
      vertex 18.3029 -11.8 18.3029
      vertex 17.6 -10 20
      vertex 18.3029 -10 18.3029
    endloop
  endfacet
  facet normal -0.923879 -0 -0.382684
    outer loop
      vertex 17.6 -10 20
      vertex 18.3029 -11.8 18.3029
      vertex 17.6 -11.8 20
    endloop
  endfacet
  facet normal 0 -1 0
    outer loop
      vertex 17.6 -11.8 20
      vertex 20.5 -11.8 20.5
      vertex 17.8071 -11.8 20.5
    endloop
  endfacet
  facet normal 0 -1 0
    outer loop
      vertex 18.3029 -11.8 18.3029
      vertex 20.5 -11.8 20.5
      vertex 17.6 -11.8 20
    endloop
  endfacet
  facet normal 0 -1 0
    outer loop
      vertex 18.3029 -11.8 18.3029
      vertex 20.5 -11.8 17.8071
      vertex 20.5 -11.8 20.5
    endloop
  endfacet
  facet normal -0 -1 0
    outer loop
      vertex 20.5 -11.8 17.8071
      vertex 18.3029 -11.8 18.3029
      vertex 20 -11.8 17.6
    endloop
  endfacet
  facet normal -0.923879 0 0.382685
    outer loop
      vertex 17.6 -11.8 20
      vertex 17.8071 -10 20.5
      vertex 17.6 -10 20
    endloop
  endfacet
  facet normal -0.923879 0 0.382685
    outer loop
      vertex 17.8071 -10 20.5
      vertex 17.6 -11.8 20
      vertex 17.8071 -11.8 20.5
    endloop
  endfacet
  facet normal 0.382685 0 -0.923879
    outer loop
      vertex 20 -11.8 17.6
      vertex 20.5 -10 17.8071
      vertex 20.5 -11.8 17.8071
    endloop
  endfacet
  facet normal 0.382685 0 -0.923879
    outer loop
      vertex 20.5 -10 17.8071
      vertex 20 -11.8 17.6
      vertex 20 -10 17.6
    endloop
  endfacet
  facet normal -0.382684 0 -0.923879
    outer loop
      vertex 18.3029 -11.8 18.3029
      vertex 20 -10 17.6
      vertex 20 -11.8 17.6
    endloop
  endfacet
  facet normal -0.382684 0 -0.923879
    outer loop
      vertex 20 -10 17.6
      vertex 18.3029 -11.8 18.3029
      vertex 18.3029 -10 18.3029
    endloop
  endfacet
endsolid OpenSCAD_Model
