solid OpenSCAD_Model
  facet normal -1 0 0
    outer loop
      vertex 0 0 40
      vertex 0 65 46
      vertex 0 65 40
    endloop
  endfacet
  facet normal -1 -0 0
    outer loop
      vertex 0 65 46
      vertex 0 0 40
      vertex 0 0 46
    endloop
  endfacet
  facet normal -0 0 1
    outer loop
      vertex 0 65 46
      vertex 40 0 46
      vertex 40 65 46
    endloop
  endfacet
  facet normal 0 0 1
    outer loop
      vertex 40 0 46
      vertex 0 65 46
      vertex 0 0 46
    endloop
  endfacet
  facet normal 1 -0 0
    outer loop
      vertex 40 0 46
      vertex 40 65 40
      vertex 40 65 46
    endloop
  endfacet
  facet normal 1 0 0
    outer loop
      vertex 40 65 40
      vertex 40 0 46
      vertex 40 0 40
    endloop
  endfacet
  facet normal 0 1 -0
    outer loop
      vertex 40 65 40
      vertex 0 65 46
      vertex 40 65 46
    endloop
  endfacet
  facet normal 0 1 0
    outer loop
      vertex 0 65 46
      vertex 40 65 40
      vertex 0 65 40
    endloop
  endfacet
  facet normal 0 0 -1
    outer loop
      vertex 29.7815 41.2542 40
      vertex 40 65 40
      vertex 29.7815 23.7458 40
    endloop
  endfacet
  facet normal 0 0 -1
    outer loop
      vertex 40 65 40
      vertex 29.7815 41.2542 40
      vertex 30 43.3333 40
    endloop
  endfacet
  facet normal 0 0 -1
    outer loop
      vertex 29.1355 25.734 40
      vertex 29.7815 41.2542 40
      vertex 29.7815 23.7458 40
    endloop
  endfacet
  facet normal 0 0 -1
    outer loop
      vertex 29.1355 25.734 40
      vertex 29.1355 39.266 40
      vertex 29.7815 41.2542 40
    endloop
  endfacet
  facet normal 0 0 -1
    outer loop
      vertex 28.0902 27.5445 40
      vertex 29.1355 39.266 40
      vertex 29.1355 25.734 40
    endloop
  endfacet
  facet normal 0 0 -1
    outer loop
      vertex 28.0902 27.5445 40
      vertex 28.0902 37.4555 40
      vertex 29.1355 39.266 40
    endloop
  endfacet
  facet normal 0 0 -1
    outer loop
      vertex 26.6913 29.0981 40
      vertex 28.0902 37.4555 40
      vertex 28.0902 27.5445 40
    endloop
  endfacet
  facet normal 0 0 -1
    outer loop
      vertex 26.6913 29.0981 40
      vertex 26.6913 35.9019 40
      vertex 28.0902 37.4555 40
    endloop
  endfacet
  facet normal 0 0 -1
    outer loop
      vertex 25 30.3269 40
      vertex 26.6913 35.9019 40
      vertex 26.6913 29.0981 40
    endloop
  endfacet
  facet normal 0 0 -1
    outer loop
      vertex 25 30.3269 40
      vertex 25 34.6731 40
      vertex 26.6913 35.9019 40
    endloop
  endfacet
  facet normal 0 0 -1
    outer loop
      vertex 23.0902 31.1772 40
      vertex 25 34.6731 40
      vertex 25 30.3269 40
    endloop
  endfacet
  facet normal 0 0 -1
    outer loop
      vertex 23.0902 31.1772 40
      vertex 23.0902 33.8228 40
      vertex 25 34.6731 40
    endloop
  endfacet
  facet normal 0 0 -1
    outer loop
      vertex 21.0453 31.6119 40
      vertex 23.0902 33.8228 40
      vertex 23.0902 31.1772 40
    endloop
  endfacet
  facet normal 0 0 -1
    outer loop
      vertex 21.0453 31.6119 40
      vertex 21.0453 33.3881 40
      vertex 23.0902 33.8228 40
    endloop
  endfacet
  facet normal 0 0 -1
    outer loop
      vertex 18.9547 31.6119 40
      vertex 21.0453 33.3881 40
      vertex 21.0453 31.6119 40
    endloop
  endfacet
  facet normal 0 0 -1
    outer loop
      vertex 18.9547 31.6119 40
      vertex 18.9547 33.3881 40
      vertex 21.0453 33.3881 40
    endloop
  endfacet
  facet normal 0 0 -1
    outer loop
      vertex 16.9098 31.1772 40
      vertex 18.9547 33.3881 40
      vertex 18.9547 31.6119 40
    endloop
  endfacet
  facet normal 0 0 -1
    outer loop
      vertex 16.9098 31.1772 40
      vertex 16.9098 33.8228 40
      vertex 18.9547 33.3881 40
    endloop
  endfacet
  facet normal 0 0 -1
    outer loop
      vertex 15 30.3269 40
      vertex 16.9098 33.8228 40
      vertex 16.9098 31.1772 40
    endloop
  endfacet
  facet normal 0 0 -1
    outer loop
      vertex 15 30.3269 40
      vertex 15 34.6731 40
      vertex 16.9098 33.8228 40
    endloop
  endfacet
  facet normal 0 0 -1
    outer loop
      vertex 13.3087 29.0981 40
      vertex 15 34.6731 40
      vertex 15 30.3269 40
    endloop
  endfacet
  facet normal 0 0 -1
    outer loop
      vertex 13.3087 29.0981 40
      vertex 13.3087 35.9019 40
      vertex 15 34.6731 40
    endloop
  endfacet
  facet normal 0 0 -1
    outer loop
      vertex 11.9098 27.5445 40
      vertex 13.3087 35.9019 40
      vertex 13.3087 29.0981 40
    endloop
  endfacet
  facet normal 0 0 -1
    outer loop
      vertex 11.9098 27.5445 40
      vertex 11.9098 37.4555 40
      vertex 13.3087 35.9019 40
    endloop
  endfacet
  facet normal 0 0 -1
    outer loop
      vertex 10.8645 25.734 40
      vertex 11.9098 37.4555 40
      vertex 11.9098 27.5445 40
    endloop
  endfacet
  facet normal 0 0 -1
    outer loop
      vertex 10.8645 25.734 40
      vertex 10.8645 39.266 40
      vertex 11.9098 37.4555 40
    endloop
  endfacet
  facet normal 0 0 -1
    outer loop
      vertex 10.2185 23.7458 40
      vertex 10.8645 39.266 40
      vertex 10.8645 25.734 40
    endloop
  endfacet
  facet normal 0 0 -1
    outer loop
      vertex 10.2185 23.7458 40
      vertex 10.2185 41.2542 40
      vertex 10.8645 39.266 40
    endloop
  endfacet
  facet normal 0 0 -1
    outer loop
      vertex 0 0 40
      vertex 10.2185 23.7458 40
      vertex 10 21.6667 40
    endloop
  endfacet
  facet normal -0 0 -1
    outer loop
      vertex 10.2185 23.7458 40
      vertex 0 0 40
      vertex 10.2185 41.2542 40
    endloop
  endfacet
  facet normal 0 0 -1
    outer loop
      vertex 29.7815 23.7458 40
      vertex 40 0 40
      vertex 30 21.6667 40
    endloop
  endfacet
  facet normal 0 0 -1
    outer loop
      vertex 40 0 40
      vertex 29.7815 19.5875 40
      vertex 30 21.6667 40
    endloop
  endfacet
  facet normal 0 0 -1
    outer loop
      vertex 40 0 40
      vertex 29.1355 17.5993 40
      vertex 29.7815 19.5875 40
    endloop
  endfacet
  facet normal 0 0 -1
    outer loop
      vertex 40 0 40
      vertex 28.0902 15.7888 40
      vertex 29.1355 17.5993 40
    endloop
  endfacet
  facet normal 0 0 -1
    outer loop
      vertex 40 0 40
      vertex 26.6913 14.2352 40
      vertex 28.0902 15.7888 40
    endloop
  endfacet
  facet normal 0 0 -1
    outer loop
      vertex 40 0 40
      vertex 25 13.0064 40
      vertex 26.6913 14.2352 40
    endloop
  endfacet
  facet normal 0 0 -1
    outer loop
      vertex 40 0 40
      vertex 23.0902 12.1561 40
      vertex 25 13.0064 40
    endloop
  endfacet
  facet normal 0 0 -1
    outer loop
      vertex 40 0 40
      vertex 21.0453 11.7214 40
      vertex 23.0902 12.1561 40
    endloop
  endfacet
  facet normal 0 0 -1
    outer loop
      vertex 40 0 40
      vertex 18.9547 11.7214 40
      vertex 21.0453 11.7214 40
    endloop
  endfacet
  facet normal 0 0 -1
    outer loop
      vertex 0 0 40
      vertex 18.9547 11.7214 40
      vertex 40 0 40
    endloop
  endfacet
  facet normal -0 0 -1
    outer loop
      vertex 18.9547 11.7214 40
      vertex 0 0 40
      vertex 16.9098 12.1561 40
    endloop
  endfacet
  facet normal 0 0 -1
    outer loop
      vertex 0 65 40
      vertex 10.2185 41.2542 40
      vertex 0 0 40
    endloop
  endfacet
  facet normal -0 0 -1
    outer loop
      vertex 10.2185 19.5875 40
      vertex 0 0 40
      vertex 10 21.6667 40
    endloop
  endfacet
  facet normal -0 0 -1
    outer loop
      vertex 10.8645 17.5993 40
      vertex 0 0 40
      vertex 10.2185 19.5875 40
    endloop
  endfacet
  facet normal -0 0 -1
    outer loop
      vertex 11.9098 15.7888 40
      vertex 0 0 40
      vertex 10.8645 17.5993 40
    endloop
  endfacet
  facet normal -0 0 -1
    outer loop
      vertex 13.3087 14.2352 40
      vertex 0 0 40
      vertex 11.9098 15.7888 40
    endloop
  endfacet
  facet normal -0 0 -1
    outer loop
      vertex 15 13.0064 40
      vertex 0 0 40
      vertex 13.3087 14.2352 40
    endloop
  endfacet
  facet normal -0 0 -1
    outer loop
      vertex 16.9098 12.1561 40
      vertex 0 0 40
      vertex 15 13.0064 40
    endloop
  endfacet
  facet normal 0 0 -1
    outer loop
      vertex 40 0 40
      vertex 29.7815 23.7458 40
      vertex 40 65 40
    endloop
  endfacet
  facet normal 0 0 -1
    outer loop
      vertex 29.7815 45.4124 40
      vertex 40 65 40
      vertex 30 43.3333 40
    endloop
  endfacet
  facet normal 0 0 -1
    outer loop
      vertex 29.1355 47.4007 40
      vertex 40 65 40
      vertex 29.7815 45.4124 40
    endloop
  endfacet
  facet normal 0 0 -1
    outer loop
      vertex 28.0902 49.2112 40
      vertex 40 65 40
      vertex 29.1355 47.4007 40
    endloop
  endfacet
  facet normal 0 0 -1
    outer loop
      vertex 26.6913 50.7648 40
      vertex 40 65 40
      vertex 28.0902 49.2112 40
    endloop
  endfacet
  facet normal 0 0 -1
    outer loop
      vertex 25 51.9936 40
      vertex 40 65 40
      vertex 26.6913 50.7648 40
    endloop
  endfacet
  facet normal 0 0 -1
    outer loop
      vertex 23.0902 52.8439 40
      vertex 40 65 40
      vertex 25 51.9936 40
    endloop
  endfacet
  facet normal 0 0 -1
    outer loop
      vertex 21.0453 53.2786 40
      vertex 40 65 40
      vertex 23.0902 52.8439 40
    endloop
  endfacet
  facet normal 0 0 -1
    outer loop
      vertex 18.9547 53.2786 40
      vertex 40 65 40
      vertex 21.0453 53.2786 40
    endloop
  endfacet
  facet normal 0 0 -1
    outer loop
      vertex 0 65 40
      vertex 18.9547 53.2786 40
      vertex 16.9098 52.8439 40
    endloop
  endfacet
  facet normal 0 0 -1
    outer loop
      vertex 0 65 40
      vertex 16.9098 52.8439 40
      vertex 15 51.9936 40
    endloop
  endfacet
  facet normal 0 0 -1
    outer loop
      vertex 10.2185 41.2542 40
      vertex 0 65 40
      vertex 10 43.3333 40
    endloop
  endfacet
  facet normal 0 0 -1
    outer loop
      vertex 18.9547 53.2786 40
      vertex 0 65 40
      vertex 40 65 40
    endloop
  endfacet
  facet normal 0 0 -1
    outer loop
      vertex 13.3087 50.7648 40
      vertex 0 65 40
      vertex 15 51.9936 40
    endloop
  endfacet
  facet normal 0 0 -1
    outer loop
      vertex 11.9098 49.2112 40
      vertex 0 65 40
      vertex 13.3087 50.7648 40
    endloop
  endfacet
  facet normal 0 0 -1
    outer loop
      vertex 10.8645 47.4007 40
      vertex 0 65 40
      vertex 11.9098 49.2112 40
    endloop
  endfacet
  facet normal 0 0 -1
    outer loop
      vertex 10.2185 45.4124 40
      vertex 0 65 40
      vertex 10.8645 47.4007 40
    endloop
  endfacet
  facet normal 0 0 -1
    outer loop
      vertex 10 43.3333 40
      vertex 0 65 40
      vertex 10.2185 45.4124 40
    endloop
  endfacet
  facet normal 0 -1 0
    outer loop
      vertex 0 0 40
      vertex 40 0 46
      vertex 0 0 46
    endloop
  endfacet
  facet normal 0 -1 -0
    outer loop
      vertex 40 0 46
      vertex 0 0 40
      vertex 40 0 40
    endloop
  endfacet
  facet normal 0.994522 0.104529 0
    outer loop
      vertex 30 21.6667 40
      vertex 29.7815 23.7458 0
      vertex 29.7815 23.7458 40
    endloop
  endfacet
  facet normal 0.994522 0.104529 0
    outer loop
      vertex 29.7815 23.7458 0
      vertex 30 21.6667 40
      vertex 30 21.6667 0
    endloop
  endfacet
  facet normal -0.207912 0.978148 0
    outer loop
      vertex 18.9547 31.6119 0
      vertex 16.9098 31.1772 40
      vertex 18.9547 31.6119 40
    endloop
  endfacet
  facet normal -0.207912 0.978148 0
    outer loop
      vertex 16.9098 31.1772 40
      vertex 18.9547 31.6119 0
      vertex 16.9098 31.1772 0
    endloop
  endfacet
  facet normal 0.587785 0.809017 -0
    outer loop
      vertex 26.6913 29.0981 0
      vertex 25 30.3269 40
      vertex 26.6913 29.0981 40
    endloop
  endfacet
  facet normal 0.587785 0.809017 0
    outer loop
      vertex 25 30.3269 40
      vertex 26.6913 29.0981 0
      vertex 25 30.3269 0
    endloop
  endfacet
  facet normal -0.743145 0.669131 0
    outer loop
      vertex 11.9098 27.5445 0
      vertex 13.3087 29.0981 40
      vertex 13.3087 29.0981 0
    endloop
  endfacet
  facet normal -0.743145 0.669131 0
    outer loop
      vertex 13.3087 29.0981 40
      vertex 11.9098 27.5445 0
      vertex 11.9098 27.5445 40
    endloop
  endfacet
  facet normal -0.406737 0.913545 0
    outer loop
      vertex 16.9098 31.1772 0
      vertex 15 30.3269 40
      vertex 16.9098 31.1772 40
    endloop
  endfacet
  facet normal -0.406737 0.913545 0
    outer loop
      vertex 15 30.3269 40
      vertex 16.9098 31.1772 0
      vertex 15 30.3269 0
    endloop
  endfacet
  facet normal 0.743145 -0.669131 0
    outer loop
      vertex 26.6913 14.2352 40
      vertex 28.0902 15.7888 0
      vertex 28.0902 15.7888 40
    endloop
  endfacet
  facet normal 0.743145 -0.669131 0
    outer loop
      vertex 28.0902 15.7888 0
      vertex 26.6913 14.2352 40
      vertex 26.6913 14.2352 0
    endloop
  endfacet
  facet normal 0.866025 0.5 0
    outer loop
      vertex 29.1355 25.734 40
      vertex 28.0902 27.5445 0
      vertex 28.0902 27.5445 40
    endloop
  endfacet
  facet normal 0.866025 0.5 0
    outer loop
      vertex 28.0902 27.5445 0
      vertex 29.1355 25.734 40
      vertex 29.1355 25.734 0
    endloop
  endfacet
  facet normal 0.951057 0.309017 0
    outer loop
      vertex 29.7815 23.7458 40
      vertex 29.1355 25.734 0
      vertex 29.1355 25.734 40
    endloop
  endfacet
  facet normal 0.951057 0.309017 0
    outer loop
      vertex 29.1355 25.734 0
      vertex 29.7815 23.7458 40
      vertex 29.7815 23.7458 0
    endloop
  endfacet
  facet normal 0.743145 0.669131 0
    outer loop
      vertex 28.0902 27.5445 40
      vertex 26.6913 29.0981 0
      vertex 26.6913 29.0981 40
    endloop
  endfacet
  facet normal 0.743145 0.669131 0
    outer loop
      vertex 26.6913 29.0981 0
      vertex 28.0902 27.5445 40
      vertex 28.0902 27.5445 0
    endloop
  endfacet
  facet normal 0.207912 0.978148 -0
    outer loop
      vertex 23.0902 31.1772 0
      vertex 21.0453 31.6119 40
      vertex 23.0902 31.1772 40
    endloop
  endfacet
  facet normal 0.207912 0.978148 0
    outer loop
      vertex 21.0453 31.6119 40
      vertex 23.0902 31.1772 0
      vertex 21.0453 31.6119 0
    endloop
  endfacet
  facet normal 0 1 -0
    outer loop
      vertex 21.0453 31.6119 0
      vertex 18.9547 31.6119 40
      vertex 21.0453 31.6119 40
    endloop
  endfacet
  facet normal 0 1 0
    outer loop
      vertex 18.9547 31.6119 40
      vertex 21.0453 31.6119 0
      vertex 18.9547 31.6119 0
    endloop
  endfacet
  facet normal 0.406737 0.913545 -0
    outer loop
      vertex 25 30.3269 0
      vertex 23.0902 31.1772 40
      vertex 25 30.3269 40
    endloop
  endfacet
  facet normal 0.406737 0.913545 0
    outer loop
      vertex 23.0902 31.1772 40
      vertex 25 30.3269 0
      vertex 23.0902 31.1772 0
    endloop
  endfacet
  facet normal -0.951057 0.309017 0
    outer loop
      vertex 10.2185 23.7458 0
      vertex 10.8645 25.734 40
      vertex 10.8645 25.734 0
    endloop
  endfacet
  facet normal -0.951057 0.309017 0
    outer loop
      vertex 10.8645 25.734 40
      vertex 10.2185 23.7458 0
      vertex 10.2185 23.7458 40
    endloop
  endfacet
  facet normal 0 0 -1
    outer loop
      vertex 29.7815 19.5875 0
      vertex 29.7815 23.7458 0
      vertex 30 21.6667 0
    endloop
  endfacet
  facet normal 0 0 -1
    outer loop
      vertex 29.1355 17.5993 0
      vertex 29.7815 23.7458 0
      vertex 29.7815 19.5875 0
    endloop
  endfacet
  facet normal 0 0 -1
    outer loop
      vertex 29.1355 17.5993 0
      vertex 29.1355 25.734 0
      vertex 29.7815 23.7458 0
    endloop
  endfacet
  facet normal 0 0 -1
    outer loop
      vertex 28.0902 15.7888 0
      vertex 29.1355 25.734 0
      vertex 29.1355 17.5993 0
    endloop
  endfacet
  facet normal 0 0 -1
    outer loop
      vertex 28.0902 15.7888 0
      vertex 28.0902 27.5445 0
      vertex 29.1355 25.734 0
    endloop
  endfacet
  facet normal 0 0 -1
    outer loop
      vertex 26.6913 14.2352 0
      vertex 28.0902 27.5445 0
      vertex 28.0902 15.7888 0
    endloop
  endfacet
  facet normal 0 0 -1
    outer loop
      vertex 26.6913 14.2352 0
      vertex 26.6913 29.0981 0
      vertex 28.0902 27.5445 0
    endloop
  endfacet
  facet normal 0 0 -1
    outer loop
      vertex 25 13.0064 0
      vertex 26.6913 29.0981 0
      vertex 26.6913 14.2352 0
    endloop
  endfacet
  facet normal 0 0 -1
    outer loop
      vertex 25 13.0064 0
      vertex 25 30.3269 0
      vertex 26.6913 29.0981 0
    endloop
  endfacet
  facet normal 0 0 -1
    outer loop
      vertex 23.0902 12.1561 0
      vertex 25 30.3269 0
      vertex 25 13.0064 0
    endloop
  endfacet
  facet normal 0 0 -1
    outer loop
      vertex 23.0902 12.1561 0
      vertex 23.0902 31.1772 0
      vertex 25 30.3269 0
    endloop
  endfacet
  facet normal 0 0 -1
    outer loop
      vertex 21.0453 11.7214 0
      vertex 23.0902 31.1772 0
      vertex 23.0902 12.1561 0
    endloop
  endfacet
  facet normal 0 0 -1
    outer loop
      vertex 21.0453 11.7214 0
      vertex 21.0453 31.6119 0
      vertex 23.0902 31.1772 0
    endloop
  endfacet
  facet normal 0 0 -1
    outer loop
      vertex 18.9547 11.7214 0
      vertex 21.0453 31.6119 0
      vertex 21.0453 11.7214 0
    endloop
  endfacet
  facet normal 0 0 -1
    outer loop
      vertex 18.9547 11.7214 0
      vertex 18.9547 31.6119 0
      vertex 21.0453 31.6119 0
    endloop
  endfacet
  facet normal 0 0 -1
    outer loop
      vertex 16.9098 12.1561 0
      vertex 18.9547 31.6119 0
      vertex 18.9547 11.7214 0
    endloop
  endfacet
  facet normal 0 0 -1
    outer loop
      vertex 16.9098 12.1561 0
      vertex 16.9098 31.1772 0
      vertex 18.9547 31.6119 0
    endloop
  endfacet
  facet normal 0 0 -1
    outer loop
      vertex 16.9098 12.1561 0
      vertex 15 30.3269 0
      vertex 16.9098 31.1772 0
    endloop
  endfacet
  facet normal 0 0 -1
    outer loop
      vertex 15 13.0064 0
      vertex 15 30.3269 0
      vertex 16.9098 12.1561 0
    endloop
  endfacet
  facet normal 0 0 -1
    outer loop
      vertex 13.3087 14.2352 0
      vertex 15 30.3269 0
      vertex 15 13.0064 0
    endloop
  endfacet
  facet normal 0 0 -1
    outer loop
      vertex 13.3087 14.2352 0
      vertex 13.3087 29.0981 0
      vertex 15 30.3269 0
    endloop
  endfacet
  facet normal 0 0 -1
    outer loop
      vertex 11.9098 15.7888 0
      vertex 13.3087 29.0981 0
      vertex 13.3087 14.2352 0
    endloop
  endfacet
  facet normal 0 0 -1
    outer loop
      vertex 11.9098 15.7888 0
      vertex 11.9098 27.5445 0
      vertex 13.3087 29.0981 0
    endloop
  endfacet
  facet normal 0 0 -1
    outer loop
      vertex 10.8645 17.5993 0
      vertex 11.9098 27.5445 0
      vertex 11.9098 15.7888 0
    endloop
  endfacet
  facet normal 0 0 -1
    outer loop
      vertex 10.8645 17.5993 0
      vertex 10.8645 25.734 0
      vertex 11.9098 27.5445 0
    endloop
  endfacet
  facet normal 0 0 -1
    outer loop
      vertex 10.2185 19.5875 0
      vertex 10.8645 25.734 0
      vertex 10.8645 17.5993 0
    endloop
  endfacet
  facet normal 0 0 -1
    outer loop
      vertex 10.2185 19.5875 0
      vertex 10.2185 23.7458 0
      vertex 10.8645 25.734 0
    endloop
  endfacet
  facet normal 0 -0 -1
    outer loop
      vertex 10.2185 23.7458 0
      vertex 10.2185 19.5875 0
      vertex 10 21.6667 0
    endloop
  endfacet
  facet normal -0.866025 0.5 0
    outer loop
      vertex 10.8645 25.734 0
      vertex 11.9098 27.5445 40
      vertex 11.9098 27.5445 0
    endloop
  endfacet
  facet normal -0.866025 0.5 0
    outer loop
      vertex 11.9098 27.5445 40
      vertex 10.8645 25.734 0
      vertex 10.8645 25.734 40
    endloop
  endfacet
  facet normal -0.994522 0.104528 0
    outer loop
      vertex 10 21.6667 0
      vertex 10.2185 23.7458 40
      vertex 10.2185 23.7458 0
    endloop
  endfacet
  facet normal -0.994522 0.104528 0
    outer loop
      vertex 10.2185 23.7458 40
      vertex 10 21.6667 0
      vertex 10 21.6667 40
    endloop
  endfacet
  facet normal -0.587785 0.809017 0
    outer loop
      vertex 15 30.3269 0
      vertex 13.3087 29.0981 40
      vertex 15 30.3269 40
    endloop
  endfacet
  facet normal -0.587785 0.809017 0
    outer loop
      vertex 13.3087 29.0981 40
      vertex 15 30.3269 0
      vertex 13.3087 29.0981 0
    endloop
  endfacet
  facet normal 0.994522 -0.104529 0
    outer loop
      vertex 29.7815 19.5875 40
      vertex 30 21.6667 0
      vertex 30 21.6667 40
    endloop
  endfacet
  facet normal 0.994522 -0.104529 0
    outer loop
      vertex 30 21.6667 0
      vertex 29.7815 19.5875 40
      vertex 29.7815 19.5875 0
    endloop
  endfacet
  facet normal 0.207912 -0.978148 0
    outer loop
      vertex 21.0453 11.7214 0
      vertex 23.0902 12.1561 40
      vertex 21.0453 11.7214 40
    endloop
  endfacet
  facet normal 0.207912 -0.978148 0
    outer loop
      vertex 23.0902 12.1561 40
      vertex 21.0453 11.7214 0
      vertex 23.0902 12.1561 0
    endloop
  endfacet
  facet normal 0.587785 -0.809017 0
    outer loop
      vertex 25 13.0064 0
      vertex 26.6913 14.2352 40
      vertex 25 13.0064 40
    endloop
  endfacet
  facet normal 0.587785 -0.809017 0
    outer loop
      vertex 26.6913 14.2352 40
      vertex 25 13.0064 0
      vertex 26.6913 14.2352 0
    endloop
  endfacet
  facet normal -0.406737 -0.913545 0
    outer loop
      vertex 15 13.0064 0
      vertex 16.9098 12.1561 40
      vertex 15 13.0064 40
    endloop
  endfacet
  facet normal -0.406737 -0.913545 -0
    outer loop
      vertex 16.9098 12.1561 40
      vertex 15 13.0064 0
      vertex 16.9098 12.1561 0
    endloop
  endfacet
  facet normal 0 -1 0
    outer loop
      vertex 18.9547 11.7214 0
      vertex 21.0453 11.7214 40
      vertex 18.9547 11.7214 40
    endloop
  endfacet
  facet normal 0 -1 -0
    outer loop
      vertex 21.0453 11.7214 40
      vertex 18.9547 11.7214 0
      vertex 21.0453 11.7214 0
    endloop
  endfacet
  facet normal -0.743145 -0.669131 0
    outer loop
      vertex 13.3087 14.2352 0
      vertex 11.9098 15.7888 40
      vertex 11.9098 15.7888 0
    endloop
  endfacet
  facet normal -0.743145 -0.669131 0
    outer loop
      vertex 11.9098 15.7888 40
      vertex 13.3087 14.2352 0
      vertex 13.3087 14.2352 40
    endloop
  endfacet
  facet normal -0.951057 -0.309017 0
    outer loop
      vertex 10.8645 17.5993 0
      vertex 10.2185 19.5875 40
      vertex 10.2185 19.5875 0
    endloop
  endfacet
  facet normal -0.951057 -0.309017 0
    outer loop
      vertex 10.2185 19.5875 40
      vertex 10.8645 17.5993 0
      vertex 10.8645 17.5993 40
    endloop
  endfacet
  facet normal -0.994522 -0.104528 0
    outer loop
      vertex 10.2185 19.5875 0
      vertex 10 21.6667 40
      vertex 10 21.6667 0
    endloop
  endfacet
  facet normal -0.994522 -0.104528 0
    outer loop
      vertex 10 21.6667 40
      vertex 10.2185 19.5875 0
      vertex 10.2185 19.5875 40
    endloop
  endfacet
  facet normal 0.406737 -0.913545 0
    outer loop
      vertex 23.0902 12.1561 0
      vertex 25 13.0064 40
      vertex 23.0902 12.1561 40
    endloop
  endfacet
  facet normal 0.406737 -0.913545 0
    outer loop
      vertex 25 13.0064 40
      vertex 23.0902 12.1561 0
      vertex 25 13.0064 0
    endloop
  endfacet
  facet normal 0.951057 -0.309017 0
    outer loop
      vertex 29.1355 17.5993 40
      vertex 29.7815 19.5875 0
      vertex 29.7815 19.5875 40
    endloop
  endfacet
  facet normal 0.951057 -0.309017 0
    outer loop
      vertex 29.7815 19.5875 0
      vertex 29.1355 17.5993 40
      vertex 29.1355 17.5993 0
    endloop
  endfacet
  facet normal 0.866026 -0.5 0
    outer loop
      vertex 28.0902 15.7888 40
      vertex 29.1355 17.5993 0
      vertex 29.1355 17.5993 40
    endloop
  endfacet
  facet normal 0.866026 -0.5 0
    outer loop
      vertex 29.1355 17.5993 0
      vertex 28.0902 15.7888 40
      vertex 28.0902 15.7888 0
    endloop
  endfacet
  facet normal -0.207912 -0.978148 0
    outer loop
      vertex 16.9098 12.1561 0
      vertex 18.9547 11.7214 40
      vertex 16.9098 12.1561 40
    endloop
  endfacet
  facet normal -0.207912 -0.978148 -0
    outer loop
      vertex 18.9547 11.7214 40
      vertex 16.9098 12.1561 0
      vertex 18.9547 11.7214 0
    endloop
  endfacet
  facet normal -0.587785 -0.809017 0
    outer loop
      vertex 13.3087 14.2352 0
      vertex 15 13.0064 40
      vertex 13.3087 14.2352 40
    endloop
  endfacet
  facet normal -0.587785 -0.809017 -0
    outer loop
      vertex 15 13.0064 40
      vertex 13.3087 14.2352 0
      vertex 15 13.0064 0
    endloop
  endfacet
  facet normal -0.866026 -0.5 0
    outer loop
      vertex 11.9098 15.7888 0
      vertex 10.8645 17.5993 40
      vertex 10.8645 17.5993 0
    endloop
  endfacet
  facet normal -0.866026 -0.5 0
    outer loop
      vertex 10.8645 17.5993 40
      vertex 11.9098 15.7888 0
      vertex 11.9098 15.7888 40
    endloop
  endfacet
  facet normal 0.994522 0.104529 0
    outer loop
      vertex 30 43.3333 40
      vertex 29.7815 45.4124 0
      vertex 29.7815 45.4124 40
    endloop
  endfacet
  facet normal 0.994522 0.104529 0
    outer loop
      vertex 29.7815 45.4124 0
      vertex 30 43.3333 40
      vertex 30 43.3333 0
    endloop
  endfacet
  facet normal 0 1 -0
    outer loop
      vertex 21.0453 53.2786 0
      vertex 18.9547 53.2786 40
      vertex 21.0453 53.2786 40
    endloop
  endfacet
  facet normal 0 1 0
    outer loop
      vertex 18.9547 53.2786 40
      vertex 21.0453 53.2786 0
      vertex 18.9547 53.2786 0
    endloop
  endfacet
  facet normal 0.207912 -0.978148 0
    outer loop
      vertex 21.0453 33.3881 0
      vertex 23.0902 33.8228 40
      vertex 21.0453 33.3881 40
    endloop
  endfacet
  facet normal 0.207912 -0.978148 0
    outer loop
      vertex 23.0902 33.8228 40
      vertex 21.0453 33.3881 0
      vertex 23.0902 33.8228 0
    endloop
  endfacet
  facet normal 0.406737 -0.913545 0
    outer loop
      vertex 23.0902 33.8228 0
      vertex 25 34.6731 40
      vertex 23.0902 33.8228 40
    endloop
  endfacet
  facet normal 0.406737 -0.913545 0
    outer loop
      vertex 25 34.6731 40
      vertex 23.0902 33.8228 0
      vertex 25 34.6731 0
    endloop
  endfacet
  facet normal 0.587785 0.809017 -0
    outer loop
      vertex 26.6913 50.7648 0
      vertex 25 51.9936 40
      vertex 26.6913 50.7648 40
    endloop
  endfacet
  facet normal 0.587785 0.809017 0
    outer loop
      vertex 25 51.9936 40
      vertex 26.6913 50.7648 0
      vertex 25 51.9936 0
    endloop
  endfacet
  facet normal -0.743145 0.669131 0
    outer loop
      vertex 11.9098 49.2112 0
      vertex 13.3087 50.7648 40
      vertex 13.3087 50.7648 0
    endloop
  endfacet
  facet normal -0.743145 0.669131 0
    outer loop
      vertex 13.3087 50.7648 40
      vertex 11.9098 49.2112 0
      vertex 11.9098 49.2112 40
    endloop
  endfacet
  facet normal -0.406737 0.913545 0
    outer loop
      vertex 16.9098 52.8439 0
      vertex 15 51.9936 40
      vertex 16.9098 52.8439 40
    endloop
  endfacet
  facet normal -0.406737 0.913545 0
    outer loop
      vertex 15 51.9936 40
      vertex 16.9098 52.8439 0
      vertex 15 51.9936 0
    endloop
  endfacet
  facet normal 0.866025 0.5 0
    outer loop
      vertex 29.1355 47.4007 40
      vertex 28.0902 49.2112 0
      vertex 28.0902 49.2112 40
    endloop
  endfacet
  facet normal 0.866025 0.5 0
    outer loop
      vertex 28.0902 49.2112 0
      vertex 29.1355 47.4007 40
      vertex 29.1355 47.4007 0
    endloop
  endfacet
  facet normal 0.951057 0.309017 0
    outer loop
      vertex 29.7815 45.4124 40
      vertex 29.1355 47.4007 0
      vertex 29.1355 47.4007 40
    endloop
  endfacet
  facet normal 0.951057 0.309017 0
    outer loop
      vertex 29.1355 47.4007 0
      vertex 29.7815 45.4124 40
      vertex 29.7815 45.4124 0
    endloop
  endfacet
  facet normal 0.743145 0.669131 0
    outer loop
      vertex 28.0902 49.2112 40
      vertex 26.6913 50.7648 0
      vertex 26.6913 50.7648 40
    endloop
  endfacet
  facet normal 0.743145 0.669131 0
    outer loop
      vertex 26.6913 50.7648 0
      vertex 28.0902 49.2112 40
      vertex 28.0902 49.2112 0
    endloop
  endfacet
  facet normal 0.207912 0.978148 -0
    outer loop
      vertex 23.0902 52.8439 0
      vertex 21.0453 53.2786 40
      vertex 23.0902 52.8439 40
    endloop
  endfacet
  facet normal 0.207912 0.978148 0
    outer loop
      vertex 21.0453 53.2786 40
      vertex 23.0902 52.8439 0
      vertex 21.0453 53.2786 0
    endloop
  endfacet
  facet normal 0.406737 0.913545 -0
    outer loop
      vertex 25 51.9936 0
      vertex 23.0902 52.8439 40
      vertex 25 51.9936 40
    endloop
  endfacet
  facet normal 0.406737 0.913545 0
    outer loop
      vertex 23.0902 52.8439 40
      vertex 25 51.9936 0
      vertex 23.0902 52.8439 0
    endloop
  endfacet
  facet normal -0.951057 0.309017 0
    outer loop
      vertex 10.2185 45.4124 0
      vertex 10.8645 47.4007 40
      vertex 10.8645 47.4007 0
    endloop
  endfacet
  facet normal -0.951057 0.309017 0
    outer loop
      vertex 10.8645 47.4007 40
      vertex 10.2185 45.4124 0
      vertex 10.2185 45.4124 40
    endloop
  endfacet
  facet normal 0 0 -1
    outer loop
      vertex 29.7815 41.2542 0
      vertex 29.7815 45.4124 0
      vertex 30 43.3333 0
    endloop
  endfacet
  facet normal 0 0 -1
    outer loop
      vertex 29.1355 39.266 0
      vertex 29.7815 45.4124 0
      vertex 29.7815 41.2542 0
    endloop
  endfacet
  facet normal 0 0 -1
    outer loop
      vertex 29.1355 39.266 0
      vertex 29.1355 47.4007 0
      vertex 29.7815 45.4124 0
    endloop
  endfacet
  facet normal 0 0 -1
    outer loop
      vertex 28.0902 37.4555 0
      vertex 29.1355 47.4007 0
      vertex 29.1355 39.266 0
    endloop
  endfacet
  facet normal 0 0 -1
    outer loop
      vertex 28.0902 37.4555 0
      vertex 28.0902 49.2112 0
      vertex 29.1355 47.4007 0
    endloop
  endfacet
  facet normal 0 0 -1
    outer loop
      vertex 26.6913 35.9019 0
      vertex 28.0902 49.2112 0
      vertex 28.0902 37.4555 0
    endloop
  endfacet
  facet normal 0 0 -1
    outer loop
      vertex 26.6913 35.9019 0
      vertex 26.6913 50.7648 0
      vertex 28.0902 49.2112 0
    endloop
  endfacet
  facet normal 0 0 -1
    outer loop
      vertex 25 34.6731 0
      vertex 26.6913 50.7648 0
      vertex 26.6913 35.9019 0
    endloop
  endfacet
  facet normal 0 0 -1
    outer loop
      vertex 25 34.6731 0
      vertex 25 51.9936 0
      vertex 26.6913 50.7648 0
    endloop
  endfacet
  facet normal 0 0 -1
    outer loop
      vertex 23.0902 33.8228 0
      vertex 25 51.9936 0
      vertex 25 34.6731 0
    endloop
  endfacet
  facet normal 0 0 -1
    outer loop
      vertex 23.0902 33.8228 0
      vertex 23.0902 52.8439 0
      vertex 25 51.9936 0
    endloop
  endfacet
  facet normal 0 0 -1
    outer loop
      vertex 21.0453 33.3881 0
      vertex 23.0902 52.8439 0
      vertex 23.0902 33.8228 0
    endloop
  endfacet
  facet normal 0 0 -1
    outer loop
      vertex 21.0453 33.3881 0
      vertex 21.0453 53.2786 0
      vertex 23.0902 52.8439 0
    endloop
  endfacet
  facet normal 0 0 -1
    outer loop
      vertex 18.9547 33.3881 0
      vertex 21.0453 53.2786 0
      vertex 21.0453 33.3881 0
    endloop
  endfacet
  facet normal 0 0 -1
    outer loop
      vertex 18.9547 33.3881 0
      vertex 18.9547 53.2786 0
      vertex 21.0453 53.2786 0
    endloop
  endfacet
  facet normal 0 0 -1
    outer loop
      vertex 16.9098 33.8228 0
      vertex 18.9547 53.2786 0
      vertex 18.9547 33.3881 0
    endloop
  endfacet
  facet normal 0 0 -1
    outer loop
      vertex 16.9098 33.8228 0
      vertex 16.9098 52.8439 0
      vertex 18.9547 53.2786 0
    endloop
  endfacet
  facet normal 0 0 -1
    outer loop
      vertex 16.9098 33.8228 0
      vertex 15 51.9936 0
      vertex 16.9098 52.8439 0
    endloop
  endfacet
  facet normal 0 0 -1
    outer loop
      vertex 15 34.6731 0
      vertex 15 51.9936 0
      vertex 16.9098 33.8228 0
    endloop
  endfacet
  facet normal 0 0 -1
    outer loop
      vertex 13.3087 35.9019 0
      vertex 15 51.9936 0
      vertex 15 34.6731 0
    endloop
  endfacet
  facet normal 0 0 -1
    outer loop
      vertex 13.3087 35.9019 0
      vertex 13.3087 50.7648 0
      vertex 15 51.9936 0
    endloop
  endfacet
  facet normal 0 0 -1
    outer loop
      vertex 11.9098 37.4555 0
      vertex 13.3087 50.7648 0
      vertex 13.3087 35.9019 0
    endloop
  endfacet
  facet normal 0 0 -1
    outer loop
      vertex 11.9098 37.4555 0
      vertex 11.9098 49.2112 0
      vertex 13.3087 50.7648 0
    endloop
  endfacet
  facet normal 0 0 -1
    outer loop
      vertex 10.8645 39.266 0
      vertex 11.9098 49.2112 0
      vertex 11.9098 37.4555 0
    endloop
  endfacet
  facet normal 0 0 -1
    outer loop
      vertex 10.8645 39.266 0
      vertex 10.8645 47.4007 0
      vertex 11.9098 49.2112 0
    endloop
  endfacet
  facet normal 0 0 -1
    outer loop
      vertex 10.2185 41.2542 0
      vertex 10.8645 47.4007 0
      vertex 10.8645 39.266 0
    endloop
  endfacet
  facet normal 0 0 -1
    outer loop
      vertex 10.2185 41.2542 0
      vertex 10.2185 45.4124 0
      vertex 10.8645 47.4007 0
    endloop
  endfacet
  facet normal 0 -0 -1
    outer loop
      vertex 10.2185 45.4124 0
      vertex 10.2185 41.2542 0
      vertex 10 43.3333 0
    endloop
  endfacet
  facet normal -0.866025 0.5 0
    outer loop
      vertex 10.8645 47.4007 0
      vertex 11.9098 49.2112 40
      vertex 11.9098 49.2112 0
    endloop
  endfacet
  facet normal -0.866025 0.5 0
    outer loop
      vertex 11.9098 49.2112 40
      vertex 10.8645 47.4007 0
      vertex 10.8645 47.4007 40
    endloop
  endfacet
  facet normal -0.994522 0.104528 0
    outer loop
      vertex 10 43.3333 0
      vertex 10.2185 45.4124 40
      vertex 10.2185 45.4124 0
    endloop
  endfacet
  facet normal -0.994522 0.104528 0
    outer loop
      vertex 10.2185 45.4124 40
      vertex 10 43.3333 0
      vertex 10 43.3333 40
    endloop
  endfacet
  facet normal -0.587785 0.809017 0
    outer loop
      vertex 15 51.9936 0
      vertex 13.3087 50.7648 40
      vertex 15 51.9936 40
    endloop
  endfacet
  facet normal -0.587785 0.809017 0
    outer loop
      vertex 13.3087 50.7648 40
      vertex 15 51.9936 0
      vertex 13.3087 50.7648 0
    endloop
  endfacet
  facet normal -0.207912 0.978148 0
    outer loop
      vertex 18.9547 53.2786 0
      vertex 16.9098 52.8439 40
      vertex 18.9547 53.2786 40
    endloop
  endfacet
  facet normal -0.207912 0.978148 0
    outer loop
      vertex 16.9098 52.8439 40
      vertex 18.9547 53.2786 0
      vertex 16.9098 52.8439 0
    endloop
  endfacet
  facet normal 0.994522 -0.104529 0
    outer loop
      vertex 29.7815 41.2542 40
      vertex 30 43.3333 0
      vertex 30 43.3333 40
    endloop
  endfacet
  facet normal 0.994522 -0.104529 0
    outer loop
      vertex 30 43.3333 0
      vertex 29.7815 41.2542 40
      vertex 29.7815 41.2542 0
    endloop
  endfacet
  facet normal 0.743145 -0.669131 0
    outer loop
      vertex 26.6913 35.9019 40
      vertex 28.0902 37.4555 0
      vertex 28.0902 37.4555 40
    endloop
  endfacet
  facet normal 0.743145 -0.669131 0
    outer loop
      vertex 28.0902 37.4555 0
      vertex 26.6913 35.9019 40
      vertex 26.6913 35.9019 0
    endloop
  endfacet
  facet normal -0.994522 -0.104528 0
    outer loop
      vertex 10.2185 41.2542 0
      vertex 10 43.3333 40
      vertex 10 43.3333 0
    endloop
  endfacet
  facet normal -0.994522 -0.104528 0
    outer loop
      vertex 10 43.3333 40
      vertex 10.2185 41.2542 0
      vertex 10.2185 41.2542 40
    endloop
  endfacet
  facet normal 0.866025 -0.5 0
    outer loop
      vertex 28.0902 37.4555 40
      vertex 29.1355 39.266 0
      vertex 29.1355 39.266 40
    endloop
  endfacet
  facet normal 0.866025 -0.5 0
    outer loop
      vertex 29.1355 39.266 0
      vertex 28.0902 37.4555 40
      vertex 28.0902 37.4555 0
    endloop
  endfacet
  facet normal -0.406737 -0.913545 0
    outer loop
      vertex 15 34.6731 0
      vertex 16.9098 33.8228 40
      vertex 15 34.6731 40
    endloop
  endfacet
  facet normal -0.406737 -0.913545 -0
    outer loop
      vertex 16.9098 33.8228 40
      vertex 15 34.6731 0
      vertex 16.9098 33.8228 0
    endloop
  endfacet
  facet normal -0.743145 -0.669131 0
    outer loop
      vertex 13.3087 35.9019 0
      vertex 11.9098 37.4555 40
      vertex 11.9098 37.4555 0
    endloop
  endfacet
  facet normal -0.743145 -0.669131 0
    outer loop
      vertex 11.9098 37.4555 40
      vertex 13.3087 35.9019 0
      vertex 13.3087 35.9019 40
    endloop
  endfacet
  facet normal 0.587785 -0.809017 0
    outer loop
      vertex 25 34.6731 0
      vertex 26.6913 35.9019 40
      vertex 25 34.6731 40
    endloop
  endfacet
  facet normal 0.587785 -0.809017 0
    outer loop
      vertex 26.6913 35.9019 40
      vertex 25 34.6731 0
      vertex 26.6913 35.9019 0
    endloop
  endfacet
  facet normal 0.951056 -0.309017 0
    outer loop
      vertex 29.1355 39.266 40
      vertex 29.7815 41.2542 0
      vertex 29.7815 41.2542 40
    endloop
  endfacet
  facet normal 0.951056 -0.309017 0
    outer loop
      vertex 29.7815 41.2542 0
      vertex 29.1355 39.266 40
      vertex 29.1355 39.266 0
    endloop
  endfacet
  facet normal 0 -1 0
    outer loop
      vertex 18.9547 33.3881 0
      vertex 21.0453 33.3881 40
      vertex 18.9547 33.3881 40
    endloop
  endfacet
  facet normal 0 -1 -0
    outer loop
      vertex 21.0453 33.3881 40
      vertex 18.9547 33.3881 0
      vertex 21.0453 33.3881 0
    endloop
  endfacet
  facet normal -0.207912 -0.978148 0
    outer loop
      vertex 16.9098 33.8228 0
      vertex 18.9547 33.3881 40
      vertex 16.9098 33.8228 40
    endloop
  endfacet
  facet normal -0.207912 -0.978148 -0
    outer loop
      vertex 18.9547 33.3881 40
      vertex 16.9098 33.8228 0
      vertex 18.9547 33.3881 0
    endloop
  endfacet
  facet normal -0.587785 -0.809017 0
    outer loop
      vertex 13.3087 35.9019 0
      vertex 15 34.6731 40
      vertex 13.3087 35.9019 40
    endloop
  endfacet
  facet normal -0.587785 -0.809017 -0
    outer loop
      vertex 15 34.6731 40
      vertex 13.3087 35.9019 0
      vertex 15 34.6731 0
    endloop
  endfacet
  facet normal -0.866025 -0.5 0
    outer loop
      vertex 11.9098 37.4555 0
      vertex 10.8645 39.266 40
      vertex 10.8645 39.266 0
    endloop
  endfacet
  facet normal -0.866025 -0.5 0
    outer loop
      vertex 10.8645 39.266 40
      vertex 11.9098 37.4555 0
      vertex 11.9098 37.4555 40
    endloop
  endfacet
  facet normal -0.951056 -0.309017 0
    outer loop
      vertex 10.8645 39.266 0
      vertex 10.2185 41.2542 40
      vertex 10.2185 41.2542 0
    endloop
  endfacet
  facet normal -0.951056 -0.309017 0
    outer loop
      vertex 10.2185 41.2542 40
      vertex 10.8645 39.266 0
      vertex 10.8645 39.266 40
    endloop
  endfacet
endsolid OpenSCAD_Model
