solid OpenSCAD_Model
  facet normal -1 0 0
    outer loop
      vertex 0 -4 25
      vertex 0 21 29
      vertex 0 21 25
    endloop
  endfacet
  facet normal -1 -0 0
    outer loop
      vertex 0 21 29
      vertex 0 -4 25
      vertex 0 -4 29
    endloop
  endfacet
  facet normal -0 0 1
    outer loop
      vertex 0 21 29
      vertex 40 -4 29
      vertex 40 21 29
    endloop
  endfacet
  facet normal 0 0 1
    outer loop
      vertex 40 -4 29
      vertex 0 21 29
      vertex 0 -4 29
    endloop
  endfacet
  facet normal 1 -0 0
    outer loop
      vertex 40 -4 29
      vertex 40 21 25
      vertex 40 21 29
    endloop
  endfacet
  facet normal 1 0 0
    outer loop
      vertex 40 21 25
      vertex 40 -4 29
      vertex 40 -4 25
    endloop
  endfacet
  facet normal 0 1 -0
    outer loop
      vertex 40 21 25
      vertex 0 21 29
      vertex 40 21 29
    endloop
  endfacet
  facet normal 0 1 0
    outer loop
      vertex 0 21 29
      vertex 40 21 25
      vertex 0 21 25
    endloop
  endfacet
  facet normal 0 0 -1
    outer loop
      vertex 40 -4 25
      vertex 24 6.5 25
      vertex 40 21 25
    endloop
  endfacet
  facet normal 0 0 -1
    outer loop
      vertex 40 -4 25
      vertex 16 6.5 25
      vertex 24 6.5 25
    endloop
  endfacet
  facet normal 0 0 -1
    outer loop
      vertex 0 21 25
      vertex 16 6.5 25
      vertex 0 -4 25
    endloop
  endfacet
  facet normal 0 0 -1
    outer loop
      vertex 0 -4 25
      vertex 16 6.5 25
      vertex 40 -4 25
    endloop
  endfacet
  facet normal 0 0 -1
    outer loop
      vertex 24 14.5 25
      vertex 40 21 25
      vertex 24 6.5 25
    endloop
  endfacet
  facet normal 0 0 -1
    outer loop
      vertex 16 14.5 25
      vertex 40 21 25
      vertex 24 14.5 25
    endloop
  endfacet
  facet normal 0 0 -1
    outer loop
      vertex 16 14.5 25
      vertex 0 21 25
      vertex 40 21 25
    endloop
  endfacet
  facet normal 0 0 -1
    outer loop
      vertex 16 6.5 25
      vertex 0 21 25
      vertex 16 14.5 25
    endloop
  endfacet
  facet normal 0 -1 0
    outer loop
      vertex 0 -4 25
      vertex 40 -4 29
      vertex 0 -4 29
    endloop
  endfacet
  facet normal 0 -1 -0
    outer loop
      vertex 40 -4 29
      vertex 0 -4 25
      vertex 40 -4 25
    endloop
  endfacet
  facet normal -1 0 0
    outer loop
      vertex 16 6.5 0
      vertex 16 14.5 25
      vertex 16 14.5 0
    endloop
  endfacet
  facet normal -1 -0 0
    outer loop
      vertex 16 14.5 25
      vertex 16 6.5 0
      vertex 16 6.5 25
    endloop
  endfacet
  facet normal 1 -0 0
    outer loop
      vertex 24 6.5 25
      vertex 24 14.5 0
      vertex 24 14.5 25
    endloop
  endfacet
  facet normal 1 0 0
    outer loop
      vertex 24 14.5 0
      vertex 24 6.5 25
      vertex 24 6.5 0
    endloop
  endfacet
  facet normal 0 1 -0
    outer loop
      vertex 24 14.5 0
      vertex 16 14.5 25
      vertex 24 14.5 25
    endloop
  endfacet
  facet normal 0 1 0
    outer loop
      vertex 16 14.5 25
      vertex 24 14.5 0
      vertex 16 14.5 0
    endloop
  endfacet
  facet normal 0 0 -1
    outer loop
      vertex 16 6.5 0
      vertex 24 14.5 0
      vertex 24 6.5 0
    endloop
  endfacet
  facet normal -0 0 -1
    outer loop
      vertex 24 14.5 0
      vertex 16 6.5 0
      vertex 16 14.5 0
    endloop
  endfacet
  facet normal 0 -1 0
    outer loop
      vertex 16 6.5 0
      vertex 24 6.5 25
      vertex 16 6.5 25
    endloop
  endfacet
  facet normal 0 -1 -0
    outer loop
      vertex 24 6.5 25
      vertex 16 6.5 0
      vertex 24 6.5 0
    endloop
  endfacet
endsolid OpenSCAD_Model
