solid OpenSCAD_Model
  facet normal 0.959493 -0 0.281733
    outer loop
      vertex 10.7341 -4 9.75708
      vertex 11.25 0 8
      vertex 10.7341 0 9.75708
    endloop
  endfacet
  facet normal 0.959493 0 0.281733
    outer loop
      vertex 11.25 0 8
      vertex 10.7341 -4 9.75708
      vertex 11.25 -4 8
    endloop
  endfacet
  facet normal -1 0 0
    outer loop
      vertex 4.88165 -4 7.08437
      vertex 4.88165 0 8.91563
      vertex 4.88165 0 7.08437
    endloop
  endfacet
  facet normal -1 -0 0
    outer loop
      vertex 4.88165 0 8.91563
      vertex 4.88165 -4 7.08437
      vertex 4.88165 -4 8.91563
    endloop
  endfacet
  facet normal 0.142315 0 0.989821
    outer loop
      vertex 7.53748 0 11.2169
      vertex 9.3501 -4 10.9563
      vertex 9.3501 0 10.9563
    endloop
  endfacet
  facet normal 0.142315 0 0.989821
    outer loop
      vertex 9.3501 -4 10.9563
      vertex 7.53748 0 11.2169
      vertex 7.53748 -4 11.2169
    endloop
  endfacet
  facet normal 0.654861 0 0.755749
    outer loop
      vertex 9.3501 0 10.9563
      vertex 10.7341 -4 9.75708
      vertex 10.7341 0 9.75708
    endloop
  endfacet
  facet normal 0.654861 0 0.755749
    outer loop
      vertex 10.7341 -4 9.75708
      vertex 9.3501 0 10.9563
      vertex 9.3501 -4 10.9563
    endloop
  endfacet
  facet normal 0 -1 -0
    outer loop
      vertex 7.53748 -4 11.2169
      vertex 6.30294 -4 9.69706
      vertex 8 -4 10.4
    endloop
  endfacet
  facet normal 0 -1 0
    outer loop
      vertex 4.88165 -4 8.91563
      vertex 6.30294 -4 9.69706
      vertex 5.8717 -4 10.4562
    endloop
  endfacet
  facet normal 0 -1 0
    outer loop
      vertex 4.88165 -4 8.91563
      vertex 5.6 -4 8
      vertex 6.30294 -4 9.69706
    endloop
  endfacet
  facet normal 0 -1 0
    outer loop
      vertex 4.88165 -4 7.08437
      vertex 5.6 -4 8
      vertex 4.88165 -4 8.91563
    endloop
  endfacet
  facet normal 0 -1 0
    outer loop
      vertex 4.88165 -4 7.08437
      vertex 6.30294 -4 6.30294
      vertex 5.6 -4 8
    endloop
  endfacet
  facet normal 0 -1 0
    outer loop
      vertex 7.53748 -4 4.78308
      vertex 6.30294 -4 6.30294
      vertex 5.8717 -4 5.54381
    endloop
  endfacet
  facet normal 0 -1 0
    outer loop
      vertex 5.8717 -4 5.54381
      vertex 6.30294 -4 6.30294
      vertex 4.88165 -4 7.08437
    endloop
  endfacet
  facet normal 0 -1 0
    outer loop
      vertex 6.30294 -4 9.69706
      vertex 7.53748 -4 11.2169
      vertex 5.8717 -4 10.4562
    endloop
  endfacet
  facet normal 0 -1 0
    outer loop
      vertex 7.53748 -4 11.2169
      vertex 8 -4 10.4
      vertex 9.3501 -4 10.9563
    endloop
  endfacet
  facet normal 0 -1 0
    outer loop
      vertex 9.69706 -4 9.69706
      vertex 9.3501 -4 10.9563
      vertex 8 -4 10.4
    endloop
  endfacet
  facet normal 0 -1 0
    outer loop
      vertex 9.3501 -4 10.9563
      vertex 9.69706 -4 9.69706
      vertex 10.7341 -4 9.75708
    endloop
  endfacet
  facet normal 0 -1 0
    outer loop
      vertex 10.4 -4 8
      vertex 10.7341 -4 9.75708
      vertex 9.69706 -4 9.69706
    endloop
  endfacet
  facet normal 0 -1 0
    outer loop
      vertex 10.4 -4 8
      vertex 11.25 -4 8
      vertex 10.7341 -4 9.75708
    endloop
  endfacet
  facet normal 0 -1 0
    outer loop
      vertex 10.7341 -4 6.24292
      vertex 10.4 -4 8
      vertex 9.69706 -4 6.30294
    endloop
  endfacet
  facet normal 0 -1 0
    outer loop
      vertex 10.4 -4 8
      vertex 10.7341 -4 6.24292
      vertex 11.25 -4 8
    endloop
  endfacet
  facet normal 0 -1 0
    outer loop
      vertex 9.3501 -4 5.0437
      vertex 9.69706 -4 6.30294
      vertex 8 -4 5.6
    endloop
  endfacet
  facet normal 0 -1 -0
    outer loop
      vertex 9.69706 -4 6.30294
      vertex 9.3501 -4 5.0437
      vertex 10.7341 -4 6.24292
    endloop
  endfacet
  facet normal 0 -1 0
    outer loop
      vertex 6.30294 -4 6.30294
      vertex 7.53748 -4 4.78308
      vertex 8 -4 5.6
    endloop
  endfacet
  facet normal 0 -1 -0
    outer loop
      vertex 8 -4 5.6
      vertex 7.53748 -4 4.78308
      vertex 9.3501 -4 5.0437
    endloop
  endfacet
  facet normal 0.142315 0 -0.989821
    outer loop
      vertex 7.53748 -4 4.78308
      vertex 9.3501 0 5.0437
      vertex 9.3501 -4 5.0437
    endloop
  endfacet
  facet normal 0.142315 0 -0.989821
    outer loop
      vertex 9.3501 0 5.0437
      vertex 7.53748 -4 4.78308
      vertex 7.53748 0 4.78308
    endloop
  endfacet
  facet normal 0.654861 0 -0.755749
    outer loop
      vertex 9.3501 -4 5.0437
      vertex 10.7341 0 6.24292
      vertex 10.7341 -4 6.24292
    endloop
  endfacet
  facet normal 0.654861 0 -0.755749
    outer loop
      vertex 10.7341 0 6.24292
      vertex 9.3501 -4 5.0437
      vertex 9.3501 0 5.0437
    endloop
  endfacet
  facet normal -0.841253 0 -0.540641
    outer loop
      vertex 5.8717 -4 5.54381
      vertex 4.88165 0 7.08437
      vertex 5.8717 0 5.54381
    endloop
  endfacet
  facet normal -0.841253 -0 -0.540641
    outer loop
      vertex 4.88165 0 7.08437
      vertex 5.8717 -4 5.54381
      vertex 4.88165 -4 7.08437
    endloop
  endfacet
  facet normal -0.841253 0 0.540641
    outer loop
      vertex 4.88165 -4 8.91563
      vertex 5.8717 0 10.4562
      vertex 4.88165 0 8.91563
    endloop
  endfacet
  facet normal -0.841253 0 0.540641
    outer loop
      vertex 5.8717 0 10.4562
      vertex 4.88165 -4 8.91563
      vertex 5.8717 -4 10.4562
    endloop
  endfacet
  facet normal -0.415415 0 0.909632
    outer loop
      vertex 5.8717 0 10.4562
      vertex 7.53748 -4 11.2169
      vertex 7.53748 0 11.2169
    endloop
  endfacet
  facet normal -0.415415 0 0.909632
    outer loop
      vertex 7.53748 -4 11.2169
      vertex 5.8717 0 10.4562
      vertex 5.8717 -4 10.4562
    endloop
  endfacet
  facet normal 0.959493 0 -0.281733
    outer loop
      vertex 11.25 -4 8
      vertex 10.7341 0 6.24292
      vertex 11.25 0 8
    endloop
  endfacet
  facet normal 0.959493 0 -0.281733
    outer loop
      vertex 10.7341 0 6.24292
      vertex 11.25 -4 8
      vertex 10.7341 -4 6.24292
    endloop
  endfacet
  facet normal -0.415415 0 -0.909632
    outer loop
      vertex 5.8717 -4 5.54381
      vertex 7.53748 0 4.78308
      vertex 7.53748 -4 4.78308
    endloop
  endfacet
  facet normal -0.415415 0 -0.909632
    outer loop
      vertex 7.53748 0 4.78308
      vertex 5.8717 -4 5.54381
      vertex 5.8717 0 5.54381
    endloop
  endfacet
  facet normal -0.923879 0 -0.382684
    outer loop
      vertex 10.4 -4 8
      vertex 9.69706 0 9.69706
      vertex 10.4 0 8
    endloop
  endfacet
  facet normal -0.923879 -0 -0.382684
    outer loop
      vertex 9.69706 0 9.69706
      vertex 10.4 -4 8
      vertex 9.69706 -4 9.69706
    endloop
  endfacet
  facet normal 0.923879 0 -0.382684
    outer loop
      vertex 6.30294 -4 9.69706
      vertex 5.6 0 8
      vertex 6.30294 0 9.69706
    endloop
  endfacet
  facet normal 0.923879 0 -0.382684
    outer loop
      vertex 5.6 0 8
      vertex 6.30294 -4 9.69706
      vertex 5.6 -4 8
    endloop
  endfacet
  facet normal -0.382684 0 -0.923879
    outer loop
      vertex 8 -4 10.4
      vertex 9.69706 0 9.69706
      vertex 9.69706 -4 9.69706
    endloop
  endfacet
  facet normal -0.382684 0 -0.923879
    outer loop
      vertex 9.69706 0 9.69706
      vertex 8 -4 10.4
      vertex 8 0 10.4
    endloop
  endfacet
  facet normal 0.382684 0 -0.923879
    outer loop
      vertex 6.30294 -4 9.69706
      vertex 8 0 10.4
      vertex 8 -4 10.4
    endloop
  endfacet
  facet normal 0.382684 0 -0.923879
    outer loop
      vertex 8 0 10.4
      vertex 6.30294 -4 9.69706
      vertex 6.30294 0 9.69706
    endloop
  endfacet
  facet normal -0.382684 0 0.923879
    outer loop
      vertex 8 0 5.6
      vertex 9.69706 -4 6.30294
      vertex 9.69706 0 6.30294
    endloop
  endfacet
  facet normal -0.382684 0 0.923879
    outer loop
      vertex 9.69706 -4 6.30294
      vertex 8 0 5.6
      vertex 8 -4 5.6
    endloop
  endfacet
  facet normal 0.923879 -0 0.382684
    outer loop
      vertex 5.6 -4 8
      vertex 6.30294 0 6.30294
      vertex 5.6 0 8
    endloop
  endfacet
  facet normal 0.923879 0 0.382684
    outer loop
      vertex 6.30294 0 6.30294
      vertex 5.6 -4 8
      vertex 6.30294 -4 6.30294
    endloop
  endfacet
  facet normal -0.923879 0 0.382684
    outer loop
      vertex 9.69706 -4 6.30294
      vertex 10.4 0 8
      vertex 9.69706 0 6.30294
    endloop
  endfacet
  facet normal -0.923879 0 0.382684
    outer loop
      vertex 10.4 0 8
      vertex 9.69706 -4 6.30294
      vertex 10.4 -4 8
    endloop
  endfacet
  facet normal 0.382684 0 0.923879
    outer loop
      vertex 6.30294 0 6.30294
      vertex 8 -4 5.6
      vertex 8 0 5.6
    endloop
  endfacet
  facet normal 0.382684 0 0.923879
    outer loop
      vertex 8 -4 5.6
      vertex 6.30294 0 6.30294
      vertex 6.30294 -4 6.30294
    endloop
  endfacet
  facet normal 0.959493 -0 0.281733
    outer loop
      vertex 10.7341 -4 17.7571
      vertex 11.25 0 16
      vertex 10.7341 0 17.7571
    endloop
  endfacet
  facet normal 0.959493 0 0.281733
    outer loop
      vertex 11.25 0 16
      vertex 10.7341 -4 17.7571
      vertex 11.25 -4 16
    endloop
  endfacet
  facet normal -1 0 0
    outer loop
      vertex 4.88165 -4 15.0844
      vertex 4.88165 0 16.9156
      vertex 4.88165 0 15.0844
    endloop
  endfacet
  facet normal -1 -0 0
    outer loop
      vertex 4.88165 0 16.9156
      vertex 4.88165 -4 15.0844
      vertex 4.88165 -4 16.9156
    endloop
  endfacet
  facet normal 0.142315 0 0.989821
    outer loop
      vertex 7.53748 0 19.2169
      vertex 9.3501 -4 18.9563
      vertex 9.3501 0 18.9563
    endloop
  endfacet
  facet normal 0.142315 0 0.989821
    outer loop
      vertex 9.3501 -4 18.9563
      vertex 7.53748 0 19.2169
      vertex 7.53748 -4 19.2169
    endloop
  endfacet
  facet normal 0.654861 0 0.75575
    outer loop
      vertex 9.3501 0 18.9563
      vertex 10.7341 -4 17.7571
      vertex 10.7341 0 17.7571
    endloop
  endfacet
  facet normal 0.654861 0 0.75575
    outer loop
      vertex 10.7341 -4 17.7571
      vertex 9.3501 0 18.9563
      vertex 9.3501 -4 18.9563
    endloop
  endfacet
  facet normal 0 -1 -0
    outer loop
      vertex 7.53748 -4 19.2169
      vertex 6.30294 -4 17.6971
      vertex 8 -4 18.4
    endloop
  endfacet
  facet normal 0 -1 0
    outer loop
      vertex 4.88165 -4 16.9156
      vertex 6.30294 -4 17.6971
      vertex 5.8717 -4 18.4562
    endloop
  endfacet
  facet normal 0 -1 0
    outer loop
      vertex 4.88165 -4 16.9156
      vertex 5.6 -4 16
      vertex 6.30294 -4 17.6971
    endloop
  endfacet
  facet normal 0 -1 0
    outer loop
      vertex 4.88165 -4 15.0844
      vertex 5.6 -4 16
      vertex 4.88165 -4 16.9156
    endloop
  endfacet
  facet normal 0 -1 0
    outer loop
      vertex 4.88165 -4 15.0844
      vertex 6.30294 -4 14.3029
      vertex 5.6 -4 16
    endloop
  endfacet
  facet normal 0 -1 0
    outer loop
      vertex 7.53748 -4 12.7831
      vertex 6.30294 -4 14.3029
      vertex 5.8717 -4 13.5438
    endloop
  endfacet
  facet normal 0 -1 0
    outer loop
      vertex 5.8717 -4 13.5438
      vertex 6.30294 -4 14.3029
      vertex 4.88165 -4 15.0844
    endloop
  endfacet
  facet normal 0 -1 0
    outer loop
      vertex 6.30294 -4 17.6971
      vertex 7.53748 -4 19.2169
      vertex 5.8717 -4 18.4562
    endloop
  endfacet
  facet normal 0 -1 0
    outer loop
      vertex 7.53748 -4 19.2169
      vertex 8 -4 18.4
      vertex 9.3501 -4 18.9563
    endloop
  endfacet
  facet normal 0 -1 0
    outer loop
      vertex 9.69706 -4 17.6971
      vertex 9.3501 -4 18.9563
      vertex 8 -4 18.4
    endloop
  endfacet
  facet normal 0 -1 0
    outer loop
      vertex 9.3501 -4 18.9563
      vertex 9.69706 -4 17.6971
      vertex 10.7341 -4 17.7571
    endloop
  endfacet
  facet normal 0 -1 0
    outer loop
      vertex 10.4 -4 16
      vertex 10.7341 -4 17.7571
      vertex 9.69706 -4 17.6971
    endloop
  endfacet
  facet normal 0 -1 0
    outer loop
      vertex 10.4 -4 16
      vertex 11.25 -4 16
      vertex 10.7341 -4 17.7571
    endloop
  endfacet
  facet normal 0 -1 0
    outer loop
      vertex 10.7341 -4 14.2429
      vertex 10.4 -4 16
      vertex 9.69706 -4 14.3029
    endloop
  endfacet
  facet normal 0 -1 0
    outer loop
      vertex 10.4 -4 16
      vertex 10.7341 -4 14.2429
      vertex 11.25 -4 16
    endloop
  endfacet
  facet normal 0 -1 0
    outer loop
      vertex 9.3501 -4 13.0437
      vertex 9.69706 -4 14.3029
      vertex 8 -4 13.6
    endloop
  endfacet
  facet normal 0 -1 -0
    outer loop
      vertex 9.69706 -4 14.3029
      vertex 9.3501 -4 13.0437
      vertex 10.7341 -4 14.2429
    endloop
  endfacet
  facet normal 0 -1 0
    outer loop
      vertex 6.30294 -4 14.3029
      vertex 7.53748 -4 12.7831
      vertex 8 -4 13.6
    endloop
  endfacet
  facet normal 0 -1 -0
    outer loop
      vertex 8 -4 13.6
      vertex 7.53748 -4 12.7831
      vertex 9.3501 -4 13.0437
    endloop
  endfacet
  facet normal 0.142315 0 -0.989821
    outer loop
      vertex 7.53748 -4 12.7831
      vertex 9.3501 0 13.0437
      vertex 9.3501 -4 13.0437
    endloop
  endfacet
  facet normal 0.142315 0 -0.989821
    outer loop
      vertex 9.3501 0 13.0437
      vertex 7.53748 -4 12.7831
      vertex 7.53748 0 12.7831
    endloop
  endfacet
  facet normal 0.654861 0 -0.755749
    outer loop
      vertex 9.3501 -4 13.0437
      vertex 10.7341 0 14.2429
      vertex 10.7341 -4 14.2429
    endloop
  endfacet
  facet normal 0.654861 0 -0.755749
    outer loop
      vertex 10.7341 0 14.2429
      vertex 9.3501 -4 13.0437
      vertex 9.3501 0 13.0437
    endloop
  endfacet
  facet normal -0.841253 0 -0.540641
    outer loop
      vertex 5.8717 -4 13.5438
      vertex 4.88165 0 15.0844
      vertex 5.8717 0 13.5438
    endloop
  endfacet
  facet normal -0.841253 -0 -0.540641
    outer loop
      vertex 4.88165 0 15.0844
      vertex 5.8717 -4 13.5438
      vertex 4.88165 -4 15.0844
    endloop
  endfacet
  facet normal -0.841253 0 0.540641
    outer loop
      vertex 4.88165 -4 16.9156
      vertex 5.8717 0 18.4562
      vertex 4.88165 0 16.9156
    endloop
  endfacet
  facet normal -0.841253 0 0.540641
    outer loop
      vertex 5.8717 0 18.4562
      vertex 4.88165 -4 16.9156
      vertex 5.8717 -4 18.4562
    endloop
  endfacet
  facet normal -0.415415 0 0.909632
    outer loop
      vertex 5.8717 0 18.4562
      vertex 7.53748 -4 19.2169
      vertex 7.53748 0 19.2169
    endloop
  endfacet
  facet normal -0.415415 0 0.909632
    outer loop
      vertex 7.53748 -4 19.2169
      vertex 5.8717 0 18.4562
      vertex 5.8717 -4 18.4562
    endloop
  endfacet
  facet normal 0.959493 0 -0.281733
    outer loop
      vertex 11.25 -4 16
      vertex 10.7341 0 14.2429
      vertex 11.25 0 16
    endloop
  endfacet
  facet normal 0.959493 0 -0.281733
    outer loop
      vertex 10.7341 0 14.2429
      vertex 11.25 -4 16
      vertex 10.7341 -4 14.2429
    endloop
  endfacet
  facet normal -0.415415 0 -0.909632
    outer loop
      vertex 5.8717 -4 13.5438
      vertex 7.53748 0 12.7831
      vertex 7.53748 -4 12.7831
    endloop
  endfacet
  facet normal -0.415415 0 -0.909632
    outer loop
      vertex 7.53748 0 12.7831
      vertex 5.8717 -4 13.5438
      vertex 5.8717 0 13.5438
    endloop
  endfacet
  facet normal -0.923879 0 -0.382684
    outer loop
      vertex 10.4 -4 16
      vertex 9.69706 0 17.6971
      vertex 10.4 0 16
    endloop
  endfacet
  facet normal -0.923879 -0 -0.382684
    outer loop
      vertex 9.69706 0 17.6971
      vertex 10.4 -4 16
      vertex 9.69706 -4 17.6971
    endloop
  endfacet
  facet normal 0.923879 0 -0.382684
    outer loop
      vertex 6.30294 -4 17.6971
      vertex 5.6 0 16
      vertex 6.30294 0 17.6971
    endloop
  endfacet
  facet normal 0.923879 0 -0.382684
    outer loop
      vertex 5.6 0 16
      vertex 6.30294 -4 17.6971
      vertex 5.6 -4 16
    endloop
  endfacet
  facet normal -0.382684 0 -0.923879
    outer loop
      vertex 8 -4 18.4
      vertex 9.69706 0 17.6971
      vertex 9.69706 -4 17.6971
    endloop
  endfacet
  facet normal -0.382684 0 -0.923879
    outer loop
      vertex 9.69706 0 17.6971
      vertex 8 -4 18.4
      vertex 8 0 18.4
    endloop
  endfacet
  facet normal 0.382684 0 -0.923879
    outer loop
      vertex 6.30294 -4 17.6971
      vertex 8 0 18.4
      vertex 8 -4 18.4
    endloop
  endfacet
  facet normal 0.382684 0 -0.923879
    outer loop
      vertex 8 0 18.4
      vertex 6.30294 -4 17.6971
      vertex 6.30294 0 17.6971
    endloop
  endfacet
  facet normal -0.382684 0 0.923879
    outer loop
      vertex 8 0 13.6
      vertex 9.69706 -4 14.3029
      vertex 9.69706 0 14.3029
    endloop
  endfacet
  facet normal -0.382684 0 0.923879
    outer loop
      vertex 9.69706 -4 14.3029
      vertex 8 0 13.6
      vertex 8 -4 13.6
    endloop
  endfacet
  facet normal 0.923879 -0 0.382684
    outer loop
      vertex 5.6 -4 16
      vertex 6.30294 0 14.3029
      vertex 5.6 0 16
    endloop
  endfacet
  facet normal 0.923879 0 0.382684
    outer loop
      vertex 6.30294 0 14.3029
      vertex 5.6 -4 16
      vertex 6.30294 -4 14.3029
    endloop
  endfacet
  facet normal -0.923879 0 0.382684
    outer loop
      vertex 9.69706 -4 14.3029
      vertex 10.4 0 16
      vertex 9.69706 0 14.3029
    endloop
  endfacet
  facet normal -0.923879 0 0.382684
    outer loop
      vertex 10.4 0 16
      vertex 9.69706 -4 14.3029
      vertex 10.4 -4 16
    endloop
  endfacet
  facet normal 0.382684 0 0.923879
    outer loop
      vertex 6.30294 0 14.3029
      vertex 8 -4 13.6
      vertex 8 0 13.6
    endloop
  endfacet
  facet normal 0.382684 0 0.923879
    outer loop
      vertex 8 -4 13.6
      vertex 6.30294 0 14.3029
      vertex 6.30294 -4 14.3029
    endloop
  endfacet
  facet normal 0.959493 -0 0.281733
    outer loop
      vertex 18.7341 -4 9.75708
      vertex 19.25 0 8
      vertex 18.7341 0 9.75708
    endloop
  endfacet
  facet normal 0.959493 0 0.281733
    outer loop
      vertex 19.25 0 8
      vertex 18.7341 -4 9.75708
      vertex 19.25 -4 8
    endloop
  endfacet
  facet normal -1 0 0
    outer loop
      vertex 12.8816 -4 7.08437
      vertex 12.8816 0 8.91563
      vertex 12.8816 0 7.08437
    endloop
  endfacet
  facet normal -1 -0 0
    outer loop
      vertex 12.8816 0 8.91563
      vertex 12.8816 -4 7.08437
      vertex 12.8816 -4 8.91563
    endloop
  endfacet
  facet normal 0.142315 0 0.989821
    outer loop
      vertex 15.5375 0 11.2169
      vertex 17.3501 -4 10.9563
      vertex 17.3501 0 10.9563
    endloop
  endfacet
  facet normal 0.142315 0 0.989821
    outer loop
      vertex 17.3501 -4 10.9563
      vertex 15.5375 0 11.2169
      vertex 15.5375 -4 11.2169
    endloop
  endfacet
  facet normal 0.654861 0 0.75575
    outer loop
      vertex 17.3501 0 10.9563
      vertex 18.7341 -4 9.75708
      vertex 18.7341 0 9.75708
    endloop
  endfacet
  facet normal 0.654861 0 0.75575
    outer loop
      vertex 18.7341 -4 9.75708
      vertex 17.3501 0 10.9563
      vertex 17.3501 -4 10.9563
    endloop
  endfacet
  facet normal 0 -1 -0
    outer loop
      vertex 15.5375 -4 11.2169
      vertex 14.3029 -4 9.69706
      vertex 16 -4 10.4
    endloop
  endfacet
  facet normal 0 -1 0
    outer loop
      vertex 12.8816 -4 8.91563
      vertex 14.3029 -4 9.69706
      vertex 13.8717 -4 10.4562
    endloop
  endfacet
  facet normal 0 -1 0
    outer loop
      vertex 12.8816 -4 8.91563
      vertex 13.6 -4 8
      vertex 14.3029 -4 9.69706
    endloop
  endfacet
  facet normal 0 -1 0
    outer loop
      vertex 12.8816 -4 7.08437
      vertex 13.6 -4 8
      vertex 12.8816 -4 8.91563
    endloop
  endfacet
  facet normal 0 -1 0
    outer loop
      vertex 12.8816 -4 7.08437
      vertex 14.3029 -4 6.30294
      vertex 13.6 -4 8
    endloop
  endfacet
  facet normal 0 -1 0
    outer loop
      vertex 15.5375 -4 4.78308
      vertex 14.3029 -4 6.30294
      vertex 13.8717 -4 5.54381
    endloop
  endfacet
  facet normal 0 -1 0
    outer loop
      vertex 13.8717 -4 5.54381
      vertex 14.3029 -4 6.30294
      vertex 12.8816 -4 7.08437
    endloop
  endfacet
  facet normal 0 -1 0
    outer loop
      vertex 14.3029 -4 9.69706
      vertex 15.5375 -4 11.2169
      vertex 13.8717 -4 10.4562
    endloop
  endfacet
  facet normal 0 -1 0
    outer loop
      vertex 15.5375 -4 11.2169
      vertex 16 -4 10.4
      vertex 17.3501 -4 10.9563
    endloop
  endfacet
  facet normal 0 -1 0
    outer loop
      vertex 17.6971 -4 9.69706
      vertex 17.3501 -4 10.9563
      vertex 16 -4 10.4
    endloop
  endfacet
  facet normal 0 -1 0
    outer loop
      vertex 17.3501 -4 10.9563
      vertex 17.6971 -4 9.69706
      vertex 18.7341 -4 9.75708
    endloop
  endfacet
  facet normal 0 -1 0
    outer loop
      vertex 18.4 -4 8
      vertex 18.7341 -4 9.75708
      vertex 17.6971 -4 9.69706
    endloop
  endfacet
  facet normal 0 -1 0
    outer loop
      vertex 18.4 -4 8
      vertex 19.25 -4 8
      vertex 18.7341 -4 9.75708
    endloop
  endfacet
  facet normal 0 -1 0
    outer loop
      vertex 18.7341 -4 6.24292
      vertex 18.4 -4 8
      vertex 17.6971 -4 6.30294
    endloop
  endfacet
  facet normal 0 -1 0
    outer loop
      vertex 18.4 -4 8
      vertex 18.7341 -4 6.24292
      vertex 19.25 -4 8
    endloop
  endfacet
  facet normal 0 -1 0
    outer loop
      vertex 17.3501 -4 5.0437
      vertex 17.6971 -4 6.30294
      vertex 16 -4 5.6
    endloop
  endfacet
  facet normal 0 -1 -0
    outer loop
      vertex 17.6971 -4 6.30294
      vertex 17.3501 -4 5.0437
      vertex 18.7341 -4 6.24292
    endloop
  endfacet
  facet normal 0 -1 0
    outer loop
      vertex 14.3029 -4 6.30294
      vertex 15.5375 -4 4.78308
      vertex 16 -4 5.6
    endloop
  endfacet
  facet normal 0 -1 -0
    outer loop
      vertex 16 -4 5.6
      vertex 15.5375 -4 4.78308
      vertex 17.3501 -4 5.0437
    endloop
  endfacet
  facet normal 0.142315 0 -0.989821
    outer loop
      vertex 15.5375 -4 4.78308
      vertex 17.3501 0 5.0437
      vertex 17.3501 -4 5.0437
    endloop
  endfacet
  facet normal 0.142315 0 -0.989821
    outer loop
      vertex 17.3501 0 5.0437
      vertex 15.5375 -4 4.78308
      vertex 15.5375 0 4.78308
    endloop
  endfacet
  facet normal 0.654861 0 -0.75575
    outer loop
      vertex 17.3501 -4 5.0437
      vertex 18.7341 0 6.24292
      vertex 18.7341 -4 6.24292
    endloop
  endfacet
  facet normal 0.654861 0 -0.75575
    outer loop
      vertex 18.7341 0 6.24292
      vertex 17.3501 -4 5.0437
      vertex 17.3501 0 5.0437
    endloop
  endfacet
  facet normal -0.841253 0 -0.540641
    outer loop
      vertex 13.8717 -4 5.54381
      vertex 12.8816 0 7.08437
      vertex 13.8717 0 5.54381
    endloop
  endfacet
  facet normal -0.841253 -0 -0.540641
    outer loop
      vertex 12.8816 0 7.08437
      vertex 13.8717 -4 5.54381
      vertex 12.8816 -4 7.08437
    endloop
  endfacet
  facet normal -0.841253 0 0.540641
    outer loop
      vertex 12.8816 -4 8.91563
      vertex 13.8717 0 10.4562
      vertex 12.8816 0 8.91563
    endloop
  endfacet
  facet normal -0.841253 0 0.540641
    outer loop
      vertex 13.8717 0 10.4562
      vertex 12.8816 -4 8.91563
      vertex 13.8717 -4 10.4562
    endloop
  endfacet
  facet normal -0.415415 0 0.909632
    outer loop
      vertex 13.8717 0 10.4562
      vertex 15.5375 -4 11.2169
      vertex 15.5375 0 11.2169
    endloop
  endfacet
  facet normal -0.415415 0 0.909632
    outer loop
      vertex 15.5375 -4 11.2169
      vertex 13.8717 0 10.4562
      vertex 13.8717 -4 10.4562
    endloop
  endfacet
  facet normal 0.959493 0 -0.281733
    outer loop
      vertex 19.25 -4 8
      vertex 18.7341 0 6.24292
      vertex 19.25 0 8
    endloop
  endfacet
  facet normal 0.959493 0 -0.281733
    outer loop
      vertex 18.7341 0 6.24292
      vertex 19.25 -4 8
      vertex 18.7341 -4 6.24292
    endloop
  endfacet
  facet normal -0.415415 0 -0.909632
    outer loop
      vertex 13.8717 -4 5.54381
      vertex 15.5375 0 4.78308
      vertex 15.5375 -4 4.78308
    endloop
  endfacet
  facet normal -0.415415 0 -0.909632
    outer loop
      vertex 15.5375 0 4.78308
      vertex 13.8717 -4 5.54381
      vertex 13.8717 0 5.54381
    endloop
  endfacet
  facet normal -0.923879 0 -0.382684
    outer loop
      vertex 18.4 -4 8
      vertex 17.6971 0 9.69706
      vertex 18.4 0 8
    endloop
  endfacet
  facet normal -0.923879 -0 -0.382684
    outer loop
      vertex 17.6971 0 9.69706
      vertex 18.4 -4 8
      vertex 17.6971 -4 9.69706
    endloop
  endfacet
  facet normal 0.923879 0 -0.382684
    outer loop
      vertex 14.3029 -4 9.69706
      vertex 13.6 0 8
      vertex 14.3029 0 9.69706
    endloop
  endfacet
  facet normal 0.923879 0 -0.382684
    outer loop
      vertex 13.6 0 8
      vertex 14.3029 -4 9.69706
      vertex 13.6 -4 8
    endloop
  endfacet
  facet normal -0.382684 0 -0.923879
    outer loop
      vertex 16 -4 10.4
      vertex 17.6971 0 9.69706
      vertex 17.6971 -4 9.69706
    endloop
  endfacet
  facet normal -0.382684 0 -0.923879
    outer loop
      vertex 17.6971 0 9.69706
      vertex 16 -4 10.4
      vertex 16 0 10.4
    endloop
  endfacet
  facet normal 0.382684 0 -0.923879
    outer loop
      vertex 14.3029 -4 9.69706
      vertex 16 0 10.4
      vertex 16 -4 10.4
    endloop
  endfacet
  facet normal 0.382684 0 -0.923879
    outer loop
      vertex 16 0 10.4
      vertex 14.3029 -4 9.69706
      vertex 14.3029 0 9.69706
    endloop
  endfacet
  facet normal -0.382684 0 0.923879
    outer loop
      vertex 16 0 5.6
      vertex 17.6971 -4 6.30294
      vertex 17.6971 0 6.30294
    endloop
  endfacet
  facet normal -0.382684 0 0.923879
    outer loop
      vertex 17.6971 -4 6.30294
      vertex 16 0 5.6
      vertex 16 -4 5.6
    endloop
  endfacet
  facet normal 0.923879 -0 0.382684
    outer loop
      vertex 13.6 -4 8
      vertex 14.3029 0 6.30294
      vertex 13.6 0 8
    endloop
  endfacet
  facet normal 0.923879 0 0.382684
    outer loop
      vertex 14.3029 0 6.30294
      vertex 13.6 -4 8
      vertex 14.3029 -4 6.30294
    endloop
  endfacet
  facet normal -0.923879 0 0.382684
    outer loop
      vertex 17.6971 -4 6.30294
      vertex 18.4 0 8
      vertex 17.6971 0 6.30294
    endloop
  endfacet
  facet normal -0.923879 0 0.382684
    outer loop
      vertex 18.4 0 8
      vertex 17.6971 -4 6.30294
      vertex 18.4 -4 8
    endloop
  endfacet
  facet normal 0.382684 0 0.923879
    outer loop
      vertex 14.3029 0 6.30294
      vertex 16 -4 5.6
      vertex 16 0 5.6
    endloop
  endfacet
  facet normal 0.382684 0 0.923879
    outer loop
      vertex 16 -4 5.6
      vertex 14.3029 0 6.30294
      vertex 14.3029 -4 6.30294
    endloop
  endfacet
  facet normal 0.959493 -0 0.281733
    outer loop
      vertex 18.7341 -4 17.7571
      vertex 19.25 0 16
      vertex 18.7341 0 17.7571
    endloop
  endfacet
  facet normal 0.959493 0 0.281733
    outer loop
      vertex 19.25 0 16
      vertex 18.7341 -4 17.7571
      vertex 19.25 -4 16
    endloop
  endfacet
  facet normal -1 0 0
    outer loop
      vertex 12.8816 -4 15.0844
      vertex 12.8816 0 16.9156
      vertex 12.8816 0 15.0844
    endloop
  endfacet
  facet normal -1 -0 0
    outer loop
      vertex 12.8816 0 16.9156
      vertex 12.8816 -4 15.0844
      vertex 12.8816 -4 16.9156
    endloop
  endfacet
  facet normal 0.142315 0 0.989821
    outer loop
      vertex 15.5375 0 19.2169
      vertex 17.3501 -4 18.9563
      vertex 17.3501 0 18.9563
    endloop
  endfacet
  facet normal 0.142315 0 0.989821
    outer loop
      vertex 17.3501 -4 18.9563
      vertex 15.5375 0 19.2169
      vertex 15.5375 -4 19.2169
    endloop
  endfacet
  facet normal 0.65486 0 0.75575
    outer loop
      vertex 17.3501 0 18.9563
      vertex 18.7341 -4 17.7571
      vertex 18.7341 0 17.7571
    endloop
  endfacet
  facet normal 0.65486 0 0.75575
    outer loop
      vertex 18.7341 -4 17.7571
      vertex 17.3501 0 18.9563
      vertex 17.3501 -4 18.9563
    endloop
  endfacet
  facet normal 0 -1 -0
    outer loop
      vertex 15.5375 -4 19.2169
      vertex 14.3029 -4 17.6971
      vertex 16 -4 18.4
    endloop
  endfacet
  facet normal 0 -1 0
    outer loop
      vertex 12.8816 -4 16.9156
      vertex 14.3029 -4 17.6971
      vertex 13.8717 -4 18.4562
    endloop
  endfacet
  facet normal 0 -1 0
    outer loop
      vertex 12.8816 -4 16.9156
      vertex 13.6 -4 16
      vertex 14.3029 -4 17.6971
    endloop
  endfacet
  facet normal 0 -1 0
    outer loop
      vertex 12.8816 -4 15.0844
      vertex 13.6 -4 16
      vertex 12.8816 -4 16.9156
    endloop
  endfacet
  facet normal 0 -1 0
    outer loop
      vertex 12.8816 -4 15.0844
      vertex 14.3029 -4 14.3029
      vertex 13.6 -4 16
    endloop
  endfacet
  facet normal 0 -1 0
    outer loop
      vertex 15.5375 -4 12.7831
      vertex 14.3029 -4 14.3029
      vertex 13.8717 -4 13.5438
    endloop
  endfacet
  facet normal 0 -1 0
    outer loop
      vertex 13.8717 -4 13.5438
      vertex 14.3029 -4 14.3029
      vertex 12.8816 -4 15.0844
    endloop
  endfacet
  facet normal 0 -1 0
    outer loop
      vertex 14.3029 -4 17.6971
      vertex 15.5375 -4 19.2169
      vertex 13.8717 -4 18.4562
    endloop
  endfacet
  facet normal 0 -1 0
    outer loop
      vertex 15.5375 -4 19.2169
      vertex 16 -4 18.4
      vertex 17.3501 -4 18.9563
    endloop
  endfacet
  facet normal 0 -1 0
    outer loop
      vertex 17.6971 -4 17.6971
      vertex 17.3501 -4 18.9563
      vertex 16 -4 18.4
    endloop
  endfacet
  facet normal 0 -1 0
    outer loop
      vertex 17.3501 -4 18.9563
      vertex 17.6971 -4 17.6971
      vertex 18.7341 -4 17.7571
    endloop
  endfacet
  facet normal 0 -1 0
    outer loop
      vertex 18.4 -4 16
      vertex 18.7341 -4 17.7571
      vertex 17.6971 -4 17.6971
    endloop
  endfacet
  facet normal 0 -1 0
    outer loop
      vertex 18.4 -4 16
      vertex 19.25 -4 16
      vertex 18.7341 -4 17.7571
    endloop
  endfacet
  facet normal 0 -1 0
    outer loop
      vertex 18.7341 -4 14.2429
      vertex 18.4 -4 16
      vertex 17.6971 -4 14.3029
    endloop
  endfacet
  facet normal 0 -1 0
    outer loop
      vertex 18.4 -4 16
      vertex 18.7341 -4 14.2429
      vertex 19.25 -4 16
    endloop
  endfacet
  facet normal 0 -1 0
    outer loop
      vertex 17.3501 -4 13.0437
      vertex 17.6971 -4 14.3029
      vertex 16 -4 13.6
    endloop
  endfacet
  facet normal 0 -1 -0
    outer loop
      vertex 17.6971 -4 14.3029
      vertex 17.3501 -4 13.0437
      vertex 18.7341 -4 14.2429
    endloop
  endfacet
  facet normal 0 -1 0
    outer loop
      vertex 14.3029 -4 14.3029
      vertex 15.5375 -4 12.7831
      vertex 16 -4 13.6
    endloop
  endfacet
  facet normal 0 -1 -0
    outer loop
      vertex 16 -4 13.6
      vertex 15.5375 -4 12.7831
      vertex 17.3501 -4 13.0437
    endloop
  endfacet
  facet normal 0.142315 0 -0.989821
    outer loop
      vertex 15.5375 -4 12.7831
      vertex 17.3501 0 13.0437
      vertex 17.3501 -4 13.0437
    endloop
  endfacet
  facet normal 0.142315 0 -0.989821
    outer loop
      vertex 17.3501 0 13.0437
      vertex 15.5375 -4 12.7831
      vertex 15.5375 0 12.7831
    endloop
  endfacet
  facet normal 0.654861 0 -0.75575
    outer loop
      vertex 17.3501 -4 13.0437
      vertex 18.7341 0 14.2429
      vertex 18.7341 -4 14.2429
    endloop
  endfacet
  facet normal 0.654861 0 -0.75575
    outer loop
      vertex 18.7341 0 14.2429
      vertex 17.3501 -4 13.0437
      vertex 17.3501 0 13.0437
    endloop
  endfacet
  facet normal -0.841253 0 -0.540641
    outer loop
      vertex 13.8717 -4 13.5438
      vertex 12.8816 0 15.0844
      vertex 13.8717 0 13.5438
    endloop
  endfacet
  facet normal -0.841253 -0 -0.540641
    outer loop
      vertex 12.8816 0 15.0844
      vertex 13.8717 -4 13.5438
      vertex 12.8816 -4 15.0844
    endloop
  endfacet
  facet normal -0.841253 0 0.540641
    outer loop
      vertex 12.8816 -4 16.9156
      vertex 13.8717 0 18.4562
      vertex 12.8816 0 16.9156
    endloop
  endfacet
  facet normal -0.841253 0 0.540641
    outer loop
      vertex 13.8717 0 18.4562
      vertex 12.8816 -4 16.9156
      vertex 13.8717 -4 18.4562
    endloop
  endfacet
  facet normal -0.415415 0 0.909632
    outer loop
      vertex 13.8717 0 18.4562
      vertex 15.5375 -4 19.2169
      vertex 15.5375 0 19.2169
    endloop
  endfacet
  facet normal -0.415415 0 0.909632
    outer loop
      vertex 15.5375 -4 19.2169
      vertex 13.8717 0 18.4562
      vertex 13.8717 -4 18.4562
    endloop
  endfacet
  facet normal 0.959493 0 -0.281733
    outer loop
      vertex 19.25 -4 16
      vertex 18.7341 0 14.2429
      vertex 19.25 0 16
    endloop
  endfacet
  facet normal 0.959493 0 -0.281733
    outer loop
      vertex 18.7341 0 14.2429
      vertex 19.25 -4 16
      vertex 18.7341 -4 14.2429
    endloop
  endfacet
  facet normal -0.415415 0 -0.909632
    outer loop
      vertex 13.8717 -4 13.5438
      vertex 15.5375 0 12.7831
      vertex 15.5375 -4 12.7831
    endloop
  endfacet
  facet normal -0.415415 0 -0.909632
    outer loop
      vertex 15.5375 0 12.7831
      vertex 13.8717 -4 13.5438
      vertex 13.8717 0 13.5438
    endloop
  endfacet
  facet normal -0.923879 0 -0.382684
    outer loop
      vertex 18.4 -4 16
      vertex 17.6971 0 17.6971
      vertex 18.4 0 16
    endloop
  endfacet
  facet normal -0.923879 -0 -0.382684
    outer loop
      vertex 17.6971 0 17.6971
      vertex 18.4 -4 16
      vertex 17.6971 -4 17.6971
    endloop
  endfacet
  facet normal 0.923879 0 -0.382684
    outer loop
      vertex 14.3029 -4 17.6971
      vertex 13.6 0 16
      vertex 14.3029 0 17.6971
    endloop
  endfacet
  facet normal 0.923879 0 -0.382684
    outer loop
      vertex 13.6 0 16
      vertex 14.3029 -4 17.6971
      vertex 13.6 -4 16
    endloop
  endfacet
  facet normal -0.382684 0 -0.923879
    outer loop
      vertex 16 -4 18.4
      vertex 17.6971 0 17.6971
      vertex 17.6971 -4 17.6971
    endloop
  endfacet
  facet normal -0.382684 0 -0.923879
    outer loop
      vertex 17.6971 0 17.6971
      vertex 16 -4 18.4
      vertex 16 0 18.4
    endloop
  endfacet
  facet normal 0.382684 0 -0.923879
    outer loop
      vertex 14.3029 -4 17.6971
      vertex 16 0 18.4
      vertex 16 -4 18.4
    endloop
  endfacet
  facet normal 0.382684 0 -0.923879
    outer loop
      vertex 16 0 18.4
      vertex 14.3029 -4 17.6971
      vertex 14.3029 0 17.6971
    endloop
  endfacet
  facet normal -0.382684 0 0.923879
    outer loop
      vertex 16 0 13.6
      vertex 17.6971 -4 14.3029
      vertex 17.6971 0 14.3029
    endloop
  endfacet
  facet normal -0.382684 0 0.923879
    outer loop
      vertex 17.6971 -4 14.3029
      vertex 16 0 13.6
      vertex 16 -4 13.6
    endloop
  endfacet
  facet normal 0.923879 -0 0.382684
    outer loop
      vertex 13.6 -4 16
      vertex 14.3029 0 14.3029
      vertex 13.6 0 16
    endloop
  endfacet
  facet normal 0.923879 0 0.382684
    outer loop
      vertex 14.3029 0 14.3029
      vertex 13.6 -4 16
      vertex 14.3029 -4 14.3029
    endloop
  endfacet
  facet normal -0.923879 0 0.382684
    outer loop
      vertex 17.6971 -4 14.3029
      vertex 18.4 0 16
      vertex 17.6971 0 14.3029
    endloop
  endfacet
  facet normal -0.923879 0 0.382684
    outer loop
      vertex 18.4 0 16
      vertex 17.6971 -4 14.3029
      vertex 18.4 -4 16
    endloop
  endfacet
  facet normal 0.382684 0 0.923879
    outer loop
      vertex 14.3029 0 14.3029
      vertex 16 -4 13.6
      vertex 16 0 13.6
    endloop
  endfacet
  facet normal 0.382684 0 0.923879
    outer loop
      vertex 16 -4 13.6
      vertex 14.3029 0 14.3029
      vertex 14.3029 -4 14.3029
    endloop
  endfacet
  facet normal -1 0 0
    outer loop
      vertex 4.5 0 4.5
      vertex 4.5 31 25.5
      vertex 4.5 31 4.5
    endloop
  endfacet
  facet normal -1 -0 0
    outer loop
      vertex 4.5 31 25.5
      vertex 4.5 0 4.5
      vertex 4.5 0 25.5
    endloop
  endfacet
  facet normal 0 0 1
    outer loop
      vertex 16.247 14.897 25.5
      vertex 25.5 31 25.5
      vertex 16.247 25.103 25.5
    endloop
  endfacet
  facet normal 0 0 1
    outer loop
      vertex 25.5 31 25.5
      vertex 16.247 14.897 25.5
      vertex 17 13.3333 25.5
    endloop
  endfacet
  facet normal -0 0 1
    outer loop
      vertex 14.555 24.7168 25.5
      vertex 16.247 14.897 25.5
      vertex 16.247 25.103 25.5
    endloop
  endfacet
  facet normal 0 0 1
    outer loop
      vertex 14.555 24.7168 25.5
      vertex 14.555 15.2832 25.5
      vertex 16.247 14.897 25.5
    endloop
  endfacet
  facet normal 0 0 1
    outer loop
      vertex 13.1981 25.7989 25.5
      vertex 14.555 15.2832 25.5
      vertex 14.555 24.7168 25.5
    endloop
  endfacet
  facet normal 0 0 1
    outer loop
      vertex 14.555 15.2832 25.5
      vertex 13.1981 25.7989 25.5
      vertex 13.1981 14.2011 25.5
    endloop
  endfacet
  facet normal 0 0 1
    outer loop
      vertex 16.247 25.103 25.5
      vertex 25.5 31 25.5
      vertex 17 26.6667 25.5
    endloop
  endfacet
  facet normal 0 0 1
    outer loop
      vertex 25.5 31 25.5
      vertex 16.247 28.2303 25.5
      vertex 17 26.6667 25.5
    endloop
  endfacet
  facet normal 0 0 1
    outer loop
      vertex 25.5 31 25.5
      vertex 14.555 28.6165 25.5
      vertex 16.247 28.2303 25.5
    endloop
  endfacet
  facet normal 0 0 1
    outer loop
      vertex 4.5 31 25.5
      vertex 13.1981 25.7989 25.5
      vertex 13.1981 27.5344 25.5
    endloop
  endfacet
  facet normal 0 0 1
    outer loop
      vertex 13.1981 25.7989 25.5
      vertex 4.5 31 25.5
      vertex 13.1981 14.2011 25.5
    endloop
  endfacet
  facet normal 0 0 1
    outer loop
      vertex 4.5 0 25.5
      vertex 13.1981 14.2011 25.5
      vertex 4.5 31 25.5
    endloop
  endfacet
  facet normal 0 0 1
    outer loop
      vertex 14.555 28.6165 25.5
      vertex 4.5 31 25.5
      vertex 13.1981 27.5344 25.5
    endloop
  endfacet
  facet normal -0 0 1
    outer loop
      vertex 4.5 31 25.5
      vertex 14.555 28.6165 25.5
      vertex 25.5 31 25.5
    endloop
  endfacet
  facet normal 0 0 1
    outer loop
      vertex 25.5 31 25.5
      vertex 17 13.3333 25.5
      vertex 25.5 0 25.5
    endloop
  endfacet
  facet normal -0 0 1
    outer loop
      vertex 16.247 11.7697 25.5
      vertex 25.5 0 25.5
      vertex 17 13.3333 25.5
    endloop
  endfacet
  facet normal -0 0 1
    outer loop
      vertex 14.555 11.3835 25.5
      vertex 25.5 0 25.5
      vertex 16.247 11.7697 25.5
    endloop
  endfacet
  facet normal 0 0 1
    outer loop
      vertex 4.5 0 25.5
      vertex 14.555 11.3835 25.5
      vertex 13.1981 12.4656 25.5
    endloop
  endfacet
  facet normal 0 0 1
    outer loop
      vertex 14.555 11.3835 25.5
      vertex 4.5 0 25.5
      vertex 25.5 0 25.5
    endloop
  endfacet
  facet normal 0 0 1
    outer loop
      vertex 13.1981 14.2011 25.5
      vertex 4.5 0 25.5
      vertex 13.1981 12.4656 25.5
    endloop
  endfacet
  facet normal 1 -0 0
    outer loop
      vertex 25.5 0 25.5
      vertex 25.5 31 4.5
      vertex 25.5 31 25.5
    endloop
  endfacet
  facet normal 1 0 0
    outer loop
      vertex 25.5 31 4.5
      vertex 25.5 0 25.5
      vertex 25.5 0 4.5
    endloop
  endfacet
  facet normal 0 0 -1
    outer loop
      vertex 16.247 25.103 4.5
      vertex 25.5 31 4.5
      vertex 16.247 14.897 4.5
    endloop
  endfacet
  facet normal 0 0 -1
    outer loop
      vertex 25.5 31 4.5
      vertex 16.247 25.103 4.5
      vertex 17 26.6667 4.5
    endloop
  endfacet
  facet normal 0 0 -1
    outer loop
      vertex 14.555 15.2832 4.5
      vertex 16.247 25.103 4.5
      vertex 16.247 14.897 4.5
    endloop
  endfacet
  facet normal 0 0 -1
    outer loop
      vertex 14.555 15.2832 4.5
      vertex 14.555 24.7168 4.5
      vertex 16.247 25.103 4.5
    endloop
  endfacet
  facet normal 0 0 -1
    outer loop
      vertex 13.1981 14.2011 4.5
      vertex 14.555 24.7168 4.5
      vertex 14.555 15.2832 4.5
    endloop
  endfacet
  facet normal -0 0 -1
    outer loop
      vertex 14.555 24.7168 4.5
      vertex 13.1981 14.2011 4.5
      vertex 13.1981 25.7989 4.5
    endloop
  endfacet
  facet normal 0 0 -1
    outer loop
      vertex 25.5 0 4.5
      vertex 17 13.3333 4.5
      vertex 25.5 31 4.5
    endloop
  endfacet
  facet normal 0 0 -1
    outer loop
      vertex 25.5 0 4.5
      vertex 16.247 11.7697 4.5
      vertex 17 13.3333 4.5
    endloop
  endfacet
  facet normal 0 0 -1
    outer loop
      vertex 25.5 0 4.5
      vertex 14.555 11.3835 4.5
      vertex 16.247 11.7697 4.5
    endloop
  endfacet
  facet normal 0 0 -1
    outer loop
      vertex 4.5 0 4.5
      vertex 14.555 11.3835 4.5
      vertex 25.5 0 4.5
    endloop
  endfacet
  facet normal 0 0 -1
    outer loop
      vertex 4.5 0 4.5
      vertex 13.1981 14.2011 4.5
      vertex 13.1981 12.4656 4.5
    endloop
  endfacet
  facet normal 0 0 -1
    outer loop
      vertex 13.1981 14.2011 4.5
      vertex 4.5 31 4.5
      vertex 13.1981 25.7989 4.5
    endloop
  endfacet
  facet normal -0 0 -1
    outer loop
      vertex 13.1981 14.2011 4.5
      vertex 4.5 0 4.5
      vertex 4.5 31 4.5
    endloop
  endfacet
  facet normal -0 0 -1
    outer loop
      vertex 14.555 11.3835 4.5
      vertex 4.5 0 4.5
      vertex 13.1981 12.4656 4.5
    endloop
  endfacet
  facet normal 0 0 -1
    outer loop
      vertex 16.247 14.897 4.5
      vertex 25.5 31 4.5
      vertex 17 13.3333 4.5
    endloop
  endfacet
  facet normal 0 0 -1
    outer loop
      vertex 16.247 28.2303 4.5
      vertex 25.5 31 4.5
      vertex 17 26.6667 4.5
    endloop
  endfacet
  facet normal 0 0 -1
    outer loop
      vertex 14.555 28.6165 4.5
      vertex 25.5 31 4.5
      vertex 16.247 28.2303 4.5
    endloop
  endfacet
  facet normal 0 0 -1
    outer loop
      vertex 14.555 28.6165 4.5
      vertex 4.5 31 4.5
      vertex 25.5 31 4.5
    endloop
  endfacet
  facet normal 0 0 -1
    outer loop
      vertex 13.1981 27.5344 4.5
      vertex 4.5 31 4.5
      vertex 14.555 28.6165 4.5
    endloop
  endfacet
  facet normal 0 0 -1
    outer loop
      vertex 13.1981 25.7989 4.5
      vertex 4.5 31 4.5
      vertex 13.1981 27.5344 4.5
    endloop
  endfacet
  facet normal 0 -1 0
    outer loop
      vertex 10.7341 0 14.2429
      vertex 10.7341 0 9.75708
      vertex 13.8717 0 13.5438
    endloop
  endfacet
  facet normal 0 -1 0
    outer loop
      vertex 13.8717 0 13.5438
      vertex 13.8717 0 10.4562
      vertex 15.5375 0 11.2169
    endloop
  endfacet
  facet normal 0 -1 -0
    outer loop
      vertex 13.8717 0 13.5438
      vertex 10.7341 0 9.75708
      vertex 13.8717 0 10.4562
    endloop
  endfacet
  facet normal 0 -1 0
    outer loop
      vertex 10.7341 0 9.75708
      vertex 12.8816 0 8.91563
      vertex 13.8717 0 10.4562
    endloop
  endfacet
  facet normal 0 -1 0
    outer loop
      vertex 11.25 0 8
      vertex 12.8816 0 8.91563
      vertex 10.7341 0 9.75708
    endloop
  endfacet
  facet normal 0 -1 0
    outer loop
      vertex 11.25 0 8
      vertex 12.8816 0 7.08437
      vertex 12.8816 0 8.91563
    endloop
  endfacet
  facet normal 0 -1 0
    outer loop
      vertex 10.7341 0 6.24292
      vertex 12.8816 0 7.08437
      vertex 11.25 0 8
    endloop
  endfacet
  facet normal 0 -1 0
    outer loop
      vertex 10.7341 0 6.24292
      vertex 13.8717 0 5.54381
      vertex 12.8816 0 7.08437
    endloop
  endfacet
  facet normal 0 -1 0
    outer loop
      vertex 9.3501 0 5.0437
      vertex 13.8717 0 5.54381
      vertex 10.7341 0 6.24292
    endloop
  endfacet
  facet normal 0 -1 0
    outer loop
      vertex 15.5375 0 4.78308
      vertex 9.3501 0 5.0437
      vertex 7.53748 0 4.78308
    endloop
  endfacet
  facet normal 0 -1 0
    outer loop
      vertex 9.3501 0 5.0437
      vertex 15.5375 0 4.78308
      vertex 13.8717 0 5.54381
    endloop
  endfacet
  facet normal 0 -1 0
    outer loop
      vertex 4.5 0 25.5
      vertex 9.3501 0 18.9563
      vertex 15.5375 0 19.2169
    endloop
  endfacet
  facet normal 0 -1 0
    outer loop
      vertex 9.3501 0 18.9563
      vertex 13.8717 0 18.4562
      vertex 15.5375 0 19.2169
    endloop
  endfacet
  facet normal 0 -1 0
    outer loop
      vertex 10.7341 0 17.7571
      vertex 13.8717 0 18.4562
      vertex 9.3501 0 18.9563
    endloop
  endfacet
  facet normal 0 -1 0
    outer loop
      vertex 10.7341 0 17.7571
      vertex 12.8816 0 16.9156
      vertex 13.8717 0 18.4562
    endloop
  endfacet
  facet normal 0 -1 0
    outer loop
      vertex 11.25 0 16
      vertex 12.8816 0 16.9156
      vertex 10.7341 0 17.7571
    endloop
  endfacet
  facet normal 0 -1 0
    outer loop
      vertex 11.25 0 16
      vertex 12.8816 0 15.0844
      vertex 12.8816 0 16.9156
    endloop
  endfacet
  facet normal 0 -1 0
    outer loop
      vertex 10.7341 0 14.2429
      vertex 12.8816 0 15.0844
      vertex 11.25 0 16
    endloop
  endfacet
  facet normal 0 -1 0
    outer loop
      vertex 10.7341 0 14.2429
      vertex 13.8717 0 13.5438
      vertex 12.8816 0 15.0844
    endloop
  endfacet
  facet normal 0 -1 0
    outer loop
      vertex 9.3501 0 10.9563
      vertex 10.7341 0 14.2429
      vertex 9.3501 0 13.0437
    endloop
  endfacet
  facet normal 0 -1 0
    outer loop
      vertex 7.53748 0 11.2169
      vertex 9.3501 0 13.0437
      vertex 7.53748 0 12.7831
    endloop
  endfacet
  facet normal 0 -1 0
    outer loop
      vertex 9.3501 0 10.9563
      vertex 9.3501 0 13.0437
      vertex 7.53748 0 11.2169
    endloop
  endfacet
  facet normal 0 -1 0
    outer loop
      vertex 9.3501 0 18.9563
      vertex 4.5 0 25.5
      vertex 7.53748 0 19.2169
    endloop
  endfacet
  facet normal 0 -1 0
    outer loop
      vertex 4.5 0 25.5
      vertex 5.8717 0 18.4562
      vertex 7.53748 0 19.2169
    endloop
  endfacet
  facet normal 0 -1 0
    outer loop
      vertex 4.5 0 25.5
      vertex 4.88165 0 16.9156
      vertex 5.8717 0 18.4562
    endloop
  endfacet
  facet normal 0 -1 0
    outer loop
      vertex 4.5 0 25.5
      vertex 4.88165 0 15.0844
      vertex 4.88165 0 16.9156
    endloop
  endfacet
  facet normal 0 -1 0
    outer loop
      vertex 10.7341 0 9.75708
      vertex 10.7341 0 14.2429
      vertex 9.3501 0 10.9563
    endloop
  endfacet
  facet normal 0 -1 0
    outer loop
      vertex 5.8717 0 13.5438
      vertex 7.53748 0 11.2169
      vertex 7.53748 0 12.7831
    endloop
  endfacet
  facet normal 0 -1 0
    outer loop
      vertex 5.8717 0 13.5438
      vertex 5.8717 0 10.4562
      vertex 7.53748 0 11.2169
    endloop
  endfacet
  facet normal 0 -1 0
    outer loop
      vertex 4.88165 0 15.0844
      vertex 5.8717 0 10.4562
      vertex 5.8717 0 13.5438
    endloop
  endfacet
  facet normal 0 -1 0
    outer loop
      vertex 4.88165 0 15.0844
      vertex 4.88165 0 8.91563
      vertex 5.8717 0 10.4562
    endloop
  endfacet
  facet normal 0 -1 0
    outer loop
      vertex 4.5 0 4.5
      vertex 4.88165 0 15.0844
      vertex 4.5 0 25.5
    endloop
  endfacet
  facet normal 0 -1 -0
    outer loop
      vertex 4.88165 0 15.0844
      vertex 4.5 0 4.5
      vertex 4.88165 0 8.91563
    endloop
  endfacet
  facet normal 0 -1 -0
    outer loop
      vertex 7.53748 0 4.78308
      vertex 4.5 0 4.5
      vertex 15.5375 0 4.78308
    endloop
  endfacet
  facet normal 0 -1 -0
    outer loop
      vertex 5.8717 0 5.54381
      vertex 4.5 0 4.5
      vertex 7.53748 0 4.78308
    endloop
  endfacet
  facet normal 0 -1 -0
    outer loop
      vertex 4.88165 0 7.08437
      vertex 4.5 0 4.5
      vertex 5.8717 0 5.54381
    endloop
  endfacet
  facet normal 0 -1 -0
    outer loop
      vertex 4.88165 0 8.91563
      vertex 4.5 0 4.5
      vertex 4.88165 0 7.08437
    endloop
  endfacet
  facet normal 0 -1 0
    outer loop
      vertex 4.5 0 25.5
      vertex 15.5375 0 19.2169
      vertex 25.5 0 25.5
    endloop
  endfacet
  facet normal 0 -1 0
    outer loop
      vertex 17.3501 0 18.9563
      vertex 25.5 0 25.5
      vertex 15.5375 0 19.2169
    endloop
  endfacet
  facet normal 0 -1 0
    outer loop
      vertex 18.7341 0 17.7571
      vertex 25.5 0 25.5
      vertex 17.3501 0 18.9563
    endloop
  endfacet
  facet normal 0 -1 0
    outer loop
      vertex 19.25 0 16
      vertex 25.5 0 25.5
      vertex 18.7341 0 17.7571
    endloop
  endfacet
  facet normal 0 -1 0
    outer loop
      vertex 25.5 0 4.5
      vertex 19.25 0 16
      vertex 18.7341 0 14.2429
    endloop
  endfacet
  facet normal 0 -1 0
    outer loop
      vertex 13.8717 0 13.5438
      vertex 15.5375 0 11.2169
      vertex 15.5375 0 12.7831
    endloop
  endfacet
  facet normal 0 -1 0
    outer loop
      vertex 15.5375 0 12.7831
      vertex 15.5375 0 11.2169
      vertex 17.3501 0 13.0437
    endloop
  endfacet
  facet normal 0 -1 0
    outer loop
      vertex 17.3501 0 10.9563
      vertex 17.3501 0 13.0437
      vertex 15.5375 0 11.2169
    endloop
  endfacet
  facet normal 0 -1 0
    outer loop
      vertex 17.3501 0 13.0437
      vertex 17.3501 0 10.9563
      vertex 18.7341 0 14.2429
    endloop
  endfacet
  facet normal 0 -1 0
    outer loop
      vertex 18.7341 0 9.75708
      vertex 18.7341 0 14.2429
      vertex 17.3501 0 10.9563
    endloop
  endfacet
  facet normal 0 -1 0
    outer loop
      vertex 25.5 0 4.5
      vertex 18.7341 0 14.2429
      vertex 18.7341 0 9.75708
    endloop
  endfacet
  facet normal 0 -1 0
    outer loop
      vertex 25.5 0 4.5
      vertex 18.7341 0 9.75708
      vertex 19.25 0 8
    endloop
  endfacet
  facet normal 0 -1 0
    outer loop
      vertex 25.5 0 4.5
      vertex 19.25 0 8
      vertex 18.7341 0 6.24292
    endloop
  endfacet
  facet normal 0 -1 0
    outer loop
      vertex 19.25 0 16
      vertex 25.5 0 4.5
      vertex 25.5 0 25.5
    endloop
  endfacet
  facet normal 0 -1 0
    outer loop
      vertex 17.3501 0 5.0437
      vertex 25.5 0 4.5
      vertex 18.7341 0 6.24292
    endloop
  endfacet
  facet normal 0 -1 0
    outer loop
      vertex 15.5375 0 4.78308
      vertex 25.5 0 4.5
      vertex 17.3501 0 5.0437
    endloop
  endfacet
  facet normal 0 -1 0
    outer loop
      vertex 25.5 0 4.5
      vertex 15.5375 0 4.78308
      vertex 4.5 0 4.5
    endloop
  endfacet
  facet normal 0 -1 0
    outer loop
      vertex 6.30294 0 9.69706
      vertex 9.69706 0 9.69706
      vertex 8 0 10.4
    endloop
  endfacet
  facet normal 0 -1 0
    outer loop
      vertex 5.6 0 8
      vertex 9.69706 0 9.69706
      vertex 6.30294 0 9.69706
    endloop
  endfacet
  facet normal 0 -1 0
    outer loop
      vertex 5.6 0 8
      vertex 10.4 0 8
      vertex 9.69706 0 9.69706
    endloop
  endfacet
  facet normal 0 -1 0
    outer loop
      vertex 6.30294 0 6.30294
      vertex 10.4 0 8
      vertex 5.6 0 8
    endloop
  endfacet
  facet normal 0 -1 0
    outer loop
      vertex 6.30294 0 6.30294
      vertex 9.69706 0 6.30294
      vertex 10.4 0 8
    endloop
  endfacet
  facet normal -0 -1 0
    outer loop
      vertex 9.69706 0 6.30294
      vertex 6.30294 0 6.30294
      vertex 8 0 5.6
    endloop
  endfacet
  facet normal 0 -1 0
    outer loop
      vertex 14.3029 0 9.69706
      vertex 17.6971 0 9.69706
      vertex 16 0 10.4
    endloop
  endfacet
  facet normal 0 -1 0
    outer loop
      vertex 13.6 0 8
      vertex 17.6971 0 9.69706
      vertex 14.3029 0 9.69706
    endloop
  endfacet
  facet normal 0 -1 0
    outer loop
      vertex 13.6 0 8
      vertex 18.4 0 8
      vertex 17.6971 0 9.69706
    endloop
  endfacet
  facet normal 0 -1 0
    outer loop
      vertex 14.3029 0 6.30294
      vertex 18.4 0 8
      vertex 13.6 0 8
    endloop
  endfacet
  facet normal 0 -1 0
    outer loop
      vertex 14.3029 0 6.30294
      vertex 17.6971 0 6.30294
      vertex 18.4 0 8
    endloop
  endfacet
  facet normal -0 -1 0
    outer loop
      vertex 17.6971 0 6.30294
      vertex 14.3029 0 6.30294
      vertex 16 0 5.6
    endloop
  endfacet
  facet normal 0 -1 0
    outer loop
      vertex 6.30294 0 17.6971
      vertex 9.69706 0 17.6971
      vertex 8 0 18.4
    endloop
  endfacet
  facet normal 0 -1 0
    outer loop
      vertex 5.6 0 16
      vertex 9.69706 0 17.6971
      vertex 6.30294 0 17.6971
    endloop
  endfacet
  facet normal 0 -1 0
    outer loop
      vertex 5.6 0 16
      vertex 10.4 0 16
      vertex 9.69706 0 17.6971
    endloop
  endfacet
  facet normal 0 -1 0
    outer loop
      vertex 6.30294 0 14.3029
      vertex 10.4 0 16
      vertex 5.6 0 16
    endloop
  endfacet
  facet normal 0 -1 0
    outer loop
      vertex 6.30294 0 14.3029
      vertex 9.69706 0 14.3029
      vertex 10.4 0 16
    endloop
  endfacet
  facet normal -0 -1 0
    outer loop
      vertex 9.69706 0 14.3029
      vertex 6.30294 0 14.3029
      vertex 8 0 13.6
    endloop
  endfacet
  facet normal 0 -1 0
    outer loop
      vertex 14.3029 0 17.6971
      vertex 17.6971 0 17.6971
      vertex 16 0 18.4
    endloop
  endfacet
  facet normal 0 -1 0
    outer loop
      vertex 13.6 0 16
      vertex 17.6971 0 17.6971
      vertex 14.3029 0 17.6971
    endloop
  endfacet
  facet normal 0 -1 0
    outer loop
      vertex 13.6 0 16
      vertex 18.4 0 16
      vertex 17.6971 0 17.6971
    endloop
  endfacet
  facet normal 0 -1 0
    outer loop
      vertex 14.3029 0 14.3029
      vertex 18.4 0 16
      vertex 13.6 0 16
    endloop
  endfacet
  facet normal 0 -1 0
    outer loop
      vertex 14.3029 0 14.3029
      vertex 17.6971 0 14.3029
      vertex 18.4 0 16
    endloop
  endfacet
  facet normal -0 -1 0
    outer loop
      vertex 17.6971 0 14.3029
      vertex 14.3029 0 14.3029
      vertex 16 0 13.6
    endloop
  endfacet
  facet normal 0 1 -0
    outer loop
      vertex 25.5 31 4.5
      vertex 4.5 31 25.5
      vertex 25.5 31 25.5
    endloop
  endfacet
  facet normal 0 1 0
    outer loop
      vertex 4.5 31 25.5
      vertex 25.5 31 4.5
      vertex 4.5 31 4.5
    endloop
  endfacet
  facet normal -0.900969 -0.433884 0
    outer loop
      vertex 17 13.3333 4.5
      vertex 16.247 14.897 25.5
      vertex 16.247 14.897 4.5
    endloop
  endfacet
  facet normal -0.900969 -0.433884 0
    outer loop
      vertex 16.247 14.897 25.5
      vertex 17 13.3333 4.5
      vertex 17 13.3333 25.5
    endloop
  endfacet
  facet normal 1 -0 0
    outer loop
      vertex 13.1981 12.4656 25.5
      vertex 13.1981 14.2011 4.5
      vertex 13.1981 14.2011 25.5
    endloop
  endfacet
  facet normal 1 0 0
    outer loop
      vertex 13.1981 14.2011 4.5
      vertex 13.1981 12.4656 25.5
      vertex 13.1981 12.4656 4.5
    endloop
  endfacet
  facet normal -0.222521 -0.974928 0
    outer loop
      vertex 14.555 15.2832 4.5
      vertex 16.247 14.897 25.5
      vertex 14.555 15.2832 25.5
    endloop
  endfacet
  facet normal -0.222521 -0.974928 -0
    outer loop
      vertex 16.247 14.897 25.5
      vertex 14.555 15.2832 4.5
      vertex 16.247 14.897 4.5
    endloop
  endfacet
  facet normal 0.62349 -0.781831 0
    outer loop
      vertex 13.1981 14.2011 4.5
      vertex 14.555 15.2832 25.5
      vertex 13.1981 14.2011 25.5
    endloop
  endfacet
  facet normal 0.62349 -0.781831 0
    outer loop
      vertex 14.555 15.2832 25.5
      vertex 13.1981 14.2011 4.5
      vertex 14.555 15.2832 4.5
    endloop
  endfacet
  facet normal -0.900969 0.433884 0
    outer loop
      vertex 16.247 11.7697 4.5
      vertex 17 13.3333 25.5
      vertex 17 13.3333 4.5
    endloop
  endfacet
  facet normal -0.900969 0.433884 0
    outer loop
      vertex 17 13.3333 25.5
      vertex 16.247 11.7697 4.5
      vertex 16.247 11.7697 25.5
    endloop
  endfacet
  facet normal 0.62349 0.781831 -0
    outer loop
      vertex 14.555 11.3835 4.5
      vertex 13.1981 12.4656 25.5
      vertex 14.555 11.3835 25.5
    endloop
  endfacet
  facet normal 0.62349 0.781831 0
    outer loop
      vertex 13.1981 12.4656 25.5
      vertex 14.555 11.3835 4.5
      vertex 13.1981 12.4656 4.5
    endloop
  endfacet
  facet normal -0.222521 0.974928 0
    outer loop
      vertex 16.247 11.7697 4.5
      vertex 14.555 11.3835 25.5
      vertex 16.247 11.7697 25.5
    endloop
  endfacet
  facet normal -0.222521 0.974928 0
    outer loop
      vertex 14.555 11.3835 25.5
      vertex 16.247 11.7697 4.5
      vertex 14.555 11.3835 4.5
    endloop
  endfacet
  facet normal -0.900969 -0.433884 0
    outer loop
      vertex 17 26.6667 4.5
      vertex 16.247 28.2303 25.5
      vertex 16.247 28.2303 4.5
    endloop
  endfacet
  facet normal -0.900969 -0.433884 0
    outer loop
      vertex 16.247 28.2303 25.5
      vertex 17 26.6667 4.5
      vertex 17 26.6667 25.5
    endloop
  endfacet
  facet normal 1 -0 0
    outer loop
      vertex 13.1981 25.7989 25.5
      vertex 13.1981 27.5344 4.5
      vertex 13.1981 27.5344 25.5
    endloop
  endfacet
  facet normal 1 0 0
    outer loop
      vertex 13.1981 27.5344 4.5
      vertex 13.1981 25.7989 25.5
      vertex 13.1981 25.7989 4.5
    endloop
  endfacet
  facet normal -0.222521 -0.974928 0
    outer loop
      vertex 14.555 28.6165 4.5
      vertex 16.247 28.2303 25.5
      vertex 14.555 28.6165 25.5
    endloop
  endfacet
  facet normal -0.222521 -0.974928 -0
    outer loop
      vertex 16.247 28.2303 25.5
      vertex 14.555 28.6165 4.5
      vertex 16.247 28.2303 4.5
    endloop
  endfacet
  facet normal 0.62349 0.781831 -0
    outer loop
      vertex 14.555 24.7168 4.5
      vertex 13.1981 25.7989 25.5
      vertex 14.555 24.7168 25.5
    endloop
  endfacet
  facet normal 0.62349 0.781831 0
    outer loop
      vertex 13.1981 25.7989 25.5
      vertex 14.555 24.7168 4.5
      vertex 13.1981 25.7989 4.5
    endloop
  endfacet
  facet normal 0.62349 -0.781831 0
    outer loop
      vertex 13.1981 27.5344 4.5
      vertex 14.555 28.6165 25.5
      vertex 13.1981 27.5344 25.5
    endloop
  endfacet
  facet normal 0.62349 -0.781831 0
    outer loop
      vertex 14.555 28.6165 25.5
      vertex 13.1981 27.5344 4.5
      vertex 14.555 28.6165 4.5
    endloop
  endfacet
  facet normal -0.222522 0.974928 0
    outer loop
      vertex 16.247 25.103 4.5
      vertex 14.555 24.7168 25.5
      vertex 16.247 25.103 25.5
    endloop
  endfacet
  facet normal -0.222522 0.974928 0
    outer loop
      vertex 14.555 24.7168 25.5
      vertex 16.247 25.103 4.5
      vertex 14.555 24.7168 4.5
    endloop
  endfacet
  facet normal -0.900969 0.433884 0
    outer loop
      vertex 16.247 25.103 4.5
      vertex 17 26.6667 25.5
      vertex 17 26.6667 4.5
    endloop
  endfacet
  facet normal -0.900969 0.433884 0
    outer loop
      vertex 17 26.6667 25.5
      vertex 16.247 25.103 4.5
      vertex 16.247 25.103 25.5
    endloop
  endfacet
endsolid OpenSCAD_Model
