solid OpenSCAD_Model
  facet normal -1 0 0
    outer loop
      vertex 4.5 -1.8 17.8071
      vertex 4.5 0 22.1929
      vertex 4.5 0 17.8071
    endloop
  endfacet
  facet normal -1 -0 0
    outer loop
      vertex 4.5 0 22.1929
      vertex 4.5 -1.8 17.8071
      vertex 4.5 -1.8 22.1929
    endloop
  endfacet
  facet normal -1 0 0
    outer loop
      vertex 4.5 -1.8 9.80711
      vertex 4.5 0 14.1929
      vertex 4.5 0 9.80711
    endloop
  endfacet
  facet normal -1 -0 0
    outer loop
      vertex 4.5 0 14.1929
      vertex 4.5 -1.8 9.80711
      vertex 4.5 -1.8 14.1929
    endloop
  endfacet
  facet normal -1 0 0
    outer loop
      vertex 4.5 0 9.80711
      vertex 4.5 25.5 4.5
      vertex 4.5 0 6.19289
    endloop
  endfacet
  facet normal -1 0 0
    outer loop
      vertex 4.5 -1.8 4.5
      vertex 4.5 0 6.19289
      vertex 4.5 25.5 4.5
    endloop
  endfacet
  facet normal -1 -0 0
    outer loop
      vertex 4.5 0 6.19289
      vertex 4.5 -1.8 4.5
      vertex 4.5 -1.8 6.19289
    endloop
  endfacet
  facet normal -1 0 0
    outer loop
      vertex 4.5 0 14.1929
      vertex 4.5 25.5 4.5
      vertex 4.5 0 9.80711
    endloop
  endfacet
  facet normal -1 0 0
    outer loop
      vertex 4.5 25.5 4.5
      vertex 4.5 0 14.1929
      vertex 4.5 25.5 25.5
    endloop
  endfacet
  facet normal -1 0 0
    outer loop
      vertex 4.5 0 17.8071
      vertex 4.5 25.5 25.5
      vertex 4.5 0 14.1929
    endloop
  endfacet
  facet normal -1 0 0
    outer loop
      vertex 4.5 0 22.1929
      vertex 4.5 25.5 25.5
      vertex 4.5 0 17.8071
    endloop
  endfacet
  facet normal -1 -0 0
    outer loop
      vertex 4.5 25.5 25.5
      vertex 4.5 0 22.1929
      vertex 4.5 0 25.5
    endloop
  endfacet
  facet normal 0 0 1
    outer loop
      vertex 25.5 25.5 25.5
      vertex 22 15 25.5
      vertex 25.5 0 25.5
    endloop
  endfacet
  facet normal 0 0 1
    outer loop
      vertex 25.5 25.5 25.5
      vertex 21.247 16.5637 25.5
      vertex 22 15 25.5
    endloop
  endfacet
  facet normal 0 0 1
    outer loop
      vertex 25.5 25.5 25.5
      vertex 19.555 16.9499 25.5
      vertex 21.247 16.5637 25.5
    endloop
  endfacet
  facet normal 0 0 1
    outer loop
      vertex 11.247 16.5637 25.5
      vertex 19.555 16.9499 25.5
      vertex 25.5 25.5 25.5
    endloop
  endfacet
  facet normal 0 0 1
    outer loop
      vertex 18.1981 15.8678 25.5
      vertex 12 15 25.5
      vertex 18.1981 14.1322 25.5
    endloop
  endfacet
  facet normal 0 0 1
    outer loop
      vertex 19.555 16.9499 25.5
      vertex 11.247 16.5637 25.5
      vertex 18.1981 15.8678 25.5
    endloop
  endfacet
  facet normal 0 0 1
    outer loop
      vertex 18.1981 15.8678 25.5
      vertex 11.247 16.5637 25.5
      vertex 12 15 25.5
    endloop
  endfacet
  facet normal -0 0 1
    outer loop
      vertex 4.5 25.5 25.5
      vertex 11.247 16.5637 25.5
      vertex 25.5 25.5 25.5
    endloop
  endfacet
  facet normal 0 0 1
    outer loop
      vertex 8.19806 15.8678 25.5
      vertex 4.5 25.5 25.5
      vertex 8.19806 14.1322 25.5
    endloop
  endfacet
  facet normal 0 0 1
    outer loop
      vertex 9.55496 16.9499 25.5
      vertex 4.5 25.5 25.5
      vertex 8.19806 15.8678 25.5
    endloop
  endfacet
  facet normal 0 0 1
    outer loop
      vertex 11.247 16.5637 25.5
      vertex 4.5 25.5 25.5
      vertex 9.55496 16.9499 25.5
    endloop
  endfacet
  facet normal -0 0 1
    outer loop
      vertex 21.247 13.4363 25.5
      vertex 25.5 0 25.5
      vertex 22 15 25.5
    endloop
  endfacet
  facet normal -0 0 1
    outer loop
      vertex 19.555 13.0501 25.5
      vertex 25.5 0 25.5
      vertex 21.247 13.4363 25.5
    endloop
  endfacet
  facet normal -0 0 1
    outer loop
      vertex 11.247 13.4363 25.5
      vertex 19.555 13.0501 25.5
      vertex 18.1981 14.1322 25.5
    endloop
  endfacet
  facet normal 0 0 1
    outer loop
      vertex 11.247 13.4363 25.5
      vertex 18.1981 14.1322 25.5
      vertex 12 15 25.5
    endloop
  endfacet
  facet normal 0 0 1
    outer loop
      vertex 19.555 13.0501 25.5
      vertex 11.247 13.4363 25.5
      vertex 25.5 0 25.5
    endloop
  endfacet
  facet normal 0 0 1
    outer loop
      vertex 4.5 0 25.5
      vertex 11.247 13.4363 25.5
      vertex 9.55496 13.0501 25.5
    endloop
  endfacet
  facet normal 0 0 1
    outer loop
      vertex 4.5 0 25.5
      vertex 9.55496 13.0501 25.5
      vertex 8.19806 14.1322 25.5
    endloop
  endfacet
  facet normal 0 0 1
    outer loop
      vertex 11.247 13.4363 25.5
      vertex 4.5 0 25.5
      vertex 25.5 0 25.5
    endloop
  endfacet
  facet normal 0 0 1
    outer loop
      vertex 4.5 0 25.5
      vertex 8.19806 14.1322 25.5
      vertex 4.5 25.5 25.5
    endloop
  endfacet
  facet normal 1 -0 0
    outer loop
      vertex 25.5 0 25.5
      vertex 25.5 25.5 4.5
      vertex 25.5 25.5 25.5
    endloop
  endfacet
  facet normal 1 0 0
    outer loop
      vertex 25.5 25.5 4.5
      vertex 25.5 0 25.5
      vertex 25.5 0 4.5
    endloop
  endfacet
  facet normal 0 1 -0
    outer loop
      vertex 25.5 25.5 4.5
      vertex 4.5 25.5 25.5
      vertex 25.5 25.5 25.5
    endloop
  endfacet
  facet normal 0 1 0
    outer loop
      vertex 4.5 25.5 25.5
      vertex 25.5 25.5 4.5
      vertex 4.5 25.5 4.5
    endloop
  endfacet
  facet normal 0 0 -1
    outer loop
      vertex 6.19289 -1.8 4.5
      vertex 4.5 -1.8 4.5
      vertex 6.19289 0 4.5
    endloop
  endfacet
  facet normal 0 0 -1
    outer loop
      vertex 9.80711 0 4.5
      vertex 14.1929 0 4.5
      vertex 14.1929 -1.8 4.5
    endloop
  endfacet
  facet normal 0 0 -1
    outer loop
      vertex 14.1929 0 4.5
      vertex 11.247 13.4363 4.5
      vertex 12 15 4.5
    endloop
  endfacet
  facet normal 0 0 -1
    outer loop
      vertex 9.80711 0 4.5
      vertex 14.1929 -1.8 4.5
      vertex 9.80711 -1.8 4.5
    endloop
  endfacet
  facet normal 0 0 -1
    outer loop
      vertex 14.1929 0 4.5
      vertex 9.80711 0 4.5
      vertex 11.247 13.4363 4.5
    endloop
  endfacet
  facet normal 0 0 -1
    outer loop
      vertex 9.80711 0 4.5
      vertex 9.55496 13.0501 4.5
      vertex 11.247 13.4363 4.5
    endloop
  endfacet
  facet normal 0 0 -1
    outer loop
      vertex 6.19289 0 4.5
      vertex 9.55496 13.0501 4.5
      vertex 9.80711 0 4.5
    endloop
  endfacet
  facet normal 0 0 -1
    outer loop
      vertex 4.5 -1.8 4.5
      vertex 8.19806 14.1322 4.5
      vertex 6.19289 0 4.5
    endloop
  endfacet
  facet normal -0 0 -1
    outer loop
      vertex 9.55496 13.0501 4.5
      vertex 6.19289 0 4.5
      vertex 8.19806 14.1322 4.5
    endloop
  endfacet
  facet normal 0 0 -1
    outer loop
      vertex 17.8071 0 4.5
      vertex 22.1929 0 4.5
      vertex 22.1929 -1.8 4.5
    endloop
  endfacet
  facet normal 0 0 -1
    outer loop
      vertex 22.1929 0 4.5
      vertex 21.247 13.4363 4.5
      vertex 22 15 4.5
    endloop
  endfacet
  facet normal 0 -0 -1
    outer loop
      vertex 19.555 13.0501 4.5
      vertex 22.1929 0 4.5
      vertex 17.8071 0 4.5
    endloop
  endfacet
  facet normal 0 0 -1
    outer loop
      vertex 22.1929 0 4.5
      vertex 19.555 13.0501 4.5
      vertex 21.247 13.4363 4.5
    endloop
  endfacet
  facet normal 0 0 -1
    outer loop
      vertex 14.1929 0 4.5
      vertex 19.555 13.0501 4.5
      vertex 17.8071 0 4.5
    endloop
  endfacet
  facet normal 0 0 -1
    outer loop
      vertex 17.8071 0 4.5
      vertex 22.1929 -1.8 4.5
      vertex 17.8071 -1.8 4.5
    endloop
  endfacet
  facet normal 0 0 -1
    outer loop
      vertex 22 15 4.5
      vertex 25.5 0 4.5
      vertex 22.1929 0 4.5
    endloop
  endfacet
  facet normal 0 0 -1
    outer loop
      vertex 25.5 0 4.5
      vertex 22 15 4.5
      vertex 25.5 25.5 4.5
    endloop
  endfacet
  facet normal 0 0 -1
    outer loop
      vertex 21.247 16.5637 4.5
      vertex 25.5 25.5 4.5
      vertex 22 15 4.5
    endloop
  endfacet
  facet normal 0 0 -1
    outer loop
      vertex 19.555 16.9499 4.5
      vertex 25.5 25.5 4.5
      vertex 21.247 16.5637 4.5
    endloop
  endfacet
  facet normal 0 0 -1
    outer loop
      vertex 11.247 16.5637 4.5
      vertex 19.555 16.9499 4.5
      vertex 18.1981 15.8678 4.5
    endloop
  endfacet
  facet normal -0 0 -1
    outer loop
      vertex 19.555 13.0501 4.5
      vertex 14.1929 0 4.5
      vertex 18.1981 14.1322 4.5
    endloop
  endfacet
  facet normal -0 0 -1
    outer loop
      vertex 18.1981 14.1322 4.5
      vertex 14.1929 0 4.5
      vertex 12 15 4.5
    endloop
  endfacet
  facet normal 0 0 -1
    outer loop
      vertex 18.1981 14.1322 4.5
      vertex 12 15 4.5
      vertex 18.1981 15.8678 4.5
    endloop
  endfacet
  facet normal 0 0 -1
    outer loop
      vertex 11.247 16.5637 4.5
      vertex 18.1981 15.8678 4.5
      vertex 12 15 4.5
    endloop
  endfacet
  facet normal -0 0 -1
    outer loop
      vertex 19.555 16.9499 4.5
      vertex 11.247 16.5637 4.5
      vertex 25.5 25.5 4.5
    endloop
  endfacet
  facet normal 0 0 -1
    outer loop
      vertex 4.5 25.5 4.5
      vertex 11.247 16.5637 4.5
      vertex 9.55496 16.9499 4.5
    endloop
  endfacet
  facet normal 0 0 -1
    outer loop
      vertex 4.5 25.5 4.5
      vertex 8.19806 14.1322 4.5
      vertex 4.5 -1.8 4.5
    endloop
  endfacet
  facet normal 0 0 -1
    outer loop
      vertex 11.247 16.5637 4.5
      vertex 4.5 25.5 4.5
      vertex 25.5 25.5 4.5
    endloop
  endfacet
  facet normal 0 0 -1
    outer loop
      vertex 8.19806 15.8678 4.5
      vertex 4.5 25.5 4.5
      vertex 9.55496 16.9499 4.5
    endloop
  endfacet
  facet normal 0 0 -1
    outer loop
      vertex 8.19806 14.1322 4.5
      vertex 4.5 25.5 4.5
      vertex 8.19806 15.8678 4.5
    endloop
  endfacet
  facet normal 0 -1 0
    outer loop
      vertex 18.3029 0 5.69706
      vertex 18.3029 0 10.3029
      vertex 13.6971 0 5.69706
    endloop
  endfacet
  facet normal 0 -1 0
    outer loop
      vertex 18.3029 0 10.3029
      vertex 18.3029 0 5.69706
      vertex 20 0 6.4
    endloop
  endfacet
  facet normal 0 -1 0
    outer loop
      vertex 14.1929 0 4.5
      vertex 18.3029 0 5.69706
      vertex 13.6971 0 5.69706
    endloop
  endfacet
  facet normal 0 -1 0
    outer loop
      vertex 18.3029 0 5.69706
      vertex 14.1929 0 4.5
      vertex 17.8071 0 4.5
    endloop
  endfacet
  facet normal 0 -1 0
    outer loop
      vertex 18.3029 0 13.6971
      vertex 18.3029 0 18.3029
      vertex 13.6971 0 13.6971
    endloop
  endfacet
  facet normal 0 -1 0
    outer loop
      vertex 18.3029 0 18.3029
      vertex 18.3029 0 13.6971
      vertex 20 0 14.4
    endloop
  endfacet
  facet normal 0 -1 0
    outer loop
      vertex 14.4 0 12
      vertex 18.3029 0 13.6971
      vertex 13.6971 0 13.6971
    endloop
  endfacet
  facet normal 0 -1 0
    outer loop
      vertex 14.4 0 12
      vertex 17.6 0 12
      vertex 18.3029 0 13.6971
    endloop
  endfacet
  facet normal 0 -1 0
    outer loop
      vertex 13.6971 0 10.3029
      vertex 17.6 0 12
      vertex 14.4 0 12
    endloop
  endfacet
  facet normal 0 -1 0
    outer loop
      vertex 13.6971 0 10.3029
      vertex 18.3029 0 10.3029
      vertex 17.6 0 12
    endloop
  endfacet
  facet normal 0 -1 0
    outer loop
      vertex 12 0 6.4
      vertex 13.6971 0 10.3029
      vertex 12 0 9.6
    endloop
  endfacet
  facet normal 0 -1 0
    outer loop
      vertex 13.6971 0 5.69706
      vertex 13.6971 0 10.3029
      vertex 12 0 6.4
    endloop
  endfacet
  facet normal 0 -1 0
    outer loop
      vertex 13.6971 0 21.6971
      vertex 20 0 22.4
      vertex 12 0 22.4
    endloop
  endfacet
  facet normal 0 -1 0
    outer loop
      vertex 13.6971 0 21.6971
      vertex 18.3029 0 21.6971
      vertex 20 0 22.4
    endloop
  endfacet
  facet normal 0 -1 0
    outer loop
      vertex 14.4 0 20
      vertex 18.3029 0 21.6971
      vertex 13.6971 0 21.6971
    endloop
  endfacet
  facet normal 0 -1 0
    outer loop
      vertex 14.4 0 20
      vertex 17.6 0 20
      vertex 18.3029 0 21.6971
    endloop
  endfacet
  facet normal 0 -1 0
    outer loop
      vertex 13.6971 0 18.3029
      vertex 17.6 0 20
      vertex 14.4 0 20
    endloop
  endfacet
  facet normal 0 -1 0
    outer loop
      vertex 13.6971 0 18.3029
      vertex 18.3029 0 18.3029
      vertex 17.6 0 20
    endloop
  endfacet
  facet normal 0 -1 0
    outer loop
      vertex 12 0 14.4
      vertex 13.6971 0 18.3029
      vertex 12 0 17.6
    endloop
  endfacet
  facet normal 0 -1 0
    outer loop
      vertex 13.6971 0 13.6971
      vertex 13.6971 0 18.3029
      vertex 12 0 14.4
    endloop
  endfacet
  facet normal 0 -1 0
    outer loop
      vertex 4.5 0 25.5
      vertex 12 0 22.4
      vertex 25.5 0 25.5
    endloop
  endfacet
  facet normal 0 -1 0
    outer loop
      vertex 5.69706 0 21.6971
      vertex 4.5 0 25.5
      vertex 4.5 0 22.1929
    endloop
  endfacet
  facet normal 0 -1 0
    outer loop
      vertex 4.5 0 25.5
      vertex 5.69706 0 21.6971
      vertex 10.3029 0 21.6971
    endloop
  endfacet
  facet normal 0 -1 0
    outer loop
      vertex 4.5 0 25.5
      vertex 10.3029 0 21.6971
      vertex 12 0 22.4
    endloop
  endfacet
  facet normal 0 -1 0
    outer loop
      vertex 6.4 0 20
      vertex 10.3029 0 21.6971
      vertex 5.69706 0 21.6971
    endloop
  endfacet
  facet normal 0 -1 0
    outer loop
      vertex 6.4 0 20
      vertex 9.6 0 20
      vertex 10.3029 0 21.6971
    endloop
  endfacet
  facet normal 0 -1 0
    outer loop
      vertex 5.69706 0 18.3029
      vertex 9.6 0 20
      vertex 6.4 0 20
    endloop
  endfacet
  facet normal 0 -1 0
    outer loop
      vertex 5.69706 0 18.3029
      vertex 10.3029 0 18.3029
      vertex 9.6 0 20
    endloop
  endfacet
  facet normal 0 -1 0
    outer loop
      vertex 5.69706 0 13.6971
      vertex 5.69706 0 18.3029
      vertex 4.5 0 17.8071
    endloop
  endfacet
  facet normal 0 -1 0
    outer loop
      vertex 5.69706 0 18.3029
      vertex 5.69706 0 13.6971
      vertex 10.3029 0 18.3029
    endloop
  endfacet
  facet normal 0 -1 0
    outer loop
      vertex 13.6971 0 18.3029
      vertex 13.6971 0 13.6971
      vertex 18.3029 0 18.3029
    endloop
  endfacet
  facet normal 0 -1 0
    outer loop
      vertex 10.3029 0 18.3029
      vertex 10.3029 0 13.6971
      vertex 12 0 17.6
    endloop
  endfacet
  facet normal 0 -1 0
    outer loop
      vertex 5.69706 0 13.6971
      vertex 4.5 0 17.8071
      vertex 4.5 0 14.1929
    endloop
  endfacet
  facet normal 0 -1 -0
    outer loop
      vertex 10.3029 0 18.3029
      vertex 5.69706 0 13.6971
      vertex 10.3029 0 13.6971
    endloop
  endfacet
  facet normal 0 -1 -0
    outer loop
      vertex 12 0 17.6
      vertex 10.3029 0 13.6971
      vertex 12 0 14.4
    endloop
  endfacet
  facet normal 0 -1 0
    outer loop
      vertex 6.4 0 12
      vertex 10.3029 0 13.6971
      vertex 5.69706 0 13.6971
    endloop
  endfacet
  facet normal 0 -1 0
    outer loop
      vertex 6.4 0 12
      vertex 9.6 0 12
      vertex 10.3029 0 13.6971
    endloop
  endfacet
  facet normal 0 -1 0
    outer loop
      vertex 5.69706 0 10.3029
      vertex 9.6 0 12
      vertex 6.4 0 12
    endloop
  endfacet
  facet normal 0 -1 0
    outer loop
      vertex 5.69706 0 10.3029
      vertex 10.3029 0 10.3029
      vertex 9.6 0 12
    endloop
  endfacet
  facet normal 0 -1 0
    outer loop
      vertex 5.69706 0 5.69706
      vertex 5.69706 0 10.3029
      vertex 4.5 0 9.80711
    endloop
  endfacet
  facet normal 0 -1 0
    outer loop
      vertex 5.69706 0 10.3029
      vertex 5.69706 0 5.69706
      vertex 10.3029 0 10.3029
    endloop
  endfacet
  facet normal 0 -1 0
    outer loop
      vertex 13.6971 0 10.3029
      vertex 13.6971 0 5.69706
      vertex 18.3029 0 10.3029
    endloop
  endfacet
  facet normal 0 -1 0
    outer loop
      vertex 10.3029 0 10.3029
      vertex 10.3029 0 5.69706
      vertex 12 0 9.6
    endloop
  endfacet
  facet normal 0 -1 0
    outer loop
      vertex 5.69706 0 5.69706
      vertex 4.5 0 9.80711
      vertex 4.5 0 6.19289
    endloop
  endfacet
  facet normal 0 -1 -0
    outer loop
      vertex 10.3029 0 10.3029
      vertex 5.69706 0 5.69706
      vertex 10.3029 0 5.69706
    endloop
  endfacet
  facet normal 0 -1 -0
    outer loop
      vertex 12 0 9.6
      vertex 10.3029 0 5.69706
      vertex 12 0 6.4
    endloop
  endfacet
  facet normal 0 -1 0
    outer loop
      vertex 6.19289 0 4.5
      vertex 10.3029 0 5.69706
      vertex 5.69706 0 5.69706
    endloop
  endfacet
  facet normal 0 -1 0
    outer loop
      vertex 10.3029 0 5.69706
      vertex 6.19289 0 4.5
      vertex 9.80711 0 4.5
    endloop
  endfacet
  facet normal 0 -1 0
    outer loop
      vertex 20 0 22.4
      vertex 25.5 0 25.5
      vertex 12 0 22.4
    endloop
  endfacet
  facet normal 0 -1 0
    outer loop
      vertex 21.6971 0 21.6971
      vertex 25.5 0 25.5
      vertex 20 0 22.4
    endloop
  endfacet
  facet normal 0 -1 0
    outer loop
      vertex 22.4 0 20
      vertex 25.5 0 25.5
      vertex 21.6971 0 21.6971
    endloop
  endfacet
  facet normal 0 -1 0
    outer loop
      vertex 22.4 0 12
      vertex 22.4 0 20
      vertex 21.6971 0 18.3029
    endloop
  endfacet
  facet normal 0 -1 0
    outer loop
      vertex 18.3029 0 18.3029
      vertex 20 0 14.4
      vertex 20 0 17.6
    endloop
  endfacet
  facet normal 0 -1 0
    outer loop
      vertex 20 0 14.4
      vertex 21.6971 0 18.3029
      vertex 20 0 17.6
    endloop
  endfacet
  facet normal 0 -1 0
    outer loop
      vertex 21.6971 0 13.6971
      vertex 21.6971 0 18.3029
      vertex 20 0 14.4
    endloop
  endfacet
  facet normal 0 -1 0
    outer loop
      vertex 22.4 0 12
      vertex 21.6971 0 18.3029
      vertex 21.6971 0 13.6971
    endloop
  endfacet
  facet normal 0 -1 0
    outer loop
      vertex 22.4 0 20
      vertex 22.4 0 12
      vertex 25.5 0 25.5
    endloop
  endfacet
  facet normal 0 -1 0
    outer loop
      vertex 18.3029 0 10.3029
      vertex 20 0 6.4
      vertex 20 0 9.6
    endloop
  endfacet
  facet normal 0 -1 0
    outer loop
      vertex 20 0 6.4
      vertex 21.6971 0 10.3029
      vertex 20 0 9.6
    endloop
  endfacet
  facet normal 0 -1 0
    outer loop
      vertex 21.6971 0 5.69706
      vertex 21.6971 0 10.3029
      vertex 20 0 6.4
    endloop
  endfacet
  facet normal 0 -1 0
    outer loop
      vertex 25.5 0 4.5
      vertex 21.6971 0 10.3029
      vertex 21.6971 0 5.69706
    endloop
  endfacet
  facet normal 0 -1 0
    outer loop
      vertex 21.6971 0 10.3029
      vertex 25.5 0 4.5
      vertex 22.4 0 12
    endloop
  endfacet
  facet normal 0 -1 0
    outer loop
      vertex 25.5 0 4.5
      vertex 21.6971 0 5.69706
      vertex 22.1929 0 4.5
    endloop
  endfacet
  facet normal 0 -1 0
    outer loop
      vertex 22.4 0 12
      vertex 25.5 0 4.5
      vertex 25.5 0 25.5
    endloop
  endfacet
  facet normal -0.900969 -0.433884 0
    outer loop
      vertex 12 15 4.5
      vertex 11.247 16.5637 25.5
      vertex 11.247 16.5637 4.5
    endloop
  endfacet
  facet normal -0.900969 -0.433884 0
    outer loop
      vertex 11.247 16.5637 25.5
      vertex 12 15 4.5
      vertex 12 15 25.5
    endloop
  endfacet
  facet normal 1 -0 0
    outer loop
      vertex 8.19806 14.1322 25.5
      vertex 8.19806 15.8678 4.5
      vertex 8.19806 15.8678 25.5
    endloop
  endfacet
  facet normal 1 0 0
    outer loop
      vertex 8.19806 15.8678 4.5
      vertex 8.19806 14.1322 25.5
      vertex 8.19806 14.1322 4.5
    endloop
  endfacet
  facet normal -0.222521 -0.974928 0
    outer loop
      vertex 9.55496 16.9499 4.5
      vertex 11.247 16.5637 25.5
      vertex 9.55496 16.9499 25.5
    endloop
  endfacet
  facet normal -0.222521 -0.974928 -0
    outer loop
      vertex 11.247 16.5637 25.5
      vertex 9.55496 16.9499 4.5
      vertex 11.247 16.5637 4.5
    endloop
  endfacet
  facet normal 0.62349 -0.781831 0
    outer loop
      vertex 8.19806 15.8678 4.5
      vertex 9.55496 16.9499 25.5
      vertex 8.19806 15.8678 25.5
    endloop
  endfacet
  facet normal 0.62349 -0.781831 0
    outer loop
      vertex 9.55496 16.9499 25.5
      vertex 8.19806 15.8678 4.5
      vertex 9.55496 16.9499 4.5
    endloop
  endfacet
  facet normal -0.900969 0.433884 0
    outer loop
      vertex 11.247 13.4363 4.5
      vertex 12 15 25.5
      vertex 12 15 4.5
    endloop
  endfacet
  facet normal -0.900969 0.433884 0
    outer loop
      vertex 12 15 25.5
      vertex 11.247 13.4363 4.5
      vertex 11.247 13.4363 25.5
    endloop
  endfacet
  facet normal -0.222521 0.974928 0
    outer loop
      vertex 11.247 13.4363 4.5
      vertex 9.55496 13.0501 25.5
      vertex 11.247 13.4363 25.5
    endloop
  endfacet
  facet normal -0.222521 0.974928 0
    outer loop
      vertex 9.55496 13.0501 25.5
      vertex 11.247 13.4363 4.5
      vertex 9.55496 13.0501 4.5
    endloop
  endfacet
  facet normal 0.62349 0.781831 -0
    outer loop
      vertex 9.55496 13.0501 4.5
      vertex 8.19806 14.1322 25.5
      vertex 9.55496 13.0501 25.5
    endloop
  endfacet
  facet normal 0.62349 0.781831 0
    outer loop
      vertex 8.19806 14.1322 25.5
      vertex 9.55496 13.0501 4.5
      vertex 8.19806 14.1322 4.5
    endloop
  endfacet
  facet normal -0.900969 -0.433884 0
    outer loop
      vertex 22 15 4.5
      vertex 21.247 16.5637 25.5
      vertex 21.247 16.5637 4.5
    endloop
  endfacet
  facet normal -0.900969 -0.433884 0
    outer loop
      vertex 21.247 16.5637 25.5
      vertex 22 15 4.5
      vertex 22 15 25.5
    endloop
  endfacet
  facet normal 1 -0 0
    outer loop
      vertex 18.1981 14.1322 25.5
      vertex 18.1981 15.8678 4.5
      vertex 18.1981 15.8678 25.5
    endloop
  endfacet
  facet normal 1 0 0
    outer loop
      vertex 18.1981 15.8678 4.5
      vertex 18.1981 14.1322 25.5
      vertex 18.1981 14.1322 4.5
    endloop
  endfacet
  facet normal -0.222521 -0.974928 0
    outer loop
      vertex 19.555 16.9499 4.5
      vertex 21.247 16.5637 25.5
      vertex 19.555 16.9499 25.5
    endloop
  endfacet
  facet normal -0.222521 -0.974928 -0
    outer loop
      vertex 21.247 16.5637 25.5
      vertex 19.555 16.9499 4.5
      vertex 21.247 16.5637 4.5
    endloop
  endfacet
  facet normal 0.62349 -0.781831 0
    outer loop
      vertex 18.1981 15.8678 4.5
      vertex 19.555 16.9499 25.5
      vertex 18.1981 15.8678 25.5
    endloop
  endfacet
  facet normal 0.62349 -0.781831 0
    outer loop
      vertex 19.555 16.9499 25.5
      vertex 18.1981 15.8678 4.5
      vertex 19.555 16.9499 4.5
    endloop
  endfacet
  facet normal -0.900969 0.433884 0
    outer loop
      vertex 21.247 13.4363 4.5
      vertex 22 15 25.5
      vertex 22 15 4.5
    endloop
  endfacet
  facet normal -0.900969 0.433884 0
    outer loop
      vertex 22 15 25.5
      vertex 21.247 13.4363 4.5
      vertex 21.247 13.4363 25.5
    endloop
  endfacet
  facet normal -0.222521 0.974928 0
    outer loop
      vertex 21.247 13.4363 4.5
      vertex 19.555 13.0501 25.5
      vertex 21.247 13.4363 25.5
    endloop
  endfacet
  facet normal -0.222521 0.974928 0
    outer loop
      vertex 19.555 13.0501 25.5
      vertex 21.247 13.4363 4.5
      vertex 19.555 13.0501 4.5
    endloop
  endfacet
  facet normal 0.62349 0.781831 -0
    outer loop
      vertex 19.555 13.0501 4.5
      vertex 18.1981 14.1322 25.5
      vertex 19.555 13.0501 25.5
    endloop
  endfacet
  facet normal 0.62349 0.781831 0
    outer loop
      vertex 18.1981 14.1322 25.5
      vertex 19.555 13.0501 4.5
      vertex 18.1981 14.1322 4.5
    endloop
  endfacet
  facet normal 0.92388 -0 0.382683
    outer loop
      vertex 5.69706 -1.8 5.69706
      vertex 6.19289 0 4.5
      vertex 5.69706 0 5.69706
    endloop
  endfacet
  facet normal 0.92388 0 0.382683
    outer loop
      vertex 6.19289 0 4.5
      vertex 5.69706 -1.8 5.69706
      vertex 6.19289 -1.8 4.5
    endloop
  endfacet
  facet normal 0.382683 0 0.92388
    outer loop
      vertex 4.5 0 6.19289
      vertex 5.69706 -1.8 5.69706
      vertex 5.69706 0 5.69706
    endloop
  endfacet
  facet normal 0.382683 0 0.92388
    outer loop
      vertex 5.69706 -1.8 5.69706
      vertex 4.5 0 6.19289
      vertex 4.5 -1.8 6.19289
    endloop
  endfacet
  facet normal 0 -1 0
    outer loop
      vertex 4.5 -1.8 4.5
      vertex 5.69706 -1.8 5.69706
      vertex 4.5 -1.8 6.19289
    endloop
  endfacet
  facet normal 0 -1 -0
    outer loop
      vertex 5.69706 -1.8 5.69706
      vertex 4.5 -1.8 4.5
      vertex 6.19289 -1.8 4.5
    endloop
  endfacet
  facet normal 0.923879 -0 0.382684
    outer loop
      vertex 5.69706 -1.8 13.6971
      vertex 6.4 0 12
      vertex 5.69706 0 13.6971
    endloop
  endfacet
  facet normal 0.923879 0 0.382684
    outer loop
      vertex 6.4 0 12
      vertex 5.69706 -1.8 13.6971
      vertex 6.4 -1.8 12
    endloop
  endfacet
  facet normal 0.382684 0 0.923879
    outer loop
      vertex 4.5 0 14.1929
      vertex 5.69706 -1.8 13.6971
      vertex 5.69706 0 13.6971
    endloop
  endfacet
  facet normal 0.382684 0 0.923879
    outer loop
      vertex 5.69706 -1.8 13.6971
      vertex 4.5 0 14.1929
      vertex 4.5 -1.8 14.1929
    endloop
  endfacet
  facet normal 0 -1 0
    outer loop
      vertex 4.5 -1.8 14.1929
      vertex 6.4 -1.8 12
      vertex 5.69706 -1.8 13.6971
    endloop
  endfacet
  facet normal 0 -1 0
    outer loop
      vertex 4.5 -1.8 9.80711
      vertex 6.4 -1.8 12
      vertex 4.5 -1.8 14.1929
    endloop
  endfacet
  facet normal 0 -1 0
    outer loop
      vertex 6.4 -1.8 12
      vertex 4.5 -1.8 9.80711
      vertex 5.69706 -1.8 10.3029
    endloop
  endfacet
  facet normal 0.92388 0 -0.382683
    outer loop
      vertex 6.4 -1.8 12
      vertex 5.69706 0 10.3029
      vertex 6.4 0 12
    endloop
  endfacet
  facet normal 0.92388 0 -0.382683
    outer loop
      vertex 5.69706 0 10.3029
      vertex 6.4 -1.8 12
      vertex 5.69706 -1.8 10.3029
    endloop
  endfacet
  facet normal 0.382684 0 -0.923879
    outer loop
      vertex 4.5 -1.8 9.80711
      vertex 5.69706 0 10.3029
      vertex 5.69706 -1.8 10.3029
    endloop
  endfacet
  facet normal 0.382684 0 -0.923879
    outer loop
      vertex 5.69706 0 10.3029
      vertex 4.5 -1.8 9.80711
      vertex 4.5 0 9.80711
    endloop
  endfacet
  facet normal 0.923879 -0 0.382684
    outer loop
      vertex 5.69706 -1.8 21.6971
      vertex 6.4 0 20
      vertex 5.69706 0 21.6971
    endloop
  endfacet
  facet normal 0.923879 0 0.382684
    outer loop
      vertex 6.4 0 20
      vertex 5.69706 -1.8 21.6971
      vertex 6.4 -1.8 20
    endloop
  endfacet
  facet normal 0.382683 0 0.92388
    outer loop
      vertex 4.5 0 22.1929
      vertex 5.69706 -1.8 21.6971
      vertex 5.69706 0 21.6971
    endloop
  endfacet
  facet normal 0.382683 0 0.92388
    outer loop
      vertex 5.69706 -1.8 21.6971
      vertex 4.5 0 22.1929
      vertex 4.5 -1.8 22.1929
    endloop
  endfacet
  facet normal 0 -1 0
    outer loop
      vertex 4.5 -1.8 22.1929
      vertex 6.4 -1.8 20
      vertex 5.69706 -1.8 21.6971
    endloop
  endfacet
  facet normal 0 -1 0
    outer loop
      vertex 4.5 -1.8 17.8071
      vertex 6.4 -1.8 20
      vertex 4.5 -1.8 22.1929
    endloop
  endfacet
  facet normal 0 -1 0
    outer loop
      vertex 6.4 -1.8 20
      vertex 4.5 -1.8 17.8071
      vertex 5.69706 -1.8 18.3029
    endloop
  endfacet
  facet normal 0.923879 0 -0.382684
    outer loop
      vertex 6.4 -1.8 20
      vertex 5.69706 0 18.3029
      vertex 6.4 0 20
    endloop
  endfacet
  facet normal 0.923879 0 -0.382684
    outer loop
      vertex 5.69706 0 18.3029
      vertex 6.4 -1.8 20
      vertex 5.69706 -1.8 18.3029
    endloop
  endfacet
  facet normal 0.382684 0 -0.923879
    outer loop
      vertex 4.5 -1.8 17.8071
      vertex 5.69706 0 18.3029
      vertex 5.69706 -1.8 18.3029
    endloop
  endfacet
  facet normal 0.382684 0 -0.923879
    outer loop
      vertex 5.69706 0 18.3029
      vertex 4.5 -1.8 17.8071
      vertex 4.5 0 17.8071
    endloop
  endfacet
  facet normal 0.923879 -0 0.382684
    outer loop
      vertex 13.6971 -1.8 5.69706
      vertex 14.1929 0 4.5
      vertex 13.6971 0 5.69706
    endloop
  endfacet
  facet normal 0.923879 0 0.382684
    outer loop
      vertex 14.1929 0 4.5
      vertex 13.6971 -1.8 5.69706
      vertex 14.1929 -1.8 4.5
    endloop
  endfacet
  facet normal -0.923879 0 0.382684
    outer loop
      vertex 9.80711 -1.8 4.5
      vertex 10.3029 0 5.69706
      vertex 9.80711 0 4.5
    endloop
  endfacet
  facet normal -0.923879 0 0.382684
    outer loop
      vertex 10.3029 0 5.69706
      vertex 9.80711 -1.8 4.5
      vertex 10.3029 -1.8 5.69706
    endloop
  endfacet
  facet normal 0.382684 0 0.923879
    outer loop
      vertex 12 0 6.4
      vertex 13.6971 -1.8 5.69706
      vertex 13.6971 0 5.69706
    endloop
  endfacet
  facet normal 0.382684 0 0.923879
    outer loop
      vertex 13.6971 -1.8 5.69706
      vertex 12 0 6.4
      vertex 12 -1.8 6.4
    endloop
  endfacet
  facet normal 0 -1 0
    outer loop
      vertex 9.80711 -1.8 4.5
      vertex 12 -1.8 6.4
      vertex 10.3029 -1.8 5.69706
    endloop
  endfacet
  facet normal 0 -1 0
    outer loop
      vertex 14.1929 -1.8 4.5
      vertex 12 -1.8 6.4
      vertex 9.80711 -1.8 4.5
    endloop
  endfacet
  facet normal 0 -1 0
    outer loop
      vertex 12 -1.8 6.4
      vertex 14.1929 -1.8 4.5
      vertex 13.6971 -1.8 5.69706
    endloop
  endfacet
  facet normal -0.382683 0 0.92388
    outer loop
      vertex 10.3029 0 5.69706
      vertex 12 -1.8 6.4
      vertex 12 0 6.4
    endloop
  endfacet
  facet normal -0.382683 0 0.92388
    outer loop
      vertex 12 -1.8 6.4
      vertex 10.3029 0 5.69706
      vertex 10.3029 -1.8 5.69706
    endloop
  endfacet
  facet normal 0.923879 -0 0.382684
    outer loop
      vertex 13.6971 -1.8 13.6971
      vertex 14.4 0 12
      vertex 13.6971 0 13.6971
    endloop
  endfacet
  facet normal 0.923879 0 0.382684
    outer loop
      vertex 14.4 0 12
      vertex 13.6971 -1.8 13.6971
      vertex 14.4 -1.8 12
    endloop
  endfacet
  facet normal -0.382683 0 0.92388
    outer loop
      vertex 10.3029 0 13.6971
      vertex 12 -1.8 14.4
      vertex 12 0 14.4
    endloop
  endfacet
  facet normal -0.382683 0 0.92388
    outer loop
      vertex 12 -1.8 14.4
      vertex 10.3029 0 13.6971
      vertex 10.3029 -1.8 13.6971
    endloop
  endfacet
  facet normal 0.382684 0 0.923879
    outer loop
      vertex 12 0 14.4
      vertex 13.6971 -1.8 13.6971
      vertex 13.6971 0 13.6971
    endloop
  endfacet
  facet normal 0.382684 0 0.923879
    outer loop
      vertex 13.6971 -1.8 13.6971
      vertex 12 0 14.4
      vertex 12 -1.8 14.4
    endloop
  endfacet
  facet normal 0 -1 0
    outer loop
      vertex 10.3029 -1.8 13.6971
      vertex 13.6971 -1.8 13.6971
      vertex 12 -1.8 14.4
    endloop
  endfacet
  facet normal 0 -1 0
    outer loop
      vertex 9.6 -1.8 12
      vertex 13.6971 -1.8 13.6971
      vertex 10.3029 -1.8 13.6971
    endloop
  endfacet
  facet normal 0 -1 0
    outer loop
      vertex 9.6 -1.8 12
      vertex 14.4 -1.8 12
      vertex 13.6971 -1.8 13.6971
    endloop
  endfacet
  facet normal 0 -1 0
    outer loop
      vertex 10.3029 -1.8 10.3029
      vertex 14.4 -1.8 12
      vertex 9.6 -1.8 12
    endloop
  endfacet
  facet normal 0 -1 0
    outer loop
      vertex 10.3029 -1.8 10.3029
      vertex 13.6971 -1.8 10.3029
      vertex 14.4 -1.8 12
    endloop
  endfacet
  facet normal -0 -1 0
    outer loop
      vertex 13.6971 -1.8 10.3029
      vertex 10.3029 -1.8 10.3029
      vertex 12 -1.8 9.6
    endloop
  endfacet
  facet normal -0.923879 0 0.382684
    outer loop
      vertex 9.6 -1.8 12
      vertex 10.3029 0 13.6971
      vertex 9.6 0 12
    endloop
  endfacet
  facet normal -0.923879 0 0.382684
    outer loop
      vertex 10.3029 0 13.6971
      vertex 9.6 -1.8 12
      vertex 10.3029 -1.8 13.6971
    endloop
  endfacet
  facet normal 0.92388 0 -0.382683
    outer loop
      vertex 14.4 -1.8 12
      vertex 13.6971 0 10.3029
      vertex 14.4 0 12
    endloop
  endfacet
  facet normal 0.92388 0 -0.382683
    outer loop
      vertex 13.6971 0 10.3029
      vertex 14.4 -1.8 12
      vertex 13.6971 -1.8 10.3029
    endloop
  endfacet
  facet normal -0.92388 0 -0.382683
    outer loop
      vertex 10.3029 -1.8 10.3029
      vertex 9.6 0 12
      vertex 10.3029 0 10.3029
    endloop
  endfacet
  facet normal -0.92388 -0 -0.382683
    outer loop
      vertex 9.6 0 12
      vertex 10.3029 -1.8 10.3029
      vertex 9.6 -1.8 12
    endloop
  endfacet
  facet normal 0.382684 0 -0.923879
    outer loop
      vertex 12 -1.8 9.6
      vertex 13.6971 0 10.3029
      vertex 13.6971 -1.8 10.3029
    endloop
  endfacet
  facet normal 0.382684 0 -0.923879
    outer loop
      vertex 13.6971 0 10.3029
      vertex 12 -1.8 9.6
      vertex 12 0 9.6
    endloop
  endfacet
  facet normal -0.382683 0 -0.92388
    outer loop
      vertex 10.3029 -1.8 10.3029
      vertex 12 0 9.6
      vertex 12 -1.8 9.6
    endloop
  endfacet
  facet normal -0.382683 0 -0.92388
    outer loop
      vertex 12 0 9.6
      vertex 10.3029 -1.8 10.3029
      vertex 10.3029 0 10.3029
    endloop
  endfacet
  facet normal 0.923879 -0 0.382684
    outer loop
      vertex 13.6971 -1.8 21.6971
      vertex 14.4 0 20
      vertex 13.6971 0 21.6971
    endloop
  endfacet
  facet normal 0.923879 0 0.382684
    outer loop
      vertex 14.4 0 20
      vertex 13.6971 -1.8 21.6971
      vertex 14.4 -1.8 20
    endloop
  endfacet
  facet normal -0.923879 0 -0.382684
    outer loop
      vertex 10.3029 -1.8 18.3029
      vertex 9.6 0 20
      vertex 10.3029 0 18.3029
    endloop
  endfacet
  facet normal -0.923879 -0 -0.382684
    outer loop
      vertex 9.6 0 20
      vertex 10.3029 -1.8 18.3029
      vertex 9.6 -1.8 20
    endloop
  endfacet
  facet normal -0.382683 0 0.92388
    outer loop
      vertex 10.3029 0 21.6971
      vertex 12 -1.8 22.4
      vertex 12 0 22.4
    endloop
  endfacet
  facet normal -0.382683 0 0.92388
    outer loop
      vertex 12 -1.8 22.4
      vertex 10.3029 0 21.6971
      vertex 10.3029 -1.8 21.6971
    endloop
  endfacet
  facet normal 0.382684 0 0.923879
    outer loop
      vertex 12 0 22.4
      vertex 13.6971 -1.8 21.6971
      vertex 13.6971 0 21.6971
    endloop
  endfacet
  facet normal 0.382684 0 0.923879
    outer loop
      vertex 13.6971 -1.8 21.6971
      vertex 12 0 22.4
      vertex 12 -1.8 22.4
    endloop
  endfacet
  facet normal 0 -1 0
    outer loop
      vertex 10.3029 -1.8 21.6971
      vertex 13.6971 -1.8 21.6971
      vertex 12 -1.8 22.4
    endloop
  endfacet
  facet normal 0 -1 0
    outer loop
      vertex 9.6 -1.8 20
      vertex 13.6971 -1.8 21.6971
      vertex 10.3029 -1.8 21.6971
    endloop
  endfacet
  facet normal 0 -1 0
    outer loop
      vertex 9.6 -1.8 20
      vertex 14.4 -1.8 20
      vertex 13.6971 -1.8 21.6971
    endloop
  endfacet
  facet normal 0 -1 0
    outer loop
      vertex 10.3029 -1.8 18.3029
      vertex 14.4 -1.8 20
      vertex 9.6 -1.8 20
    endloop
  endfacet
  facet normal 0 -1 0
    outer loop
      vertex 10.3029 -1.8 18.3029
      vertex 13.6971 -1.8 18.3029
      vertex 14.4 -1.8 20
    endloop
  endfacet
  facet normal -0 -1 0
    outer loop
      vertex 13.6971 -1.8 18.3029
      vertex 10.3029 -1.8 18.3029
      vertex 12 -1.8 17.6
    endloop
  endfacet
  facet normal -0.923879 0 0.382684
    outer loop
      vertex 9.6 -1.8 20
      vertex 10.3029 0 21.6971
      vertex 9.6 0 20
    endloop
  endfacet
  facet normal -0.923879 0 0.382684
    outer loop
      vertex 10.3029 0 21.6971
      vertex 9.6 -1.8 20
      vertex 10.3029 -1.8 21.6971
    endloop
  endfacet
  facet normal 0.923879 0 -0.382684
    outer loop
      vertex 14.4 -1.8 20
      vertex 13.6971 0 18.3029
      vertex 14.4 0 20
    endloop
  endfacet
  facet normal 0.923879 0 -0.382684
    outer loop
      vertex 13.6971 0 18.3029
      vertex 14.4 -1.8 20
      vertex 13.6971 -1.8 18.3029
    endloop
  endfacet
  facet normal 0.382684 0 -0.923879
    outer loop
      vertex 12 -1.8 17.6
      vertex 13.6971 0 18.3029
      vertex 13.6971 -1.8 18.3029
    endloop
  endfacet
  facet normal 0.382684 0 -0.923879
    outer loop
      vertex 13.6971 0 18.3029
      vertex 12 -1.8 17.6
      vertex 12 0 17.6
    endloop
  endfacet
  facet normal -0.382684 0 -0.923879
    outer loop
      vertex 10.3029 -1.8 18.3029
      vertex 12 0 17.6
      vertex 12 -1.8 17.6
    endloop
  endfacet
  facet normal -0.382684 0 -0.923879
    outer loop
      vertex 12 0 17.6
      vertex 10.3029 -1.8 18.3029
      vertex 10.3029 0 18.3029
    endloop
  endfacet
  facet normal 0.92388 -0 0.382683
    outer loop
      vertex 21.6971 -1.8 5.69706
      vertex 22.1929 0 4.5
      vertex 21.6971 0 5.69706
    endloop
  endfacet
  facet normal 0.92388 0 0.382683
    outer loop
      vertex 22.1929 0 4.5
      vertex 21.6971 -1.8 5.69706
      vertex 22.1929 -1.8 4.5
    endloop
  endfacet
  facet normal -0.923879 0 0.382684
    outer loop
      vertex 17.8071 -1.8 4.5
      vertex 18.3029 0 5.69706
      vertex 17.8071 0 4.5
    endloop
  endfacet
  facet normal -0.923879 0 0.382684
    outer loop
      vertex 18.3029 0 5.69706
      vertex 17.8071 -1.8 4.5
      vertex 18.3029 -1.8 5.69706
    endloop
  endfacet
  facet normal 0.382684 0 0.923879
    outer loop
      vertex 20 0 6.4
      vertex 21.6971 -1.8 5.69706
      vertex 21.6971 0 5.69706
    endloop
  endfacet
  facet normal 0.382684 0 0.923879
    outer loop
      vertex 21.6971 -1.8 5.69706
      vertex 20 0 6.4
      vertex 20 -1.8 6.4
    endloop
  endfacet
  facet normal -0.382684 0 0.923879
    outer loop
      vertex 18.3029 0 5.69706
      vertex 20 -1.8 6.4
      vertex 20 0 6.4
    endloop
  endfacet
  facet normal -0.382684 0 0.923879
    outer loop
      vertex 20 -1.8 6.4
      vertex 18.3029 0 5.69706
      vertex 18.3029 -1.8 5.69706
    endloop
  endfacet
  facet normal 0 -1 0
    outer loop
      vertex 17.8071 -1.8 4.5
      vertex 20 -1.8 6.4
      vertex 18.3029 -1.8 5.69706
    endloop
  endfacet
  facet normal 0 -1 0
    outer loop
      vertex 22.1929 -1.8 4.5
      vertex 20 -1.8 6.4
      vertex 17.8071 -1.8 4.5
    endloop
  endfacet
  facet normal 0 -1 0
    outer loop
      vertex 20 -1.8 6.4
      vertex 22.1929 -1.8 4.5
      vertex 21.6971 -1.8 5.69706
    endloop
  endfacet
  facet normal 0.923879 -0 0.382684
    outer loop
      vertex 21.6971 -1.8 13.6971
      vertex 22.4 0 12
      vertex 21.6971 0 13.6971
    endloop
  endfacet
  facet normal 0.923879 0 0.382684
    outer loop
      vertex 22.4 0 12
      vertex 21.6971 -1.8 13.6971
      vertex 22.4 -1.8 12
    endloop
  endfacet
  facet normal -0.923879 0 -0.382684
    outer loop
      vertex 18.3029 -1.8 10.3029
      vertex 17.6 0 12
      vertex 18.3029 0 10.3029
    endloop
  endfacet
  facet normal -0.923879 -0 -0.382684
    outer loop
      vertex 17.6 0 12
      vertex 18.3029 -1.8 10.3029
      vertex 17.6 -1.8 12
    endloop
  endfacet
  facet normal -0.382684 0 0.923879
    outer loop
      vertex 18.3029 0 13.6971
      vertex 20 -1.8 14.4
      vertex 20 0 14.4
    endloop
  endfacet
  facet normal -0.382684 0 0.923879
    outer loop
      vertex 20 -1.8 14.4
      vertex 18.3029 0 13.6971
      vertex 18.3029 -1.8 13.6971
    endloop
  endfacet
  facet normal 0.382684 0 0.923879
    outer loop
      vertex 20 0 14.4
      vertex 21.6971 -1.8 13.6971
      vertex 21.6971 0 13.6971
    endloop
  endfacet
  facet normal 0.382684 0 0.923879
    outer loop
      vertex 21.6971 -1.8 13.6971
      vertex 20 0 14.4
      vertex 20 -1.8 14.4
    endloop
  endfacet
  facet normal 0 -1 0
    outer loop
      vertex 18.3029 -1.8 13.6971
      vertex 21.6971 -1.8 13.6971
      vertex 20 -1.8 14.4
    endloop
  endfacet
  facet normal 0 -1 0
    outer loop
      vertex 17.6 -1.8 12
      vertex 21.6971 -1.8 13.6971
      vertex 18.3029 -1.8 13.6971
    endloop
  endfacet
  facet normal 0 -1 0
    outer loop
      vertex 17.6 -1.8 12
      vertex 22.4 -1.8 12
      vertex 21.6971 -1.8 13.6971
    endloop
  endfacet
  facet normal 0 -1 0
    outer loop
      vertex 18.3029 -1.8 10.3029
      vertex 22.4 -1.8 12
      vertex 17.6 -1.8 12
    endloop
  endfacet
  facet normal 0 -1 0
    outer loop
      vertex 18.3029 -1.8 10.3029
      vertex 21.6971 -1.8 10.3029
      vertex 22.4 -1.8 12
    endloop
  endfacet
  facet normal -0 -1 0
    outer loop
      vertex 21.6971 -1.8 10.3029
      vertex 18.3029 -1.8 10.3029
      vertex 20 -1.8 9.6
    endloop
  endfacet
  facet normal -0.923879 0 0.382684
    outer loop
      vertex 17.6 -1.8 12
      vertex 18.3029 0 13.6971
      vertex 17.6 0 12
    endloop
  endfacet
  facet normal -0.923879 0 0.382684
    outer loop
      vertex 18.3029 0 13.6971
      vertex 17.6 -1.8 12
      vertex 18.3029 -1.8 13.6971
    endloop
  endfacet
  facet normal 0.92388 0 -0.382683
    outer loop
      vertex 22.4 -1.8 12
      vertex 21.6971 0 10.3029
      vertex 22.4 0 12
    endloop
  endfacet
  facet normal 0.92388 0 -0.382683
    outer loop
      vertex 21.6971 0 10.3029
      vertex 22.4 -1.8 12
      vertex 21.6971 -1.8 10.3029
    endloop
  endfacet
  facet normal 0.382684 0 -0.923879
    outer loop
      vertex 20 -1.8 9.6
      vertex 21.6971 0 10.3029
      vertex 21.6971 -1.8 10.3029
    endloop
  endfacet
  facet normal 0.382684 0 -0.923879
    outer loop
      vertex 21.6971 0 10.3029
      vertex 20 -1.8 9.6
      vertex 20 0 9.6
    endloop
  endfacet
  facet normal -0.382684 0 -0.923879
    outer loop
      vertex 18.3029 -1.8 10.3029
      vertex 20 0 9.6
      vertex 20 -1.8 9.6
    endloop
  endfacet
  facet normal -0.382684 0 -0.923879
    outer loop
      vertex 20 0 9.6
      vertex 18.3029 -1.8 10.3029
      vertex 18.3029 0 10.3029
    endloop
  endfacet
  facet normal 0.923879 -0 0.382684
    outer loop
      vertex 21.6971 -1.8 21.6971
      vertex 22.4 0 20
      vertex 21.6971 0 21.6971
    endloop
  endfacet
  facet normal 0.923879 0 0.382684
    outer loop
      vertex 22.4 0 20
      vertex 21.6971 -1.8 21.6971
      vertex 22.4 -1.8 20
    endloop
  endfacet
  facet normal -0.923879 0 -0.382684
    outer loop
      vertex 18.3029 -1.8 18.3029
      vertex 17.6 0 20
      vertex 18.3029 0 18.3029
    endloop
  endfacet
  facet normal -0.923879 -0 -0.382684
    outer loop
      vertex 17.6 0 20
      vertex 18.3029 -1.8 18.3029
      vertex 17.6 -1.8 20
    endloop
  endfacet
  facet normal -0.382684 0 0.923879
    outer loop
      vertex 18.3029 0 21.6971
      vertex 20 -1.8 22.4
      vertex 20 0 22.4
    endloop
  endfacet
  facet normal -0.382684 0 0.923879
    outer loop
      vertex 20 -1.8 22.4
      vertex 18.3029 0 21.6971
      vertex 18.3029 -1.8 21.6971
    endloop
  endfacet
  facet normal 0.382684 0 0.923879
    outer loop
      vertex 20 0 22.4
      vertex 21.6971 -1.8 21.6971
      vertex 21.6971 0 21.6971
    endloop
  endfacet
  facet normal 0.382684 0 0.923879
    outer loop
      vertex 21.6971 -1.8 21.6971
      vertex 20 0 22.4
      vertex 20 -1.8 22.4
    endloop
  endfacet
  facet normal 0 -1 0
    outer loop
      vertex 18.3029 -1.8 21.6971
      vertex 21.6971 -1.8 21.6971
      vertex 20 -1.8 22.4
    endloop
  endfacet
  facet normal 0 -1 0
    outer loop
      vertex 17.6 -1.8 20
      vertex 21.6971 -1.8 21.6971
      vertex 18.3029 -1.8 21.6971
    endloop
  endfacet
  facet normal 0 -1 0
    outer loop
      vertex 17.6 -1.8 20
      vertex 22.4 -1.8 20
      vertex 21.6971 -1.8 21.6971
    endloop
  endfacet
  facet normal 0 -1 0
    outer loop
      vertex 18.3029 -1.8 18.3029
      vertex 22.4 -1.8 20
      vertex 17.6 -1.8 20
    endloop
  endfacet
  facet normal 0 -1 0
    outer loop
      vertex 18.3029 -1.8 18.3029
      vertex 21.6971 -1.8 18.3029
      vertex 22.4 -1.8 20
    endloop
  endfacet
  facet normal -0 -1 0
    outer loop
      vertex 21.6971 -1.8 18.3029
      vertex 18.3029 -1.8 18.3029
      vertex 20 -1.8 17.6
    endloop
  endfacet
  facet normal -0.923879 0 0.382684
    outer loop
      vertex 17.6 -1.8 20
      vertex 18.3029 0 21.6971
      vertex 17.6 0 20
    endloop
  endfacet
  facet normal -0.923879 0 0.382684
    outer loop
      vertex 18.3029 0 21.6971
      vertex 17.6 -1.8 20
      vertex 18.3029 -1.8 21.6971
    endloop
  endfacet
  facet normal 0.923879 0 -0.382684
    outer loop
      vertex 22.4 -1.8 20
      vertex 21.6971 0 18.3029
      vertex 22.4 0 20
    endloop
  endfacet
  facet normal 0.923879 0 -0.382684
    outer loop
      vertex 21.6971 0 18.3029
      vertex 22.4 -1.8 20
      vertex 21.6971 -1.8 18.3029
    endloop
  endfacet
  facet normal 0.382684 0 -0.923879
    outer loop
      vertex 20 -1.8 17.6
      vertex 21.6971 0 18.3029
      vertex 21.6971 -1.8 18.3029
    endloop
  endfacet
  facet normal 0.382684 0 -0.923879
    outer loop
      vertex 21.6971 0 18.3029
      vertex 20 -1.8 17.6
      vertex 20 0 17.6
    endloop
  endfacet
  facet normal -0.382684 0 -0.923879
    outer loop
      vertex 18.3029 -1.8 18.3029
      vertex 20 0 17.6
      vertex 20 -1.8 17.6
    endloop
  endfacet
  facet normal -0.382684 0 -0.923879
    outer loop
      vertex 20 0 17.6
      vertex 18.3029 -1.8 18.3029
      vertex 18.3029 0 18.3029
    endloop
  endfacet
endsolid OpenSCAD_Model
