solid OpenSCAD_Model
  facet normal -0 0 1
    outer loop
      vertex -20 38.25 38.25
      vertex 30 12.75 38.25
      vertex 30 38.25 38.25
    endloop
  endfacet
  facet normal 0 0 1
    outer loop
      vertex 30 12.75 38.25
      vertex -20 38.25 38.25
      vertex -20 12.75 38.25
    endloop
  endfacet
  facet normal 0 1 -0
    outer loop
      vertex 30 38.25 12.75
      vertex -20 38.25 38.25
      vertex 30 38.25 38.25
    endloop
  endfacet
  facet normal 0 1 0
    outer loop
      vertex -20 38.25 38.25
      vertex 30 38.25 12.75
      vertex -20 38.25 12.75
    endloop
  endfacet
  facet normal 0 0 -1
    outer loop
      vertex -20 12.75 12.75
      vertex 30 38.25 12.75
      vertex 30 12.75 12.75
    endloop
  endfacet
  facet normal -0 0 -1
    outer loop
      vertex 30 38.25 12.75
      vertex -20 12.75 12.75
      vertex -20 38.25 12.75
    endloop
  endfacet
  facet normal 0 -1 0
    outer loop
      vertex -20 12.75 12.75
      vertex 30 12.75 38.25
      vertex -20 12.75 38.25
    endloop
  endfacet
  facet normal 0 -1 -0
    outer loop
      vertex 30 12.75 38.25
      vertex -20 12.75 12.75
      vertex 30 12.75 12.75
    endloop
  endfacet
  facet normal -1 0 0
    outer loop
      vertex -20 12.75 12.75
      vertex -20 38.25 38.25
      vertex -20 38.25 12.75
    endloop
  endfacet
  facet normal -1 -0 0
    outer loop
      vertex -20 38.25 38.25
      vertex -20 12.75 12.75
      vertex -20 12.75 38.25
    endloop
  endfacet
  facet normal -1 0 0
    outer loop
      vertex 30 46.25 4.75
      vertex 30 38.25 12.75
      vertex 30 46.25 46.25
    endloop
  endfacet
  facet normal -1 0 0
    outer loop
      vertex 30 46.25 4.75
      vertex 30 12.75 12.75
      vertex 30 38.25 12.75
    endloop
  endfacet
  facet normal -1 -0 0
    outer loop
      vertex 30 12.75 12.75
      vertex 30 4.75 4.75
      vertex 30 12.75 38.25
    endloop
  endfacet
  facet normal -1 0 0
    outer loop
      vertex 30 4.75 4.75
      vertex 30 12.75 12.75
      vertex 30 46.25 4.75
    endloop
  endfacet
  facet normal -1 0 0
    outer loop
      vertex 30 38.25 38.25
      vertex 30 46.25 46.25
      vertex 30 38.25 12.75
    endloop
  endfacet
  facet normal -1 0 0
    outer loop
      vertex 30 12.75 38.25
      vertex 30 46.25 46.25
      vertex 30 38.25 38.25
    endloop
  endfacet
  facet normal -1 0 0
    outer loop
      vertex 30 12.75 38.25
      vertex 30 4.75 46.25
      vertex 30 46.25 46.25
    endloop
  endfacet
  facet normal -1 0 0
    outer loop
      vertex 30 4.75 46.25
      vertex 30 12.75 38.25
      vertex 30 4.75 4.75
    endloop
  endfacet
  facet normal -0 0 1
    outer loop
      vertex 30 46.25 46.25
      vertex 38 4.75 46.25
      vertex 38 46.25 46.25
    endloop
  endfacet
  facet normal 0 0 1
    outer loop
      vertex 38 4.75 46.25
      vertex 30 46.25 46.25
      vertex 30 4.75 46.25
    endloop
  endfacet
  facet normal 1 -0 0
    outer loop
      vertex 38 4.75 46.25
      vertex 38 46.25 4.75
      vertex 38 46.25 46.25
    endloop
  endfacet
  facet normal 1 0 0
    outer loop
      vertex 38 46.25 4.75
      vertex 38 4.75 46.25
      vertex 38 4.75 4.75
    endloop
  endfacet
  facet normal 0 1 -0
    outer loop
      vertex 38 46.25 4.75
      vertex 30 46.25 46.25
      vertex 38 46.25 46.25
    endloop
  endfacet
  facet normal 0 1 0
    outer loop
      vertex 30 46.25 46.25
      vertex 38 46.25 4.75
      vertex 30 46.25 4.75
    endloop
  endfacet
  facet normal 0 0 -1
    outer loop
      vertex 30 4.75 4.75
      vertex 38 46.25 4.75
      vertex 38 4.75 4.75
    endloop
  endfacet
  facet normal -0 0 -1
    outer loop
      vertex 38 46.25 4.75
      vertex 30 4.75 4.75
      vertex 30 46.25 4.75
    endloop
  endfacet
  facet normal 0 -1 0
    outer loop
      vertex 30 4.75 4.75
      vertex 38 4.75 46.25
      vertex 30 4.75 46.25
    endloop
  endfacet
  facet normal 0 -1 -0
    outer loop
      vertex 38 4.75 46.25
      vertex 30 4.75 4.75
      vertex 38 4.75 4.75
    endloop
  endfacet
endsolid OpenSCAD_Model
