solid OpenSCAD_Model
  facet normal -1 0 0
    outer loop
      vertex 0 51 0
      vertex 0 39.75 11.25
      vertex 0 51 51
    endloop
  endfacet
  facet normal -1 0 0
    outer loop
      vertex 0 51 0
      vertex 0 11.25 11.25
      vertex 0 39.75 11.25
    endloop
  endfacet
  facet normal -1 0 0
    outer loop
      vertex 0 0 0
      vertex 0 11.25 11.25
      vertex 0 51 0
    endloop
  endfacet
  facet normal -1 0 0
    outer loop
      vertex 0 0 51
      vertex 0 11.25 11.25
      vertex 0 0 0
    endloop
  endfacet
  facet normal -1 0 0
    outer loop
      vertex 0 11.25 11.25
      vertex 0 0 51
      vertex 0 11.25 51
    endloop
  endfacet
  facet normal -1 -0 0
    outer loop
      vertex 0 51 51
      vertex 0 39.75 11.25
      vertex 0 39.75 51
    endloop
  endfacet
  facet normal 1 0 0
    outer loop
      vertex 30 11.25 47.75
      vertex 30 3.25 47.75
      vertex 30 11.25 11.25
    endloop
  endfacet
  facet normal 1 0 0
    outer loop
      vertex 30 39.75 11.25
      vertex 30 47.75 47.75
      vertex 30 39.75 47.75
    endloop
  endfacet
  facet normal 1 0 0
    outer loop
      vertex 30 47.75 47.75
      vertex 30 39.75 11.25
      vertex 30 47.75 3.25
    endloop
  endfacet
  facet normal 1 -0 0
    outer loop
      vertex 30 11.25 11.25
      vertex 30 47.75 3.25
      vertex 30 39.75 11.25
    endloop
  endfacet
  facet normal 1 0 0
    outer loop
      vertex 30 11.25 11.25
      vertex 30 3.25 3.25
      vertex 30 47.75 3.25
    endloop
  endfacet
  facet normal 1 0 0
    outer loop
      vertex 30 3.25 3.25
      vertex 30 11.25 11.25
      vertex 30 3.25 47.75
    endloop
  endfacet
  facet normal 0 -1 0
    outer loop
      vertex 0 39.75 51
      vertex 30 39.75 47.75
      vertex 40 39.75 51
    endloop
  endfacet
  facet normal 0 -1 0
    outer loop
      vertex 0 39.75 11.25
      vertex 30 39.75 47.75
      vertex 0 39.75 51
    endloop
  endfacet
  facet normal 0 -1 -0
    outer loop
      vertex 30 39.75 47.75
      vertex 0 39.75 11.25
      vertex 30 39.75 11.25
    endloop
  endfacet
  facet normal 0 -1 -0
    outer loop
      vertex 40 39.75 51
      vertex 30 39.75 47.75
      vertex 40 39.75 47.75
    endloop
  endfacet
  facet normal -0 0 1
    outer loop
      vertex 0 39.75 11.25
      vertex 30 11.25 11.25
      vertex 30 39.75 11.25
    endloop
  endfacet
  facet normal 0 0 1
    outer loop
      vertex 30 11.25 11.25
      vertex 0 39.75 11.25
      vertex 0 11.25 11.25
    endloop
  endfacet
  facet normal 0 1 0
    outer loop
      vertex 30 11.25 47.75
      vertex 40 11.25 51
      vertex 40 11.25 47.75
    endloop
  endfacet
  facet normal 0 1 0
    outer loop
      vertex 40 11.25 51
      vertex 30 11.25 47.75
      vertex 0 11.25 51
    endloop
  endfacet
  facet normal 0 1 0
    outer loop
      vertex 0 11.25 11.25
      vertex 30 11.25 47.75
      vertex 30 11.25 11.25
    endloop
  endfacet
  facet normal 0 1 0
    outer loop
      vertex 30 11.25 47.75
      vertex 0 11.25 11.25
      vertex 0 11.25 51
    endloop
  endfacet
  facet normal 0 0 -1
    outer loop
      vertex 30 3.25 47.75
      vertex 40 11.25 47.75
      vertex 40 3.25 47.75
    endloop
  endfacet
  facet normal -0 0 -1
    outer loop
      vertex 40 11.25 47.75
      vertex 30 3.25 47.75
      vertex 30 11.25 47.75
    endloop
  endfacet
  facet normal 0 0 -1
    outer loop
      vertex 30 39.75 47.75
      vertex 40 47.75 47.75
      vertex 40 39.75 47.75
    endloop
  endfacet
  facet normal -0 0 -1
    outer loop
      vertex 40 47.75 47.75
      vertex 30 39.75 47.75
      vertex 30 47.75 47.75
    endloop
  endfacet
  facet normal 0 -1 0
    outer loop
      vertex 30 47.75 47.75
      vertex 51.5 47.75 37
      vertex 40 47.75 47.75
    endloop
  endfacet
  facet normal 0 -1 0
    outer loop
      vertex 51.5 47.75 37
      vertex 51.5 47.75 24
      vertex 90 47.75 37
    endloop
  endfacet
  facet normal 0 -1 0
    outer loop
      vertex 30 47.75 47.75
      vertex 51.5 47.75 24
      vertex 51.5 47.75 37
    endloop
  endfacet
  facet normal 0 -1 0
    outer loop
      vertex 30 47.75 3.25
      vertex 51.5 47.75 24
      vertex 30 47.75 47.75
    endloop
  endfacet
  facet normal 0 -1 -0
    outer loop
      vertex 51.5 47.75 24
      vertex 30 47.75 3.25
      vertex 51.5 47.75 3.25
    endloop
  endfacet
  facet normal 0 -1 0
    outer loop
      vertex 40 47.75 47.75
      vertex 51.5 47.75 51
      vertex 40 47.75 51
    endloop
  endfacet
  facet normal 0 -1 -0
    outer loop
      vertex 51.5 47.75 51
      vertex 40 47.75 47.75
      vertex 51.5 47.75 37
    endloop
  endfacet
  facet normal 0 -1 -0
    outer loop
      vertex 90 47.75 37
      vertex 51.5 47.75 24
      vertex 90 47.75 24
    endloop
  endfacet
  facet normal -0 0 1
    outer loop
      vertex 30 47.75 3.25
      vertex 51.5 3.25 3.25
      vertex 51.5 47.75 3.25
    endloop
  endfacet
  facet normal 0 0 1
    outer loop
      vertex 51.5 3.25 3.25
      vertex 30 47.75 3.25
      vertex 30 3.25 3.25
    endloop
  endfacet
  facet normal 0 1 0
    outer loop
      vertex 90 3.25 37
      vertex 90 3.25 24
      vertex 51.5 3.25 37
    endloop
  endfacet
  facet normal 0 1 0
    outer loop
      vertex 51.5 3.25 51
      vertex 40 3.25 47.75
      vertex 40 3.25 51
    endloop
  endfacet
  facet normal 0 1 -0
    outer loop
      vertex 51.5 3.25 37
      vertex 40 3.25 47.75
      vertex 51.5 3.25 51
    endloop
  endfacet
  facet normal 0 1 0
    outer loop
      vertex 51.5 3.25 37
      vertex 30 3.25 47.75
      vertex 40 3.25 47.75
    endloop
  endfacet
  facet normal 0 1 0
    outer loop
      vertex 51.5 3.25 24
      vertex 51.5 3.25 37
      vertex 90 3.25 24
    endloop
  endfacet
  facet normal 0 1 -0
    outer loop
      vertex 51.5 3.25 24
      vertex 30 3.25 47.75
      vertex 51.5 3.25 37
    endloop
  endfacet
  facet normal 0 1 0
    outer loop
      vertex 30 3.25 3.25
      vertex 51.5 3.25 24
      vertex 51.5 3.25 3.25
    endloop
  endfacet
  facet normal 0 1 0
    outer loop
      vertex 51.5 3.25 24
      vertex 30 3.25 3.25
      vertex 30 3.25 47.75
    endloop
  endfacet
  facet normal 1 -0 0
    outer loop
      vertex 40 3.25 51
      vertex 40 11.25 47.75
      vertex 40 11.25 51
    endloop
  endfacet
  facet normal 1 0 0
    outer loop
      vertex 40 11.25 47.75
      vertex 40 3.25 51
      vertex 40 3.25 47.75
    endloop
  endfacet
  facet normal 1 -0 0
    outer loop
      vertex 40 39.75 51
      vertex 40 47.75 47.75
      vertex 40 47.75 51
    endloop
  endfacet
  facet normal 1 0 0
    outer loop
      vertex 40 47.75 47.75
      vertex 40 39.75 51
      vertex 40 39.75 47.75
    endloop
  endfacet
  facet normal -1 0 0
    outer loop
      vertex 51.5 47.75 3.25
      vertex 51.5 39.75 11.25
      vertex 51.5 47.75 24
    endloop
  endfacet
  facet normal -1 0 0
    outer loop
      vertex 51.5 47.75 3.25
      vertex 51.5 11.25 11.25
      vertex 51.5 39.75 11.25
    endloop
  endfacet
  facet normal -1 0 0
    outer loop
      vertex 51.5 3.25 3.25
      vertex 51.5 11.25 11.25
      vertex 51.5 47.75 3.25
    endloop
  endfacet
  facet normal -1 0 0
    outer loop
      vertex 51.5 3.25 24
      vertex 51.5 11.25 11.25
      vertex 51.5 3.25 3.25
    endloop
  endfacet
  facet normal -1 0 0
    outer loop
      vertex 51.5 11.25 11.25
      vertex 51.5 3.25 24
      vertex 51.5 11.25 24
    endloop
  endfacet
  facet normal -1 -0 0
    outer loop
      vertex 51.5 47.75 24
      vertex 51.5 39.75 11.25
      vertex 51.5 39.75 24
    endloop
  endfacet
  facet normal -1 0 0
    outer loop
      vertex 51.5 3.25 37
      vertex 51.5 11.25 51
      vertex 51.5 11.25 37
    endloop
  endfacet
  facet normal -1 -0 0
    outer loop
      vertex 51.5 11.25 51
      vertex 51.5 3.25 37
      vertex 51.5 3.25 51
    endloop
  endfacet
  facet normal -1 0 0
    outer loop
      vertex 51.5 39.75 37
      vertex 51.5 47.75 51
      vertex 51.5 47.75 37
    endloop
  endfacet
  facet normal -1 -0 0
    outer loop
      vertex 51.5 47.75 51
      vertex 51.5 39.75 37
      vertex 51.5 39.75 51
    endloop
  endfacet
  facet normal -1 0 0
    outer loop
      vertex 90 3.25 24
      vertex 90 11.25 37
      vertex 90 11.25 24
    endloop
  endfacet
  facet normal -1 -0 0
    outer loop
      vertex 90 11.25 37
      vertex 90 3.25 24
      vertex 90 3.25 37
    endloop
  endfacet
  facet normal -1 0 0
    outer loop
      vertex 90 27.2634 26.4271
      vertex 90 28.3532 35.8229
      vertex 90 28.3532 24.9271
    endloop
  endfacet
  facet normal -1 0 0
    outer loop
      vertex 90 27.2634 26.4271
      vertex 90 27.2634 34.3229
      vertex 90 28.3532 35.8229
    endloop
  endfacet
  facet normal -1 0 0
    outer loop
      vertex 90 25.5 27
      vertex 90 27.2634 34.3229
      vertex 90 27.2634 26.4271
    endloop
  endfacet
  facet normal -1 0 0
    outer loop
      vertex 90 25.5 27
      vertex 90 25.5 33.75
      vertex 90 27.2634 34.3229
    endloop
  endfacet
  facet normal -1 0 0
    outer loop
      vertex 90 23.7366 26.4271
      vertex 90 25.5 33.75
      vertex 90 25.5 27
    endloop
  endfacet
  facet normal -1 0 0
    outer loop
      vertex 90 23.7366 26.4271
      vertex 90 23.7366 34.3229
      vertex 90 25.5 33.75
    endloop
  endfacet
  facet normal -1 0 0
    outer loop
      vertex 90 22.6468 24.9271
      vertex 90 23.7366 34.3229
      vertex 90 23.7366 26.4271
    endloop
  endfacet
  facet normal -1 -0 0
    outer loop
      vertex 90 23.7366 34.3229
      vertex 90 22.6468 24.9271
      vertex 90 22.6468 35.8229
    endloop
  endfacet
  facet normal -1 0 0
    outer loop
      vertex 90 28.3532 23.0729
      vertex 90 39.75 24
      vertex 90 39.75 11.25
    endloop
  endfacet
  facet normal -1 0 0
    outer loop
      vertex 90 28.3532 35.8229
      vertex 90 39.75 24
      vertex 90 28.3532 24.9271
    endloop
  endfacet
  facet normal -1 -0 0
    outer loop
      vertex 90 39.75 24
      vertex 90 28.3532 23.0729
      vertex 90 28.3532 24.9271
    endloop
  endfacet
  facet normal -1 0 0
    outer loop
      vertex 90 39.75 11.25
      vertex 90 27.2634 21.5729
      vertex 90 28.3532 23.0729
    endloop
  endfacet
  facet normal -1 0 0
    outer loop
      vertex 90 39.75 11.25
      vertex 90 25.5 21
      vertex 90 27.2634 21.5729
    endloop
  endfacet
  facet normal -1 0 0
    outer loop
      vertex 90 11.25 11.25
      vertex 90 25.5 21
      vertex 90 39.75 11.25
    endloop
  endfacet
  facet normal -1 0 0
    outer loop
      vertex 90 11.25 24
      vertex 90 22.6468 24.9271
      vertex 90 22.6468 23.0729
    endloop
  endfacet
  facet normal -1 -0 0
    outer loop
      vertex 90 22.6468 24.9271
      vertex 90 11.25 24
      vertex 90 22.6468 35.8229
    endloop
  endfacet
  facet normal -1 0 0
    outer loop
      vertex 90 11.25 24
      vertex 90 22.6468 23.0729
      vertex 90 11.25 11.25
    endloop
  endfacet
  facet normal -1 -0 0
    outer loop
      vertex 90 23.7366 21.5729
      vertex 90 11.25 11.25
      vertex 90 22.6468 23.0729
    endloop
  endfacet
  facet normal -1 -0 0
    outer loop
      vertex 90 25.5 21
      vertex 90 11.25 11.25
      vertex 90 23.7366 21.5729
    endloop
  endfacet
  facet normal -1 0 0
    outer loop
      vertex 90 39.75 24
      vertex 90 47.75 37
      vertex 90 47.75 24
    endloop
  endfacet
  facet normal -1 -0 0
    outer loop
      vertex 90 47.75 37
      vertex 90 39.75 24
      vertex 90 39.75 37
    endloop
  endfacet
  facet normal -1 0 0
    outer loop
      vertex 90 39.75 24
      vertex 90 28.3532 35.8229
      vertex 90 39.75 37
    endloop
  endfacet
  facet normal -1 0 0
    outer loop
      vertex 90 28.3532 37.6771
      vertex 90 39.75 37
      vertex 90 28.3532 35.8229
    endloop
  endfacet
  facet normal -1 0 0
    outer loop
      vertex 90 27.2634 39.1771
      vertex 90 39.75 37
      vertex 90 28.3532 37.6771
    endloop
  endfacet
  facet normal -1 0 0
    outer loop
      vertex 90 39.75 37
      vertex 90 27.2634 39.1771
      vertex 90 39.75 51
    endloop
  endfacet
  facet normal -1 0 0
    outer loop
      vertex 90 25.5 39.75
      vertex 90 39.75 51
      vertex 90 27.2634 39.1771
    endloop
  endfacet
  facet normal -1 0 0
    outer loop
      vertex 90 11.25 51
      vertex 90 25.5 39.75
      vertex 90 23.7366 39.1771
    endloop
  endfacet
  facet normal -1 0 0
    outer loop
      vertex 90 11.25 37
      vertex 90 22.6468 35.8229
      vertex 90 11.25 24
    endloop
  endfacet
  facet normal -1 0 0
    outer loop
      vertex 90 22.6468 35.8229
      vertex 90 11.25 37
      vertex 90 22.6468 37.6771
    endloop
  endfacet
  facet normal -1 -0 0
    outer loop
      vertex 90 22.6468 37.6771
      vertex 90 11.25 37
      vertex 90 23.7366 39.1771
    endloop
  endfacet
  facet normal -1 0 0
    outer loop
      vertex 90 11.25 51
      vertex 90 23.7366 39.1771
      vertex 90 11.25 37
    endloop
  endfacet
  facet normal -1 0 0
    outer loop
      vertex 90 25.5 39.75
      vertex 90 11.25 51
      vertex 90 39.75 51
    endloop
  endfacet
  facet normal 0 -1 0
    outer loop
      vertex 51.5 39.75 11.25
      vertex 90 39.75 24
      vertex 51.5 39.75 24
    endloop
  endfacet
  facet normal 0 -1 -0
    outer loop
      vertex 90 39.75 24
      vertex 51.5 39.75 11.25
      vertex 90 39.75 11.25
    endloop
  endfacet
  facet normal 0 -1 0
    outer loop
      vertex 51.5 39.75 37
      vertex 90 39.75 51
      vertex 51.5 39.75 51
    endloop
  endfacet
  facet normal 0 -1 -0
    outer loop
      vertex 90 39.75 51
      vertex 51.5 39.75 37
      vertex 90 39.75 37
    endloop
  endfacet
  facet normal -0 0 1
    outer loop
      vertex 51.5 39.75 11.25
      vertex 90 11.25 11.25
      vertex 90 39.75 11.25
    endloop
  endfacet
  facet normal 0 0 1
    outer loop
      vertex 90 11.25 11.25
      vertex 51.5 39.75 11.25
      vertex 51.5 11.25 11.25
    endloop
  endfacet
  facet normal 0 1 -0
    outer loop
      vertex 90 11.25 11.25
      vertex 51.5 11.25 24
      vertex 90 11.25 24
    endloop
  endfacet
  facet normal 0 1 0
    outer loop
      vertex 51.5 11.25 24
      vertex 90 11.25 11.25
      vertex 51.5 11.25 11.25
    endloop
  endfacet
  facet normal 0 1 -0
    outer loop
      vertex 90 11.25 37
      vertex 51.5 11.25 51
      vertex 90 11.25 51
    endloop
  endfacet
  facet normal 0 1 0
    outer loop
      vertex 51.5 11.25 51
      vertex 90 11.25 37
      vertex 51.5 11.25 37
    endloop
  endfacet
  facet normal 0 0 -1
    outer loop
      vertex 51.5 3.25 37
      vertex 90 11.25 37
      vertex 90 3.25 37
    endloop
  endfacet
  facet normal -0 0 -1
    outer loop
      vertex 90 11.25 37
      vertex 51.5 3.25 37
      vertex 51.5 11.25 37
    endloop
  endfacet
  facet normal 0 0 -1
    outer loop
      vertex 51.5 39.75 37
      vertex 90 47.75 37
      vertex 90 39.75 37
    endloop
  endfacet
  facet normal -0 0 -1
    outer loop
      vertex 90 47.75 37
      vertex 51.5 39.75 37
      vertex 51.5 47.75 37
    endloop
  endfacet
  facet normal -0 0 1
    outer loop
      vertex 51.5 11.25 24
      vertex 90 3.25 24
      vertex 90 11.25 24
    endloop
  endfacet
  facet normal 0 0 1
    outer loop
      vertex 90 3.25 24
      vertex 51.5 11.25 24
      vertex 51.5 3.25 24
    endloop
  endfacet
  facet normal -0 0 1
    outer loop
      vertex 51.5 47.75 24
      vertex 90 39.75 24
      vertex 90 47.75 24
    endloop
  endfacet
  facet normal 0 0 1
    outer loop
      vertex 90 39.75 24
      vertex 51.5 47.75 24
      vertex 51.5 39.75 24
    endloop
  endfacet
  facet normal 0 0 1
    outer loop
      vertex 40 11.25 51
      vertex 0 11.25 51
      vertex 40 3.25 51
    endloop
  endfacet
  facet normal 0 0 1
    outer loop
      vertex 100 51 51
      vertex 90 39.75 51
      vertex 100 0 51
    endloop
  endfacet
  facet normal 0 0 1
    outer loop
      vertex 100 51 51
      vertex 51.5 47.75 51
      vertex 90 39.75 51
    endloop
  endfacet
  facet normal -0 0 1
    outer loop
      vertex 0 51 51
      vertex 51.5 47.75 51
      vertex 100 51 51
    endloop
  endfacet
  facet normal 0 0 1
    outer loop
      vertex 51.5 47.75 51
      vertex 0 51 51
      vertex 40 47.75 51
    endloop
  endfacet
  facet normal 0 0 1
    outer loop
      vertex 0 39.75 51
      vertex 40 47.75 51
      vertex 0 51 51
    endloop
  endfacet
  facet normal 0 0 1
    outer loop
      vertex 40 47.75 51
      vertex 0 39.75 51
      vertex 40 39.75 51
    endloop
  endfacet
  facet normal -0 0 1
    outer loop
      vertex 90 11.25 51
      vertex 100 0 51
      vertex 90 39.75 51
    endloop
  endfacet
  facet normal 0 0 1
    outer loop
      vertex 51.5 3.25 51
      vertex 90 11.25 51
      vertex 51.5 11.25 51
    endloop
  endfacet
  facet normal 0 0 1
    outer loop
      vertex 90 11.25 51
      vertex 51.5 3.25 51
      vertex 100 0 51
    endloop
  endfacet
  facet normal 0 0 1
    outer loop
      vertex 0 0 51
      vertex 51.5 3.25 51
      vertex 40 3.25 51
    endloop
  endfacet
  facet normal 0 0 1
    outer loop
      vertex 51.5 3.25 51
      vertex 0 0 51
      vertex 100 0 51
    endloop
  endfacet
  facet normal 0 0 1
    outer loop
      vertex 0 0 51
      vertex 40 3.25 51
      vertex 0 11.25 51
    endloop
  endfacet
  facet normal 0 0 1
    outer loop
      vertex 90 39.75 51
      vertex 51.5 47.75 51
      vertex 51.5 39.75 51
    endloop
  endfacet
  facet normal 1 -0 0
    outer loop
      vertex 100 0 51
      vertex 100 51 0
      vertex 100 51 51
    endloop
  endfacet
  facet normal 1 0 0
    outer loop
      vertex 100 51 0
      vertex 100 0 51
      vertex 100 0 0
    endloop
  endfacet
  facet normal 0 1 -0
    outer loop
      vertex 100 51 0
      vertex 0 51 51
      vertex 100 51 51
    endloop
  endfacet
  facet normal 0 1 0
    outer loop
      vertex 0 51 51
      vertex 100 51 0
      vertex 0 51 0
    endloop
  endfacet
  facet normal 0 0 -1
    outer loop
      vertex 0 0 0
      vertex 100 51 0
      vertex 100 0 0
    endloop
  endfacet
  facet normal -0 0 -1
    outer loop
      vertex 100 51 0
      vertex 0 0 0
      vertex 0 51 0
    endloop
  endfacet
  facet normal 0 -1 0
    outer loop
      vertex 0 0 0
      vertex 100 0 51
      vertex 0 0 51
    endloop
  endfacet
  facet normal 0 -1 -0
    outer loop
      vertex 100 0 51
      vertex 0 0 0
      vertex 100 0 0
    endloop
  endfacet
  facet normal 0 0.309017 -0.951057
    outer loop
      vertex 88 25.5 33.75
      vertex 90 27.2634 34.3229
      vertex 90 25.5 33.75
    endloop
  endfacet
  facet normal 0 0.309017 -0.951057
    outer loop
      vertex 90 27.2634 34.3229
      vertex 88 25.5 33.75
      vertex 88 27.2634 34.3229
    endloop
  endfacet
  facet normal -0 0.309017 0.951057
    outer loop
      vertex 88 27.2634 39.1771
      vertex 90 25.5 39.75
      vertex 90 27.2634 39.1771
    endloop
  endfacet
  facet normal 0 0.309017 0.951057
    outer loop
      vertex 90 25.5 39.75
      vertex 88 27.2634 39.1771
      vertex 88 25.5 39.75
    endloop
  endfacet
  facet normal 0 0.809017 -0.587785
    outer loop
      vertex 90 27.2634 34.3229
      vertex 88 28.3532 35.8229
      vertex 90 28.3532 35.8229
    endloop
  endfacet
  facet normal 0 0.809017 -0.587785
    outer loop
      vertex 88 28.3532 35.8229
      vertex 90 27.2634 34.3229
      vertex 88 27.2634 34.3229
    endloop
  endfacet
  facet normal 0 0.809017 0.587785
    outer loop
      vertex 90 28.3532 37.6771
      vertex 88 27.2634 39.1771
      vertex 90 27.2634 39.1771
    endloop
  endfacet
  facet normal 0 0.809017 0.587785
    outer loop
      vertex 88 27.2634 39.1771
      vertex 90 28.3532 37.6771
      vertex 88 28.3532 37.6771
    endloop
  endfacet
  facet normal 0 -0.309017 0.951057
    outer loop
      vertex 88 25.5 39.75
      vertex 90 23.7366 39.1771
      vertex 90 25.5 39.75
    endloop
  endfacet
  facet normal 0 -0.309017 0.951057
    outer loop
      vertex 90 23.7366 39.1771
      vertex 88 25.5 39.75
      vertex 88 23.7366 39.1771
    endloop
  endfacet
  facet normal -1 0 0
    outer loop
      vertex 88 27.2634 34.3229
      vertex 88 28.3532 37.6771
      vertex 88 28.3532 35.8229
    endloop
  endfacet
  facet normal -1 0 0
    outer loop
      vertex 88 27.2634 34.3229
      vertex 88 27.2634 39.1771
      vertex 88 28.3532 37.6771
    endloop
  endfacet
  facet normal -1 0 0
    outer loop
      vertex 88 25.5 33.75
      vertex 88 27.2634 39.1771
      vertex 88 27.2634 34.3229
    endloop
  endfacet
  facet normal -1 0 0
    outer loop
      vertex 88 25.5 33.75
      vertex 88 25.5 39.75
      vertex 88 27.2634 39.1771
    endloop
  endfacet
  facet normal -1 0 0
    outer loop
      vertex 88 23.7366 34.3229
      vertex 88 25.5 39.75
      vertex 88 25.5 33.75
    endloop
  endfacet
  facet normal -1 0 0
    outer loop
      vertex 88 23.7366 34.3229
      vertex 88 23.7366 39.1771
      vertex 88 25.5 39.75
    endloop
  endfacet
  facet normal -1 0 0
    outer loop
      vertex 88 22.6468 35.8229
      vertex 88 23.7366 39.1771
      vertex 88 23.7366 34.3229
    endloop
  endfacet
  facet normal -1 0 0
    outer loop
      vertex 88 23.7366 39.1771
      vertex 88 22.6468 35.8229
      vertex 88 22.6468 37.6771
    endloop
  endfacet
  facet normal 0 1 -0
    outer loop
      vertex 90 28.3532 35.8229
      vertex 88 28.3532 37.6771
      vertex 90 28.3532 37.6771
    endloop
  endfacet
  facet normal 0 1 0
    outer loop
      vertex 88 28.3532 37.6771
      vertex 90 28.3532 35.8229
      vertex 88 28.3532 35.8229
    endloop
  endfacet
  facet normal 0 -1 0
    outer loop
      vertex 88 22.6468 35.8229
      vertex 90 22.6468 37.6771
      vertex 88 22.6468 37.6771
    endloop
  endfacet
  facet normal 0 -1 -0
    outer loop
      vertex 90 22.6468 37.6771
      vertex 88 22.6468 35.8229
      vertex 90 22.6468 35.8229
    endloop
  endfacet
  facet normal 0 -0.809017 -0.587786
    outer loop
      vertex 88 23.7366 34.3229
      vertex 90 22.6468 35.8229
      vertex 88 22.6468 35.8229
    endloop
  endfacet
  facet normal 0 -0.809017 -0.587786
    outer loop
      vertex 90 22.6468 35.8229
      vertex 88 23.7366 34.3229
      vertex 90 23.7366 34.3229
    endloop
  endfacet
  facet normal 0 -0.809017 0.587786
    outer loop
      vertex 88 22.6468 37.6771
      vertex 90 23.7366 39.1771
      vertex 88 23.7366 39.1771
    endloop
  endfacet
  facet normal 0 -0.809017 0.587786
    outer loop
      vertex 90 23.7366 39.1771
      vertex 88 22.6468 37.6771
      vertex 90 22.6468 37.6771
    endloop
  endfacet
  facet normal 0 -0.309017 -0.951057
    outer loop
      vertex 88 23.7366 34.3229
      vertex 90 25.5 33.75
      vertex 90 23.7366 34.3229
    endloop
  endfacet
  facet normal -0 -0.309017 -0.951057
    outer loop
      vertex 90 25.5 33.75
      vertex 88 23.7366 34.3229
      vertex 88 25.5 33.75
    endloop
  endfacet
  facet normal 0 0.309017 -0.951057
    outer loop
      vertex 88 25.5 21
      vertex 90 27.2634 21.5729
      vertex 90 25.5 21
    endloop
  endfacet
  facet normal 0 0.309017 -0.951057
    outer loop
      vertex 90 27.2634 21.5729
      vertex 88 25.5 21
      vertex 88 27.2634 21.5729
    endloop
  endfacet
  facet normal -0 0.309017 0.951057
    outer loop
      vertex 88 27.2634 26.4271
      vertex 90 25.5 27
      vertex 90 27.2634 26.4271
    endloop
  endfacet
  facet normal 0 0.309017 0.951057
    outer loop
      vertex 90 25.5 27
      vertex 88 27.2634 26.4271
      vertex 88 25.5 27
    endloop
  endfacet
  facet normal 0 0.809017 -0.587785
    outer loop
      vertex 90 27.2634 21.5729
      vertex 88 28.3532 23.0729
      vertex 90 28.3532 23.0729
    endloop
  endfacet
  facet normal 0 0.809017 -0.587785
    outer loop
      vertex 88 28.3532 23.0729
      vertex 90 27.2634 21.5729
      vertex 88 27.2634 21.5729
    endloop
  endfacet
  facet normal 0 0.809017 0.587785
    outer loop
      vertex 90 28.3532 24.9271
      vertex 88 27.2634 26.4271
      vertex 90 27.2634 26.4271
    endloop
  endfacet
  facet normal 0 0.809017 0.587785
    outer loop
      vertex 88 27.2634 26.4271
      vertex 90 28.3532 24.9271
      vertex 88 28.3532 24.9271
    endloop
  endfacet
  facet normal 0 -0.309017 0.951057
    outer loop
      vertex 88 25.5 27
      vertex 90 23.7366 26.4271
      vertex 90 25.5 27
    endloop
  endfacet
  facet normal 0 -0.309017 0.951057
    outer loop
      vertex 90 23.7366 26.4271
      vertex 88 25.5 27
      vertex 88 23.7366 26.4271
    endloop
  endfacet
  facet normal -1 0 0
    outer loop
      vertex 88 27.2634 21.5729
      vertex 88 28.3532 24.9271
      vertex 88 28.3532 23.0729
    endloop
  endfacet
  facet normal -1 0 0
    outer loop
      vertex 88 27.2634 21.5729
      vertex 88 27.2634 26.4271
      vertex 88 28.3532 24.9271
    endloop
  endfacet
  facet normal -1 0 0
    outer loop
      vertex 88 25.5 21
      vertex 88 27.2634 26.4271
      vertex 88 27.2634 21.5729
    endloop
  endfacet
  facet normal -1 0 0
    outer loop
      vertex 88 25.5 21
      vertex 88 25.5 27
      vertex 88 27.2634 26.4271
    endloop
  endfacet
  facet normal -1 0 0
    outer loop
      vertex 88 23.7366 21.5729
      vertex 88 25.5 27
      vertex 88 25.5 21
    endloop
  endfacet
  facet normal -1 0 0
    outer loop
      vertex 88 23.7366 21.5729
      vertex 88 23.7366 26.4271
      vertex 88 25.5 27
    endloop
  endfacet
  facet normal -1 0 0
    outer loop
      vertex 88 22.6468 23.0729
      vertex 88 23.7366 26.4271
      vertex 88 23.7366 21.5729
    endloop
  endfacet
  facet normal -1 0 0
    outer loop
      vertex 88 23.7366 26.4271
      vertex 88 22.6468 23.0729
      vertex 88 22.6468 24.9271
    endloop
  endfacet
  facet normal 0 1 -0
    outer loop
      vertex 90 28.3532 23.0729
      vertex 88 28.3532 24.9271
      vertex 90 28.3532 24.9271
    endloop
  endfacet
  facet normal 0 1 0
    outer loop
      vertex 88 28.3532 24.9271
      vertex 90 28.3532 23.0729
      vertex 88 28.3532 23.0729
    endloop
  endfacet
  facet normal 0 -1 0
    outer loop
      vertex 88 22.6468 23.0729
      vertex 90 22.6468 24.9271
      vertex 88 22.6468 24.9271
    endloop
  endfacet
  facet normal 0 -1 -0
    outer loop
      vertex 90 22.6468 24.9271
      vertex 88 22.6468 23.0729
      vertex 90 22.6468 23.0729
    endloop
  endfacet
  facet normal 0 -0.809017 0.587786
    outer loop
      vertex 88 22.6468 24.9271
      vertex 90 23.7366 26.4271
      vertex 88 23.7366 26.4271
    endloop
  endfacet
  facet normal 0 -0.809017 0.587786
    outer loop
      vertex 90 23.7366 26.4271
      vertex 88 22.6468 24.9271
      vertex 90 22.6468 24.9271
    endloop
  endfacet
  facet normal 0 -0.809017 -0.587786
    outer loop
      vertex 88 23.7366 21.5729
      vertex 90 22.6468 23.0729
      vertex 88 22.6468 23.0729
    endloop
  endfacet
  facet normal 0 -0.809017 -0.587786
    outer loop
      vertex 90 22.6468 23.0729
      vertex 88 23.7366 21.5729
      vertex 90 23.7366 21.5729
    endloop
  endfacet
  facet normal 0 -0.309017 -0.951057
    outer loop
      vertex 88 23.7366 21.5729
      vertex 90 25.5 21
      vertex 90 23.7366 21.5729
    endloop
  endfacet
  facet normal -0 -0.309017 -0.951057
    outer loop
      vertex 90 25.5 21
      vertex 88 23.7366 21.5729
      vertex 88 25.5 21
    endloop
  endfacet
endsolid OpenSCAD_Model
