solid OpenSCAD_Model
  facet normal -1 0 0
    outer loop
      vertex 53 12.75 12.75
      vertex 53 38.25 63.75
      vertex 53 38.25 12.75
    endloop
  endfacet
  facet normal -1 -0 0
    outer loop
      vertex 53 38.25 63.75
      vertex 53 12.75 12.75
      vertex 53 12.75 63.75
    endloop
  endfacet
  facet normal -0 0 1
    outer loop
      vertex 53 38.25 63.75
      vertex 87 12.75 63.75
      vertex 87 38.25 63.75
    endloop
  endfacet
  facet normal 0 0 1
    outer loop
      vertex 87 12.75 63.75
      vertex 53 38.25 63.75
      vertex 53 12.75 63.75
    endloop
  endfacet
  facet normal 1 0 0
    outer loop
      vertex 87 38.25 12.75
      vertex 87 28.6837 35.296
      vertex 87 28.9644 24.4981
    endloop
  endfacet
  facet normal 1 0 0
    outer loop
      vertex 87 28.6837 35.296
      vertex 87 28.1451 26.292
      vertex 87 28.9644 24.4981
    endloop
  endfacet
  facet normal 1 -0 0
    outer loop
      vertex 87 27.3922 33.8056
      vertex 87 28.1451 26.292
      vertex 87 28.6837 35.296
    endloop
  endfacet
  facet normal 1 0 0
    outer loop
      vertex 87 27.3922 33.8056
      vertex 87 26.4861 27.3582
      vertex 87 28.1451 26.292
    endloop
  endfacet
  facet normal 1 -0 0
    outer loop
      vertex 87 25.5 33.25
      vertex 87 26.4861 27.3582
      vertex 87 27.3922 33.8056
    endloop
  endfacet
  facet normal 1 0 0
    outer loop
      vertex 87 25.5 33.25
      vertex 87 24.5139 27.3582
      vertex 87 26.4861 27.3582
    endloop
  endfacet
  facet normal 1 0 0
    outer loop
      vertex 87 23.6078 33.8056
      vertex 87 24.5139 27.3582
      vertex 87 25.5 33.25
    endloop
  endfacet
  facet normal 1 0 0
    outer loop
      vertex 87 23.6078 33.8056
      vertex 87 22.8549 26.292
      vertex 87 24.5139 27.3582
    endloop
  endfacet
  facet normal 1 0 0
    outer loop
      vertex 87 22.3163 35.296
      vertex 87 22.8549 26.292
      vertex 87 23.6078 33.8056
    endloop
  endfacet
  facet normal 1 0 0
    outer loop
      vertex 87 12.75 12.75
      vertex 87 22.3163 35.296
      vertex 87 22.0356 37.2481
    endloop
  endfacet
  facet normal 1 0 0
    outer loop
      vertex 87 22.3163 35.296
      vertex 87 22.0356 24.4981
      vertex 87 22.8549 26.292
    endloop
  endfacet
  facet normal 1 0 0
    outer loop
      vertex 87 38.25 63.75
      vertex 87 28.9644 37.2481
      vertex 87 38.25 12.75
    endloop
  endfacet
  facet normal 1 0 0
    outer loop
      vertex 87 38.25 63.75
      vertex 87 28.1451 39.042
      vertex 87 28.9644 37.2481
    endloop
  endfacet
  facet normal 1 0 0
    outer loop
      vertex 87 38.25 63.75
      vertex 87 26.4861 40.1082
      vertex 87 28.1451 39.042
    endloop
  endfacet
  facet normal 1 0 0
    outer loop
      vertex 87 38.25 63.75
      vertex 87 24.5139 40.1082
      vertex 87 26.4861 40.1082
    endloop
  endfacet
  facet normal 1 -0 0
    outer loop
      vertex 87 12.75 63.75
      vertex 87 24.5139 40.1082
      vertex 87 38.25 63.75
    endloop
  endfacet
  facet normal 1 0 0
    outer loop
      vertex 87 12.75 12.75
      vertex 87 22.0356 37.2481
      vertex 87 12.75 63.75
    endloop
  endfacet
  facet normal 1 0 0
    outer loop
      vertex 87 22.8549 39.042
      vertex 87 12.75 63.75
      vertex 87 22.0356 37.2481
    endloop
  endfacet
  facet normal 1 0 0
    outer loop
      vertex 87 24.5139 40.1082
      vertex 87 12.75 63.75
      vertex 87 22.8549 39.042
    endloop
  endfacet
  facet normal 1 -0 0
    outer loop
      vertex 87 28.6837 35.296
      vertex 87 38.25 12.75
      vertex 87 28.9644 37.2481
    endloop
  endfacet
  facet normal 1 -0 0
    outer loop
      vertex 87 28.6837 22.546
      vertex 87 38.25 12.75
      vertex 87 28.9644 24.4981
    endloop
  endfacet
  facet normal 1 -0 0
    outer loop
      vertex 87 27.3922 21.0556
      vertex 87 38.25 12.75
      vertex 87 28.6837 22.546
    endloop
  endfacet
  facet normal 1 -0 0
    outer loop
      vertex 87 25.5 20.5
      vertex 87 38.25 12.75
      vertex 87 27.3922 21.0556
    endloop
  endfacet
  facet normal 1 0 0
    outer loop
      vertex 87 12.75 12.75
      vertex 87 25.5 20.5
      vertex 87 23.6078 21.0556
    endloop
  endfacet
  facet normal 1 0 0
    outer loop
      vertex 87 22.3163 35.296
      vertex 87 12.75 12.75
      vertex 87 22.0356 24.4981
    endloop
  endfacet
  facet normal 1 0 0
    outer loop
      vertex 87 25.5 20.5
      vertex 87 12.75 12.75
      vertex 87 38.25 12.75
    endloop
  endfacet
  facet normal 1 0 0
    outer loop
      vertex 87 22.3163 22.546
      vertex 87 12.75 12.75
      vertex 87 23.6078 21.0556
    endloop
  endfacet
  facet normal 1 0 0
    outer loop
      vertex 87 22.0356 24.4981
      vertex 87 12.75 12.75
      vertex 87 22.3163 22.546
    endloop
  endfacet
  facet normal 0 1 0
    outer loop
      vertex 87 38.25 63.75
      vertex 75 38.25 35.5
      vertex 53 38.25 63.75
    endloop
  endfacet
  facet normal 0 1 -0
    outer loop
      vertex 87 38.25 12.75
      vertex 75 38.25 35.5
      vertex 87 38.25 63.75
    endloop
  endfacet
  facet normal 0 1 0
    outer loop
      vertex 75 38.25 25.5
      vertex 87 38.25 12.75
      vertex 65 38.25 25.5
    endloop
  endfacet
  facet normal 0 1 0
    outer loop
      vertex 75 38.25 35.5
      vertex 87 38.25 12.75
      vertex 75 38.25 25.5
    endloop
  endfacet
  facet normal 0 1 -0
    outer loop
      vertex 65 38.25 35.5
      vertex 53 38.25 63.75
      vertex 75 38.25 35.5
    endloop
  endfacet
  facet normal 0 1 0
    outer loop
      vertex 53 38.25 12.75
      vertex 65 38.25 35.5
      vertex 65 38.25 25.5
    endloop
  endfacet
  facet normal 0 1 0
    outer loop
      vertex 65 38.25 35.5
      vertex 53 38.25 12.75
      vertex 53 38.25 63.75
    endloop
  endfacet
  facet normal 0 1 0
    outer loop
      vertex 53 38.25 12.75
      vertex 65 38.25 25.5
      vertex 87 38.25 12.75
    endloop
  endfacet
  facet normal 0 0 -1
    outer loop
      vertex 53 12.75 12.75
      vertex 87 38.25 12.75
      vertex 87 12.75 12.75
    endloop
  endfacet
  facet normal -0 0 -1
    outer loop
      vertex 87 38.25 12.75
      vertex 53 12.75 12.75
      vertex 53 38.25 12.75
    endloop
  endfacet
  facet normal 0 -1 0
    outer loop
      vertex 53 12.75 63.75
      vertex 65 12.75 35.5
      vertex 87 12.75 63.75
    endloop
  endfacet
  facet normal 0 -1 0
    outer loop
      vertex 53 12.75 12.75
      vertex 65 12.75 35.5
      vertex 53 12.75 63.75
    endloop
  endfacet
  facet normal 0 -1 -0
    outer loop
      vertex 65 12.75 25.5
      vertex 53 12.75 12.75
      vertex 75 12.75 25.5
    endloop
  endfacet
  facet normal 0 -1 -0
    outer loop
      vertex 65 12.75 35.5
      vertex 53 12.75 12.75
      vertex 65 12.75 25.5
    endloop
  endfacet
  facet normal 0 -1 0
    outer loop
      vertex 75 12.75 35.5
      vertex 87 12.75 63.75
      vertex 65 12.75 35.5
    endloop
  endfacet
  facet normal 0 -1 0
    outer loop
      vertex 87 12.75 12.75
      vertex 75 12.75 35.5
      vertex 75 12.75 25.5
    endloop
  endfacet
  facet normal 0 -1 0
    outer loop
      vertex 75 12.75 35.5
      vertex 87 12.75 12.75
      vertex 87 12.75 63.75
    endloop
  endfacet
  facet normal 0 -1 0
    outer loop
      vertex 87 12.75 12.75
      vertex 75 12.75 25.5
      vertex 53 12.75 12.75
    endloop
  endfacet
  facet normal -1 0 0
    outer loop
      vertex 65 4.75 25.5
      vertex 65 12.75 35.5
      vertex 65 12.75 25.5
    endloop
  endfacet
  facet normal -1 -0 0
    outer loop
      vertex 65 12.75 35.5
      vertex 65 4.75 25.5
      vertex 65 4.75 35.5
    endloop
  endfacet
  facet normal -1 0 0
    outer loop
      vertex 65 38.25 25.5
      vertex 65 46.25 35.5
      vertex 65 46.25 25.5
    endloop
  endfacet
  facet normal -1 -0 0
    outer loop
      vertex 65 46.25 35.5
      vertex 65 38.25 25.5
      vertex 65 38.25 35.5
    endloop
  endfacet
  facet normal -0 0 1
    outer loop
      vertex 65 12.75 35.5
      vertex 75 4.75 35.5
      vertex 75 12.75 35.5
    endloop
  endfacet
  facet normal 0 0 1
    outer loop
      vertex 75 4.75 35.5
      vertex 65 12.75 35.5
      vertex 65 4.75 35.5
    endloop
  endfacet
  facet normal -0 0 1
    outer loop
      vertex 65 46.25 35.5
      vertex 75 38.25 35.5
      vertex 75 46.25 35.5
    endloop
  endfacet
  facet normal 0 0 1
    outer loop
      vertex 75 38.25 35.5
      vertex 65 46.25 35.5
      vertex 65 38.25 35.5
    endloop
  endfacet
  facet normal 1 -0 0
    outer loop
      vertex 75 4.75 35.5
      vertex 75 12.75 25.5
      vertex 75 12.75 35.5
    endloop
  endfacet
  facet normal 1 0 0
    outer loop
      vertex 75 12.75 25.5
      vertex 75 4.75 35.5
      vertex 75 4.75 25.5
    endloop
  endfacet
  facet normal 1 -0 0
    outer loop
      vertex 75 38.25 35.5
      vertex 75 46.25 25.5
      vertex 75 46.25 35.5
    endloop
  endfacet
  facet normal 1 0 0
    outer loop
      vertex 75 46.25 25.5
      vertex 75 38.25 35.5
      vertex 75 38.25 25.5
    endloop
  endfacet
  facet normal 0 1 -0
    outer loop
      vertex 75 46.25 25.5
      vertex 65 46.25 35.5
      vertex 75 46.25 35.5
    endloop
  endfacet
  facet normal 0 1 0
    outer loop
      vertex 65 46.25 35.5
      vertex 75 46.25 25.5
      vertex 65 46.25 25.5
    endloop
  endfacet
  facet normal 0 0 -1
    outer loop
      vertex 65 38.25 25.5
      vertex 75 46.25 25.5
      vertex 75 38.25 25.5
    endloop
  endfacet
  facet normal -0 0 -1
    outer loop
      vertex 75 46.25 25.5
      vertex 65 38.25 25.5
      vertex 65 46.25 25.5
    endloop
  endfacet
  facet normal 0 0 -1
    outer loop
      vertex 65 4.75 25.5
      vertex 75 12.75 25.5
      vertex 75 4.75 25.5
    endloop
  endfacet
  facet normal -0 0 -1
    outer loop
      vertex 75 12.75 25.5
      vertex 65 4.75 25.5
      vertex 65 12.75 25.5
    endloop
  endfacet
  facet normal 0 -1 0
    outer loop
      vertex 65 4.75 25.5
      vertex 75 4.75 35.5
      vertex 65 4.75 35.5
    endloop
  endfacet
  facet normal 0 -1 -0
    outer loop
      vertex 75 4.75 35.5
      vertex 65 4.75 25.5
      vertex 75 4.75 25.5
    endloop
  endfacet
  facet normal 0 -0.281732 0.959493
    outer loop
      vertex 83 27.3922 33.8056
      vertex 87 25.5 33.25
      vertex 87 27.3922 33.8056
    endloop
  endfacet
  facet normal 0 -0.281732 0.959493
    outer loop
      vertex 87 25.5 33.25
      vertex 83 27.3922 33.8056
      vertex 83 25.5 33.25
    endloop
  endfacet
  facet normal 0 0 -1
    outer loop
      vertex 83 24.5139 40.1082
      vertex 87 26.4861 40.1082
      vertex 87 24.5139 40.1082
    endloop
  endfacet
  facet normal -0 0 -1
    outer loop
      vertex 87 26.4861 40.1082
      vertex 83 24.5139 40.1082
      vertex 83 26.4861 40.1082
    endloop
  endfacet
  facet normal 0 0.54064 -0.841254
    outer loop
      vertex 83 22.8549 39.042
      vertex 87 24.5139 40.1082
      vertex 87 22.8549 39.042
    endloop
  endfacet
  facet normal 0 0.54064 -0.841254
    outer loop
      vertex 87 24.5139 40.1082
      vertex 83 22.8549 39.042
      vertex 83 24.5139 40.1082
    endloop
  endfacet
  facet normal 0 -0.909632 -0.415415
    outer loop
      vertex 83 28.9644 37.2481
      vertex 87 28.1451 39.042
      vertex 83 28.1451 39.042
    endloop
  endfacet
  facet normal 0 -0.909632 -0.415415
    outer loop
      vertex 87 28.1451 39.042
      vertex 83 28.9644 37.2481
      vertex 87 28.9644 37.2481
    endloop
  endfacet
  facet normal 0 -0.54064 -0.841254
    outer loop
      vertex 83 26.4861 40.1082
      vertex 87 28.1451 39.042
      vertex 87 26.4861 40.1082
    endloop
  endfacet
  facet normal -0 -0.54064 -0.841254
    outer loop
      vertex 87 28.1451 39.042
      vertex 83 26.4861 40.1082
      vertex 83 28.1451 39.042
    endloop
  endfacet
  facet normal 0 -0.75575 0.65486
    outer loop
      vertex 83 27.3922 33.8056
      vertex 87 28.6837 35.296
      vertex 83 28.6837 35.296
    endloop
  endfacet
  facet normal 0 -0.75575 0.65486
    outer loop
      vertex 87 28.6837 35.296
      vertex 83 27.3922 33.8056
      vertex 87 27.3922 33.8056
    endloop
  endfacet
  facet normal 0 0.75575 0.65486
    outer loop
      vertex 87 23.6078 33.8056
      vertex 83 22.3163 35.296
      vertex 87 22.3163 35.296
    endloop
  endfacet
  facet normal 0 0.75575 0.65486
    outer loop
      vertex 83 22.3163 35.296
      vertex 87 23.6078 33.8056
      vertex 83 23.6078 33.8056
    endloop
  endfacet
  facet normal 0 -0.989821 0.142315
    outer loop
      vertex 83 28.6837 35.296
      vertex 87 28.9644 37.2481
      vertex 83 28.9644 37.2481
    endloop
  endfacet
  facet normal 0 -0.989821 0.142315
    outer loop
      vertex 87 28.9644 37.2481
      vertex 83 28.6837 35.296
      vertex 87 28.6837 35.296
    endloop
  endfacet
  facet normal 1 0 0
    outer loop
      vertex 83 28.1451 39.042
      vertex 83 28.6837 35.296
      vertex 83 28.9644 37.2481
    endloop
  endfacet
  facet normal 1 0 0
    outer loop
      vertex 83 28.1451 39.042
      vertex 83 27.3922 33.8056
      vertex 83 28.6837 35.296
    endloop
  endfacet
  facet normal 1 0 0
    outer loop
      vertex 83 26.4861 40.1082
      vertex 83 27.3922 33.8056
      vertex 83 28.1451 39.042
    endloop
  endfacet
  facet normal 1 0 0
    outer loop
      vertex 83 26.4861 40.1082
      vertex 83 25.5 33.25
      vertex 83 27.3922 33.8056
    endloop
  endfacet
  facet normal 1 -0 0
    outer loop
      vertex 83 24.5139 40.1082
      vertex 83 25.5 33.25
      vertex 83 26.4861 40.1082
    endloop
  endfacet
  facet normal 1 0 0
    outer loop
      vertex 83 24.5139 40.1082
      vertex 83 23.6078 33.8056
      vertex 83 25.5 33.25
    endloop
  endfacet
  facet normal 1 -0 0
    outer loop
      vertex 83 22.8549 39.042
      vertex 83 23.6078 33.8056
      vertex 83 24.5139 40.1082
    endloop
  endfacet
  facet normal 1 0 0
    outer loop
      vertex 83 22.8549 39.042
      vertex 83 22.3163 35.296
      vertex 83 23.6078 33.8056
    endloop
  endfacet
  facet normal 1 0 -0
    outer loop
      vertex 83 22.3163 35.296
      vertex 83 22.8549 39.042
      vertex 83 22.0356 37.2481
    endloop
  endfacet
  facet normal -0 0.281732 0.959493
    outer loop
      vertex 83 25.5 33.25
      vertex 87 23.6078 33.8056
      vertex 87 25.5 33.25
    endloop
  endfacet
  facet normal 0 0.281732 0.959493
    outer loop
      vertex 87 23.6078 33.8056
      vertex 83 25.5 33.25
      vertex 83 23.6078 33.8056
    endloop
  endfacet
  facet normal 0 0.989821 0.142315
    outer loop
      vertex 87 22.3163 35.296
      vertex 83 22.0356 37.2481
      vertex 87 22.0356 37.2481
    endloop
  endfacet
  facet normal 0 0.989821 0.142315
    outer loop
      vertex 83 22.0356 37.2481
      vertex 87 22.3163 35.296
      vertex 83 22.3163 35.296
    endloop
  endfacet
  facet normal 0 0.909632 -0.415414
    outer loop
      vertex 87 22.0356 37.2481
      vertex 83 22.8549 39.042
      vertex 87 22.8549 39.042
    endloop
  endfacet
  facet normal 0 0.909632 -0.415414
    outer loop
      vertex 83 22.8549 39.042
      vertex 87 22.0356 37.2481
      vertex 83 22.0356 37.2481
    endloop
  endfacet
  facet normal 0 -0.281733 0.959493
    outer loop
      vertex 83 27.3922 21.0556
      vertex 87 25.5 20.5
      vertex 87 27.3922 21.0556
    endloop
  endfacet
  facet normal 0 -0.281733 0.959493
    outer loop
      vertex 87 25.5 20.5
      vertex 83 27.3922 21.0556
      vertex 83 25.5 20.5
    endloop
  endfacet
  facet normal 0 0 -1
    outer loop
      vertex 83 24.5139 27.3582
      vertex 87 26.4861 27.3582
      vertex 87 24.5139 27.3582
    endloop
  endfacet
  facet normal -0 0 -1
    outer loop
      vertex 87 26.4861 27.3582
      vertex 83 24.5139 27.3582
      vertex 83 26.4861 27.3582
    endloop
  endfacet
  facet normal 0 0.540641 -0.841253
    outer loop
      vertex 83 22.8549 26.292
      vertex 87 24.5139 27.3582
      vertex 87 22.8549 26.292
    endloop
  endfacet
  facet normal 0 0.540641 -0.841253
    outer loop
      vertex 87 24.5139 27.3582
      vertex 83 22.8549 26.292
      vertex 83 24.5139 27.3582
    endloop
  endfacet
  facet normal 0 -0.909632 -0.415415
    outer loop
      vertex 83 28.9644 24.4981
      vertex 87 28.1451 26.292
      vertex 83 28.1451 26.292
    endloop
  endfacet
  facet normal 0 -0.909632 -0.415415
    outer loop
      vertex 87 28.1451 26.292
      vertex 83 28.9644 24.4981
      vertex 87 28.9644 24.4981
    endloop
  endfacet
  facet normal 0 -0.540641 -0.841253
    outer loop
      vertex 83 26.4861 27.3582
      vertex 87 28.1451 26.292
      vertex 87 26.4861 27.3582
    endloop
  endfacet
  facet normal -0 -0.540641 -0.841253
    outer loop
      vertex 87 28.1451 26.292
      vertex 83 26.4861 27.3582
      vertex 83 28.1451 26.292
    endloop
  endfacet
  facet normal 0 -0.755749 0.654861
    outer loop
      vertex 83 27.3922 21.0556
      vertex 87 28.6837 22.546
      vertex 83 28.6837 22.546
    endloop
  endfacet
  facet normal 0 -0.755749 0.654861
    outer loop
      vertex 87 28.6837 22.546
      vertex 83 27.3922 21.0556
      vertex 87 27.3922 21.0556
    endloop
  endfacet
  facet normal 0 0.755749 0.654861
    outer loop
      vertex 87 23.6078 21.0556
      vertex 83 22.3163 22.546
      vertex 87 22.3163 22.546
    endloop
  endfacet
  facet normal 0 0.755749 0.654861
    outer loop
      vertex 83 22.3163 22.546
      vertex 87 23.6078 21.0556
      vertex 83 23.6078 21.0556
    endloop
  endfacet
  facet normal 0 -0.989821 0.142315
    outer loop
      vertex 83 28.6837 22.546
      vertex 87 28.9644 24.4981
      vertex 83 28.9644 24.4981
    endloop
  endfacet
  facet normal 0 -0.989821 0.142315
    outer loop
      vertex 87 28.9644 24.4981
      vertex 83 28.6837 22.546
      vertex 87 28.6837 22.546
    endloop
  endfacet
  facet normal 1 0 0
    outer loop
      vertex 83 28.1451 26.292
      vertex 83 28.6837 22.546
      vertex 83 28.9644 24.4981
    endloop
  endfacet
  facet normal 1 0 0
    outer loop
      vertex 83 28.1451 26.292
      vertex 83 27.3922 21.0556
      vertex 83 28.6837 22.546
    endloop
  endfacet
  facet normal 1 0 0
    outer loop
      vertex 83 26.4861 27.3582
      vertex 83 27.3922 21.0556
      vertex 83 28.1451 26.292
    endloop
  endfacet
  facet normal 1 0 0
    outer loop
      vertex 83 26.4861 27.3582
      vertex 83 25.5 20.5
      vertex 83 27.3922 21.0556
    endloop
  endfacet
  facet normal 1 -0 0
    outer loop
      vertex 83 24.5139 27.3582
      vertex 83 25.5 20.5
      vertex 83 26.4861 27.3582
    endloop
  endfacet
  facet normal 1 0 0
    outer loop
      vertex 83 24.5139 27.3582
      vertex 83 23.6078 21.0556
      vertex 83 25.5 20.5
    endloop
  endfacet
  facet normal 1 -0 0
    outer loop
      vertex 83 22.8549 26.292
      vertex 83 23.6078 21.0556
      vertex 83 24.5139 27.3582
    endloop
  endfacet
  facet normal 1 0 0
    outer loop
      vertex 83 22.8549 26.292
      vertex 83 22.3163 22.546
      vertex 83 23.6078 21.0556
    endloop
  endfacet
  facet normal 1 0 -0
    outer loop
      vertex 83 22.3163 22.546
      vertex 83 22.8549 26.292
      vertex 83 22.0356 24.4981
    endloop
  endfacet
  facet normal -0 0.281733 0.959493
    outer loop
      vertex 83 25.5 20.5
      vertex 87 23.6078 21.0556
      vertex 87 25.5 20.5
    endloop
  endfacet
  facet normal 0 0.281733 0.959493
    outer loop
      vertex 87 23.6078 21.0556
      vertex 83 25.5 20.5
      vertex 83 23.6078 21.0556
    endloop
  endfacet
  facet normal 0 0.989821 0.142315
    outer loop
      vertex 87 22.3163 22.546
      vertex 83 22.0356 24.4981
      vertex 87 22.0356 24.4981
    endloop
  endfacet
  facet normal 0 0.989821 0.142315
    outer loop
      vertex 83 22.0356 24.4981
      vertex 87 22.3163 22.546
      vertex 83 22.3163 22.546
    endloop
  endfacet
  facet normal 0 0.909632 -0.415414
    outer loop
      vertex 87 22.0356 24.4981
      vertex 83 22.8549 26.292
      vertex 87 22.8549 26.292
    endloop
  endfacet
  facet normal 0 0.909632 -0.415414
    outer loop
      vertex 83 22.8549 26.292
      vertex 87 22.0356 24.4981
      vertex 83 22.0356 24.4981
    endloop
  endfacet
endsolid OpenSCAD_Model
