solid OpenSCAD_Model
  facet normal -1 0 0
    outer loop
      vertex 50 12.75 12.75
      vertex 50 38.25 63.75
      vertex 50 38.25 12.75
    endloop
  endfacet
  facet normal -1 -0 0
    outer loop
      vertex 50 38.25 63.75
      vertex 50 12.75 12.75
      vertex 50 12.75 63.75
    endloop
  endfacet
  facet normal -0 0 1
    outer loop
      vertex 50 38.25 63.75
      vertex 87 12.75 63.75
      vertex 87 38.25 63.75
    endloop
  endfacet
  facet normal 0 0 1
    outer loop
      vertex 87 12.75 63.75
      vertex 50 38.25 63.75
      vertex 50 12.75 63.75
    endloop
  endfacet
  facet normal 1 0 0
    outer loop
      vertex 87 38.25 63.75
      vertex 87 30.9164 26.4551
      vertex 87 38.25 12.75
    endloop
  endfacet
  facet normal 1 0 0
    outer loop
      vertex 87 38.25 63.75
      vertex 87 30.2631 28.25
      vertex 87 30.9164 26.4551
    endloop
  endfacet
  facet normal 1 0 0
    outer loop
      vertex 87 38.25 63.75
      vertex 87 29.0353 29.7132
      vertex 87 30.2631 28.25
    endloop
  endfacet
  facet normal 1 0 0
    outer loop
      vertex 87 38.25 63.75
      vertex 87 27.3811 30.6683
      vertex 87 29.0353 29.7132
    endloop
  endfacet
  facet normal 1 0 0
    outer loop
      vertex 87 38.25 63.75
      vertex 87 25.5 31
      vertex 87 27.3811 30.6683
    endloop
  endfacet
  facet normal 1 -0 0
    outer loop
      vertex 87 12.75 63.75
      vertex 87 25.5 31
      vertex 87 38.25 63.75
    endloop
  endfacet
  facet normal 1 0 0
    outer loop
      vertex 87 25.5 31
      vertex 87 12.75 63.75
      vertex 87 23.6189 30.6683
    endloop
  endfacet
  facet normal 1 0 0
    outer loop
      vertex 87 23.6189 30.6683
      vertex 87 12.75 63.75
      vertex 87 21.9647 29.7132
    endloop
  endfacet
  facet normal 1 0 0
    outer loop
      vertex 87 12.75 12.75
      vertex 87 20.0836 26.4551
      vertex 87 12.75 63.75
    endloop
  endfacet
  facet normal 1 0 0
    outer loop
      vertex 87 20.7369 28.25
      vertex 87 12.75 63.75
      vertex 87 20.0836 26.4551
    endloop
  endfacet
  facet normal 1 0 0
    outer loop
      vertex 87 21.9647 29.7132
      vertex 87 12.75 63.75
      vertex 87 20.7369 28.25
    endloop
  endfacet
  facet normal 1 -0 0
    outer loop
      vertex 87 30.9164 24.5449
      vertex 87 38.25 12.75
      vertex 87 30.9164 26.4551
    endloop
  endfacet
  facet normal 1 -0 0
    outer loop
      vertex 87 30.2631 22.75
      vertex 87 38.25 12.75
      vertex 87 30.9164 24.5449
    endloop
  endfacet
  facet normal 1 -0 0
    outer loop
      vertex 87 29.0353 21.2868
      vertex 87 38.25 12.75
      vertex 87 30.2631 22.75
    endloop
  endfacet
  facet normal 1 -0 0
    outer loop
      vertex 87 27.3811 20.3317
      vertex 87 38.25 12.75
      vertex 87 29.0353 21.2868
    endloop
  endfacet
  facet normal 1 -0 0
    outer loop
      vertex 87 25.5 20
      vertex 87 38.25 12.75
      vertex 87 27.3811 20.3317
    endloop
  endfacet
  facet normal 1 0 0
    outer loop
      vertex 87 12.75 12.75
      vertex 87 25.5 20
      vertex 87 23.6189 20.3317
    endloop
  endfacet
  facet normal 1 0 0
    outer loop
      vertex 87 25.5 20
      vertex 87 12.75 12.75
      vertex 87 38.25 12.75
    endloop
  endfacet
  facet normal 1 0 0
    outer loop
      vertex 87 21.9647 21.2868
      vertex 87 12.75 12.75
      vertex 87 23.6189 20.3317
    endloop
  endfacet
  facet normal 1 0 0
    outer loop
      vertex 87 20.7369 22.75
      vertex 87 12.75 12.75
      vertex 87 21.9647 21.2868
    endloop
  endfacet
  facet normal 1 0 0
    outer loop
      vertex 87 20.0836 24.5449
      vertex 87 12.75 12.75
      vertex 87 20.7369 22.75
    endloop
  endfacet
  facet normal 1 0 0
    outer loop
      vertex 87 20.0836 26.4551
      vertex 87 12.75 12.75
      vertex 87 20.0836 24.5449
    endloop
  endfacet
  facet normal 0 0 -1
    outer loop
      vertex 50 12.75 12.75
      vertex 87 38.25 12.75
      vertex 87 12.75 12.75
    endloop
  endfacet
  facet normal -0 0 -1
    outer loop
      vertex 87 38.25 12.75
      vertex 50 12.75 12.75
      vertex 50 38.25 12.75
    endloop
  endfacet
  facet normal 0 -1 0
    outer loop
      vertex 50 12.75 63.75
      vertex 65 12.75 35.5
      vertex 87 12.75 63.75
    endloop
  endfacet
  facet normal 0 -1 0
    outer loop
      vertex 50 12.75 12.75
      vertex 65 12.75 35.5
      vertex 50 12.75 63.75
    endloop
  endfacet
  facet normal 0 -1 0
    outer loop
      vertex 87 12.75 12.75
      vertex 65 12.75 25.5
      vertex 50 12.75 12.75
    endloop
  endfacet
  facet normal 0 -1 -0
    outer loop
      vertex 65 12.75 35.5
      vertex 50 12.75 12.75
      vertex 65 12.75 25.5
    endloop
  endfacet
  facet normal 0 -1 0
    outer loop
      vertex 75 12.75 35.5
      vertex 87 12.75 63.75
      vertex 65 12.75 35.5
    endloop
  endfacet
  facet normal 0 -1 0
    outer loop
      vertex 87 12.75 12.75
      vertex 75 12.75 35.5
      vertex 75 12.75 25.5
    endloop
  endfacet
  facet normal 0 -1 0
    outer loop
      vertex 75 12.75 35.5
      vertex 87 12.75 12.75
      vertex 87 12.75 63.75
    endloop
  endfacet
  facet normal 0 -1 0
    outer loop
      vertex 65 12.75 25.5
      vertex 87 12.75 12.75
      vertex 75 12.75 25.5
    endloop
  endfacet
  facet normal 0 1 0
    outer loop
      vertex 65 38.25 35.5
      vertex 87 38.25 63.75
      vertex 75 38.25 35.5
    endloop
  endfacet
  facet normal 0 1 -0
    outer loop
      vertex 87 38.25 12.75
      vertex 75 38.25 35.5
      vertex 87 38.25 63.75
    endloop
  endfacet
  facet normal 0 1 0
    outer loop
      vertex 75 38.25 25.5
      vertex 87 38.25 12.75
      vertex 65 38.25 25.5
    endloop
  endfacet
  facet normal 0 1 0
    outer loop
      vertex 75 38.25 35.5
      vertex 87 38.25 12.75
      vertex 75 38.25 25.5
    endloop
  endfacet
  facet normal 0 1 0
    outer loop
      vertex 87 38.25 63.75
      vertex 65 38.25 35.5
      vertex 50 38.25 63.75
    endloop
  endfacet
  facet normal 0 1 0
    outer loop
      vertex 50 38.25 12.75
      vertex 65 38.25 35.5
      vertex 65 38.25 25.5
    endloop
  endfacet
  facet normal 0 1 0
    outer loop
      vertex 65 38.25 35.5
      vertex 50 38.25 12.75
      vertex 50 38.25 63.75
    endloop
  endfacet
  facet normal 0 1 0
    outer loop
      vertex 50 38.25 12.75
      vertex 65 38.25 25.5
      vertex 87 38.25 12.75
    endloop
  endfacet
  facet normal -1 0 0
    outer loop
      vertex 65 4.75 25.5
      vertex 65 12.75 35.5
      vertex 65 12.75 25.5
    endloop
  endfacet
  facet normal -1 -0 0
    outer loop
      vertex 65 12.75 35.5
      vertex 65 4.75 25.5
      vertex 65 4.75 35.5
    endloop
  endfacet
  facet normal -1 0 0
    outer loop
      vertex 65 38.25 25.5
      vertex 65 46.25 35.5
      vertex 65 46.25 25.5
    endloop
  endfacet
  facet normal -1 -0 0
    outer loop
      vertex 65 46.25 35.5
      vertex 65 38.25 25.5
      vertex 65 38.25 35.5
    endloop
  endfacet
  facet normal -0 0 1
    outer loop
      vertex 65 12.75 35.5
      vertex 75 4.75 35.5
      vertex 75 12.75 35.5
    endloop
  endfacet
  facet normal 0 0 1
    outer loop
      vertex 75 4.75 35.5
      vertex 65 12.75 35.5
      vertex 65 4.75 35.5
    endloop
  endfacet
  facet normal -0 0 1
    outer loop
      vertex 65 46.25 35.5
      vertex 75 38.25 35.5
      vertex 75 46.25 35.5
    endloop
  endfacet
  facet normal 0 0 1
    outer loop
      vertex 75 38.25 35.5
      vertex 65 46.25 35.5
      vertex 65 38.25 35.5
    endloop
  endfacet
  facet normal 1 -0 0
    outer loop
      vertex 75 4.75 35.5
      vertex 75 12.75 25.5
      vertex 75 12.75 35.5
    endloop
  endfacet
  facet normal 1 0 0
    outer loop
      vertex 75 12.75 25.5
      vertex 75 4.75 35.5
      vertex 75 4.75 25.5
    endloop
  endfacet
  facet normal 1 -0 0
    outer loop
      vertex 75 38.25 35.5
      vertex 75 46.25 25.5
      vertex 75 46.25 35.5
    endloop
  endfacet
  facet normal 1 0 0
    outer loop
      vertex 75 46.25 25.5
      vertex 75 38.25 35.5
      vertex 75 38.25 25.5
    endloop
  endfacet
  facet normal 0 0 -1
    outer loop
      vertex 65 38.25 25.5
      vertex 75 46.25 25.5
      vertex 75 38.25 25.5
    endloop
  endfacet
  facet normal -0 0 -1
    outer loop
      vertex 75 46.25 25.5
      vertex 65 38.25 25.5
      vertex 65 46.25 25.5
    endloop
  endfacet
  facet normal 0 0 -1
    outer loop
      vertex 65 4.75 25.5
      vertex 75 12.75 25.5
      vertex 75 4.75 25.5
    endloop
  endfacet
  facet normal -0 0 -1
    outer loop
      vertex 75 12.75 25.5
      vertex 65 4.75 25.5
      vertex 65 12.75 25.5
    endloop
  endfacet
  facet normal 0 -1 0
    outer loop
      vertex 65 4.75 25.5
      vertex 75 4.75 35.5
      vertex 65 4.75 35.5
    endloop
  endfacet
  facet normal 0 -1 -0
    outer loop
      vertex 75 4.75 35.5
      vertex 65 4.75 25.5
      vertex 75 4.75 25.5
    endloop
  endfacet
  facet normal 0 1 -0
    outer loop
      vertex 75 46.25 25.5
      vertex 65 46.25 35.5
      vertex 75 46.25 35.5
    endloop
  endfacet
  facet normal 0 1 0
    outer loop
      vertex 65 46.25 35.5
      vertex 75 46.25 25.5
      vertex 65 46.25 25.5
    endloop
  endfacet
  facet normal 0 -0.173648 0.984808
    outer loop
      vertex 83 27.3811 20.3317
      vertex 87 25.5 20
      vertex 87 27.3811 20.3317
    endloop
  endfacet
  facet normal 0 -0.173648 0.984808
    outer loop
      vertex 87 25.5 20
      vertex 83 27.3811 20.3317
      vertex 83 25.5 20
    endloop
  endfacet
  facet normal 0 -0.173649 -0.984808
    outer loop
      vertex 83 25.5 31
      vertex 87 27.3811 30.6683
      vertex 87 25.5 31
    endloop
  endfacet
  facet normal -0 -0.173649 -0.984808
    outer loop
      vertex 87 27.3811 30.6683
      vertex 83 25.5 31
      vertex 83 27.3811 30.6683
    endloop
  endfacet
  facet normal 0 -0.5 0.866025
    outer loop
      vertex 83 29.0353 21.2868
      vertex 87 27.3811 20.3317
      vertex 87 29.0353 21.2868
    endloop
  endfacet
  facet normal 0 -0.5 0.866025
    outer loop
      vertex 87 27.3811 20.3317
      vertex 83 29.0353 21.2868
      vertex 83 27.3811 20.3317
    endloop
  endfacet
  facet normal 0 -1 0
    outer loop
      vertex 83 30.9164 24.5449
      vertex 87 30.9164 26.4551
      vertex 83 30.9164 26.4551
    endloop
  endfacet
  facet normal 0 -1 -0
    outer loop
      vertex 87 30.9164 26.4551
      vertex 83 30.9164 24.5449
      vertex 87 30.9164 24.5449
    endloop
  endfacet
  facet normal 0 -0.939692 0.342021
    outer loop
      vertex 83 30.2631 22.75
      vertex 87 30.9164 24.5449
      vertex 83 30.9164 24.5449
    endloop
  endfacet
  facet normal 0 -0.939692 0.342021
    outer loop
      vertex 87 30.9164 24.5449
      vertex 83 30.2631 22.75
      vertex 87 30.2631 22.75
    endloop
  endfacet
  facet normal 0 -0.939692 -0.342021
    outer loop
      vertex 83 30.9164 26.4551
      vertex 87 30.2631 28.25
      vertex 83 30.2631 28.25
    endloop
  endfacet
  facet normal 0 -0.939692 -0.342021
    outer loop
      vertex 87 30.2631 28.25
      vertex 83 30.9164 26.4551
      vertex 87 30.9164 26.4551
    endloop
  endfacet
  facet normal 0 -0.766045 -0.642787
    outer loop
      vertex 83 30.2631 28.25
      vertex 87 29.0353 29.7132
      vertex 83 29.0353 29.7132
    endloop
  endfacet
  facet normal 0 -0.766045 -0.642787
    outer loop
      vertex 87 29.0353 29.7132
      vertex 83 30.2631 28.25
      vertex 87 30.2631 28.25
    endloop
  endfacet
  facet normal 0 0.939692 0.342021
    outer loop
      vertex 87 20.7369 22.75
      vertex 83 20.0836 24.5449
      vertex 87 20.0836 24.5449
    endloop
  endfacet
  facet normal 0 0.939692 0.342021
    outer loop
      vertex 83 20.0836 24.5449
      vertex 87 20.7369 22.75
      vertex 83 20.7369 22.75
    endloop
  endfacet
  facet normal 0 -0.766045 0.642787
    outer loop
      vertex 83 29.0353 21.2868
      vertex 87 30.2631 22.75
      vertex 83 30.2631 22.75
    endloop
  endfacet
  facet normal 0 -0.766045 0.642787
    outer loop
      vertex 87 30.2631 22.75
      vertex 83 29.0353 21.2868
      vertex 87 29.0353 21.2868
    endloop
  endfacet
  facet normal 0 -0.5 -0.866025
    outer loop
      vertex 83 27.3811 30.6683
      vertex 87 29.0353 29.7132
      vertex 87 27.3811 30.6683
    endloop
  endfacet
  facet normal -0 -0.5 -0.866025
    outer loop
      vertex 87 29.0353 29.7132
      vertex 83 27.3811 30.6683
      vertex 83 29.0353 29.7132
    endloop
  endfacet
  facet normal 0 0.173649 -0.984808
    outer loop
      vertex 83 23.6189 30.6683
      vertex 87 25.5 31
      vertex 87 23.6189 30.6683
    endloop
  endfacet
  facet normal 0 0.173649 -0.984808
    outer loop
      vertex 87 25.5 31
      vertex 83 23.6189 30.6683
      vertex 83 25.5 31
    endloop
  endfacet
  facet normal -0 0.5 0.866025
    outer loop
      vertex 83 23.6189 20.3317
      vertex 87 21.9647 21.2868
      vertex 87 23.6189 20.3317
    endloop
  endfacet
  facet normal 0 0.5 0.866025
    outer loop
      vertex 87 21.9647 21.2868
      vertex 83 23.6189 20.3317
      vertex 83 21.9647 21.2868
    endloop
  endfacet
  facet normal -0 0.173648 0.984808
    outer loop
      vertex 83 25.5 20
      vertex 87 23.6189 20.3317
      vertex 87 25.5 20
    endloop
  endfacet
  facet normal 0 0.173648 0.984808
    outer loop
      vertex 87 23.6189 20.3317
      vertex 83 25.5 20
      vertex 83 23.6189 20.3317
    endloop
  endfacet
  facet normal 0 1 -0
    outer loop
      vertex 87 20.0836 24.5449
      vertex 83 20.0836 26.4551
      vertex 87 20.0836 26.4551
    endloop
  endfacet
  facet normal 0 1 0
    outer loop
      vertex 83 20.0836 26.4551
      vertex 87 20.0836 24.5449
      vertex 83 20.0836 24.5449
    endloop
  endfacet
  facet normal 0 0.939693 -0.34202
    outer loop
      vertex 87 20.0836 26.4551
      vertex 83 20.7369 28.25
      vertex 87 20.7369 28.25
    endloop
  endfacet
  facet normal 0 0.939693 -0.34202
    outer loop
      vertex 83 20.7369 28.25
      vertex 87 20.0836 26.4551
      vertex 83 20.0836 26.4551
    endloop
  endfacet
  facet normal 0 0.5 -0.866025
    outer loop
      vertex 83 21.9647 29.7132
      vertex 87 23.6189 30.6683
      vertex 87 21.9647 29.7132
    endloop
  endfacet
  facet normal 0 0.5 -0.866025
    outer loop
      vertex 87 23.6189 30.6683
      vertex 83 21.9647 29.7132
      vertex 83 23.6189 30.6683
    endloop
  endfacet
  facet normal 0 0.766045 0.642787
    outer loop
      vertex 87 21.9647 21.2868
      vertex 83 20.7369 22.75
      vertex 87 20.7369 22.75
    endloop
  endfacet
  facet normal 0 0.766045 0.642787
    outer loop
      vertex 83 20.7369 22.75
      vertex 87 21.9647 21.2868
      vertex 83 21.9647 21.2868
    endloop
  endfacet
  facet normal 0 0.766044 -0.642788
    outer loop
      vertex 87 20.7369 28.25
      vertex 83 21.9647 29.7132
      vertex 87 21.9647 29.7132
    endloop
  endfacet
  facet normal 0 0.766044 -0.642788
    outer loop
      vertex 83 21.9647 29.7132
      vertex 87 20.7369 28.25
      vertex 83 20.7369 28.25
    endloop
  endfacet
  facet normal 1 0 0
    outer loop
      vertex 83 30.2631 28.25
      vertex 83 30.9164 24.5449
      vertex 83 30.9164 26.4551
    endloop
  endfacet
  facet normal 1 0 0
    outer loop
      vertex 83 30.2631 28.25
      vertex 83 30.2631 22.75
      vertex 83 30.9164 24.5449
    endloop
  endfacet
  facet normal 1 0 0
    outer loop
      vertex 83 29.0353 29.7132
      vertex 83 30.2631 22.75
      vertex 83 30.2631 28.25
    endloop
  endfacet
  facet normal 1 0 0
    outer loop
      vertex 83 29.0353 29.7132
      vertex 83 29.0353 21.2868
      vertex 83 30.2631 22.75
    endloop
  endfacet
  facet normal 1 0 0
    outer loop
      vertex 83 27.3811 30.6683
      vertex 83 29.0353 21.2868
      vertex 83 29.0353 29.7132
    endloop
  endfacet
  facet normal 1 0 0
    outer loop
      vertex 83 27.3811 30.6683
      vertex 83 27.3811 20.3317
      vertex 83 29.0353 21.2868
    endloop
  endfacet
  facet normal 1 0 0
    outer loop
      vertex 83 25.5 31
      vertex 83 27.3811 20.3317
      vertex 83 27.3811 30.6683
    endloop
  endfacet
  facet normal 1 0 0
    outer loop
      vertex 83 25.5 31
      vertex 83 25.5 20
      vertex 83 27.3811 20.3317
    endloop
  endfacet
  facet normal 1 -0 0
    outer loop
      vertex 83 23.6189 30.6683
      vertex 83 25.5 20
      vertex 83 25.5 31
    endloop
  endfacet
  facet normal 1 0 0
    outer loop
      vertex 83 23.6189 30.6683
      vertex 83 23.6189 20.3317
      vertex 83 25.5 20
    endloop
  endfacet
  facet normal 1 -0 0
    outer loop
      vertex 83 21.9647 29.7132
      vertex 83 23.6189 20.3317
      vertex 83 23.6189 30.6683
    endloop
  endfacet
  facet normal 1 0 0
    outer loop
      vertex 83 21.9647 29.7132
      vertex 83 21.9647 21.2868
      vertex 83 23.6189 20.3317
    endloop
  endfacet
  facet normal 1 -0 0
    outer loop
      vertex 83 20.7369 28.25
      vertex 83 21.9647 21.2868
      vertex 83 21.9647 29.7132
    endloop
  endfacet
  facet normal 1 0 0
    outer loop
      vertex 83 20.7369 28.25
      vertex 83 20.7369 22.75
      vertex 83 21.9647 21.2868
    endloop
  endfacet
  facet normal 1 -0 0
    outer loop
      vertex 83 20.0836 26.4551
      vertex 83 20.7369 22.75
      vertex 83 20.7369 28.25
    endloop
  endfacet
  facet normal 1 0 0
    outer loop
      vertex 83 20.7369 22.75
      vertex 83 20.0836 26.4551
      vertex 83 20.0836 24.5449
    endloop
  endfacet
endsolid OpenSCAD_Model
