solid OpenSCAD_Model
  facet normal -1 0 0
    outer loop
      vertex 80 12.75 12.75
      vertex 80 38.25 89.25
      vertex 80 38.25 12.75
    endloop
  endfacet
  facet normal -1 -0 0
    outer loop
      vertex 80 38.25 89.25
      vertex 80 12.75 12.75
      vertex 80 12.75 89.25
    endloop
  endfacet
  facet normal -0 0 1
    outer loop
      vertex 80 38.25 89.25
      vertex 88 12.75 89.25
      vertex 88 38.25 89.25
    endloop
  endfacet
  facet normal 0 0 1
    outer loop
      vertex 88 12.75 89.25
      vertex 80 38.25 89.25
      vertex 80 12.75 89.25
    endloop
  endfacet
  facet normal 1 -0 0
    outer loop
      vertex 88 30.2631 28.25
      vertex 88 38.25 12.75
      vertex 88 38.25 89.25
    endloop
  endfacet
  facet normal 1 0 0
    outer loop
      vertex 88 38.25 12.75
      vertex 88 30.2631 28.25
      vertex 88 30.9164 26.4551
    endloop
  endfacet
  facet normal 1 0 0
    outer loop
      vertex 88 38.25 89.25
      vertex 88 29.0353 29.7132
      vertex 88 30.2631 28.25
    endloop
  endfacet
  facet normal 1 0 0
    outer loop
      vertex 88 38.25 89.25
      vertex 88 27.3811 30.6683
      vertex 88 29.0353 29.7132
    endloop
  endfacet
  facet normal 1 0 0
    outer loop
      vertex 88 38.25 89.25
      vertex 88 25.5 31
      vertex 88 27.3811 30.6683
    endloop
  endfacet
  facet normal 1 -0 0
    outer loop
      vertex 88 12.75 89.25
      vertex 88 25.5 31
      vertex 88 38.25 89.25
    endloop
  endfacet
  facet normal 1 0 0
    outer loop
      vertex 88 25.5 31
      vertex 88 12.75 89.25
      vertex 88 23.6189 30.6683
    endloop
  endfacet
  facet normal 1 0 0
    outer loop
      vertex 88 23.6189 30.6683
      vertex 88 12.75 89.25
      vertex 88 21.9647 29.7132
    endloop
  endfacet
  facet normal 1 0 0
    outer loop
      vertex 88 21.9647 29.7132
      vertex 88 12.75 89.25
      vertex 88 20.7369 28.25
    endloop
  endfacet
  facet normal 1 0 0
    outer loop
      vertex 88 20.7369 28.25
      vertex 88 12.75 12.75
      vertex 88 20.0836 26.4551
    endloop
  endfacet
  facet normal 1 0 0
    outer loop
      vertex 88 12.75 12.75
      vertex 88 20.7369 28.25
      vertex 88 12.75 89.25
    endloop
  endfacet
  facet normal 1 -0 0
    outer loop
      vertex 88 30.9164 24.5449
      vertex 88 38.25 12.75
      vertex 88 30.9164 26.4551
    endloop
  endfacet
  facet normal 1 -0 0
    outer loop
      vertex 88 30.2631 22.75
      vertex 88 38.25 12.75
      vertex 88 30.9164 24.5449
    endloop
  endfacet
  facet normal 1 -0 0
    outer loop
      vertex 88 29.0353 21.2868
      vertex 88 38.25 12.75
      vertex 88 30.2631 22.75
    endloop
  endfacet
  facet normal 1 -0 0
    outer loop
      vertex 88 27.3811 20.3317
      vertex 88 38.25 12.75
      vertex 88 29.0353 21.2868
    endloop
  endfacet
  facet normal 1 -0 0
    outer loop
      vertex 88 25.5 20
      vertex 88 38.25 12.75
      vertex 88 27.3811 20.3317
    endloop
  endfacet
  facet normal 1 0 0
    outer loop
      vertex 88 12.75 12.75
      vertex 88 25.5 20
      vertex 88 23.6189 20.3317
    endloop
  endfacet
  facet normal 1 0 0
    outer loop
      vertex 88 25.5 20
      vertex 88 12.75 12.75
      vertex 88 38.25 12.75
    endloop
  endfacet
  facet normal 1 0 0
    outer loop
      vertex 88 21.9647 21.2868
      vertex 88 12.75 12.75
      vertex 88 23.6189 20.3317
    endloop
  endfacet
  facet normal 1 0 0
    outer loop
      vertex 88 20.7369 22.75
      vertex 88 12.75 12.75
      vertex 88 21.9647 21.2868
    endloop
  endfacet
  facet normal 1 0 0
    outer loop
      vertex 88 20.0836 24.5449
      vertex 88 12.75 12.75
      vertex 88 20.7369 22.75
    endloop
  endfacet
  facet normal 1 0 0
    outer loop
      vertex 88 20.0836 26.4551
      vertex 88 12.75 12.75
      vertex 88 20.0836 24.5449
    endloop
  endfacet
  facet normal 0 1 -0
    outer loop
      vertex 88 38.25 12.75
      vertex 80 38.25 89.25
      vertex 88 38.25 89.25
    endloop
  endfacet
  facet normal 0 1 0
    outer loop
      vertex 80 38.25 89.25
      vertex 88 38.25 12.75
      vertex 80 38.25 12.75
    endloop
  endfacet
  facet normal 0 0 -1
    outer loop
      vertex 80 12.75 12.75
      vertex 88 38.25 12.75
      vertex 88 12.75 12.75
    endloop
  endfacet
  facet normal -0 0 -1
    outer loop
      vertex 88 38.25 12.75
      vertex 80 12.75 12.75
      vertex 80 38.25 12.75
    endloop
  endfacet
  facet normal 0 -1 0
    outer loop
      vertex 80 12.75 12.75
      vertex 88 12.75 89.25
      vertex 80 12.75 89.25
    endloop
  endfacet
  facet normal 0 -1 -0
    outer loop
      vertex 88 12.75 89.25
      vertex 80 12.75 12.75
      vertex 88 12.75 12.75
    endloop
  endfacet
  facet normal 0 -0.173648 0.984808
    outer loop
      vertex 84 27.3811 20.3317
      vertex 88 25.5 20
      vertex 88 27.3811 20.3317
    endloop
  endfacet
  facet normal 0 -0.173648 0.984808
    outer loop
      vertex 88 25.5 20
      vertex 84 27.3811 20.3317
      vertex 84 25.5 20
    endloop
  endfacet
  facet normal 0 -0.173649 -0.984808
    outer loop
      vertex 84 25.5 31
      vertex 88 27.3811 30.6683
      vertex 88 25.5 31
    endloop
  endfacet
  facet normal -0 -0.173649 -0.984808
    outer loop
      vertex 88 27.3811 30.6683
      vertex 84 25.5 31
      vertex 84 27.3811 30.6683
    endloop
  endfacet
  facet normal 0 1 -0
    outer loop
      vertex 88 20.0836 24.5449
      vertex 84 20.0836 26.4551
      vertex 88 20.0836 26.4551
    endloop
  endfacet
  facet normal 0 1 0
    outer loop
      vertex 84 20.0836 26.4551
      vertex 88 20.0836 24.5449
      vertex 84 20.0836 24.5449
    endloop
  endfacet
  facet normal 1 0 0
    outer loop
      vertex 84 30.2631 28.25
      vertex 84 30.9164 24.5449
      vertex 84 30.9164 26.4551
    endloop
  endfacet
  facet normal 1 0 0
    outer loop
      vertex 84 30.2631 28.25
      vertex 84 30.2631 22.75
      vertex 84 30.9164 24.5449
    endloop
  endfacet
  facet normal 1 0 0
    outer loop
      vertex 84 29.0353 29.7132
      vertex 84 30.2631 22.75
      vertex 84 30.2631 28.25
    endloop
  endfacet
  facet normal 1 0 0
    outer loop
      vertex 84 29.0353 29.7132
      vertex 84 29.0353 21.2868
      vertex 84 30.2631 22.75
    endloop
  endfacet
  facet normal 1 0 0
    outer loop
      vertex 84 27.3811 30.6683
      vertex 84 29.0353 21.2868
      vertex 84 29.0353 29.7132
    endloop
  endfacet
  facet normal 1 0 0
    outer loop
      vertex 84 27.3811 30.6683
      vertex 84 27.3811 20.3317
      vertex 84 29.0353 21.2868
    endloop
  endfacet
  facet normal 1 0 0
    outer loop
      vertex 84 25.5 31
      vertex 84 27.3811 20.3317
      vertex 84 27.3811 30.6683
    endloop
  endfacet
  facet normal 1 0 0
    outer loop
      vertex 84 25.5 31
      vertex 84 25.5 20
      vertex 84 27.3811 20.3317
    endloop
  endfacet
  facet normal 1 -0 0
    outer loop
      vertex 84 23.6189 30.6683
      vertex 84 25.5 20
      vertex 84 25.5 31
    endloop
  endfacet
  facet normal 1 0 0
    outer loop
      vertex 84 23.6189 30.6683
      vertex 84 23.6189 20.3317
      vertex 84 25.5 20
    endloop
  endfacet
  facet normal 1 -0 0
    outer loop
      vertex 84 21.9647 29.7132
      vertex 84 23.6189 20.3317
      vertex 84 23.6189 30.6683
    endloop
  endfacet
  facet normal 1 0 0
    outer loop
      vertex 84 21.9647 29.7132
      vertex 84 21.9647 21.2868
      vertex 84 23.6189 20.3317
    endloop
  endfacet
  facet normal 1 -0 0
    outer loop
      vertex 84 20.7369 28.25
      vertex 84 21.9647 21.2868
      vertex 84 21.9647 29.7132
    endloop
  endfacet
  facet normal 1 0 0
    outer loop
      vertex 84 20.7369 28.25
      vertex 84 20.7369 22.75
      vertex 84 21.9647 21.2868
    endloop
  endfacet
  facet normal 1 -0 0
    outer loop
      vertex 84 20.0836 26.4551
      vertex 84 20.7369 22.75
      vertex 84 20.7369 28.25
    endloop
  endfacet
  facet normal 1 0 0
    outer loop
      vertex 84 20.7369 22.75
      vertex 84 20.0836 26.4551
      vertex 84 20.0836 24.5449
    endloop
  endfacet
  facet normal 0 -0.5 0.866025
    outer loop
      vertex 84 29.0353 21.2868
      vertex 88 27.3811 20.3317
      vertex 88 29.0353 21.2868
    endloop
  endfacet
  facet normal 0 -0.5 0.866025
    outer loop
      vertex 88 27.3811 20.3317
      vertex 84 29.0353 21.2868
      vertex 84 27.3811 20.3317
    endloop
  endfacet
  facet normal 0 -0.939692 0.342021
    outer loop
      vertex 84 30.2631 22.75
      vertex 88 30.9164 24.5449
      vertex 84 30.9164 24.5449
    endloop
  endfacet
  facet normal 0 -0.939692 0.342021
    outer loop
      vertex 88 30.9164 24.5449
      vertex 84 30.2631 22.75
      vertex 88 30.2631 22.75
    endloop
  endfacet
  facet normal 0 -0.766045 -0.642787
    outer loop
      vertex 84 30.2631 28.25
      vertex 88 29.0353 29.7132
      vertex 84 29.0353 29.7132
    endloop
  endfacet
  facet normal 0 -0.766045 -0.642787
    outer loop
      vertex 88 29.0353 29.7132
      vertex 84 30.2631 28.25
      vertex 88 30.2631 28.25
    endloop
  endfacet
  facet normal 0 -0.5 -0.866025
    outer loop
      vertex 84 27.3811 30.6683
      vertex 88 29.0353 29.7132
      vertex 88 27.3811 30.6683
    endloop
  endfacet
  facet normal -0 -0.5 -0.866025
    outer loop
      vertex 88 29.0353 29.7132
      vertex 84 27.3811 30.6683
      vertex 84 29.0353 29.7132
    endloop
  endfacet
  facet normal 0 -0.939692 -0.342021
    outer loop
      vertex 84 30.9164 26.4551
      vertex 88 30.2631 28.25
      vertex 84 30.2631 28.25
    endloop
  endfacet
  facet normal 0 -0.939692 -0.342021
    outer loop
      vertex 88 30.2631 28.25
      vertex 84 30.9164 26.4551
      vertex 88 30.9164 26.4551
    endloop
  endfacet
  facet normal 0 -0.766045 0.642787
    outer loop
      vertex 84 29.0353 21.2868
      vertex 88 30.2631 22.75
      vertex 84 30.2631 22.75
    endloop
  endfacet
  facet normal 0 -0.766045 0.642787
    outer loop
      vertex 88 30.2631 22.75
      vertex 84 29.0353 21.2868
      vertex 88 29.0353 21.2868
    endloop
  endfacet
  facet normal 0 -1 0
    outer loop
      vertex 84 30.9164 24.5449
      vertex 88 30.9164 26.4551
      vertex 84 30.9164 26.4551
    endloop
  endfacet
  facet normal 0 -1 -0
    outer loop
      vertex 88 30.9164 26.4551
      vertex 84 30.9164 24.5449
      vertex 88 30.9164 24.5449
    endloop
  endfacet
  facet normal 0 0.5 -0.866025
    outer loop
      vertex 84 21.9647 29.7132
      vertex 88 23.6189 30.6683
      vertex 88 21.9647 29.7132
    endloop
  endfacet
  facet normal 0 0.5 -0.866025
    outer loop
      vertex 88 23.6189 30.6683
      vertex 84 21.9647 29.7132
      vertex 84 23.6189 30.6683
    endloop
  endfacet
  facet normal -0 0.5 0.866025
    outer loop
      vertex 84 23.6189 20.3317
      vertex 88 21.9647 21.2868
      vertex 88 23.6189 20.3317
    endloop
  endfacet
  facet normal 0 0.5 0.866025
    outer loop
      vertex 88 21.9647 21.2868
      vertex 84 23.6189 20.3317
      vertex 84 21.9647 21.2868
    endloop
  endfacet
  facet normal -0 0.173648 0.984808
    outer loop
      vertex 84 25.5 20
      vertex 88 23.6189 20.3317
      vertex 88 25.5 20
    endloop
  endfacet
  facet normal 0 0.173648 0.984808
    outer loop
      vertex 88 23.6189 20.3317
      vertex 84 25.5 20
      vertex 84 23.6189 20.3317
    endloop
  endfacet
  facet normal 0 0.939693 -0.34202
    outer loop
      vertex 88 20.0836 26.4551
      vertex 84 20.7369 28.25
      vertex 88 20.7369 28.25
    endloop
  endfacet
  facet normal 0 0.939693 -0.34202
    outer loop
      vertex 84 20.7369 28.25
      vertex 88 20.0836 26.4551
      vertex 84 20.0836 26.4551
    endloop
  endfacet
  facet normal 0 0.766044 -0.642788
    outer loop
      vertex 88 20.7369 28.25
      vertex 84 21.9647 29.7132
      vertex 88 21.9647 29.7132
    endloop
  endfacet
  facet normal 0 0.766044 -0.642788
    outer loop
      vertex 84 21.9647 29.7132
      vertex 88 20.7369 28.25
      vertex 84 20.7369 28.25
    endloop
  endfacet
  facet normal 0 0.173649 -0.984808
    outer loop
      vertex 84 23.6189 30.6683
      vertex 88 25.5 31
      vertex 88 23.6189 30.6683
    endloop
  endfacet
  facet normal 0 0.173649 -0.984808
    outer loop
      vertex 88 25.5 31
      vertex 84 23.6189 30.6683
      vertex 84 25.5 31
    endloop
  endfacet
  facet normal 0 0.939692 0.342021
    outer loop
      vertex 88 20.7369 22.75
      vertex 84 20.0836 24.5449
      vertex 88 20.0836 24.5449
    endloop
  endfacet
  facet normal 0 0.939692 0.342021
    outer loop
      vertex 84 20.0836 24.5449
      vertex 88 20.7369 22.75
      vertex 84 20.7369 22.75
    endloop
  endfacet
  facet normal 0 0.766045 0.642787
    outer loop
      vertex 88 21.9647 21.2868
      vertex 84 20.7369 22.75
      vertex 88 20.7369 22.75
    endloop
  endfacet
  facet normal 0 0.766045 0.642787
    outer loop
      vertex 84 20.7369 22.75
      vertex 88 21.9647 21.2868
      vertex 84 21.9647 21.2868
    endloop
  endfacet
  facet normal -1 0 0
    outer loop
      vertex 41.5 12.75 12.75
      vertex 41.5 38.25 38.25
      vertex 41.5 38.25 12.75
    endloop
  endfacet
  facet normal -1 -0 0
    outer loop
      vertex 41.5 38.25 38.25
      vertex 41.5 12.75 12.75
      vertex 41.5 12.75 38.25
    endloop
  endfacet
  facet normal -0 0 1
    outer loop
      vertex 41.5 38.25 38.25
      vertex 71.5 12.75 38.25
      vertex 71.5 38.25 38.25
    endloop
  endfacet
  facet normal 0 0 1
    outer loop
      vertex 71.5 12.75 38.25
      vertex 41.5 38.25 38.25
      vertex 41.5 12.75 38.25
    endloop
  endfacet
  facet normal 1 -0 0
    outer loop
      vertex 71.5 12.75 38.25
      vertex 71.5 38.25 12.75
      vertex 71.5 38.25 38.25
    endloop
  endfacet
  facet normal 1 0 0
    outer loop
      vertex 71.5 38.25 12.75
      vertex 71.5 12.75 38.25
      vertex 71.5 12.75 12.75
    endloop
  endfacet
  facet normal 0 1 -0
    outer loop
      vertex 71.5 38.25 12.75
      vertex 41.5 38.25 38.25
      vertex 71.5 38.25 38.25
    endloop
  endfacet
  facet normal 0 1 0
    outer loop
      vertex 41.5 38.25 38.25
      vertex 71.5 38.25 12.75
      vertex 41.5 38.25 12.75
    endloop
  endfacet
  facet normal 0 0 -1
    outer loop
      vertex 41.5 12.75 12.75
      vertex 71.5 38.25 12.75
      vertex 71.5 12.75 12.75
    endloop
  endfacet
  facet normal -0 0 -1
    outer loop
      vertex 71.5 38.25 12.75
      vertex 41.5 12.75 12.75
      vertex 41.5 38.25 12.75
    endloop
  endfacet
  facet normal 0 -1 0
    outer loop
      vertex 41.5 12.75 12.75
      vertex 71.5 12.75 38.25
      vertex 41.5 12.75 38.25
    endloop
  endfacet
  facet normal 0 -1 -0
    outer loop
      vertex 71.5 12.75 38.25
      vertex 41.5 12.75 12.75
      vertex 71.5 12.75 12.75
    endloop
  endfacet
endsolid OpenSCAD_Model
