solid OpenSCAD_Model
  facet normal -1 0 0
    outer loop
      vertex 50 19.125 12.75
      vertex 50 31.875 25.5
      vertex 50 31.875 12.75
    endloop
  endfacet
  facet normal -1 -0 0
    outer loop
      vertex 50 31.875 25.5
      vertex 50 19.125 12.75
      vertex 50 19.125 25.5
    endloop
  endfacet
  facet normal -0 0 1
    outer loop
      vertex 50 31.875 25.5
      vertex 70 19.125 25.5
      vertex 70 31.875 25.5
    endloop
  endfacet
  facet normal 0 0 1
    outer loop
      vertex 70 19.125 25.5
      vertex 50 31.875 25.5
      vertex 50 19.125 25.5
    endloop
  endfacet
  facet normal -1 0 0
    outer loop
      vertex 70 19.125 12.75
      vertex 70 12.75 12.75
      vertex 70 19.125 25.5
    endloop
  endfacet
  facet normal -1 0 0
    outer loop
      vertex 70 31.875 25.5
      vertex 70 38.25 12.75
      vertex 70 31.875 12.75
    endloop
  endfacet
  facet normal -1 0 0
    outer loop
      vertex 70 38.25 12.75
      vertex 70 31.875 25.5
      vertex 70 38.25 63.75
    endloop
  endfacet
  facet normal -1 0 0
    outer loop
      vertex 70 19.125 25.5
      vertex 70 38.25 63.75
      vertex 70 31.875 25.5
    endloop
  endfacet
  facet normal -1 0 0
    outer loop
      vertex 70 12.75 63.75
      vertex 70 19.125 25.5
      vertex 70 12.75 12.75
    endloop
  endfacet
  facet normal -1 0 0
    outer loop
      vertex 70 19.125 25.5
      vertex 70 12.75 63.75
      vertex 70 38.25 63.75
    endloop
  endfacet
  facet normal 0 1 -0
    outer loop
      vertex 70 31.875 12.75
      vertex 50 31.875 25.5
      vertex 70 31.875 25.5
    endloop
  endfacet
  facet normal 0 1 0
    outer loop
      vertex 50 31.875 25.5
      vertex 70 31.875 12.75
      vertex 50 31.875 12.75
    endloop
  endfacet
  facet normal 0 0 -1
    outer loop
      vertex 50 19.125 12.75
      vertex 70 31.875 12.75
      vertex 70 19.125 12.75
    endloop
  endfacet
  facet normal -0 0 -1
    outer loop
      vertex 70 31.875 12.75
      vertex 50 19.125 12.75
      vertex 50 31.875 12.75
    endloop
  endfacet
  facet normal 0 0 -1
    outer loop
      vertex 70 19.125 12.75
      vertex 80 12.75 12.75
      vertex 70 12.75 12.75
    endloop
  endfacet
  facet normal 0 0 -1
    outer loop
      vertex 80 12.75 12.75
      vertex 70 19.125 12.75
      vertex 80 38.25 12.75
    endloop
  endfacet
  facet normal 0 0 -1
    outer loop
      vertex 70 31.875 12.75
      vertex 80 38.25 12.75
      vertex 70 19.125 12.75
    endloop
  endfacet
  facet normal -0 0 -1
    outer loop
      vertex 80 38.25 12.75
      vertex 70 31.875 12.75
      vertex 70 38.25 12.75
    endloop
  endfacet
  facet normal 0 -1 0
    outer loop
      vertex 50 19.125 12.75
      vertex 70 19.125 25.5
      vertex 50 19.125 25.5
    endloop
  endfacet
  facet normal 0 -1 -0
    outer loop
      vertex 70 19.125 25.5
      vertex 50 19.125 12.75
      vertex 70 19.125 12.75
    endloop
  endfacet
  facet normal -0 0 1
    outer loop
      vertex 70 38.25 63.75
      vertex 80 12.75 63.75
      vertex 80 38.25 63.75
    endloop
  endfacet
  facet normal 0 0 1
    outer loop
      vertex 80 12.75 63.75
      vertex 70 38.25 63.75
      vertex 70 12.75 63.75
    endloop
  endfacet
  facet normal 1 -0 0
    outer loop
      vertex 80 12.75 63.75
      vertex 80 38.25 12.75
      vertex 80 38.25 63.75
    endloop
  endfacet
  facet normal 1 0 0
    outer loop
      vertex 80 38.25 12.75
      vertex 80 12.75 63.75
      vertex 80 12.75 12.75
    endloop
  endfacet
  facet normal 0 1 -0
    outer loop
      vertex 80 38.25 12.75
      vertex 70 38.25 63.75
      vertex 80 38.25 63.75
    endloop
  endfacet
  facet normal 0 1 0
    outer loop
      vertex 70 38.25 63.75
      vertex 80 38.25 12.75
      vertex 70 38.25 12.75
    endloop
  endfacet
  facet normal 0 -1 0
    outer loop
      vertex 70 12.75 12.75
      vertex 80 12.75 63.75
      vertex 70 12.75 63.75
    endloop
  endfacet
  facet normal 0 -1 -0
    outer loop
      vertex 80 12.75 63.75
      vertex 70 12.75 12.75
      vertex 80 12.75 12.75
    endloop
  endfacet
  facet normal -1 0 0
    outer loop
      vertex 30 12.75 12.75
      vertex 30 38.25 38.25
      vertex 30 38.25 12.75
    endloop
  endfacet
  facet normal -1 -0 0
    outer loop
      vertex 30 38.25 38.25
      vertex 30 12.75 12.75
      vertex 30 12.75 38.25
    endloop
  endfacet
  facet normal -0 0 1
    outer loop
      vertex 30 38.25 38.25
      vertex 40 12.75 38.25
      vertex 40 38.25 38.25
    endloop
  endfacet
  facet normal 0 0 1
    outer loop
      vertex 40 12.75 38.25
      vertex 30 38.25 38.25
      vertex 30 12.75 38.25
    endloop
  endfacet
  facet normal 1 -0 0
    outer loop
      vertex 40 12.75 38.25
      vertex 40 38.25 12.75
      vertex 40 38.25 38.25
    endloop
  endfacet
  facet normal 1 0 0
    outer loop
      vertex 40 38.25 12.75
      vertex 40 12.75 38.25
      vertex 40 12.75 12.75
    endloop
  endfacet
  facet normal 0 1 -0
    outer loop
      vertex 40 38.25 12.75
      vertex 30 38.25 38.25
      vertex 40 38.25 38.25
    endloop
  endfacet
  facet normal 0 1 0
    outer loop
      vertex 30 38.25 38.25
      vertex 40 38.25 12.75
      vertex 30 38.25 12.75
    endloop
  endfacet
  facet normal 0 0 -1
    outer loop
      vertex 30 12.75 12.75
      vertex 40 38.25 12.75
      vertex 40 12.75 12.75
    endloop
  endfacet
  facet normal -0 0 -1
    outer loop
      vertex 40 38.25 12.75
      vertex 30 12.75 12.75
      vertex 30 38.25 12.75
    endloop
  endfacet
  facet normal 0 -1 0
    outer loop
      vertex 30 12.75 12.75
      vertex 40 12.75 38.25
      vertex 30 12.75 38.25
    endloop
  endfacet
  facet normal 0 -1 -0
    outer loop
      vertex 40 12.75 38.25
      vertex 30 12.75 12.75
      vertex 40 12.75 12.75
    endloop
  endfacet
endsolid OpenSCAD_Model
