solid OpenSCAD_Model
  facet normal 0.994522 0.104529 0
    outer loop
      vertex 49 0 35
      vertex 47.9292 10.1877 0
      vertex 47.9292 10.1877 35
    endloop
  endfacet
  facet normal 0.994522 0.104529 0
    outer loop
      vertex 47.9292 10.1877 0
      vertex 49 0 35
      vertex 49 0 0
    endloop
  endfacet
  facet normal -0.994522 0.104529 0
    outer loop
      vertex -49 0 0
      vertex -47.9292 10.1877 35
      vertex -47.9292 10.1877 0
    endloop
  endfacet
  facet normal -0.994522 0.104529 0
    outer loop
      vertex -47.9292 10.1877 35
      vertex -49 0 0
      vertex -49 0 35
    endloop
  endfacet
  facet normal 0 1 -0
    outer loop
      vertex 5.12189 48.7316 0
      vertex -5.12189 48.7316 35
      vertex 5.12189 48.7316 35
    endloop
  endfacet
  facet normal 0 1 0
    outer loop
      vertex -5.12189 48.7316 35
      vertex 5.12189 48.7316 0
      vertex -5.12189 48.7316 0
    endloop
  endfacet
  facet normal 0.587785 0.809017 -0
    outer loop
      vertex 32.7874 36.4141 0
      vertex 24.5 42.4352 35
      vertex 32.7874 36.4141 35
    endloop
  endfacet
  facet normal 0.587785 0.809017 0
    outer loop
      vertex 24.5 42.4352 35
      vertex 32.7874 36.4141 0
      vertex 24.5 42.4352 0
    endloop
  endfacet
  facet normal -0.587785 0.809017 0
    outer loop
      vertex -24.5 42.4352 0
      vertex -32.7874 36.4141 35
      vertex -24.5 42.4352 35
    endloop
  endfacet
  facet normal -0.587785 0.809017 0
    outer loop
      vertex -32.7874 36.4141 35
      vertex -24.5 42.4352 0
      vertex -32.7874 36.4141 0
    endloop
  endfacet
  facet normal -0.406737 0.913546 0
    outer loop
      vertex -15.1418 46.6018 0
      vertex -24.5 42.4352 35
      vertex -15.1418 46.6018 35
    endloop
  endfacet
  facet normal -0.406737 0.913546 0
    outer loop
      vertex -24.5 42.4352 35
      vertex -15.1418 46.6018 0
      vertex -24.5 42.4352 0
    endloop
  endfacet
  facet normal 0.866025 0.5 0
    outer loop
      vertex 44.7637 19.9301 35
      vertex 39.6418 28.8015 0
      vertex 39.6418 28.8015 35
    endloop
  endfacet
  facet normal 0.866025 0.5 0
    outer loop
      vertex 39.6418 28.8015 0
      vertex 44.7637 19.9301 35
      vertex 44.7637 19.9301 0
    endloop
  endfacet
  facet normal 0.951057 0.309017 0
    outer loop
      vertex 47.9292 10.1877 35
      vertex 44.7637 19.9301 0
      vertex 44.7637 19.9301 35
    endloop
  endfacet
  facet normal 0.951057 0.309017 0
    outer loop
      vertex 44.7637 19.9301 0
      vertex 47.9292 10.1877 35
      vertex 47.9292 10.1877 0
    endloop
  endfacet
  facet normal 0.743145 0.66913 0
    outer loop
      vertex 39.6418 28.8015 35
      vertex 32.7874 36.4141 0
      vertex 32.7874 36.4141 35
    endloop
  endfacet
  facet normal 0.743145 0.66913 0
    outer loop
      vertex 32.7874 36.4141 0
      vertex 39.6418 28.8015 35
      vertex 39.6418 28.8015 0
    endloop
  endfacet
  facet normal 0.207912 0.978148 -0
    outer loop
      vertex 15.1418 46.6018 0
      vertex 5.12189 48.7316 35
      vertex 15.1418 46.6018 35
    endloop
  endfacet
  facet normal 0.207912 0.978148 0
    outer loop
      vertex 5.12189 48.7316 35
      vertex 15.1418 46.6018 0
      vertex 5.12189 48.7316 0
    endloop
  endfacet
  facet normal 0.406737 0.913546 -0
    outer loop
      vertex 24.5 42.4352 0
      vertex 15.1418 46.6018 35
      vertex 24.5 42.4352 35
    endloop
  endfacet
  facet normal 0.406737 0.913546 0
    outer loop
      vertex 15.1418 46.6018 35
      vertex 24.5 42.4352 0
      vertex 15.1418 46.6018 0
    endloop
  endfacet
  facet normal -0.866025 0.5 0
    outer loop
      vertex -44.7637 19.9301 0
      vertex -39.6418 28.8015 35
      vertex -39.6418 28.8015 0
    endloop
  endfacet
  facet normal -0.866025 0.5 0
    outer loop
      vertex -39.6418 28.8015 35
      vertex -44.7637 19.9301 0
      vertex -44.7637 19.9301 35
    endloop
  endfacet
  facet normal -0.743145 0.66913 0
    outer loop
      vertex -39.6418 28.8015 0
      vertex -32.7874 36.4141 35
      vertex -32.7874 36.4141 0
    endloop
  endfacet
  facet normal -0.743145 0.66913 0
    outer loop
      vertex -32.7874 36.4141 35
      vertex -39.6418 28.8015 0
      vertex -39.6418 28.8015 35
    endloop
  endfacet
  facet normal -0.951057 0.309017 0
    outer loop
      vertex -47.9292 10.1877 0
      vertex -44.7637 19.9301 35
      vertex -44.7637 19.9301 0
    endloop
  endfacet
  facet normal -0.951057 0.309017 0
    outer loop
      vertex -44.7637 19.9301 35
      vertex -47.9292 10.1877 0
      vertex -47.9292 10.1877 35
    endloop
  endfacet
  facet normal -0.207912 0.978148 0
    outer loop
      vertex -5.12189 48.7316 0
      vertex -15.1418 46.6018 35
      vertex -5.12189 48.7316 35
    endloop
  endfacet
  facet normal -0.207912 0.978148 0
    outer loop
      vertex -15.1418 46.6018 35
      vertex -5.12189 48.7316 0
      vertex -15.1418 46.6018 0
    endloop
  endfacet
  facet normal 0 0 -1
    outer loop
      vertex 45 0 0
      vertex 47.9292 10.1877 0
      vertex 49 0 0
    endloop
  endfacet
  facet normal 0 0 -1
    outer loop
      vertex 44.0166 9.35603 0
      vertex 47.9292 10.1877 0
      vertex 45 0 0
    endloop
  endfacet
  facet normal -0 0 -1
    outer loop
      vertex 47.9292 10.1877 0
      vertex 44.0166 9.35603 0
      vertex 44.7637 19.9301 0
    endloop
  endfacet
  facet normal 0 0 -1
    outer loop
      vertex 41.1095 18.3031 0
      vertex 44.7637 19.9301 0
      vertex 44.0166 9.35603 0
    endloop
  endfacet
  facet normal 0 0 -1
    outer loop
      vertex 41.1095 18.3031 0
      vertex 39.6418 28.8015 0
      vertex 44.7637 19.9301 0
    endloop
  endfacet
  facet normal 0 0 -1
    outer loop
      vertex 36.4058 26.4503 0
      vertex 39.6418 28.8015 0
      vertex 41.1095 18.3031 0
    endloop
  endfacet
  facet normal 0 0 -1
    outer loop
      vertex 36.4058 26.4503 0
      vertex 32.7874 36.4141 0
      vertex 39.6418 28.8015 0
    endloop
  endfacet
  facet normal 0 0 -1
    outer loop
      vertex 30.1109 33.4415 0
      vertex 32.7874 36.4141 0
      vertex 36.4058 26.4503 0
    endloop
  endfacet
  facet normal 0 0 -1
    outer loop
      vertex 30.1109 33.4415 0
      vertex 24.5 42.4352 0
      vertex 32.7874 36.4141 0
    endloop
  endfacet
  facet normal 0 0 -1
    outer loop
      vertex 22.5 38.9711 0
      vertex 24.5 42.4352 0
      vertex 30.1109 33.4415 0
    endloop
  endfacet
  facet normal 0 0 -1
    outer loop
      vertex 22.5 38.9711 0
      vertex 15.1418 46.6018 0
      vertex 24.5 42.4352 0
    endloop
  endfacet
  facet normal 0 0 -1
    outer loop
      vertex 13.9058 42.7975 0
      vertex 15.1418 46.6018 0
      vertex 22.5 38.9711 0
    endloop
  endfacet
  facet normal 0 0 -1
    outer loop
      vertex 13.9058 42.7975 0
      vertex 5.12189 48.7316 0
      vertex 15.1418 46.6018 0
    endloop
  endfacet
  facet normal 0 0 -1
    outer loop
      vertex 4.70378 44.7535 0
      vertex 5.12189 48.7316 0
      vertex 13.9058 42.7975 0
    endloop
  endfacet
  facet normal 0 0 -1
    outer loop
      vertex -4.70378 44.7535 0
      vertex 5.12189 48.7316 0
      vertex 4.70378 44.7535 0
    endloop
  endfacet
  facet normal 0 0 -1
    outer loop
      vertex -4.70378 44.7535 0
      vertex -5.12189 48.7316 0
      vertex 5.12189 48.7316 0
    endloop
  endfacet
  facet normal 0 0 -1
    outer loop
      vertex -13.9058 42.7975 0
      vertex -5.12189 48.7316 0
      vertex -4.70378 44.7535 0
    endloop
  endfacet
  facet normal 0 0 -1
    outer loop
      vertex -13.9058 42.7975 0
      vertex -15.1418 46.6018 0
      vertex -5.12189 48.7316 0
    endloop
  endfacet
  facet normal 0 0 -1
    outer loop
      vertex -22.5 38.9711 0
      vertex -15.1418 46.6018 0
      vertex -13.9058 42.7975 0
    endloop
  endfacet
  facet normal 0 0 -1
    outer loop
      vertex -22.5 38.9711 0
      vertex -24.5 42.4352 0
      vertex -15.1418 46.6018 0
    endloop
  endfacet
  facet normal 0 0 -1
    outer loop
      vertex -30.1109 33.4415 0
      vertex -24.5 42.4352 0
      vertex -22.5 38.9711 0
    endloop
  endfacet
  facet normal 0 0 -1
    outer loop
      vertex -30.1109 33.4415 0
      vertex -32.7874 36.4141 0
      vertex -24.5 42.4352 0
    endloop
  endfacet
  facet normal 0 0 -1
    outer loop
      vertex -36.4058 26.4503 0
      vertex -32.7874 36.4141 0
      vertex -30.1109 33.4415 0
    endloop
  endfacet
  facet normal 0 0 -1
    outer loop
      vertex -36.4058 26.4503 0
      vertex -39.6418 28.8015 0
      vertex -32.7874 36.4141 0
    endloop
  endfacet
  facet normal 0 0 -1
    outer loop
      vertex -41.1095 18.3031 0
      vertex -39.6418 28.8015 0
      vertex -36.4058 26.4503 0
    endloop
  endfacet
  facet normal 0 0 -1
    outer loop
      vertex -44.7637 19.9301 0
      vertex -41.1095 18.3031 0
      vertex -44.0166 9.35603 0
    endloop
  endfacet
  facet normal 0 0 -1
    outer loop
      vertex -41.1095 18.3031 0
      vertex -44.7637 19.9301 0
      vertex -39.6418 28.8015 0
    endloop
  endfacet
  facet normal 0 0 -1
    outer loop
      vertex -47.9292 10.1877 0
      vertex -44.0166 9.35603 0
      vertex -45 0 0
    endloop
  endfacet
  facet normal 0 0 -1
    outer loop
      vertex -44.0166 9.35603 0
      vertex -47.9292 10.1877 0
      vertex -44.7637 19.9301 0
    endloop
  endfacet
  facet normal 0 -0 -1
    outer loop
      vertex -47.9292 10.1877 0
      vertex -45 0 0
      vertex -49 0 0
    endloop
  endfacet
  facet normal -0.866026 -0.5 0
    outer loop
      vertex 41.1095 18.3031 0
      vertex 36.4058 26.4503 35
      vertex 36.4058 26.4503 0
    endloop
  endfacet
  facet normal -0.866026 -0.5 0
    outer loop
      vertex 36.4058 26.4503 35
      vertex 41.1095 18.3031 0
      vertex 41.1095 18.3031 35
    endloop
  endfacet
  facet normal -0.743145 -0.669131 0
    outer loop
      vertex 36.4058 26.4503 0
      vertex 30.1109 33.4415 35
      vertex 30.1109 33.4415 0
    endloop
  endfacet
  facet normal -0.743145 -0.669131 0
    outer loop
      vertex 30.1109 33.4415 35
      vertex 36.4058 26.4503 0
      vertex 36.4058 26.4503 35
    endloop
  endfacet
  facet normal -0.207912 -0.978148 0
    outer loop
      vertex 4.70378 44.7535 0
      vertex 13.9058 42.7975 35
      vertex 4.70378 44.7535 35
    endloop
  endfacet
  facet normal -0.207912 -0.978148 -0
    outer loop
      vertex 13.9058 42.7975 35
      vertex 4.70378 44.7535 0
      vertex 13.9058 42.7975 0
    endloop
  endfacet
  facet normal -0.406737 -0.913545 0
    outer loop
      vertex 13.9058 42.7975 0
      vertex 22.5 38.9711 35
      vertex 13.9058 42.7975 35
    endloop
  endfacet
  facet normal -0.406737 -0.913545 -0
    outer loop
      vertex 22.5 38.9711 35
      vertex 13.9058 42.7975 0
      vertex 22.5 38.9711 0
    endloop
  endfacet
  facet normal 0.207912 -0.978148 0
    outer loop
      vertex -13.9058 42.7975 0
      vertex -4.70378 44.7535 35
      vertex -13.9058 42.7975 35
    endloop
  endfacet
  facet normal 0.207912 -0.978148 0
    outer loop
      vertex -4.70378 44.7535 35
      vertex -13.9058 42.7975 0
      vertex -4.70378 44.7535 0
    endloop
  endfacet
  facet normal 0.866026 -0.5 0
    outer loop
      vertex -41.1095 18.3031 35
      vertex -36.4058 26.4503 0
      vertex -36.4058 26.4503 35
    endloop
  endfacet
  facet normal 0.866026 -0.5 0
    outer loop
      vertex -36.4058 26.4503 0
      vertex -41.1095 18.3031 35
      vertex -41.1095 18.3031 0
    endloop
  endfacet
  facet normal -0.951057 -0.309017 0
    outer loop
      vertex 44.0166 9.35603 0
      vertex 41.1095 18.3031 35
      vertex 41.1095 18.3031 0
    endloop
  endfacet
  facet normal -0.951057 -0.309017 0
    outer loop
      vertex 41.1095 18.3031 35
      vertex 44.0166 9.35603 0
      vertex 44.0166 9.35603 35
    endloop
  endfacet
  facet normal 0 -1 0
    outer loop
      vertex -4.70378 44.7535 0
      vertex 4.70378 44.7535 35
      vertex -4.70378 44.7535 35
    endloop
  endfacet
  facet normal 0 -1 -0
    outer loop
      vertex 4.70378 44.7535 35
      vertex -4.70378 44.7535 0
      vertex 4.70378 44.7535 0
    endloop
  endfacet
  facet normal -0.587785 -0.809017 0
    outer loop
      vertex 22.5 38.9711 0
      vertex 30.1109 33.4415 35
      vertex 22.5 38.9711 35
    endloop
  endfacet
  facet normal -0.587785 -0.809017 -0
    outer loop
      vertex 30.1109 33.4415 35
      vertex 22.5 38.9711 0
      vertex 30.1109 33.4415 0
    endloop
  endfacet
  facet normal 0.994522 -0.104529 0
    outer loop
      vertex -45 0 35
      vertex -44.0166 9.35603 0
      vertex -44.0166 9.35603 35
    endloop
  endfacet
  facet normal 0.994522 -0.104529 0
    outer loop
      vertex -44.0166 9.35603 0
      vertex -45 0 35
      vertex -45 0 0
    endloop
  endfacet
  facet normal 0.743145 -0.669131 0
    outer loop
      vertex -36.4058 26.4503 35
      vertex -30.1109 33.4415 0
      vertex -30.1109 33.4415 35
    endloop
  endfacet
  facet normal 0.743145 -0.669131 0
    outer loop
      vertex -30.1109 33.4415 0
      vertex -36.4058 26.4503 35
      vertex -36.4058 26.4503 0
    endloop
  endfacet
  facet normal 0.406737 -0.913545 0
    outer loop
      vertex -22.5 38.9711 0
      vertex -13.9058 42.7975 35
      vertex -22.5 38.9711 35
    endloop
  endfacet
  facet normal 0.406737 -0.913545 0
    outer loop
      vertex -13.9058 42.7975 35
      vertex -22.5 38.9711 0
      vertex -13.9058 42.7975 0
    endloop
  endfacet
  facet normal 0.587785 -0.809017 0
    outer loop
      vertex -30.1109 33.4415 0
      vertex -22.5 38.9711 35
      vertex -30.1109 33.4415 35
    endloop
  endfacet
  facet normal 0.587785 -0.809017 0
    outer loop
      vertex -22.5 38.9711 35
      vertex -30.1109 33.4415 0
      vertex -22.5 38.9711 0
    endloop
  endfacet
  facet normal -0.994522 -0.104529 0
    outer loop
      vertex 45 0 0
      vertex 44.0166 9.35603 35
      vertex 44.0166 9.35603 0
    endloop
  endfacet
  facet normal -0.994522 -0.104529 0
    outer loop
      vertex 44.0166 9.35603 35
      vertex 45 0 0
      vertex 45 0 35
    endloop
  endfacet
  facet normal 0.951057 -0.309017 0
    outer loop
      vertex -44.0166 9.35603 35
      vertex -41.1095 18.3031 0
      vertex -41.1095 18.3031 35
    endloop
  endfacet
  facet normal 0.951057 -0.309017 0
    outer loop
      vertex -41.1095 18.3031 0
      vertex -44.0166 9.35603 35
      vertex -44.0166 9.35603 0
    endloop
  endfacet
  facet normal 0.991624 0.104224 0.0762788
    outer loop
      vertex 49 0 35
      vertex 43.0385 9.14811 100
      vertex 44 0 100
    endloop
  endfacet
  facet normal 0.991624 0.104224 0.0762788
    outer loop
      vertex 47.9292 10.1877 35
      vertex 43.0385 9.14811 100
      vertex 49 0 35
    endloop
  endfacet
  facet normal 0.405551 0.910884 0.0762788
    outer loop
      vertex 24.5 42.4352 35
      vertex 13.5967 41.8465 100
      vertex 22 38.1051 100
    endloop
  endfacet
  facet normal -0.586073 0.80666 0.0762788
    outer loop
      vertex -24.5 42.4352 35
      vertex -32.7874 36.4141 35
      vertex -29.4417 32.6984 100
    endloop
  endfacet
  facet normal 0.586073 0.80666 0.0762788
    outer loop
      vertex 24.5 42.4352 35
      vertex 22 38.1051 100
      vertex 29.4417 32.6984 100
    endloop
  endfacet
  facet normal 0.948286 0.308117 0.0762788
    outer loop
      vertex 44.7637 19.9301 35
      vertex 43.0385 9.14811 100
      vertex 47.9292 10.1877 35
    endloop
  endfacet
  facet normal -0.74098 0.667181 0.0762788
    outer loop
      vertex -32.7874 36.4141 35
      vertex -35.5967 25.8626 100
      vertex -29.4417 32.6984 100
    endloop
  endfacet
  facet normal 0.74098 0.667181 0.0762788
    outer loop
      vertex 39.6418 28.8015 35
      vertex 32.7874 36.4141 35
      vertex 35.5967 25.8626 100
    endloop
  endfacet
  facet normal 0.586073 0.80666 0.0762788
    outer loop
      vertex 32.7874 36.4141 35
      vertex 24.5 42.4352 35
      vertex 29.4417 32.6984 100
    endloop
  endfacet
  facet normal 0.405551 0.910884 0.0762788
    outer loop
      vertex 15.1418 46.6018 35
      vertex 13.5967 41.8465 100
      vertex 24.5 42.4352 35
    endloop
  endfacet
  facet normal 0.207306 0.975298 0.0762788
    outer loop
      vertex 15.1418 46.6018 35
      vertex 5.12189 48.7316 35
      vertex 13.5967 41.8465 100
    endloop
  endfacet
  facet normal 0.948286 0.308117 0.0762788
    outer loop
      vertex 44.7637 19.9301 35
      vertex 40.196 17.8964 100
      vertex 43.0385 9.14811 100
    endloop
  endfacet
  facet normal 0.863502 0.498543 0.0762788
    outer loop
      vertex 44.7637 19.9301 35
      vertex 39.6418 28.8015 35
      vertex 40.196 17.8964 100
    endloop
  endfacet
  facet normal -0.991624 0.104224 0.0762788
    outer loop
      vertex -43.0385 9.14811 100
      vertex -49 0 35
      vertex -44 0 100
    endloop
  endfacet
  facet normal -0.405551 0.910884 0.0762788
    outer loop
      vertex -15.1418 46.6018 35
      vertex -24.5 42.4352 35
      vertex -13.5967 41.8465 100
    endloop
  endfacet
  facet normal -0.948286 0.308117 0.0762788
    outer loop
      vertex -44.7637 19.9301 35
      vertex -47.9292 10.1877 35
      vertex -43.0385 9.14811 100
    endloop
  endfacet
  facet normal -0.948286 0.308117 0.0762788
    outer loop
      vertex -40.196 17.8964 100
      vertex -44.7637 19.9301 35
      vertex -43.0385 9.14811 100
    endloop
  endfacet
  facet normal 0.74098 0.667181 0.0762788
    outer loop
      vertex 32.7874 36.4141 35
      vertex 29.4417 32.6984 100
      vertex 35.5967 25.8626 100
    endloop
  endfacet
  facet normal 0 0.997087 0.0762788
    outer loop
      vertex 5.12189 48.7316 35
      vertex -4.59925 43.759 100
      vertex 4.59925 43.759 100
    endloop
  endfacet
  facet normal 0 0.997087 0.0762788
    outer loop
      vertex -4.59925 43.759 100
      vertex 5.12189 48.7316 35
      vertex -5.12189 48.7316 35
    endloop
  endfacet
  facet normal -0.207306 0.975298 0.0762788
    outer loop
      vertex -5.12189 48.7316 35
      vertex -13.5967 41.8465 100
      vertex -4.59925 43.759 100
    endloop
  endfacet
  facet normal -0.863502 0.498543 0.0762787
    outer loop
      vertex -39.6418 28.8015 35
      vertex -40.196 17.8964 100
      vertex -35.5967 25.8626 100
    endloop
  endfacet
  facet normal -0.74098 0.667181 0.0762788
    outer loop
      vertex -32.7874 36.4141 35
      vertex -39.6418 28.8015 35
      vertex -35.5967 25.8626 100
    endloop
  endfacet
  facet normal -0.405551 0.910884 0.0762788
    outer loop
      vertex -13.5967 41.8465 100
      vertex -24.5 42.4352 35
      vertex -22 38.1051 100
    endloop
  endfacet
  facet normal -0.586073 0.80666 0.0762788
    outer loop
      vertex -24.5 42.4352 35
      vertex -29.4417 32.6984 100
      vertex -22 38.1051 100
    endloop
  endfacet
  facet normal -0.207306 0.975298 0.0762788
    outer loop
      vertex -5.12189 48.7316 35
      vertex -15.1418 46.6018 35
      vertex -13.5967 41.8465 100
    endloop
  endfacet
  facet normal -0.991624 0.104224 0.0762788
    outer loop
      vertex -47.9292 10.1877 35
      vertex -49 0 35
      vertex -43.0385 9.14811 100
    endloop
  endfacet
  facet normal 0.863502 0.498543 0.0762787
    outer loop
      vertex 39.6418 28.8015 35
      vertex 35.5967 25.8626 100
      vertex 40.196 17.8964 100
    endloop
  endfacet
  facet normal -0.863502 0.498543 0.0762788
    outer loop
      vertex -39.6418 28.8015 35
      vertex -44.7637 19.9301 35
      vertex -40.196 17.8964 100
    endloop
  endfacet
  facet normal 0.207306 0.975298 0.0762788
    outer loop
      vertex 5.12189 48.7316 35
      vertex 4.59925 43.759 100
      vertex 13.5967 41.8465 100
    endloop
  endfacet
  facet normal -0.991624 -0.104224 -0.0762788
    outer loop
      vertex 44.0166 9.35603 35
      vertex 45 0 35
      vertex 40 0 100
    endloop
  endfacet
  facet normal 0.586073 -0.80666 -0.0762788
    outer loop
      vertex -22.5 38.9711 35
      vertex -20 34.641 100
      vertex -30.1109 33.4415 35
    endloop
  endfacet
  facet normal 0 -0.997087 -0.0762788
    outer loop
      vertex -4.70378 44.7535 35
      vertex 4.18114 39.7809 100
      vertex -4.18114 39.7809 100
    endloop
  endfacet
  facet normal 0 -0.997087 -0.0762788
    outer loop
      vertex 4.18114 39.7809 100
      vertex -4.70378 44.7535 35
      vertex 4.70378 44.7535 35
    endloop
  endfacet
  facet normal -0.586073 -0.80666 -0.0762788
    outer loop
      vertex 30.1109 33.4415 35
      vertex 26.7652 29.7258 100
      vertex 20 34.641 100
    endloop
  endfacet
  facet normal -0.948286 -0.308117 -0.0762788
    outer loop
      vertex 44.0166 9.35603 35
      vertex 39.1259 8.31647 100
      vertex 36.5418 16.2695 100
    endloop
  endfacet
  facet normal 0.207306 -0.975298 -0.0762788
    outer loop
      vertex -4.70378 44.7535 35
      vertex -4.18114 39.7809 100
      vertex -12.3607 38.0423 100
    endloop
  endfacet
  facet normal 0.991624 -0.104224 -0.0762788
    outer loop
      vertex -44.0166 9.35603 35
      vertex -40 0 100
      vertex -45 0 35
    endloop
  endfacet
  facet normal 0.207306 -0.975298 -0.0762788
    outer loop
      vertex -4.70378 44.7535 35
      vertex -12.3607 38.0423 100
      vertex -13.9058 42.7975 35
    endloop
  endfacet
  facet normal -0.586073 -0.80666 -0.0762788
    outer loop
      vertex 22.5 38.9711 35
      vertex 30.1109 33.4415 35
      vertex 20 34.641 100
    endloop
  endfacet
  facet normal -0.207306 -0.975298 -0.0762788
    outer loop
      vertex 4.70378 44.7535 35
      vertex 12.3607 38.0423 100
      vertex 4.18114 39.7809 100
    endloop
  endfacet
  facet normal -0.863502 -0.498543 -0.0762788
    outer loop
      vertex 36.4058 26.4503 35
      vertex 36.5418 16.2695 100
      vertex 32.3607 23.5114 100
    endloop
  endfacet
  facet normal -0.991624 -0.104224 -0.0762788
    outer loop
      vertex 44.0166 9.35603 35
      vertex 40 0 100
      vertex 39.1259 8.31647 100
    endloop
  endfacet
  facet normal 0.863502 -0.498543 -0.0762788
    outer loop
      vertex -36.4058 26.4503 35
      vertex -36.5418 16.2695 100
      vertex -41.1095 18.3031 35
    endloop
  endfacet
  facet normal -0.405552 -0.910884 -0.0762788
    outer loop
      vertex 22.5 38.9711 35
      vertex 20 34.641 100
      vertex 13.9058 42.7975 35
    endloop
  endfacet
  facet normal -0.405552 -0.910884 -0.0762788
    outer loop
      vertex 13.9058 42.7975 35
      vertex 20 34.641 100
      vertex 12.3607 38.0423 100
    endloop
  endfacet
  facet normal -0.74098 -0.667181 -0.0762788
    outer loop
      vertex 36.4058 26.4503 35
      vertex 32.3607 23.5114 100
      vertex 30.1109 33.4415 35
    endloop
  endfacet
  facet normal -0.74098 -0.667181 -0.0762788
    outer loop
      vertex 30.1109 33.4415 35
      vertex 32.3607 23.5114 100
      vertex 26.7652 29.7258 100
    endloop
  endfacet
  facet normal -0.863502 -0.498543 -0.0762788
    outer loop
      vertex 41.1095 18.3031 35
      vertex 36.5418 16.2695 100
      vertex 36.4058 26.4503 35
    endloop
  endfacet
  facet normal -0.948286 -0.308117 -0.0762788
    outer loop
      vertex 41.1095 18.3031 35
      vertex 44.0166 9.35603 35
      vertex 36.5418 16.2695 100
    endloop
  endfacet
  facet normal 0.948286 -0.308117 -0.0762788
    outer loop
      vertex -36.5418 16.2695 100
      vertex -39.1259 8.31647 100
      vertex -44.0166 9.35603 35
    endloop
  endfacet
  facet normal 0.586073 -0.80666 -0.0762788
    outer loop
      vertex -20 34.641 100
      vertex -26.7652 29.7258 100
      vertex -30.1109 33.4415 35
    endloop
  endfacet
  facet normal 0.74098 -0.667181 -0.0762788
    outer loop
      vertex -30.1109 33.4415 35
      vertex -26.7652 29.7258 100
      vertex -32.3607 23.5114 100
    endloop
  endfacet
  facet normal 0.948286 -0.308117 -0.0762788
    outer loop
      vertex -41.1095 18.3031 35
      vertex -36.5418 16.2695 100
      vertex -44.0166 9.35603 35
    endloop
  endfacet
  facet normal -0.207306 -0.975298 -0.0762788
    outer loop
      vertex 13.9058 42.7975 35
      vertex 12.3607 38.0423 100
      vertex 4.70378 44.7535 35
    endloop
  endfacet
  facet normal 0.863502 -0.498543 -0.0762788
    outer loop
      vertex -36.4058 26.4503 35
      vertex -32.3607 23.5114 100
      vertex -36.5418 16.2695 100
    endloop
  endfacet
  facet normal 0.74098 -0.667181 -0.0762788
    outer loop
      vertex -30.1109 33.4415 35
      vertex -32.3607 23.5114 100
      vertex -36.4058 26.4503 35
    endloop
  endfacet
  facet normal 0.991624 -0.104224 -0.0762788
    outer loop
      vertex -39.1259 8.31647 100
      vertex -40 0 100
      vertex -44.0166 9.35603 35
    endloop
  endfacet
  facet normal 0.405552 -0.910884 -0.0762788
    outer loop
      vertex -13.9058 42.7975 35
      vertex -12.3607 38.0423 100
      vertex -20 34.641 100
    endloop
  endfacet
  facet normal 0.405552 -0.910884 -0.0762788
    outer loop
      vertex -13.9058 42.7975 35
      vertex -20 34.641 100
      vertex -22.5 38.9711 35
    endloop
  endfacet
  facet normal 0.975414 0.10252 0.195083
    outer loop
      vertex 43.0385 9.14811 100
      vertex 29 0 175
      vertex 44 0 100
    endloop
  endfacet
  facet normal -0.576492 0.793473 0.195083
    outer loop
      vertex -14.5 25.1147 175
      vertex -22 38.1051 100
      vertex -19.4048 21.5512 175
    endloop
  endfacet
  facet normal 0.728867 0.656275 0.195083
    outer loop
      vertex 29.4417 32.6984 100
      vertex 19.4048 21.5512 175
      vertex 35.5967 25.8626 100
    endloop
  endfacet
  facet normal -0.932784 0.30308 0.195083
    outer loop
      vertex -40.196 17.8964 100
      vertex -43.0385 9.14811 100
      vertex -26.4928 11.7954 175
    endloop
  endfacet
  facet normal 0.576492 0.793473 0.195083
    outer loop
      vertex 29.4417 32.6984 100
      vertex 14.5 25.1147 175
      vertex 19.4048 21.5512 175
    endloop
  endfacet
  facet normal -0.398922 0.895993 0.195083
    outer loop
      vertex -13.5967 41.8465 100
      vertex -22 38.1051 100
      vertex -14.5 25.1147 175
    endloop
  endfacet
  facet normal 0.398922 0.895993 0.195083
    outer loop
      vertex 13.5967 41.8465 100
      vertex 8.96149 27.5806 175
      vertex 14.5 25.1147 175
    endloop
  endfacet
  facet normal 0.932784 0.30308 0.195083
    outer loop
      vertex 40.196 17.8964 100
      vertex 26.4928 11.7954 175
      vertex 43.0385 9.14811 100
    endloop
  endfacet
  facet normal -0.728867 0.656275 0.195083
    outer loop
      vertex -29.4417 32.6984 100
      vertex -35.5967 25.8626 100
      vertex -19.4048 21.5512 175
    endloop
  endfacet
  facet normal -0.576492 0.793473 0.195083
    outer loop
      vertex -22 38.1051 100
      vertex -29.4417 32.6984 100
      vertex -19.4048 21.5512 175
    endloop
  endfacet
  facet normal -0.975414 0.10252 0.195083
    outer loop
      vertex -43.0385 9.14811 100
      vertex -44 0 100
      vertex -29 0 175
    endloop
  endfacet
  facet normal 0 0 1
    outer loop
      vertex 24.4537 5.19779 175
      vertex 28.3663 6.02944 175
      vertex 26.4928 11.7954 175
    endloop
  endfacet
  facet normal 0 0 1
    outer loop
      vertex 28.3663 6.02944 175
      vertex 24.4537 5.19779 175
      vertex 29 0 175
    endloop
  endfacet
  facet normal 0 0 1
    outer loop
      vertex 29 0 175
      vertex 24.4537 5.19779 175
      vertex 25 0 175
    endloop
  endfacet
  facet normal 0 0 1
    outer loop
      vertex 22.8386 10.1684 175
      vertex 26.4928 11.7954 175
      vertex 23.4615 17.0458 175
    endloop
  endfacet
  facet normal 0 0 1
    outer loop
      vertex 26.4928 11.7954 175
      vertex 22.8386 10.1684 175
      vertex 24.4537 5.19779 175
    endloop
  endfacet
  facet normal 0 0 1
    outer loop
      vertex 23.4615 17.0458 175
      vertex 20.2254 14.6946 175
      vertex 22.8386 10.1684 175
    endloop
  endfacet
  facet normal 0 0 1
    outer loop
      vertex 19.4048 21.5512 175
      vertex 20.2254 14.6946 175
      vertex 23.4615 17.0458 175
    endloop
  endfacet
  facet normal 0 0 1
    outer loop
      vertex 19.4048 21.5512 175
      vertex 16.7283 18.5786 175
      vertex 20.2254 14.6946 175
    endloop
  endfacet
  facet normal 0 0 1
    outer loop
      vertex 14.5 25.1147 175
      vertex 16.7283 18.5786 175
      vertex 19.4048 21.5512 175
    endloop
  endfacet
  facet normal 0 0 1
    outer loop
      vertex 14.5 25.1147 175
      vertex 12.5 21.6506 175
      vertex 16.7283 18.5786 175
    endloop
  endfacet
  facet normal 0 0 1
    outer loop
      vertex 8.96149 27.5806 175
      vertex 12.5 21.6506 175
      vertex 14.5 25.1147 175
    endloop
  endfacet
  facet normal 0 0 1
    outer loop
      vertex 8.96149 27.5806 175
      vertex 7.72542 23.7764 175
      vertex 12.5 21.6506 175
    endloop
  endfacet
  facet normal 0 0 1
    outer loop
      vertex 3.03133 28.8411 175
      vertex 7.72542 23.7764 175
      vertex 8.96149 27.5806 175
    endloop
  endfacet
  facet normal 0 0 1
    outer loop
      vertex 3.03133 28.8411 175
      vertex 2.61321 24.863 175
      vertex 7.72542 23.7764 175
    endloop
  endfacet
  facet normal 0 0 1
    outer loop
      vertex 3.03133 28.8411 175
      vertex -2.61321 24.863 175
      vertex 2.61321 24.863 175
    endloop
  endfacet
  facet normal -0 0 1
    outer loop
      vertex -3.03133 28.8411 175
      vertex -2.61321 24.863 175
      vertex 3.03133 28.8411 175
    endloop
  endfacet
  facet normal 0 0 1
    outer loop
      vertex -3.03133 28.8411 175
      vertex -7.72542 23.7764 175
      vertex -2.61321 24.863 175
    endloop
  endfacet
  facet normal -0 0 1
    outer loop
      vertex -8.96149 27.5806 175
      vertex -7.72542 23.7764 175
      vertex -3.03133 28.8411 175
    endloop
  endfacet
  facet normal 0 0 1
    outer loop
      vertex -8.96149 27.5806 175
      vertex -12.5 21.6506 175
      vertex -7.72542 23.7764 175
    endloop
  endfacet
  facet normal -0 0 1
    outer loop
      vertex -14.5 25.1147 175
      vertex -12.5 21.6506 175
      vertex -8.96149 27.5806 175
    endloop
  endfacet
  facet normal 0 0 1
    outer loop
      vertex -14.5 25.1147 175
      vertex -16.7283 18.5786 175
      vertex -12.5 21.6506 175
    endloop
  endfacet
  facet normal -0 0 1
    outer loop
      vertex -19.4048 21.5512 175
      vertex -16.7283 18.5786 175
      vertex -14.5 25.1147 175
    endloop
  endfacet
  facet normal 0 0 1
    outer loop
      vertex -19.4048 21.5512 175
      vertex -20.2254 14.6946 175
      vertex -16.7283 18.5786 175
    endloop
  endfacet
  facet normal -0 0 1
    outer loop
      vertex -23.4615 17.0458 175
      vertex -20.2254 14.6946 175
      vertex -19.4048 21.5512 175
    endloop
  endfacet
  facet normal 0 0 1
    outer loop
      vertex -20.2254 14.6946 175
      vertex -23.4615 17.0458 175
      vertex -22.8386 10.1684 175
    endloop
  endfacet
  facet normal -0 0 1
    outer loop
      vertex -26.4928 11.7954 175
      vertex -22.8386 10.1684 175
      vertex -23.4615 17.0458 175
    endloop
  endfacet
  facet normal 0 0 1
    outer loop
      vertex -22.8386 10.1684 175
      vertex -26.4928 11.7954 175
      vertex -24.4537 5.19779 175
    endloop
  endfacet
  facet normal -0 0 1
    outer loop
      vertex -28.3663 6.02944 175
      vertex -24.4537 5.19779 175
      vertex -26.4928 11.7954 175
    endloop
  endfacet
  facet normal 0 0 1
    outer loop
      vertex -24.4537 5.19779 175
      vertex -28.3663 6.02944 175
      vertex -25 0 175
    endloop
  endfacet
  facet normal 0 0 1
    outer loop
      vertex -25 0 175
      vertex -28.3663 6.02944 175
      vertex -29 0 175
    endloop
  endfacet
  facet normal -0.849386 0.490393 0.195083
    outer loop
      vertex -35.5967 25.8626 100
      vertex -40.196 17.8964 100
      vertex -26.4928 11.7954 175
    endloop
  endfacet
  facet normal 0.203917 0.959354 0.195083
    outer loop
      vertex 4.59925 43.759 100
      vertex 3.03133 28.8411 175
      vertex 8.96149 27.5806 175
    endloop
  endfacet
  facet normal 0.203917 0.959354 0.195083
    outer loop
      vertex 13.5967 41.8465 100
      vertex 4.59925 43.759 100
      vertex 8.96149 27.5806 175
    endloop
  endfacet
  facet normal -0.398922 0.895993 0.195083
    outer loop
      vertex -13.5967 41.8465 100
      vertex -14.5 25.1147 175
      vertex -8.96149 27.5806 175
    endloop
  endfacet
  facet normal 0 0.980787 0.195083
    outer loop
      vertex 4.59925 43.759 100
      vertex -3.03133 28.8411 175
      vertex 3.03133 28.8411 175
    endloop
  endfacet
  facet normal 0 0.980787 0.195083
    outer loop
      vertex -3.03133 28.8411 175
      vertex 4.59925 43.759 100
      vertex -4.59925 43.759 100
    endloop
  endfacet
  facet normal -0.203917 0.959354 0.195083
    outer loop
      vertex -4.59925 43.759 100
      vertex -13.5967 41.8465 100
      vertex -8.96149 27.5806 175
    endloop
  endfacet
  facet normal 0.576492 0.793473 0.195083
    outer loop
      vertex 22 38.1051 100
      vertex 14.5 25.1147 175
      vertex 29.4417 32.6984 100
    endloop
  endfacet
  facet normal 0.398922 0.895993 0.195083
    outer loop
      vertex 22 38.1051 100
      vertex 13.5967 41.8465 100
      vertex 14.5 25.1147 175
    endloop
  endfacet
  facet normal 0.849386 0.490393 0.195083
    outer loop
      vertex 35.5967 25.8626 100
      vertex 26.4928 11.7954 175
      vertex 40.196 17.8964 100
    endloop
  endfacet
  facet normal -0.932784 0.30308 0.195083
    outer loop
      vertex -26.4928 11.7954 175
      vertex -43.0385 9.14811 100
      vertex -28.3663 6.02944 175
    endloop
  endfacet
  facet normal -0.975414 0.10252 0.195083
    outer loop
      vertex -28.3663 6.02944 175
      vertex -43.0385 9.14811 100
      vertex -29 0 175
    endloop
  endfacet
  facet normal -0.728867 0.656274 0.195083
    outer loop
      vertex -19.4048 21.5512 175
      vertex -35.5967 25.8626 100
      vertex -23.4615 17.0458 175
    endloop
  endfacet
  facet normal -0.849386 0.490393 0.195083
    outer loop
      vertex -23.4615 17.0458 175
      vertex -35.5967 25.8626 100
      vertex -26.4928 11.7954 175
    endloop
  endfacet
  facet normal -0.203917 0.959354 0.195083
    outer loop
      vertex -4.59925 43.759 100
      vertex -8.96149 27.5806 175
      vertex -3.03133 28.8411 175
    endloop
  endfacet
  facet normal 0.975414 0.10252 0.195083
    outer loop
      vertex 43.0385 9.14811 100
      vertex 28.3663 6.02944 175
      vertex 29 0 175
    endloop
  endfacet
  facet normal 0.932784 0.30308 0.195083
    outer loop
      vertex 43.0385 9.14811 100
      vertex 26.4928 11.7954 175
      vertex 28.3663 6.02944 175
    endloop
  endfacet
  facet normal 0.849386 0.490393 0.195083
    outer loop
      vertex 35.5967 25.8626 100
      vertex 23.4615 17.0458 175
      vertex 26.4928 11.7954 175
    endloop
  endfacet
  facet normal 0.728867 0.656274 0.195083
    outer loop
      vertex 35.5967 25.8626 100
      vertex 19.4048 21.5512 175
      vertex 23.4615 17.0458 175
    endloop
  endfacet
  facet normal -0.975414 -0.10252 -0.195083
    outer loop
      vertex 40 0 100
      vertex 25 0 175
      vertex 24.4537 5.19779 175
    endloop
  endfacet
  facet normal -0.975414 -0.10252 -0.195083
    outer loop
      vertex 39.1259 8.31647 100
      vertex 40 0 100
      vertex 24.4537 5.19779 175
    endloop
  endfacet
  facet normal -0.398922 -0.895993 -0.195083
    outer loop
      vertex 20 34.641 100
      vertex 12.5 21.6506 175
      vertex 12.3607 38.0423 100
    endloop
  endfacet
  facet normal 0.398922 -0.895993 -0.195083
    outer loop
      vertex -12.3607 38.0423 100
      vertex -12.5 21.6506 175
      vertex -20 34.641 100
    endloop
  endfacet
  facet normal -0.728867 -0.656274 -0.195083
    outer loop
      vertex 26.7652 29.7258 100
      vertex 32.3607 23.5114 100
      vertex 16.7283 18.5786 175
    endloop
  endfacet
  facet normal -0.398922 -0.895993 -0.195083
    outer loop
      vertex 12.3607 38.0423 100
      vertex 12.5 21.6506 175
      vertex 7.72542 23.7764 175
    endloop
  endfacet
  facet normal -0.932784 -0.30308 -0.195083
    outer loop
      vertex 39.1259 8.31647 100
      vertex 24.4537 5.19779 175
      vertex 22.8386 10.1684 175
    endloop
  endfacet
  facet normal 0.975414 -0.10252 -0.195083
    outer loop
      vertex -24.4537 5.19779 175
      vertex -25 0 175
      vertex -40 0 100
    endloop
  endfacet
  facet normal -0.576492 -0.793473 -0.195083
    outer loop
      vertex 20 34.641 100
      vertex 26.7652 29.7258 100
      vertex 12.5 21.6506 175
    endloop
  endfacet
  facet normal -0.576492 -0.793473 -0.195083
    outer loop
      vertex 26.7652 29.7258 100
      vertex 16.7283 18.5786 175
      vertex 12.5 21.6506 175
    endloop
  endfacet
  facet normal -0.849386 -0.490393 -0.195083
    outer loop
      vertex 32.3607 23.5114 100
      vertex 22.8386 10.1684 175
      vertex 20.2254 14.6946 175
    endloop
  endfacet
  facet normal 0 -0.980787 -0.195083
    outer loop
      vertex -4.18114 39.7809 100
      vertex 2.61321 24.863 175
      vertex -2.61321 24.863 175
    endloop
  endfacet
  facet normal 0 -0.980787 -0.195083
    outer loop
      vertex 2.61321 24.863 175
      vertex -4.18114 39.7809 100
      vertex 4.18114 39.7809 100
    endloop
  endfacet
  facet normal -0.203917 -0.959354 -0.195083
    outer loop
      vertex 4.18114 39.7809 100
      vertex 12.3607 38.0423 100
      vertex 2.61321 24.863 175
    endloop
  endfacet
  facet normal 0.975414 -0.10252 -0.195083
    outer loop
      vertex -39.1259 8.31647 100
      vertex -24.4537 5.19779 175
      vertex -40 0 100
    endloop
  endfacet
  facet normal -0.728867 -0.656275 -0.195083
    outer loop
      vertex 32.3607 23.5114 100
      vertex 20.2254 14.6946 175
      vertex 16.7283 18.5786 175
    endloop
  endfacet
  facet normal -0.932784 -0.30308 -0.195083
    outer loop
      vertex 36.5418 16.2695 100
      vertex 39.1259 8.31647 100
      vertex 22.8386 10.1684 175
    endloop
  endfacet
  facet normal -0.849386 -0.490393 -0.195083
    outer loop
      vertex 32.3607 23.5114 100
      vertex 36.5418 16.2695 100
      vertex 22.8386 10.1684 175
    endloop
  endfacet
  facet normal -0.203917 -0.959354 -0.195083
    outer loop
      vertex 12.3607 38.0423 100
      vertex 7.72542 23.7764 175
      vertex 2.61321 24.863 175
    endloop
  endfacet
  facet normal 0.849386 -0.490393 -0.195083
    outer loop
      vertex -20.2254 14.6946 175
      vertex -22.8386 10.1684 175
      vertex -32.3607 23.5114 100
    endloop
  endfacet
  facet normal 0.203917 -0.959354 -0.195083
    outer loop
      vertex -4.18114 39.7809 100
      vertex -2.61321 24.863 175
      vertex -12.3607 38.0423 100
    endloop
  endfacet
  facet normal 0.728867 -0.656274 -0.195083
    outer loop
      vertex -26.7652 29.7258 100
      vertex -16.7283 18.5786 175
      vertex -32.3607 23.5114 100
    endloop
  endfacet
  facet normal 0.728867 -0.656275 -0.195083
    outer loop
      vertex -16.7283 18.5786 175
      vertex -20.2254 14.6946 175
      vertex -32.3607 23.5114 100
    endloop
  endfacet
  facet normal 0.932784 -0.30308 -0.195083
    outer loop
      vertex -36.5418 16.2695 100
      vertex -22.8386 10.1684 175
      vertex -39.1259 8.31647 100
    endloop
  endfacet
  facet normal 0.849386 -0.490393 -0.195083
    outer loop
      vertex -32.3607 23.5114 100
      vertex -22.8386 10.1684 175
      vertex -36.5418 16.2695 100
    endloop
  endfacet
  facet normal 0.203917 -0.959354 -0.195083
    outer loop
      vertex -2.61321 24.863 175
      vertex -7.72542 23.7764 175
      vertex -12.3607 38.0423 100
    endloop
  endfacet
  facet normal 0.398922 -0.895993 -0.195083
    outer loop
      vertex -12.3607 38.0423 100
      vertex -7.72542 23.7764 175
      vertex -12.5 21.6506 175
    endloop
  endfacet
  facet normal 0.576492 -0.793473 -0.195083
    outer loop
      vertex -12.5 21.6506 175
      vertex -16.7283 18.5786 175
      vertex -26.7652 29.7258 100
    endloop
  endfacet
  facet normal 0.576492 -0.793473 -0.195083
    outer loop
      vertex -20 34.641 100
      vertex -12.5 21.6506 175
      vertex -26.7652 29.7258 100
    endloop
  endfacet
  facet normal 0.932784 -0.30308 -0.195083
    outer loop
      vertex -22.8386 10.1684 175
      vertex -24.4537 5.19779 175
      vertex -39.1259 8.31647 100
    endloop
  endfacet
  facet normal 0 -1 0
    outer loop
      vertex 40 0 100
      vertex 29 0 175
      vertex 25 0 175
    endloop
  endfacet
  facet normal 0 -1 0
    outer loop
      vertex 40 0 100
      vertex 44 0 100
      vertex 29 0 175
    endloop
  endfacet
  facet normal 0 -1 0
    outer loop
      vertex 45 0 35
      vertex 44 0 100
      vertex 40 0 100
    endloop
  endfacet
  facet normal 0 -1 0
    outer loop
      vertex 45 0 35
      vertex 49 0 35
      vertex 44 0 100
    endloop
  endfacet
  facet normal 0 -1 0
    outer loop
      vertex 45 0 0
      vertex 49 0 35
      vertex 45 0 35
    endloop
  endfacet
  facet normal 0 -1 -0
    outer loop
      vertex 49 0 35
      vertex 45 0 0
      vertex 49 0 0
    endloop
  endfacet
  facet normal 0 -1 0
    outer loop
      vertex -40 0 100
      vertex -29 0 175
      vertex -44 0 100
    endloop
  endfacet
  facet normal 0 -1 -0
    outer loop
      vertex -29 0 175
      vertex -40 0 100
      vertex -25 0 175
    endloop
  endfacet
  facet normal 0 -1 0
    outer loop
      vertex -45 0 35
      vertex -44 0 100
      vertex -49 0 35
    endloop
  endfacet
  facet normal 0 -1 -0
    outer loop
      vertex -44 0 100
      vertex -45 0 35
      vertex -40 0 100
    endloop
  endfacet
  facet normal 0 -1 0
    outer loop
      vertex -49 0 0
      vertex -45 0 35
      vertex -49 0 35
    endloop
  endfacet
  facet normal 0 -1 -0
    outer loop
      vertex -45 0 35
      vertex -49 0 0
      vertex -45 0 0
    endloop
  endfacet
endsolid OpenSCAD_Model
