solid OpenSCAD_Model
  facet normal 0.986361 0.164594 0
    outer loop
      vertex 56 3 40
      vertex 55.6749 4.9482 2.48997e-015
      vertex 55.6749 4.9482 40
    endloop
  endfacet
  facet normal 0.986361 0.164594 0
    outer loop
      vertex 55.6749 4.9482 2.48997e-015
      vertex 56 3 40
      vertex 56 3 2.50451e-015
    endloop
  endfacet
  facet normal 0.082579 0.996585 -0
    outer loop
      vertex 51.4729 8.8164 2.30204e-015
      vertex 50 8.93845 40
      vertex 51.4729 8.8164 40
    endloop
  endfacet
  facet normal 0.082579 0.996585 0
    outer loop
      vertex 50 8.93845 40
      vertex 51.4729 8.8164 2.30204e-015
      vertex 50 8.93845 2.23617e-015
    endloop
  endfacet
  facet normal 0.401695 -0.915773 0
    outer loop
      vertex 51.4729 -2.8164 40
      vertex 53.2817 -2.023 2.38294e-015
      vertex 53.2817 -2.023 40
    endloop
  endfacet
  facet normal 0.401695 -0.915773 0
    outer loop
      vertex 53.2817 -2.023 2.38294e-015
      vertex 51.4729 -2.8164 40
      vertex 51.4729 -2.8164 2.30204e-015
    endloop
  endfacet
  facet normal 4.47233e-017 7.57889e-023 -1
    outer loop
      vertex 53 3 2.37034e-015
      vertex 56 3 2.50451e-015
      vertex 55.6749 1.0518 2.48997e-015
    endloop
  endfacet
  facet normal 4.47233e-017 -1.52233e-022 -1
    outer loop
      vertex 52.4271 1.23664 2.34471e-015
      vertex 55.6749 1.0518 2.48997e-015
      vertex 54.7348 -0.685276 2.44793e-015
    endloop
  endfacet
  facet normal 4.47233e-017 -7.57889e-023 -1
    outer loop
      vertex 56 3 2.50451e-015
      vertex 53 3 2.37034e-015
      vertex 55.6749 4.9482 2.48997e-015
    endloop
  endfacet
  facet normal 4.47234e-017 -2.2128e-023 -1
    outer loop
      vertex 52.4271 1.23664 2.34471e-015
      vertex 54.7348 -0.685276 2.44793e-015
      vertex 53.2817 -2.023 2.38294e-015
    endloop
  endfacet
  facet normal 4.47233e-017 -4.22889e-023 -1
    outer loop
      vertex 52.4271 4.76336 2.34471e-015
      vertex 55.6749 4.9482 2.48997e-015
      vertex 53 3 2.37034e-015
    endloop
  endfacet
  facet normal 4.47233e-017 1.52233e-022 -1
    outer loop
      vertex 55.6749 4.9482 2.48997e-015
      vertex 52.4271 4.76336 2.34471e-015
      vertex 54.7348 6.68528 2.44793e-015
    endloop
  endfacet
  facet normal 4.47233e-017 4.22889e-023 -1
    outer loop
      vertex 55.6749 1.0518 2.48997e-015
      vertex 52.4271 1.23664 2.34471e-015
      vertex 53 3 2.37034e-015
    endloop
  endfacet
  facet normal 4.47234e-017 -1.37275e-023 -1
    outer loop
      vertex 50.9271 0.146831 2.27763e-015
      vertex 53.2817 -2.023 2.38294e-015
      vertex 51.4729 -2.8164 2.30204e-015
    endloop
  endfacet
  facet normal 4.47234e-017 -3.46384e-023 -1
    outer loop
      vertex 53.2817 -2.023 2.38294e-015
      vertex 50.9271 0.146831 2.27763e-015
      vertex 52.4271 1.23664 2.34471e-015
    endloop
  endfacet
  facet normal 4.47233e-017 0 -1
    outer loop
      vertex 50 0 2.23617e-015
      vertex 51.4729 -2.8164 2.30204e-015
      vertex 50 -2.93845 2.23617e-015
    endloop
  endfacet
  facet normal 4.47233e-017 -3.29904e-023 -1
    outer loop
      vertex 51.4729 -2.8164 2.30204e-015
      vertex 50 0 2.23617e-015
      vertex 50.9271 0.146831 2.27763e-015
    endloop
  endfacet
  facet normal 4.47233e-017 0 -1
    outer loop
      vertex 50.9271 0.146831 2.27763e-015
      vertex 50 0 2.23617e-015
      vertex 50 0.146831 2.23617e-015
    endloop
  endfacet
  facet normal 4.47234e-017 2.2128e-023 -1
    outer loop
      vertex 54.7348 6.68528 2.44793e-015
      vertex 52.4271 4.76336 2.34471e-015
      vertex 53.2817 8.023 2.38294e-015
    endloop
  endfacet
  facet normal 4.47234e-017 3.46384e-023 -1
    outer loop
      vertex 50.9271 5.85317 2.27763e-015
      vertex 53.2817 8.023 2.38294e-015
      vertex 52.4271 4.76336 2.34471e-015
    endloop
  endfacet
  facet normal 4.47234e-017 1.37275e-023 -1
    outer loop
      vertex 53.2817 8.023 2.38294e-015
      vertex 50.9271 5.85317 2.27763e-015
      vertex 51.4729 8.8164 2.30204e-015
    endloop
  endfacet
  facet normal 4.47233e-017 0 -1
    outer loop
      vertex 50 8.93845 2.23617e-015
      vertex 50.9271 5.85317 2.27763e-015
      vertex 50 5.85317 2.23617e-015
    endloop
  endfacet
  facet normal 4.47233e-017 2.10487e-023 -1
    outer loop
      vertex 50.9271 5.85317 2.27763e-015
      vertex 50 8.93845 2.23617e-015
      vertex 51.4729 8.8164 2.30204e-015
    endloop
  endfacet
  facet normal 4.47233e-017 0 -1
    outer loop
      vertex 3 0 1.3417e-016
      vertex 50 -2.93845 2.23617e-015
      vertex 50 -3 2.23617e-015
    endloop
  endfacet
  facet normal 4.47233e-017 0 -1
    outer loop
      vertex 50 -2.93845 2.23617e-015
      vertex 3 0 1.3417e-016
      vertex 50 0 2.23617e-015
    endloop
  endfacet
  facet normal 4.47233e-017 8.28699e-025 -1
    outer loop
      vertex 0 -2.85317 0
      vertex 2.42705 1.76336 1.08546e-016
      vertex 3 0 1.3417e-016
    endloop
  endfacet
  facet normal 4.47233e-017 0 -1
    outer loop
      vertex 0 -3 0
      vertex 3 0 1.3417e-016
      vertex 50 -3 2.23617e-015
    endloop
  endfacet
  facet normal 4.47233e-017 0 -1
    outer loop
      vertex 0 -2.85317 0
      vertex 3 0 1.3417e-016
      vertex 0 -3 0
    endloop
  endfacet
  facet normal 4.47233e-017 -5.39316e-025 -1
    outer loop
      vertex 2.42705 1.76336 1.08546e-016
      vertex 0 -2.85317 0
      vertex 0.927051 2.85317 4.14608e-017
    endloop
  endfacet
  facet normal 4.47233e-017 -5.10847e-024 -1
    outer loop
      vertex -2.42705 -1.76336 -1.08546e-016
      vertex 0 -2.85317 0
      vertex -0.927051 -2.85317 -4.14608e-017
    endloop
  endfacet
  facet normal 4.47233e-017 0 -1
    outer loop
      vertex 0 -2.85317 0
      vertex -0.927051 2.85317 -4.14608e-017
      vertex 0.927051 2.85317 4.14608e-017
    endloop
  endfacet
  facet normal 4.47233e-017 1.56991e-024 -1
    outer loop
      vertex -3 0 -1.3417e-016
      vertex 0 -2.85317 0
      vertex -2.42705 -1.76336 -1.08546e-016
    endloop
  endfacet
  facet normal 4.47233e-017 5.39316e-025 -1
    outer loop
      vertex 0 -2.85317 0
      vertex -2.42705 1.76336 -1.08546e-016
      vertex -0.927051 2.85317 -4.14608e-017
    endloop
  endfacet
  facet normal 4.47233e-017 -8.28699e-025 -1
    outer loop
      vertex 0 -2.85317 0
      vertex -3 0 -1.3417e-016
      vertex -2.42705 1.76336 -1.08546e-016
    endloop
  endfacet
  facet normal 0.677282 0.735723 -0
    outer loop
      vertex 54.7348 6.68528 2.44793e-015
      vertex 53.2817 8.023 40
      vertex 54.7348 6.68528 40
    endloop
  endfacet
  facet normal 0.677282 0.735723 0
    outer loop
      vertex 53.2817 8.023 40
      vertex 54.7348 6.68528 2.44793e-015
      vertex 53.2817 8.023 2.38294e-015
    endloop
  endfacet
  facet normal 0.879473 0.475949 0
    outer loop
      vertex 55.6749 4.9482 40
      vertex 54.7348 6.68528 2.44793e-015
      vertex 54.7348 6.68528 40
    endloop
  endfacet
  facet normal 0.879473 0.475949 0
    outer loop
      vertex 54.7348 6.68528 2.44793e-015
      vertex 55.6749 4.9482 40
      vertex 55.6749 4.9482 2.48997e-015
    endloop
  endfacet
  facet normal 0.401695 0.915773 -0
    outer loop
      vertex 53.2817 8.023 2.38294e-015
      vertex 51.4729 8.8164 40
      vertex 53.2817 8.023 40
    endloop
  endfacet
  facet normal 0.401695 0.915773 0
    outer loop
      vertex 51.4729 8.8164 40
      vertex 53.2817 8.023 2.38294e-015
      vertex 51.4729 8.8164 2.30204e-015
    endloop
  endfacet
  facet normal -0 0 1
    outer loop
      vertex -0.927051 2.85317 40
      vertex 1.78893e-015 -2.85317 40
      vertex 0.927051 2.85317 40
    endloop
  endfacet
  facet normal -0 0 1
    outer loop
      vertex -2.42705 1.76336 40
      vertex 1.78893e-015 -2.85317 40
      vertex -0.927051 2.85317 40
    endloop
  endfacet
  facet normal -0 0 1
    outer loop
      vertex -3 0 40
      vertex 1.78893e-015 -2.85317 40
      vertex -2.42705 1.76336 40
    endloop
  endfacet
  facet normal 0 0 1
    outer loop
      vertex 1.78893e-015 -2.85317 40
      vertex -2.42705 -1.76336 40
      vertex -0.927051 -2.85317 40
    endloop
  endfacet
  facet normal 0 0 1
    outer loop
      vertex 1.78893e-015 -2.85317 40
      vertex -3 0 40
      vertex -2.42705 -1.76336 40
    endloop
  endfacet
  facet normal 0 0 1
    outer loop
      vertex 53 3 40
      vertex 56 3 40
      vertex 55.6749 4.9482 40
    endloop
  endfacet
  facet normal 0 0 1
    outer loop
      vertex 52.4271 4.76336 40
      vertex 55.6749 4.9482 40
      vertex 54.7348 6.68528 40
    endloop
  endfacet
  facet normal 0 0 1
    outer loop
      vertex 56 3 40
      vertex 53 3 40
      vertex 55.6749 1.0518 40
    endloop
  endfacet
  facet normal 0 0 1
    outer loop
      vertex 52.4271 4.76336 40
      vertex 54.7348 6.68528 40
      vertex 53.2817 8.023 40
    endloop
  endfacet
  facet normal -0 0 1
    outer loop
      vertex 52.4271 1.23664 40
      vertex 55.6749 1.0518 40
      vertex 53 3 40
    endloop
  endfacet
  facet normal 0 0 1
    outer loop
      vertex 55.6749 1.0518 40
      vertex 52.4271 1.23664 40
      vertex 54.7348 -0.685276 40
    endloop
  endfacet
  facet normal 0 0 1
    outer loop
      vertex 55.6749 4.9482 40
      vertex 52.4271 4.76336 40
      vertex 53 3 40
    endloop
  endfacet
  facet normal 0 0 1
    outer loop
      vertex 50.9271 5.85317 40
      vertex 53.2817 8.023 40
      vertex 51.4729 8.8164 40
    endloop
  endfacet
  facet normal 0 0 1
    outer loop
      vertex 53.2817 8.023 40
      vertex 50.9271 5.85317 40
      vertex 52.4271 4.76336 40
    endloop
  endfacet
  facet normal 0 0 1
    outer loop
      vertex 50 8.93845 40
      vertex 50.9271 5.85317 40
      vertex 51.4729 8.8164 40
    endloop
  endfacet
  facet normal 0 0 1
    outer loop
      vertex 50.9271 5.85317 40
      vertex 50 8.93845 40
      vertex 50 5.85317 40
    endloop
  endfacet
  facet normal 0 0 1
    outer loop
      vertex 54.7348 -0.685276 40
      vertex 52.4271 1.23664 40
      vertex 53.2817 -2.023 40
    endloop
  endfacet
  facet normal -0 0 1
    outer loop
      vertex 50.9271 0.146831 40
      vertex 53.2817 -2.023 40
      vertex 52.4271 1.23664 40
    endloop
  endfacet
  facet normal 0 0 1
    outer loop
      vertex 53.2817 -2.023 40
      vertex 50.9271 0.146831 40
      vertex 51.4729 -2.8164 40
    endloop
  endfacet
  facet normal 0 0 1
    outer loop
      vertex 50 0 40
      vertex 50.9271 0.146831 40
      vertex 50 0.146831 40
    endloop
  endfacet
  facet normal 0 0 1
    outer loop
      vertex 50.9271 0.146831 40
      vertex 50 0 40
      vertex 51.4729 -2.8164 40
    endloop
  endfacet
  facet normal 0 0 1
    outer loop
      vertex 50 0 40
      vertex 50 -2.93845 40
      vertex 51.4729 -2.8164 40
    endloop
  endfacet
  facet normal -0 0 1
    outer loop
      vertex 3 0 40
      vertex 50 -2.93845 40
      vertex 50 0 40
    endloop
  endfacet
  facet normal 0 0 1
    outer loop
      vertex 50 -2.93845 40
      vertex 3 0 40
      vertex 50 -3 40
    endloop
  endfacet
  facet normal 0 0 1
    outer loop
      vertex 1.78893e-015 -2.85317 40
      vertex 2.42705 1.76336 40
      vertex 0.927051 2.85317 40
    endloop
  endfacet
  facet normal 0 0 1
    outer loop
      vertex 2.42705 1.76336 40
      vertex 1.78893e-015 -2.85317 40
      vertex 3 0 40
    endloop
  endfacet
  facet normal 0 0 1
    outer loop
      vertex 1.78893e-015 -3 40
      vertex 3 0 40
      vertex 1.78893e-015 -2.85317 40
    endloop
  endfacet
  facet normal 0 0 1
    outer loop
      vertex 3 0 40
      vertex 1.78893e-015 -3 40
      vertex 50 -3 40
    endloop
  endfacet
  facet normal 0.986361 -0.164594 0
    outer loop
      vertex 55.6749 1.0518 40
      vertex 56 3 2.50451e-015
      vertex 56 3 40
    endloop
  endfacet
  facet normal 0.986361 -0.164594 0
    outer loop
      vertex 56 3 2.50451e-015
      vertex 55.6749 1.0518 40
      vertex 55.6749 1.0518 2.48997e-015
    endloop
  endfacet
  facet normal 0.677282 -0.735723 0
    outer loop
      vertex 53.2817 -2.023 40
      vertex 54.7348 -0.685276 2.44793e-015
      vertex 54.7348 -0.685276 40
    endloop
  endfacet
  facet normal 0.677282 -0.735723 0
    outer loop
      vertex 54.7348 -0.685276 2.44793e-015
      vertex 53.2817 -2.023 40
      vertex 53.2817 -2.023 2.38294e-015
    endloop
  endfacet
  facet normal 0.0825793 -0.996584 0
    outer loop
      vertex 50 -2.93845 40
      vertex 51.4729 -2.8164 2.30204e-015
      vertex 51.4729 -2.8164 40
    endloop
  endfacet
  facet normal 0.0825793 -0.996584 0
    outer loop
      vertex 51.4729 -2.8164 2.30204e-015
      vertex 50 -2.93845 40
      vertex 50 -2.93845 2.23617e-015
    endloop
  endfacet
  facet normal 0.879473 -0.475949 0
    outer loop
      vertex 54.7348 -0.685276 40
      vertex 55.6749 1.0518 2.48997e-015
      vertex 55.6749 1.0518 40
    endloop
  endfacet
  facet normal 0.879473 -0.475949 0
    outer loop
      vertex 55.6749 1.0518 2.48997e-015
      vertex 54.7348 -0.685276 40
      vertex 54.7348 -0.685276 2.44793e-015
    endloop
  endfacet
  facet normal -0.951057 -0.309017 0
    outer loop
      vertex 53 3 2.37034e-015
      vertex 52.4271 4.76336 40
      vertex 52.4271 4.76336 2.34471e-015
    endloop
  endfacet
  facet normal -0.951057 -0.309017 0
    outer loop
      vertex 52.4271 4.76336 40
      vertex 53 3 2.37034e-015
      vertex 53 3 40
    endloop
  endfacet
  facet normal 0 1 -0
    outer loop
      vertex 50.9271 0.146831 2.27763e-015
      vertex 50 0.146831 40
      vertex 50.9271 0.146831 40
    endloop
  endfacet
  facet normal 0 1 0
    outer loop
      vertex 50 0.146831 40
      vertex 50.9271 0.146831 2.27763e-015
      vertex 50 0.146831 2.23617e-015
    endloop
  endfacet
  facet normal 0 -1 0
    outer loop
      vertex 50 5.85317 40
      vertex 50.9271 5.85317 2.27763e-015
      vertex 50.9271 5.85317 40
    endloop
  endfacet
  facet normal -0 -1 0
    outer loop
      vertex 50.9271 5.85317 2.27763e-015
      vertex 50 5.85317 40
      vertex 50 5.85317 2.23617e-015
    endloop
  endfacet
  facet normal -0.587785 -0.809017 0
    outer loop
      vertex 50.9271 5.85317 40
      vertex 52.4271 4.76336 2.34471e-015
      vertex 52.4271 4.76336 40
    endloop
  endfacet
  facet normal -0.587785 -0.809017 0
    outer loop
      vertex 52.4271 4.76336 2.34471e-015
      vertex 50.9271 5.85317 40
      vertex 50.9271 5.85317 2.27763e-015
    endloop
  endfacet
  facet normal -0.587785 0.809017 0
    outer loop
      vertex 52.4271 1.23664 2.34471e-015
      vertex 50.9271 0.146831 40
      vertex 52.4271 1.23664 40
    endloop
  endfacet
  facet normal -0.587785 0.809017 0
    outer loop
      vertex 50.9271 0.146831 40
      vertex 52.4271 1.23664 2.34471e-015
      vertex 50.9271 0.146831 2.27763e-015
    endloop
  endfacet
  facet normal -0.951057 0.309017 0
    outer loop
      vertex 52.4271 1.23664 2.34471e-015
      vertex 53 3 40
      vertex 53 3 2.37034e-015
    endloop
  endfacet
  facet normal -0.951057 0.309017 0
    outer loop
      vertex 53 3 40
      vertex 52.4271 1.23664 2.34471e-015
      vertex 52.4271 1.23664 40
    endloop
  endfacet
  facet normal -1 0 0
    outer loop
      vertex 50 5.85317 2.23617e-015
      vertex 50 8.93845 40
      vertex 50 8.93845 2.23617e-015
    endloop
  endfacet
  facet normal -1 -0 0
    outer loop
      vertex 50 8.93845 40
      vertex 50 5.85317 2.23617e-015
      vertex 50 5.85317 40
    endloop
  endfacet
  facet normal -1 0 0
    outer loop
      vertex 50 0 2.23617e-015
      vertex 50 0.146831 40
      vertex 50 0.146831 2.23617e-015
    endloop
  endfacet
  facet normal -1 -0 0
    outer loop
      vertex 50 0.146831 40
      vertex 50 0 2.23617e-015
      vertex 50 0 40
    endloop
  endfacet
  facet normal 1 -0 0
    outer loop
      vertex 50 -3 40
      vertex 50 -2.93845 2.23617e-015
      vertex 50 -2.93845 40
    endloop
  endfacet
  facet normal 1 0 0
    outer loop
      vertex 50 -2.93845 2.23617e-015
      vertex 50 -3 40
      vertex 50 -3 2.23617e-015
    endloop
  endfacet
  facet normal 0.951056 0.309017 0
    outer loop
      vertex 3 0 40
      vertex 2.42705 1.76336 1.08546e-016
      vertex 2.42705 1.76336 40
    endloop
  endfacet
  facet normal 0.951056 0.309017 0
    outer loop
      vertex 2.42705 1.76336 1.08546e-016
      vertex 3 0 40
      vertex 3 0 1.3417e-016
    endloop
  endfacet
  facet normal -0.951056 0.309017 0
    outer loop
      vertex -3 0 -1.3417e-016
      vertex -2.42705 1.76336 40
      vertex -2.42705 1.76336 -1.08546e-016
    endloop
  endfacet
  facet normal -0.951056 0.309017 0
    outer loop
      vertex -2.42705 1.76336 40
      vertex -3 0 -1.3417e-016
      vertex -3 0 40
    endloop
  endfacet
  facet normal 0 -1 0
    outer loop
      vertex -0.927051 -2.85317 40
      vertex 0 -2.85317 0
      vertex 1.78893e-015 -2.85317 40
    endloop
  endfacet
  facet normal -0 -1 0
    outer loop
      vertex 0 -2.85317 0
      vertex -0.927051 -2.85317 40
      vertex -0.927051 -2.85317 -4.14608e-017
    endloop
  endfacet
  facet normal 0 1 -0
    outer loop
      vertex 0.927051 2.85317 4.14608e-017
      vertex -0.927051 2.85317 40
      vertex 0.927051 2.85317 40
    endloop
  endfacet
  facet normal 0 1 0
    outer loop
      vertex -0.927051 2.85317 40
      vertex 0.927051 2.85317 4.14608e-017
      vertex -0.927051 2.85317 -4.14608e-017
    endloop
  endfacet
  facet normal 0.587785 0.809017 -0
    outer loop
      vertex 2.42705 1.76336 1.08546e-016
      vertex 0.927051 2.85317 40
      vertex 2.42705 1.76336 40
    endloop
  endfacet
  facet normal 0.587785 0.809017 0
    outer loop
      vertex 0.927051 2.85317 40
      vertex 2.42705 1.76336 1.08546e-016
      vertex 0.927051 2.85317 4.14608e-017
    endloop
  endfacet
  facet normal -0.587785 0.809017 0
    outer loop
      vertex -0.927051 2.85317 -4.14608e-017
      vertex -2.42705 1.76336 40
      vertex -0.927051 2.85317 40
    endloop
  endfacet
  facet normal -0.587785 0.809017 0
    outer loop
      vertex -2.42705 1.76336 40
      vertex -0.927051 2.85317 -4.14608e-017
      vertex -2.42705 1.76336 -1.08546e-016
    endloop
  endfacet
  facet normal -0.951056 -0.309017 0
    outer loop
      vertex -2.42705 -1.76336 -1.08546e-016
      vertex -3 0 40
      vertex -3 0 -1.3417e-016
    endloop
  endfacet
  facet normal -0.951056 -0.309017 0
    outer loop
      vertex -3 0 40
      vertex -2.42705 -1.76336 -1.08546e-016
      vertex -2.42705 -1.76336 40
    endloop
  endfacet
  facet normal -0.587785 -0.809017 0
    outer loop
      vertex -2.42705 -1.76336 40
      vertex -0.927051 -2.85317 -4.14608e-017
      vertex -0.927051 -2.85317 40
    endloop
  endfacet
  facet normal -0.587785 -0.809017 0
    outer loop
      vertex -0.927051 -2.85317 -4.14608e-017
      vertex -2.42705 -1.76336 40
      vertex -2.42705 -1.76336 -1.08546e-016
    endloop
  endfacet
  facet normal -1 0 4.47233e-017
    outer loop
      vertex 0 -3 0
      vertex 1.78893e-015 -2.85317 40
      vertex 0 -2.85317 0
    endloop
  endfacet
  facet normal -1 0 4.47233e-017
    outer loop
      vertex 1.78893e-015 -2.85317 40
      vertex 0 -3 0
      vertex 1.78893e-015 -3 40
    endloop
  endfacet
  facet normal 0 -1 0
    outer loop
      vertex 1.78893e-015 -3 40
      vertex 50 -3 2.23617e-015
      vertex 50 -3 40
    endloop
  endfacet
  facet normal -0 -1 0
    outer loop
      vertex 50 -3 2.23617e-015
      vertex 1.78893e-015 -3 40
      vertex 0 -3 0
    endloop
  endfacet
  facet normal 0 1 -0
    outer loop
      vertex 50 0 2.23617e-015
      vertex 3 0 40
      vertex 50 0 40
    endloop
  endfacet
  facet normal 0 1 0
    outer loop
      vertex 3 0 40
      vertex 50 0 2.23617e-015
      vertex 3 0 1.3417e-016
    endloop
  endfacet
  facet normal -0 0 1
    outer loop
      vertex -7.09285e-015 9 40
      vertex 50 6 40
      vertex 50 9 40
    endloop
  endfacet
  facet normal 0 0 1
    outer loop
      vertex 50 6 40
      vertex -7.09285e-015 9 40
      vertex -7.09285e-015 6 40
    endloop
  endfacet
  facet normal 1 -0 0
    outer loop
      vertex 50 6 40
      vertex 50 9 1.11022e-014
      vertex 50 9 40
    endloop
  endfacet
  facet normal 1 0 0
    outer loop
      vertex 50 9 1.11022e-014
      vertex 50 6 40
      vertex 50 6 1.11022e-014
    endloop
  endfacet
  facet normal 2.22045e-016 0 -1
    outer loop
      vertex 0 6 0
      vertex 36.6667 9 8.14163e-015
      vertex 36.6667 6 8.14163e-015
    endloop
  endfacet
  facet normal 2.22045e-016 0 -1
    outer loop
      vertex 36.6667 9 8.14163e-015
      vertex 0 6 0
      vertex 0 9 0
    endloop
  endfacet
  facet normal 2.22045e-016 0 -1
    outer loop
      vertex 39.3333 6 8.73375e-015
      vertex 50 9 1.11022e-014
      vertex 50 6 1.11022e-014
    endloop
  endfacet
  facet normal 2.22045e-016 0 -1
    outer loop
      vertex 50 9 1.11022e-014
      vertex 39.3333 6 8.73375e-015
      vertex 39.3333 9 8.73375e-015
    endloop
  endfacet
  facet normal 0 0 0
    outer loop
      vertex 39.3333 6 8.73375e-015
      vertex 50 6 1.11022e-014
      vertex 0 6 0
    endloop
  endfacet
  facet normal 0 0 0
    outer loop
      vertex 0 6 0
      vertex 36.6667 6 8.14163e-015
      vertex 39.3333 6 8.73375e-015
    endloop
  endfacet
  facet normal -1 0 -1.77321e-016
    outer loop
      vertex 0 6 0
      vertex -7.09285e-015 9 40
      vertex 0 9 0
    endloop
  endfacet
  facet normal -1 -0 -1.77321e-016
    outer loop
      vertex -7.09285e-015 9 40
      vertex 0 6 0
      vertex -7.09285e-015 6 40
    endloop
  endfacet
  facet normal 0 -1 0
    outer loop
      vertex -7.09285e-015 6 40
      vertex 50 6 1.11022e-014
      vertex 50 6 40
    endloop
  endfacet
  facet normal -0 -1 0
    outer loop
      vertex 50 6 1.11022e-014
      vertex -7.09285e-015 6 40
      vertex 0 6 0
    endloop
  endfacet
  facet normal 0 1 -0
    outer loop
      vertex 50 9 1.11022e-014
      vertex 39.3333 9 40
      vertex 50 9 40
    endloop
  endfacet
  facet normal 0 1 0
    outer loop
      vertex 39.3333 9 40
      vertex 50 9 1.11022e-014
      vertex 39.3333 9 8.73375e-015
    endloop
  endfacet
  facet normal 0 1 -0
    outer loop
      vertex 36.6667 9 8.14163e-015
      vertex -7.09285e-015 9 40
      vertex 36.6667 9 40
    endloop
  endfacet
  facet normal 0 1 0
    outer loop
      vertex -7.09285e-015 9 40
      vertex 36.6667 9 8.14163e-015
      vertex 0 9 0
    endloop
  endfacet
  facet normal 0 0 0
    outer loop
      vertex -7.09285e-015 9 40
      vertex 50 9 40
      vertex 39.3333 9 40
    endloop
  endfacet
  facet normal 0 0 0
    outer loop
      vertex 36.6667 9 40
      vertex -7.09285e-015 9 40
      vertex 39.3333 9 40
    endloop
  endfacet
  facet normal 0 1 -0
    outer loop
      vertex 46 39 1.02141e-014
      vertex 30 39 40
      vertex 46 39 40
    endloop
  endfacet
  facet normal 0 1 0
    outer loop
      vertex 30 39 40
      vertex 46 39 1.02141e-014
      vertex 30 39 6.66134e-015
    endloop
  endfacet
  facet normal 1 -0 0
    outer loop
      vertex 46 31 40
      vertex 46 39 1.02141e-014
      vertex 46 39 40
    endloop
  endfacet
  facet normal 1 0 0
    outer loop
      vertex 46 39 1.02141e-014
      vertex 46 31 40
      vertex 46 31 8.79548e-015
    endloop
  endfacet
  facet normal 0 -1 0
    outer loop
      vertex 39.3333 31 40
      vertex 46 31 8.79548e-015
      vertex 46 31 40
    endloop
  endfacet
  facet normal -0 -1 0
    outer loop
      vertex 46 31 8.79548e-015
      vertex 39.3333 31 40
      vertex 39.3333 31 7.31518e-015
    endloop
  endfacet
  facet normal 0 -1 0
    outer loop
      vertex 30 31 40
      vertex 36.6667 31 6.72307e-015
      vertex 36.6667 31 40
    endloop
  endfacet
  facet normal -0 -1 0
    outer loop
      vertex 36.6667 31 6.72307e-015
      vertex 30 31 40
      vertex 30 31 5.24277e-015
    endloop
  endfacet
  facet normal 2.22045e-016 1.77321e-016 -1
    outer loop
      vertex 39.3333 6 2.88215e-015
      vertex 36.6667 6 2.29003e-015
      vertex 39.3333 31 7.31518e-015
    endloop
  endfacet
  facet normal 2.22045e-016 1.77321e-016 -1
    outer loop
      vertex 39.3333 31 7.31518e-015
      vertex 46 39 1.02141e-014
      vertex 46 31 8.79548e-015
    endloop
  endfacet
  facet normal 2.22044e-016 1.77321e-016 -1
    outer loop
      vertex 36.6667 31 6.72307e-015
      vertex 39.3333 31 7.31518e-015
      vertex 36.6667 6 2.29003e-015
    endloop
  endfacet
  facet normal 2.22044e-016 1.77321e-016 -1
    outer loop
      vertex 36.6667 31 6.72307e-015
      vertex 46 39 1.02141e-014
      vertex 39.3333 31 7.31518e-015
    endloop
  endfacet
  facet normal 2.22045e-016 1.77321e-016 -1
    outer loop
      vertex 30 39 6.66134e-015
      vertex 36.6667 31 6.72307e-015
      vertex 30 31 5.24277e-015
    endloop
  endfacet
  facet normal 2.22045e-016 1.77321e-016 -1
    outer loop
      vertex 36.6667 31 6.72307e-015
      vertex 30 39 6.66134e-015
      vertex 46 39 1.02141e-014
    endloop
  endfacet
  facet normal -1 0 0
    outer loop
      vertex 30 31 5.24277e-015
      vertex 30 39 40
      vertex 30 39 6.66134e-015
    endloop
  endfacet
  facet normal -1 -0 0
    outer loop
      vertex 30 39 40
      vertex 30 31 5.24277e-015
      vertex 30 31 40
    endloop
  endfacet
  facet normal 0 0 1
    outer loop
      vertex 46 39 40
      vertex 39.3333 31 40
      vertex 46 31 40
    endloop
  endfacet
  facet normal 0 0 1
    outer loop
      vertex 39.3333 31 40
      vertex 36.6667 31 40
      vertex 39.3333 9 40
    endloop
  endfacet
  facet normal 0 0 1
    outer loop
      vertex 46 39 40
      vertex 36.6667 31 40
      vertex 39.3333 31 40
    endloop
  endfacet
  facet normal -0 0 1
    outer loop
      vertex 30 39 40
      vertex 36.6667 31 40
      vertex 46 39 40
    endloop
  endfacet
  facet normal 0 0 1
    outer loop
      vertex 36.6667 31 40
      vertex 30 39 40
      vertex 30 31 40
    endloop
  endfacet
  facet normal 0 0 1
    outer loop
      vertex 39.3333 9 40
      vertex 36.6667 31 40
      vertex 36.6667 9 40
    endloop
  endfacet
  facet normal 1 -0 0
    outer loop
      vertex 39.3333 9 40
      vertex 39.3333 31 7.31518e-015
      vertex 39.3333 31 40
    endloop
  endfacet
  facet normal 1 -0 0
    outer loop
      vertex 39.3333 9 8.73375e-015
      vertex 39.3333 31 7.31518e-015
      vertex 39.3333 9 40
    endloop
  endfacet
  facet normal 1 0 0
    outer loop
      vertex 39.3333 6 2.88215e-015
      vertex 39.3333 9 8.73375e-015
      vertex 39.3333 6 8.73375e-015
    endloop
  endfacet
  facet normal 1 0 0
    outer loop
      vertex 39.3333 9 8.73375e-015
      vertex 39.3333 6 2.88215e-015
      vertex 39.3333 31 7.31518e-015
    endloop
  endfacet
  facet normal 0 -1 0
    outer loop
      vertex 36.6667 6 8.14163e-015
      vertex 39.3333 6 2.88215e-015
      vertex 39.3333 6 8.73375e-015
    endloop
  endfacet
  facet normal -0 -1 0
    outer loop
      vertex 39.3333 6 2.88215e-015
      vertex 36.6667 6 8.14163e-015
      vertex 36.6667 6 2.29003e-015
    endloop
  endfacet
  facet normal -1 0 0
    outer loop
      vertex 36.6667 31 6.72307e-015
      vertex 36.6667 9 8.14163e-015
      vertex 36.6667 31 40
    endloop
  endfacet
  facet normal -1 0 0
    outer loop
      vertex 36.6667 6 2.29003e-015
      vertex 36.6667 9 8.14163e-015
      vertex 36.6667 31 6.72307e-015
    endloop
  endfacet
  facet normal -1 -0 0
    outer loop
      vertex 36.6667 9 8.14163e-015
      vertex 36.6667 6 2.29003e-015
      vertex 36.6667 6 8.14163e-015
    endloop
  endfacet
  facet normal -1 -0 0
    outer loop
      vertex 36.6667 31 40
      vertex 36.6667 9 8.14163e-015
      vertex 36.6667 9 40
    endloop
  endfacet
endsolid OpenSCAD_Model
