solid OpenSCAD_Model
  facet normal 0.822984 0.568065 0
    outer loop
      vertex 7.08365 3.71778 6.5
      vertex 5.98809 5.30498 0
      vertex 5.98809 5.30498 6.5
    endloop
  endfacet
  facet normal 0.822984 0.568065 0
    outer loop
      vertex 5.98809 5.30498 0
      vertex 7.08365 3.71778 6.5
      vertex 7.08365 3.71778 0
    endloop
  endfacet
  facet normal -0.992709 0.120537 0
    outer loop
      vertex -8 0 0
      vertex -7.76753 1.91453 6.5
      vertex -7.76753 1.91453 0
    endloop
  endfacet
  facet normal -0.992709 0.120537 0
    outer loop
      vertex -7.76753 1.91453 6.5
      vertex -8 0 0
      vertex -8 0 6.5
    endloop
  endfacet
  facet normal -0.992709 -0.120537 0
    outer loop
      vertex -7.76753 -1.91453 0
      vertex -8 0 6.5
      vertex -8 0 0
    endloop
  endfacet
  facet normal -0.992709 -0.120537 0
    outer loop
      vertex -8 0 6.5
      vertex -7.76753 -1.91453 0
      vertex -7.76753 -1.91453 6.5
    endloop
  endfacet
  facet normal 0 1 -0
    outer loop
      vertex 0.964293 7.94167 0
      vertex -0.964293 7.94167 6.5
      vertex 0.964293 7.94167 6.5
    endloop
  endfacet
  facet normal 0 1 0
    outer loop
      vertex -0.964293 7.94167 6.5
      vertex 0.964293 7.94167 0
      vertex -0.964293 7.94167 0
    endloop
  endfacet
  facet normal 0.663123 0.748511 -0
    outer loop
      vertex 5.98809 5.30498 0
      vertex 4.54452 6.58387 6.5
      vertex 5.98809 5.30498 6.5
    endloop
  endfacet
  facet normal 0.663123 0.748511 0
    outer loop
      vertex 4.54452 6.58387 6.5
      vertex 5.98809 5.30498 0
      vertex 4.54452 6.58387 0
    endloop
  endfacet
  facet normal 0.239316 0.970942 -0
    outer loop
      vertex 2.83684 7.48013 0
      vertex 0.964293 7.94167 6.5
      vertex 2.83684 7.48013 6.5
    endloop
  endfacet
  facet normal 0.239316 0.970942 0
    outer loop
      vertex 0.964293 7.94167 6.5
      vertex 2.83684 7.48013 0
      vertex 0.964293 7.94167 0
    endloop
  endfacet
  facet normal -0.464723 0.885456 0
    outer loop
      vertex -2.83684 7.48013 0
      vertex -4.54452 6.58387 6.5
      vertex -2.83684 7.48013 6.5
    endloop
  endfacet
  facet normal -0.464723 0.885456 0
    outer loop
      vertex -4.54452 6.58387 6.5
      vertex -2.83684 7.48013 0
      vertex -4.54452 6.58387 0
    endloop
  endfacet
  facet normal -0.935016 0.354605 0
    outer loop
      vertex -7.76753 1.91453 0
      vertex -7.08365 3.71778 6.5
      vertex -7.08365 3.71778 0
    endloop
  endfacet
  facet normal -0.935016 0.354605 0
    outer loop
      vertex -7.08365 3.71778 6.5
      vertex -7.76753 1.91453 0
      vertex -7.76753 1.91453 6.5
    endloop
  endfacet
  facet normal -0.663123 0.748511 0
    outer loop
      vertex -4.54452 6.58387 0
      vertex -5.98809 5.30498 6.5
      vertex -4.54452 6.58387 6.5
    endloop
  endfacet
  facet normal -0.663123 0.748511 0
    outer loop
      vertex -5.98809 5.30498 6.5
      vertex -4.54452 6.58387 0
      vertex -5.98809 5.30498 0
    endloop
  endfacet
  facet normal 0.992709 -0.120537 0
    outer loop
      vertex 7.76753 -1.91453 6.5
      vertex 8 0 0
      vertex 8 0 6.5
    endloop
  endfacet
  facet normal 0.992709 -0.120537 0
    outer loop
      vertex 8 0 0
      vertex 7.76753 -1.91453 6.5
      vertex 7.76753 -1.91453 0
    endloop
  endfacet
  facet normal 0.239316 -0.970942 0
    outer loop
      vertex 0.964293 -7.94167 0
      vertex 2.83684 -7.48013 6.5
      vertex 0.964293 -7.94167 6.5
    endloop
  endfacet
  facet normal 0.239316 -0.970942 0
    outer loop
      vertex 2.83684 -7.48013 6.5
      vertex 0.964293 -7.94167 0
      vertex 2.83684 -7.48013 0
    endloop
  endfacet
  facet normal 0.935016 0.354605 0
    outer loop
      vertex 7.76753 1.91453 6.5
      vertex 7.08365 3.71778 0
      vertex 7.08365 3.71778 6.5
    endloop
  endfacet
  facet normal 0.935016 0.354605 0
    outer loop
      vertex 7.08365 3.71778 0
      vertex 7.76753 1.91453 6.5
      vertex 7.76753 1.91453 0
    endloop
  endfacet
  facet normal 0.464723 0.885456 -0
    outer loop
      vertex 4.54452 6.58387 0
      vertex 2.83684 7.48013 6.5
      vertex 4.54452 6.58387 6.5
    endloop
  endfacet
  facet normal 0.464723 0.885456 0
    outer loop
      vertex 2.83684 7.48013 6.5
      vertex 4.54452 6.58387 0
      vertex 2.83684 7.48013 0
    endloop
  endfacet
  facet normal 0 0 1
    outer loop
      vertex 3.75 0 6.5
      vertex 8 0 6.5
      vertex 7.76753 1.91453 6.5
    endloop
  endfacet
  facet normal 0 0 1
    outer loop
      vertex 3.24759 1.875 6.5
      vertex 7.76753 1.91453 6.5
      vertex 7.08365 3.71778 6.5
    endloop
  endfacet
  facet normal 0 0 1
    outer loop
      vertex 8 0 6.5
      vertex 3.75 0 6.5
      vertex 7.76753 -1.91453 6.5
    endloop
  endfacet
  facet normal 0 0 1
    outer loop
      vertex 3.24759 1.875 6.5
      vertex 7.08365 3.71778 6.5
      vertex 5.98809 5.30498 6.5
    endloop
  endfacet
  facet normal -0 0 1
    outer loop
      vertex 3.24759 -1.875 6.5
      vertex 7.76753 -1.91453 6.5
      vertex 3.75 0 6.5
    endloop
  endfacet
  facet normal 0 0 1
    outer loop
      vertex 1.875 3.24759 6.5
      vertex 5.98809 5.30498 6.5
      vertex 4.54452 6.58387 6.5
    endloop
  endfacet
  facet normal 0 0 1
    outer loop
      vertex 7.76753 -1.91453 6.5
      vertex 3.24759 -1.875 6.5
      vertex 7.08365 -3.71778 6.5
    endloop
  endfacet
  facet normal 0 0 1
    outer loop
      vertex 7.08365 -3.71778 6.5
      vertex 3.24759 -1.875 6.5
      vertex 5.98809 -5.30498 6.5
    endloop
  endfacet
  facet normal 0 0 1
    outer loop
      vertex 7.76753 1.91453 6.5
      vertex 3.24759 1.875 6.5
      vertex 3.75 0 6.5
    endloop
  endfacet
  facet normal 0 0 1
    outer loop
      vertex 1.875 3.24759 6.5
      vertex 4.54452 6.58387 6.5
      vertex 2.83684 7.48013 6.5
    endloop
  endfacet
  facet normal 0 0 1
    outer loop
      vertex 5.98809 5.30498 6.5
      vertex 1.875 3.24759 6.5
      vertex 3.24759 1.875 6.5
    endloop
  endfacet
  facet normal 0 0 1
    outer loop
      vertex 0 3.75 6.5
      vertex 2.83684 7.48013 6.5
      vertex 0.964293 7.94167 6.5
    endloop
  endfacet
  facet normal 0 0 1
    outer loop
      vertex 2.83684 7.48013 6.5
      vertex 0 3.75 6.5
      vertex 1.875 3.24759 6.5
    endloop
  endfacet
  facet normal -0 0 1
    outer loop
      vertex -0.964293 7.94167 6.5
      vertex 0 3.75 6.5
      vertex 0.964293 7.94167 6.5
    endloop
  endfacet
  facet normal -0 0 1
    outer loop
      vertex -2.83684 7.48013 6.5
      vertex 0 3.75 6.5
      vertex -0.964293 7.94167 6.5
    endloop
  endfacet
  facet normal 0 0 1
    outer loop
      vertex 0 3.75 6.5
      vertex -2.83684 7.48013 6.5
      vertex -1.875 3.24759 6.5
    endloop
  endfacet
  facet normal -0 0 1
    outer loop
      vertex -4.54452 6.58387 6.5
      vertex -1.875 3.24759 6.5
      vertex -2.83684 7.48013 6.5
    endloop
  endfacet
  facet normal -0 0 1
    outer loop
      vertex -5.98809 5.30498 6.5
      vertex -1.875 3.24759 6.5
      vertex -4.54452 6.58387 6.5
    endloop
  endfacet
  facet normal 0 0 1
    outer loop
      vertex -1.875 3.24759 6.5
      vertex -5.98809 5.30498 6.5
      vertex -3.24759 1.875 6.5
    endloop
  endfacet
  facet normal -0 0 1
    outer loop
      vertex 1.875 -3.24759 6.5
      vertex 5.98809 -5.30498 6.5
      vertex 3.24759 -1.875 6.5
    endloop
  endfacet
  facet normal 0 0 1
    outer loop
      vertex 5.98809 -5.30498 6.5
      vertex 1.875 -3.24759 6.5
      vertex 4.54452 -6.58387 6.5
    endloop
  endfacet
  facet normal 0 0 1
    outer loop
      vertex 4.54452 -6.58387 6.5
      vertex 1.875 -3.24759 6.5
      vertex 2.83684 -7.48013 6.5
    endloop
  endfacet
  facet normal -0 0 1
    outer loop
      vertex 0 -3.75 6.5
      vertex 2.83684 -7.48013 6.5
      vertex 1.875 -3.24759 6.5
    endloop
  endfacet
  facet normal 0 0 1
    outer loop
      vertex 2.83684 -7.48013 6.5
      vertex 0 -3.75 6.5
      vertex 0.964293 -7.94167 6.5
    endloop
  endfacet
  facet normal 0 0 1
    outer loop
      vertex 0 -3.75 6.5
      vertex -0.964293 -7.94167 6.5
      vertex 0.964293 -7.94167 6.5
    endloop
  endfacet
  facet normal 0 0 1
    outer loop
      vertex -2.83684 -7.48013 6.5
      vertex 0 -3.75 6.5
      vertex -1.875 -3.24759 6.5
    endloop
  endfacet
  facet normal 0 0 1
    outer loop
      vertex 0 -3.75 6.5
      vertex -2.83684 -7.48013 6.5
      vertex -0.964293 -7.94167 6.5
    endloop
  endfacet
  facet normal 0 0 1
    outer loop
      vertex -5.98809 -5.30498 6.5
      vertex -1.875 -3.24759 6.5
      vertex -3.24759 -1.875 6.5
    endloop
  endfacet
  facet normal 0 0 1
    outer loop
      vertex -7.76753 -1.91453 6.5
      vertex -3.24759 -1.875 6.5
      vertex -3.75 0 6.5
    endloop
  endfacet
  facet normal 0 0 1
    outer loop
      vertex -1.875 -3.24759 6.5
      vertex -4.54452 -6.58387 6.5
      vertex -2.83684 -7.48013 6.5
    endloop
  endfacet
  facet normal -0 0 1
    outer loop
      vertex -7.08365 3.71778 6.5
      vertex -3.24759 1.875 6.5
      vertex -5.98809 5.30498 6.5
    endloop
  endfacet
  facet normal -0 0 1
    outer loop
      vertex -7.76753 1.91453 6.5
      vertex -3.24759 1.875 6.5
      vertex -7.08365 3.71778 6.5
    endloop
  endfacet
  facet normal 0 0 1
    outer loop
      vertex -1.875 -3.24759 6.5
      vertex -5.98809 -5.30498 6.5
      vertex -4.54452 -6.58387 6.5
    endloop
  endfacet
  facet normal 0 0 1
    outer loop
      vertex -3.24759 1.875 6.5
      vertex -7.76753 1.91453 6.5
      vertex -3.75 0 6.5
    endloop
  endfacet
  facet normal 0 0 1
    outer loop
      vertex -3.24759 -1.875 6.5
      vertex -7.08365 -3.71778 6.5
      vertex -5.98809 -5.30498 6.5
    endloop
  endfacet
  facet normal 0 0 1
    outer loop
      vertex -8 0 6.5
      vertex -3.75 0 6.5
      vertex -7.76753 1.91453 6.5
    endloop
  endfacet
  facet normal 0 0 1
    outer loop
      vertex -3.24759 -1.875 6.5
      vertex -7.76753 -1.91453 6.5
      vertex -7.08365 -3.71778 6.5
    endloop
  endfacet
  facet normal 0 0 1
    outer loop
      vertex -3.75 0 6.5
      vertex -8 0 6.5
      vertex -7.76753 -1.91453 6.5
    endloop
  endfacet
  facet normal -0.822984 0.568065 0
    outer loop
      vertex -7.08365 3.71778 0
      vertex -5.98809 5.30498 6.5
      vertex -5.98809 5.30498 0
    endloop
  endfacet
  facet normal -0.822984 0.568065 0
    outer loop
      vertex -5.98809 5.30498 6.5
      vertex -7.08365 3.71778 0
      vertex -7.08365 3.71778 6.5
    endloop
  endfacet
  facet normal -0.239316 0.970942 0
    outer loop
      vertex -0.964293 7.94167 0
      vertex -2.83684 7.48013 6.5
      vertex -0.964293 7.94167 6.5
    endloop
  endfacet
  facet normal -0.239316 0.970942 0
    outer loop
      vertex -2.83684 7.48013 6.5
      vertex -0.964293 7.94167 0
      vertex -2.83684 7.48013 0
    endloop
  endfacet
  facet normal 0.992709 0.120537 0
    outer loop
      vertex 8 0 6.5
      vertex 7.76753 1.91453 0
      vertex 7.76753 1.91453 6.5
    endloop
  endfacet
  facet normal 0.992709 0.120537 0
    outer loop
      vertex 7.76753 1.91453 0
      vertex 8 0 6.5
      vertex 8 0 0
    endloop
  endfacet
  facet normal 0.935016 -0.354605 0
    outer loop
      vertex 7.08365 -3.71778 6.5
      vertex 7.76753 -1.91453 0
      vertex 7.76753 -1.91453 6.5
    endloop
  endfacet
  facet normal 0.935016 -0.354605 0
    outer loop
      vertex 7.76753 -1.91453 0
      vertex 7.08365 -3.71778 6.5
      vertex 7.08365 -3.71778 0
    endloop
  endfacet
  facet normal -0.663123 -0.748511 0
    outer loop
      vertex -5.98809 -5.30498 0
      vertex -4.54452 -6.58387 6.5
      vertex -5.98809 -5.30498 6.5
    endloop
  endfacet
  facet normal -0.663123 -0.748511 -0
    outer loop
      vertex -4.54452 -6.58387 6.5
      vertex -5.98809 -5.30498 0
      vertex -4.54452 -6.58387 0
    endloop
  endfacet
  facet normal -0.935016 -0.354605 0
    outer loop
      vertex -7.08365 -3.71778 0
      vertex -7.76753 -1.91453 6.5
      vertex -7.76753 -1.91453 0
    endloop
  endfacet
  facet normal -0.935016 -0.354605 0
    outer loop
      vertex -7.76753 -1.91453 6.5
      vertex -7.08365 -3.71778 0
      vertex -7.08365 -3.71778 6.5
    endloop
  endfacet
  facet normal 0.663123 -0.748511 0
    outer loop
      vertex 4.54452 -6.58387 0
      vertex 5.98809 -5.30498 6.5
      vertex 4.54452 -6.58387 6.5
    endloop
  endfacet
  facet normal 0.663123 -0.748511 0
    outer loop
      vertex 5.98809 -5.30498 6.5
      vertex 4.54452 -6.58387 0
      vertex 5.98809 -5.30498 0
    endloop
  endfacet
  facet normal 0.822984 -0.568065 0
    outer loop
      vertex 5.98809 -5.30498 6.5
      vertex 7.08365 -3.71778 0
      vertex 7.08365 -3.71778 6.5
    endloop
  endfacet
  facet normal 0.822984 -0.568065 0
    outer loop
      vertex 7.08365 -3.71778 0
      vertex 5.98809 -5.30498 6.5
      vertex 5.98809 -5.30498 0
    endloop
  endfacet
  facet normal 0 0 -1
    outer loop
      vertex 3.75 0 0
      vertex 8 0 0
      vertex 7.76753 -1.91453 0
    endloop
  endfacet
  facet normal 0 0 -1
    outer loop
      vertex 3.24759 -1.875 0
      vertex 7.76753 -1.91453 0
      vertex 7.08365 -3.71778 0
    endloop
  endfacet
  facet normal 0 0 -1
    outer loop
      vertex 8 0 0
      vertex 3.75 0 0
      vertex 7.76753 1.91453 0
    endloop
  endfacet
  facet normal 0 0 -1
    outer loop
      vertex 3.24759 -1.875 0
      vertex 7.08365 -3.71778 0
      vertex 5.98809 -5.30498 0
    endloop
  endfacet
  facet normal 0 0 -1
    outer loop
      vertex 3.24759 1.875 0
      vertex 7.76753 1.91453 0
      vertex 3.75 0 0
    endloop
  endfacet
  facet normal 0 0 -1
    outer loop
      vertex 1.875 -3.24759 0
      vertex 5.98809 -5.30498 0
      vertex 4.54452 -6.58387 0
    endloop
  endfacet
  facet normal -0 0 -1
    outer loop
      vertex 7.76753 1.91453 0
      vertex 3.24759 1.875 0
      vertex 7.08365 3.71778 0
    endloop
  endfacet
  facet normal -0 0 -1
    outer loop
      vertex 7.08365 3.71778 0
      vertex 3.24759 1.875 0
      vertex 5.98809 5.30498 0
    endloop
  endfacet
  facet normal 0 0 -1
    outer loop
      vertex 7.76753 -1.91453 0
      vertex 3.24759 -1.875 0
      vertex 3.75 0 0
    endloop
  endfacet
  facet normal 0 0 -1
    outer loop
      vertex 1.875 -3.24759 0
      vertex 4.54452 -6.58387 0
      vertex 2.83684 -7.48013 0
    endloop
  endfacet
  facet normal 0 0 -1
    outer loop
      vertex 5.98809 -5.30498 0
      vertex 1.875 -3.24759 0
      vertex 3.24759 -1.875 0
    endloop
  endfacet
  facet normal 0 0 -1
    outer loop
      vertex 0 -3.75 0
      vertex 2.83684 -7.48013 0
      vertex 0.964293 -7.94167 0
    endloop
  endfacet
  facet normal 0 0 -1
    outer loop
      vertex 2.83684 -7.48013 0
      vertex 0 -3.75 0
      vertex 1.875 -3.24759 0
    endloop
  endfacet
  facet normal 0 0 -1
    outer loop
      vertex -0.964293 -7.94167 0
      vertex 0 -3.75 0
      vertex 0.964293 -7.94167 0
    endloop
  endfacet
  facet normal 0 0 -1
    outer loop
      vertex -2.83684 -7.48013 0
      vertex 0 -3.75 0
      vertex -0.964293 -7.94167 0
    endloop
  endfacet
  facet normal -0 0 -1
    outer loop
      vertex 0 -3.75 0
      vertex -2.83684 -7.48013 0
      vertex -1.875 -3.24759 0
    endloop
  endfacet
  facet normal 0 0 -1
    outer loop
      vertex -4.54452 -6.58387 0
      vertex -1.875 -3.24759 0
      vertex -2.83684 -7.48013 0
    endloop
  endfacet
  facet normal 0 0 -1
    outer loop
      vertex -5.98809 -5.30498 0
      vertex -1.875 -3.24759 0
      vertex -4.54452 -6.58387 0
    endloop
  endfacet
  facet normal -0 0 -1
    outer loop
      vertex -1.875 -3.24759 0
      vertex -5.98809 -5.30498 0
      vertex -3.24759 -1.875 0
    endloop
  endfacet
  facet normal 0 0 -1
    outer loop
      vertex 1.875 3.24759 0
      vertex 5.98809 5.30498 0
      vertex 3.24759 1.875 0
    endloop
  endfacet
  facet normal -0 0 -1
    outer loop
      vertex 5.98809 5.30498 0
      vertex 1.875 3.24759 0
      vertex 4.54452 6.58387 0
    endloop
  endfacet
  facet normal -0 0 -1
    outer loop
      vertex 4.54452 6.58387 0
      vertex 1.875 3.24759 0
      vertex 2.83684 7.48013 0
    endloop
  endfacet
  facet normal 0 0 -1
    outer loop
      vertex 0 3.75 0
      vertex 2.83684 7.48013 0
      vertex 1.875 3.24759 0
    endloop
  endfacet
  facet normal -0 0 -1
    outer loop
      vertex 2.83684 7.48013 0
      vertex 0 3.75 0
      vertex 0.964293 7.94167 0
    endloop
  endfacet
  facet normal 0 0 -1
    outer loop
      vertex 0 3.75 0
      vertex -0.964293 7.94167 0
      vertex 0.964293 7.94167 0
    endloop
  endfacet
  facet normal 0 0 -1
    outer loop
      vertex -2.83684 7.48013 0
      vertex 0 3.75 0
      vertex -1.875 3.24759 0
    endloop
  endfacet
  facet normal 0 0 -1
    outer loop
      vertex 0 3.75 0
      vertex -2.83684 7.48013 0
      vertex -0.964293 7.94167 0
    endloop
  endfacet
  facet normal 0 0 -1
    outer loop
      vertex -5.98809 5.30498 0
      vertex -1.875 3.24759 0
      vertex -3.24759 1.875 0
    endloop
  endfacet
  facet normal 0 0 -1
    outer loop
      vertex -7.76753 1.91453 0
      vertex -3.24759 1.875 0
      vertex -3.75 0 0
    endloop
  endfacet
  facet normal 0 0 -1
    outer loop
      vertex -1.875 3.24759 0
      vertex -4.54452 6.58387 0
      vertex -2.83684 7.48013 0
    endloop
  endfacet
  facet normal 0 0 -1
    outer loop
      vertex -7.08365 -3.71778 0
      vertex -3.24759 -1.875 0
      vertex -5.98809 -5.30498 0
    endloop
  endfacet
  facet normal 0 0 -1
    outer loop
      vertex -7.76753 -1.91453 0
      vertex -3.24759 -1.875 0
      vertex -7.08365 -3.71778 0
    endloop
  endfacet
  facet normal 0 0 -1
    outer loop
      vertex -1.875 3.24759 0
      vertex -5.98809 5.30498 0
      vertex -4.54452 6.58387 0
    endloop
  endfacet
  facet normal -0 0 -1
    outer loop
      vertex -3.24759 -1.875 0
      vertex -7.76753 -1.91453 0
      vertex -3.75 0 0
    endloop
  endfacet
  facet normal 0 0 -1
    outer loop
      vertex -3.24759 1.875 0
      vertex -7.08365 3.71778 0
      vertex -5.98809 5.30498 0
    endloop
  endfacet
  facet normal 0 0 -1
    outer loop
      vertex -8 0 0
      vertex -3.75 0 0
      vertex -7.76753 -1.91453 0
    endloop
  endfacet
  facet normal 0 0 -1
    outer loop
      vertex -3.24759 1.875 0
      vertex -7.76753 1.91453 0
      vertex -7.08365 3.71778 0
    endloop
  endfacet
  facet normal 0 0 -1
    outer loop
      vertex -3.75 0 0
      vertex -8 0 0
      vertex -7.76753 1.91453 0
    endloop
  endfacet
  facet normal -0.822984 -0.568065 0
    outer loop
      vertex -5.98809 -5.30498 0
      vertex -7.08365 -3.71778 6.5
      vertex -7.08365 -3.71778 0
    endloop
  endfacet
  facet normal -0.822984 -0.568065 0
    outer loop
      vertex -7.08365 -3.71778 6.5
      vertex -5.98809 -5.30498 0
      vertex -5.98809 -5.30498 6.5
    endloop
  endfacet
  facet normal -0.464723 -0.885456 0
    outer loop
      vertex -4.54452 -6.58387 0
      vertex -2.83684 -7.48013 6.5
      vertex -4.54452 -6.58387 6.5
    endloop
  endfacet
  facet normal -0.464723 -0.885456 -0
    outer loop
      vertex -2.83684 -7.48013 6.5
      vertex -4.54452 -6.58387 0
      vertex -2.83684 -7.48013 0
    endloop
  endfacet
  facet normal 0 -1 0
    outer loop
      vertex -0.964293 -7.94167 0
      vertex 0.964293 -7.94167 6.5
      vertex -0.964293 -7.94167 6.5
    endloop
  endfacet
  facet normal 0 -1 -0
    outer loop
      vertex 0.964293 -7.94167 6.5
      vertex -0.964293 -7.94167 0
      vertex 0.964293 -7.94167 0
    endloop
  endfacet
  facet normal 0.464723 -0.885456 0
    outer loop
      vertex 2.83684 -7.48013 0
      vertex 4.54452 -6.58387 6.5
      vertex 2.83684 -7.48013 6.5
    endloop
  endfacet
  facet normal 0.464723 -0.885456 0
    outer loop
      vertex 4.54452 -6.58387 6.5
      vertex 2.83684 -7.48013 0
      vertex 4.54452 -6.58387 0
    endloop
  endfacet
  facet normal -0.239316 -0.970942 0
    outer loop
      vertex -2.83684 -7.48013 0
      vertex -0.964293 -7.94167 6.5
      vertex -2.83684 -7.48013 6.5
    endloop
  endfacet
  facet normal -0.239316 -0.970942 -0
    outer loop
      vertex -0.964293 -7.94167 6.5
      vertex -2.83684 -7.48013 0
      vertex -0.964293 -7.94167 0
    endloop
  endfacet
  facet normal -0.965926 -0.258819 0
    outer loop
      vertex 3.75 0 0
      vertex 3.24759 1.875 6.5
      vertex 3.24759 1.875 0
    endloop
  endfacet
  facet normal -0.965926 -0.258819 0
    outer loop
      vertex 3.24759 1.875 6.5
      vertex 3.75 0 0
      vertex 3.75 0 6.5
    endloop
  endfacet
  facet normal 0.965926 -0.258819 0
    outer loop
      vertex -3.75 0 6.5
      vertex -3.24759 1.875 0
      vertex -3.24759 1.875 6.5
    endloop
  endfacet
  facet normal 0.965926 -0.258819 0
    outer loop
      vertex -3.24759 1.875 0
      vertex -3.75 0 6.5
      vertex -3.75 0 0
    endloop
  endfacet
  facet normal -0.258819 -0.965926 0
    outer loop
      vertex 0 3.75 0
      vertex 1.875 3.24759 6.5
      vertex 0 3.75 6.5
    endloop
  endfacet
  facet normal -0.258819 -0.965926 -0
    outer loop
      vertex 1.875 3.24759 6.5
      vertex 0 3.75 0
      vertex 1.875 3.24759 0
    endloop
  endfacet
  facet normal -0.707107 -0.707107 0
    outer loop
      vertex 3.24759 1.875 0
      vertex 1.875 3.24759 6.5
      vertex 1.875 3.24759 0
    endloop
  endfacet
  facet normal -0.707107 -0.707107 0
    outer loop
      vertex 1.875 3.24759 6.5
      vertex 3.24759 1.875 0
      vertex 3.24759 1.875 6.5
    endloop
  endfacet
  facet normal 0.258819 -0.965926 0
    outer loop
      vertex -1.875 3.24759 0
      vertex 0 3.75 6.5
      vertex -1.875 3.24759 6.5
    endloop
  endfacet
  facet normal 0.258819 -0.965926 0
    outer loop
      vertex 0 3.75 6.5
      vertex -1.875 3.24759 0
      vertex 0 3.75 0
    endloop
  endfacet
  facet normal -0.258819 0.965926 0
    outer loop
      vertex 1.875 -3.24759 0
      vertex 0 -3.75 6.5
      vertex 1.875 -3.24759 6.5
    endloop
  endfacet
  facet normal -0.258819 0.965926 0
    outer loop
      vertex 0 -3.75 6.5
      vertex 1.875 -3.24759 0
      vertex 0 -3.75 0
    endloop
  endfacet
  facet normal 0.965926 0.258819 0
    outer loop
      vertex -3.24759 -1.875 6.5
      vertex -3.75 0 0
      vertex -3.75 0 6.5
    endloop
  endfacet
  facet normal 0.965926 0.258819 0
    outer loop
      vertex -3.75 0 0
      vertex -3.24759 -1.875 6.5
      vertex -3.24759 -1.875 0
    endloop
  endfacet
  facet normal 0.258819 0.965926 -0
    outer loop
      vertex 0 -3.75 0
      vertex -1.875 -3.24759 6.5
      vertex 0 -3.75 6.5
    endloop
  endfacet
  facet normal 0.258819 0.965926 0
    outer loop
      vertex -1.875 -3.24759 6.5
      vertex 0 -3.75 0
      vertex -1.875 -3.24759 0
    endloop
  endfacet
  facet normal 0.707107 -0.707107 0
    outer loop
      vertex -3.24759 1.875 6.5
      vertex -1.875 3.24759 0
      vertex -1.875 3.24759 6.5
    endloop
  endfacet
  facet normal 0.707107 -0.707107 0
    outer loop
      vertex -1.875 3.24759 0
      vertex -3.24759 1.875 6.5
      vertex -3.24759 1.875 0
    endloop
  endfacet
  facet normal -0.707107 0.707107 0
    outer loop
      vertex 1.875 -3.24759 0
      vertex 3.24759 -1.875 6.5
      vertex 3.24759 -1.875 0
    endloop
  endfacet
  facet normal -0.707107 0.707107 0
    outer loop
      vertex 3.24759 -1.875 6.5
      vertex 1.875 -3.24759 0
      vertex 1.875 -3.24759 6.5
    endloop
  endfacet
  facet normal -0.965926 0.258819 0
    outer loop
      vertex 3.24759 -1.875 0
      vertex 3.75 0 6.5
      vertex 3.75 0 0
    endloop
  endfacet
  facet normal -0.965926 0.258819 0
    outer loop
      vertex 3.75 0 6.5
      vertex 3.24759 -1.875 0
      vertex 3.24759 -1.875 6.5
    endloop
  endfacet
  facet normal 0.707107 0.707107 0
    outer loop
      vertex -1.875 -3.24759 6.5
      vertex -3.24759 -1.875 0
      vertex -3.24759 -1.875 6.5
    endloop
  endfacet
  facet normal 0.707107 0.707107 0
    outer loop
      vertex -3.24759 -1.875 0
      vertex -1.875 -3.24759 6.5
      vertex -1.875 -3.24759 0
    endloop
  endfacet
endsolid OpenSCAD_Model
