solid OpenSCAD_Model
  facet normal 0.992709 0.120537 0
    outer loop
      vertex 8 0 6.5
      vertex 7.76753 1.91453 0
      vertex 7.76753 1.91453 6.5
    endloop
  endfacet
  facet normal 0.992709 0.120537 0
    outer loop
      vertex 7.76753 1.91453 0
      vertex 8 0 6.5
      vertex 8 0 0
    endloop
  endfacet
  facet normal -0.992709 0.120537 0
    outer loop
      vertex -8 0 0
      vertex -7.76753 1.91453 6.5
      vertex -7.76753 1.91453 0
    endloop
  endfacet
  facet normal -0.992709 0.120537 0
    outer loop
      vertex -7.76753 1.91453 6.5
      vertex -8 0 0
      vertex -8 0 6.5
    endloop
  endfacet
  facet normal 0 1 -0
    outer loop
      vertex 0.964293 7.94167 0
      vertex -0.964293 7.94167 6.5
      vertex 0.964293 7.94167 6.5
    endloop
  endfacet
  facet normal 0 1 0
    outer loop
      vertex -0.964293 7.94167 6.5
      vertex 0.964293 7.94167 0
      vertex -0.964293 7.94167 0
    endloop
  endfacet
  facet normal 0 -1 0
    outer loop
      vertex -0.964293 -7.94167 0
      vertex 0.964293 -7.94167 6.5
      vertex -0.964293 -7.94167 6.5
    endloop
  endfacet
  facet normal 0 -1 -0
    outer loop
      vertex 0.964293 -7.94167 6.5
      vertex -0.964293 -7.94167 0
      vertex 0.964293 -7.94167 0
    endloop
  endfacet
  facet normal 0.663123 0.748511 -0
    outer loop
      vertex 5.98809 5.30498 0
      vertex 4.54452 6.58387 6.5
      vertex 5.98809 5.30498 6.5
    endloop
  endfacet
  facet normal 0.663123 0.748511 0
    outer loop
      vertex 4.54452 6.58387 6.5
      vertex 5.98809 5.30498 0
      vertex 4.54452 6.58387 0
    endloop
  endfacet
  facet normal -0.663123 0.748511 0
    outer loop
      vertex -4.54452 6.58387 0
      vertex -5.98809 5.30498 6.5
      vertex -4.54452 6.58387 6.5
    endloop
  endfacet
  facet normal -0.663123 0.748511 0
    outer loop
      vertex -5.98809 5.30498 6.5
      vertex -4.54452 6.58387 0
      vertex -5.98809 5.30498 0
    endloop
  endfacet
  facet normal 0 0 1
    outer loop
      vertex 3.5 0 6.5
      vertex 8 0 6.5
      vertex 7.76753 1.91453 6.5
    endloop
  endfacet
  facet normal 0 0 1
    outer loop
      vertex 2.94439 1.89224 6.5
      vertex 7.76753 1.91453 6.5
      vertex 7.08365 3.71778 6.5
    endloop
  endfacet
  facet normal 0 0 1
    outer loop
      vertex 8 0 6.5
      vertex 3.5 0 6.5
      vertex 7.76753 -1.91453 6.5
    endloop
  endfacet
  facet normal 0 0 1
    outer loop
      vertex 2.94439 1.89224 6.5
      vertex 7.08365 3.71778 6.5
      vertex 5.98809 5.30498 6.5
    endloop
  endfacet
  facet normal -0 0 1
    outer loop
      vertex 2.94439 -1.89224 6.5
      vertex 7.76753 -1.91453 6.5
      vertex 3.5 0 6.5
    endloop
  endfacet
  facet normal 0 0 1
    outer loop
      vertex 2.94439 1.89224 6.5
      vertex 5.98809 5.30498 6.5
      vertex 4.54452 6.58387 6.5
    endloop
  endfacet
  facet normal 0 0 1
    outer loop
      vertex 7.76753 -1.91453 6.5
      vertex 2.94439 -1.89224 6.5
      vertex 7.08365 -3.71778 6.5
    endloop
  endfacet
  facet normal 0 0 1
    outer loop
      vertex 7.08365 -3.71778 6.5
      vertex 2.94439 -1.89224 6.5
      vertex 5.98809 -5.30498 6.5
    endloop
  endfacet
  facet normal 0 0 1
    outer loop
      vertex 7.76753 1.91453 6.5
      vertex 2.94439 1.89224 6.5
      vertex 3.5 0 6.5
    endloop
  endfacet
  facet normal 0 0 1
    outer loop
      vertex 1.45395 3.18371 6.5
      vertex 4.54452 6.58387 6.5
      vertex 2.83684 7.48013 6.5
    endloop
  endfacet
  facet normal 0 0 1
    outer loop
      vertex 4.54452 6.58387 6.5
      vertex 1.45395 3.18371 6.5
      vertex 2.94439 1.89224 6.5
    endloop
  endfacet
  facet normal 0 0 1
    outer loop
      vertex 0.964293 7.94167 6.5
      vertex 1.45395 3.18371 6.5
      vertex 2.83684 7.48013 6.5
    endloop
  endfacet
  facet normal 0 0 1
    outer loop
      vertex 0.964293 7.94167 6.5
      vertex -0.498101 3.46437 6.5
      vertex 1.45395 3.18371 6.5
    endloop
  endfacet
  facet normal -0 0 1
    outer loop
      vertex -0.964293 7.94167 6.5
      vertex -0.498101 3.46437 6.5
      vertex 0.964293 7.94167 6.5
    endloop
  endfacet
  facet normal -0 0 1
    outer loop
      vertex -2.83684 7.48013 6.5
      vertex -0.498101 3.46437 6.5
      vertex -0.964293 7.94167 6.5
    endloop
  endfacet
  facet normal 0 0 1
    outer loop
      vertex -0.498101 3.46437 6.5
      vertex -2.83684 7.48013 6.5
      vertex -2.29201 2.64512 6.5
    endloop
  endfacet
  facet normal -0 0 1
    outer loop
      vertex -4.54452 6.58387 6.5
      vertex -2.29201 2.64512 6.5
      vertex -2.83684 7.48013 6.5
    endloop
  endfacet
  facet normal -0 0 1
    outer loop
      vertex -7.08365 3.71778 6.5
      vertex -2.29201 2.64512 6.5
      vertex -5.98809 5.30498 6.5
    endloop
  endfacet
  facet normal -0 0 1
    outer loop
      vertex -5.98809 5.30498 6.5
      vertex -2.29201 2.64512 6.5
      vertex -4.54452 6.58387 6.5
    endloop
  endfacet
  facet normal 0 0 1
    outer loop
      vertex 5.98809 -5.30498 6.5
      vertex 2.94439 -1.89224 6.5
      vertex 4.54452 -6.58387 6.5
    endloop
  endfacet
  facet normal -0 0 1
    outer loop
      vertex 1.45395 -3.18371 6.5
      vertex 4.54452 -6.58387 6.5
      vertex 2.94439 -1.89224 6.5
    endloop
  endfacet
  facet normal 0 0 1
    outer loop
      vertex 4.54452 -6.58387 6.5
      vertex 1.45395 -3.18371 6.5
      vertex 2.83684 -7.48013 6.5
    endloop
  endfacet
  facet normal 0 0 1
    outer loop
      vertex 1.45395 -3.18371 6.5
      vertex 0.964293 -7.94167 6.5
      vertex 2.83684 -7.48013 6.5
    endloop
  endfacet
  facet normal -0 0 1
    outer loop
      vertex -0.498101 -3.46437 6.5
      vertex 0.964293 -7.94167 6.5
      vertex 1.45395 -3.18371 6.5
    endloop
  endfacet
  facet normal 0 0 1
    outer loop
      vertex -0.498101 -3.46437 6.5
      vertex -0.964293 -7.94167 6.5
      vertex 0.964293 -7.94167 6.5
    endloop
  endfacet
  facet normal 0 0 1
    outer loop
      vertex -2.83684 -7.48013 6.5
      vertex -0.498101 -3.46437 6.5
      vertex -2.29201 -2.64512 6.5
    endloop
  endfacet
  facet normal 0 0 1
    outer loop
      vertex -0.498101 -3.46437 6.5
      vertex -2.83684 -7.48013 6.5
      vertex -0.964293 -7.94167 6.5
    endloop
  endfacet
  facet normal 0 0 1
    outer loop
      vertex -7.08365 -3.71778 6.5
      vertex -2.29201 -2.64512 6.5
      vertex -3.35822 -0.986063 6.5
    endloop
  endfacet
  facet normal 0 0 1
    outer loop
      vertex -2.29201 2.64512 6.5
      vertex -7.08365 3.71778 6.5
      vertex -3.35822 0.986063 6.5
    endloop
  endfacet
  facet normal 0 0 1
    outer loop
      vertex -2.29201 -2.64512 6.5
      vertex -4.54452 -6.58387 6.5
      vertex -2.83684 -7.48013 6.5
    endloop
  endfacet
  facet normal -0 0 1
    outer loop
      vertex -7.76753 1.91453 6.5
      vertex -3.35822 0.986063 6.5
      vertex -7.08365 3.71778 6.5
    endloop
  endfacet
  facet normal 0 0 1
    outer loop
      vertex -2.29201 -2.64512 6.5
      vertex -5.98809 -5.30498 6.5
      vertex -4.54452 -6.58387 6.5
    endloop
  endfacet
  facet normal 0 0 1
    outer loop
      vertex -8 0 6.5
      vertex -3.35822 0.986063 6.5
      vertex -7.76753 1.91453 6.5
    endloop
  endfacet
  facet normal 0 0 1
    outer loop
      vertex -2.29201 -2.64512 6.5
      vertex -7.08365 -3.71778 6.5
      vertex -5.98809 -5.30498 6.5
    endloop
  endfacet
  facet normal 0 0 1
    outer loop
      vertex -3.35822 0.986063 6.5
      vertex -8 0 6.5
      vertex -3.35822 -0.986063 6.5
    endloop
  endfacet
  facet normal 0 0 1
    outer loop
      vertex -3.35822 -0.986063 6.5
      vertex -7.76753 -1.91453 6.5
      vertex -7.08365 -3.71778 6.5
    endloop
  endfacet
  facet normal 0 0 1
    outer loop
      vertex -3.35822 -0.986063 6.5
      vertex -8 0 6.5
      vertex -7.76753 -1.91453 6.5
    endloop
  endfacet
  facet normal -0.464723 0.885456 0
    outer loop
      vertex -2.83684 7.48013 0
      vertex -4.54452 6.58387 6.5
      vertex -2.83684 7.48013 6.5
    endloop
  endfacet
  facet normal -0.464723 0.885456 0
    outer loop
      vertex -4.54452 6.58387 6.5
      vertex -2.83684 7.48013 0
      vertex -4.54452 6.58387 0
    endloop
  endfacet
  facet normal 0 0 -1
    outer loop
      vertex 7.76753 -1.91453 0
      vertex 7.76753 1.91453 0
      vertex 8 0 0
    endloop
  endfacet
  facet normal 0 0 -1
    outer loop
      vertex 7.08365 -3.71778 0
      vertex 7.76753 1.91453 0
      vertex 7.76753 -1.91453 0
    endloop
  endfacet
  facet normal 0 0 -1
    outer loop
      vertex 7.08365 -3.71778 0
      vertex 7.08365 3.71778 0
      vertex 7.76753 1.91453 0
    endloop
  endfacet
  facet normal 0 0 -1
    outer loop
      vertex 5.98809 -5.30498 0
      vertex 7.08365 3.71778 0
      vertex 7.08365 -3.71778 0
    endloop
  endfacet
  facet normal 0 0 -1
    outer loop
      vertex 5.98809 -5.30498 0
      vertex 5.98809 5.30498 0
      vertex 7.08365 3.71778 0
    endloop
  endfacet
  facet normal 0 0 -1
    outer loop
      vertex 4.54452 -6.58387 0
      vertex 5.98809 5.30498 0
      vertex 5.98809 -5.30498 0
    endloop
  endfacet
  facet normal 0 0 -1
    outer loop
      vertex 4.54452 -6.58387 0
      vertex 4.54452 6.58387 0
      vertex 5.98809 5.30498 0
    endloop
  endfacet
  facet normal 0 0 -1
    outer loop
      vertex 2.83684 -7.48013 0
      vertex 4.54452 6.58387 0
      vertex 4.54452 -6.58387 0
    endloop
  endfacet
  facet normal 0 0 -1
    outer loop
      vertex 2.83684 -7.48013 0
      vertex 2.83684 7.48013 0
      vertex 4.54452 6.58387 0
    endloop
  endfacet
  facet normal 0 0 -1
    outer loop
      vertex 0.964293 -7.94167 0
      vertex 2.83684 7.48013 0
      vertex 2.83684 -7.48013 0
    endloop
  endfacet
  facet normal 0 0 -1
    outer loop
      vertex 0.964293 -7.94167 0
      vertex 0.964293 7.94167 0
      vertex 2.83684 7.48013 0
    endloop
  endfacet
  facet normal 0 0 -1
    outer loop
      vertex -0.964293 -7.94167 0
      vertex 0.964293 7.94167 0
      vertex 0.964293 -7.94167 0
    endloop
  endfacet
  facet normal 0 0 -1
    outer loop
      vertex -0.964293 -7.94167 0
      vertex -0.964293 7.94167 0
      vertex 0.964293 7.94167 0
    endloop
  endfacet
  facet normal 0 0 -1
    outer loop
      vertex -2.83684 -7.48013 0
      vertex -0.964293 7.94167 0
      vertex -0.964293 -7.94167 0
    endloop
  endfacet
  facet normal 0 0 -1
    outer loop
      vertex -2.83684 -7.48013 0
      vertex -2.83684 7.48013 0
      vertex -0.964293 7.94167 0
    endloop
  endfacet
  facet normal 0 0 -1
    outer loop
      vertex -4.54452 -6.58387 0
      vertex -2.83684 7.48013 0
      vertex -2.83684 -7.48013 0
    endloop
  endfacet
  facet normal 0 0 -1
    outer loop
      vertex -4.54452 -6.58387 0
      vertex -4.54452 6.58387 0
      vertex -2.83684 7.48013 0
    endloop
  endfacet
  facet normal 0 0 -1
    outer loop
      vertex -5.98809 -5.30498 0
      vertex -4.54452 6.58387 0
      vertex -4.54452 -6.58387 0
    endloop
  endfacet
  facet normal 0 0 -1
    outer loop
      vertex -5.98809 -5.30498 0
      vertex -5.98809 5.30498 0
      vertex -4.54452 6.58387 0
    endloop
  endfacet
  facet normal 0 0 -1
    outer loop
      vertex -7.08365 -3.71778 0
      vertex -5.98809 5.30498 0
      vertex -5.98809 -5.30498 0
    endloop
  endfacet
  facet normal 0 0 -1
    outer loop
      vertex -7.08365 -3.71778 0
      vertex -7.08365 3.71778 0
      vertex -5.98809 5.30498 0
    endloop
  endfacet
  facet normal 0 0 -1
    outer loop
      vertex -7.76753 -1.91453 0
      vertex -7.08365 3.71778 0
      vertex -7.08365 -3.71778 0
    endloop
  endfacet
  facet normal 0 0 -1
    outer loop
      vertex -7.76753 -1.91453 0
      vertex -7.76753 1.91453 0
      vertex -7.08365 3.71778 0
    endloop
  endfacet
  facet normal 0 -0 -1
    outer loop
      vertex -7.76753 1.91453 0
      vertex -7.76753 -1.91453 0
      vertex -8 0 0
    endloop
  endfacet
  facet normal 0.935016 -0.354605 0
    outer loop
      vertex 7.08365 -3.71778 6.5
      vertex 7.76753 -1.91453 0
      vertex 7.76753 -1.91453 6.5
    endloop
  endfacet
  facet normal 0.935016 -0.354605 0
    outer loop
      vertex 7.76753 -1.91453 0
      vertex 7.08365 -3.71778 6.5
      vertex 7.08365 -3.71778 0
    endloop
  endfacet
  facet normal 0.822984 0.568065 0
    outer loop
      vertex 7.08365 3.71778 6.5
      vertex 5.98809 5.30498 0
      vertex 5.98809 5.30498 6.5
    endloop
  endfacet
  facet normal 0.822984 0.568065 0
    outer loop
      vertex 5.98809 5.30498 0
      vertex 7.08365 3.71778 6.5
      vertex 7.08365 3.71778 0
    endloop
  endfacet
  facet normal 0.935016 0.354605 0
    outer loop
      vertex 7.76753 1.91453 6.5
      vertex 7.08365 3.71778 0
      vertex 7.08365 3.71778 6.5
    endloop
  endfacet
  facet normal 0.935016 0.354605 0
    outer loop
      vertex 7.08365 3.71778 0
      vertex 7.76753 1.91453 6.5
      vertex 7.76753 1.91453 0
    endloop
  endfacet
  facet normal 0.239316 0.970942 -0
    outer loop
      vertex 2.83684 7.48013 0
      vertex 0.964293 7.94167 6.5
      vertex 2.83684 7.48013 6.5
    endloop
  endfacet
  facet normal 0.239316 0.970942 0
    outer loop
      vertex 0.964293 7.94167 6.5
      vertex 2.83684 7.48013 0
      vertex 0.964293 7.94167 0
    endloop
  endfacet
  facet normal 0.464723 0.885456 -0
    outer loop
      vertex 4.54452 6.58387 0
      vertex 2.83684 7.48013 6.5
      vertex 4.54452 6.58387 6.5
    endloop
  endfacet
  facet normal 0.464723 0.885456 0
    outer loop
      vertex 2.83684 7.48013 6.5
      vertex 4.54452 6.58387 0
      vertex 2.83684 7.48013 0
    endloop
  endfacet
  facet normal -0.822984 0.568065 0
    outer loop
      vertex -7.08365 3.71778 0
      vertex -5.98809 5.30498 6.5
      vertex -5.98809 5.30498 0
    endloop
  endfacet
  facet normal -0.822984 0.568065 0
    outer loop
      vertex -5.98809 5.30498 6.5
      vertex -7.08365 3.71778 0
      vertex -7.08365 3.71778 6.5
    endloop
  endfacet
  facet normal -0.935016 0.354605 0
    outer loop
      vertex -7.76753 1.91453 0
      vertex -7.08365 3.71778 6.5
      vertex -7.08365 3.71778 0
    endloop
  endfacet
  facet normal -0.935016 0.354605 0
    outer loop
      vertex -7.08365 3.71778 6.5
      vertex -7.76753 1.91453 0
      vertex -7.76753 1.91453 6.5
    endloop
  endfacet
  facet normal -0.239316 0.970942 0
    outer loop
      vertex -0.964293 7.94167 0
      vertex -2.83684 7.48013 6.5
      vertex -0.964293 7.94167 6.5
    endloop
  endfacet
  facet normal -0.239316 0.970942 0
    outer loop
      vertex -2.83684 7.48013 6.5
      vertex -0.964293 7.94167 0
      vertex -2.83684 7.48013 0
    endloop
  endfacet
  facet normal 0.992709 -0.120537 0
    outer loop
      vertex 7.76753 -1.91453 6.5
      vertex 8 0 0
      vertex 8 0 6.5
    endloop
  endfacet
  facet normal 0.992709 -0.120537 0
    outer loop
      vertex 8 0 0
      vertex 7.76753 -1.91453 6.5
      vertex 7.76753 -1.91453 0
    endloop
  endfacet
  facet normal 0.663123 -0.748511 0
    outer loop
      vertex 4.54452 -6.58387 0
      vertex 5.98809 -5.30498 6.5
      vertex 4.54452 -6.58387 6.5
    endloop
  endfacet
  facet normal 0.663123 -0.748511 0
    outer loop
      vertex 5.98809 -5.30498 6.5
      vertex 4.54452 -6.58387 0
      vertex 5.98809 -5.30498 0
    endloop
  endfacet
  facet normal 0.822984 -0.568065 0
    outer loop
      vertex 5.98809 -5.30498 6.5
      vertex 7.08365 -3.71778 0
      vertex 7.08365 -3.71778 6.5
    endloop
  endfacet
  facet normal 0.822984 -0.568065 0
    outer loop
      vertex 7.08365 -3.71778 0
      vertex 5.98809 -5.30498 6.5
      vertex 5.98809 -5.30498 0
    endloop
  endfacet
  facet normal -0.935016 -0.354605 0
    outer loop
      vertex -7.08365 -3.71778 0
      vertex -7.76753 -1.91453 6.5
      vertex -7.76753 -1.91453 0
    endloop
  endfacet
  facet normal -0.935016 -0.354605 0
    outer loop
      vertex -7.76753 -1.91453 6.5
      vertex -7.08365 -3.71778 0
      vertex -7.08365 -3.71778 6.5
    endloop
  endfacet
  facet normal -0.992709 -0.120537 0
    outer loop
      vertex -7.76753 -1.91453 0
      vertex -8 0 6.5
      vertex -8 0 0
    endloop
  endfacet
  facet normal -0.992709 -0.120537 0
    outer loop
      vertex -8 0 6.5
      vertex -7.76753 -1.91453 0
      vertex -7.76753 -1.91453 6.5
    endloop
  endfacet
  facet normal -0.822984 -0.568065 0
    outer loop
      vertex -5.98809 -5.30498 0
      vertex -7.08365 -3.71778 6.5
      vertex -7.08365 -3.71778 0
    endloop
  endfacet
  facet normal -0.822984 -0.568065 0
    outer loop
      vertex -7.08365 -3.71778 6.5
      vertex -5.98809 -5.30498 0
      vertex -5.98809 -5.30498 6.5
    endloop
  endfacet
  facet normal -0.239316 -0.970942 0
    outer loop
      vertex -2.83684 -7.48013 0
      vertex -0.964293 -7.94167 6.5
      vertex -2.83684 -7.48013 6.5
    endloop
  endfacet
  facet normal -0.239316 -0.970942 -0
    outer loop
      vertex -0.964293 -7.94167 6.5
      vertex -2.83684 -7.48013 0
      vertex -0.964293 -7.94167 0
    endloop
  endfacet
  facet normal 0.464723 -0.885456 0
    outer loop
      vertex 2.83684 -7.48013 0
      vertex 4.54452 -6.58387 6.5
      vertex 2.83684 -7.48013 6.5
    endloop
  endfacet
  facet normal 0.464723 -0.885456 0
    outer loop
      vertex 4.54452 -6.58387 6.5
      vertex 2.83684 -7.48013 0
      vertex 4.54452 -6.58387 0
    endloop
  endfacet
  facet normal 0.239316 -0.970942 0
    outer loop
      vertex 0.964293 -7.94167 0
      vertex 2.83684 -7.48013 6.5
      vertex 0.964293 -7.94167 6.5
    endloop
  endfacet
  facet normal 0.239316 -0.970942 0
    outer loop
      vertex 2.83684 -7.48013 6.5
      vertex 0.964293 -7.94167 0
      vertex 2.83684 -7.48013 0
    endloop
  endfacet
  facet normal -0.464723 -0.885456 0
    outer loop
      vertex -4.54452 -6.58387 0
      vertex -2.83684 -7.48013 6.5
      vertex -4.54452 -6.58387 6.5
    endloop
  endfacet
  facet normal -0.464723 -0.885456 -0
    outer loop
      vertex -2.83684 -7.48013 6.5
      vertex -4.54452 -6.58387 0
      vertex -2.83684 -7.48013 0
    endloop
  endfacet
  facet normal -0.663123 -0.748511 0
    outer loop
      vertex -5.98809 -5.30498 0
      vertex -4.54452 -6.58387 6.5
      vertex -5.98809 -5.30498 6.5
    endloop
  endfacet
  facet normal -0.663123 -0.748511 -0
    outer loop
      vertex -4.54452 -6.58387 6.5
      vertex -5.98809 -5.30498 0
      vertex -4.54452 -6.58387 0
    endloop
  endfacet
  facet normal 0.959493 0.281733 0
    outer loop
      vertex 3.5 0 40
      vertex 2.94439 1.89224 6.5
      vertex 2.94439 1.89224 40
    endloop
  endfacet
  facet normal 0.959493 0.281733 0
    outer loop
      vertex 2.94439 1.89224 6.5
      vertex 3.5 0 40
      vertex 3.5 0 6.5
    endloop
  endfacet
  facet normal -1 0 0
    outer loop
      vertex -3.35822 -0.986063 6.5
      vertex -3.35822 0.986063 40
      vertex -3.35822 0.986063 6.5
    endloop
  endfacet
  facet normal -1 -0 0
    outer loop
      vertex -3.35822 0.986063 40
      vertex -3.35822 -0.986063 6.5
      vertex -3.35822 -0.986063 40
    endloop
  endfacet
  facet normal -0.415415 0.909632 0
    outer loop
      vertex -0.498101 3.46437 6.5
      vertex -2.29201 2.64512 40
      vertex -0.498101 3.46437 40
    endloop
  endfacet
  facet normal -0.415415 0.909632 0
    outer loop
      vertex -2.29201 2.64512 40
      vertex -0.498101 3.46437 6.5
      vertex -2.29201 2.64512 6.5
    endloop
  endfacet
  facet normal 0 0 1
    outer loop
      vertex 2.94439 1.89224 40
      vertex 2.94439 -1.89224 40
      vertex 3.5 0 40
    endloop
  endfacet
  facet normal 0 0 1
    outer loop
      vertex 1.45395 3.18371 40
      vertex 2.94439 -1.89224 40
      vertex 2.94439 1.89224 40
    endloop
  endfacet
  facet normal 0 0 1
    outer loop
      vertex 1.45395 3.18371 40
      vertex 1.45395 -3.18371 40
      vertex 2.94439 -1.89224 40
    endloop
  endfacet
  facet normal 0 0 1
    outer loop
      vertex -0.498101 3.46437 40
      vertex 1.45395 -3.18371 40
      vertex 1.45395 3.18371 40
    endloop
  endfacet
  facet normal 0 0 1
    outer loop
      vertex -0.498101 3.46437 40
      vertex -0.498101 -3.46437 40
      vertex 1.45395 -3.18371 40
    endloop
  endfacet
  facet normal -0 0 1
    outer loop
      vertex -2.29201 2.64512 40
      vertex -0.498101 -3.46437 40
      vertex -0.498101 3.46437 40
    endloop
  endfacet
  facet normal 0 0 1
    outer loop
      vertex -2.29201 2.64512 40
      vertex -2.29201 -2.64512 40
      vertex -0.498101 -3.46437 40
    endloop
  endfacet
  facet normal -0 0 1
    outer loop
      vertex -3.35822 0.986063 40
      vertex -2.29201 -2.64512 40
      vertex -2.29201 2.64512 40
    endloop
  endfacet
  facet normal 0 0 1
    outer loop
      vertex -2.29201 -2.64512 40
      vertex -3.35822 0.986063 40
      vertex -3.35822 -0.986063 40
    endloop
  endfacet
  facet normal -0.841254 0.540641 0
    outer loop
      vertex -3.35822 0.986063 6.5
      vertex -2.29201 2.64512 40
      vertex -2.29201 2.64512 6.5
    endloop
  endfacet
  facet normal -0.841254 0.540641 0
    outer loop
      vertex -2.29201 2.64512 40
      vertex -3.35822 0.986063 6.5
      vertex -3.35822 0.986063 40
    endloop
  endfacet
  facet normal 0.142315 -0.989821 0
    outer loop
      vertex -0.498101 -3.46437 6.5
      vertex 1.45395 -3.18371 40
      vertex -0.498101 -3.46437 40
    endloop
  endfacet
  facet normal 0.142315 -0.989821 0
    outer loop
      vertex 1.45395 -3.18371 40
      vertex -0.498101 -3.46437 6.5
      vertex 1.45395 -3.18371 6.5
    endloop
  endfacet
  facet normal 0.654861 -0.75575 0
    outer loop
      vertex 1.45395 -3.18371 6.5
      vertex 2.94439 -1.89224 40
      vertex 1.45395 -3.18371 40
    endloop
  endfacet
  facet normal 0.654861 -0.75575 0
    outer loop
      vertex 2.94439 -1.89224 40
      vertex 1.45395 -3.18371 6.5
      vertex 2.94439 -1.89224 6.5
    endloop
  endfacet
  facet normal 0.142315 0.989821 -0
    outer loop
      vertex 1.45395 3.18371 6.5
      vertex -0.498101 3.46437 40
      vertex 1.45395 3.18371 40
    endloop
  endfacet
  facet normal 0.142315 0.989821 0
    outer loop
      vertex -0.498101 3.46437 40
      vertex 1.45395 3.18371 6.5
      vertex -0.498101 3.46437 6.5
    endloop
  endfacet
  facet normal 0.654861 0.75575 -0
    outer loop
      vertex 2.94439 1.89224 6.5
      vertex 1.45395 3.18371 40
      vertex 2.94439 1.89224 40
    endloop
  endfacet
  facet normal 0.654861 0.75575 0
    outer loop
      vertex 1.45395 3.18371 40
      vertex 2.94439 1.89224 6.5
      vertex 1.45395 3.18371 6.5
    endloop
  endfacet
  facet normal 0.959493 -0.281733 0
    outer loop
      vertex 2.94439 -1.89224 40
      vertex 3.5 0 6.5
      vertex 3.5 0 40
    endloop
  endfacet
  facet normal 0.959493 -0.281733 0
    outer loop
      vertex 3.5 0 6.5
      vertex 2.94439 -1.89224 40
      vertex 2.94439 -1.89224 6.5
    endloop
  endfacet
  facet normal -0.415415 -0.909632 0
    outer loop
      vertex -2.29201 -2.64512 6.5
      vertex -0.498101 -3.46437 40
      vertex -2.29201 -2.64512 40
    endloop
  endfacet
  facet normal -0.415415 -0.909632 -0
    outer loop
      vertex -0.498101 -3.46437 40
      vertex -2.29201 -2.64512 6.5
      vertex -0.498101 -3.46437 6.5
    endloop
  endfacet
  facet normal -0.841254 -0.540641 0
    outer loop
      vertex -2.29201 -2.64512 6.5
      vertex -3.35822 -0.986063 40
      vertex -3.35822 -0.986063 6.5
    endloop
  endfacet
  facet normal -0.841254 -0.540641 0
    outer loop
      vertex -3.35822 -0.986063 40
      vertex -2.29201 -2.64512 6.5
      vertex -2.29201 -2.64512 40
    endloop
  endfacet
endsolid OpenSCAD_Model
