solid OpenSCAD_Model
  facet normal -1 0 0
    outer loop
      vertex 0 0 0
      vertex 0 40 70
      vertex 0 40 0
    endloop
  endfacet
  facet normal -1 -0 0
    outer loop
      vertex 0 40 70
      vertex 0 0 0
      vertex 0 0 70
    endloop
  endfacet
  facet normal 0 0 1
    outer loop
      vertex 40 40 70
      vertex 37 37 70
      vertex 40 0 70
    endloop
  endfacet
  facet normal 0 0 1
    outer loop
      vertex 40 40 70
      vertex 3 37 70
      vertex 37 37 70
    endloop
  endfacet
  facet normal 0 0 1
    outer loop
      vertex 3 37 70
      vertex 0 40 70
      vertex 3 3 70
    endloop
  endfacet
  facet normal -0 0 1
    outer loop
      vertex 0 40 70
      vertex 3 37 70
      vertex 40 40 70
    endloop
  endfacet
  facet normal -0 0 1
    outer loop
      vertex 37 3 70
      vertex 40 0 70
      vertex 37 37 70
    endloop
  endfacet
  facet normal -0 0 1
    outer loop
      vertex 3 3 70
      vertex 40 0 70
      vertex 37 3 70
    endloop
  endfacet
  facet normal 0 0 1
    outer loop
      vertex 3 3 70
      vertex 0 0 70
      vertex 40 0 70
    endloop
  endfacet
  facet normal 0 0 1
    outer loop
      vertex 0 0 70
      vertex 3 3 70
      vertex 0 40 70
    endloop
  endfacet
  facet normal 1 -0 0
    outer loop
      vertex 40 0 70
      vertex 40 40 0
      vertex 40 40 70
    endloop
  endfacet
  facet normal 1 0 0
    outer loop
      vertex 40 40 0
      vertex 40 0 70
      vertex 40 0 0
    endloop
  endfacet
  facet normal 0 1 -0
    outer loop
      vertex 40 40 0
      vertex 0 40 70
      vertex 40 40 70
    endloop
  endfacet
  facet normal 0 1 0
    outer loop
      vertex 0 40 70
      vertex 40 40 0
      vertex 0 40 0
    endloop
  endfacet
  facet normal 0 0 -1
    outer loop
      vertex 0 0 0
      vertex 40 40 0
      vertex 40 0 0
    endloop
  endfacet
  facet normal -0 0 -1
    outer loop
      vertex 40 40 0
      vertex 0 0 0
      vertex 0 40 0
    endloop
  endfacet
  facet normal 0 -1 0
    outer loop
      vertex 0 0 0
      vertex 40 0 70
      vertex 0 0 70
    endloop
  endfacet
  facet normal 0 -1 -0
    outer loop
      vertex 40 0 70
      vertex 0 0 0
      vertex 40 0 0
    endloop
  endfacet
  facet normal 1 -0 0
    outer loop
      vertex 3 3 70
      vertex 3 37 3
      vertex 3 37 70
    endloop
  endfacet
  facet normal 1 0 0
    outer loop
      vertex 3 37 3
      vertex 3 3 70
      vertex 3 3 3
    endloop
  endfacet
  facet normal -1 0 0
    outer loop
      vertex 37 3 3
      vertex 37 37 70
      vertex 37 37 3
    endloop
  endfacet
  facet normal -1 -0 0
    outer loop
      vertex 37 37 70
      vertex 37 3 3
      vertex 37 3 70
    endloop
  endfacet
  facet normal 0 -1 0
    outer loop
      vertex 3 37 3
      vertex 37 37 70
      vertex 3 37 70
    endloop
  endfacet
  facet normal 0 -1 -0
    outer loop
      vertex 37 37 70
      vertex 3 37 3
      vertex 37 37 3
    endloop
  endfacet
  facet normal -0 0 1
    outer loop
      vertex 3 37 3
      vertex 37 3 3
      vertex 37 37 3
    endloop
  endfacet
  facet normal 0 0 1
    outer loop
      vertex 37 3 3
      vertex 3 37 3
      vertex 3 3 3
    endloop
  endfacet
  facet normal 0 1 -0
    outer loop
      vertex 37 3 3
      vertex 3 3 70
      vertex 37 3 70
    endloop
  endfacet
  facet normal 0 1 0
    outer loop
      vertex 3 3 70
      vertex 37 3 3
      vertex 3 3 3
    endloop
  endfacet
endsolid OpenSCAD_Model
