solid OpenSCAD_Model
  facet normal -1 0 0
    outer loop
      vertex 0 0 0
      vertex 0 20 50
      vertex 0 20 0
    endloop
  endfacet
  facet normal -1 -0 0
    outer loop
      vertex 0 20 50
      vertex 0 0 0
      vertex 0 0 50
    endloop
  endfacet
  facet normal 0 0 1
    outer loop
      vertex 20 20 50
      vertex 17 17 50
      vertex 20 0 50
    endloop
  endfacet
  facet normal 0 0 1
    outer loop
      vertex 20 20 50
      vertex 3 17 50
      vertex 17 17 50
    endloop
  endfacet
  facet normal 0 0 1
    outer loop
      vertex 3 17 50
      vertex 0 20 50
      vertex 3 3 50
    endloop
  endfacet
  facet normal -0 0 1
    outer loop
      vertex 0 20 50
      vertex 3 17 50
      vertex 20 20 50
    endloop
  endfacet
  facet normal -0 0 1
    outer loop
      vertex 17 3 50
      vertex 20 0 50
      vertex 17 17 50
    endloop
  endfacet
  facet normal -0 0 1
    outer loop
      vertex 3 3 50
      vertex 20 0 50
      vertex 17 3 50
    endloop
  endfacet
  facet normal 0 0 1
    outer loop
      vertex 3 3 50
      vertex 0 0 50
      vertex 20 0 50
    endloop
  endfacet
  facet normal 0 0 1
    outer loop
      vertex 0 0 50
      vertex 3 3 50
      vertex 0 20 50
    endloop
  endfacet
  facet normal 1 -0 0
    outer loop
      vertex 20 0 50
      vertex 20 20 0
      vertex 20 20 50
    endloop
  endfacet
  facet normal 1 0 0
    outer loop
      vertex 20 20 0
      vertex 20 0 50
      vertex 20 0 0
    endloop
  endfacet
  facet normal 0 0 -1
    outer loop
      vertex 0 0 0
      vertex 20 20 0
      vertex 20 0 0
    endloop
  endfacet
  facet normal -0 0 -1
    outer loop
      vertex 20 20 0
      vertex 0 0 0
      vertex 0 20 0
    endloop
  endfacet
  facet normal 0 -1 0
    outer loop
      vertex 0 0 0
      vertex 20 0 50
      vertex 0 0 50
    endloop
  endfacet
  facet normal 0 -1 -0
    outer loop
      vertex 20 0 50
      vertex 0 0 0
      vertex 20 0 0
    endloop
  endfacet
  facet normal 0 1 -0
    outer loop
      vertex 20 20 0
      vertex 0 20 50
      vertex 20 20 50
    endloop
  endfacet
  facet normal 0 1 0
    outer loop
      vertex 0 20 50
      vertex 20 20 0
      vertex 0 20 0
    endloop
  endfacet
  facet normal 1 -0 0
    outer loop
      vertex 3 3 50
      vertex 3 17 3
      vertex 3 17 50
    endloop
  endfacet
  facet normal 1 0 0
    outer loop
      vertex 3 17 3
      vertex 3 3 50
      vertex 3 3 3
    endloop
  endfacet
  facet normal -1 0 0
    outer loop
      vertex 17 3 3
      vertex 17 17 50
      vertex 17 17 3
    endloop
  endfacet
  facet normal -1 -0 0
    outer loop
      vertex 17 17 50
      vertex 17 3 3
      vertex 17 3 50
    endloop
  endfacet
  facet normal 0 -1 0
    outer loop
      vertex 3 17 3
      vertex 17 17 50
      vertex 3 17 50
    endloop
  endfacet
  facet normal 0 -1 -0
    outer loop
      vertex 17 17 50
      vertex 3 17 3
      vertex 17 17 3
    endloop
  endfacet
  facet normal -0 0 1
    outer loop
      vertex 3 17 3
      vertex 17 3 3
      vertex 17 17 3
    endloop
  endfacet
  facet normal 0 0 1
    outer loop
      vertex 17 3 3
      vertex 3 17 3
      vertex 3 3 3
    endloop
  endfacet
  facet normal 0 1 -0
    outer loop
      vertex 17 3 3
      vertex 3 3 50
      vertex 17 3 50
    endloop
  endfacet
  facet normal 0 1 0
    outer loop
      vertex 3 3 50
      vertex 17 3 3
      vertex 3 3 3
    endloop
  endfacet
endsolid OpenSCAD_Model
