solid OpenSCAD_Model
  facet normal 0.923879 -0 0.382684
    outer loop
      vertex 8.69706 -1.8 8.69706
      vertex 9.4 0 7
      vertex 8.69706 0 8.69706
    endloop
  endfacet
  facet normal 0.923879 0 0.382684
    outer loop
      vertex 9.4 0 7
      vertex 8.69706 -1.8 8.69706
      vertex 9.4 -1.8 7
    endloop
  endfacet
  facet normal -0.923879 0 0.382684
    outer loop
      vertex 4.6 -1.8 7
      vertex 5.30294 0 8.69706
      vertex 4.6 0 7
    endloop
  endfacet
  facet normal -0.923879 0 0.382684
    outer loop
      vertex 5.30294 0 8.69706
      vertex 4.6 -1.8 7
      vertex 5.30294 -1.8 8.69706
    endloop
  endfacet
  facet normal 0.382684 0 0.923879
    outer loop
      vertex 7 0 9.4
      vertex 8.69706 -1.8 8.69706
      vertex 8.69706 0 8.69706
    endloop
  endfacet
  facet normal 0.382684 0 0.923879
    outer loop
      vertex 8.69706 -1.8 8.69706
      vertex 7 0 9.4
      vertex 7 -1.8 9.4
    endloop
  endfacet
  facet normal -0.382684 0 0.923879
    outer loop
      vertex 5.30294 0 8.69706
      vertex 7 -1.8 9.4
      vertex 7 0 9.4
    endloop
  endfacet
  facet normal -0.382684 0 0.923879
    outer loop
      vertex 7 -1.8 9.4
      vertex 5.30294 0 8.69706
      vertex 5.30294 -1.8 8.69706
    endloop
  endfacet
  facet normal 0.382684 0 -0.923879
    outer loop
      vertex 7 -1.8 4.6
      vertex 8.69706 0 5.30294
      vertex 8.69706 -1.8 5.30294
    endloop
  endfacet
  facet normal 0.382684 0 -0.923879
    outer loop
      vertex 8.69706 0 5.30294
      vertex 7 -1.8 4.6
      vertex 7 0 4.6
    endloop
  endfacet
  facet normal -0.923879 0 -0.382684
    outer loop
      vertex 5.30294 -1.8 5.30294
      vertex 4.6 0 7
      vertex 5.30294 0 5.30294
    endloop
  endfacet
  facet normal -0.923879 -0 -0.382684
    outer loop
      vertex 4.6 0 7
      vertex 5.30294 -1.8 5.30294
      vertex 4.6 -1.8 7
    endloop
  endfacet
  facet normal 0.923879 0 -0.382684
    outer loop
      vertex 9.4 -1.8 7
      vertex 8.69706 0 5.30294
      vertex 9.4 0 7
    endloop
  endfacet
  facet normal 0.923879 0 -0.382684
    outer loop
      vertex 8.69706 0 5.30294
      vertex 9.4 -1.8 7
      vertex 8.69706 -1.8 5.30294
    endloop
  endfacet
  facet normal -0.382684 0 -0.923879
    outer loop
      vertex 5.30294 -1.8 5.30294
      vertex 7 0 4.6
      vertex 7 -1.8 4.6
    endloop
  endfacet
  facet normal -0.382684 0 -0.923879
    outer loop
      vertex 7 0 4.6
      vertex 5.30294 -1.8 5.30294
      vertex 5.30294 0 5.30294
    endloop
  endfacet
  facet normal 0 -1 0
    outer loop
      vertex 5.30294 -1.8 8.69706
      vertex 8.69706 -1.8 8.69706
      vertex 7 -1.8 9.4
    endloop
  endfacet
  facet normal 0 -1 0
    outer loop
      vertex 4.6 -1.8 7
      vertex 8.69706 -1.8 8.69706
      vertex 5.30294 -1.8 8.69706
    endloop
  endfacet
  facet normal 0 -1 0
    outer loop
      vertex 4.6 -1.8 7
      vertex 9.4 -1.8 7
      vertex 8.69706 -1.8 8.69706
    endloop
  endfacet
  facet normal 0 -1 0
    outer loop
      vertex 5.30294 -1.8 5.30294
      vertex 9.4 -1.8 7
      vertex 4.6 -1.8 7
    endloop
  endfacet
  facet normal 0 -1 0
    outer loop
      vertex 5.30294 -1.8 5.30294
      vertex 8.69706 -1.8 5.30294
      vertex 9.4 -1.8 7
    endloop
  endfacet
  facet normal -0 -1 0
    outer loop
      vertex 8.69706 -1.8 5.30294
      vertex 5.30294 -1.8 5.30294
      vertex 7 -1.8 4.6
    endloop
  endfacet
  facet normal 0.923879 -0 0.382684
    outer loop
      vertex 8.69706 -1.8 16.6971
      vertex 9.4 0 15
      vertex 8.69706 0 16.6971
    endloop
  endfacet
  facet normal 0.923879 0 0.382684
    outer loop
      vertex 9.4 0 15
      vertex 8.69706 -1.8 16.6971
      vertex 9.4 -1.8 15
    endloop
  endfacet
  facet normal -0.382684 0 0.923879
    outer loop
      vertex 5.30294 0 16.6971
      vertex 7 -1.8 17.4
      vertex 7 0 17.4
    endloop
  endfacet
  facet normal -0.382684 0 0.923879
    outer loop
      vertex 7 -1.8 17.4
      vertex 5.30294 0 16.6971
      vertex 5.30294 -1.8 16.6971
    endloop
  endfacet
  facet normal 0.382684 0 0.923879
    outer loop
      vertex 7 0 17.4
      vertex 8.69706 -1.8 16.6971
      vertex 8.69706 0 16.6971
    endloop
  endfacet
  facet normal 0.382684 0 0.923879
    outer loop
      vertex 8.69706 -1.8 16.6971
      vertex 7 0 17.4
      vertex 7 -1.8 17.4
    endloop
  endfacet
  facet normal 0 -1 0
    outer loop
      vertex 5.30294 -1.8 16.6971
      vertex 8.69706 -1.8 16.6971
      vertex 7 -1.8 17.4
    endloop
  endfacet
  facet normal 0 -1 0
    outer loop
      vertex 4.6 -1.8 15
      vertex 8.69706 -1.8 16.6971
      vertex 5.30294 -1.8 16.6971
    endloop
  endfacet
  facet normal 0 -1 0
    outer loop
      vertex 4.6 -1.8 15
      vertex 9.4 -1.8 15
      vertex 8.69706 -1.8 16.6971
    endloop
  endfacet
  facet normal 0 -1 0
    outer loop
      vertex 5.30294 -1.8 13.3029
      vertex 9.4 -1.8 15
      vertex 4.6 -1.8 15
    endloop
  endfacet
  facet normal 0 -1 0
    outer loop
      vertex 5.30294 -1.8 13.3029
      vertex 8.69706 -1.8 13.3029
      vertex 9.4 -1.8 15
    endloop
  endfacet
  facet normal -0 -1 0
    outer loop
      vertex 8.69706 -1.8 13.3029
      vertex 5.30294 -1.8 13.3029
      vertex 7 -1.8 12.6
    endloop
  endfacet
  facet normal -0.923879 0 0.382684
    outer loop
      vertex 4.6 -1.8 15
      vertex 5.30294 0 16.6971
      vertex 4.6 0 15
    endloop
  endfacet
  facet normal -0.923879 0 0.382684
    outer loop
      vertex 5.30294 0 16.6971
      vertex 4.6 -1.8 15
      vertex 5.30294 -1.8 16.6971
    endloop
  endfacet
  facet normal 0.92388 0 -0.382683
    outer loop
      vertex 9.4 -1.8 15
      vertex 8.69706 0 13.3029
      vertex 9.4 0 15
    endloop
  endfacet
  facet normal 0.92388 0 -0.382683
    outer loop
      vertex 8.69706 0 13.3029
      vertex 9.4 -1.8 15
      vertex 8.69706 -1.8 13.3029
    endloop
  endfacet
  facet normal -0.382684 0 -0.923879
    outer loop
      vertex 5.30294 -1.8 13.3029
      vertex 7 0 12.6
      vertex 7 -1.8 12.6
    endloop
  endfacet
  facet normal -0.382684 0 -0.923879
    outer loop
      vertex 7 0 12.6
      vertex 5.30294 -1.8 13.3029
      vertex 5.30294 0 13.3029
    endloop
  endfacet
  facet normal -0.92388 0 -0.382683
    outer loop
      vertex 5.30294 -1.8 13.3029
      vertex 4.6 0 15
      vertex 5.30294 0 13.3029
    endloop
  endfacet
  facet normal -0.92388 -0 -0.382683
    outer loop
      vertex 4.6 0 15
      vertex 5.30294 -1.8 13.3029
      vertex 4.6 -1.8 15
    endloop
  endfacet
  facet normal 0.382684 0 -0.923879
    outer loop
      vertex 7 -1.8 12.6
      vertex 8.69706 0 13.3029
      vertex 8.69706 -1.8 13.3029
    endloop
  endfacet
  facet normal 0.382684 0 -0.923879
    outer loop
      vertex 8.69706 0 13.3029
      vertex 7 -1.8 12.6
      vertex 7 0 12.6
    endloop
  endfacet
  facet normal 0.923879 -0 0.382684
    outer loop
      vertex 16.6971 -1.8 8.69706
      vertex 17.4 0 7
      vertex 16.6971 0 8.69706
    endloop
  endfacet
  facet normal 0.923879 0 0.382684
    outer loop
      vertex 17.4 0 7
      vertex 16.6971 -1.8 8.69706
      vertex 17.4 -1.8 7
    endloop
  endfacet
  facet normal -0.923879 0 0.382684
    outer loop
      vertex 12.6 -1.8 7
      vertex 13.3029 0 8.69706
      vertex 12.6 0 7
    endloop
  endfacet
  facet normal -0.923879 0 0.382684
    outer loop
      vertex 13.3029 0 8.69706
      vertex 12.6 -1.8 7
      vertex 13.3029 -1.8 8.69706
    endloop
  endfacet
  facet normal 0.382684 0 0.923879
    outer loop
      vertex 15 0 9.4
      vertex 16.6971 -1.8 8.69706
      vertex 16.6971 0 8.69706
    endloop
  endfacet
  facet normal 0.382684 0 0.923879
    outer loop
      vertex 16.6971 -1.8 8.69706
      vertex 15 0 9.4
      vertex 15 -1.8 9.4
    endloop
  endfacet
  facet normal 0 -1 0
    outer loop
      vertex 13.3029 -1.8 8.69706
      vertex 16.6971 -1.8 8.69706
      vertex 15 -1.8 9.4
    endloop
  endfacet
  facet normal 0 -1 0
    outer loop
      vertex 12.6 -1.8 7
      vertex 16.6971 -1.8 8.69706
      vertex 13.3029 -1.8 8.69706
    endloop
  endfacet
  facet normal 0 -1 0
    outer loop
      vertex 12.6 -1.8 7
      vertex 17.4 -1.8 7
      vertex 16.6971 -1.8 8.69706
    endloop
  endfacet
  facet normal 0 -1 0
    outer loop
      vertex 13.3029 -1.8 5.30294
      vertex 17.4 -1.8 7
      vertex 12.6 -1.8 7
    endloop
  endfacet
  facet normal 0 -1 0
    outer loop
      vertex 13.3029 -1.8 5.30294
      vertex 16.6971 -1.8 5.30294
      vertex 17.4 -1.8 7
    endloop
  endfacet
  facet normal -0 -1 0
    outer loop
      vertex 16.6971 -1.8 5.30294
      vertex 13.3029 -1.8 5.30294
      vertex 15 -1.8 4.6
    endloop
  endfacet
  facet normal -0.382683 0 0.92388
    outer loop
      vertex 13.3029 0 8.69706
      vertex 15 -1.8 9.4
      vertex 15 0 9.4
    endloop
  endfacet
  facet normal -0.382683 0 0.92388
    outer loop
      vertex 15 -1.8 9.4
      vertex 13.3029 0 8.69706
      vertex 13.3029 -1.8 8.69706
    endloop
  endfacet
  facet normal 0.382684 0 -0.923879
    outer loop
      vertex 15 -1.8 4.6
      vertex 16.6971 0 5.30294
      vertex 16.6971 -1.8 5.30294
    endloop
  endfacet
  facet normal 0.382684 0 -0.923879
    outer loop
      vertex 16.6971 0 5.30294
      vertex 15 -1.8 4.6
      vertex 15 0 4.6
    endloop
  endfacet
  facet normal -0.923879 0 -0.382684
    outer loop
      vertex 13.3029 -1.8 5.30294
      vertex 12.6 0 7
      vertex 13.3029 0 5.30294
    endloop
  endfacet
  facet normal -0.923879 -0 -0.382684
    outer loop
      vertex 12.6 0 7
      vertex 13.3029 -1.8 5.30294
      vertex 12.6 -1.8 7
    endloop
  endfacet
  facet normal 0.923879 0 -0.382684
    outer loop
      vertex 17.4 -1.8 7
      vertex 16.6971 0 5.30294
      vertex 17.4 0 7
    endloop
  endfacet
  facet normal 0.923879 0 -0.382684
    outer loop
      vertex 16.6971 0 5.30294
      vertex 17.4 -1.8 7
      vertex 16.6971 -1.8 5.30294
    endloop
  endfacet
  facet normal -0.382683 0 -0.92388
    outer loop
      vertex 13.3029 -1.8 5.30294
      vertex 15 0 4.6
      vertex 15 -1.8 4.6
    endloop
  endfacet
  facet normal -0.382683 0 -0.92388
    outer loop
      vertex 15 0 4.6
      vertex 13.3029 -1.8 5.30294
      vertex 13.3029 0 5.30294
    endloop
  endfacet
  facet normal 0.923879 -0 0.382684
    outer loop
      vertex 16.6971 -1.8 16.6971
      vertex 17.4 0 15
      vertex 16.6971 0 16.6971
    endloop
  endfacet
  facet normal 0.923879 0 0.382684
    outer loop
      vertex 17.4 0 15
      vertex 16.6971 -1.8 16.6971
      vertex 17.4 -1.8 15
    endloop
  endfacet
  facet normal -0.382683 0 0.92388
    outer loop
      vertex 13.3029 0 16.6971
      vertex 15 -1.8 17.4
      vertex 15 0 17.4
    endloop
  endfacet
  facet normal -0.382683 0 0.92388
    outer loop
      vertex 15 -1.8 17.4
      vertex 13.3029 0 16.6971
      vertex 13.3029 -1.8 16.6971
    endloop
  endfacet
  facet normal 0.382684 0 0.923879
    outer loop
      vertex 15 0 17.4
      vertex 16.6971 -1.8 16.6971
      vertex 16.6971 0 16.6971
    endloop
  endfacet
  facet normal 0.382684 0 0.923879
    outer loop
      vertex 16.6971 -1.8 16.6971
      vertex 15 0 17.4
      vertex 15 -1.8 17.4
    endloop
  endfacet
  facet normal 0 -1 0
    outer loop
      vertex 13.3029 -1.8 16.6971
      vertex 16.6971 -1.8 16.6971
      vertex 15 -1.8 17.4
    endloop
  endfacet
  facet normal 0 -1 0
    outer loop
      vertex 12.6 -1.8 15
      vertex 16.6971 -1.8 16.6971
      vertex 13.3029 -1.8 16.6971
    endloop
  endfacet
  facet normal 0 -1 0
    outer loop
      vertex 12.6 -1.8 15
      vertex 17.4 -1.8 15
      vertex 16.6971 -1.8 16.6971
    endloop
  endfacet
  facet normal 0 -1 0
    outer loop
      vertex 13.3029 -1.8 13.3029
      vertex 17.4 -1.8 15
      vertex 12.6 -1.8 15
    endloop
  endfacet
  facet normal 0 -1 0
    outer loop
      vertex 13.3029 -1.8 13.3029
      vertex 16.6971 -1.8 13.3029
      vertex 17.4 -1.8 15
    endloop
  endfacet
  facet normal -0 -1 0
    outer loop
      vertex 16.6971 -1.8 13.3029
      vertex 13.3029 -1.8 13.3029
      vertex 15 -1.8 12.6
    endloop
  endfacet
  facet normal -0.923879 0 0.382684
    outer loop
      vertex 12.6 -1.8 15
      vertex 13.3029 0 16.6971
      vertex 12.6 0 15
    endloop
  endfacet
  facet normal -0.923879 0 0.382684
    outer loop
      vertex 13.3029 0 16.6971
      vertex 12.6 -1.8 15
      vertex 13.3029 -1.8 16.6971
    endloop
  endfacet
  facet normal 0.92388 0 -0.382683
    outer loop
      vertex 17.4 -1.8 15
      vertex 16.6971 0 13.3029
      vertex 17.4 0 15
    endloop
  endfacet
  facet normal 0.92388 0 -0.382683
    outer loop
      vertex 16.6971 0 13.3029
      vertex 17.4 -1.8 15
      vertex 16.6971 -1.8 13.3029
    endloop
  endfacet
  facet normal -0.92388 0 -0.382683
    outer loop
      vertex 13.3029 -1.8 13.3029
      vertex 12.6 0 15
      vertex 13.3029 0 13.3029
    endloop
  endfacet
  facet normal -0.92388 -0 -0.382683
    outer loop
      vertex 12.6 0 15
      vertex 13.3029 -1.8 13.3029
      vertex 12.6 -1.8 15
    endloop
  endfacet
  facet normal 0.382684 0 -0.923879
    outer loop
      vertex 15 -1.8 12.6
      vertex 16.6971 0 13.3029
      vertex 16.6971 -1.8 13.3029
    endloop
  endfacet
  facet normal 0.382684 0 -0.923879
    outer loop
      vertex 16.6971 0 13.3029
      vertex 15 -1.8 12.6
      vertex 15 0 12.6
    endloop
  endfacet
  facet normal -0.382683 0 -0.92388
    outer loop
      vertex 13.3029 -1.8 13.3029
      vertex 15 0 12.6
      vertex 15 -1.8 12.6
    endloop
  endfacet
  facet normal -0.382683 0 -0.92388
    outer loop
      vertex 15 0 12.6
      vertex 13.3029 -1.8 13.3029
      vertex 13.3029 0 13.3029
    endloop
  endfacet
  facet normal -1 0 0
    outer loop
      vertex 4 0 4
      vertex 4 32 20
      vertex 4 32 4
    endloop
  endfacet
  facet normal -1 -0 0
    outer loop
      vertex 4 32 20
      vertex 4 0 4
      vertex 4 0 20
    endloop
  endfacet
  facet normal 0 0 1
    outer loop
      vertex 13.7678 15.1011 20
      vertex 20 32 20
      vertex 13.7678 24.8989 20
    endloop
  endfacet
  facet normal 0 0 1
    outer loop
      vertex 20 32 20
      vertex 13.7678 15.1011 20
      vertex 14.5 13.3333 20
    endloop
  endfacet
  facet normal -0 0 1
    outer loop
      vertex 12 24.1667 20
      vertex 13.7678 15.1011 20
      vertex 13.7678 24.8989 20
    endloop
  endfacet
  facet normal 0 0 1
    outer loop
      vertex 12 24.1667 20
      vertex 12 15.8333 20
      vertex 13.7678 15.1011 20
    endloop
  endfacet
  facet normal 0 0 1
    outer loop
      vertex 10.2322 24.8989 20
      vertex 12 15.8333 20
      vertex 12 24.1667 20
    endloop
  endfacet
  facet normal 0 0 1
    outer loop
      vertex 10.2322 24.8989 20
      vertex 10.2322 15.1011 20
      vertex 12 15.8333 20
    endloop
  endfacet
  facet normal 0 0 1
    outer loop
      vertex 4 32 20
      vertex 10.2322 24.8989 20
      vertex 9.5 26.6667 20
    endloop
  endfacet
  facet normal 0 0 1
    outer loop
      vertex 10.2322 24.8989 20
      vertex 4 32 20
      vertex 10.2322 15.1011 20
    endloop
  endfacet
  facet normal 0 0 1
    outer loop
      vertex 13.7678 24.8989 20
      vertex 20 32 20
      vertex 14.5 26.6667 20
    endloop
  endfacet
  facet normal 0 0 1
    outer loop
      vertex 20 32 20
      vertex 13.7678 28.4344 20
      vertex 14.5 26.6667 20
    endloop
  endfacet
  facet normal 0 0 1
    outer loop
      vertex 20 32 20
      vertex 12 29.1667 20
      vertex 13.7678 28.4344 20
    endloop
  endfacet
  facet normal 0 0 1
    outer loop
      vertex 10.2322 15.1011 20
      vertex 4 32 20
      vertex 9.5 13.3333 20
    endloop
  endfacet
  facet normal 0 0 1
    outer loop
      vertex 10.2322 28.4344 20
      vertex 4 32 20
      vertex 9.5 26.6667 20
    endloop
  endfacet
  facet normal 0 0 1
    outer loop
      vertex 12 29.1667 20
      vertex 4 32 20
      vertex 10.2322 28.4344 20
    endloop
  endfacet
  facet normal -0 0 1
    outer loop
      vertex 4 32 20
      vertex 12 29.1667 20
      vertex 20 32 20
    endloop
  endfacet
  facet normal 0 0 1
    outer loop
      vertex 20 32 20
      vertex 14.5 13.3333 20
      vertex 20 0 20
    endloop
  endfacet
  facet normal -0 0 1
    outer loop
      vertex 13.7678 11.5656 20
      vertex 20 0 20
      vertex 14.5 13.3333 20
    endloop
  endfacet
  facet normal -0 0 1
    outer loop
      vertex 12 10.8333 20
      vertex 20 0 20
      vertex 13.7678 11.5656 20
    endloop
  endfacet
  facet normal 0 0 1
    outer loop
      vertex 4 0 20
      vertex 12 10.8333 20
      vertex 10.2322 11.5656 20
    endloop
  endfacet
  facet normal 0 0 1
    outer loop
      vertex 12 10.8333 20
      vertex 4 0 20
      vertex 20 0 20
    endloop
  endfacet
  facet normal 0 0 1
    outer loop
      vertex 9.5 13.3333 20
      vertex 4 0 20
      vertex 10.2322 11.5656 20
    endloop
  endfacet
  facet normal 0 0 1
    outer loop
      vertex 4 0 20
      vertex 9.5 13.3333 20
      vertex 4 32 20
    endloop
  endfacet
  facet normal 1 -0 0
    outer loop
      vertex 20 0 20
      vertex 20 32 4
      vertex 20 32 20
    endloop
  endfacet
  facet normal 1 0 0
    outer loop
      vertex 20 32 4
      vertex 20 0 20
      vertex 20 0 4
    endloop
  endfacet
  facet normal 0 1 -0
    outer loop
      vertex 20 32 4
      vertex 4 32 20
      vertex 20 32 20
    endloop
  endfacet
  facet normal 0 1 0
    outer loop
      vertex 4 32 20
      vertex 20 32 4
      vertex 4 32 4
    endloop
  endfacet
  facet normal 0 0 -1
    outer loop
      vertex 13.7678 24.8989 4
      vertex 20 32 4
      vertex 13.7678 15.1011 4
    endloop
  endfacet
  facet normal 0 0 -1
    outer loop
      vertex 20 32 4
      vertex 13.7678 24.8989 4
      vertex 14.5 26.6667 4
    endloop
  endfacet
  facet normal 0 0 -1
    outer loop
      vertex 12 15.8333 4
      vertex 13.7678 24.8989 4
      vertex 13.7678 15.1011 4
    endloop
  endfacet
  facet normal 0 0 -1
    outer loop
      vertex 12 15.8333 4
      vertex 12 24.1667 4
      vertex 13.7678 24.8989 4
    endloop
  endfacet
  facet normal 0 0 -1
    outer loop
      vertex 10.2322 15.1011 4
      vertex 12 24.1667 4
      vertex 12 15.8333 4
    endloop
  endfacet
  facet normal 0 0 -1
    outer loop
      vertex 10.2322 15.1011 4
      vertex 10.2322 24.8989 4
      vertex 12 24.1667 4
    endloop
  endfacet
  facet normal 0 0 -1
    outer loop
      vertex 4 32 4
      vertex 10.2322 15.1011 4
      vertex 9.5 13.3333 4
    endloop
  endfacet
  facet normal 0 0 -1
    outer loop
      vertex 10.2322 15.1011 4
      vertex 4 32 4
      vertex 10.2322 24.8989 4
    endloop
  endfacet
  facet normal 0 0 -1
    outer loop
      vertex 20 0 4
      vertex 14.5 13.3333 4
      vertex 20 32 4
    endloop
  endfacet
  facet normal 0 0 -1
    outer loop
      vertex 20 0 4
      vertex 13.7678 11.5656 4
      vertex 14.5 13.3333 4
    endloop
  endfacet
  facet normal 0 0 -1
    outer loop
      vertex 20 0 4
      vertex 12 10.8333 4
      vertex 13.7678 11.5656 4
    endloop
  endfacet
  facet normal 0 0 -1
    outer loop
      vertex 4 0 4
      vertex 12 10.8333 4
      vertex 20 0 4
    endloop
  endfacet
  facet normal 0 0 -1
    outer loop
      vertex 4 32 4
      vertex 9.5 13.3333 4
      vertex 4 0 4
    endloop
  endfacet
  facet normal -0 0 -1
    outer loop
      vertex 10.2322 11.5656 4
      vertex 4 0 4
      vertex 9.5 13.3333 4
    endloop
  endfacet
  facet normal -0 0 -1
    outer loop
      vertex 12 10.8333 4
      vertex 4 0 4
      vertex 10.2322 11.5656 4
    endloop
  endfacet
  facet normal 0 0 -1
    outer loop
      vertex 13.7678 15.1011 4
      vertex 20 32 4
      vertex 14.5 13.3333 4
    endloop
  endfacet
  facet normal 0 0 -1
    outer loop
      vertex 13.7678 28.4344 4
      vertex 20 32 4
      vertex 14.5 26.6667 4
    endloop
  endfacet
  facet normal 0 0 -1
    outer loop
      vertex 12 29.1667 4
      vertex 20 32 4
      vertex 13.7678 28.4344 4
    endloop
  endfacet
  facet normal 0 0 -1
    outer loop
      vertex 12 29.1667 4
      vertex 4 32 4
      vertex 20 32 4
    endloop
  endfacet
  facet normal 0 0 -1
    outer loop
      vertex 10.2322 28.4344 4
      vertex 4 32 4
      vertex 12 29.1667 4
    endloop
  endfacet
  facet normal 0 0 -1
    outer loop
      vertex 9.5 26.6667 4
      vertex 4 32 4
      vertex 10.2322 28.4344 4
    endloop
  endfacet
  facet normal 0 0 -1
    outer loop
      vertex 10.2322 24.8989 4
      vertex 4 32 4
      vertex 9.5 26.6667 4
    endloop
  endfacet
  facet normal 0 -1 0
    outer loop
      vertex 13.3029 0 8.69706
      vertex 13.3029 0 13.3029
      vertex 8.69706 0 8.69706
    endloop
  endfacet
  facet normal 0 -1 0
    outer loop
      vertex 13.3029 0 13.3029
      vertex 13.3029 0 8.69706
      vertex 15 0 9.4
    endloop
  endfacet
  facet normal 0 -1 0
    outer loop
      vertex 9.4 0 7
      vertex 13.3029 0 8.69706
      vertex 8.69706 0 8.69706
    endloop
  endfacet
  facet normal 0 -1 0
    outer loop
      vertex 9.4 0 7
      vertex 12.6 0 7
      vertex 13.3029 0 8.69706
    endloop
  endfacet
  facet normal 0 -1 0
    outer loop
      vertex 8.69706 0 5.30294
      vertex 12.6 0 7
      vertex 9.4 0 7
    endloop
  endfacet
  facet normal 0 -1 0
    outer loop
      vertex 8.69706 0 5.30294
      vertex 13.3029 0 5.30294
      vertex 12.6 0 7
    endloop
  endfacet
  facet normal 0 -1 0
    outer loop
      vertex 7 0 4.6
      vertex 13.3029 0 5.30294
      vertex 8.69706 0 5.30294
    endloop
  endfacet
  facet normal 0 -1 -0
    outer loop
      vertex 13.3029 0 5.30294
      vertex 7 0 4.6
      vertex 15 0 4.6
    endloop
  endfacet
  facet normal 0 -1 0
    outer loop
      vertex 8.69706 0 16.6971
      vertex 15 0 17.4
      vertex 7 0 17.4
    endloop
  endfacet
  facet normal 0 -1 0
    outer loop
      vertex 8.69706 0 16.6971
      vertex 13.3029 0 16.6971
      vertex 15 0 17.4
    endloop
  endfacet
  facet normal 0 -1 0
    outer loop
      vertex 9.4 0 15
      vertex 13.3029 0 16.6971
      vertex 8.69706 0 16.6971
    endloop
  endfacet
  facet normal 0 -1 0
    outer loop
      vertex 9.4 0 15
      vertex 12.6 0 15
      vertex 13.3029 0 16.6971
    endloop
  endfacet
  facet normal 0 -1 0
    outer loop
      vertex 8.69706 0 13.3029
      vertex 12.6 0 15
      vertex 9.4 0 15
    endloop
  endfacet
  facet normal 0 -1 0
    outer loop
      vertex 8.69706 0 13.3029
      vertex 13.3029 0 13.3029
      vertex 12.6 0 15
    endloop
  endfacet
  facet normal 0 -1 0
    outer loop
      vertex 7 0 9.4
      vertex 8.69706 0 13.3029
      vertex 7 0 12.6
    endloop
  endfacet
  facet normal 0 -1 0
    outer loop
      vertex 8.69706 0 8.69706
      vertex 8.69706 0 13.3029
      vertex 7 0 9.4
    endloop
  endfacet
  facet normal 0 -1 0
    outer loop
      vertex 15 0 17.4
      vertex 4 0 20
      vertex 7 0 17.4
    endloop
  endfacet
  facet normal 0 -1 0
    outer loop
      vertex 4 0 20
      vertex 5.30294 0 16.6971
      vertex 7 0 17.4
    endloop
  endfacet
  facet normal 0 -1 0
    outer loop
      vertex 4 0 20
      vertex 4.6 0 15
      vertex 5.30294 0 16.6971
    endloop
  endfacet
  facet normal 0 -1 0
    outer loop
      vertex 8.69706 0 13.3029
      vertex 8.69706 0 8.69706
      vertex 13.3029 0 13.3029
    endloop
  endfacet
  facet normal 0 -1 0
    outer loop
      vertex 5.30294 0 13.3029
      vertex 7 0 9.4
      vertex 7 0 12.6
    endloop
  endfacet
  facet normal 0 -1 0
    outer loop
      vertex 5.30294 0 13.3029
      vertex 5.30294 0 8.69706
      vertex 7 0 9.4
    endloop
  endfacet
  facet normal 0 -1 0
    outer loop
      vertex 4.6 0 15
      vertex 5.30294 0 8.69706
      vertex 5.30294 0 13.3029
    endloop
  endfacet
  facet normal 0 -1 0
    outer loop
      vertex 4 0 4
      vertex 4.6 0 15
      vertex 4 0 20
    endloop
  endfacet
  facet normal 0 -1 0
    outer loop
      vertex 4.6 0 15
      vertex 4.6 0 7
      vertex 5.30294 0 8.69706
    endloop
  endfacet
  facet normal 0 -1 -0
    outer loop
      vertex 7 0 4.6
      vertex 4 0 4
      vertex 15 0 4.6
    endloop
  endfacet
  facet normal 0 -1 -0
    outer loop
      vertex 5.30294 0 5.30294
      vertex 4 0 4
      vertex 7 0 4.6
    endloop
  endfacet
  facet normal 0 -1 -0
    outer loop
      vertex 4.6 0 7
      vertex 4 0 4
      vertex 5.30294 0 5.30294
    endloop
  endfacet
  facet normal 0 -1 -0
    outer loop
      vertex 4.6 0 15
      vertex 4 0 4
      vertex 4.6 0 7
    endloop
  endfacet
  facet normal 0 -1 0
    outer loop
      vertex 4 0 20
      vertex 15 0 17.4
      vertex 20 0 20
    endloop
  endfacet
  facet normal 0 -1 0
    outer loop
      vertex 16.6971 0 16.6971
      vertex 20 0 20
      vertex 15 0 17.4
    endloop
  endfacet
  facet normal 0 -1 0
    outer loop
      vertex 17.4 0 15
      vertex 20 0 20
      vertex 16.6971 0 16.6971
    endloop
  endfacet
  facet normal 0 -1 0
    outer loop
      vertex 17.4 0 7
      vertex 17.4 0 15
      vertex 16.6971 0 13.3029
    endloop
  endfacet
  facet normal 0 -1 0
    outer loop
      vertex 13.3029 0 13.3029
      vertex 15 0 9.4
      vertex 15 0 12.6
    endloop
  endfacet
  facet normal 0 -1 0
    outer loop
      vertex 15 0 9.4
      vertex 16.6971 0 13.3029
      vertex 15 0 12.6
    endloop
  endfacet
  facet normal 0 -1 0
    outer loop
      vertex 16.6971 0 8.69706
      vertex 16.6971 0 13.3029
      vertex 15 0 9.4
    endloop
  endfacet
  facet normal 0 -1 0
    outer loop
      vertex 17.4 0 7
      vertex 16.6971 0 13.3029
      vertex 16.6971 0 8.69706
    endloop
  endfacet
  facet normal 0 -1 0
    outer loop
      vertex 17.4 0 15
      vertex 17.4 0 7
      vertex 20 0 4
    endloop
  endfacet
  facet normal 0 -1 0
    outer loop
      vertex 17.4 0 15
      vertex 20 0 4
      vertex 20 0 20
    endloop
  endfacet
  facet normal 0 -1 0
    outer loop
      vertex 16.6971 0 5.30294
      vertex 20 0 4
      vertex 17.4 0 7
    endloop
  endfacet
  facet normal 0 -1 0
    outer loop
      vertex 15 0 4.6
      vertex 20 0 4
      vertex 16.6971 0 5.30294
    endloop
  endfacet
  facet normal 0 -1 0
    outer loop
      vertex 20 0 4
      vertex 15 0 4.6
      vertex 4 0 4
    endloop
  endfacet
  facet normal -0.92388 -0.382683 0
    outer loop
      vertex 14.5 13.3333 4
      vertex 13.7678 15.1011 20
      vertex 13.7678 15.1011 4
    endloop
  endfacet
  facet normal -0.92388 -0.382683 0
    outer loop
      vertex 13.7678 15.1011 20
      vertex 14.5 13.3333 4
      vertex 14.5 13.3333 20
    endloop
  endfacet
  facet normal 0.382683 -0.92388 0
    outer loop
      vertex 10.2322 15.1011 4
      vertex 12 15.8333 20
      vertex 10.2322 15.1011 20
    endloop
  endfacet
  facet normal 0.382683 -0.92388 0
    outer loop
      vertex 12 15.8333 20
      vertex 10.2322 15.1011 4
      vertex 12 15.8333 4
    endloop
  endfacet
  facet normal -0.382683 -0.92388 0
    outer loop
      vertex 12 15.8333 4
      vertex 13.7678 15.1011 20
      vertex 12 15.8333 20
    endloop
  endfacet
  facet normal -0.382683 -0.92388 -0
    outer loop
      vertex 13.7678 15.1011 20
      vertex 12 15.8333 4
      vertex 13.7678 15.1011 4
    endloop
  endfacet
  facet normal 0.92388 -0.382683 0
    outer loop
      vertex 9.5 13.3333 20
      vertex 10.2322 15.1011 4
      vertex 10.2322 15.1011 20
    endloop
  endfacet
  facet normal 0.92388 -0.382683 0
    outer loop
      vertex 10.2322 15.1011 4
      vertex 9.5 13.3333 20
      vertex 9.5 13.3333 4
    endloop
  endfacet
  facet normal -0.92388 0.382683 0
    outer loop
      vertex 13.7678 11.5656 4
      vertex 14.5 13.3333 20
      vertex 14.5 13.3333 4
    endloop
  endfacet
  facet normal -0.92388 0.382683 0
    outer loop
      vertex 14.5 13.3333 20
      vertex 13.7678 11.5656 4
      vertex 13.7678 11.5656 20
    endloop
  endfacet
  facet normal 0.92388 0.382683 0
    outer loop
      vertex 10.2322 11.5656 20
      vertex 9.5 13.3333 4
      vertex 9.5 13.3333 20
    endloop
  endfacet
  facet normal 0.92388 0.382683 0
    outer loop
      vertex 9.5 13.3333 4
      vertex 10.2322 11.5656 20
      vertex 10.2322 11.5656 4
    endloop
  endfacet
  facet normal -0.382683 0.92388 0
    outer loop
      vertex 13.7678 11.5656 4
      vertex 12 10.8333 20
      vertex 13.7678 11.5656 20
    endloop
  endfacet
  facet normal -0.382683 0.92388 0
    outer loop
      vertex 12 10.8333 20
      vertex 13.7678 11.5656 4
      vertex 12 10.8333 4
    endloop
  endfacet
  facet normal 0.382683 0.92388 -0
    outer loop
      vertex 12 10.8333 4
      vertex 10.2322 11.5656 20
      vertex 12 10.8333 20
    endloop
  endfacet
  facet normal 0.382683 0.92388 0
    outer loop
      vertex 10.2322 11.5656 20
      vertex 12 10.8333 4
      vertex 10.2322 11.5656 4
    endloop
  endfacet
  facet normal -0.92388 -0.382683 0
    outer loop
      vertex 14.5 26.6667 4
      vertex 13.7678 28.4344 20
      vertex 13.7678 28.4344 4
    endloop
  endfacet
  facet normal -0.92388 -0.382683 0
    outer loop
      vertex 13.7678 28.4344 20
      vertex 14.5 26.6667 4
      vertex 14.5 26.6667 20
    endloop
  endfacet
  facet normal 0.92388 0.382683 0
    outer loop
      vertex 10.2322 24.8989 20
      vertex 9.5 26.6667 4
      vertex 9.5 26.6667 20
    endloop
  endfacet
  facet normal 0.92388 0.382683 0
    outer loop
      vertex 9.5 26.6667 4
      vertex 10.2322 24.8989 20
      vertex 10.2322 24.8989 4
    endloop
  endfacet
  facet normal 0.382683 0.92388 -0
    outer loop
      vertex 12 24.1667 4
      vertex 10.2322 24.8989 20
      vertex 12 24.1667 20
    endloop
  endfacet
  facet normal 0.382683 0.92388 0
    outer loop
      vertex 10.2322 24.8989 20
      vertex 12 24.1667 4
      vertex 10.2322 24.8989 4
    endloop
  endfacet
  facet normal 0.382683 -0.92388 0
    outer loop
      vertex 10.2322 28.4344 4
      vertex 12 29.1667 20
      vertex 10.2322 28.4344 20
    endloop
  endfacet
  facet normal 0.382683 -0.92388 0
    outer loop
      vertex 12 29.1667 20
      vertex 10.2322 28.4344 4
      vertex 12 29.1667 4
    endloop
  endfacet
  facet normal -0.382683 -0.92388 0
    outer loop
      vertex 12 29.1667 4
      vertex 13.7678 28.4344 20
      vertex 12 29.1667 20
    endloop
  endfacet
  facet normal -0.382683 -0.92388 -0
    outer loop
      vertex 13.7678 28.4344 20
      vertex 12 29.1667 4
      vertex 13.7678 28.4344 4
    endloop
  endfacet
  facet normal 0.92388 -0.382683 0
    outer loop
      vertex 9.5 26.6667 20
      vertex 10.2322 28.4344 4
      vertex 10.2322 28.4344 20
    endloop
  endfacet
  facet normal 0.92388 -0.382683 0
    outer loop
      vertex 10.2322 28.4344 4
      vertex 9.5 26.6667 20
      vertex 9.5 26.6667 4
    endloop
  endfacet
  facet normal -0.382683 0.92388 0
    outer loop
      vertex 13.7678 24.8989 4
      vertex 12 24.1667 20
      vertex 13.7678 24.8989 20
    endloop
  endfacet
  facet normal -0.382683 0.92388 0
    outer loop
      vertex 12 24.1667 20
      vertex 13.7678 24.8989 4
      vertex 12 24.1667 4
    endloop
  endfacet
  facet normal -0.92388 0.382683 0
    outer loop
      vertex 13.7678 24.8989 4
      vertex 14.5 26.6667 20
      vertex 14.5 26.6667 4
    endloop
  endfacet
  facet normal -0.92388 0.382683 0
    outer loop
      vertex 14.5 26.6667 20
      vertex 13.7678 24.8989 4
      vertex 13.7678 24.8989 20
    endloop
  endfacet
endsolid OpenSCAD_Model
