solid OpenSCAD_Model
  facet normal 0.994522 0.104529 0
    outer loop
      vertex 10 0 80
      vertex 9.78979 2 52
      vertex 9.78979 2 80
    endloop
  endfacet
  facet normal 0.994522 0.104529 0
    outer loop
      vertex 9.78979 2 52
      vertex 10 0 80
      vertex 10 0 52
    endloop
  endfacet
  facet normal 0.994522 0.104523 -0
    outer loop
      vertex 9.78979 2 80
      vertex 9.78148 2.07912 80.6533
      vertex 9.78979 2 80.5832
    endloop
  endfacet
  facet normal 0.994522 0.104523 -0
    outer loop
      vertex 9.78979 2 52
      vertex 9.78148 2.07912 80.6533
      vertex 9.78979 2 80
    endloop
  endfacet
  facet normal 0.994522 0.104523 0
    outer loop
      vertex 9.78148 2.07912 80.6533
      vertex 9.78979 2 52
      vertex 9.78148 2.07912 0
    endloop
  endfacet
  facet normal 0.994522 0.104523 -0
    outer loop
      vertex 9.78979 2 40
      vertex 9.78148 2.07912 0
      vertex 9.78979 2 52
    endloop
  endfacet
  facet normal 0.994522 0.104529 1.19607e-008
    outer loop
      vertex 10 0 40
      vertex 9.78148 2.07912 0
      vertex 9.78979 2 40
    endloop
  endfacet
  facet normal 0.994522 0.104529 0
    outer loop
      vertex 9.78148 2.07912 0
      vertex 10 0 40
      vertex 10 0 0
    endloop
  endfacet
  facet normal 0.994522 0.104523 0
    outer loop
      vertex 9.78148 2.07912 120
      vertex 9.78979 2 92
      vertex 9.78148 2.07912 87.295
    endloop
  endfacet
  facet normal 0.994522 0.104529 -1.64366e-008
    outer loop
      vertex 10 0 120
      vertex 9.78979 2 92
      vertex 9.78148 2.07912 120
    endloop
  endfacet
  facet normal 0.994522 0.104529 0
    outer loop
      vertex 9.78979 2 92
      vertex 10 0 120
      vertex 10 0 92
    endloop
  endfacet
  facet normal 0.994522 0.104523 0
    outer loop
      vertex 9.78148 2.07912 87.295
      vertex 9.78979 2 92
      vertex 9.78979 2 87.3365
    endloop
  endfacet
  facet normal 0 1 -0
    outer loop
      vertex 1.04528 9.94522 0
      vertex 0 9.94522 120
      vertex 1.04528 9.94522 120
    endloop
  endfacet
  facet normal 0 1 0
    outer loop
      vertex 0 9.94522 120
      vertex 1.04528 9.94522 0
      vertex 0 9.94522 0
    endloop
  endfacet
  facet normal 0 -1 0
    outer loop
      vertex 0 -9.94522 0
      vertex 1.04528 -9.94522 40
      vertex 0 -9.94522 40
    endloop
  endfacet
  facet normal 0 -1 -0
    outer loop
      vertex 1.04528 -9.94522 40
      vertex 0 -9.94522 0
      vertex 1.04528 -9.94522 0
    endloop
  endfacet
  facet normal 0 -1 0
    outer loop
      vertex 0 -9.94522 92
      vertex 1.04528 -9.94522 120
      vertex 0 -9.94522 120
    endloop
  endfacet
  facet normal 0 -1 -0
    outer loop
      vertex 1.04528 -9.94522 120
      vertex 0 -9.94522 92
      vertex 1.04528 -9.94522 92
    endloop
  endfacet
  facet normal 0.587785 0.809017 -0
    outer loop
      vertex 6.69131 7.43145 0
      vertex 5 8.66025 120
      vertex 6.69131 7.43145 120
    endloop
  endfacet
  facet normal 0.587785 0.809017 0
    outer loop
      vertex 5 8.66025 120
      vertex 6.69131 7.43145 0
      vertex 5 8.66025 0
    endloop
  endfacet
  facet normal 0.406737 0.913545 -0
    outer loop
      vertex 5 8.66025 0
      vertex 3.09017 9.51056 120
      vertex 5 8.66025 120
    endloop
  endfacet
  facet normal 0.406737 0.913545 0
    outer loop
      vertex 3.09017 9.51056 120
      vertex 5 8.66025 0
      vertex 3.09017 9.51056 0
    endloop
  endfacet
  facet normal 0.866026 0.5 0
    outer loop
      vertex 9.13545 4.06737 120
      vertex 8.09017 5.87785 0
      vertex 8.09017 5.87785 120
    endloop
  endfacet
  facet normal 0.866026 0.5 0
    outer loop
      vertex 8.09017 5.87785 0
      vertex 9.13545 4.06737 120
      vertex 9.13545 4.06737 0
    endloop
  endfacet
  facet normal 0.951058 0.309014 0
    outer loop
      vertex 9.13545 4.06737 120
      vertex 9.16682 3.97083 83.5179
      vertex 9.13545 4.06737 0
    endloop
  endfacet
  facet normal 0.951057 0.309017 -8.34971e-009
    outer loop
      vertex 9.13545 4.06737 120
      vertex 9.2418 3.74006 85.4184
      vertex 9.16682 3.97083 83.5179
    endloop
  endfacet
  facet normal 0.951056 0.309017 -1.35479e-008
    outer loop
      vertex 9.13545 4.06737 120
      vertex 9.59517 2.65249 86.994
      vertex 9.2418 3.74006 85.4184
    endloop
  endfacet
  facet normal 0.951057 0.309017 -0
    outer loop
      vertex 9.78148 2.07912 87.295
      vertex 9.13545 4.06737 120
      vertex 9.78148 2.07912 120
    endloop
  endfacet
  facet normal 0.951057 0.309017 6.89963e-009
    outer loop
      vertex 9.13545 4.06737 120
      vertex 9.78148 2.07912 87.295
      vertex 9.59517 2.65249 86.994
    endloop
  endfacet
  facet normal 0.951057 0.309017 3.74135e-009
    outer loop
      vertex 9.38741 3.29193 81.7277
      vertex 9.13545 4.06737 0
      vertex 9.16682 3.97083 83.5179
    endloop
  endfacet
  facet normal 0.951056 0.309017 7.69205e-009
    outer loop
      vertex 9.78148 2.07912 80.6533
      vertex 9.13545 4.06737 0
      vertex 9.38741 3.29193 81.7277
    endloop
  endfacet
  facet normal 0.951057 0.309017 0
    outer loop
      vertex 9.13545 4.06737 0
      vertex 9.78148 2.07912 80.6533
      vertex 9.78148 2.07912 0
    endloop
  endfacet
  facet normal 0.743145 0.669131 0
    outer loop
      vertex 8.09017 5.87785 120
      vertex 6.69131 7.43145 0
      vertex 6.69131 7.43145 120
    endloop
  endfacet
  facet normal 0.743145 0.669131 0
    outer loop
      vertex 6.69131 7.43145 0
      vertex 8.09017 5.87785 120
      vertex 8.09017 5.87785 0
    endloop
  endfacet
  facet normal 0.207911 0.978148 -0
    outer loop
      vertex 3.09017 9.51056 0
      vertex 1.04528 9.94522 120
      vertex 3.09017 9.51056 120
    endloop
  endfacet
  facet normal 0.207911 0.978148 0
    outer loop
      vertex 1.04528 9.94522 120
      vertex 3.09017 9.51056 0
      vertex 1.04528 9.94522 0
    endloop
  endfacet
  facet normal -0 0 1
    outer loop
      vertex -10 10 120
      vertex 0 9.94522 120
      vertex 0 10 120
    endloop
  endfacet
  facet normal 0 0 1
    outer loop
      vertex 0 9.94522 120
      vertex -2.41017 5.49464 120
      vertex -0.495476 5.97951 120
    endloop
  endfacet
  facet normal 0 0 1
    outer loop
      vertex 0 9.94522 120
      vertex -10 10 120
      vertex -2.41017 5.49464 120
    endloop
  endfacet
  facet normal 0 0 1
    outer loop
      vertex -2.41017 5.49464 120
      vertex -10 10 120
      vertex -4.06369 4.41434 120
    endloop
  endfacet
  facet normal 0 0 1
    outer loop
      vertex -5.91817 0.987567 120
      vertex -10 10 120
      vertex -5.91817 -0.987567 120
    endloop
  endfacet
  facet normal 0 0 1
    outer loop
      vertex -5.27684 2.85568 120
      vertex -10 10 120
      vertex -5.91817 0.987567 120
    endloop
  endfacet
  facet normal 0 0 1
    outer loop
      vertex -4.06369 4.41434 120
      vertex -10 10 120
      vertex -5.27684 2.85568 120
    endloop
  endfacet
  facet normal 0 0 1
    outer loop
      vertex 6 0 120
      vertex 10 0 120
      vertex 9.78148 2.07912 120
    endloop
  endfacet
  facet normal 0 0 1
    outer loop
      vertex 5.6749 1.9482 120
      vertex 9.78148 2.07912 120
      vertex 9.13545 4.06737 120
    endloop
  endfacet
  facet normal 0 0 1
    outer loop
      vertex 10 0 120
      vertex 6 0 120
      vertex 9.78148 -2.07912 120
    endloop
  endfacet
  facet normal 0 0 1
    outer loop
      vertex 4.73484 3.68528 120
      vertex 9.13545 4.06737 120
      vertex 8.09017 5.87785 120
    endloop
  endfacet
  facet normal -0 0 1
    outer loop
      vertex 5.6749 -1.9482 120
      vertex 9.78148 -2.07912 120
      vertex 6 0 120
    endloop
  endfacet
  facet normal 0 0 1
    outer loop
      vertex 4.73484 3.68528 120
      vertex 8.09017 5.87785 120
      vertex 6.69131 7.43145 120
    endloop
  endfacet
  facet normal 0 0 1
    outer loop
      vertex 9.78148 -2.07912 120
      vertex 5.6749 -1.9482 120
      vertex 9.13545 -4.06737 120
    endloop
  endfacet
  facet normal -0 0 1
    outer loop
      vertex 4.73484 -3.68528 120
      vertex 9.13545 -4.06737 120
      vertex 5.6749 -1.9482 120
    endloop
  endfacet
  facet normal 0 0 1
    outer loop
      vertex 9.78148 2.07912 120
      vertex 5.6749 1.9482 120
      vertex 6 0 120
    endloop
  endfacet
  facet normal 0 0 1
    outer loop
      vertex 3.28169 5.023 120
      vertex 6.69131 7.43145 120
      vertex 5 8.66025 120
    endloop
  endfacet
  facet normal 0 0 1
    outer loop
      vertex 9.13545 4.06737 120
      vertex 4.73484 3.68528 120
      vertex 5.6749 1.9482 120
    endloop
  endfacet
  facet normal 0 0 1
    outer loop
      vertex 6.69131 7.43145 120
      vertex 3.28169 5.023 120
      vertex 4.73484 3.68528 120
    endloop
  endfacet
  facet normal 0 0 1
    outer loop
      vertex 3.09017 9.51056 120
      vertex 3.28169 5.023 120
      vertex 5 8.66025 120
    endloop
  endfacet
  facet normal 0 0 1
    outer loop
      vertex 3.09017 9.51056 120
      vertex 1.47291 5.8164 120
      vertex 3.28169 5.023 120
    endloop
  endfacet
  facet normal 0 0 1
    outer loop
      vertex 1.04528 9.94522 120
      vertex 1.47291 5.8164 120
      vertex 3.09017 9.51056 120
    endloop
  endfacet
  facet normal 0 0 1
    outer loop
      vertex -0.495476 5.97951 120
      vertex 1.04528 9.94522 120
      vertex 0 9.94522 120
    endloop
  endfacet
  facet normal 0 0 1
    outer loop
      vertex 1.04528 9.94522 120
      vertex -0.495476 5.97951 120
      vertex 1.47291 5.8164 120
    endloop
  endfacet
  facet normal 0 0 1
    outer loop
      vertex 9.13545 -4.06737 120
      vertex 4.73484 -3.68528 120
      vertex 8.09017 -5.87785 120
    endloop
  endfacet
  facet normal 0 0 1
    outer loop
      vertex 8.09017 -5.87785 120
      vertex 4.73484 -3.68528 120
      vertex 6.69131 -7.43145 120
    endloop
  endfacet
  facet normal -0 0 1
    outer loop
      vertex 3.28169 -5.023 120
      vertex 6.69131 -7.43145 120
      vertex 4.73484 -3.68528 120
    endloop
  endfacet
  facet normal 0 0 1
    outer loop
      vertex 6.69131 -7.43145 120
      vertex 3.28169 -5.023 120
      vertex 5 -8.66025 120
    endloop
  endfacet
  facet normal 0 0 1
    outer loop
      vertex 3.28169 -5.023 120
      vertex 3.09017 -9.51056 120
      vertex 5 -8.66025 120
    endloop
  endfacet
  facet normal -0 0 1
    outer loop
      vertex 1.47291 -5.8164 120
      vertex 3.09017 -9.51056 120
      vertex 3.28169 -5.023 120
    endloop
  endfacet
  facet normal 0 0 1
    outer loop
      vertex 1.47291 -5.8164 120
      vertex 1.04528 -9.94522 120
      vertex 3.09017 -9.51056 120
    endloop
  endfacet
  facet normal -0 0 1
    outer loop
      vertex -0.495476 -5.97951 120
      vertex 1.04528 -9.94522 120
      vertex 1.47291 -5.8164 120
    endloop
  endfacet
  facet normal 0 0 1
    outer loop
      vertex 1.04528 -9.94522 120
      vertex -0.495476 -5.97951 120
      vertex 0 -9.94522 120
    endloop
  endfacet
  facet normal 0 0 1
    outer loop
      vertex -2.41017 -5.49464 120
      vertex 0 -9.94522 120
      vertex -0.495476 -5.97951 120
    endloop
  endfacet
  facet normal 0 0 1
    outer loop
      vertex -10 -10 120
      vertex 0 -9.94522 120
      vertex -2.41017 -5.49464 120
    endloop
  endfacet
  facet normal 0 0 1
    outer loop
      vertex -10 -10 120
      vertex -2.41017 -5.49464 120
      vertex -4.06369 -4.41434 120
    endloop
  endfacet
  facet normal 0 0 1
    outer loop
      vertex -10 -10 120
      vertex -4.06369 -4.41434 120
      vertex -5.27684 -2.85568 120
    endloop
  endfacet
  facet normal 0 0 1
    outer loop
      vertex -10 -10 120
      vertex -5.91817 -0.987567 120
      vertex -10 10 120
    endloop
  endfacet
  facet normal 0 0 1
    outer loop
      vertex 0 -9.94522 120
      vertex -10 -10 120
      vertex 0 -10 120
    endloop
  endfacet
  facet normal 0 0 1
    outer loop
      vertex -5.91817 -0.987567 120
      vertex -10 -10 120
      vertex -5.27684 -2.85568 120
    endloop
  endfacet
  facet normal 0.994522 -0.104529 0
    outer loop
      vertex 9.78148 -2.07912 120
      vertex 10 0 92
      vertex 10 0 120
    endloop
  endfacet
  facet normal 0.994522 -0.104529 0
    outer loop
      vertex 10 0 92
      vertex 9.78148 -2.07912 120
      vertex 9.78148 -2.07912 92
    endloop
  endfacet
  facet normal 0.994522 -0.104529 0
    outer loop
      vertex 9.78148 -2.07912 40
      vertex 10 0 0
      vertex 10 0 40
    endloop
  endfacet
  facet normal 0.994522 -0.104529 0
    outer loop
      vertex 10 0 0
      vertex 9.78148 -2.07912 40
      vertex 9.78148 -2.07912 0
    endloop
  endfacet
  facet normal 0.994522 -0.104529 0
    outer loop
      vertex 9.78148 -2.07912 80
      vertex 10 0 52
      vertex 10 0 80
    endloop
  endfacet
  facet normal 0.994522 -0.104529 0
    outer loop
      vertex 10 0 52
      vertex 9.78148 -2.07912 80
      vertex 9.78148 -2.07912 52
    endloop
  endfacet
  facet normal 0 0 -1
    outer loop
      vertex -10 -10 0
      vertex 0 -9.94522 0
      vertex 0 -10 0
    endloop
  endfacet
  facet normal 0 0 -1
    outer loop
      vertex 0 -9.94522 0
      vertex -2.41017 -5.49464 0
      vertex -0.495476 -5.97951 0
    endloop
  endfacet
  facet normal -0 0 -1
    outer loop
      vertex 0 -9.94522 0
      vertex -10 -10 0
      vertex -2.41017 -5.49464 0
    endloop
  endfacet
  facet normal -0 0 -1
    outer loop
      vertex -2.41017 -5.49464 0
      vertex -10 -10 0
      vertex -4.06369 -4.41434 0
    endloop
  endfacet
  facet normal -0 0 -1
    outer loop
      vertex -5.91817 -0.987567 0
      vertex -10 -10 0
      vertex -5.91817 0.987567 0
    endloop
  endfacet
  facet normal -0 0 -1
    outer loop
      vertex -5.27684 -2.85568 0
      vertex -10 -10 0
      vertex -5.91817 -0.987567 0
    endloop
  endfacet
  facet normal -0 0 -1
    outer loop
      vertex -4.06369 -4.41434 0
      vertex -10 -10 0
      vertex -5.27684 -2.85568 0
    endloop
  endfacet
  facet normal 0 0 -1
    outer loop
      vertex 6 0 0
      vertex 10 0 0
      vertex 9.78148 -2.07912 0
    endloop
  endfacet
  facet normal 0 0 -1
    outer loop
      vertex 5.6749 -1.9482 0
      vertex 9.78148 -2.07912 0
      vertex 9.13545 -4.06737 0
    endloop
  endfacet
  facet normal 0 0 -1
    outer loop
      vertex 10 0 0
      vertex 6 0 0
      vertex 9.78148 2.07912 0
    endloop
  endfacet
  facet normal 0 0 -1
    outer loop
      vertex 4.73484 -3.68528 0
      vertex 9.13545 -4.06737 0
      vertex 8.09017 -5.87785 0
    endloop
  endfacet
  facet normal 0 0 -1
    outer loop
      vertex 5.6749 1.9482 0
      vertex 9.78148 2.07912 0
      vertex 6 0 0
    endloop
  endfacet
  facet normal 0 0 -1
    outer loop
      vertex 4.73484 -3.68528 0
      vertex 8.09017 -5.87785 0
      vertex 6.69131 -7.43145 0
    endloop
  endfacet
  facet normal -0 0 -1
    outer loop
      vertex 9.78148 2.07912 0
      vertex 5.6749 1.9482 0
      vertex 9.13545 4.06737 0
    endloop
  endfacet
  facet normal 0 0 -1
    outer loop
      vertex 4.73484 3.68528 0
      vertex 9.13545 4.06737 0
      vertex 5.6749 1.9482 0
    endloop
  endfacet
  facet normal 0 0 -1
    outer loop
      vertex 9.78148 -2.07912 0
      vertex 5.6749 -1.9482 0
      vertex 6 0 0
    endloop
  endfacet
  facet normal 0 0 -1
    outer loop
      vertex 3.28169 -5.023 0
      vertex 6.69131 -7.43145 0
      vertex 5 -8.66025 0
    endloop
  endfacet
  facet normal 0 0 -1
    outer loop
      vertex 9.13545 -4.06737 0
      vertex 4.73484 -3.68528 0
      vertex 5.6749 -1.9482 0
    endloop
  endfacet
  facet normal 0 0 -1
    outer loop
      vertex 6.69131 -7.43145 0
      vertex 3.28169 -5.023 0
      vertex 4.73484 -3.68528 0
    endloop
  endfacet
  facet normal 0 0 -1
    outer loop
      vertex 3.09017 -9.51056 0
      vertex 3.28169 -5.023 0
      vertex 5 -8.66025 0
    endloop
  endfacet
  facet normal 0 0 -1
    outer loop
      vertex 3.09017 -9.51056 0
      vertex 1.47291 -5.8164 0
      vertex 3.28169 -5.023 0
    endloop
  endfacet
  facet normal 0 0 -1
    outer loop
      vertex 1.04528 -9.94522 0
      vertex 1.47291 -5.8164 0
      vertex 3.09017 -9.51056 0
    endloop
  endfacet
  facet normal 0 0 -1
    outer loop
      vertex -0.495476 -5.97951 0
      vertex 1.04528 -9.94522 0
      vertex 0 -9.94522 0
    endloop
  endfacet
  facet normal 0 0 -1
    outer loop
      vertex 1.04528 -9.94522 0
      vertex -0.495476 -5.97951 0
      vertex 1.47291 -5.8164 0
    endloop
  endfacet
  facet normal -0 0 -1
    outer loop
      vertex 9.13545 4.06737 0
      vertex 4.73484 3.68528 0
      vertex 8.09017 5.87785 0
    endloop
  endfacet
  facet normal -0 0 -1
    outer loop
      vertex 8.09017 5.87785 0
      vertex 4.73484 3.68528 0
      vertex 6.69131 7.43145 0
    endloop
  endfacet
  facet normal 0 0 -1
    outer loop
      vertex 3.28169 5.023 0
      vertex 6.69131 7.43145 0
      vertex 4.73484 3.68528 0
    endloop
  endfacet
  facet normal -0 0 -1
    outer loop
      vertex 6.69131 7.43145 0
      vertex 3.28169 5.023 0
      vertex 5 8.66025 0
    endloop
  endfacet
  facet normal 0 0 -1
    outer loop
      vertex 3.28169 5.023 0
      vertex 3.09017 9.51056 0
      vertex 5 8.66025 0
    endloop
  endfacet
  facet normal 0 0 -1
    outer loop
      vertex 1.47291 5.8164 0
      vertex 3.09017 9.51056 0
      vertex 3.28169 5.023 0
    endloop
  endfacet
  facet normal 0 0 -1
    outer loop
      vertex 1.47291 5.8164 0
      vertex 1.04528 9.94522 0
      vertex 3.09017 9.51056 0
    endloop
  endfacet
  facet normal 0 0 -1
    outer loop
      vertex -0.495476 5.97951 0
      vertex 1.04528 9.94522 0
      vertex 1.47291 5.8164 0
    endloop
  endfacet
  facet normal -0 0 -1
    outer loop
      vertex 1.04528 9.94522 0
      vertex -0.495476 5.97951 0
      vertex 0 9.94522 0
    endloop
  endfacet
  facet normal 0 0 -1
    outer loop
      vertex -2.41017 5.49464 0
      vertex 0 9.94522 0
      vertex -0.495476 5.97951 0
    endloop
  endfacet
  facet normal 0 0 -1
    outer loop
      vertex -10 10 0
      vertex 0 9.94522 0
      vertex -2.41017 5.49464 0
    endloop
  endfacet
  facet normal 0 0 -1
    outer loop
      vertex -10 10 0
      vertex -2.41017 5.49464 0
      vertex -4.06369 4.41434 0
    endloop
  endfacet
  facet normal 0 0 -1
    outer loop
      vertex -10 10 0
      vertex -4.06369 4.41434 0
      vertex -5.27684 2.85568 0
    endloop
  endfacet
  facet normal 0 0 -1
    outer loop
      vertex -10 10 0
      vertex -5.91817 0.987567 0
      vertex -10 -10 0
    endloop
  endfacet
  facet normal 0 0 -1
    outer loop
      vertex 0 9.94522 0
      vertex -10 10 0
      vertex 0 10 0
    endloop
  endfacet
  facet normal 0 0 -1
    outer loop
      vertex -5.91817 0.987567 0
      vertex -10 10 0
      vertex -5.27684 2.85568 0
    endloop
  endfacet
  facet normal 0.207911 -0.978148 0
    outer loop
      vertex 1.04528 -9.94522 0
      vertex 3.09017 -9.51056 40
      vertex 1.04528 -9.94522 40
    endloop
  endfacet
  facet normal 0.207911 -0.978148 0
    outer loop
      vertex 3.09017 -9.51056 40
      vertex 1.04528 -9.94522 0
      vertex 3.09017 -9.51056 0
    endloop
  endfacet
  facet normal 0.207911 -0.978148 0
    outer loop
      vertex 1.04528 -9.94522 92
      vertex 3.09017 -9.51056 120
      vertex 1.04528 -9.94522 120
    endloop
  endfacet
  facet normal 0.207911 -0.978148 0
    outer loop
      vertex 3.09017 -9.51056 120
      vertex 1.04528 -9.94522 92
      vertex 3.09017 -9.51056 92
    endloop
  endfacet
  facet normal 0.743145 -0.669131 0
    outer loop
      vertex 6.69131 -7.43145 40
      vertex 8.09017 -5.87785 0
      vertex 8.09017 -5.87785 40
    endloop
  endfacet
  facet normal 0.743145 -0.669131 0
    outer loop
      vertex 8.09017 -5.87785 0
      vertex 6.69131 -7.43145 40
      vertex 6.69131 -7.43145 0
    endloop
  endfacet
  facet normal 0.743145 -0.669131 0
    outer loop
      vertex 6.69131 -7.43145 120
      vertex 8.09017 -5.87785 92
      vertex 8.09017 -5.87785 120
    endloop
  endfacet
  facet normal 0.743145 -0.669131 0
    outer loop
      vertex 8.09017 -5.87785 92
      vertex 6.69131 -7.43145 120
      vertex 6.69131 -7.43145 92
    endloop
  endfacet
  facet normal 0.743145 -0.669131 0
    outer loop
      vertex 6.69131 -7.43145 80
      vertex 8.09017 -5.87785 52
      vertex 8.09017 -5.87785 80
    endloop
  endfacet
  facet normal 0.743145 -0.669131 0
    outer loop
      vertex 8.09017 -5.87785 52
      vertex 6.69131 -7.43145 80
      vertex 6.69131 -7.43145 52
    endloop
  endfacet
  facet normal 0.951057 -0.309017 0
    outer loop
      vertex 9.13545 -4.06737 120
      vertex 9.78148 -2.07912 92
      vertex 9.78148 -2.07912 120
    endloop
  endfacet
  facet normal 0.951057 -0.309017 0
    outer loop
      vertex 9.78148 -2.07912 92
      vertex 9.13545 -4.06737 120
      vertex 9.13545 -4.06737 92
    endloop
  endfacet
  facet normal 0.951057 -0.309017 0
    outer loop
      vertex 9.13545 -4.06737 40
      vertex 9.78148 -2.07912 0
      vertex 9.78148 -2.07912 40
    endloop
  endfacet
  facet normal 0.951057 -0.309017 0
    outer loop
      vertex 9.78148 -2.07912 0
      vertex 9.13545 -4.06737 40
      vertex 9.13545 -4.06737 0
    endloop
  endfacet
  facet normal 0.951057 -0.309017 0
    outer loop
      vertex 9.13545 -4.06737 80
      vertex 9.78148 -2.07912 52
      vertex 9.78148 -2.07912 80
    endloop
  endfacet
  facet normal 0.951057 -0.309017 0
    outer loop
      vertex 9.78148 -2.07912 52
      vertex 9.13545 -4.06737 80
      vertex 9.13545 -4.06737 52
    endloop
  endfacet
  facet normal 0.866026 -0.5 0
    outer loop
      vertex 8.09017 -5.87785 40
      vertex 9.13545 -4.06737 0
      vertex 9.13545 -4.06737 40
    endloop
  endfacet
  facet normal 0.866026 -0.5 0
    outer loop
      vertex 9.13545 -4.06737 0
      vertex 8.09017 -5.87785 40
      vertex 8.09017 -5.87785 0
    endloop
  endfacet
  facet normal 0.866026 -0.5 0
    outer loop
      vertex 8.09017 -5.87785 120
      vertex 9.13545 -4.06737 92
      vertex 9.13545 -4.06737 120
    endloop
  endfacet
  facet normal 0.866026 -0.5 0
    outer loop
      vertex 9.13545 -4.06737 92
      vertex 8.09017 -5.87785 120
      vertex 8.09017 -5.87785 92
    endloop
  endfacet
  facet normal 0.866026 -0.5 0
    outer loop
      vertex 8.09017 -5.87785 80
      vertex 9.13545 -4.06737 52
      vertex 9.13545 -4.06737 80
    endloop
  endfacet
  facet normal 0.866026 -0.5 0
    outer loop
      vertex 9.13545 -4.06737 52
      vertex 8.09017 -5.87785 80
      vertex 8.09017 -5.87785 52
    endloop
  endfacet
  facet normal 0.587785 -0.809017 0
    outer loop
      vertex 5 -8.66025 92
      vertex 6.69131 -7.43145 120
      vertex 5 -8.66025 120
    endloop
  endfacet
  facet normal 0.587785 -0.809017 0
    outer loop
      vertex 6.69131 -7.43145 120
      vertex 5 -8.66025 92
      vertex 6.69131 -7.43145 92
    endloop
  endfacet
  facet normal 0.587785 -0.809017 0
    outer loop
      vertex 5 -8.66025 0
      vertex 6.69131 -7.43145 40
      vertex 5 -8.66025 40
    endloop
  endfacet
  facet normal 0.587785 -0.809017 0
    outer loop
      vertex 6.69131 -7.43145 40
      vertex 5 -8.66025 0
      vertex 6.69131 -7.43145 0
    endloop
  endfacet
  facet normal 0.587785 -0.809017 0
    outer loop
      vertex 6 -7.93371 52
      vertex 6.69131 -7.43145 80
      vertex 6 -7.93371 80
    endloop
  endfacet
  facet normal 0.587785 -0.809017 0
    outer loop
      vertex 6.69131 -7.43145 80
      vertex 6 -7.93371 52
      vertex 6.69131 -7.43145 52
    endloop
  endfacet
  facet normal 0.406737 -0.913545 0
    outer loop
      vertex 3.09017 -9.51056 92
      vertex 5 -8.66025 120
      vertex 3.09017 -9.51056 120
    endloop
  endfacet
  facet normal 0.406737 -0.913545 0
    outer loop
      vertex 5 -8.66025 120
      vertex 3.09017 -9.51056 92
      vertex 5 -8.66025 92
    endloop
  endfacet
  facet normal 0.406737 -0.913545 0
    outer loop
      vertex 3.09017 -9.51056 0
      vertex 5 -8.66025 40
      vertex 3.09017 -9.51056 40
    endloop
  endfacet
  facet normal 0.406737 -0.913545 0
    outer loop
      vertex 5 -8.66025 40
      vertex 3.09017 -9.51056 0
      vertex 5 -8.66025 0
    endloop
  endfacet
  facet normal -1 0 0
    outer loop
      vertex -10 -10 0
      vertex -10 10 120
      vertex -10 10 0
    endloop
  endfacet
  facet normal -1 -0 0
    outer loop
      vertex -10 10 120
      vertex -10 -10 0
      vertex -10 -10 120
    endloop
  endfacet
  facet normal 1 -0 0
    outer loop
      vertex 0 -10 120
      vertex 0 -9.94522 92
      vertex 0 -9.94522 120
    endloop
  endfacet
  facet normal 1 0 0
    outer loop
      vertex 0 -9.94522 92
      vertex 0 -10 120
      vertex 0 -10 92
    endloop
  endfacet
  facet normal 1 -0 0
    outer loop
      vertex 0 9.94522 120
      vertex 0 10 0
      vertex 0 10 120
    endloop
  endfacet
  facet normal 1 0 0
    outer loop
      vertex 0 10 0
      vertex 0 9.94522 120
      vertex 0 9.94522 0
    endloop
  endfacet
  facet normal 1 -0 0
    outer loop
      vertex 0 -10 40
      vertex 0 -9.94522 0
      vertex 0 -9.94522 40
    endloop
  endfacet
  facet normal 1 0 0
    outer loop
      vertex 0 -9.94522 0
      vertex 0 -10 40
      vertex 0 -10 0
    endloop
  endfacet
  facet normal 0 -1 0
    outer loop
      vertex -10 -10 120
      vertex -6 -10 92
      vertex 0 -10 120
    endloop
  endfacet
  facet normal 0 -1 0
    outer loop
      vertex -10 -10 120
      vertex -6 -10 40
      vertex -6 -10 92
    endloop
  endfacet
  facet normal 0 -1 0
    outer loop
      vertex -10 -10 0
      vertex -6 -10 40
      vertex -10 -10 120
    endloop
  endfacet
  facet normal 0 -1 0
    outer loop
      vertex 0 -10 0
      vertex -6 -10 40
      vertex -10 -10 0
    endloop
  endfacet
  facet normal 0 -1 0
    outer loop
      vertex -6 -10 40
      vertex 0 -10 0
      vertex 0 -10 40
    endloop
  endfacet
  facet normal 0 -1 -0
    outer loop
      vertex 0 -10 120
      vertex -6 -10 92
      vertex 0 -10 92
    endloop
  endfacet
  facet normal 0 1 -0
    outer loop
      vertex 0 10 0
      vertex -10 10 120
      vertex 0 10 120
    endloop
  endfacet
  facet normal 0 1 0
    outer loop
      vertex -10 10 120
      vertex 0 10 0
      vertex -10 10 0
    endloop
  endfacet
  facet normal -0.986361 -0.164595 0
    outer loop
      vertex 6 0 0
      vertex 5.6749 1.9482 40
      vertex 5.6749 1.9482 0
    endloop
  endfacet
  facet normal -0.986361 -0.164595 0
    outer loop
      vertex 5.6749 1.9482 40
      vertex 6 0 0
      vertex 6 0 40
    endloop
  endfacet
  facet normal -0.986361 -0.164595 0
    outer loop
      vertex 6 0 92
      vertex 5.6749 1.9482 120
      vertex 5.6749 1.9482 92
    endloop
  endfacet
  facet normal -0.986361 -0.164595 0
    outer loop
      vertex 5.6749 1.9482 120
      vertex 6 0 92
      vertex 6 0 120
    endloop
  endfacet
  facet normal -0.986361 -0.164595 0
    outer loop
      vertex 6 0 52
      vertex 5.6749 1.9482 80
      vertex 5.6749 1.9482 52
    endloop
  endfacet
  facet normal -0.986361 -0.164595 0
    outer loop
      vertex 5.6749 1.9482 80
      vertex 6 0 52
      vertex 6 0 80
    endloop
  endfacet
  facet normal 1 0 0
    outer loop
      vertex -5.91817 0 40
      vertex -5.91817 0.987567 120
      vertex -5.91817 0 92
    endloop
  endfacet
  facet normal 1 -0 0
    outer loop
      vertex -5.91817 -0.987567 120
      vertex -5.91817 0 92
      vertex -5.91817 0.987567 120
    endloop
  endfacet
  facet normal 1 0 0
    outer loop
      vertex -5.91817 0 92
      vertex -5.91817 -0.987567 120
      vertex -5.91817 -0.987567 92
    endloop
  endfacet
  facet normal 1 0 0
    outer loop
      vertex -5.91817 0.987567 120
      vertex -5.91817 0 40
      vertex -5.91817 0.987567 0
    endloop
  endfacet
  facet normal 1 0 0
    outer loop
      vertex -5.91817 -0.987567 0
      vertex -5.91817 0 40
      vertex -5.91817 -0.987567 40
    endloop
  endfacet
  facet normal 1 0 0
    outer loop
      vertex -5.91817 0 40
      vertex -5.91817 -0.987567 0
      vertex -5.91817 0.987567 0
    endloop
  endfacet
  facet normal -0.0825792 -0.996585 0
    outer loop
      vertex -0.495476 5.97951 0
      vertex 1.47291 5.8164 120
      vertex -0.495476 5.97951 120
    endloop
  endfacet
  facet normal -0.0825792 -0.996585 -0
    outer loop
      vertex 1.47291 5.8164 120
      vertex -0.495476 5.97951 0
      vertex 1.47291 5.8164 0
    endloop
  endfacet
  facet normal -0.0825792 0.996585 0
    outer loop
      vertex 1.47291 -5.8164 92
      vertex -0.495476 -5.97951 120
      vertex 1.47291 -5.8164 120
    endloop
  endfacet
  facet normal -0.0825792 0.996585 0
    outer loop
      vertex -0.495476 -5.97951 120
      vertex 1.47291 -5.8164 92
      vertex -0.495476 -5.97951 92
    endloop
  endfacet
  facet normal -0.0825792 0.996585 0
    outer loop
      vertex 1.47291 -5.8164 0
      vertex -0.495476 -5.97951 40
      vertex 1.47291 -5.8164 40
    endloop
  endfacet
  facet normal -0.0825792 0.996585 0
    outer loop
      vertex -0.495476 -5.97951 40
      vertex 1.47291 -5.8164 0
      vertex -0.495476 -5.97951 0
    endloop
  endfacet
  facet normal -0.401695 0.915773 0
    outer loop
      vertex 3.28169 -5.023 92
      vertex 1.47291 -5.8164 120
      vertex 3.28169 -5.023 120
    endloop
  endfacet
  facet normal -0.401695 0.915773 0
    outer loop
      vertex 1.47291 -5.8164 120
      vertex 3.28169 -5.023 92
      vertex 1.47291 -5.8164 92
    endloop
  endfacet
  facet normal -0.401695 0.915773 0
    outer loop
      vertex 3.28169 -5.023 0
      vertex 1.47291 -5.8164 40
      vertex 3.28169 -5.023 40
    endloop
  endfacet
  facet normal -0.401695 0.915773 0
    outer loop
      vertex 1.47291 -5.8164 40
      vertex 3.28169 -5.023 0
      vertex 1.47291 -5.8164 0
    endloop
  endfacet
  facet normal -0.677282 -0.735724 0
    outer loop
      vertex 3.28169 5.023 120
      vertex 4.73484 3.68528 85.4978
      vertex 4.73484 3.68528 120
    endloop
  endfacet
  facet normal -0.677281 -0.735725 8.3914e-008
    outer loop
      vertex 3.28169 5.023 120
      vertex 4.67533 3.74006 85.4184
      vertex 4.73484 3.68528 85.4978
    endloop
  endfacet
  facet normal -0.677282 -0.735724 -1.51278e-008
    outer loop
      vertex 3.28169 5.023 120
      vertex 4.42464 3.97083 83.5179
      vertex 4.67533 3.74006 85.4184
    endloop
  endfacet
  facet normal -0.677282 -0.735724 0
    outer loop
      vertex 3.28169 5.023 0
      vertex 4.42464 3.97083 83.5179
      vertex 3.28169 5.023 120
    endloop
  endfacet
  facet normal -0.677282 -0.735724 1.09341e-009
    outer loop
      vertex 3.28169 5.023 0
      vertex 4.73484 3.68528 82.7649
      vertex 4.42464 3.97083 83.5179
    endloop
  endfacet
  facet normal -0.677282 -0.735724 -0
    outer loop
      vertex 4.73484 3.68528 82.7649
      vertex 3.28169 5.023 0
      vertex 4.73484 3.68528 0
    endloop
  endfacet
  facet normal -0.879474 -0.475947 0
    outer loop
      vertex 5.6749 1.9482 52
      vertex 5.64687 2 80
      vertex 5.64687 2 52
    endloop
  endfacet
  facet normal -0.879474 -0.475947 0
    outer loop
      vertex 5.64687 2 80
      vertex 5.6749 1.9482 52
      vertex 5.6749 1.9482 80
    endloop
  endfacet
  facet normal -0.879474 -0.475947 0
    outer loop
      vertex 5.64687 2 40
      vertex 4.73484 3.68528 82.7649
      vertex 4.73484 3.68528 0
    endloop
  endfacet
  facet normal -0.879474 -0.475947 -0
    outer loop
      vertex 5.64687 2 52
      vertex 4.73484 3.68528 82.7649
      vertex 5.64687 2 40
    endloop
  endfacet
  facet normal -0.879474 -0.475947 3.81156e-010
    outer loop
      vertex 5.6749 1.9482 0
      vertex 5.64687 2 40
      vertex 4.73484 3.68528 0
    endloop
  endfacet
  facet normal -0.879474 -0.475947 0
    outer loop
      vertex 5.64687 2 40
      vertex 5.6749 1.9482 0
      vertex 5.6749 1.9482 40
    endloop
  endfacet
  facet normal -0.879474 -0.475947 -3.16683e-008
    outer loop
      vertex 4.73484 3.68528 82.7649
      vertex 5.64687 2 52
      vertex 4.94771 3.29193 81.7277
    endloop
  endfacet
  facet normal -0.879474 -0.475948 -0
    outer loop
      vertex 5.64687 2 80
      vertex 4.94771 3.29193 81.7277
      vertex 5.64687 2 52
    endloop
  endfacet
  facet normal -0.879474 -0.475948 0
    outer loop
      vertex 4.94771 3.29193 81.7277
      vertex 5.64687 2 80
      vertex 5.64687 2 80.5832
    endloop
  endfacet
  facet normal -0.879474 -0.475947 -2.53307e-009
    outer loop
      vertex 5.64687 2 92
      vertex 4.73484 3.68528 85.4978
      vertex 5.29376 2.65249 86.994
    endloop
  endfacet
  facet normal -0.879474 -0.475947 -0
    outer loop
      vertex 5.64687 2 92
      vertex 5.29376 2.65249 86.994
      vertex 5.64687 2 87.3365
    endloop
  endfacet
  facet normal -0.879474 -0.475947 0
    outer loop
      vertex 4.73484 3.68528 85.4978
      vertex 5.64687 2 92
      vertex 4.73484 3.68528 120
    endloop
  endfacet
  facet normal -0.879474 -0.475947 -0
    outer loop
      vertex 5.6749 1.9482 120
      vertex 5.64687 2 92
      vertex 5.6749 1.9482 92
    endloop
  endfacet
  facet normal -0.879474 -0.475947 -5.44508e-010
    outer loop
      vertex 5.64687 2 92
      vertex 5.6749 1.9482 120
      vertex 4.73484 3.68528 120
    endloop
  endfacet
  facet normal -0.401695 -0.915773 0
    outer loop
      vertex 1.47291 5.8164 0
      vertex 3.28169 5.023 120
      vertex 1.47291 5.8164 120
    endloop
  endfacet
  facet normal -0.401695 -0.915773 -0
    outer loop
      vertex 3.28169 5.023 120
      vertex 1.47291 5.8164 0
      vertex 3.28169 5.023 0
    endloop
  endfacet
  facet normal 0.78914 -0.614213 0
    outer loop
      vertex -5.27684 2.85568 120
      vertex -4.06369 4.41434 0
      vertex -4.06369 4.41434 120
    endloop
  endfacet
  facet normal 0.78914 -0.614213 0
    outer loop
      vertex -4.06369 4.41434 0
      vertex -5.27684 2.85568 120
      vertex -5.27684 2.85568 0
    endloop
  endfacet
  facet normal 0.945817 -0.324699 0
    outer loop
      vertex -5.91817 0.987567 120
      vertex -5.27684 2.85568 0
      vertex -5.27684 2.85568 120
    endloop
  endfacet
  facet normal 0.945817 -0.324699 0
    outer loop
      vertex -5.27684 2.85568 0
      vertex -5.91817 0.987567 120
      vertex -5.91817 0.987567 0
    endloop
  endfacet
  facet normal 0.245486 -0.9694 0
    outer loop
      vertex -2.41017 5.49464 0
      vertex -0.495476 5.97951 120
      vertex -2.41017 5.49464 120
    endloop
  endfacet
  facet normal 0.245486 -0.9694 0
    outer loop
      vertex -0.495476 5.97951 120
      vertex -2.41017 5.49464 0
      vertex -0.495476 5.97951 0
    endloop
  endfacet
  facet normal 0.546948 0.837166 -0
    outer loop
      vertex -2.41017 -5.49464 0
      vertex -4.06369 -4.41434 40
      vertex -2.41017 -5.49464 40
    endloop
  endfacet
  facet normal 0.546948 0.837166 0
    outer loop
      vertex -4.06369 -4.41434 40
      vertex -2.41017 -5.49464 0
      vertex -4.06369 -4.41434 0
    endloop
  endfacet
  facet normal 0.546948 0.837166 -0
    outer loop
      vertex -2.41017 -5.49464 92
      vertex -4.06369 -4.41434 120
      vertex -2.41017 -5.49464 120
    endloop
  endfacet
  facet normal 0.546948 0.837166 0
    outer loop
      vertex -4.06369 -4.41434 120
      vertex -2.41017 -5.49464 92
      vertex -4.06369 -4.41434 92
    endloop
  endfacet
  facet normal 0.945817 0.324699 0
    outer loop
      vertex -5.27684 -2.85568 40
      vertex -5.91817 -0.987567 0
      vertex -5.91817 -0.987567 40
    endloop
  endfacet
  facet normal 0.945817 0.324699 0
    outer loop
      vertex -5.91817 -0.987567 0
      vertex -5.27684 -2.85568 40
      vertex -5.27684 -2.85568 0
    endloop
  endfacet
  facet normal 0.945817 0.324699 0
    outer loop
      vertex -5.27684 -2.85568 120
      vertex -5.91817 -0.987567 92
      vertex -5.91817 -0.987567 120
    endloop
  endfacet
  facet normal 0.945817 0.324699 0
    outer loop
      vertex -5.91817 -0.987567 92
      vertex -5.27684 -2.85568 120
      vertex -5.27684 -2.85568 92
    endloop
  endfacet
  facet normal 0.546948 -0.837166 0
    outer loop
      vertex -4.06369 4.41434 0
      vertex -2.41017 5.49464 120
      vertex -4.06369 4.41434 120
    endloop
  endfacet
  facet normal 0.546948 -0.837166 0
    outer loop
      vertex -2.41017 5.49464 120
      vertex -4.06369 4.41434 0
      vertex -2.41017 5.49464 0
    endloop
  endfacet
  facet normal -0.986361 0.164595 0
    outer loop
      vertex 5.6749 -1.9482 92
      vertex 6 0 120
      vertex 6 0 92
    endloop
  endfacet
  facet normal -0.986361 0.164595 0
    outer loop
      vertex 6 0 120
      vertex 5.6749 -1.9482 92
      vertex 5.6749 -1.9482 120
    endloop
  endfacet
  facet normal -0.986361 0.164595 0
    outer loop
      vertex 5.6749 -1.9482 0
      vertex 6 0 40
      vertex 6 0 0
    endloop
  endfacet
  facet normal -0.986361 0.164595 0
    outer loop
      vertex 6 0 40
      vertex 5.6749 -1.9482 0
      vertex 5.6749 -1.9482 40
    endloop
  endfacet
  facet normal 0.245486 0.9694 -0
    outer loop
      vertex -0.495476 -5.97951 0
      vertex -2.41017 -5.49464 40
      vertex -0.495476 -5.97951 40
    endloop
  endfacet
  facet normal 0.245486 0.9694 0
    outer loop
      vertex -2.41017 -5.49464 40
      vertex -0.495476 -5.97951 0
      vertex -2.41017 -5.49464 0
    endloop
  endfacet
  facet normal 0.245486 0.9694 -0
    outer loop
      vertex -0.495476 -5.97951 92
      vertex -2.41017 -5.49464 120
      vertex -0.495476 -5.97951 120
    endloop
  endfacet
  facet normal 0.245486 0.9694 0
    outer loop
      vertex -2.41017 -5.49464 120
      vertex -0.495476 -5.97951 92
      vertex -2.41017 -5.49464 92
    endloop
  endfacet
  facet normal 0.78914 0.614213 0
    outer loop
      vertex -4.06369 -4.41434 40
      vertex -5.27684 -2.85568 0
      vertex -5.27684 -2.85568 40
    endloop
  endfacet
  facet normal 0.78914 0.614213 0
    outer loop
      vertex -5.27684 -2.85568 0
      vertex -4.06369 -4.41434 40
      vertex -4.06369 -4.41434 0
    endloop
  endfacet
  facet normal 0.78914 0.614213 0
    outer loop
      vertex -4.06369 -4.41434 120
      vertex -5.27684 -2.85568 92
      vertex -5.27684 -2.85568 120
    endloop
  endfacet
  facet normal 0.78914 0.614213 0
    outer loop
      vertex -5.27684 -2.85568 92
      vertex -4.06369 -4.41434 120
      vertex -4.06369 -4.41434 92
    endloop
  endfacet
  facet normal -0.677282 0.735724 0
    outer loop
      vertex 4.73484 -3.68528 92
      vertex 3.28169 -5.023 120
      vertex 4.73484 -3.68528 120
    endloop
  endfacet
  facet normal -0.677282 0.735724 0
    outer loop
      vertex 3.28169 -5.023 120
      vertex 4.73484 -3.68528 92
      vertex 3.28169 -5.023 92
    endloop
  endfacet
  facet normal -0.677282 0.735724 0
    outer loop
      vertex 4.73484 -3.68528 0
      vertex 3.28169 -5.023 40
      vertex 4.73484 -3.68528 40
    endloop
  endfacet
  facet normal -0.677282 0.735724 0
    outer loop
      vertex 3.28169 -5.023 40
      vertex 4.73484 -3.68528 0
      vertex 3.28169 -5.023 0
    endloop
  endfacet
  facet normal -0.879474 0.475947 0
    outer loop
      vertex 4.73484 -3.68528 0
      vertex 5.6749 -1.9482 40
      vertex 5.6749 -1.9482 0
    endloop
  endfacet
  facet normal -0.879474 0.475947 0
    outer loop
      vertex 5.6749 -1.9482 40
      vertex 4.73484 -3.68528 0
      vertex 4.73484 -3.68528 40
    endloop
  endfacet
  facet normal -0.879474 0.475947 0
    outer loop
      vertex 4.73484 -3.68528 92
      vertex 5.6749 -1.9482 120
      vertex 5.6749 -1.9482 92
    endloop
  endfacet
  facet normal -0.879474 0.475947 0
    outer loop
      vertex 5.6749 -1.9482 120
      vertex 4.73484 -3.68528 92
      vertex 4.73484 -3.68528 120
    endloop
  endfacet
  facet normal 1 -0 0
    outer loop
      vertex -6 -10 92
      vertex -6 0 40
      vertex -6 0 92
    endloop
  endfacet
  facet normal 1 0 0
    outer loop
      vertex -6 0 40
      vertex -6 -10 92
      vertex -6 -10 40
    endloop
  endfacet
  facet normal 0 0 -1
    outer loop
      vertex -6 -10 92
      vertex 0 -9.94522 92
      vertex 0 -10 92
    endloop
  endfacet
  facet normal 0 0 -1
    outer loop
      vertex 0 -9.94522 92
      vertex -2.41017 -5.49464 92
      vertex -0.495476 -5.97951 92
    endloop
  endfacet
  facet normal -0 0 -1
    outer loop
      vertex 0 -9.94522 92
      vertex -6 -10 92
      vertex -2.41017 -5.49464 92
    endloop
  endfacet
  facet normal -0 0 -1
    outer loop
      vertex -2.41017 -5.49464 92
      vertex -6 -10 92
      vertex -4.06369 -4.41434 92
    endloop
  endfacet
  facet normal -0 0 -1
    outer loop
      vertex -4.06369 -4.41434 92
      vertex -6 -10 92
      vertex -5.27684 -2.85568 92
    endloop
  endfacet
  facet normal 0 0 -1
    outer loop
      vertex -6 -10 92
      vertex -5.91817 -0.987567 92
      vertex -5.27684 -2.85568 92
    endloop
  endfacet
  facet normal 0 0 -1
    outer loop
      vertex -6 0 92
      vertex -5.91817 -0.987567 92
      vertex -6 -10 92
    endloop
  endfacet
  facet normal 0 0 -1
    outer loop
      vertex -5.91817 -0.987567 92
      vertex -6 0 92
      vertex -5.91817 0 92
    endloop
  endfacet
  facet normal 0 0 -1
    outer loop
      vertex 9.78148 -2.07912 92
      vertex 5.6749 -1.9482 92
      vertex 6 0 92
    endloop
  endfacet
  facet normal 0 0 -1
    outer loop
      vertex 3.28169 -5.023 92
      vertex 6.69131 -7.43145 92
      vertex 5 -8.66025 92
    endloop
  endfacet
  facet normal 0 0 -1
    outer loop
      vertex 8.09017 -5.87785 92
      vertex 4.73484 -3.68528 92
      vertex 5.6749 -1.9482 92
    endloop
  endfacet
  facet normal 0 0 -1
    outer loop
      vertex 6.69131 -7.43145 92
      vertex 3.28169 -5.023 92
      vertex 4.73484 -3.68528 92
    endloop
  endfacet
  facet normal 0 0 -1
    outer loop
      vertex 3.09017 -9.51056 92
      vertex 3.28169 -5.023 92
      vertex 5 -8.66025 92
    endloop
  endfacet
  facet normal 0 0 -1
    outer loop
      vertex 3.09017 -9.51056 92
      vertex 1.47291 -5.8164 92
      vertex 3.28169 -5.023 92
    endloop
  endfacet
  facet normal 0 0 -1
    outer loop
      vertex 1.04528 -9.94522 92
      vertex 1.47291 -5.8164 92
      vertex 3.09017 -9.51056 92
    endloop
  endfacet
  facet normal 0 0 -1
    outer loop
      vertex -0.495476 -5.97951 92
      vertex 1.04528 -9.94522 92
      vertex 0 -9.94522 92
    endloop
  endfacet
  facet normal 0 0 -1
    outer loop
      vertex 1.04528 -9.94522 92
      vertex -0.495476 -5.97951 92
      vertex 1.47291 -5.8164 92
    endloop
  endfacet
  facet normal 0 0 -1
    outer loop
      vertex 6 0 92
      vertex 10 0 92
      vertex 9.78148 -2.07912 92
    endloop
  endfacet
  facet normal 0 0 -1
    outer loop
      vertex 5.6749 -1.9482 92
      vertex 9.78148 -2.07912 92
      vertex 9.13545 -4.06737 92
    endloop
  endfacet
  facet normal 0 0 -1
    outer loop
      vertex 5.6749 -1.9482 92
      vertex 9.13545 -4.06737 92
      vertex 8.09017 -5.87785 92
    endloop
  endfacet
  facet normal 0 0 -1
    outer loop
      vertex 4.73484 -3.68528 92
      vertex 8.09017 -5.87785 92
      vertex 6.69131 -7.43145 92
    endloop
  endfacet
  facet normal 0 0 -1
    outer loop
      vertex 10 0 92
      vertex 6 0 92
      vertex 9.78979 2 92
    endloop
  endfacet
  facet normal 0 0 -1
    outer loop
      vertex 5.6749 1.9482 92
      vertex 9.78979 2 92
      vertex 6 0 92
    endloop
  endfacet
  facet normal -0 0 -1
    outer loop
      vertex 9.78979 2 92
      vertex 5.6749 1.9482 92
      vertex 5.64687 2 92
    endloop
  endfacet
  facet normal -1 0 0
    outer loop
      vertex 6 -7.93371 52
      vertex 6 0 80
      vertex 6 0 52
    endloop
  endfacet
  facet normal -1 -0 0
    outer loop
      vertex 6 0 80
      vertex 6 -7.93371 52
      vertex 6 -7.93371 80
    endloop
  endfacet
  facet normal 0 0 1
    outer loop
      vertex -5.91817 0 40
      vertex -6 0 40
      vertex -5.91817 -0.987567 40
    endloop
  endfacet
  facet normal 0 0 1
    outer loop
      vertex 6 0 40
      vertex 10 0 40
      vertex 9.78979 2 40
    endloop
  endfacet
  facet normal 0 0 1
    outer loop
      vertex 10 0 40
      vertex 6 0 40
      vertex 9.78148 -2.07912 40
    endloop
  endfacet
  facet normal -0 0 1
    outer loop
      vertex 5.6749 -1.9482 40
      vertex 9.78148 -2.07912 40
      vertex 6 0 40
    endloop
  endfacet
  facet normal -0 0 1
    outer loop
      vertex 4.73484 -3.68528 40
      vertex 9.13545 -4.06737 40
      vertex 5.6749 -1.9482 40
    endloop
  endfacet
  facet normal 0 0 1
    outer loop
      vertex 9.78148 -2.07912 40
      vertex 5.6749 -1.9482 40
      vertex 9.13545 -4.06737 40
    endloop
  endfacet
  facet normal 0 0 1
    outer loop
      vertex 9.78979 2 40
      vertex 5.6749 1.9482 40
      vertex 6 0 40
    endloop
  endfacet
  facet normal 0 -0 1
    outer loop
      vertex 5.6749 1.9482 40
      vertex 9.78979 2 40
      vertex 5.64687 2 40
    endloop
  endfacet
  facet normal 0 0 1
    outer loop
      vertex 9.13545 -4.06737 40
      vertex 4.73484 -3.68528 40
      vertex 8.09017 -5.87785 40
    endloop
  endfacet
  facet normal 0 0 1
    outer loop
      vertex 8.09017 -5.87785 40
      vertex 4.73484 -3.68528 40
      vertex 6.69131 -7.43145 40
    endloop
  endfacet
  facet normal -0 0 1
    outer loop
      vertex 3.28169 -5.023 40
      vertex 6.69131 -7.43145 40
      vertex 4.73484 -3.68528 40
    endloop
  endfacet
  facet normal 0 0 1
    outer loop
      vertex 6.69131 -7.43145 40
      vertex 3.28169 -5.023 40
      vertex 5 -8.66025 40
    endloop
  endfacet
  facet normal 0 0 1
    outer loop
      vertex 3.28169 -5.023 40
      vertex 3.09017 -9.51056 40
      vertex 5 -8.66025 40
    endloop
  endfacet
  facet normal -0 0 1
    outer loop
      vertex 1.47291 -5.8164 40
      vertex 3.09017 -9.51056 40
      vertex 3.28169 -5.023 40
    endloop
  endfacet
  facet normal 0 0 1
    outer loop
      vertex 1.47291 -5.8164 40
      vertex 1.04528 -9.94522 40
      vertex 3.09017 -9.51056 40
    endloop
  endfacet
  facet normal -0 0 1
    outer loop
      vertex -0.495476 -5.97951 40
      vertex 1.04528 -9.94522 40
      vertex 1.47291 -5.8164 40
    endloop
  endfacet
  facet normal 0 0 1
    outer loop
      vertex 1.04528 -9.94522 40
      vertex -0.495476 -5.97951 40
      vertex 0 -9.94522 40
    endloop
  endfacet
  facet normal 0 0 1
    outer loop
      vertex -2.41017 -5.49464 40
      vertex 0 -9.94522 40
      vertex -0.495476 -5.97951 40
    endloop
  endfacet
  facet normal 0 0 1
    outer loop
      vertex -6 -10 40
      vertex 0 -9.94522 40
      vertex -2.41017 -5.49464 40
    endloop
  endfacet
  facet normal 0 0 1
    outer loop
      vertex -6 -10 40
      vertex -2.41017 -5.49464 40
      vertex -4.06369 -4.41434 40
    endloop
  endfacet
  facet normal 0 0 1
    outer loop
      vertex -6 -10 40
      vertex -4.06369 -4.41434 40
      vertex -5.27684 -2.85568 40
    endloop
  endfacet
  facet normal 0 0 1
    outer loop
      vertex 0 -9.94522 40
      vertex -6 -10 40
      vertex 0 -10 40
    endloop
  endfacet
  facet normal 0 0 1
    outer loop
      vertex -5.91817 -0.987567 40
      vertex -6 -10 40
      vertex -5.27684 -2.85568 40
    endloop
  endfacet
  facet normal 0 0 1
    outer loop
      vertex -6 -10 40
      vertex -5.91817 -0.987567 40
      vertex -6 0 40
    endloop
  endfacet
  facet normal 0 -1 0
    outer loop
      vertex -6 0 40
      vertex -5.91817 0 92
      vertex -6 0 92
    endloop
  endfacet
  facet normal 0 -1 -0
    outer loop
      vertex -5.91817 0 92
      vertex -6 0 40
      vertex -5.91817 0 40
    endloop
  endfacet
  facet normal 0 0 -1
    outer loop
      vertex 6 0 52
      vertex 10 0 52
      vertex 9.78148 -2.07912 52
    endloop
  endfacet
  facet normal 0 0 -1
    outer loop
      vertex 6 0 52
      vertex 9.78148 -2.07912 52
      vertex 9.13545 -4.06737 52
    endloop
  endfacet
  facet normal 0 0 -1
    outer loop
      vertex 6 0 52
      vertex 9.13545 -4.06737 52
      vertex 8.09017 -5.87785 52
    endloop
  endfacet
  facet normal 0 0 -1
    outer loop
      vertex 6 0 52
      vertex 8.09017 -5.87785 52
      vertex 6.69131 -7.43145 52
    endloop
  endfacet
  facet normal 0 0 -1
    outer loop
      vertex 6 0 52
      vertex 6.69131 -7.43145 52
      vertex 6 -7.93371 52
    endloop
  endfacet
  facet normal 0 0 -1
    outer loop
      vertex 10 0 52
      vertex 6 0 52
      vertex 9.78979 2 52
    endloop
  endfacet
  facet normal 0 0 -1
    outer loop
      vertex 5.6749 1.9482 52
      vertex 9.78979 2 52
      vertex 6 0 52
    endloop
  endfacet
  facet normal -0 0 -1
    outer loop
      vertex 9.78979 2 52
      vertex 5.6749 1.9482 52
      vertex 5.64687 2 52
    endloop
  endfacet
  facet normal 0 -1 0
    outer loop
      vertex 5.64687 2 40
      vertex 9.78979 2 52
      vertex 5.64687 2 52
    endloop
  endfacet
  facet normal 0 -1 -0
    outer loop
      vertex 9.78979 2 52
      vertex 5.64687 2 40
      vertex 9.78979 2 40
    endloop
  endfacet
  facet normal 0 -1 0
    outer loop
      vertex 5.64687 2 87.3365
      vertex 9.78979 2 92
      vertex 5.64687 2 92
    endloop
  endfacet
  facet normal 0 -1 -0
    outer loop
      vertex 9.78979 2 92
      vertex 5.64687 2 87.3365
      vertex 9.78979 2 87.3365
    endloop
  endfacet
  facet normal 0 -1 0
    outer loop
      vertex 5.64687 2 80
      vertex 9.78979 2 80.5832
      vertex 5.64687 2 80.5832
    endloop
  endfacet
  facet normal 0 -1 -0
    outer loop
      vertex 9.78979 2 80.5832
      vertex 5.64687 2 80
      vertex 9.78979 2 80
    endloop
  endfacet
  facet normal -0 0 1
    outer loop
      vertex 6 0 80
      vertex 9.78148 -2.07912 80
      vertex 10 0 80
    endloop
  endfacet
  facet normal 0 0 1
    outer loop
      vertex 9.78148 -2.07912 80
      vertex 6 0 80
      vertex 9.13545 -4.06737 80
    endloop
  endfacet
  facet normal 0 0 1
    outer loop
      vertex 9.13545 -4.06737 80
      vertex 6 0 80
      vertex 8.09017 -5.87785 80
    endloop
  endfacet
  facet normal 0 0 1
    outer loop
      vertex 8.09017 -5.87785 80
      vertex 6 0 80
      vertex 6.69131 -7.43145 80
    endloop
  endfacet
  facet normal 0 0 1
    outer loop
      vertex 6.69131 -7.43145 80
      vertex 6 0 80
      vertex 6 -7.93371 80
    endloop
  endfacet
  facet normal 0 0 1
    outer loop
      vertex 9.78979 2 80
      vertex 6 0 80
      vertex 10 0 80
    endloop
  endfacet
  facet normal 0 0 1
    outer loop
      vertex 9.78979 2 80
      vertex 5.6749 1.9482 80
      vertex 6 0 80
    endloop
  endfacet
  facet normal 0 -0 1
    outer loop
      vertex 5.6749 1.9482 80
      vertex 9.78979 2 80
      vertex 5.64687 2 80
    endloop
  endfacet
  facet normal 0.970942 0.239316 0
    outer loop
      vertex 4 0 80
      vertex 3.54182 1.85889 0
      vertex 3.54182 1.85889 80.4582
    endloop
  endfacet
  facet normal 0.970942 0.239316 0
    outer loop
      vertex 3.54182 1.85889 0
      vertex 4 0 80
      vertex 4 0 0
    endloop
  endfacet
  facet normal 0.970942 0.239316 0
    outer loop
      vertex 3.54182 1.85889 160
      vertex 3.76406 0.957262 87.8838
      vertex 3.54182 1.85889 87.4106
    endloop
  endfacet
  facet normal 0.970942 0.239316 4.11053e-010
    outer loop
      vertex 4 0 160
      vertex 3.76406 0.957262 87.8838
      vertex 3.54182 1.85889 160
    endloop
  endfacet
  facet normal 0.970942 0.239316 0
    outer loop
      vertex 3.76406 0.957262 87.8838
      vertex 4 0 160
      vertex 4 0 87.8838
    endloop
  endfacet
  facet normal -1 0 0
    outer loop
      vertex -3.88377 -0.957262 0
      vertex -3.88377 0.957262 160
      vertex -3.88377 0.957262 0
    endloop
  endfacet
  facet normal -1 -0 0
    outer loop
      vertex -3.88377 0.957262 160
      vertex -3.88377 -0.957262 0
      vertex -3.88377 -0.957262 160
    endloop
  endfacet
  facet normal -0.120537 0.992709 1.54149e-009
    outer loop
      vertex 0.482146 3.97083 160
      vertex 0 3.91229 84
      vertex -1.41842 3.74006 160
    endloop
  endfacet
  facet normal -0.120536 0.992709 0
    outer loop
      vertex 0 3.91229 84
      vertex 0.482146 3.97083 160
      vertex 0.482146 3.97083 83.5179
    endloop
  endfacet
  facet normal -0.120537 0.992709 0
    outer loop
      vertex 0 3.91229 83.3635
      vertex -1.41842 3.74006 160
      vertex 0 3.91229 84
    endloop
  endfacet
  facet normal -0.120537 0.992709 -1.40533e-009
    outer loop
      vertex -1.41842 3.74006 0
      vertex 0 3.91229 83.3635
      vertex 0.482146 3.97083 0
    endloop
  endfacet
  facet normal -0.120537 0.992709 0
    outer loop
      vertex 0 3.91229 83.3635
      vertex -1.41842 3.74006 0
      vertex -1.41842 3.74006 160
    endloop
  endfacet
  facet normal -0.120536 0.992709 0
    outer loop
      vertex 0.482146 3.97083 83.5179
      vertex 0.482146 3.97083 0
      vertex 0 3.91229 83.3635
    endloop
  endfacet
  facet normal 0.748511 0.663123 0
    outer loop
      vertex 3.54182 1.85889 80.4582
      vertex 2.27226 3.29193 0
      vertex 2.27226 3.29193 81.7277
    endloop
  endfacet
  facet normal 0.748511 0.663123 0
    outer loop
      vertex 2.27226 3.29193 0
      vertex 3.54182 1.85889 80.4582
      vertex 3.54182 1.85889 0
    endloop
  endfacet
  facet normal 0.748511 0.663123 0
    outer loop
      vertex 2.27226 3.29193 160
      vertex 2.83876 2.65249 86.994
      vertex 2.27226 3.29193 86.0676
    endloop
  endfacet
  facet normal 0.748511 0.663123 -0
    outer loop
      vertex 3.54182 1.85889 87.4106
      vertex 2.27226 3.29193 160
      vertex 3.54182 1.85889 160
    endloop
  endfacet
  facet normal 0.748511 0.663123 -1.88056e-009
    outer loop
      vertex 2.27226 3.29193 160
      vertex 3.54182 1.85889 87.4106
      vertex 2.83876 2.65249 86.994
    endloop
  endfacet
  facet normal -0.568065 0.822984 0
    outer loop
      vertex -1.41842 3.74006 0
      vertex -2.99404 2.65249 160
      vertex -1.41842 3.74006 160
    endloop
  endfacet
  facet normal -0.568065 0.822984 0
    outer loop
      vertex -2.99404 2.65249 160
      vertex -1.41842 3.74006 0
      vertex -2.99404 2.65249 0
    endloop
  endfacet
  facet normal 0.970942 -0.239316 0
    outer loop
      vertex 4 0 160
      vertex 3.76406 -0.957262 87.8838
      vertex 4 0 87.8838
    endloop
  endfacet
  facet normal 0.970942 -0.239316 4.11053e-010
    outer loop
      vertex 3.54182 -1.85889 160
      vertex 3.76406 -0.957262 87.8838
      vertex 4 0 160
    endloop
  endfacet
  facet normal 0.970942 -0.239316 0
    outer loop
      vertex 3.76406 -0.957262 87.8838
      vertex 3.54182 -1.85889 160
      vertex 3.54182 -1.85889 87.4106
    endloop
  endfacet
  facet normal 0.970942 -0.239316 0
    outer loop
      vertex 3.54182 -1.85889 0
      vertex 4 0 80
      vertex 3.54182 -1.85889 80.4582
    endloop
  endfacet
  facet normal 0.970942 -0.239316 0
    outer loop
      vertex 4 0 80
      vertex 3.54182 -1.85889 0
      vertex 4 0 0
    endloop
  endfacet
  facet normal 0.354605 0.935016 0
    outer loop
      vertex 0.482146 3.97083 0
      vertex 2.27226 3.29193 81.7277
      vertex 2.27226 3.29193 0
    endloop
  endfacet
  facet normal 0.354605 0.935016 0
    outer loop
      vertex 2.27226 3.29193 81.7277
      vertex 0.482146 3.97083 0
      vertex 0.482146 3.97083 83.5179
    endloop
  endfacet
  facet normal 0.354605 0.935016 -0
    outer loop
      vertex 2.27226 3.29193 86.0676
      vertex 0.482146 3.97083 160
      vertex 2.27226 3.29193 160
    endloop
  endfacet
  facet normal 0.354605 0.935016 -2.07629e-010
    outer loop
      vertex 1.09064 3.74006 85.4184
      vertex 0.482146 3.97083 160
      vertex 2.27226 3.29193 86.0676
    endloop
  endfacet
  facet normal 0.354605 0.935016 0
    outer loop
      vertex 0.482146 3.97083 160
      vertex 1.09064 3.74006 85.4184
      vertex 0.482146 3.97083 83.5179
    endloop
  endfacet
  facet normal -0.885456 0.464723 0
    outer loop
      vertex -3.88377 0.957262 0
      vertex -2.99404 2.65249 160
      vertex -2.99404 2.65249 0
    endloop
  endfacet
  facet normal -0.885456 0.464723 0
    outer loop
      vertex -2.99404 2.65249 160
      vertex -3.88377 0.957262 0
      vertex -3.88377 0.957262 160
    endloop
  endfacet
  facet normal -0.885456 -0.464723 0
    outer loop
      vertex -2.99404 -2.65249 0
      vertex -3.88377 -0.957262 160
      vertex -3.88377 -0.957262 0
    endloop
  endfacet
  facet normal -0.885456 -0.464723 0
    outer loop
      vertex -3.88377 -0.957262 160
      vertex -2.99404 -2.65249 0
      vertex -2.99404 -2.65249 160
    endloop
  endfacet
  facet normal 0.748511 -0.663123 0
    outer loop
      vertex 2.27226 -3.29193 0
      vertex 3.54182 -1.85889 80.4582
      vertex 2.27226 -3.29193 81.7277
    endloop
  endfacet
  facet normal 0.748511 -0.663123 0
    outer loop
      vertex 3.54182 -1.85889 80.4582
      vertex 2.27226 -3.29193 0
      vertex 3.54182 -1.85889 0
    endloop
  endfacet
  facet normal 0.748511 -0.663123 0
    outer loop
      vertex 2.27226 -3.29193 160
      vertex 3.54182 -1.85889 87.4106
      vertex 3.54182 -1.85889 160
    endloop
  endfacet
  facet normal 0.748511 -0.663123 -1.88056e-009
    outer loop
      vertex 3.54182 -1.85889 87.4106
      vertex 2.27226 -3.29193 160
      vertex 2.83876 -2.65249 86.994
    endloop
  endfacet
  facet normal 0.748511 -0.663123 0
    outer loop
      vertex 2.83876 -2.65249 86.994
      vertex 2.27226 -3.29193 160
      vertex 2.27226 -3.29193 86.0676
    endloop
  endfacet
  facet normal 0 0 1
    outer loop
      vertex 3.54182 1.85889 160
      vertex 3.54182 -1.85889 160
      vertex 4 0 160
    endloop
  endfacet
  facet normal 0 0 1
    outer loop
      vertex 2.27226 3.29193 160
      vertex 3.54182 -1.85889 160
      vertex 3.54182 1.85889 160
    endloop
  endfacet
  facet normal 0 0 1
    outer loop
      vertex 2.27226 3.29193 160
      vertex 2.27226 -3.29193 160
      vertex 3.54182 -1.85889 160
    endloop
  endfacet
  facet normal 0 0 1
    outer loop
      vertex 0.482146 3.97083 160
      vertex 2.27226 -3.29193 160
      vertex 2.27226 3.29193 160
    endloop
  endfacet
  facet normal 0 0 1
    outer loop
      vertex 0.482146 3.97083 160
      vertex 0.482146 -3.97083 160
      vertex 2.27226 -3.29193 160
    endloop
  endfacet
  facet normal -0 0 1
    outer loop
      vertex -1.41842 3.74006 160
      vertex 0.482146 -3.97083 160
      vertex 0.482146 3.97083 160
    endloop
  endfacet
  facet normal 0 0 1
    outer loop
      vertex -1.41842 3.74006 160
      vertex -1.41842 -3.74006 160
      vertex 0.482146 -3.97083 160
    endloop
  endfacet
  facet normal -0 0 1
    outer loop
      vertex -2.99404 2.65249 160
      vertex -1.41842 -3.74006 160
      vertex -1.41842 3.74006 160
    endloop
  endfacet
  facet normal 0 0 1
    outer loop
      vertex -2.99404 2.65249 160
      vertex -2.99404 -2.65249 160
      vertex -1.41842 -3.74006 160
    endloop
  endfacet
  facet normal -0 0 1
    outer loop
      vertex -3.88377 0.957262 160
      vertex -2.99404 -2.65249 160
      vertex -2.99404 2.65249 160
    endloop
  endfacet
  facet normal 0 0 1
    outer loop
      vertex -2.99404 -2.65249 160
      vertex -3.88377 0.957262 160
      vertex -3.88377 -0.957262 160
    endloop
  endfacet
  facet normal 0 0 -1
    outer loop
      vertex 3.54182 -1.85889 0
      vertex 3.54182 1.85889 0
      vertex 4 0 0
    endloop
  endfacet
  facet normal 0 0 -1
    outer loop
      vertex 2.27226 -3.29193 0
      vertex 3.54182 1.85889 0
      vertex 3.54182 -1.85889 0
    endloop
  endfacet
  facet normal 0 0 -1
    outer loop
      vertex 2.27226 -3.29193 0
      vertex 2.27226 3.29193 0
      vertex 3.54182 1.85889 0
    endloop
  endfacet
  facet normal 0 0 -1
    outer loop
      vertex 0.482146 -3.97083 0
      vertex 2.27226 3.29193 0
      vertex 2.27226 -3.29193 0
    endloop
  endfacet
  facet normal 0 0 -1
    outer loop
      vertex 0.482146 -3.97083 0
      vertex 0.482146 3.97083 0
      vertex 2.27226 3.29193 0
    endloop
  endfacet
  facet normal 0 0 -1
    outer loop
      vertex -1.41842 -3.74006 0
      vertex 0.482146 3.97083 0
      vertex 0.482146 -3.97083 0
    endloop
  endfacet
  facet normal 0 0 -1
    outer loop
      vertex -1.41842 -3.74006 0
      vertex -1.41842 3.74006 0
      vertex 0.482146 3.97083 0
    endloop
  endfacet
  facet normal 0 0 -1
    outer loop
      vertex -2.99404 -2.65249 0
      vertex -1.41842 3.74006 0
      vertex -1.41842 -3.74006 0
    endloop
  endfacet
  facet normal 0 0 -1
    outer loop
      vertex -2.99404 -2.65249 0
      vertex -2.99404 2.65249 0
      vertex -1.41842 3.74006 0
    endloop
  endfacet
  facet normal 0 0 -1
    outer loop
      vertex -3.88377 -0.957262 0
      vertex -2.99404 2.65249 0
      vertex -2.99404 -2.65249 0
    endloop
  endfacet
  facet normal 0 0 -1
    outer loop
      vertex -2.99404 2.65249 0
      vertex -3.88377 -0.957262 0
      vertex -3.88377 0.957262 0
    endloop
  endfacet
  facet normal -0.568065 -0.822984 0
    outer loop
      vertex -2.99404 -2.65249 0
      vertex -1.41842 -3.74006 160
      vertex -2.99404 -2.65249 160
    endloop
  endfacet
  facet normal -0.568065 -0.822984 -0
    outer loop
      vertex -1.41842 -3.74006 160
      vertex -2.99404 -2.65249 0
      vertex -1.41842 -3.74006 0
    endloop
  endfacet
  facet normal 0.354605 -0.935016 0
    outer loop
      vertex 0.482146 -3.97083 160
      vertex 2.27226 -3.29193 86.0676
      vertex 2.27226 -3.29193 160
    endloop
  endfacet
  facet normal 0.354605 -0.935016 -2.07629e-010
    outer loop
      vertex 0.482146 -3.97083 160
      vertex 1.09064 -3.74006 85.4184
      vertex 2.27226 -3.29193 86.0676
    endloop
  endfacet
  facet normal 0.354605 -0.935016 0
    outer loop
      vertex 1.09064 -3.74006 85.4184
      vertex 0.482146 -3.97083 160
      vertex 0.482146 -3.97083 83.5179
    endloop
  endfacet
  facet normal 0.354605 -0.935016 0
    outer loop
      vertex 0.482146 -3.97083 0
      vertex 2.27226 -3.29193 81.7277
      vertex 0.482146 -3.97083 83.5179
    endloop
  endfacet
  facet normal 0.354605 -0.935016 0
    outer loop
      vertex 2.27226 -3.29193 81.7277
      vertex 0.482146 -3.97083 0
      vertex 2.27226 -3.29193 0
    endloop
  endfacet
  facet normal -0.120537 -0.992709 1.54149e-009
    outer loop
      vertex -1.41842 -3.74006 160
      vertex 0 -3.91229 84
      vertex 0.482146 -3.97083 160
    endloop
  endfacet
  facet normal -0.120537 -0.992709 0
    outer loop
      vertex -1.41842 -3.74006 160
      vertex 0 -3.91229 83.3635
      vertex 0 -3.91229 84
    endloop
  endfacet
  facet normal -0.120537 -0.992709 0
    outer loop
      vertex 0 -3.91229 83.3635
      vertex -1.41842 -3.74006 160
      vertex -1.41842 -3.74006 0
    endloop
  endfacet
  facet normal -0.120536 -0.992709 -0
    outer loop
      vertex 0.482146 -3.97083 160
      vertex 0 -3.91229 84
      vertex 0.482146 -3.97083 83.5179
    endloop
  endfacet
  facet normal -0.120537 -0.992709 -1.40533e-009
    outer loop
      vertex 0.482146 -3.97083 0
      vertex 0 -3.91229 83.3635
      vertex -1.41842 -3.74006 0
    endloop
  endfacet
  facet normal -0.120536 -0.992709 0
    outer loop
      vertex 0 -3.91229 83.3635
      vertex 0.482146 -3.97083 0
      vertex 0.482146 -3.97083 83.5179
    endloop
  endfacet
  facet normal 0 0.239316 -0.970942
    outer loop
      vertex 10 0 80
      vertex 14 1.85889 80.4582
      vertex 14 0 80
    endloop
  endfacet
  facet normal 0 0.239316 -0.970942
    outer loop
      vertex 3.54182 1.85889 80.4582
      vertex 10 0 80
      vertex 6 0 80
    endloop
  endfacet
  facet normal 0 0.239316 -0.970942
    outer loop
      vertex 3.54182 1.85889 80.4582
      vertex 6 0 80
      vertex 4 0 80
    endloop
  endfacet
  facet normal 0 0.239316 -0.970942
    outer loop
      vertex 10 0 80
      vertex 3.54182 1.85889 80.4582
      vertex 14 1.85889 80.4582
    endloop
  endfacet
  facet normal 0 0 1
    outer loop
      vertex 14 0.957262 87.8838
      vertex 4 0 87.8838
      vertex 14 -0.957262 87.8838
    endloop
  endfacet
  facet normal 0 -0 1
    outer loop
      vertex 4 0 87.8838
      vertex 14 0.957262 87.8838
      vertex 3.76406 0.957262 87.8838
    endloop
  endfacet
  facet normal 0 0 1
    outer loop
      vertex 14 -0.957262 87.8838
      vertex 4 0 87.8838
      vertex 3.76406 -0.957262 87.8838
    endloop
  endfacet
  facet normal 0 -0.464723 0.885456
    outer loop
      vertex 3.76406 -0.957262 87.8838
      vertex 14 -2.65249 86.994
      vertex 14 -0.957262 87.8838
    endloop
  endfacet
  facet normal -1.53519e-007 -0.464724 0.885456
    outer loop
      vertex 3.54182 -1.85889 87.4106
      vertex 14 -2.65249 86.994
      vertex 3.76406 -0.957262 87.8838
    endloop
  endfacet
  facet normal 0 -0.464722 0.885456
    outer loop
      vertex 14 -2.65249 86.994
      vertex 3.54182 -1.85889 87.4106
      vertex 2.83876 -2.65249 86.994
    endloop
  endfacet
  facet normal 0 0.992709 0.120536
    outer loop
      vertex 14 3.97083 83.5179
      vertex 9.2418 3.74006 85.4184
      vertex 14 3.74006 85.4184
    endloop
  endfacet
  facet normal 0 0.992709 0.120536
    outer loop
      vertex 9.2418 3.74006 85.4184
      vertex 14 3.97083 83.5179
      vertex 9.16682 3.97083 83.5179
    endloop
  endfacet
  facet normal -0 0.992709 0.120536
    outer loop
      vertex 0 3.97083 83.5179
      vertex 0 3.91229 84
      vertex 0.482146 3.97083 83.5179
    endloop
  endfacet
  facet normal 0 0.992709 0.120536
    outer loop
      vertex 4.42464 3.97083 83.5179
      vertex 1.09064 3.74006 85.4184
      vertex 4.67533 3.74006 85.4184
    endloop
  endfacet
  facet normal 0 0.992709 0.120536
    outer loop
      vertex 1.09064 3.74006 85.4184
      vertex 4.42464 3.97083 83.5179
      vertex 0.482146 3.97083 83.5179
    endloop
  endfacet
  facet normal 4.47833e-007 0.663122 -0.748511
    outer loop
      vertex 9.78148 2.07912 80.6533
      vertex 14 1.85889 80.4582
      vertex 9.78979 2 80.5832
    endloop
  endfacet
  facet normal 0 0.663114 -0.748518
    outer loop
      vertex 3.54182 1.85889 80.4582
      vertex 9.78979 2 80.5832
      vertex 14 1.85889 80.4582
    endloop
  endfacet
  facet normal 0 0.663114 -0.748518
    outer loop
      vertex 9.78979 2 80.5832
      vertex 3.54182 1.85889 80.4582
      vertex 5.64687 2 80.5832
    endloop
  endfacet
  facet normal -9.33104e-007 0.663122 -0.748511
    outer loop
      vertex 3.54182 1.85889 80.4582
      vertex 4.94771 3.29193 81.7277
      vertex 5.64687 2 80.5832
    endloop
  endfacet
  facet normal 0 0.663122 -0.748512
    outer loop
      vertex 4.94771 3.29193 81.7277
      vertex 3.54182 1.85889 80.4582
      vertex 2.27226 3.29193 81.7277
    endloop
  endfacet
  facet normal 4.29181e-007 0.663122 -0.748512
    outer loop
      vertex 14 1.85889 80.4582
      vertex 9.78148 2.07912 80.6533
      vertex 14 3.29193 81.7277
    endloop
  endfacet
  facet normal 0 0.663123 -0.748511
    outer loop
      vertex 14 3.29193 81.7277
      vertex 9.78148 2.07912 80.6533
      vertex 9.38741 3.29193 81.7277
    endloop
  endfacet
  facet normal 0 0.822984 0.568065
    outer loop
      vertex 14 3.74006 85.4184
      vertex 9.59517 2.65249 86.994
      vertex 14 2.65249 86.994
    endloop
  endfacet
  facet normal 0 0.822984 0.568065
    outer loop
      vertex 9.59517 2.65249 86.994
      vertex 14 3.74006 85.4184
      vertex 9.2418 3.74006 85.4184
    endloop
  endfacet
  facet normal 0 0.822984 0.568065
    outer loop
      vertex 4.73484 3.68528 85.4978
      vertex 2.83876 2.65249 86.994
      vertex 5.29376 2.65249 86.994
    endloop
  endfacet
  facet normal -4.72971e-006 0.822986 0.568061
    outer loop
      vertex 4.67533 3.74006 85.4184
      vertex 2.83876 2.65249 86.994
      vertex 4.73484 3.68528 85.4978
    endloop
  endfacet
  facet normal 1.11687e-006 0.822983 0.568066
    outer loop
      vertex 2.83876 2.65249 86.994
      vertex 4.67533 3.74006 85.4184
      vertex 2.27226 3.29193 86.0676
    endloop
  endfacet
  facet normal 0 0.822985 0.568063
    outer loop
      vertex 2.27226 3.29193 86.0676
      vertex 4.67533 3.74006 85.4184
      vertex 1.09064 3.74006 85.4184
    endloop
  endfacet
  facet normal 0 0.935016 -0.354604
    outer loop
      vertex 9.38741 3.29193 81.7277
      vertex 14 3.97083 83.5179
      vertex 14 3.29193 81.7277
    endloop
  endfacet
  facet normal 0 0.935016 -0.354604
    outer loop
      vertex 14 3.97083 83.5179
      vertex 9.38741 3.29193 81.7277
      vertex 9.16682 3.97083 83.5179
    endloop
  endfacet
  facet normal 0 0.935017 -0.354604
    outer loop
      vertex 0.482146 3.97083 83.5179
      vertex 0 3.91229 83.3635
      vertex 0 3.97083 83.5179
    endloop
  endfacet
  facet normal -6.40798e-007 0.935017 -0.354604
    outer loop
      vertex 2.27226 3.29193 81.7277
      vertex 4.42464 3.97083 83.5179
      vertex 4.73484 3.68528 82.7649
    endloop
  endfacet
  facet normal 0 0.935016 -0.354605
    outer loop
      vertex 2.27226 3.29193 81.7277
      vertex 4.73484 3.68528 82.7649
      vertex 4.94771 3.29193 81.7277
    endloop
  endfacet
  facet normal 0 0.935016 -0.354604
    outer loop
      vertex 4.42464 3.97083 83.5179
      vertex 2.27226 3.29193 81.7277
      vertex 0.482146 3.97083 83.5179
    endloop
  endfacet
  facet normal 0 -0.239316 -0.970942
    outer loop
      vertex 14 -1.85889 80.4582
      vertex 10 0 80
      vertex 14 0 80
    endloop
  endfacet
  facet normal 0 -0.239316 -0.970942
    outer loop
      vertex 3.54182 -1.85889 80.4582
      vertex 10 0 80
      vertex 14 -1.85889 80.4582
    endloop
  endfacet
  facet normal -0 -0.239316 -0.970942
    outer loop
      vertex 10 0 80
      vertex 3.54182 -1.85889 80.4582
      vertex 6 0 80
    endloop
  endfacet
  facet normal -0 -0.239316 -0.970942
    outer loop
      vertex 6 0 80
      vertex 3.54182 -1.85889 80.4582
      vertex 4 0 80
    endloop
  endfacet
  facet normal 0 -0.663122 -0.748512
    outer loop
      vertex 14 -3.29193 81.7277
      vertex 3.54182 -1.85889 80.4582
      vertex 14 -1.85889 80.4582
    endloop
  endfacet
  facet normal 0 -0.663122 -0.748512
    outer loop
      vertex 3.54182 -1.85889 80.4582
      vertex 14 -3.29193 81.7277
      vertex 2.27226 -3.29193 81.7277
    endloop
  endfacet
  facet normal 1 0 0
    outer loop
      vertex 14 3.74006 85.4184
      vertex 14 3.29193 81.7277
      vertex 14 3.97083 83.5179
    endloop
  endfacet
  facet normal 1 0 0
    outer loop
      vertex 14 2.65249 86.994
      vertex 14 3.29193 81.7277
      vertex 14 3.74006 85.4184
    endloop
  endfacet
  facet normal 1 0 0
    outer loop
      vertex 14 2.65249 86.994
      vertex 14 1.85889 80.4582
      vertex 14 3.29193 81.7277
    endloop
  endfacet
  facet normal 1 0 0
    outer loop
      vertex 14 0.957262 87.8838
      vertex 14 1.85889 80.4582
      vertex 14 2.65249 86.994
    endloop
  endfacet
  facet normal 1 0 0
    outer loop
      vertex 14 0.957262 87.8838
      vertex 14 0 80
      vertex 14 1.85889 80.4582
    endloop
  endfacet
  facet normal 1 -0 0
    outer loop
      vertex 14 -0.957262 87.8838
      vertex 14 0 80
      vertex 14 0.957262 87.8838
    endloop
  endfacet
  facet normal 1 0 0
    outer loop
      vertex 14 -0.957262 87.8838
      vertex 14 -1.85889 80.4582
      vertex 14 0 80
    endloop
  endfacet
  facet normal 1 -0 0
    outer loop
      vertex 14 -2.65249 86.994
      vertex 14 -1.85889 80.4582
      vertex 14 -0.957262 87.8838
    endloop
  endfacet
  facet normal 1 0 0
    outer loop
      vertex 14 -2.65249 86.994
      vertex 14 -3.29193 81.7277
      vertex 14 -1.85889 80.4582
    endloop
  endfacet
  facet normal 1 -0 0
    outer loop
      vertex 14 -3.74006 85.4184
      vertex 14 -3.29193 81.7277
      vertex 14 -2.65249 86.994
    endloop
  endfacet
  facet normal 1 0 0
    outer loop
      vertex 14 -3.29193 81.7277
      vertex 14 -3.74006 85.4184
      vertex 14 -3.97083 83.5179
    endloop
  endfacet
  facet normal -1.14288e-007 0.464723 0.885456
    outer loop
      vertex 14 2.65249 86.994
      vertex 9.78979 2 87.3365
      vertex 14 0.957262 87.8838
    endloop
  endfacet
  facet normal 7.65737e-006 0.464684 0.885477
    outer loop
      vertex 14 2.65249 86.994
      vertex 9.78148 2.07912 87.295
      vertex 9.78979 2 87.3365
    endloop
  endfacet
  facet normal 0 0.464728 0.885453
    outer loop
      vertex 9.78148 2.07912 87.295
      vertex 14 2.65249 86.994
      vertex 9.59517 2.65249 86.994
    endloop
  endfacet
  facet normal 0 0.464724 0.885456
    outer loop
      vertex 3.76406 0.957262 87.8838
      vertex 9.78979 2 87.3365
      vertex 5.64687 2 87.3365
    endloop
  endfacet
  facet normal 0 0.464724 0.885456
    outer loop
      vertex 9.78979 2 87.3365
      vertex 3.76406 0.957262 87.8838
      vertex 14 0.957262 87.8838
    endloop
  endfacet
  facet normal -1.30494e-007 0.464723 0.885456
    outer loop
      vertex 3.54182 1.85889 87.4106
      vertex 5.64687 2 87.3365
      vertex 5.29376 2.65249 86.994
    endloop
  endfacet
  facet normal -2.45282e-007 0.464724 0.885456
    outer loop
      vertex 5.64687 2 87.3365
      vertex 3.54182 1.85889 87.4106
      vertex 3.76406 0.957262 87.8838
    endloop
  endfacet
  facet normal 0 0.464722 0.885456
    outer loop
      vertex 3.54182 1.85889 87.4106
      vertex 5.29376 2.65249 86.994
      vertex 2.83876 2.65249 86.994
    endloop
  endfacet
  facet normal -1 -0 0
    outer loop
      vertex 0 3.97083 83.5179
      vertex 0 3.91229 83.3635
      vertex 0 3.91229 84
    endloop
  endfacet
  facet normal -1 0 0
    outer loop
      vertex 0 -3.91229 83.3635
      vertex 0 -3.97083 83.5179
      vertex 0 -3.91229 84
    endloop
  endfacet
  facet normal 2.57929e-007 -0.822983 0.568066
    outer loop
      vertex 14 -3.74006 85.4184
      vertex 2.83876 -2.65249 86.994
      vertex 2.27226 -3.29193 86.0676
    endloop
  endfacet
  facet normal 0 -0.822985 0.568063
    outer loop
      vertex 14 -3.74006 85.4184
      vertex 2.27226 -3.29193 86.0676
      vertex 1.09064 -3.74006 85.4184
    endloop
  endfacet
  facet normal 0 -0.822984 0.568065
    outer loop
      vertex 2.83876 -2.65249 86.994
      vertex 14 -3.74006 85.4184
      vertex 14 -2.65249 86.994
    endloop
  endfacet
  facet normal 0 -0.935016 -0.354604
    outer loop
      vertex 2.27226 -3.29193 81.7277
      vertex 14 -3.97083 83.5179
      vertex 0.482146 -3.97083 83.5179
    endloop
  endfacet
  facet normal 0 -0.935016 -0.354604
    outer loop
      vertex 14 -3.97083 83.5179
      vertex 2.27226 -3.29193 81.7277
      vertex 14 -3.29193 81.7277
    endloop
  endfacet
  facet normal -0 -0.935017 -0.354604
    outer loop
      vertex 0.482146 -3.97083 83.5179
      vertex 0 -3.97083 83.5179
      vertex 0 -3.91229 83.3635
    endloop
  endfacet
  facet normal 0 -0.992709 0.120536
    outer loop
      vertex 14 -3.97083 83.5179
      vertex 1.09064 -3.74006 85.4184
      vertex 0.482146 -3.97083 83.5179
    endloop
  endfacet
  facet normal 0 -0.992709 0.120536
    outer loop
      vertex 1.09064 -3.74006 85.4184
      vertex 14 -3.97083 83.5179
      vertex 14 -3.74006 85.4184
    endloop
  endfacet
  facet normal 0 -0.992709 0.120536
    outer loop
      vertex 0 -3.91229 84
      vertex 0 -3.97083 83.5179
      vertex 0.482146 -3.97083 83.5179
    endloop
  endfacet
endsolid OpenSCAD_Model
