solid OpenSCAD_Model
  facet normal 0.970942 0.239316 0
    outer loop
      vertex 4 0 80
      vertex 3.54182 1.85889 0
      vertex 3.54182 1.85889 80.4582
    endloop
  endfacet
  facet normal 0.970942 0.239316 0
    outer loop
      vertex 3.54182 1.85889 0
      vertex 4 0 80
      vertex 4 0 0
    endloop
  endfacet
  facet normal 0.970942 0.239316 0
    outer loop
      vertex 3.54182 1.85889 160
      vertex 3.76406 0.957262 87.8838
      vertex 3.54182 1.85889 87.4106
    endloop
  endfacet
  facet normal 0.970942 0.239316 4.11053e-010
    outer loop
      vertex 4 0 160
      vertex 3.76406 0.957262 87.8838
      vertex 3.54182 1.85889 160
    endloop
  endfacet
  facet normal 0.970942 0.239316 0
    outer loop
      vertex 3.76406 0.957262 87.8838
      vertex 4 0 160
      vertex 4 0 87.8838
    endloop
  endfacet
  facet normal -1 0 0
    outer loop
      vertex -3.88377 -0.957262 0
      vertex -3.88377 0.957262 160
      vertex -3.88377 0.957262 0
    endloop
  endfacet
  facet normal -1 -0 0
    outer loop
      vertex -3.88377 0.957262 160
      vertex -3.88377 -0.957262 0
      vertex -3.88377 -0.957262 160
    endloop
  endfacet
  facet normal -0.120537 0.992709 1.54149e-009
    outer loop
      vertex 0.482146 3.97083 160
      vertex 0 3.91229 84
      vertex -1.41842 3.74006 160
    endloop
  endfacet
  facet normal -0.120536 0.992709 0
    outer loop
      vertex 0 3.91229 84
      vertex 0.482146 3.97083 160
      vertex 0.482146 3.97083 83.5179
    endloop
  endfacet
  facet normal -0.120537 0.992709 0
    outer loop
      vertex 0 3.91229 83.3635
      vertex -1.41842 3.74006 160
      vertex 0 3.91229 84
    endloop
  endfacet
  facet normal -0.120537 0.992709 -1.40533e-009
    outer loop
      vertex -1.41842 3.74006 0
      vertex 0 3.91229 83.3635
      vertex 0.482146 3.97083 0
    endloop
  endfacet
  facet normal -0.120537 0.992709 0
    outer loop
      vertex 0 3.91229 83.3635
      vertex -1.41842 3.74006 0
      vertex -1.41842 3.74006 160
    endloop
  endfacet
  facet normal -0.120536 0.992709 0
    outer loop
      vertex 0.482146 3.97083 83.5179
      vertex 0.482146 3.97083 0
      vertex 0 3.91229 83.3635
    endloop
  endfacet
  facet normal 0.748511 0.663123 0
    outer loop
      vertex 3.54182 1.85889 80.4582
      vertex 2.27226 3.29193 0
      vertex 2.27226 3.29193 81.7277
    endloop
  endfacet
  facet normal 0.748511 0.663123 0
    outer loop
      vertex 2.27226 3.29193 0
      vertex 3.54182 1.85889 80.4582
      vertex 3.54182 1.85889 0
    endloop
  endfacet
  facet normal 0.748511 0.663123 0
    outer loop
      vertex 2.27226 3.29193 160
      vertex 2.83876 2.65249 86.994
      vertex 2.27226 3.29193 86.0676
    endloop
  endfacet
  facet normal 0.748511 0.663123 -0
    outer loop
      vertex 3.54182 1.85889 87.4106
      vertex 2.27226 3.29193 160
      vertex 3.54182 1.85889 160
    endloop
  endfacet
  facet normal 0.748511 0.663123 -1.88056e-009
    outer loop
      vertex 2.27226 3.29193 160
      vertex 3.54182 1.85889 87.4106
      vertex 2.83876 2.65249 86.994
    endloop
  endfacet
  facet normal -0.568065 0.822984 0
    outer loop
      vertex -1.41842 3.74006 0
      vertex -2.99404 2.65249 160
      vertex -1.41842 3.74006 160
    endloop
  endfacet
  facet normal -0.568065 0.822984 0
    outer loop
      vertex -2.99404 2.65249 160
      vertex -1.41842 3.74006 0
      vertex -2.99404 2.65249 0
    endloop
  endfacet
  facet normal 0.970942 -0.239316 0
    outer loop
      vertex 4 0 160
      vertex 3.76406 -0.957262 87.8838
      vertex 4 0 87.8838
    endloop
  endfacet
  facet normal 0.970942 -0.239316 4.11053e-010
    outer loop
      vertex 3.54182 -1.85889 160
      vertex 3.76406 -0.957262 87.8838
      vertex 4 0 160
    endloop
  endfacet
  facet normal 0.970942 -0.239316 0
    outer loop
      vertex 3.76406 -0.957262 87.8838
      vertex 3.54182 -1.85889 160
      vertex 3.54182 -1.85889 87.4106
    endloop
  endfacet
  facet normal 0.970942 -0.239316 0
    outer loop
      vertex 3.54182 -1.85889 0
      vertex 4 0 80
      vertex 3.54182 -1.85889 80.4582
    endloop
  endfacet
  facet normal 0.970942 -0.239316 0
    outer loop
      vertex 4 0 80
      vertex 3.54182 -1.85889 0
      vertex 4 0 0
    endloop
  endfacet
  facet normal 0.354605 0.935016 0
    outer loop
      vertex 0.482146 3.97083 0
      vertex 2.27226 3.29193 81.7277
      vertex 2.27226 3.29193 0
    endloop
  endfacet
  facet normal 0.354605 0.935016 0
    outer loop
      vertex 2.27226 3.29193 81.7277
      vertex 0.482146 3.97083 0
      vertex 0.482146 3.97083 83.5179
    endloop
  endfacet
  facet normal 0.354605 0.935016 -0
    outer loop
      vertex 2.27226 3.29193 86.0676
      vertex 0.482146 3.97083 160
      vertex 2.27226 3.29193 160
    endloop
  endfacet
  facet normal 0.354605 0.935016 -2.07629e-010
    outer loop
      vertex 1.09064 3.74006 85.4184
      vertex 0.482146 3.97083 160
      vertex 2.27226 3.29193 86.0676
    endloop
  endfacet
  facet normal 0.354605 0.935016 0
    outer loop
      vertex 0.482146 3.97083 160
      vertex 1.09064 3.74006 85.4184
      vertex 0.482146 3.97083 83.5179
    endloop
  endfacet
  facet normal -0.885456 0.464723 0
    outer loop
      vertex -3.88377 0.957262 0
      vertex -2.99404 2.65249 160
      vertex -2.99404 2.65249 0
    endloop
  endfacet
  facet normal -0.885456 0.464723 0
    outer loop
      vertex -2.99404 2.65249 160
      vertex -3.88377 0.957262 0
      vertex -3.88377 0.957262 160
    endloop
  endfacet
  facet normal -0.885456 -0.464723 0
    outer loop
      vertex -2.99404 -2.65249 0
      vertex -3.88377 -0.957262 160
      vertex -3.88377 -0.957262 0
    endloop
  endfacet
  facet normal -0.885456 -0.464723 0
    outer loop
      vertex -3.88377 -0.957262 160
      vertex -2.99404 -2.65249 0
      vertex -2.99404 -2.65249 160
    endloop
  endfacet
  facet normal 0.748511 -0.663123 0
    outer loop
      vertex 2.27226 -3.29193 0
      vertex 3.54182 -1.85889 80.4582
      vertex 2.27226 -3.29193 81.7277
    endloop
  endfacet
  facet normal 0.748511 -0.663123 0
    outer loop
      vertex 3.54182 -1.85889 80.4582
      vertex 2.27226 -3.29193 0
      vertex 3.54182 -1.85889 0
    endloop
  endfacet
  facet normal 0.748511 -0.663123 0
    outer loop
      vertex 2.27226 -3.29193 160
      vertex 3.54182 -1.85889 87.4106
      vertex 3.54182 -1.85889 160
    endloop
  endfacet
  facet normal 0.748511 -0.663123 -1.88056e-009
    outer loop
      vertex 3.54182 -1.85889 87.4106
      vertex 2.27226 -3.29193 160
      vertex 2.83876 -2.65249 86.994
    endloop
  endfacet
  facet normal 0.748511 -0.663123 0
    outer loop
      vertex 2.83876 -2.65249 86.994
      vertex 2.27226 -3.29193 160
      vertex 2.27226 -3.29193 86.0676
    endloop
  endfacet
  facet normal 0 0 1
    outer loop
      vertex 3.54182 1.85889 160
      vertex 3.54182 -1.85889 160
      vertex 4 0 160
    endloop
  endfacet
  facet normal 0 0 1
    outer loop
      vertex 2.27226 3.29193 160
      vertex 3.54182 -1.85889 160
      vertex 3.54182 1.85889 160
    endloop
  endfacet
  facet normal 0 0 1
    outer loop
      vertex 2.27226 3.29193 160
      vertex 2.27226 -3.29193 160
      vertex 3.54182 -1.85889 160
    endloop
  endfacet
  facet normal 0 0 1
    outer loop
      vertex 0.482146 3.97083 160
      vertex 2.27226 -3.29193 160
      vertex 2.27226 3.29193 160
    endloop
  endfacet
  facet normal 0 0 1
    outer loop
      vertex 0.482146 3.97083 160
      vertex 0.482146 -3.97083 160
      vertex 2.27226 -3.29193 160
    endloop
  endfacet
  facet normal -0 0 1
    outer loop
      vertex -1.41842 3.74006 160
      vertex 0.482146 -3.97083 160
      vertex 0.482146 3.97083 160
    endloop
  endfacet
  facet normal 0 0 1
    outer loop
      vertex -1.41842 3.74006 160
      vertex -1.41842 -3.74006 160
      vertex 0.482146 -3.97083 160
    endloop
  endfacet
  facet normal -0 0 1
    outer loop
      vertex -2.99404 2.65249 160
      vertex -1.41842 -3.74006 160
      vertex -1.41842 3.74006 160
    endloop
  endfacet
  facet normal 0 0 1
    outer loop
      vertex -2.99404 2.65249 160
      vertex -2.99404 -2.65249 160
      vertex -1.41842 -3.74006 160
    endloop
  endfacet
  facet normal -0 0 1
    outer loop
      vertex -3.88377 0.957262 160
      vertex -2.99404 -2.65249 160
      vertex -2.99404 2.65249 160
    endloop
  endfacet
  facet normal 0 0 1
    outer loop
      vertex -2.99404 -2.65249 160
      vertex -3.88377 0.957262 160
      vertex -3.88377 -0.957262 160
    endloop
  endfacet
  facet normal 0 0 -1
    outer loop
      vertex 3.54182 -1.85889 0
      vertex 3.54182 1.85889 0
      vertex 4 0 0
    endloop
  endfacet
  facet normal 0 0 -1
    outer loop
      vertex 2.27226 -3.29193 0
      vertex 3.54182 1.85889 0
      vertex 3.54182 -1.85889 0
    endloop
  endfacet
  facet normal 0 0 -1
    outer loop
      vertex 2.27226 -3.29193 0
      vertex 2.27226 3.29193 0
      vertex 3.54182 1.85889 0
    endloop
  endfacet
  facet normal 0 0 -1
    outer loop
      vertex 0.482146 -3.97083 0
      vertex 2.27226 3.29193 0
      vertex 2.27226 -3.29193 0
    endloop
  endfacet
  facet normal 0 0 -1
    outer loop
      vertex 0.482146 -3.97083 0
      vertex 0.482146 3.97083 0
      vertex 2.27226 3.29193 0
    endloop
  endfacet
  facet normal 0 0 -1
    outer loop
      vertex -1.41842 -3.74006 0
      vertex 0.482146 3.97083 0
      vertex 0.482146 -3.97083 0
    endloop
  endfacet
  facet normal 0 0 -1
    outer loop
      vertex -1.41842 -3.74006 0
      vertex -1.41842 3.74006 0
      vertex 0.482146 3.97083 0
    endloop
  endfacet
  facet normal 0 0 -1
    outer loop
      vertex -2.99404 -2.65249 0
      vertex -1.41842 3.74006 0
      vertex -1.41842 -3.74006 0
    endloop
  endfacet
  facet normal 0 0 -1
    outer loop
      vertex -2.99404 -2.65249 0
      vertex -2.99404 2.65249 0
      vertex -1.41842 3.74006 0
    endloop
  endfacet
  facet normal 0 0 -1
    outer loop
      vertex -3.88377 -0.957262 0
      vertex -2.99404 2.65249 0
      vertex -2.99404 -2.65249 0
    endloop
  endfacet
  facet normal 0 0 -1
    outer loop
      vertex -2.99404 2.65249 0
      vertex -3.88377 -0.957262 0
      vertex -3.88377 0.957262 0
    endloop
  endfacet
  facet normal -0.568065 -0.822984 0
    outer loop
      vertex -2.99404 -2.65249 0
      vertex -1.41842 -3.74006 160
      vertex -2.99404 -2.65249 160
    endloop
  endfacet
  facet normal -0.568065 -0.822984 -0
    outer loop
      vertex -1.41842 -3.74006 160
      vertex -2.99404 -2.65249 0
      vertex -1.41842 -3.74006 0
    endloop
  endfacet
  facet normal 0.354605 -0.935016 0
    outer loop
      vertex 0.482146 -3.97083 160
      vertex 2.27226 -3.29193 86.0676
      vertex 2.27226 -3.29193 160
    endloop
  endfacet
  facet normal 0.354605 -0.935016 -2.07629e-010
    outer loop
      vertex 0.482146 -3.97083 160
      vertex 1.09064 -3.74006 85.4184
      vertex 2.27226 -3.29193 86.0676
    endloop
  endfacet
  facet normal 0.354605 -0.935016 0
    outer loop
      vertex 1.09064 -3.74006 85.4184
      vertex 0.482146 -3.97083 160
      vertex 0.482146 -3.97083 83.5179
    endloop
  endfacet
  facet normal 0.354605 -0.935016 0
    outer loop
      vertex 0.482146 -3.97083 0
      vertex 2.27226 -3.29193 81.7277
      vertex 0.482146 -3.97083 83.5179
    endloop
  endfacet
  facet normal 0.354605 -0.935016 0
    outer loop
      vertex 2.27226 -3.29193 81.7277
      vertex 0.482146 -3.97083 0
      vertex 2.27226 -3.29193 0
    endloop
  endfacet
  facet normal -0.120537 -0.992709 1.54149e-009
    outer loop
      vertex -1.41842 -3.74006 160
      vertex 0 -3.91229 84
      vertex 0.482146 -3.97083 160
    endloop
  endfacet
  facet normal -0.120537 -0.992709 0
    outer loop
      vertex -1.41842 -3.74006 160
      vertex 0 -3.91229 83.3635
      vertex 0 -3.91229 84
    endloop
  endfacet
  facet normal -0.120537 -0.992709 0
    outer loop
      vertex 0 -3.91229 83.3635
      vertex -1.41842 -3.74006 160
      vertex -1.41842 -3.74006 0
    endloop
  endfacet
  facet normal -0.120536 -0.992709 -0
    outer loop
      vertex 0.482146 -3.97083 160
      vertex 0 -3.91229 84
      vertex 0.482146 -3.97083 83.5179
    endloop
  endfacet
  facet normal -0.120537 -0.992709 -1.40533e-009
    outer loop
      vertex 0.482146 -3.97083 0
      vertex 0 -3.91229 83.3635
      vertex -1.41842 -3.74006 0
    endloop
  endfacet
  facet normal -0.120536 -0.992709 0
    outer loop
      vertex 0 -3.91229 83.3635
      vertex 0.482146 -3.97083 0
      vertex 0.482146 -3.97083 83.5179
    endloop
  endfacet
  facet normal 0 0.239316 -0.970942
    outer loop
      vertex 4 0 80
      vertex 14 1.85889 80.4582
      vertex 14 0 80
    endloop
  endfacet
  facet normal 0 0.239316 -0.970942
    outer loop
      vertex 14 1.85889 80.4582
      vertex 4 0 80
      vertex 3.54182 1.85889 80.4582
    endloop
  endfacet
  facet normal 0 0 1
    outer loop
      vertex 14 0.957262 87.8838
      vertex 4 0 87.8838
      vertex 14 -0.957262 87.8838
    endloop
  endfacet
  facet normal 0 -0 1
    outer loop
      vertex 4 0 87.8838
      vertex 14 0.957262 87.8838
      vertex 3.76406 0.957262 87.8838
    endloop
  endfacet
  facet normal 0 0 1
    outer loop
      vertex 14 -0.957262 87.8838
      vertex 4 0 87.8838
      vertex 3.76406 -0.957262 87.8838
    endloop
  endfacet
  facet normal 0 -0.464723 0.885456
    outer loop
      vertex 3.76406 -0.957262 87.8838
      vertex 14 -2.65249 86.994
      vertex 14 -0.957262 87.8838
    endloop
  endfacet
  facet normal -1.53519e-007 -0.464724 0.885456
    outer loop
      vertex 3.54182 -1.85889 87.4106
      vertex 14 -2.65249 86.994
      vertex 3.76406 -0.957262 87.8838
    endloop
  endfacet
  facet normal 0 -0.464722 0.885456
    outer loop
      vertex 14 -2.65249 86.994
      vertex 3.54182 -1.85889 87.4106
      vertex 2.83876 -2.65249 86.994
    endloop
  endfacet
  facet normal 0 0.992709 0.120536
    outer loop
      vertex 14 3.97083 83.5179
      vertex 1.09064 3.74006 85.4184
      vertex 14 3.74006 85.4184
    endloop
  endfacet
  facet normal 0 0.992709 0.120536
    outer loop
      vertex 1.09064 3.74006 85.4184
      vertex 14 3.97083 83.5179
      vertex 0.482146 3.97083 83.5179
    endloop
  endfacet
  facet normal -0 0.992709 0.120536
    outer loop
      vertex 0 3.97083 83.5179
      vertex 0 3.91229 84
      vertex 0.482146 3.97083 83.5179
    endloop
  endfacet
  facet normal 0 0.663122 -0.748512
    outer loop
      vertex 3.54182 1.85889 80.4582
      vertex 14 3.29193 81.7277
      vertex 14 1.85889 80.4582
    endloop
  endfacet
  facet normal 0 0.663122 -0.748512
    outer loop
      vertex 14 3.29193 81.7277
      vertex 3.54182 1.85889 80.4582
      vertex 2.27226 3.29193 81.7277
    endloop
  endfacet
  facet normal 0 0.822984 0.568065
    outer loop
      vertex 14 3.74006 85.4184
      vertex 2.83876 2.65249 86.994
      vertex 14 2.65249 86.994
    endloop
  endfacet
  facet normal 2.57929e-007 0.822983 0.568066
    outer loop
      vertex 2.83876 2.65249 86.994
      vertex 14 3.74006 85.4184
      vertex 2.27226 3.29193 86.0676
    endloop
  endfacet
  facet normal 0 0.822985 0.568063
    outer loop
      vertex 2.27226 3.29193 86.0676
      vertex 14 3.74006 85.4184
      vertex 1.09064 3.74006 85.4184
    endloop
  endfacet
  facet normal 0 0.935016 -0.354604
    outer loop
      vertex 2.27226 3.29193 81.7277
      vertex 14 3.97083 83.5179
      vertex 14 3.29193 81.7277
    endloop
  endfacet
  facet normal 0 0.935016 -0.354604
    outer loop
      vertex 14 3.97083 83.5179
      vertex 2.27226 3.29193 81.7277
      vertex 0.482146 3.97083 83.5179
    endloop
  endfacet
  facet normal 0 0.935017 -0.354604
    outer loop
      vertex 0.482146 3.97083 83.5179
      vertex 0 3.91229 83.3635
      vertex 0 3.97083 83.5179
    endloop
  endfacet
  facet normal 0 -0.239316 -0.970942
    outer loop
      vertex 14 -1.85889 80.4582
      vertex 4 0 80
      vertex 14 0 80
    endloop
  endfacet
  facet normal 0 -0.239316 -0.970942
    outer loop
      vertex 4 0 80
      vertex 14 -1.85889 80.4582
      vertex 3.54182 -1.85889 80.4582
    endloop
  endfacet
  facet normal 0 -0.663122 -0.748512
    outer loop
      vertex 14 -3.29193 81.7277
      vertex 3.54182 -1.85889 80.4582
      vertex 14 -1.85889 80.4582
    endloop
  endfacet
  facet normal 0 -0.663122 -0.748512
    outer loop
      vertex 3.54182 -1.85889 80.4582
      vertex 14 -3.29193 81.7277
      vertex 2.27226 -3.29193 81.7277
    endloop
  endfacet
  facet normal 1 0 0
    outer loop
      vertex 14 3.74006 85.4184
      vertex 14 3.29193 81.7277
      vertex 14 3.97083 83.5179
    endloop
  endfacet
  facet normal 1 0 0
    outer loop
      vertex 14 2.65249 86.994
      vertex 14 3.29193 81.7277
      vertex 14 3.74006 85.4184
    endloop
  endfacet
  facet normal 1 0 0
    outer loop
      vertex 14 2.65249 86.994
      vertex 14 1.85889 80.4582
      vertex 14 3.29193 81.7277
    endloop
  endfacet
  facet normal 1 0 0
    outer loop
      vertex 14 0.957262 87.8838
      vertex 14 1.85889 80.4582
      vertex 14 2.65249 86.994
    endloop
  endfacet
  facet normal 1 0 0
    outer loop
      vertex 14 0.957262 87.8838
      vertex 14 0 80
      vertex 14 1.85889 80.4582
    endloop
  endfacet
  facet normal 1 -0 0
    outer loop
      vertex 14 -0.957262 87.8838
      vertex 14 0 80
      vertex 14 0.957262 87.8838
    endloop
  endfacet
  facet normal 1 0 0
    outer loop
      vertex 14 -0.957262 87.8838
      vertex 14 -1.85889 80.4582
      vertex 14 0 80
    endloop
  endfacet
  facet normal 1 -0 0
    outer loop
      vertex 14 -2.65249 86.994
      vertex 14 -1.85889 80.4582
      vertex 14 -0.957262 87.8838
    endloop
  endfacet
  facet normal 1 0 0
    outer loop
      vertex 14 -2.65249 86.994
      vertex 14 -3.29193 81.7277
      vertex 14 -1.85889 80.4582
    endloop
  endfacet
  facet normal 1 -0 0
    outer loop
      vertex 14 -3.74006 85.4184
      vertex 14 -3.29193 81.7277
      vertex 14 -2.65249 86.994
    endloop
  endfacet
  facet normal 1 0 0
    outer loop
      vertex 14 -3.29193 81.7277
      vertex 14 -3.74006 85.4184
      vertex 14 -3.97083 83.5179
    endloop
  endfacet
  facet normal 0 0.464723 0.885456
    outer loop
      vertex 14 2.65249 86.994
      vertex 3.76406 0.957262 87.8838
      vertex 14 0.957262 87.8838
    endloop
  endfacet
  facet normal -1.53519e-007 0.464724 0.885456
    outer loop
      vertex 14 2.65249 86.994
      vertex 3.54182 1.85889 87.4106
      vertex 3.76406 0.957262 87.8838
    endloop
  endfacet
  facet normal 0 0.464722 0.885456
    outer loop
      vertex 3.54182 1.85889 87.4106
      vertex 14 2.65249 86.994
      vertex 2.83876 2.65249 86.994
    endloop
  endfacet
  facet normal -1 -0 0
    outer loop
      vertex 0 3.97083 83.5179
      vertex 0 3.91229 83.3635
      vertex 0 3.91229 84
    endloop
  endfacet
  facet normal -1 0 0
    outer loop
      vertex 0 -3.91229 83.3635
      vertex 0 -3.97083 83.5179
      vertex 0 -3.91229 84
    endloop
  endfacet
  facet normal 2.57929e-007 -0.822983 0.568066
    outer loop
      vertex 14 -3.74006 85.4184
      vertex 2.83876 -2.65249 86.994
      vertex 2.27226 -3.29193 86.0676
    endloop
  endfacet
  facet normal 0 -0.822985 0.568063
    outer loop
      vertex 14 -3.74006 85.4184
      vertex 2.27226 -3.29193 86.0676
      vertex 1.09064 -3.74006 85.4184
    endloop
  endfacet
  facet normal 0 -0.822984 0.568065
    outer loop
      vertex 2.83876 -2.65249 86.994
      vertex 14 -3.74006 85.4184
      vertex 14 -2.65249 86.994
    endloop
  endfacet
  facet normal 0 -0.935016 -0.354604
    outer loop
      vertex 2.27226 -3.29193 81.7277
      vertex 14 -3.97083 83.5179
      vertex 0.482146 -3.97083 83.5179
    endloop
  endfacet
  facet normal 0 -0.935016 -0.354604
    outer loop
      vertex 14 -3.97083 83.5179
      vertex 2.27226 -3.29193 81.7277
      vertex 14 -3.29193 81.7277
    endloop
  endfacet
  facet normal -0 -0.935017 -0.354604
    outer loop
      vertex 0.482146 -3.97083 83.5179
      vertex 0 -3.97083 83.5179
      vertex 0 -3.91229 83.3635
    endloop
  endfacet
  facet normal 0 -0.992709 0.120536
    outer loop
      vertex 14 -3.97083 83.5179
      vertex 1.09064 -3.74006 85.4184
      vertex 0.482146 -3.97083 83.5179
    endloop
  endfacet
  facet normal 0 -0.992709 0.120536
    outer loop
      vertex 1.09064 -3.74006 85.4184
      vertex 14 -3.97083 83.5179
      vertex 14 -3.74006 85.4184
    endloop
  endfacet
  facet normal 0 -0.992709 0.120536
    outer loop
      vertex 0 -3.91229 84
      vertex 0 -3.97083 83.5179
      vertex 0.482146 -3.97083 83.5179
    endloop
  endfacet
endsolid OpenSCAD_Model
