solid OpenSCAD_Model
  facet normal 0.994522 0.104529 0
    outer loop
      vertex 10 0 80
      vertex 9.78979 2 52
      vertex 9.78979 2 80
    endloop
  endfacet
  facet normal 0.994522 0.104529 0
    outer loop
      vertex 9.78979 2 52
      vertex 10 0 80
      vertex 10 0 52
    endloop
  endfacet
  facet normal 0.994522 0.104523 0
    outer loop
      vertex 9.78148 2.07912 120
      vertex 9.78979 2 92
      vertex 9.78148 2.07912 0
    endloop
  endfacet
  facet normal 0.994522 0.104529 -1.64366e-008
    outer loop
      vertex 10 0 120
      vertex 9.78979 2 92
      vertex 9.78148 2.07912 120
    endloop
  endfacet
  facet normal 0.994522 0.104529 0
    outer loop
      vertex 9.78979 2 92
      vertex 10 0 120
      vertex 10 0 92
    endloop
  endfacet
  facet normal 0.994522 0.104523 -0
    outer loop
      vertex 9.78979 2 80
      vertex 9.78148 2.07912 0
      vertex 9.78979 2 92
    endloop
  endfacet
  facet normal 0.994522 0.104523 -0
    outer loop
      vertex 9.78979 2 52
      vertex 9.78148 2.07912 0
      vertex 9.78979 2 80
    endloop
  endfacet
  facet normal 0.994522 0.104523 -0
    outer loop
      vertex 9.78979 2 40
      vertex 9.78148 2.07912 0
      vertex 9.78979 2 52
    endloop
  endfacet
  facet normal 0.994522 0.104529 1.19607e-008
    outer loop
      vertex 10 0 40
      vertex 9.78148 2.07912 0
      vertex 9.78979 2 40
    endloop
  endfacet
  facet normal 0.994522 0.104529 0
    outer loop
      vertex 9.78148 2.07912 0
      vertex 10 0 40
      vertex 10 0 0
    endloop
  endfacet
  facet normal 0 1 -0
    outer loop
      vertex 1.04528 9.94522 0
      vertex 0 9.94522 120
      vertex 1.04528 9.94522 120
    endloop
  endfacet
  facet normal 0 1 0
    outer loop
      vertex 0 9.94522 120
      vertex 1.04528 9.94522 0
      vertex 0 9.94522 0
    endloop
  endfacet
  facet normal 0 -1 0
    outer loop
      vertex 0 -9.94522 0
      vertex 1.04528 -9.94522 40
      vertex 0 -9.94522 40
    endloop
  endfacet
  facet normal 0 -1 -0
    outer loop
      vertex 1.04528 -9.94522 40
      vertex 0 -9.94522 0
      vertex 1.04528 -9.94522 0
    endloop
  endfacet
  facet normal 0 -1 0
    outer loop
      vertex 0 -9.94522 92
      vertex 1.04528 -9.94522 120
      vertex 0 -9.94522 120
    endloop
  endfacet
  facet normal 0 -1 -0
    outer loop
      vertex 1.04528 -9.94522 120
      vertex 0 -9.94522 92
      vertex 1.04528 -9.94522 92
    endloop
  endfacet
  facet normal 0.587785 0.809017 -0
    outer loop
      vertex 6.69131 7.43145 0
      vertex 5 8.66025 120
      vertex 6.69131 7.43145 120
    endloop
  endfacet
  facet normal 0.587785 0.809017 0
    outer loop
      vertex 5 8.66025 120
      vertex 6.69131 7.43145 0
      vertex 5 8.66025 0
    endloop
  endfacet
  facet normal 0.406737 0.913545 -0
    outer loop
      vertex 5 8.66025 0
      vertex 3.09017 9.51056 120
      vertex 5 8.66025 120
    endloop
  endfacet
  facet normal 0.406737 0.913545 0
    outer loop
      vertex 3.09017 9.51056 120
      vertex 5 8.66025 0
      vertex 3.09017 9.51056 0
    endloop
  endfacet
  facet normal 0.866026 0.5 0
    outer loop
      vertex 9.13545 4.06737 120
      vertex 8.09017 5.87785 0
      vertex 8.09017 5.87785 120
    endloop
  endfacet
  facet normal 0.866026 0.5 0
    outer loop
      vertex 8.09017 5.87785 0
      vertex 9.13545 4.06737 120
      vertex 9.13545 4.06737 0
    endloop
  endfacet
  facet normal 0.951057 0.309017 0
    outer loop
      vertex 9.78148 2.07912 120
      vertex 9.13545 4.06737 0
      vertex 9.13545 4.06737 120
    endloop
  endfacet
  facet normal 0.951057 0.309017 0
    outer loop
      vertex 9.13545 4.06737 0
      vertex 9.78148 2.07912 120
      vertex 9.78148 2.07912 0
    endloop
  endfacet
  facet normal 0.743145 0.669131 0
    outer loop
      vertex 8.09017 5.87785 120
      vertex 6.69131 7.43145 0
      vertex 6.69131 7.43145 120
    endloop
  endfacet
  facet normal 0.743145 0.669131 0
    outer loop
      vertex 6.69131 7.43145 0
      vertex 8.09017 5.87785 120
      vertex 8.09017 5.87785 0
    endloop
  endfacet
  facet normal 0.207911 0.978148 -0
    outer loop
      vertex 3.09017 9.51056 0
      vertex 1.04528 9.94522 120
      vertex 3.09017 9.51056 120
    endloop
  endfacet
  facet normal 0.207911 0.978148 0
    outer loop
      vertex 1.04528 9.94522 120
      vertex 3.09017 9.51056 0
      vertex 1.04528 9.94522 0
    endloop
  endfacet
  facet normal -0 0 1
    outer loop
      vertex -10 10 120
      vertex 0 9.94522 120
      vertex 0 10 120
    endloop
  endfacet
  facet normal 0 0 1
    outer loop
      vertex 0 9.94522 120
      vertex -2.41017 5.49464 120
      vertex -0.495476 5.97951 120
    endloop
  endfacet
  facet normal 0 0 1
    outer loop
      vertex 0 9.94522 120
      vertex -10 10 120
      vertex -2.41017 5.49464 120
    endloop
  endfacet
  facet normal 0 0 1
    outer loop
      vertex -2.41017 5.49464 120
      vertex -10 10 120
      vertex -4.06369 4.41434 120
    endloop
  endfacet
  facet normal 0 0 1
    outer loop
      vertex -5.91817 0.987567 120
      vertex -10 10 120
      vertex -5.91817 -0.987567 120
    endloop
  endfacet
  facet normal 0 0 1
    outer loop
      vertex -5.27684 2.85568 120
      vertex -10 10 120
      vertex -5.91817 0.987567 120
    endloop
  endfacet
  facet normal 0 0 1
    outer loop
      vertex -4.06369 4.41434 120
      vertex -10 10 120
      vertex -5.27684 2.85568 120
    endloop
  endfacet
  facet normal 0 0 1
    outer loop
      vertex 6 0 120
      vertex 10 0 120
      vertex 9.78148 2.07912 120
    endloop
  endfacet
  facet normal 0 0 1
    outer loop
      vertex 5.6749 1.9482 120
      vertex 9.78148 2.07912 120
      vertex 9.13545 4.06737 120
    endloop
  endfacet
  facet normal 0 0 1
    outer loop
      vertex 10 0 120
      vertex 6 0 120
      vertex 9.78148 -2.07912 120
    endloop
  endfacet
  facet normal 0 0 1
    outer loop
      vertex 4.73484 3.68528 120
      vertex 9.13545 4.06737 120
      vertex 8.09017 5.87785 120
    endloop
  endfacet
  facet normal -0 0 1
    outer loop
      vertex 5.6749 -1.9482 120
      vertex 9.78148 -2.07912 120
      vertex 6 0 120
    endloop
  endfacet
  facet normal 0 0 1
    outer loop
      vertex 4.73484 3.68528 120
      vertex 8.09017 5.87785 120
      vertex 6.69131 7.43145 120
    endloop
  endfacet
  facet normal 0 0 1
    outer loop
      vertex 9.78148 -2.07912 120
      vertex 5.6749 -1.9482 120
      vertex 9.13545 -4.06737 120
    endloop
  endfacet
  facet normal -0 0 1
    outer loop
      vertex 4.73484 -3.68528 120
      vertex 9.13545 -4.06737 120
      vertex 5.6749 -1.9482 120
    endloop
  endfacet
  facet normal 0 0 1
    outer loop
      vertex 9.78148 2.07912 120
      vertex 5.6749 1.9482 120
      vertex 6 0 120
    endloop
  endfacet
  facet normal 0 0 1
    outer loop
      vertex 3.28169 5.023 120
      vertex 6.69131 7.43145 120
      vertex 5 8.66025 120
    endloop
  endfacet
  facet normal 0 0 1
    outer loop
      vertex 9.13545 4.06737 120
      vertex 4.73484 3.68528 120
      vertex 5.6749 1.9482 120
    endloop
  endfacet
  facet normal 0 0 1
    outer loop
      vertex 6.69131 7.43145 120
      vertex 3.28169 5.023 120
      vertex 4.73484 3.68528 120
    endloop
  endfacet
  facet normal 0 0 1
    outer loop
      vertex 3.09017 9.51056 120
      vertex 3.28169 5.023 120
      vertex 5 8.66025 120
    endloop
  endfacet
  facet normal 0 0 1
    outer loop
      vertex 3.09017 9.51056 120
      vertex 1.47291 5.8164 120
      vertex 3.28169 5.023 120
    endloop
  endfacet
  facet normal 0 0 1
    outer loop
      vertex 1.04528 9.94522 120
      vertex 1.47291 5.8164 120
      vertex 3.09017 9.51056 120
    endloop
  endfacet
  facet normal 0 0 1
    outer loop
      vertex -0.495476 5.97951 120
      vertex 1.04528 9.94522 120
      vertex 0 9.94522 120
    endloop
  endfacet
  facet normal 0 0 1
    outer loop
      vertex 1.04528 9.94522 120
      vertex -0.495476 5.97951 120
      vertex 1.47291 5.8164 120
    endloop
  endfacet
  facet normal 0 0 1
    outer loop
      vertex 9.13545 -4.06737 120
      vertex 4.73484 -3.68528 120
      vertex 8.09017 -5.87785 120
    endloop
  endfacet
  facet normal 0 0 1
    outer loop
      vertex 8.09017 -5.87785 120
      vertex 4.73484 -3.68528 120
      vertex 6.69131 -7.43145 120
    endloop
  endfacet
  facet normal -0 0 1
    outer loop
      vertex 3.28169 -5.023 120
      vertex 6.69131 -7.43145 120
      vertex 4.73484 -3.68528 120
    endloop
  endfacet
  facet normal 0 0 1
    outer loop
      vertex 6.69131 -7.43145 120
      vertex 3.28169 -5.023 120
      vertex 5 -8.66025 120
    endloop
  endfacet
  facet normal 0 0 1
    outer loop
      vertex 3.28169 -5.023 120
      vertex 3.09017 -9.51056 120
      vertex 5 -8.66025 120
    endloop
  endfacet
  facet normal -0 0 1
    outer loop
      vertex 1.47291 -5.8164 120
      vertex 3.09017 -9.51056 120
      vertex 3.28169 -5.023 120
    endloop
  endfacet
  facet normal 0 0 1
    outer loop
      vertex 1.47291 -5.8164 120
      vertex 1.04528 -9.94522 120
      vertex 3.09017 -9.51056 120
    endloop
  endfacet
  facet normal -0 0 1
    outer loop
      vertex -0.495476 -5.97951 120
      vertex 1.04528 -9.94522 120
      vertex 1.47291 -5.8164 120
    endloop
  endfacet
  facet normal 0 0 1
    outer loop
      vertex 1.04528 -9.94522 120
      vertex -0.495476 -5.97951 120
      vertex 0 -9.94522 120
    endloop
  endfacet
  facet normal 0 0 1
    outer loop
      vertex -2.41017 -5.49464 120
      vertex 0 -9.94522 120
      vertex -0.495476 -5.97951 120
    endloop
  endfacet
  facet normal 0 0 1
    outer loop
      vertex -10 -10 120
      vertex 0 -9.94522 120
      vertex -2.41017 -5.49464 120
    endloop
  endfacet
  facet normal 0 0 1
    outer loop
      vertex -10 -10 120
      vertex -2.41017 -5.49464 120
      vertex -4.06369 -4.41434 120
    endloop
  endfacet
  facet normal 0 0 1
    outer loop
      vertex -10 -10 120
      vertex -4.06369 -4.41434 120
      vertex -5.27684 -2.85568 120
    endloop
  endfacet
  facet normal 0 0 1
    outer loop
      vertex -10 -10 120
      vertex -5.91817 -0.987567 120
      vertex -10 10 120
    endloop
  endfacet
  facet normal 0 0 1
    outer loop
      vertex 0 -9.94522 120
      vertex -10 -10 120
      vertex 0 -10 120
    endloop
  endfacet
  facet normal 0 0 1
    outer loop
      vertex -5.91817 -0.987567 120
      vertex -10 -10 120
      vertex -5.27684 -2.85568 120
    endloop
  endfacet
  facet normal 0.994522 -0.104529 0
    outer loop
      vertex 9.78148 -2.07912 120
      vertex 10 0 92
      vertex 10 0 120
    endloop
  endfacet
  facet normal 0.994522 -0.104529 0
    outer loop
      vertex 10 0 92
      vertex 9.78148 -2.07912 120
      vertex 9.78148 -2.07912 92
    endloop
  endfacet
  facet normal 0.994522 -0.104529 0
    outer loop
      vertex 9.78148 -2.07912 40
      vertex 10 0 0
      vertex 10 0 40
    endloop
  endfacet
  facet normal 0.994522 -0.104529 0
    outer loop
      vertex 10 0 0
      vertex 9.78148 -2.07912 40
      vertex 9.78148 -2.07912 0
    endloop
  endfacet
  facet normal 0.994522 -0.104529 0
    outer loop
      vertex 9.78148 -2.07912 80
      vertex 10 0 52
      vertex 10 0 80
    endloop
  endfacet
  facet normal 0.994522 -0.104529 0
    outer loop
      vertex 10 0 52
      vertex 9.78148 -2.07912 80
      vertex 9.78148 -2.07912 52
    endloop
  endfacet
  facet normal 0 0 -1
    outer loop
      vertex -10 -10 0
      vertex 0 -9.94522 0
      vertex 0 -10 0
    endloop
  endfacet
  facet normal 0 0 -1
    outer loop
      vertex 0 -9.94522 0
      vertex -2.41017 -5.49464 0
      vertex -0.495476 -5.97951 0
    endloop
  endfacet
  facet normal -0 0 -1
    outer loop
      vertex 0 -9.94522 0
      vertex -10 -10 0
      vertex -2.41017 -5.49464 0
    endloop
  endfacet
  facet normal -0 0 -1
    outer loop
      vertex -2.41017 -5.49464 0
      vertex -10 -10 0
      vertex -4.06369 -4.41434 0
    endloop
  endfacet
  facet normal -0 0 -1
    outer loop
      vertex -5.91817 -0.987567 0
      vertex -10 -10 0
      vertex -5.91817 0.987567 0
    endloop
  endfacet
  facet normal -0 0 -1
    outer loop
      vertex -5.27684 -2.85568 0
      vertex -10 -10 0
      vertex -5.91817 -0.987567 0
    endloop
  endfacet
  facet normal -0 0 -1
    outer loop
      vertex -4.06369 -4.41434 0
      vertex -10 -10 0
      vertex -5.27684 -2.85568 0
    endloop
  endfacet
  facet normal 0 0 -1
    outer loop
      vertex 6 0 0
      vertex 10 0 0
      vertex 9.78148 -2.07912 0
    endloop
  endfacet
  facet normal 0 0 -1
    outer loop
      vertex 5.6749 -1.9482 0
      vertex 9.78148 -2.07912 0
      vertex 9.13545 -4.06737 0
    endloop
  endfacet
  facet normal 0 0 -1
    outer loop
      vertex 10 0 0
      vertex 6 0 0
      vertex 9.78148 2.07912 0
    endloop
  endfacet
  facet normal 0 0 -1
    outer loop
      vertex 4.73484 -3.68528 0
      vertex 9.13545 -4.06737 0
      vertex 8.09017 -5.87785 0
    endloop
  endfacet
  facet normal 0 0 -1
    outer loop
      vertex 5.6749 1.9482 0
      vertex 9.78148 2.07912 0
      vertex 6 0 0
    endloop
  endfacet
  facet normal 0 0 -1
    outer loop
      vertex 4.73484 -3.68528 0
      vertex 8.09017 -5.87785 0
      vertex 6.69131 -7.43145 0
    endloop
  endfacet
  facet normal -0 0 -1
    outer loop
      vertex 9.78148 2.07912 0
      vertex 5.6749 1.9482 0
      vertex 9.13545 4.06737 0
    endloop
  endfacet
  facet normal 0 0 -1
    outer loop
      vertex 4.73484 3.68528 0
      vertex 9.13545 4.06737 0
      vertex 5.6749 1.9482 0
    endloop
  endfacet
  facet normal 0 0 -1
    outer loop
      vertex 9.78148 -2.07912 0
      vertex 5.6749 -1.9482 0
      vertex 6 0 0
    endloop
  endfacet
  facet normal 0 0 -1
    outer loop
      vertex 3.28169 -5.023 0
      vertex 6.69131 -7.43145 0
      vertex 5 -8.66025 0
    endloop
  endfacet
  facet normal 0 0 -1
    outer loop
      vertex 9.13545 -4.06737 0
      vertex 4.73484 -3.68528 0
      vertex 5.6749 -1.9482 0
    endloop
  endfacet
  facet normal 0 0 -1
    outer loop
      vertex 6.69131 -7.43145 0
      vertex 3.28169 -5.023 0
      vertex 4.73484 -3.68528 0
    endloop
  endfacet
  facet normal 0 0 -1
    outer loop
      vertex 3.09017 -9.51056 0
      vertex 3.28169 -5.023 0
      vertex 5 -8.66025 0
    endloop
  endfacet
  facet normal 0 0 -1
    outer loop
      vertex 3.09017 -9.51056 0
      vertex 1.47291 -5.8164 0
      vertex 3.28169 -5.023 0
    endloop
  endfacet
  facet normal 0 0 -1
    outer loop
      vertex 1.04528 -9.94522 0
      vertex 1.47291 -5.8164 0
      vertex 3.09017 -9.51056 0
    endloop
  endfacet
  facet normal 0 0 -1
    outer loop
      vertex -0.495476 -5.97951 0
      vertex 1.04528 -9.94522 0
      vertex 0 -9.94522 0
    endloop
  endfacet
  facet normal 0 0 -1
    outer loop
      vertex 1.04528 -9.94522 0
      vertex -0.495476 -5.97951 0
      vertex 1.47291 -5.8164 0
    endloop
  endfacet
  facet normal -0 0 -1
    outer loop
      vertex 9.13545 4.06737 0
      vertex 4.73484 3.68528 0
      vertex 8.09017 5.87785 0
    endloop
  endfacet
  facet normal -0 0 -1
    outer loop
      vertex 8.09017 5.87785 0
      vertex 4.73484 3.68528 0
      vertex 6.69131 7.43145 0
    endloop
  endfacet
  facet normal 0 0 -1
    outer loop
      vertex 3.28169 5.023 0
      vertex 6.69131 7.43145 0
      vertex 4.73484 3.68528 0
    endloop
  endfacet
  facet normal -0 0 -1
    outer loop
      vertex 6.69131 7.43145 0
      vertex 3.28169 5.023 0
      vertex 5 8.66025 0
    endloop
  endfacet
  facet normal 0 0 -1
    outer loop
      vertex 3.28169 5.023 0
      vertex 3.09017 9.51056 0
      vertex 5 8.66025 0
    endloop
  endfacet
  facet normal 0 0 -1
    outer loop
      vertex 1.47291 5.8164 0
      vertex 3.09017 9.51056 0
      vertex 3.28169 5.023 0
    endloop
  endfacet
  facet normal 0 0 -1
    outer loop
      vertex 1.47291 5.8164 0
      vertex 1.04528 9.94522 0
      vertex 3.09017 9.51056 0
    endloop
  endfacet
  facet normal 0 0 -1
    outer loop
      vertex -0.495476 5.97951 0
      vertex 1.04528 9.94522 0
      vertex 1.47291 5.8164 0
    endloop
  endfacet
  facet normal -0 0 -1
    outer loop
      vertex 1.04528 9.94522 0
      vertex -0.495476 5.97951 0
      vertex 0 9.94522 0
    endloop
  endfacet
  facet normal 0 0 -1
    outer loop
      vertex -2.41017 5.49464 0
      vertex 0 9.94522 0
      vertex -0.495476 5.97951 0
    endloop
  endfacet
  facet normal 0 0 -1
    outer loop
      vertex -10 10 0
      vertex 0 9.94522 0
      vertex -2.41017 5.49464 0
    endloop
  endfacet
  facet normal 0 0 -1
    outer loop
      vertex -10 10 0
      vertex -2.41017 5.49464 0
      vertex -4.06369 4.41434 0
    endloop
  endfacet
  facet normal 0 0 -1
    outer loop
      vertex -10 10 0
      vertex -4.06369 4.41434 0
      vertex -5.27684 2.85568 0
    endloop
  endfacet
  facet normal 0 0 -1
    outer loop
      vertex -10 10 0
      vertex -5.91817 0.987567 0
      vertex -10 -10 0
    endloop
  endfacet
  facet normal 0 0 -1
    outer loop
      vertex 0 9.94522 0
      vertex -10 10 0
      vertex 0 10 0
    endloop
  endfacet
  facet normal 0 0 -1
    outer loop
      vertex -5.91817 0.987567 0
      vertex -10 10 0
      vertex -5.27684 2.85568 0
    endloop
  endfacet
  facet normal 0.207911 -0.978148 0
    outer loop
      vertex 1.04528 -9.94522 0
      vertex 3.09017 -9.51056 40
      vertex 1.04528 -9.94522 40
    endloop
  endfacet
  facet normal 0.207911 -0.978148 0
    outer loop
      vertex 3.09017 -9.51056 40
      vertex 1.04528 -9.94522 0
      vertex 3.09017 -9.51056 0
    endloop
  endfacet
  facet normal 0.207911 -0.978148 0
    outer loop
      vertex 1.04528 -9.94522 92
      vertex 3.09017 -9.51056 120
      vertex 1.04528 -9.94522 120
    endloop
  endfacet
  facet normal 0.207911 -0.978148 0
    outer loop
      vertex 3.09017 -9.51056 120
      vertex 1.04528 -9.94522 92
      vertex 3.09017 -9.51056 92
    endloop
  endfacet
  facet normal 0.743145 -0.669131 0
    outer loop
      vertex 6.69131 -7.43145 40
      vertex 8.09017 -5.87785 0
      vertex 8.09017 -5.87785 40
    endloop
  endfacet
  facet normal 0.743145 -0.669131 0
    outer loop
      vertex 8.09017 -5.87785 0
      vertex 6.69131 -7.43145 40
      vertex 6.69131 -7.43145 0
    endloop
  endfacet
  facet normal 0.743145 -0.669131 0
    outer loop
      vertex 6.69131 -7.43145 120
      vertex 8.09017 -5.87785 92
      vertex 8.09017 -5.87785 120
    endloop
  endfacet
  facet normal 0.743145 -0.669131 0
    outer loop
      vertex 8.09017 -5.87785 92
      vertex 6.69131 -7.43145 120
      vertex 6.69131 -7.43145 92
    endloop
  endfacet
  facet normal 0.743145 -0.669131 0
    outer loop
      vertex 6.69131 -7.43145 80
      vertex 8.09017 -5.87785 52
      vertex 8.09017 -5.87785 80
    endloop
  endfacet
  facet normal 0.743145 -0.669131 0
    outer loop
      vertex 8.09017 -5.87785 52
      vertex 6.69131 -7.43145 80
      vertex 6.69131 -7.43145 52
    endloop
  endfacet
  facet normal 0.951057 -0.309017 0
    outer loop
      vertex 9.13545 -4.06737 120
      vertex 9.78148 -2.07912 92
      vertex 9.78148 -2.07912 120
    endloop
  endfacet
  facet normal 0.951057 -0.309017 0
    outer loop
      vertex 9.78148 -2.07912 92
      vertex 9.13545 -4.06737 120
      vertex 9.13545 -4.06737 92
    endloop
  endfacet
  facet normal 0.951057 -0.309017 0
    outer loop
      vertex 9.13545 -4.06737 40
      vertex 9.78148 -2.07912 0
      vertex 9.78148 -2.07912 40
    endloop
  endfacet
  facet normal 0.951057 -0.309017 0
    outer loop
      vertex 9.78148 -2.07912 0
      vertex 9.13545 -4.06737 40
      vertex 9.13545 -4.06737 0
    endloop
  endfacet
  facet normal 0.951057 -0.309017 0
    outer loop
      vertex 9.13545 -4.06737 80
      vertex 9.78148 -2.07912 52
      vertex 9.78148 -2.07912 80
    endloop
  endfacet
  facet normal 0.951057 -0.309017 0
    outer loop
      vertex 9.78148 -2.07912 52
      vertex 9.13545 -4.06737 80
      vertex 9.13545 -4.06737 52
    endloop
  endfacet
  facet normal 0.866026 -0.5 0
    outer loop
      vertex 8.09017 -5.87785 40
      vertex 9.13545 -4.06737 0
      vertex 9.13545 -4.06737 40
    endloop
  endfacet
  facet normal 0.866026 -0.5 0
    outer loop
      vertex 9.13545 -4.06737 0
      vertex 8.09017 -5.87785 40
      vertex 8.09017 -5.87785 0
    endloop
  endfacet
  facet normal 0.866026 -0.5 0
    outer loop
      vertex 8.09017 -5.87785 120
      vertex 9.13545 -4.06737 92
      vertex 9.13545 -4.06737 120
    endloop
  endfacet
  facet normal 0.866026 -0.5 0
    outer loop
      vertex 9.13545 -4.06737 92
      vertex 8.09017 -5.87785 120
      vertex 8.09017 -5.87785 92
    endloop
  endfacet
  facet normal 0.866026 -0.5 0
    outer loop
      vertex 8.09017 -5.87785 80
      vertex 9.13545 -4.06737 52
      vertex 9.13545 -4.06737 80
    endloop
  endfacet
  facet normal 0.866026 -0.5 0
    outer loop
      vertex 9.13545 -4.06737 52
      vertex 8.09017 -5.87785 80
      vertex 8.09017 -5.87785 52
    endloop
  endfacet
  facet normal 0.587785 -0.809017 0
    outer loop
      vertex 5 -8.66025 92
      vertex 6.69131 -7.43145 120
      vertex 5 -8.66025 120
    endloop
  endfacet
  facet normal 0.587785 -0.809017 0
    outer loop
      vertex 6.69131 -7.43145 120
      vertex 5 -8.66025 92
      vertex 6.69131 -7.43145 92
    endloop
  endfacet
  facet normal 0.587785 -0.809017 0
    outer loop
      vertex 5 -8.66025 0
      vertex 6.69131 -7.43145 40
      vertex 5 -8.66025 40
    endloop
  endfacet
  facet normal 0.587785 -0.809017 0
    outer loop
      vertex 6.69131 -7.43145 40
      vertex 5 -8.66025 0
      vertex 6.69131 -7.43145 0
    endloop
  endfacet
  facet normal 0.587785 -0.809017 0
    outer loop
      vertex 6 -7.93371 52
      vertex 6.69131 -7.43145 80
      vertex 6 -7.93371 80
    endloop
  endfacet
  facet normal 0.587785 -0.809017 0
    outer loop
      vertex 6.69131 -7.43145 80
      vertex 6 -7.93371 52
      vertex 6.69131 -7.43145 52
    endloop
  endfacet
  facet normal 0.406737 -0.913545 0
    outer loop
      vertex 3.09017 -9.51056 92
      vertex 5 -8.66025 120
      vertex 3.09017 -9.51056 120
    endloop
  endfacet
  facet normal 0.406737 -0.913545 0
    outer loop
      vertex 5 -8.66025 120
      vertex 3.09017 -9.51056 92
      vertex 5 -8.66025 92
    endloop
  endfacet
  facet normal 0.406737 -0.913545 0
    outer loop
      vertex 3.09017 -9.51056 0
      vertex 5 -8.66025 40
      vertex 3.09017 -9.51056 40
    endloop
  endfacet
  facet normal 0.406737 -0.913545 0
    outer loop
      vertex 5 -8.66025 40
      vertex 3.09017 -9.51056 0
      vertex 5 -8.66025 0
    endloop
  endfacet
  facet normal -1 0 0
    outer loop
      vertex -10 -10 0
      vertex -10 10 120
      vertex -10 10 0
    endloop
  endfacet
  facet normal -1 -0 0
    outer loop
      vertex -10 10 120
      vertex -10 -10 0
      vertex -10 -10 120
    endloop
  endfacet
  facet normal 1 -0 0
    outer loop
      vertex 0 -10 120
      vertex 0 -9.94522 92
      vertex 0 -9.94522 120
    endloop
  endfacet
  facet normal 1 0 0
    outer loop
      vertex 0 -9.94522 92
      vertex 0 -10 120
      vertex 0 -10 92
    endloop
  endfacet
  facet normal 1 -0 0
    outer loop
      vertex 0 9.94522 120
      vertex 0 10 0
      vertex 0 10 120
    endloop
  endfacet
  facet normal 1 0 0
    outer loop
      vertex 0 10 0
      vertex 0 9.94522 120
      vertex 0 9.94522 0
    endloop
  endfacet
  facet normal 1 -0 0
    outer loop
      vertex 0 -10 40
      vertex 0 -9.94522 0
      vertex 0 -9.94522 40
    endloop
  endfacet
  facet normal 1 0 0
    outer loop
      vertex 0 -9.94522 0
      vertex 0 -10 40
      vertex 0 -10 0
    endloop
  endfacet
  facet normal 0 -1 0
    outer loop
      vertex -10 -10 120
      vertex -6 -10 92
      vertex 0 -10 120
    endloop
  endfacet
  facet normal 0 -1 0
    outer loop
      vertex -10 -10 120
      vertex -6 -10 40
      vertex -6 -10 92
    endloop
  endfacet
  facet normal 0 -1 0
    outer loop
      vertex -10 -10 0
      vertex -6 -10 40
      vertex -10 -10 120
    endloop
  endfacet
  facet normal 0 -1 0
    outer loop
      vertex 0 -10 0
      vertex -6 -10 40
      vertex -10 -10 0
    endloop
  endfacet
  facet normal 0 -1 0
    outer loop
      vertex -6 -10 40
      vertex 0 -10 0
      vertex 0 -10 40
    endloop
  endfacet
  facet normal 0 -1 -0
    outer loop
      vertex 0 -10 120
      vertex -6 -10 92
      vertex 0 -10 92
    endloop
  endfacet
  facet normal 0 1 -0
    outer loop
      vertex 0 10 0
      vertex -10 10 120
      vertex 0 10 120
    endloop
  endfacet
  facet normal 0 1 0
    outer loop
      vertex -10 10 120
      vertex 0 10 0
      vertex -10 10 0
    endloop
  endfacet
  facet normal -0.986361 -0.164595 0
    outer loop
      vertex 6 0 0
      vertex 5.6749 1.9482 40
      vertex 5.6749 1.9482 0
    endloop
  endfacet
  facet normal -0.986361 -0.164595 0
    outer loop
      vertex 5.6749 1.9482 40
      vertex 6 0 0
      vertex 6 0 40
    endloop
  endfacet
  facet normal -0.986361 -0.164595 0
    outer loop
      vertex 6 0 92
      vertex 5.6749 1.9482 120
      vertex 5.6749 1.9482 92
    endloop
  endfacet
  facet normal -0.986361 -0.164595 0
    outer loop
      vertex 5.6749 1.9482 120
      vertex 6 0 92
      vertex 6 0 120
    endloop
  endfacet
  facet normal -0.986361 -0.164595 0
    outer loop
      vertex 6 0 52
      vertex 5.6749 1.9482 80
      vertex 5.6749 1.9482 52
    endloop
  endfacet
  facet normal -0.986361 -0.164595 0
    outer loop
      vertex 5.6749 1.9482 80
      vertex 6 0 52
      vertex 6 0 80
    endloop
  endfacet
  facet normal 1 0 0
    outer loop
      vertex -5.91817 0 40
      vertex -5.91817 0.987567 120
      vertex -5.91817 0 92
    endloop
  endfacet
  facet normal 1 -0 0
    outer loop
      vertex -5.91817 -0.987567 120
      vertex -5.91817 0 92
      vertex -5.91817 0.987567 120
    endloop
  endfacet
  facet normal 1 0 0
    outer loop
      vertex -5.91817 0 92
      vertex -5.91817 -0.987567 120
      vertex -5.91817 -0.987567 92
    endloop
  endfacet
  facet normal 1 0 0
    outer loop
      vertex -5.91817 0.987567 120
      vertex -5.91817 0 40
      vertex -5.91817 0.987567 0
    endloop
  endfacet
  facet normal 1 0 0
    outer loop
      vertex -5.91817 -0.987567 0
      vertex -5.91817 0 40
      vertex -5.91817 -0.987567 40
    endloop
  endfacet
  facet normal 1 0 0
    outer loop
      vertex -5.91817 0 40
      vertex -5.91817 -0.987567 0
      vertex -5.91817 0.987567 0
    endloop
  endfacet
  facet normal -0.0825792 -0.996585 0
    outer loop
      vertex -0.495476 5.97951 0
      vertex 1.47291 5.8164 120
      vertex -0.495476 5.97951 120
    endloop
  endfacet
  facet normal -0.0825792 -0.996585 -0
    outer loop
      vertex 1.47291 5.8164 120
      vertex -0.495476 5.97951 0
      vertex 1.47291 5.8164 0
    endloop
  endfacet
  facet normal -0.0825792 0.996585 0
    outer loop
      vertex 1.47291 -5.8164 92
      vertex -0.495476 -5.97951 120
      vertex 1.47291 -5.8164 120
    endloop
  endfacet
  facet normal -0.0825792 0.996585 0
    outer loop
      vertex -0.495476 -5.97951 120
      vertex 1.47291 -5.8164 92
      vertex -0.495476 -5.97951 92
    endloop
  endfacet
  facet normal -0.0825792 0.996585 0
    outer loop
      vertex 1.47291 -5.8164 0
      vertex -0.495476 -5.97951 40
      vertex 1.47291 -5.8164 40
    endloop
  endfacet
  facet normal -0.0825792 0.996585 0
    outer loop
      vertex -0.495476 -5.97951 40
      vertex 1.47291 -5.8164 0
      vertex -0.495476 -5.97951 0
    endloop
  endfacet
  facet normal -0.401695 0.915773 0
    outer loop
      vertex 3.28169 -5.023 92
      vertex 1.47291 -5.8164 120
      vertex 3.28169 -5.023 120
    endloop
  endfacet
  facet normal -0.401695 0.915773 0
    outer loop
      vertex 1.47291 -5.8164 120
      vertex 3.28169 -5.023 92
      vertex 1.47291 -5.8164 92
    endloop
  endfacet
  facet normal -0.401695 0.915773 0
    outer loop
      vertex 3.28169 -5.023 0
      vertex 1.47291 -5.8164 40
      vertex 3.28169 -5.023 40
    endloop
  endfacet
  facet normal -0.401695 0.915773 0
    outer loop
      vertex 1.47291 -5.8164 40
      vertex 3.28169 -5.023 0
      vertex 1.47291 -5.8164 0
    endloop
  endfacet
  facet normal -0.677282 -0.735724 0
    outer loop
      vertex 3.28169 5.023 0
      vertex 4.73484 3.68528 120
      vertex 3.28169 5.023 120
    endloop
  endfacet
  facet normal -0.677282 -0.735724 -0
    outer loop
      vertex 4.73484 3.68528 120
      vertex 3.28169 5.023 0
      vertex 4.73484 3.68528 0
    endloop
  endfacet
  facet normal -0.879474 -0.475947 0
    outer loop
      vertex 5.6749 1.9482 52
      vertex 5.64687 2 80
      vertex 5.64687 2 52
    endloop
  endfacet
  facet normal -0.879474 -0.475947 0
    outer loop
      vertex 5.64687 2 80
      vertex 5.6749 1.9482 52
      vertex 5.6749 1.9482 80
    endloop
  endfacet
  facet normal -0.879474 -0.475947 -0
    outer loop
      vertex 5.64687 2 52
      vertex 4.73484 3.68528 0
      vertex 5.64687 2 40
    endloop
  endfacet
  facet normal -0.879474 -0.475947 3.81156e-010
    outer loop
      vertex 5.6749 1.9482 0
      vertex 5.64687 2 40
      vertex 4.73484 3.68528 0
    endloop
  endfacet
  facet normal -0.879474 -0.475947 0
    outer loop
      vertex 5.64687 2 40
      vertex 5.6749 1.9482 0
      vertex 5.6749 1.9482 40
    endloop
  endfacet
  facet normal -0.879474 -0.475947 0
    outer loop
      vertex 4.73484 3.68528 0
      vertex 5.64687 2 52
      vertex 4.73484 3.68528 120
    endloop
  endfacet
  facet normal -0.879474 -0.475947 -0
    outer loop
      vertex 5.64687 2 80
      vertex 4.73484 3.68528 120
      vertex 5.64687 2 52
    endloop
  endfacet
  facet normal -0.879474 -0.475947 -0
    outer loop
      vertex 5.64687 2 92
      vertex 4.73484 3.68528 120
      vertex 5.64687 2 80
    endloop
  endfacet
  facet normal -0.879474 -0.475947 -0
    outer loop
      vertex 5.6749 1.9482 120
      vertex 5.64687 2 92
      vertex 5.6749 1.9482 92
    endloop
  endfacet
  facet normal -0.879474 -0.475947 -5.44508e-010
    outer loop
      vertex 5.64687 2 92
      vertex 5.6749 1.9482 120
      vertex 4.73484 3.68528 120
    endloop
  endfacet
  facet normal -0.401695 -0.915773 0
    outer loop
      vertex 1.47291 5.8164 0
      vertex 3.28169 5.023 120
      vertex 1.47291 5.8164 120
    endloop
  endfacet
  facet normal -0.401695 -0.915773 -0
    outer loop
      vertex 3.28169 5.023 120
      vertex 1.47291 5.8164 0
      vertex 3.28169 5.023 0
    endloop
  endfacet
  facet normal 0.78914 -0.614213 0
    outer loop
      vertex -5.27684 2.85568 120
      vertex -4.06369 4.41434 0
      vertex -4.06369 4.41434 120
    endloop
  endfacet
  facet normal 0.78914 -0.614213 0
    outer loop
      vertex -4.06369 4.41434 0
      vertex -5.27684 2.85568 120
      vertex -5.27684 2.85568 0
    endloop
  endfacet
  facet normal 0.945817 -0.324699 0
    outer loop
      vertex -5.91817 0.987567 120
      vertex -5.27684 2.85568 0
      vertex -5.27684 2.85568 120
    endloop
  endfacet
  facet normal 0.945817 -0.324699 0
    outer loop
      vertex -5.27684 2.85568 0
      vertex -5.91817 0.987567 120
      vertex -5.91817 0.987567 0
    endloop
  endfacet
  facet normal 0.245486 -0.9694 0
    outer loop
      vertex -2.41017 5.49464 0
      vertex -0.495476 5.97951 120
      vertex -2.41017 5.49464 120
    endloop
  endfacet
  facet normal 0.245486 -0.9694 0
    outer loop
      vertex -0.495476 5.97951 120
      vertex -2.41017 5.49464 0
      vertex -0.495476 5.97951 0
    endloop
  endfacet
  facet normal 0.546948 0.837166 -0
    outer loop
      vertex -2.41017 -5.49464 0
      vertex -4.06369 -4.41434 40
      vertex -2.41017 -5.49464 40
    endloop
  endfacet
  facet normal 0.546948 0.837166 0
    outer loop
      vertex -4.06369 -4.41434 40
      vertex -2.41017 -5.49464 0
      vertex -4.06369 -4.41434 0
    endloop
  endfacet
  facet normal 0.546948 0.837166 -0
    outer loop
      vertex -2.41017 -5.49464 92
      vertex -4.06369 -4.41434 120
      vertex -2.41017 -5.49464 120
    endloop
  endfacet
  facet normal 0.546948 0.837166 0
    outer loop
      vertex -4.06369 -4.41434 120
      vertex -2.41017 -5.49464 92
      vertex -4.06369 -4.41434 92
    endloop
  endfacet
  facet normal 0.945817 0.324699 0
    outer loop
      vertex -5.27684 -2.85568 40
      vertex -5.91817 -0.987567 0
      vertex -5.91817 -0.987567 40
    endloop
  endfacet
  facet normal 0.945817 0.324699 0
    outer loop
      vertex -5.91817 -0.987567 0
      vertex -5.27684 -2.85568 40
      vertex -5.27684 -2.85568 0
    endloop
  endfacet
  facet normal 0.945817 0.324699 0
    outer loop
      vertex -5.27684 -2.85568 120
      vertex -5.91817 -0.987567 92
      vertex -5.91817 -0.987567 120
    endloop
  endfacet
  facet normal 0.945817 0.324699 0
    outer loop
      vertex -5.91817 -0.987567 92
      vertex -5.27684 -2.85568 120
      vertex -5.27684 -2.85568 92
    endloop
  endfacet
  facet normal 0.546948 -0.837166 0
    outer loop
      vertex -4.06369 4.41434 0
      vertex -2.41017 5.49464 120
      vertex -4.06369 4.41434 120
    endloop
  endfacet
  facet normal 0.546948 -0.837166 0
    outer loop
      vertex -2.41017 5.49464 120
      vertex -4.06369 4.41434 0
      vertex -2.41017 5.49464 0
    endloop
  endfacet
  facet normal -0.986361 0.164595 0
    outer loop
      vertex 5.6749 -1.9482 92
      vertex 6 0 120
      vertex 6 0 92
    endloop
  endfacet
  facet normal -0.986361 0.164595 0
    outer loop
      vertex 6 0 120
      vertex 5.6749 -1.9482 92
      vertex 5.6749 -1.9482 120
    endloop
  endfacet
  facet normal -0.986361 0.164595 0
    outer loop
      vertex 5.6749 -1.9482 0
      vertex 6 0 40
      vertex 6 0 0
    endloop
  endfacet
  facet normal -0.986361 0.164595 0
    outer loop
      vertex 6 0 40
      vertex 5.6749 -1.9482 0
      vertex 5.6749 -1.9482 40
    endloop
  endfacet
  facet normal 0.245486 0.9694 -0
    outer loop
      vertex -0.495476 -5.97951 0
      vertex -2.41017 -5.49464 40
      vertex -0.495476 -5.97951 40
    endloop
  endfacet
  facet normal 0.245486 0.9694 0
    outer loop
      vertex -2.41017 -5.49464 40
      vertex -0.495476 -5.97951 0
      vertex -2.41017 -5.49464 0
    endloop
  endfacet
  facet normal 0.245486 0.9694 -0
    outer loop
      vertex -0.495476 -5.97951 92
      vertex -2.41017 -5.49464 120
      vertex -0.495476 -5.97951 120
    endloop
  endfacet
  facet normal 0.245486 0.9694 0
    outer loop
      vertex -2.41017 -5.49464 120
      vertex -0.495476 -5.97951 92
      vertex -2.41017 -5.49464 92
    endloop
  endfacet
  facet normal 0.78914 0.614213 0
    outer loop
      vertex -4.06369 -4.41434 40
      vertex -5.27684 -2.85568 0
      vertex -5.27684 -2.85568 40
    endloop
  endfacet
  facet normal 0.78914 0.614213 0
    outer loop
      vertex -5.27684 -2.85568 0
      vertex -4.06369 -4.41434 40
      vertex -4.06369 -4.41434 0
    endloop
  endfacet
  facet normal 0.78914 0.614213 0
    outer loop
      vertex -4.06369 -4.41434 120
      vertex -5.27684 -2.85568 92
      vertex -5.27684 -2.85568 120
    endloop
  endfacet
  facet normal 0.78914 0.614213 0
    outer loop
      vertex -5.27684 -2.85568 92
      vertex -4.06369 -4.41434 120
      vertex -4.06369 -4.41434 92
    endloop
  endfacet
  facet normal -0.677282 0.735724 0
    outer loop
      vertex 4.73484 -3.68528 92
      vertex 3.28169 -5.023 120
      vertex 4.73484 -3.68528 120
    endloop
  endfacet
  facet normal -0.677282 0.735724 0
    outer loop
      vertex 3.28169 -5.023 120
      vertex 4.73484 -3.68528 92
      vertex 3.28169 -5.023 92
    endloop
  endfacet
  facet normal -0.677282 0.735724 0
    outer loop
      vertex 4.73484 -3.68528 0
      vertex 3.28169 -5.023 40
      vertex 4.73484 -3.68528 40
    endloop
  endfacet
  facet normal -0.677282 0.735724 0
    outer loop
      vertex 3.28169 -5.023 40
      vertex 4.73484 -3.68528 0
      vertex 3.28169 -5.023 0
    endloop
  endfacet
  facet normal -0.879474 0.475947 0
    outer loop
      vertex 4.73484 -3.68528 0
      vertex 5.6749 -1.9482 40
      vertex 5.6749 -1.9482 0
    endloop
  endfacet
  facet normal -0.879474 0.475947 0
    outer loop
      vertex 5.6749 -1.9482 40
      vertex 4.73484 -3.68528 0
      vertex 4.73484 -3.68528 40
    endloop
  endfacet
  facet normal -0.879474 0.475947 0
    outer loop
      vertex 4.73484 -3.68528 92
      vertex 5.6749 -1.9482 120
      vertex 5.6749 -1.9482 92
    endloop
  endfacet
  facet normal -0.879474 0.475947 0
    outer loop
      vertex 5.6749 -1.9482 120
      vertex 4.73484 -3.68528 92
      vertex 4.73484 -3.68528 120
    endloop
  endfacet
  facet normal 1 -0 0
    outer loop
      vertex -6 -10 92
      vertex -6 0 40
      vertex -6 0 92
    endloop
  endfacet
  facet normal 1 0 0
    outer loop
      vertex -6 0 40
      vertex -6 -10 92
      vertex -6 -10 40
    endloop
  endfacet
  facet normal 0 0 -1
    outer loop
      vertex -6 -10 92
      vertex 0 -9.94522 92
      vertex 0 -10 92
    endloop
  endfacet
  facet normal 0 0 -1
    outer loop
      vertex 0 -9.94522 92
      vertex -2.41017 -5.49464 92
      vertex -0.495476 -5.97951 92
    endloop
  endfacet
  facet normal -0 0 -1
    outer loop
      vertex 0 -9.94522 92
      vertex -6 -10 92
      vertex -2.41017 -5.49464 92
    endloop
  endfacet
  facet normal -0 0 -1
    outer loop
      vertex -2.41017 -5.49464 92
      vertex -6 -10 92
      vertex -4.06369 -4.41434 92
    endloop
  endfacet
  facet normal -0 0 -1
    outer loop
      vertex -4.06369 -4.41434 92
      vertex -6 -10 92
      vertex -5.27684 -2.85568 92
    endloop
  endfacet
  facet normal 0 0 -1
    outer loop
      vertex -6 -10 92
      vertex -5.91817 -0.987567 92
      vertex -5.27684 -2.85568 92
    endloop
  endfacet
  facet normal 0 0 -1
    outer loop
      vertex -6 0 92
      vertex -5.91817 -0.987567 92
      vertex -6 -10 92
    endloop
  endfacet
  facet normal 0 0 -1
    outer loop
      vertex -5.91817 -0.987567 92
      vertex -6 0 92
      vertex -5.91817 0 92
    endloop
  endfacet
  facet normal 0 0 -1
    outer loop
      vertex 9.78148 -2.07912 92
      vertex 5.6749 -1.9482 92
      vertex 6 0 92
    endloop
  endfacet
  facet normal 0 0 -1
    outer loop
      vertex 3.28169 -5.023 92
      vertex 6.69131 -7.43145 92
      vertex 5 -8.66025 92
    endloop
  endfacet
  facet normal 0 0 -1
    outer loop
      vertex 8.09017 -5.87785 92
      vertex 4.73484 -3.68528 92
      vertex 5.6749 -1.9482 92
    endloop
  endfacet
  facet normal 0 0 -1
    outer loop
      vertex 6.69131 -7.43145 92
      vertex 3.28169 -5.023 92
      vertex 4.73484 -3.68528 92
    endloop
  endfacet
  facet normal 0 0 -1
    outer loop
      vertex 3.09017 -9.51056 92
      vertex 3.28169 -5.023 92
      vertex 5 -8.66025 92
    endloop
  endfacet
  facet normal 0 0 -1
    outer loop
      vertex 3.09017 -9.51056 92
      vertex 1.47291 -5.8164 92
      vertex 3.28169 -5.023 92
    endloop
  endfacet
  facet normal 0 0 -1
    outer loop
      vertex 1.04528 -9.94522 92
      vertex 1.47291 -5.8164 92
      vertex 3.09017 -9.51056 92
    endloop
  endfacet
  facet normal 0 0 -1
    outer loop
      vertex -0.495476 -5.97951 92
      vertex 1.04528 -9.94522 92
      vertex 0 -9.94522 92
    endloop
  endfacet
  facet normal 0 0 -1
    outer loop
      vertex 1.04528 -9.94522 92
      vertex -0.495476 -5.97951 92
      vertex 1.47291 -5.8164 92
    endloop
  endfacet
  facet normal 0 0 -1
    outer loop
      vertex 6 0 92
      vertex 10 0 92
      vertex 9.78148 -2.07912 92
    endloop
  endfacet
  facet normal 0 0 -1
    outer loop
      vertex 5.6749 -1.9482 92
      vertex 9.78148 -2.07912 92
      vertex 9.13545 -4.06737 92
    endloop
  endfacet
  facet normal 0 0 -1
    outer loop
      vertex 5.6749 -1.9482 92
      vertex 9.13545 -4.06737 92
      vertex 8.09017 -5.87785 92
    endloop
  endfacet
  facet normal 0 0 -1
    outer loop
      vertex 4.73484 -3.68528 92
      vertex 8.09017 -5.87785 92
      vertex 6.69131 -7.43145 92
    endloop
  endfacet
  facet normal 0 0 -1
    outer loop
      vertex 10 0 92
      vertex 6 0 92
      vertex 9.78979 2 92
    endloop
  endfacet
  facet normal 0 0 -1
    outer loop
      vertex 5.6749 1.9482 92
      vertex 9.78979 2 92
      vertex 6 0 92
    endloop
  endfacet
  facet normal -0 0 -1
    outer loop
      vertex 9.78979 2 92
      vertex 5.6749 1.9482 92
      vertex 5.64687 2 92
    endloop
  endfacet
  facet normal -1 0 0
    outer loop
      vertex 6 -7.93371 52
      vertex 6 0 80
      vertex 6 0 52
    endloop
  endfacet
  facet normal -1 -0 0
    outer loop
      vertex 6 0 80
      vertex 6 -7.93371 52
      vertex 6 -7.93371 80
    endloop
  endfacet
  facet normal 0 0 1
    outer loop
      vertex -5.91817 0 40
      vertex -6 0 40
      vertex -5.91817 -0.987567 40
    endloop
  endfacet
  facet normal 0 0 1
    outer loop
      vertex 6 0 40
      vertex 10 0 40
      vertex 9.78979 2 40
    endloop
  endfacet
  facet normal 0 0 1
    outer loop
      vertex 10 0 40
      vertex 6 0 40
      vertex 9.78148 -2.07912 40
    endloop
  endfacet
  facet normal -0 0 1
    outer loop
      vertex 5.6749 -1.9482 40
      vertex 9.78148 -2.07912 40
      vertex 6 0 40
    endloop
  endfacet
  facet normal -0 0 1
    outer loop
      vertex 4.73484 -3.68528 40
      vertex 9.13545 -4.06737 40
      vertex 5.6749 -1.9482 40
    endloop
  endfacet
  facet normal 0 0 1
    outer loop
      vertex 9.78148 -2.07912 40
      vertex 5.6749 -1.9482 40
      vertex 9.13545 -4.06737 40
    endloop
  endfacet
  facet normal 0 0 1
    outer loop
      vertex 9.78979 2 40
      vertex 5.6749 1.9482 40
      vertex 6 0 40
    endloop
  endfacet
  facet normal 0 -0 1
    outer loop
      vertex 5.6749 1.9482 40
      vertex 9.78979 2 40
      vertex 5.64687 2 40
    endloop
  endfacet
  facet normal 0 0 1
    outer loop
      vertex 9.13545 -4.06737 40
      vertex 4.73484 -3.68528 40
      vertex 8.09017 -5.87785 40
    endloop
  endfacet
  facet normal 0 0 1
    outer loop
      vertex 8.09017 -5.87785 40
      vertex 4.73484 -3.68528 40
      vertex 6.69131 -7.43145 40
    endloop
  endfacet
  facet normal -0 0 1
    outer loop
      vertex 3.28169 -5.023 40
      vertex 6.69131 -7.43145 40
      vertex 4.73484 -3.68528 40
    endloop
  endfacet
  facet normal 0 0 1
    outer loop
      vertex 6.69131 -7.43145 40
      vertex 3.28169 -5.023 40
      vertex 5 -8.66025 40
    endloop
  endfacet
  facet normal 0 0 1
    outer loop
      vertex 3.28169 -5.023 40
      vertex 3.09017 -9.51056 40
      vertex 5 -8.66025 40
    endloop
  endfacet
  facet normal -0 0 1
    outer loop
      vertex 1.47291 -5.8164 40
      vertex 3.09017 -9.51056 40
      vertex 3.28169 -5.023 40
    endloop
  endfacet
  facet normal 0 0 1
    outer loop
      vertex 1.47291 -5.8164 40
      vertex 1.04528 -9.94522 40
      vertex 3.09017 -9.51056 40
    endloop
  endfacet
  facet normal -0 0 1
    outer loop
      vertex -0.495476 -5.97951 40
      vertex 1.04528 -9.94522 40
      vertex 1.47291 -5.8164 40
    endloop
  endfacet
  facet normal 0 0 1
    outer loop
      vertex 1.04528 -9.94522 40
      vertex -0.495476 -5.97951 40
      vertex 0 -9.94522 40
    endloop
  endfacet
  facet normal 0 0 1
    outer loop
      vertex -2.41017 -5.49464 40
      vertex 0 -9.94522 40
      vertex -0.495476 -5.97951 40
    endloop
  endfacet
  facet normal 0 0 1
    outer loop
      vertex -6 -10 40
      vertex 0 -9.94522 40
      vertex -2.41017 -5.49464 40
    endloop
  endfacet
  facet normal 0 0 1
    outer loop
      vertex -6 -10 40
      vertex -2.41017 -5.49464 40
      vertex -4.06369 -4.41434 40
    endloop
  endfacet
  facet normal 0 0 1
    outer loop
      vertex -6 -10 40
      vertex -4.06369 -4.41434 40
      vertex -5.27684 -2.85568 40
    endloop
  endfacet
  facet normal 0 0 1
    outer loop
      vertex 0 -9.94522 40
      vertex -6 -10 40
      vertex 0 -10 40
    endloop
  endfacet
  facet normal 0 0 1
    outer loop
      vertex -5.91817 -0.987567 40
      vertex -6 -10 40
      vertex -5.27684 -2.85568 40
    endloop
  endfacet
  facet normal 0 0 1
    outer loop
      vertex -6 -10 40
      vertex -5.91817 -0.987567 40
      vertex -6 0 40
    endloop
  endfacet
  facet normal 0 -1 0
    outer loop
      vertex -6 0 40
      vertex -5.91817 0 92
      vertex -6 0 92
    endloop
  endfacet
  facet normal 0 -1 -0
    outer loop
      vertex -5.91817 0 92
      vertex -6 0 40
      vertex -5.91817 0 40
    endloop
  endfacet
  facet normal 0 0 -1
    outer loop
      vertex 6 0 52
      vertex 10 0 52
      vertex 9.78148 -2.07912 52
    endloop
  endfacet
  facet normal 0 0 -1
    outer loop
      vertex 6 0 52
      vertex 9.78148 -2.07912 52
      vertex 9.13545 -4.06737 52
    endloop
  endfacet
  facet normal 0 0 -1
    outer loop
      vertex 6 0 52
      vertex 9.13545 -4.06737 52
      vertex 8.09017 -5.87785 52
    endloop
  endfacet
  facet normal 0 0 -1
    outer loop
      vertex 6 0 52
      vertex 8.09017 -5.87785 52
      vertex 6.69131 -7.43145 52
    endloop
  endfacet
  facet normal 0 0 -1
    outer loop
      vertex 6 0 52
      vertex 6.69131 -7.43145 52
      vertex 6 -7.93371 52
    endloop
  endfacet
  facet normal 0 0 -1
    outer loop
      vertex 10 0 52
      vertex 6 0 52
      vertex 9.78979 2 52
    endloop
  endfacet
  facet normal 0 0 -1
    outer loop
      vertex 5.6749 1.9482 52
      vertex 9.78979 2 52
      vertex 6 0 52
    endloop
  endfacet
  facet normal -0 0 -1
    outer loop
      vertex 9.78979 2 52
      vertex 5.6749 1.9482 52
      vertex 5.64687 2 52
    endloop
  endfacet
  facet normal 0 -1 0
    outer loop
      vertex 5.64687 2 40
      vertex 9.78979 2 52
      vertex 5.64687 2 52
    endloop
  endfacet
  facet normal 0 -1 -0
    outer loop
      vertex 9.78979 2 52
      vertex 5.64687 2 40
      vertex 9.78979 2 40
    endloop
  endfacet
  facet normal 0 -1 0
    outer loop
      vertex 5.64687 2 80
      vertex 9.78979 2 92
      vertex 5.64687 2 92
    endloop
  endfacet
  facet normal 0 -1 -0
    outer loop
      vertex 9.78979 2 92
      vertex 5.64687 2 80
      vertex 9.78979 2 80
    endloop
  endfacet
  facet normal 0 0 1
    outer loop
      vertex 6 0 80
      vertex 10 0 80
      vertex 9.78979 2 80
    endloop
  endfacet
  facet normal 0 0 1
    outer loop
      vertex 10 0 80
      vertex 6 0 80
      vertex 9.78148 -2.07912 80
    endloop
  endfacet
  facet normal 0 0 1
    outer loop
      vertex 9.78148 -2.07912 80
      vertex 6 0 80
      vertex 9.13545 -4.06737 80
    endloop
  endfacet
  facet normal 0 0 1
    outer loop
      vertex 9.13545 -4.06737 80
      vertex 6 0 80
      vertex 8.09017 -5.87785 80
    endloop
  endfacet
  facet normal 0 0 1
    outer loop
      vertex 8.09017 -5.87785 80
      vertex 6 0 80
      vertex 6.69131 -7.43145 80
    endloop
  endfacet
  facet normal 0 0 1
    outer loop
      vertex 9.78979 2 80
      vertex 5.6749 1.9482 80
      vertex 6 0 80
    endloop
  endfacet
  facet normal 0 -0 1
    outer loop
      vertex 5.6749 1.9482 80
      vertex 9.78979 2 80
      vertex 5.64687 2 80
    endloop
  endfacet
  facet normal 0 0 1
    outer loop
      vertex 6.69131 -7.43145 80
      vertex 6 0 80
      vertex 6 -7.93371 80
    endloop
  endfacet
endsolid OpenSCAD_Model
