solid OpenSCAD_Model
  facet normal 0.923879 0.382684 0
    outer loop
      vertex -4.83503 -7.23503 6.8
      vertex -5.53797 -5.53797 5
      vertex -5.53797 -5.53797 6.8
    endloop
  endfacet
  facet normal 0.923879 0.382684 0
    outer loop
      vertex -5.53797 -5.53797 5
      vertex -4.83503 -7.23503 6.8
      vertex -4.83503 -7.23503 5
    endloop
  endfacet
  facet normal -0.923879 0.382684 0
    outer loop
      vertex -9.63503 -7.23503 5
      vertex -8.93209 -5.53797 6.8
      vertex -8.93209 -5.53797 5
    endloop
  endfacet
  facet normal -0.923879 0.382684 0
    outer loop
      vertex -8.93209 -5.53797 6.8
      vertex -9.63503 -7.23503 5
      vertex -9.63503 -7.23503 6.8
    endloop
  endfacet
  facet normal 0.382684 0.923879 -0
    outer loop
      vertex -5.53797 -5.53797 5
      vertex -7.23503 -4.83503 6.8
      vertex -5.53797 -5.53797 6.8
    endloop
  endfacet
  facet normal 0.382684 0.923879 0
    outer loop
      vertex -7.23503 -4.83503 6.8
      vertex -5.53797 -5.53797 5
      vertex -7.23503 -4.83503 5
    endloop
  endfacet
  facet normal 0 0 1
    outer loop
      vertex -5.53797 -5.53797 5
      vertex -0.932086 -5.53797 5
      vertex -5.53797 -0.932086 5
    endloop
  endfacet
  facet normal 0 0 1
    outer loop
      vertex -0.932086 -5.53797 5
      vertex -5.53797 -5.53797 5
      vertex -4.83503 -7.23503 5
    endloop
  endfacet
  facet normal -0 0 1
    outer loop
      vertex -7.23503 -1.63503 5
      vertex -5.53797 -5.53797 5
      vertex -5.53797 -0.932086 5
    endloop
  endfacet
  facet normal 0 0 1
    outer loop
      vertex -7.23503 -1.63503 5
      vertex -7.23503 -4.83503 5
      vertex -5.53797 -5.53797 5
    endloop
  endfacet
  facet normal 0 0 1
    outer loop
      vertex -8.93209 -0.932086 5
      vertex -7.23503 -4.83503 5
      vertex -7.23503 -1.63503 5
    endloop
  endfacet
  facet normal 0 0 1
    outer loop
      vertex -8.93209 -0.932086 5
      vertex -8.93209 -5.53797 5
      vertex -7.23503 -4.83503 5
    endloop
  endfacet
  facet normal 0 0 1
    outer loop
      vertex -18.5848 -3.95032 5
      vertex -8.93209 -0.932086 5
      vertex -9.63503 0.764971 5
    endloop
  endfacet
  facet normal 0 0 1
    outer loop
      vertex -8.93209 -0.932086 5
      vertex -18.5848 -3.95032 5
      vertex -8.93209 -5.53797 5
    endloop
  endfacet
  facet normal 0 0 1
    outer loop
      vertex -5.53797 2.46203 5
      vertex -0.932086 2.46203 5
      vertex -5.53797 7.06791 5
    endloop
  endfacet
  facet normal 0 0 1
    outer loop
      vertex -0.932086 2.46203 5
      vertex -5.53797 2.46203 5
      vertex -4.83503 0.764971 5
    endloop
  endfacet
  facet normal -0 0 1
    outer loop
      vertex -7.23503 6.36497 5
      vertex -5.53797 2.46203 5
      vertex -5.53797 7.06791 5
    endloop
  endfacet
  facet normal 0 0 1
    outer loop
      vertex -7.23503 6.36497 5
      vertex -7.23503 3.16497 5
      vertex -5.53797 2.46203 5
    endloop
  endfacet
  facet normal 0 0 1
    outer loop
      vertex -8.93209 7.06791 5
      vertex -7.23503 3.16497 5
      vertex -7.23503 6.36497 5
    endloop
  endfacet
  facet normal 0 0 1
    outer loop
      vertex -8.93209 7.06791 5
      vertex -8.93209 2.46203 5
      vertex -7.23503 3.16497 5
    endloop
  endfacet
  facet normal -0 0 1
    outer loop
      vertex -17.3574 7.728 5
      vertex -8.93209 7.06791 5
      vertex -9.63503 8.76497 5
    endloop
  endfacet
  facet normal 0 0 1
    outer loop
      vertex -8.93209 7.06791 5
      vertex -17.3574 7.728 5
      vertex -8.93209 2.46203 5
    endloop
  endfacet
  facet normal 0 0 1
    outer loop
      vertex -0.932086 -5.53797 5
      vertex -4.83503 -7.23503 5
      vertex -1.63503 -7.23503 5
    endloop
  endfacet
  facet normal 0 0 1
    outer loop
      vertex -5.53797 -8.93209 5
      vertex -1.63503 -7.23503 5
      vertex -4.83503 -7.23503 5
    endloop
  endfacet
  facet normal 0 0 1
    outer loop
      vertex -1.63503 -7.23503 5
      vertex -5.53797 -8.93209 5
      vertex -1.98604 -18.8959 5
    endloop
  endfacet
  facet normal 0 0 1
    outer loop
      vertex -5.53797 -8.93209 5
      vertex -5.87132 -18.0701 5
      vertex -1.98604 -18.8959 5
    endloop
  endfacet
  facet normal -0 0 1
    outer loop
      vertex -7.23503 -9.63503 5
      vertex -5.87132 -18.0701 5
      vertex -5.53797 -8.93209 5
    endloop
  endfacet
  facet normal 0 0 1
    outer loop
      vertex -12.7135 -14.1198 5
      vertex -7.23503 -9.63503 5
      vertex -8.93209 -8.93209 5
    endloop
  endfacet
  facet normal 0 0 1
    outer loop
      vertex -7.23503 -9.63503 5
      vertex -9.5 -16.4545 5
      vertex -5.87132 -18.0701 5
    endloop
  endfacet
  facet normal 0 0 1
    outer loop
      vertex -15.3713 -11.1679 5
      vertex -8.93209 -8.93209 5
      vertex -9.63503 -7.23503 5
    endloop
  endfacet
  facet normal -0 0 1
    outer loop
      vertex -18.5848 3.95032 5
      vertex -8.93209 2.46203 5
      vertex -17.3574 7.728 5
    endloop
  endfacet
  facet normal 0 0 1
    outer loop
      vertex -7.23503 -9.63503 5
      vertex -12.7135 -14.1198 5
      vertex -9.5 -16.4545 5
    endloop
  endfacet
  facet normal 0 0 1
    outer loop
      vertex -8.93209 2.46203 5
      vertex -18.5848 3.95032 5
      vertex -9.63503 0.764971 5
    endloop
  endfacet
  facet normal 0 0 1
    outer loop
      vertex -8.93209 -8.93209 5
      vertex -15.3713 -11.1679 5
      vertex -12.7135 -14.1198 5
    endloop
  endfacet
  facet normal 0 0 1
    outer loop
      vertex -19 0 5
      vertex -9.63503 0.764971 5
      vertex -18.5848 3.95032 5
    endloop
  endfacet
  facet normal 0 0 1
    outer loop
      vertex -9.63503 -7.23503 5
      vertex -17.3574 -7.728 5
      vertex -15.3713 -11.1679 5
    endloop
  endfacet
  facet normal 0 -0 1
    outer loop
      vertex -18.5848 -3.95032 5
      vertex -9.63503 0.764971 5
      vertex -19 0 5
    endloop
  endfacet
  facet normal 0 0 1
    outer loop
      vertex -8.93209 -5.53797 5
      vertex -17.3574 -7.728 5
      vertex -9.63503 -7.23503 5
    endloop
  endfacet
  facet normal 0 -0 1
    outer loop
      vertex -17.3574 -7.728 5
      vertex -8.93209 -5.53797 5
      vertex -18.5848 -3.95032 5
    endloop
  endfacet
  facet normal 0 0 1
    outer loop
      vertex 2.46203 -5.53797 5
      vertex 7.06791 -5.53797 5
      vertex 2.46203 -0.932086 5
    endloop
  endfacet
  facet normal 0 0 1
    outer loop
      vertex 7.06791 -5.53797 5
      vertex 2.46203 -5.53797 5
      vertex 3.16497 -7.23503 5
    endloop
  endfacet
  facet normal -0 0 1
    outer loop
      vertex 0.764971 -1.63503 5
      vertex 2.46203 -5.53797 5
      vertex 2.46203 -0.932086 5
    endloop
  endfacet
  facet normal 0 0 1
    outer loop
      vertex 0.764971 -1.63503 5
      vertex 0.764971 -4.83503 5
      vertex 2.46203 -5.53797 5
    endloop
  endfacet
  facet normal 0 0 1
    outer loop
      vertex -0.932086 -0.932086 5
      vertex 0.764971 -4.83503 5
      vertex 0.764971 -1.63503 5
    endloop
  endfacet
  facet normal 0 0 1
    outer loop
      vertex -0.932086 -0.932086 5
      vertex -0.932086 -5.53797 5
      vertex 0.764971 -4.83503 5
    endloop
  endfacet
  facet normal -0 0 1
    outer loop
      vertex -4.83503 0.764971 5
      vertex -0.932086 -0.932086 5
      vertex -1.63503 0.764971 5
    endloop
  endfacet
  facet normal 0 0 1
    outer loop
      vertex -5.53797 -0.932086 5
      vertex -0.932086 -0.932086 5
      vertex -4.83503 0.764971 5
    endloop
  endfacet
  facet normal 0 0 1
    outer loop
      vertex 2.46203 2.46203 5
      vertex 7.06791 2.46203 5
      vertex 2.46203 7.06791 5
    endloop
  endfacet
  facet normal 0 0 1
    outer loop
      vertex 7.06791 2.46203 5
      vertex 2.46203 2.46203 5
      vertex 3.16497 0.764971 5
    endloop
  endfacet
  facet normal -0 0 1
    outer loop
      vertex 0.764971 6.36497 5
      vertex 2.46203 2.46203 5
      vertex 2.46203 7.06791 5
    endloop
  endfacet
  facet normal 0 0 1
    outer loop
      vertex 0.764971 6.36497 5
      vertex 0.764971 3.16497 5
      vertex 2.46203 2.46203 5
    endloop
  endfacet
  facet normal 0 0 1
    outer loop
      vertex -0.932086 7.06791 5
      vertex 0.764971 3.16497 5
      vertex 0.764971 6.36497 5
    endloop
  endfacet
  facet normal 0 0 1
    outer loop
      vertex -0.932086 7.06791 5
      vertex -0.932086 2.46203 5
      vertex 0.764971 3.16497 5
    endloop
  endfacet
  facet normal -0 0 1
    outer loop
      vertex -4.83503 8.76497 5
      vertex -0.932086 7.06791 5
      vertex -1.63503 8.76497 5
    endloop
  endfacet
  facet normal 0 0 1
    outer loop
      vertex -5.53797 7.06791 5
      vertex -0.932086 7.06791 5
      vertex -4.83503 8.76497 5
    endloop
  endfacet
  facet normal 0 0 1
    outer loop
      vertex 7.06791 -5.53797 5
      vertex 3.16497 -7.23503 5
      vertex 6.36497 -7.23503 5
    endloop
  endfacet
  facet normal 0 0 1
    outer loop
      vertex 2.46203 -8.93209 5
      vertex 6.36497 -7.23503 5
      vertex 3.16497 -7.23503 5
    endloop
  endfacet
  facet normal 0 0 1
    outer loop
      vertex 6.36497 -7.23503 5
      vertex 2.46203 -8.93209 5
      vertex 5.87132 -18.0701 5
    endloop
  endfacet
  facet normal -0 0 1
    outer loop
      vertex 0.764971 -9.63503 5
      vertex 5.87132 -18.0701 5
      vertex 2.46203 -8.93209 5
    endloop
  endfacet
  facet normal 0 0 1
    outer loop
      vertex 5.87132 -18.0701 5
      vertex 0.764971 -9.63503 5
      vertex 1.98604 -18.8959 5
    endloop
  endfacet
  facet normal 0 0 1
    outer loop
      vertex -1.98604 -18.8959 5
      vertex 0.764971 -9.63503 5
      vertex -0.932086 -8.93209 5
    endloop
  endfacet
  facet normal 0 0 1
    outer loop
      vertex -1.98604 -18.8959 5
      vertex -0.932086 -8.93209 5
      vertex -1.63503 -7.23503 5
    endloop
  endfacet
  facet normal 0 0 1
    outer loop
      vertex 0.764971 -9.63503 5
      vertex -1.98604 -18.8959 5
      vertex 1.98604 -18.8959 5
    endloop
  endfacet
  facet normal 0 0 1
    outer loop
      vertex -0.932086 -0.932086 5
      vertex -5.53797 -0.932086 5
      vertex -0.932086 -5.53797 5
    endloop
  endfacet
  facet normal 0 0 1
    outer loop
      vertex -0.932086 2.46203 5
      vertex -4.83503 0.764971 5
      vertex -1.63503 0.764971 5
    endloop
  endfacet
  facet normal 0 0 1
    outer loop
      vertex -1.98604 18.8959 5
      vertex -5.53797 10.462 5
      vertex -4.83503 8.76497 5
    endloop
  endfacet
  facet normal -0 0 1
    outer loop
      vertex -5.87132 18.0701 5
      vertex -5.53797 10.462 5
      vertex -1.98604 18.8959 5
    endloop
  endfacet
  facet normal 0 0 1
    outer loop
      vertex -5.87132 18.0701 5
      vertex -7.23503 11.165 5
      vertex -5.53797 10.462 5
    endloop
  endfacet
  facet normal -0 0 1
    outer loop
      vertex -9.5 16.4545 5
      vertex -7.23503 11.165 5
      vertex -5.87132 18.0701 5
    endloop
  endfacet
  facet normal 0 0 1
    outer loop
      vertex -7.23503 11.165 5
      vertex -9.5 16.4545 5
      vertex -8.93209 10.462 5
    endloop
  endfacet
  facet normal -0 0 1
    outer loop
      vertex -12.7135 14.1198 5
      vertex -8.93209 10.462 5
      vertex -9.5 16.4545 5
    endloop
  endfacet
  facet normal 0 0 1
    outer loop
      vertex -8.93209 10.462 5
      vertex -15.3713 11.1679 5
      vertex -9.63503 8.76497 5
    endloop
  endfacet
  facet normal 0 0 1
    outer loop
      vertex -17.3574 7.728 5
      vertex -9.63503 8.76497 5
      vertex -15.3713 11.1679 5
    endloop
  endfacet
  facet normal -0 0 1
    outer loop
      vertex -15.3713 11.1679 5
      vertex -8.93209 10.462 5
      vertex -12.7135 14.1198 5
    endloop
  endfacet
  facet normal 0 0 1
    outer loop
      vertex 10.462 -5.53797 5
      vertex 18.5848 -3.95032 5
      vertex 10.462 -0.932086 5
    endloop
  endfacet
  facet normal 0 0 1
    outer loop
      vertex 18.5848 -3.95032 5
      vertex 10.462 -5.53797 5
      vertex 11.165 -7.23503 5
    endloop
  endfacet
  facet normal -0 0 1
    outer loop
      vertex 8.76497 -1.63503 5
      vertex 10.462 -5.53797 5
      vertex 10.462 -0.932086 5
    endloop
  endfacet
  facet normal 0 0 1
    outer loop
      vertex 8.76497 -1.63503 5
      vertex 8.76497 -4.83503 5
      vertex 10.462 -5.53797 5
    endloop
  endfacet
  facet normal 0 0 1
    outer loop
      vertex 7.06791 -0.932086 5
      vertex 8.76497 -4.83503 5
      vertex 8.76497 -1.63503 5
    endloop
  endfacet
  facet normal 0 0 1
    outer loop
      vertex 7.06791 -0.932086 5
      vertex 7.06791 -5.53797 5
      vertex 8.76497 -4.83503 5
    endloop
  endfacet
  facet normal -0 0 1
    outer loop
      vertex 3.16497 0.764971 5
      vertex 7.06791 -0.932086 5
      vertex 6.36497 0.764971 5
    endloop
  endfacet
  facet normal 0 0 1
    outer loop
      vertex 2.46203 -0.932086 5
      vertex 7.06791 -0.932086 5
      vertex 3.16497 0.764971 5
    endloop
  endfacet
  facet normal 0 0 1
    outer loop
      vertex 17.3574 7.728 5
      vertex 10.462 2.46203 5
      vertex 18.5848 3.95032 5
    endloop
  endfacet
  facet normal 0 0 1
    outer loop
      vertex 18.5848 3.95032 5
      vertex 10.462 2.46203 5
      vertex 11.165 0.764971 5
    endloop
  endfacet
  facet normal -0 0 1
    outer loop
      vertex 8.76497 6.36497 5
      vertex 10.462 2.46203 5
      vertex 10.462 7.06791 5
    endloop
  endfacet
  facet normal 0 0 1
    outer loop
      vertex 8.76497 6.36497 5
      vertex 8.76497 3.16497 5
      vertex 10.462 2.46203 5
    endloop
  endfacet
  facet normal 0 0 1
    outer loop
      vertex 7.06791 7.06791 5
      vertex 8.76497 3.16497 5
      vertex 8.76497 6.36497 5
    endloop
  endfacet
  facet normal 0 0 1
    outer loop
      vertex 7.06791 7.06791 5
      vertex 7.06791 2.46203 5
      vertex 8.76497 3.16497 5
    endloop
  endfacet
  facet normal -0 0 1
    outer loop
      vertex 3.16497 8.76497 5
      vertex 7.06791 7.06791 5
      vertex 6.36497 8.76497 5
    endloop
  endfacet
  facet normal 0 0 1
    outer loop
      vertex 2.46203 7.06791 5
      vertex 7.06791 7.06791 5
      vertex 3.16497 8.76497 5
    endloop
  endfacet
  facet normal -0 0 1
    outer loop
      vertex 11.165 0.764971 5
      vertex 19 0 5
      vertex 18.5848 3.95032 5
    endloop
  endfacet
  facet normal 0 0 1
    outer loop
      vertex 10.462 2.46203 5
      vertex 17.3574 7.728 5
      vertex 10.462 7.06791 5
    endloop
  endfacet
  facet normal 0 0 1
    outer loop
      vertex 19 0 5
      vertex 11.165 0.764971 5
      vertex 18.5848 -3.95032 5
    endloop
  endfacet
  facet normal -0 0 1
    outer loop
      vertex 11.165 8.76497 5
      vertex 17.3574 7.728 5
      vertex 15.3713 11.1679 5
    endloop
  endfacet
  facet normal -0 0 1
    outer loop
      vertex 10.462 -0.932086 5
      vertex 18.5848 -3.95032 5
      vertex 11.165 0.764971 5
    endloop
  endfacet
  facet normal 0 0 1
    outer loop
      vertex 10.462 10.462 5
      vertex 15.3713 11.1679 5
      vertex 12.7135 14.1198 5
    endloop
  endfacet
  facet normal 0 0 1
    outer loop
      vertex 18.5848 -3.95032 5
      vertex 11.165 -7.23503 5
      vertex 17.3574 -7.728 5
    endloop
  endfacet
  facet normal 0 0 1
    outer loop
      vertex 10.462 7.06791 5
      vertex 17.3574 7.728 5
      vertex 11.165 8.76497 5
    endloop
  endfacet
  facet normal 0 0 1
    outer loop
      vertex 15.3713 11.1679 5
      vertex 10.462 10.462 5
      vertex 11.165 8.76497 5
    endloop
  endfacet
  facet normal 0 0 1
    outer loop
      vertex 8.76497 11.165 5
      vertex 12.7135 14.1198 5
      vertex 9.5 16.4545 5
    endloop
  endfacet
  facet normal 0 0 1
    outer loop
      vertex 12.7135 14.1198 5
      vertex 8.76497 11.165 5
      vertex 10.462 10.462 5
    endloop
  endfacet
  facet normal 0 0 1
    outer loop
      vertex 9.5 16.4545 5
      vertex 7.06791 10.462 5
      vertex 8.76497 11.165 5
    endloop
  endfacet
  facet normal 0 0 1
    outer loop
      vertex 5.87132 18.0701 5
      vertex 7.06791 10.462 5
      vertex 9.5 16.4545 5
    endloop
  endfacet
  facet normal 0 0 1
    outer loop
      vertex 7.06791 7.06791 5
      vertex 2.46203 7.06791 5
      vertex 7.06791 2.46203 5
    endloop
  endfacet
  facet normal 0 0 1
    outer loop
      vertex 7.06791 10.462 5
      vertex 2.46203 10.462 5
      vertex 6.36497 8.76497 5
    endloop
  endfacet
  facet normal 0 0 1
    outer loop
      vertex 7.06791 10.462 5
      vertex 5.87132 18.0701 5
      vertex 2.46203 10.462 5
    endloop
  endfacet
  facet normal 0 0 1
    outer loop
      vertex 17.3574 -7.728 5
      vertex 11.165 -7.23503 5
      vertex 15.3713 -11.1679 5
    endloop
  endfacet
  facet normal -0 0 1
    outer loop
      vertex 10.462 -8.93209 5
      vertex 15.3713 -11.1679 5
      vertex 11.165 -7.23503 5
    endloop
  endfacet
  facet normal 0 0 1
    outer loop
      vertex 15.3713 -11.1679 5
      vertex 10.462 -8.93209 5
      vertex 12.7135 -14.1198 5
    endloop
  endfacet
  facet normal -0 0 1
    outer loop
      vertex 8.76497 -9.63503 5
      vertex 12.7135 -14.1198 5
      vertex 10.462 -8.93209 5
    endloop
  endfacet
  facet normal 0 0 1
    outer loop
      vertex 12.7135 -14.1198 5
      vertex 8.76497 -9.63503 5
      vertex 9.5 -16.4545 5
    endloop
  endfacet
  facet normal 0 0 1
    outer loop
      vertex 7.06791 -8.93209 5
      vertex 9.5 -16.4545 5
      vertex 8.76497 -9.63503 5
    endloop
  endfacet
  facet normal 0 0 1
    outer loop
      vertex 5.87132 -18.0701 5
      vertex 7.06791 -8.93209 5
      vertex 6.36497 -7.23503 5
    endloop
  endfacet
  facet normal 0 0 1
    outer loop
      vertex 7.06791 -8.93209 5
      vertex 5.87132 -18.0701 5
      vertex 9.5 -16.4545 5
    endloop
  endfacet
  facet normal 0 0 1
    outer loop
      vertex 7.06791 2.46203 5
      vertex 3.16497 0.764971 5
      vertex 6.36497 0.764971 5
    endloop
  endfacet
  facet normal 0 0 1
    outer loop
      vertex 7.06791 -0.932086 5
      vertex 2.46203 -0.932086 5
      vertex 7.06791 -5.53797 5
    endloop
  endfacet
  facet normal 0 0 1
    outer loop
      vertex 6.36497 8.76497 5
      vertex 2.46203 10.462 5
      vertex 3.16497 8.76497 5
    endloop
  endfacet
  facet normal 0 0 1
    outer loop
      vertex 0.764971 11.165 5
      vertex 5.87132 18.0701 5
      vertex 1.98604 18.8959 5
    endloop
  endfacet
  facet normal 0 0 1
    outer loop
      vertex 5.87132 18.0701 5
      vertex 0.764971 11.165 5
      vertex 2.46203 10.462 5
    endloop
  endfacet
  facet normal -0 0 1
    outer loop
      vertex -1.98604 18.8959 5
      vertex 0.764971 11.165 5
      vertex 1.98604 18.8959 5
    endloop
  endfacet
  facet normal 0 0 1
    outer loop
      vertex 0.764971 11.165 5
      vertex -1.98604 18.8959 5
      vertex -0.932086 10.462 5
    endloop
  endfacet
  facet normal 0 0 1
    outer loop
      vertex -0.932086 10.462 5
      vertex -4.83503 8.76497 5
      vertex -1.63503 8.76497 5
    endloop
  endfacet
  facet normal 0 0 1
    outer loop
      vertex -0.932086 7.06791 5
      vertex -5.53797 7.06791 5
      vertex -0.932086 2.46203 5
    endloop
  endfacet
  facet normal 0 0 1
    outer loop
      vertex -4.83503 8.76497 5
      vertex -0.932086 10.462 5
      vertex -1.98604 18.8959 5
    endloop
  endfacet
  facet normal -0.382683 0.92388 0
    outer loop
      vertex -7.23503 -4.83503 5
      vertex -8.93209 -5.53797 6.8
      vertex -7.23503 -4.83503 6.8
    endloop
  endfacet
  facet normal -0.382683 0.92388 0
    outer loop
      vertex -8.93209 -5.53797 6.8
      vertex -7.23503 -4.83503 5
      vertex -8.93209 -5.53797 5
    endloop
  endfacet
  facet normal 0.382684 -0.923879 0
    outer loop
      vertex -7.23503 -9.63503 5
      vertex -5.53797 -8.93209 6.8
      vertex -7.23503 -9.63503 6.8
    endloop
  endfacet
  facet normal 0.382684 -0.923879 0
    outer loop
      vertex -5.53797 -8.93209 6.8
      vertex -7.23503 -9.63503 5
      vertex -5.53797 -8.93209 5
    endloop
  endfacet
  facet normal -0.92388 -0.382683 0
    outer loop
      vertex -8.93209 -8.93209 5
      vertex -9.63503 -7.23503 6.8
      vertex -9.63503 -7.23503 5
    endloop
  endfacet
  facet normal -0.92388 -0.382683 0
    outer loop
      vertex -9.63503 -7.23503 6.8
      vertex -8.93209 -8.93209 5
      vertex -8.93209 -8.93209 6.8
    endloop
  endfacet
  facet normal 0.92388 -0.382683 0
    outer loop
      vertex -5.53797 -8.93209 6.8
      vertex -4.83503 -7.23503 5
      vertex -4.83503 -7.23503 6.8
    endloop
  endfacet
  facet normal 0.92388 -0.382683 0
    outer loop
      vertex -4.83503 -7.23503 5
      vertex -5.53797 -8.93209 6.8
      vertex -5.53797 -8.93209 5
    endloop
  endfacet
  facet normal -0.382683 -0.92388 0
    outer loop
      vertex -8.93209 -8.93209 5
      vertex -7.23503 -9.63503 6.8
      vertex -8.93209 -8.93209 6.8
    endloop
  endfacet
  facet normal -0.382683 -0.92388 -0
    outer loop
      vertex -7.23503 -9.63503 6.8
      vertex -8.93209 -8.93209 5
      vertex -7.23503 -9.63503 5
    endloop
  endfacet
  facet normal 0 0 1
    outer loop
      vertex -5.53797 -5.53797 6.8
      vertex -5.53797 -8.93209 6.8
      vertex -4.83503 -7.23503 6.8
    endloop
  endfacet
  facet normal 0 0 1
    outer loop
      vertex -7.23503 -4.83503 6.8
      vertex -5.53797 -8.93209 6.8
      vertex -5.53797 -5.53797 6.8
    endloop
  endfacet
  facet normal 0 0 1
    outer loop
      vertex -7.23503 -4.83503 6.8
      vertex -7.23503 -9.63503 6.8
      vertex -5.53797 -8.93209 6.8
    endloop
  endfacet
  facet normal -0 0 1
    outer loop
      vertex -8.93209 -5.53797 6.8
      vertex -7.23503 -9.63503 6.8
      vertex -7.23503 -4.83503 6.8
    endloop
  endfacet
  facet normal 0 0 1
    outer loop
      vertex -8.93209 -5.53797 6.8
      vertex -8.93209 -8.93209 6.8
      vertex -7.23503 -9.63503 6.8
    endloop
  endfacet
  facet normal 0 -0 1
    outer loop
      vertex -8.93209 -8.93209 6.8
      vertex -8.93209 -5.53797 6.8
      vertex -9.63503 -7.23503 6.8
    endloop
  endfacet
  facet normal 0.923879 0.382684 0
    outer loop
      vertex -4.83503 0.764971 6.8
      vertex -5.53797 2.46203 5
      vertex -5.53797 2.46203 6.8
    endloop
  endfacet
  facet normal 0.923879 0.382684 0
    outer loop
      vertex -5.53797 2.46203 5
      vertex -4.83503 0.764971 6.8
      vertex -4.83503 0.764971 5
    endloop
  endfacet
  facet normal -0.382683 0.92388 0
    outer loop
      vertex -7.23503 3.16497 5
      vertex -8.93209 2.46203 6.8
      vertex -7.23503 3.16497 6.8
    endloop
  endfacet
  facet normal -0.382683 0.92388 0
    outer loop
      vertex -8.93209 2.46203 6.8
      vertex -7.23503 3.16497 5
      vertex -8.93209 2.46203 5
    endloop
  endfacet
  facet normal 0.382684 0.923879 -0
    outer loop
      vertex -5.53797 2.46203 5
      vertex -7.23503 3.16497 6.8
      vertex -5.53797 2.46203 6.8
    endloop
  endfacet
  facet normal 0.382684 0.923879 0
    outer loop
      vertex -7.23503 3.16497 6.8
      vertex -5.53797 2.46203 5
      vertex -7.23503 3.16497 5
    endloop
  endfacet
  facet normal 0 0 1
    outer loop
      vertex -5.53797 2.46203 6.8
      vertex -5.53797 -0.932086 6.8
      vertex -4.83503 0.764971 6.8
    endloop
  endfacet
  facet normal 0 0 1
    outer loop
      vertex -7.23503 3.16497 6.8
      vertex -5.53797 -0.932086 6.8
      vertex -5.53797 2.46203 6.8
    endloop
  endfacet
  facet normal 0 0 1
    outer loop
      vertex -7.23503 3.16497 6.8
      vertex -7.23503 -1.63503 6.8
      vertex -5.53797 -0.932086 6.8
    endloop
  endfacet
  facet normal -0 0 1
    outer loop
      vertex -8.93209 2.46203 6.8
      vertex -7.23503 -1.63503 6.8
      vertex -7.23503 3.16497 6.8
    endloop
  endfacet
  facet normal 0 0 1
    outer loop
      vertex -8.93209 2.46203 6.8
      vertex -8.93209 -0.932086 6.8
      vertex -7.23503 -1.63503 6.8
    endloop
  endfacet
  facet normal 0 -0 1
    outer loop
      vertex -8.93209 -0.932086 6.8
      vertex -8.93209 2.46203 6.8
      vertex -9.63503 0.764971 6.8
    endloop
  endfacet
  facet normal -0.923879 0.382684 0
    outer loop
      vertex -9.63503 0.764971 5
      vertex -8.93209 2.46203 6.8
      vertex -8.93209 2.46203 5
    endloop
  endfacet
  facet normal -0.923879 0.382684 0
    outer loop
      vertex -8.93209 2.46203 6.8
      vertex -9.63503 0.764971 5
      vertex -9.63503 0.764971 6.8
    endloop
  endfacet
  facet normal 0.92388 -0.382683 0
    outer loop
      vertex -5.53797 -0.932086 6.8
      vertex -4.83503 0.764971 5
      vertex -4.83503 0.764971 6.8
    endloop
  endfacet
  facet normal 0.92388 -0.382683 0
    outer loop
      vertex -4.83503 0.764971 5
      vertex -5.53797 -0.932086 6.8
      vertex -5.53797 -0.932086 5
    endloop
  endfacet
  facet normal -0.382683 -0.92388 0
    outer loop
      vertex -8.93209 -0.932086 5
      vertex -7.23503 -1.63503 6.8
      vertex -8.93209 -0.932086 6.8
    endloop
  endfacet
  facet normal -0.382683 -0.92388 -0
    outer loop
      vertex -7.23503 -1.63503 6.8
      vertex -8.93209 -0.932086 5
      vertex -7.23503 -1.63503 5
    endloop
  endfacet
  facet normal -0.92388 -0.382683 0
    outer loop
      vertex -8.93209 -0.932086 5
      vertex -9.63503 0.764971 6.8
      vertex -9.63503 0.764971 5
    endloop
  endfacet
  facet normal -0.92388 -0.382683 0
    outer loop
      vertex -9.63503 0.764971 6.8
      vertex -8.93209 -0.932086 5
      vertex -8.93209 -0.932086 6.8
    endloop
  endfacet
  facet normal 0.382684 -0.923879 0
    outer loop
      vertex -7.23503 -1.63503 5
      vertex -5.53797 -0.932086 6.8
      vertex -7.23503 -1.63503 6.8
    endloop
  endfacet
  facet normal 0.382684 -0.923879 0
    outer loop
      vertex -5.53797 -0.932086 6.8
      vertex -7.23503 -1.63503 5
      vertex -5.53797 -0.932086 5
    endloop
  endfacet
  facet normal 0.923879 0.382684 0
    outer loop
      vertex -4.83503 8.76497 6.8
      vertex -5.53797 10.462 5
      vertex -5.53797 10.462 6.8
    endloop
  endfacet
  facet normal 0.923879 0.382684 0
    outer loop
      vertex -5.53797 10.462 5
      vertex -4.83503 8.76497 6.8
      vertex -4.83503 8.76497 5
    endloop
  endfacet
  facet normal -0.382683 0.92388 0
    outer loop
      vertex -7.23503 11.165 5
      vertex -8.93209 10.462 6.8
      vertex -7.23503 11.165 6.8
    endloop
  endfacet
  facet normal -0.382683 0.92388 0
    outer loop
      vertex -8.93209 10.462 6.8
      vertex -7.23503 11.165 5
      vertex -8.93209 10.462 5
    endloop
  endfacet
  facet normal 0.382684 0.923879 -0
    outer loop
      vertex -5.53797 10.462 5
      vertex -7.23503 11.165 6.8
      vertex -5.53797 10.462 6.8
    endloop
  endfacet
  facet normal 0.382684 0.923879 0
    outer loop
      vertex -7.23503 11.165 6.8
      vertex -5.53797 10.462 5
      vertex -7.23503 11.165 5
    endloop
  endfacet
  facet normal 0 0 1
    outer loop
      vertex -5.53797 10.462 6.8
      vertex -5.53797 7.06791 6.8
      vertex -4.83503 8.76497 6.8
    endloop
  endfacet
  facet normal 0 0 1
    outer loop
      vertex -7.23503 11.165 6.8
      vertex -5.53797 7.06791 6.8
      vertex -5.53797 10.462 6.8
    endloop
  endfacet
  facet normal 0 0 1
    outer loop
      vertex -7.23503 11.165 6.8
      vertex -7.23503 6.36497 6.8
      vertex -5.53797 7.06791 6.8
    endloop
  endfacet
  facet normal -0 0 1
    outer loop
      vertex -8.93209 10.462 6.8
      vertex -7.23503 6.36497 6.8
      vertex -7.23503 11.165 6.8
    endloop
  endfacet
  facet normal 0 0 1
    outer loop
      vertex -8.93209 10.462 6.8
      vertex -8.93209 7.06791 6.8
      vertex -7.23503 6.36497 6.8
    endloop
  endfacet
  facet normal 0 -0 1
    outer loop
      vertex -8.93209 7.06791 6.8
      vertex -8.93209 10.462 6.8
      vertex -9.63503 8.76497 6.8
    endloop
  endfacet
  facet normal -0.923879 0.382684 0
    outer loop
      vertex -9.63503 8.76497 5
      vertex -8.93209 10.462 6.8
      vertex -8.93209 10.462 5
    endloop
  endfacet
  facet normal -0.923879 0.382684 0
    outer loop
      vertex -8.93209 10.462 6.8
      vertex -9.63503 8.76497 5
      vertex -9.63503 8.76497 6.8
    endloop
  endfacet
  facet normal 0.92388 -0.382683 0
    outer loop
      vertex -5.53797 7.06791 6.8
      vertex -4.83503 8.76497 5
      vertex -4.83503 8.76497 6.8
    endloop
  endfacet
  facet normal 0.92388 -0.382683 0
    outer loop
      vertex -4.83503 8.76497 5
      vertex -5.53797 7.06791 6.8
      vertex -5.53797 7.06791 5
    endloop
  endfacet
  facet normal -0.382683 -0.92388 0
    outer loop
      vertex -8.93209 7.06791 5
      vertex -7.23503 6.36497 6.8
      vertex -8.93209 7.06791 6.8
    endloop
  endfacet
  facet normal -0.382683 -0.92388 -0
    outer loop
      vertex -7.23503 6.36497 6.8
      vertex -8.93209 7.06791 5
      vertex -7.23503 6.36497 5
    endloop
  endfacet
  facet normal -0.92388 -0.382683 0
    outer loop
      vertex -8.93209 7.06791 5
      vertex -9.63503 8.76497 6.8
      vertex -9.63503 8.76497 5
    endloop
  endfacet
  facet normal -0.92388 -0.382683 0
    outer loop
      vertex -9.63503 8.76497 6.8
      vertex -8.93209 7.06791 5
      vertex -8.93209 7.06791 6.8
    endloop
  endfacet
  facet normal 0.382684 -0.923879 0
    outer loop
      vertex -7.23503 6.36497 5
      vertex -5.53797 7.06791 6.8
      vertex -7.23503 6.36497 6.8
    endloop
  endfacet
  facet normal 0.382684 -0.923879 0
    outer loop
      vertex -5.53797 7.06791 6.8
      vertex -7.23503 6.36497 5
      vertex -5.53797 7.06791 5
    endloop
  endfacet
  facet normal 0.923879 0.382684 0
    outer loop
      vertex 3.16497 -7.23503 6.8
      vertex 2.46203 -5.53797 5
      vertex 2.46203 -5.53797 6.8
    endloop
  endfacet
  facet normal 0.923879 0.382684 0
    outer loop
      vertex 2.46203 -5.53797 5
      vertex 3.16497 -7.23503 6.8
      vertex 3.16497 -7.23503 5
    endloop
  endfacet
  facet normal -0.923879 0.382684 0
    outer loop
      vertex -1.63503 -7.23503 5
      vertex -0.932086 -5.53797 6.8
      vertex -0.932086 -5.53797 5
    endloop
  endfacet
  facet normal -0.923879 0.382684 0
    outer loop
      vertex -0.932086 -5.53797 6.8
      vertex -1.63503 -7.23503 5
      vertex -1.63503 -7.23503 6.8
    endloop
  endfacet
  facet normal 0.382684 0.923879 -0
    outer loop
      vertex 2.46203 -5.53797 5
      vertex 0.764971 -4.83503 6.8
      vertex 2.46203 -5.53797 6.8
    endloop
  endfacet
  facet normal 0.382684 0.923879 0
    outer loop
      vertex 0.764971 -4.83503 6.8
      vertex 2.46203 -5.53797 5
      vertex 0.764971 -4.83503 5
    endloop
  endfacet
  facet normal 0 0 1
    outer loop
      vertex 2.46203 -5.53797 6.8
      vertex 2.46203 -8.93209 6.8
      vertex 3.16497 -7.23503 6.8
    endloop
  endfacet
  facet normal 0 0 1
    outer loop
      vertex 0.764971 -4.83503 6.8
      vertex 2.46203 -8.93209 6.8
      vertex 2.46203 -5.53797 6.8
    endloop
  endfacet
  facet normal 0 0 1
    outer loop
      vertex 0.764971 -4.83503 6.8
      vertex 0.764971 -9.63503 6.8
      vertex 2.46203 -8.93209 6.8
    endloop
  endfacet
  facet normal -0 0 1
    outer loop
      vertex -0.932086 -5.53797 6.8
      vertex 0.764971 -9.63503 6.8
      vertex 0.764971 -4.83503 6.8
    endloop
  endfacet
  facet normal 0 0 1
    outer loop
      vertex -0.932086 -5.53797 6.8
      vertex -0.932086 -8.93209 6.8
      vertex 0.764971 -9.63503 6.8
    endloop
  endfacet
  facet normal 0 -0 1
    outer loop
      vertex -0.932086 -8.93209 6.8
      vertex -0.932086 -5.53797 6.8
      vertex -1.63503 -7.23503 6.8
    endloop
  endfacet
  facet normal -0.382683 0.92388 0
    outer loop
      vertex 0.764971 -4.83503 5
      vertex -0.932086 -5.53797 6.8
      vertex 0.764971 -4.83503 6.8
    endloop
  endfacet
  facet normal -0.382683 0.92388 0
    outer loop
      vertex -0.932086 -5.53797 6.8
      vertex 0.764971 -4.83503 5
      vertex -0.932086 -5.53797 5
    endloop
  endfacet
  facet normal 0.382684 -0.923879 0
    outer loop
      vertex 0.764971 -9.63503 5
      vertex 2.46203 -8.93209 6.8
      vertex 0.764971 -9.63503 6.8
    endloop
  endfacet
  facet normal 0.382684 -0.923879 0
    outer loop
      vertex 2.46203 -8.93209 6.8
      vertex 0.764971 -9.63503 5
      vertex 2.46203 -8.93209 5
    endloop
  endfacet
  facet normal -0.92388 -0.382683 0
    outer loop
      vertex -0.932086 -8.93209 5
      vertex -1.63503 -7.23503 6.8
      vertex -1.63503 -7.23503 5
    endloop
  endfacet
  facet normal -0.92388 -0.382683 0
    outer loop
      vertex -1.63503 -7.23503 6.8
      vertex -0.932086 -8.93209 5
      vertex -0.932086 -8.93209 6.8
    endloop
  endfacet
  facet normal 0.92388 -0.382683 0
    outer loop
      vertex 2.46203 -8.93209 6.8
      vertex 3.16497 -7.23503 5
      vertex 3.16497 -7.23503 6.8
    endloop
  endfacet
  facet normal 0.92388 -0.382683 0
    outer loop
      vertex 3.16497 -7.23503 5
      vertex 2.46203 -8.93209 6.8
      vertex 2.46203 -8.93209 5
    endloop
  endfacet
  facet normal -0.382683 -0.92388 0
    outer loop
      vertex -0.932086 -8.93209 5
      vertex 0.764971 -9.63503 6.8
      vertex -0.932086 -8.93209 6.8
    endloop
  endfacet
  facet normal -0.382683 -0.92388 -0
    outer loop
      vertex 0.764971 -9.63503 6.8
      vertex -0.932086 -8.93209 5
      vertex 0.764971 -9.63503 5
    endloop
  endfacet
  facet normal 0.923879 0.382684 0
    outer loop
      vertex 3.16497 0.764971 6.8
      vertex 2.46203 2.46203 5
      vertex 2.46203 2.46203 6.8
    endloop
  endfacet
  facet normal 0.923879 0.382684 0
    outer loop
      vertex 2.46203 2.46203 5
      vertex 3.16497 0.764971 6.8
      vertex 3.16497 0.764971 5
    endloop
  endfacet
  facet normal -0.92388 -0.382683 0
    outer loop
      vertex -0.932086 -0.932086 5
      vertex -1.63503 0.764971 6.8
      vertex -1.63503 0.764971 5
    endloop
  endfacet
  facet normal -0.92388 -0.382683 0
    outer loop
      vertex -1.63503 0.764971 6.8
      vertex -0.932086 -0.932086 5
      vertex -0.932086 -0.932086 6.8
    endloop
  endfacet
  facet normal -0.382683 0.92388 0
    outer loop
      vertex 0.764971 3.16497 5
      vertex -0.932086 2.46203 6.8
      vertex 0.764971 3.16497 6.8
    endloop
  endfacet
  facet normal -0.382683 0.92388 0
    outer loop
      vertex -0.932086 2.46203 6.8
      vertex 0.764971 3.16497 5
      vertex -0.932086 2.46203 5
    endloop
  endfacet
  facet normal 0.382684 0.923879 -0
    outer loop
      vertex 2.46203 2.46203 5
      vertex 0.764971 3.16497 6.8
      vertex 2.46203 2.46203 6.8
    endloop
  endfacet
  facet normal 0.382684 0.923879 0
    outer loop
      vertex 0.764971 3.16497 6.8
      vertex 2.46203 2.46203 5
      vertex 0.764971 3.16497 5
    endloop
  endfacet
  facet normal 0 0 1
    outer loop
      vertex 2.46203 2.46203 6.8
      vertex 2.46203 -0.932086 6.8
      vertex 3.16497 0.764971 6.8
    endloop
  endfacet
  facet normal 0 0 1
    outer loop
      vertex 0.764971 3.16497 6.8
      vertex 2.46203 -0.932086 6.8
      vertex 2.46203 2.46203 6.8
    endloop
  endfacet
  facet normal 0 0 1
    outer loop
      vertex 0.764971 3.16497 6.8
      vertex 0.764971 -1.63503 6.8
      vertex 2.46203 -0.932086 6.8
    endloop
  endfacet
  facet normal -0 0 1
    outer loop
      vertex -0.932086 2.46203 6.8
      vertex 0.764971 -1.63503 6.8
      vertex 0.764971 3.16497 6.8
    endloop
  endfacet
  facet normal 0 0 1
    outer loop
      vertex -0.932086 2.46203 6.8
      vertex -0.932086 -0.932086 6.8
      vertex 0.764971 -1.63503 6.8
    endloop
  endfacet
  facet normal 0 -0 1
    outer loop
      vertex -0.932086 -0.932086 6.8
      vertex -0.932086 2.46203 6.8
      vertex -1.63503 0.764971 6.8
    endloop
  endfacet
  facet normal -0.923879 0.382684 0
    outer loop
      vertex -1.63503 0.764971 5
      vertex -0.932086 2.46203 6.8
      vertex -0.932086 2.46203 5
    endloop
  endfacet
  facet normal -0.923879 0.382684 0
    outer loop
      vertex -0.932086 2.46203 6.8
      vertex -1.63503 0.764971 5
      vertex -1.63503 0.764971 6.8
    endloop
  endfacet
  facet normal 0.92388 -0.382683 0
    outer loop
      vertex 2.46203 -0.932086 6.8
      vertex 3.16497 0.764971 5
      vertex 3.16497 0.764971 6.8
    endloop
  endfacet
  facet normal 0.92388 -0.382683 0
    outer loop
      vertex 3.16497 0.764971 5
      vertex 2.46203 -0.932086 6.8
      vertex 2.46203 -0.932086 5
    endloop
  endfacet
  facet normal 0.382684 -0.923879 0
    outer loop
      vertex 0.764971 -1.63503 5
      vertex 2.46203 -0.932086 6.8
      vertex 0.764971 -1.63503 6.8
    endloop
  endfacet
  facet normal 0.382684 -0.923879 0
    outer loop
      vertex 2.46203 -0.932086 6.8
      vertex 0.764971 -1.63503 5
      vertex 2.46203 -0.932086 5
    endloop
  endfacet
  facet normal -0.382683 -0.92388 0
    outer loop
      vertex -0.932086 -0.932086 5
      vertex 0.764971 -1.63503 6.8
      vertex -0.932086 -0.932086 6.8
    endloop
  endfacet
  facet normal -0.382683 -0.92388 -0
    outer loop
      vertex 0.764971 -1.63503 6.8
      vertex -0.932086 -0.932086 5
      vertex 0.764971 -1.63503 5
    endloop
  endfacet
  facet normal 0.923879 0.382684 0
    outer loop
      vertex 3.16497 8.76497 6.8
      vertex 2.46203 10.462 5
      vertex 2.46203 10.462 6.8
    endloop
  endfacet
  facet normal 0.923879 0.382684 0
    outer loop
      vertex 2.46203 10.462 5
      vertex 3.16497 8.76497 6.8
      vertex 3.16497 8.76497 5
    endloop
  endfacet
  facet normal -0.92388 -0.382683 0
    outer loop
      vertex -0.932086 7.06791 5
      vertex -1.63503 8.76497 6.8
      vertex -1.63503 8.76497 5
    endloop
  endfacet
  facet normal -0.92388 -0.382683 0
    outer loop
      vertex -1.63503 8.76497 6.8
      vertex -0.932086 7.06791 5
      vertex -0.932086 7.06791 6.8
    endloop
  endfacet
  facet normal -0.382683 0.92388 0
    outer loop
      vertex 0.764971 11.165 5
      vertex -0.932086 10.462 6.8
      vertex 0.764971 11.165 6.8
    endloop
  endfacet
  facet normal -0.382683 0.92388 0
    outer loop
      vertex -0.932086 10.462 6.8
      vertex 0.764971 11.165 5
      vertex -0.932086 10.462 5
    endloop
  endfacet
  facet normal 0.382684 0.923879 -0
    outer loop
      vertex 2.46203 10.462 5
      vertex 0.764971 11.165 6.8
      vertex 2.46203 10.462 6.8
    endloop
  endfacet
  facet normal 0.382684 0.923879 0
    outer loop
      vertex 0.764971 11.165 6.8
      vertex 2.46203 10.462 5
      vertex 0.764971 11.165 5
    endloop
  endfacet
  facet normal 0 0 1
    outer loop
      vertex 2.46203 10.462 6.8
      vertex 2.46203 7.06791 6.8
      vertex 3.16497 8.76497 6.8
    endloop
  endfacet
  facet normal 0 0 1
    outer loop
      vertex 0.764971 11.165 6.8
      vertex 2.46203 7.06791 6.8
      vertex 2.46203 10.462 6.8
    endloop
  endfacet
  facet normal 0 0 1
    outer loop
      vertex 0.764971 11.165 6.8
      vertex 0.764971 6.36497 6.8
      vertex 2.46203 7.06791 6.8
    endloop
  endfacet
  facet normal -0 0 1
    outer loop
      vertex -0.932086 10.462 6.8
      vertex 0.764971 6.36497 6.8
      vertex 0.764971 11.165 6.8
    endloop
  endfacet
  facet normal 0 0 1
    outer loop
      vertex -0.932086 10.462 6.8
      vertex -0.932086 7.06791 6.8
      vertex 0.764971 6.36497 6.8
    endloop
  endfacet
  facet normal 0 -0 1
    outer loop
      vertex -0.932086 7.06791 6.8
      vertex -0.932086 10.462 6.8
      vertex -1.63503 8.76497 6.8
    endloop
  endfacet
  facet normal -0.923879 0.382684 0
    outer loop
      vertex -1.63503 8.76497 5
      vertex -0.932086 10.462 6.8
      vertex -0.932086 10.462 5
    endloop
  endfacet
  facet normal -0.923879 0.382684 0
    outer loop
      vertex -0.932086 10.462 6.8
      vertex -1.63503 8.76497 5
      vertex -1.63503 8.76497 6.8
    endloop
  endfacet
  facet normal 0.92388 -0.382683 0
    outer loop
      vertex 2.46203 7.06791 6.8
      vertex 3.16497 8.76497 5
      vertex 3.16497 8.76497 6.8
    endloop
  endfacet
  facet normal 0.92388 -0.382683 0
    outer loop
      vertex 3.16497 8.76497 5
      vertex 2.46203 7.06791 6.8
      vertex 2.46203 7.06791 5
    endloop
  endfacet
  facet normal 0.382684 -0.923879 0
    outer loop
      vertex 0.764971 6.36497 5
      vertex 2.46203 7.06791 6.8
      vertex 0.764971 6.36497 6.8
    endloop
  endfacet
  facet normal 0.382684 -0.923879 0
    outer loop
      vertex 2.46203 7.06791 6.8
      vertex 0.764971 6.36497 5
      vertex 2.46203 7.06791 5
    endloop
  endfacet
  facet normal -0.382683 -0.92388 0
    outer loop
      vertex -0.932086 7.06791 5
      vertex 0.764971 6.36497 6.8
      vertex -0.932086 7.06791 6.8
    endloop
  endfacet
  facet normal -0.382683 -0.92388 -0
    outer loop
      vertex 0.764971 6.36497 6.8
      vertex -0.932086 7.06791 5
      vertex 0.764971 6.36497 5
    endloop
  endfacet
  facet normal 0.923879 0.382684 0
    outer loop
      vertex 11.165 -7.23503 6.8
      vertex 10.462 -5.53797 5
      vertex 10.462 -5.53797 6.8
    endloop
  endfacet
  facet normal 0.923879 0.382684 0
    outer loop
      vertex 10.462 -5.53797 5
      vertex 11.165 -7.23503 6.8
      vertex 11.165 -7.23503 5
    endloop
  endfacet
  facet normal -0.923879 0.382684 0
    outer loop
      vertex 6.36497 -7.23503 5
      vertex 7.06791 -5.53797 6.8
      vertex 7.06791 -5.53797 5
    endloop
  endfacet
  facet normal -0.923879 0.382684 0
    outer loop
      vertex 7.06791 -5.53797 6.8
      vertex 6.36497 -7.23503 5
      vertex 6.36497 -7.23503 6.8
    endloop
  endfacet
  facet normal 0.382684 0.923879 -0
    outer loop
      vertex 10.462 -5.53797 5
      vertex 8.76497 -4.83503 6.8
      vertex 10.462 -5.53797 6.8
    endloop
  endfacet
  facet normal 0.382684 0.923879 0
    outer loop
      vertex 8.76497 -4.83503 6.8
      vertex 10.462 -5.53797 5
      vertex 8.76497 -4.83503 5
    endloop
  endfacet
  facet normal -0.382683 0.92388 0
    outer loop
      vertex 8.76497 -4.83503 5
      vertex 7.06791 -5.53797 6.8
      vertex 8.76497 -4.83503 6.8
    endloop
  endfacet
  facet normal -0.382683 0.92388 0
    outer loop
      vertex 7.06791 -5.53797 6.8
      vertex 8.76497 -4.83503 5
      vertex 7.06791 -5.53797 5
    endloop
  endfacet
  facet normal 0.382684 -0.923879 0
    outer loop
      vertex 8.76497 -9.63503 5
      vertex 10.462 -8.93209 6.8
      vertex 8.76497 -9.63503 6.8
    endloop
  endfacet
  facet normal 0.382684 -0.923879 0
    outer loop
      vertex 10.462 -8.93209 6.8
      vertex 8.76497 -9.63503 5
      vertex 10.462 -8.93209 5
    endloop
  endfacet
  facet normal -0.92388 -0.382683 0
    outer loop
      vertex 7.06791 -8.93209 5
      vertex 6.36497 -7.23503 6.8
      vertex 6.36497 -7.23503 5
    endloop
  endfacet
  facet normal -0.92388 -0.382683 0
    outer loop
      vertex 6.36497 -7.23503 6.8
      vertex 7.06791 -8.93209 5
      vertex 7.06791 -8.93209 6.8
    endloop
  endfacet
  facet normal 0.92388 -0.382683 0
    outer loop
      vertex 10.462 -8.93209 6.8
      vertex 11.165 -7.23503 5
      vertex 11.165 -7.23503 6.8
    endloop
  endfacet
  facet normal 0.92388 -0.382683 0
    outer loop
      vertex 11.165 -7.23503 5
      vertex 10.462 -8.93209 6.8
      vertex 10.462 -8.93209 5
    endloop
  endfacet
  facet normal -0.382683 -0.92388 0
    outer loop
      vertex 7.06791 -8.93209 5
      vertex 8.76497 -9.63503 6.8
      vertex 7.06791 -8.93209 6.8
    endloop
  endfacet
  facet normal -0.382683 -0.92388 -0
    outer loop
      vertex 8.76497 -9.63503 6.8
      vertex 7.06791 -8.93209 5
      vertex 8.76497 -9.63503 5
    endloop
  endfacet
  facet normal 0 0 1
    outer loop
      vertex 10.462 -5.53797 6.8
      vertex 10.462 -8.93209 6.8
      vertex 11.165 -7.23503 6.8
    endloop
  endfacet
  facet normal 0 0 1
    outer loop
      vertex 8.76497 -4.83503 6.8
      vertex 10.462 -8.93209 6.8
      vertex 10.462 -5.53797 6.8
    endloop
  endfacet
  facet normal 0 0 1
    outer loop
      vertex 8.76497 -4.83503 6.8
      vertex 8.76497 -9.63503 6.8
      vertex 10.462 -8.93209 6.8
    endloop
  endfacet
  facet normal -0 0 1
    outer loop
      vertex 7.06791 -5.53797 6.8
      vertex 8.76497 -9.63503 6.8
      vertex 8.76497 -4.83503 6.8
    endloop
  endfacet
  facet normal 0 0 1
    outer loop
      vertex 7.06791 -5.53797 6.8
      vertex 7.06791 -8.93209 6.8
      vertex 8.76497 -9.63503 6.8
    endloop
  endfacet
  facet normal 0 -0 1
    outer loop
      vertex 7.06791 -8.93209 6.8
      vertex 7.06791 -5.53797 6.8
      vertex 6.36497 -7.23503 6.8
    endloop
  endfacet
  facet normal 0.923879 0.382684 0
    outer loop
      vertex 11.165 0.764971 6.8
      vertex 10.462 2.46203 5
      vertex 10.462 2.46203 6.8
    endloop
  endfacet
  facet normal 0.923879 0.382684 0
    outer loop
      vertex 10.462 2.46203 5
      vertex 11.165 0.764971 6.8
      vertex 11.165 0.764971 5
    endloop
  endfacet
  facet normal -0.92388 -0.382683 0
    outer loop
      vertex 7.06791 -0.932086 5
      vertex 6.36497 0.764971 6.8
      vertex 6.36497 0.764971 5
    endloop
  endfacet
  facet normal -0.92388 -0.382683 0
    outer loop
      vertex 6.36497 0.764971 6.8
      vertex 7.06791 -0.932086 5
      vertex 7.06791 -0.932086 6.8
    endloop
  endfacet
  facet normal -0.382683 0.92388 0
    outer loop
      vertex 8.76497 3.16497 5
      vertex 7.06791 2.46203 6.8
      vertex 8.76497 3.16497 6.8
    endloop
  endfacet
  facet normal -0.382683 0.92388 0
    outer loop
      vertex 7.06791 2.46203 6.8
      vertex 8.76497 3.16497 5
      vertex 7.06791 2.46203 5
    endloop
  endfacet
  facet normal 0.382684 0.923879 -0
    outer loop
      vertex 10.462 2.46203 5
      vertex 8.76497 3.16497 6.8
      vertex 10.462 2.46203 6.8
    endloop
  endfacet
  facet normal 0.382684 0.923879 0
    outer loop
      vertex 8.76497 3.16497 6.8
      vertex 10.462 2.46203 5
      vertex 8.76497 3.16497 5
    endloop
  endfacet
  facet normal 0 0 1
    outer loop
      vertex 10.462 2.46203 6.8
      vertex 10.462 -0.932086 6.8
      vertex 11.165 0.764971 6.8
    endloop
  endfacet
  facet normal 0 0 1
    outer loop
      vertex 8.76497 3.16497 6.8
      vertex 10.462 -0.932086 6.8
      vertex 10.462 2.46203 6.8
    endloop
  endfacet
  facet normal 0 0 1
    outer loop
      vertex 8.76497 3.16497 6.8
      vertex 8.76497 -1.63503 6.8
      vertex 10.462 -0.932086 6.8
    endloop
  endfacet
  facet normal -0 0 1
    outer loop
      vertex 7.06791 2.46203 6.8
      vertex 8.76497 -1.63503 6.8
      vertex 8.76497 3.16497 6.8
    endloop
  endfacet
  facet normal 0 0 1
    outer loop
      vertex 7.06791 2.46203 6.8
      vertex 7.06791 -0.932086 6.8
      vertex 8.76497 -1.63503 6.8
    endloop
  endfacet
  facet normal 0 -0 1
    outer loop
      vertex 7.06791 -0.932086 6.8
      vertex 7.06791 2.46203 6.8
      vertex 6.36497 0.764971 6.8
    endloop
  endfacet
  facet normal -0.923879 0.382684 0
    outer loop
      vertex 6.36497 0.764971 5
      vertex 7.06791 2.46203 6.8
      vertex 7.06791 2.46203 5
    endloop
  endfacet
  facet normal -0.923879 0.382684 0
    outer loop
      vertex 7.06791 2.46203 6.8
      vertex 6.36497 0.764971 5
      vertex 6.36497 0.764971 6.8
    endloop
  endfacet
  facet normal 0.92388 -0.382683 0
    outer loop
      vertex 10.462 -0.932086 6.8
      vertex 11.165 0.764971 5
      vertex 11.165 0.764971 6.8
    endloop
  endfacet
  facet normal 0.92388 -0.382683 0
    outer loop
      vertex 11.165 0.764971 5
      vertex 10.462 -0.932086 6.8
      vertex 10.462 -0.932086 5
    endloop
  endfacet
  facet normal 0.382684 -0.923879 0
    outer loop
      vertex 8.76497 -1.63503 5
      vertex 10.462 -0.932086 6.8
      vertex 8.76497 -1.63503 6.8
    endloop
  endfacet
  facet normal 0.382684 -0.923879 0
    outer loop
      vertex 10.462 -0.932086 6.8
      vertex 8.76497 -1.63503 5
      vertex 10.462 -0.932086 5
    endloop
  endfacet
  facet normal -0.382683 -0.92388 0
    outer loop
      vertex 7.06791 -0.932086 5
      vertex 8.76497 -1.63503 6.8
      vertex 7.06791 -0.932086 6.8
    endloop
  endfacet
  facet normal -0.382683 -0.92388 -0
    outer loop
      vertex 8.76497 -1.63503 6.8
      vertex 7.06791 -0.932086 5
      vertex 8.76497 -1.63503 5
    endloop
  endfacet
  facet normal 0.923879 0.382684 0
    outer loop
      vertex 11.165 8.76497 6.8
      vertex 10.462 10.462 5
      vertex 10.462 10.462 6.8
    endloop
  endfacet
  facet normal 0.923879 0.382684 0
    outer loop
      vertex 10.462 10.462 5
      vertex 11.165 8.76497 6.8
      vertex 11.165 8.76497 5
    endloop
  endfacet
  facet normal -0.92388 -0.382683 0
    outer loop
      vertex 7.06791 7.06791 5
      vertex 6.36497 8.76497 6.8
      vertex 6.36497 8.76497 5
    endloop
  endfacet
  facet normal -0.92388 -0.382683 0
    outer loop
      vertex 6.36497 8.76497 6.8
      vertex 7.06791 7.06791 5
      vertex 7.06791 7.06791 6.8
    endloop
  endfacet
  facet normal -0.382683 0.92388 0
    outer loop
      vertex 8.76497 11.165 5
      vertex 7.06791 10.462 6.8
      vertex 8.76497 11.165 6.8
    endloop
  endfacet
  facet normal -0.382683 0.92388 0
    outer loop
      vertex 7.06791 10.462 6.8
      vertex 8.76497 11.165 5
      vertex 7.06791 10.462 5
    endloop
  endfacet
  facet normal 0.382684 0.923879 -0
    outer loop
      vertex 10.462 10.462 5
      vertex 8.76497 11.165 6.8
      vertex 10.462 10.462 6.8
    endloop
  endfacet
  facet normal 0.382684 0.923879 0
    outer loop
      vertex 8.76497 11.165 6.8
      vertex 10.462 10.462 5
      vertex 8.76497 11.165 5
    endloop
  endfacet
  facet normal 0 0 1
    outer loop
      vertex 10.462 10.462 6.8
      vertex 10.462 7.06791 6.8
      vertex 11.165 8.76497 6.8
    endloop
  endfacet
  facet normal 0 0 1
    outer loop
      vertex 8.76497 11.165 6.8
      vertex 10.462 7.06791 6.8
      vertex 10.462 10.462 6.8
    endloop
  endfacet
  facet normal 0 0 1
    outer loop
      vertex 8.76497 11.165 6.8
      vertex 8.76497 6.36497 6.8
      vertex 10.462 7.06791 6.8
    endloop
  endfacet
  facet normal -0 0 1
    outer loop
      vertex 7.06791 10.462 6.8
      vertex 8.76497 6.36497 6.8
      vertex 8.76497 11.165 6.8
    endloop
  endfacet
  facet normal 0 0 1
    outer loop
      vertex 7.06791 10.462 6.8
      vertex 7.06791 7.06791 6.8
      vertex 8.76497 6.36497 6.8
    endloop
  endfacet
  facet normal 0 -0 1
    outer loop
      vertex 7.06791 7.06791 6.8
      vertex 7.06791 10.462 6.8
      vertex 6.36497 8.76497 6.8
    endloop
  endfacet
  facet normal -0.923879 0.382684 0
    outer loop
      vertex 6.36497 8.76497 5
      vertex 7.06791 10.462 6.8
      vertex 7.06791 10.462 5
    endloop
  endfacet
  facet normal -0.923879 0.382684 0
    outer loop
      vertex 7.06791 10.462 6.8
      vertex 6.36497 8.76497 5
      vertex 6.36497 8.76497 6.8
    endloop
  endfacet
  facet normal 0.92388 -0.382683 0
    outer loop
      vertex 10.462 7.06791 6.8
      vertex 11.165 8.76497 5
      vertex 11.165 8.76497 6.8
    endloop
  endfacet
  facet normal 0.92388 -0.382683 0
    outer loop
      vertex 11.165 8.76497 5
      vertex 10.462 7.06791 6.8
      vertex 10.462 7.06791 5
    endloop
  endfacet
  facet normal 0.382684 -0.923879 0
    outer loop
      vertex 8.76497 6.36497 5
      vertex 10.462 7.06791 6.8
      vertex 8.76497 6.36497 6.8
    endloop
  endfacet
  facet normal 0.382684 -0.923879 0
    outer loop
      vertex 10.462 7.06791 6.8
      vertex 8.76497 6.36497 5
      vertex 10.462 7.06791 5
    endloop
  endfacet
  facet normal -0.382683 -0.92388 0
    outer loop
      vertex 7.06791 7.06791 5
      vertex 8.76497 6.36497 6.8
      vertex 7.06791 7.06791 6.8
    endloop
  endfacet
  facet normal -0.382683 -0.92388 -0
    outer loop
      vertex 8.76497 6.36497 6.8
      vertex 7.06791 7.06791 5
      vertex 8.76497 6.36497 5
    endloop
  endfacet
  facet normal 0.994522 0.104528 0
    outer loop
      vertex 19 0 5
      vertex 18.5848 3.95032 0
      vertex 18.5848 3.95032 5
    endloop
  endfacet
  facet normal 0.994522 0.104528 0
    outer loop
      vertex 18.5848 3.95032 0
      vertex 19 0 5
      vertex 19 0 0
    endloop
  endfacet
  facet normal -0.994522 0.104528 0
    outer loop
      vertex -19 0 0
      vertex -18.5848 3.95032 5
      vertex -18.5848 3.95032 0
    endloop
  endfacet
  facet normal -0.994522 0.104528 0
    outer loop
      vertex -18.5848 3.95032 5
      vertex -19 0 0
      vertex -19 0 5
    endloop
  endfacet
  facet normal 0 1 -0
    outer loop
      vertex 1.98604 18.8959 0
      vertex -1.98604 18.8959 5
      vertex 1.98604 18.8959 5
    endloop
  endfacet
  facet normal 0 1 0
    outer loop
      vertex -1.98604 18.8959 5
      vertex 1.98604 18.8959 0
      vertex -1.98604 18.8959 0
    endloop
  endfacet
  facet normal 0 -1 0
    outer loop
      vertex -1.98604 -18.8959 0
      vertex 1.98604 -18.8959 5
      vertex -1.98604 -18.8959 5
    endloop
  endfacet
  facet normal 0 -1 -0
    outer loop
      vertex 1.98604 -18.8959 5
      vertex -1.98604 -18.8959 0
      vertex 1.98604 -18.8959 0
    endloop
  endfacet
  facet normal 0.587785 0.809017 -0
    outer loop
      vertex 12.7135 14.1198 0
      vertex 9.5 16.4545 5
      vertex 12.7135 14.1198 5
    endloop
  endfacet
  facet normal 0.587785 0.809017 0
    outer loop
      vertex 9.5 16.4545 5
      vertex 12.7135 14.1198 0
      vertex 9.5 16.4545 0
    endloop
  endfacet
  facet normal -0.743145 0.669131 0
    outer loop
      vertex -15.3713 11.1679 0
      vertex -12.7135 14.1198 5
      vertex -12.7135 14.1198 0
    endloop
  endfacet
  facet normal -0.743145 0.669131 0
    outer loop
      vertex -12.7135 14.1198 5
      vertex -15.3713 11.1679 0
      vertex -15.3713 11.1679 5
    endloop
  endfacet
  facet normal -0.866025 0.5 0
    outer loop
      vertex -17.3574 7.728 0
      vertex -15.3713 11.1679 5
      vertex -15.3713 11.1679 0
    endloop
  endfacet
  facet normal -0.866025 0.5 0
    outer loop
      vertex -15.3713 11.1679 5
      vertex -17.3574 7.728 0
      vertex -17.3574 7.728 5
    endloop
  endfacet
  facet normal -0.406736 0.913546 0
    outer loop
      vertex -5.87132 18.0701 0
      vertex -9.5 16.4545 5
      vertex -5.87132 18.0701 5
    endloop
  endfacet
  facet normal -0.406736 0.913546 0
    outer loop
      vertex -9.5 16.4545 5
      vertex -5.87132 18.0701 0
      vertex -9.5 16.4545 0
    endloop
  endfacet
  facet normal 0.866025 0.5 0
    outer loop
      vertex 17.3574 7.728 5
      vertex 15.3713 11.1679 0
      vertex 15.3713 11.1679 5
    endloop
  endfacet
  facet normal 0.866025 0.5 0
    outer loop
      vertex 15.3713 11.1679 0
      vertex 17.3574 7.728 5
      vertex 17.3574 7.728 0
    endloop
  endfacet
  facet normal 0.951056 0.309017 0
    outer loop
      vertex 18.5848 3.95032 5
      vertex 17.3574 7.728 0
      vertex 17.3574 7.728 5
    endloop
  endfacet
  facet normal 0.951056 0.309017 0
    outer loop
      vertex 17.3574 7.728 0
      vertex 18.5848 3.95032 5
      vertex 18.5848 3.95032 0
    endloop
  endfacet
  facet normal 0.743145 0.669131 0
    outer loop
      vertex 15.3713 11.1679 5
      vertex 12.7135 14.1198 0
      vertex 12.7135 14.1198 5
    endloop
  endfacet
  facet normal 0.743145 0.669131 0
    outer loop
      vertex 12.7135 14.1198 0
      vertex 15.3713 11.1679 5
      vertex 15.3713 11.1679 0
    endloop
  endfacet
  facet normal 0.207912 0.978148 -0
    outer loop
      vertex 5.87132 18.0701 0
      vertex 1.98604 18.8959 5
      vertex 5.87132 18.0701 5
    endloop
  endfacet
  facet normal 0.207912 0.978148 0
    outer loop
      vertex 1.98604 18.8959 5
      vertex 5.87132 18.0701 0
      vertex 1.98604 18.8959 0
    endloop
  endfacet
  facet normal 0.406736 0.913546 -0
    outer loop
      vertex 9.5 16.4545 0
      vertex 5.87132 18.0701 5
      vertex 9.5 16.4545 5
    endloop
  endfacet
  facet normal 0.406736 0.913546 0
    outer loop
      vertex 5.87132 18.0701 5
      vertex 9.5 16.4545 0
      vertex 5.87132 18.0701 0
    endloop
  endfacet
  facet normal -0.951056 0.309017 0
    outer loop
      vertex -18.5848 3.95032 0
      vertex -17.3574 7.728 5
      vertex -17.3574 7.728 0
    endloop
  endfacet
  facet normal -0.951056 0.309017 0
    outer loop
      vertex -17.3574 7.728 5
      vertex -18.5848 3.95032 0
      vertex -18.5848 3.95032 5
    endloop
  endfacet
  facet normal -0.587785 0.809017 0
    outer loop
      vertex -9.5 16.4545 0
      vertex -12.7135 14.1198 5
      vertex -9.5 16.4545 5
    endloop
  endfacet
  facet normal -0.587785 0.809017 0
    outer loop
      vertex -12.7135 14.1198 5
      vertex -9.5 16.4545 0
      vertex -12.7135 14.1198 0
    endloop
  endfacet
  facet normal -0.207912 0.978148 0
    outer loop
      vertex -1.98604 18.8959 0
      vertex -5.87132 18.0701 5
      vertex -1.98604 18.8959 5
    endloop
  endfacet
  facet normal -0.207912 0.978148 0
    outer loop
      vertex -5.87132 18.0701 5
      vertex -1.98604 18.8959 0
      vertex -5.87132 18.0701 0
    endloop
  endfacet
  facet normal 0.994522 -0.104528 0
    outer loop
      vertex 18.5848 -3.95032 5
      vertex 19 0 0
      vertex 19 0 5
    endloop
  endfacet
  facet normal 0.994522 -0.104528 0
    outer loop
      vertex 19 0 0
      vertex 18.5848 -3.95032 5
      vertex 18.5848 -3.95032 0
    endloop
  endfacet
  facet normal 0 0 -1
    outer loop
      vertex 18.5848 -3.95032 0
      vertex 18.5848 3.95032 0
      vertex 19 0 0
    endloop
  endfacet
  facet normal 0 0 -1
    outer loop
      vertex 17.3574 -7.728 0
      vertex 18.5848 3.95032 0
      vertex 18.5848 -3.95032 0
    endloop
  endfacet
  facet normal 0 0 -1
    outer loop
      vertex 17.3574 -7.728 0
      vertex 17.3574 7.728 0
      vertex 18.5848 3.95032 0
    endloop
  endfacet
  facet normal 0 0 -1
    outer loop
      vertex 15.3713 -11.1679 0
      vertex 17.3574 7.728 0
      vertex 17.3574 -7.728 0
    endloop
  endfacet
  facet normal 0 0 -1
    outer loop
      vertex 15.3713 -11.1679 0
      vertex 15.3713 11.1679 0
      vertex 17.3574 7.728 0
    endloop
  endfacet
  facet normal 0 0 -1
    outer loop
      vertex 12.7135 -14.1198 0
      vertex 15.3713 11.1679 0
      vertex 15.3713 -11.1679 0
    endloop
  endfacet
  facet normal 0 0 -1
    outer loop
      vertex 12.7135 -14.1198 0
      vertex 12.7135 14.1198 0
      vertex 15.3713 11.1679 0
    endloop
  endfacet
  facet normal 0 0 -1
    outer loop
      vertex 9.5 -16.4545 0
      vertex 12.7135 14.1198 0
      vertex 12.7135 -14.1198 0
    endloop
  endfacet
  facet normal 0 0 -1
    outer loop
      vertex 9.5 -16.4545 0
      vertex 9.5 16.4545 0
      vertex 12.7135 14.1198 0
    endloop
  endfacet
  facet normal 0 0 -1
    outer loop
      vertex 5.87132 -18.0701 0
      vertex 9.5 16.4545 0
      vertex 9.5 -16.4545 0
    endloop
  endfacet
  facet normal 0 0 -1
    outer loop
      vertex 5.87132 -18.0701 0
      vertex 5.87132 18.0701 0
      vertex 9.5 16.4545 0
    endloop
  endfacet
  facet normal 0 0 -1
    outer loop
      vertex 1.98604 -18.8959 0
      vertex 5.87132 18.0701 0
      vertex 5.87132 -18.0701 0
    endloop
  endfacet
  facet normal 0 0 -1
    outer loop
      vertex 1.98604 -18.8959 0
      vertex 1.98604 18.8959 0
      vertex 5.87132 18.0701 0
    endloop
  endfacet
  facet normal 0 0 -1
    outer loop
      vertex -1.98604 -18.8959 0
      vertex 1.98604 18.8959 0
      vertex 1.98604 -18.8959 0
    endloop
  endfacet
  facet normal 0 0 -1
    outer loop
      vertex -1.98604 -18.8959 0
      vertex -1.98604 18.8959 0
      vertex 1.98604 18.8959 0
    endloop
  endfacet
  facet normal 0 0 -1
    outer loop
      vertex -5.87132 -18.0701 0
      vertex -1.98604 18.8959 0
      vertex -1.98604 -18.8959 0
    endloop
  endfacet
  facet normal 0 0 -1
    outer loop
      vertex -5.87132 -18.0701 0
      vertex -5.87132 18.0701 0
      vertex -1.98604 18.8959 0
    endloop
  endfacet
  facet normal 0 0 -1
    outer loop
      vertex -5.87132 -18.0701 0
      vertex -9.5 16.4545 0
      vertex -5.87132 18.0701 0
    endloop
  endfacet
  facet normal 0 0 -1
    outer loop
      vertex -9.5 -16.4545 0
      vertex -9.5 16.4545 0
      vertex -5.87132 -18.0701 0
    endloop
  endfacet
  facet normal 0 0 -1
    outer loop
      vertex -12.7135 -14.1198 0
      vertex -9.5 16.4545 0
      vertex -9.5 -16.4545 0
    endloop
  endfacet
  facet normal 0 0 -1
    outer loop
      vertex -12.7135 -14.1198 0
      vertex -12.7135 14.1198 0
      vertex -9.5 16.4545 0
    endloop
  endfacet
  facet normal 0 0 -1
    outer loop
      vertex -15.3713 -11.1679 0
      vertex -12.7135 14.1198 0
      vertex -12.7135 -14.1198 0
    endloop
  endfacet
  facet normal 0 0 -1
    outer loop
      vertex -15.3713 -11.1679 0
      vertex -15.3713 11.1679 0
      vertex -12.7135 14.1198 0
    endloop
  endfacet
  facet normal 0 0 -1
    outer loop
      vertex -17.3574 -7.728 0
      vertex -15.3713 11.1679 0
      vertex -15.3713 -11.1679 0
    endloop
  endfacet
  facet normal 0 0 -1
    outer loop
      vertex -17.3574 -7.728 0
      vertex -17.3574 7.728 0
      vertex -15.3713 11.1679 0
    endloop
  endfacet
  facet normal 0 0 -1
    outer loop
      vertex -18.5848 -3.95032 0
      vertex -17.3574 7.728 0
      vertex -17.3574 -7.728 0
    endloop
  endfacet
  facet normal 0 0 -1
    outer loop
      vertex -18.5848 -3.95032 0
      vertex -18.5848 3.95032 0
      vertex -17.3574 7.728 0
    endloop
  endfacet
  facet normal 0 -0 -1
    outer loop
      vertex -18.5848 3.95032 0
      vertex -18.5848 -3.95032 0
      vertex -19 0 0
    endloop
  endfacet
  facet normal 0.866025 -0.5 0
    outer loop
      vertex 15.3713 -11.1679 5
      vertex 17.3574 -7.728 0
      vertex 17.3574 -7.728 5
    endloop
  endfacet
  facet normal 0.866025 -0.5 0
    outer loop
      vertex 17.3574 -7.728 0
      vertex 15.3713 -11.1679 5
      vertex 15.3713 -11.1679 0
    endloop
  endfacet
  facet normal -0.866025 -0.5 0
    outer loop
      vertex -15.3713 -11.1679 0
      vertex -17.3574 -7.728 5
      vertex -17.3574 -7.728 0
    endloop
  endfacet
  facet normal -0.866025 -0.5 0
    outer loop
      vertex -17.3574 -7.728 5
      vertex -15.3713 -11.1679 0
      vertex -15.3713 -11.1679 5
    endloop
  endfacet
  facet normal -0.994522 -0.104528 0
    outer loop
      vertex -18.5848 -3.95032 0
      vertex -19 0 5
      vertex -19 0 0
    endloop
  endfacet
  facet normal -0.994522 -0.104528 0
    outer loop
      vertex -19 0 5
      vertex -18.5848 -3.95032 0
      vertex -18.5848 -3.95032 5
    endloop
  endfacet
  facet normal 0.207912 -0.978148 0
    outer loop
      vertex 1.98604 -18.8959 0
      vertex 5.87132 -18.0701 5
      vertex 1.98604 -18.8959 5
    endloop
  endfacet
  facet normal 0.207912 -0.978148 0
    outer loop
      vertex 5.87132 -18.0701 5
      vertex 1.98604 -18.8959 0
      vertex 5.87132 -18.0701 0
    endloop
  endfacet
  facet normal 0.587785 -0.809017 0
    outer loop
      vertex 9.5 -16.4545 0
      vertex 12.7135 -14.1198 5
      vertex 9.5 -16.4545 5
    endloop
  endfacet
  facet normal 0.587785 -0.809017 0
    outer loop
      vertex 12.7135 -14.1198 5
      vertex 9.5 -16.4545 0
      vertex 12.7135 -14.1198 0
    endloop
  endfacet
  facet normal 0.951056 -0.309017 0
    outer loop
      vertex 17.3574 -7.728 5
      vertex 18.5848 -3.95032 0
      vertex 18.5848 -3.95032 5
    endloop
  endfacet
  facet normal 0.951056 -0.309017 0
    outer loop
      vertex 18.5848 -3.95032 0
      vertex 17.3574 -7.728 5
      vertex 17.3574 -7.728 0
    endloop
  endfacet
  facet normal -0.743145 -0.669131 0
    outer loop
      vertex -12.7135 -14.1198 0
      vertex -15.3713 -11.1679 5
      vertex -15.3713 -11.1679 0
    endloop
  endfacet
  facet normal -0.743145 -0.669131 0
    outer loop
      vertex -15.3713 -11.1679 5
      vertex -12.7135 -14.1198 0
      vertex -12.7135 -14.1198 5
    endloop
  endfacet
  facet normal -0.951056 -0.309017 0
    outer loop
      vertex -17.3574 -7.728 0
      vertex -18.5848 -3.95032 5
      vertex -18.5848 -3.95032 0
    endloop
  endfacet
  facet normal -0.951056 -0.309017 0
    outer loop
      vertex -18.5848 -3.95032 5
      vertex -17.3574 -7.728 0
      vertex -17.3574 -7.728 5
    endloop
  endfacet
  facet normal 0.406736 -0.913546 0
    outer loop
      vertex 5.87132 -18.0701 0
      vertex 9.5 -16.4545 5
      vertex 5.87132 -18.0701 5
    endloop
  endfacet
  facet normal 0.406736 -0.913546 0
    outer loop
      vertex 9.5 -16.4545 5
      vertex 5.87132 -18.0701 0
      vertex 9.5 -16.4545 0
    endloop
  endfacet
  facet normal 0.743145 -0.669131 0
    outer loop
      vertex 12.7135 -14.1198 5
      vertex 15.3713 -11.1679 0
      vertex 15.3713 -11.1679 5
    endloop
  endfacet
  facet normal 0.743145 -0.669131 0
    outer loop
      vertex 15.3713 -11.1679 0
      vertex 12.7135 -14.1198 5
      vertex 12.7135 -14.1198 0
    endloop
  endfacet
  facet normal -0.587785 -0.809017 0
    outer loop
      vertex -12.7135 -14.1198 0
      vertex -9.5 -16.4545 5
      vertex -12.7135 -14.1198 5
    endloop
  endfacet
  facet normal -0.587785 -0.809017 -0
    outer loop
      vertex -9.5 -16.4545 5
      vertex -12.7135 -14.1198 0
      vertex -9.5 -16.4545 0
    endloop
  endfacet
  facet normal -0.406736 -0.913546 0
    outer loop
      vertex -9.5 -16.4545 0
      vertex -5.87132 -18.0701 5
      vertex -9.5 -16.4545 5
    endloop
  endfacet
  facet normal -0.406736 -0.913546 -0
    outer loop
      vertex -5.87132 -18.0701 5
      vertex -9.5 -16.4545 0
      vertex -5.87132 -18.0701 0
    endloop
  endfacet
  facet normal -0.207912 -0.978148 0
    outer loop
      vertex -5.87132 -18.0701 0
      vertex -1.98604 -18.8959 5
      vertex -5.87132 -18.0701 5
    endloop
  endfacet
  facet normal -0.207912 -0.978148 -0
    outer loop
      vertex -1.98604 -18.8959 5
      vertex -5.87132 -18.0701 0
      vertex -1.98604 -18.8959 0
    endloop
  endfacet
  facet normal -1 0 0
    outer loop
      vertex 49 0 11
      vertex 49 1.5 5
      vertex 49 0 5
    endloop
  endfacet
  facet normal -1 0 0
    outer loop
      vertex 49 1.5 5
      vertex 49 0 11
      vertex 49 1.5 15
    endloop
  endfacet
  facet normal -1 0 0
    outer loop
      vertex 49 -1.5 15
      vertex 49 0 11
      vertex 49 -1.5 11
    endloop
  endfacet
  facet normal -1 0 0
    outer loop
      vertex 49 0 11
      vertex 49 -1.5 15
      vertex 49 1.5 15
    endloop
  endfacet
  facet normal -0 0 1
    outer loop
      vertex 49 1.5 15
      vertex 57 -1.5 15
      vertex 57 1.5 15
    endloop
  endfacet
  facet normal 0 0 1
    outer loop
      vertex 57 -1.5 15
      vertex 49 1.5 15
      vertex 49 -1.5 15
    endloop
  endfacet
  facet normal 1 -0 0
    outer loop
      vertex 57 -1.5 15
      vertex 57 1.5 11
      vertex 57 1.5 15
    endloop
  endfacet
  facet normal 1 0 0
    outer loop
      vertex 57 1.5 11
      vertex 57 -1.5 15
      vertex 57 -1.5 11
    endloop
  endfacet
  facet normal 0 0 -1
    outer loop
      vertex 57 -1.5 11
      vertex 52 0 11
      vertex 57 1.5 11
    endloop
  endfacet
  facet normal 0 0 -1
    outer loop
      vertex 49 -1.5 11
      vertex 52 0 11
      vertex 57 -1.5 11
    endloop
  endfacet
  facet normal -0 0 -1
    outer loop
      vertex 52 0 11
      vertex 49 -1.5 11
      vertex 49 0 11
    endloop
  endfacet
  facet normal -0 0 -1
    outer loop
      vertex 57 1.5 11
      vertex 52 0 11
      vertex 52 1.5 11
    endloop
  endfacet
  facet normal 0 -1 0
    outer loop
      vertex 49 -1.5 11
      vertex 57 -1.5 15
      vertex 49 -1.5 15
    endloop
  endfacet
  facet normal 0 -1 -0
    outer loop
      vertex 57 -1.5 15
      vertex 49 -1.5 11
      vertex 57 -1.5 11
    endloop
  endfacet
  facet normal 0 1 0
    outer loop
      vertex 52 1.5 11
      vertex 57 1.5 15
      vertex 57 1.5 11
    endloop
  endfacet
  facet normal 0 1 0
    outer loop
      vertex 57 1.5 15
      vertex 52 1.5 11
      vertex 49 1.5 15
    endloop
  endfacet
  facet normal 0 1 0
    outer loop
      vertex 49 1.5 5
      vertex 52 1.5 11
      vertex 52 1.5 5
    endloop
  endfacet
  facet normal 0 1 0
    outer loop
      vertex 52 1.5 11
      vertex 49 1.5 5
      vertex 49 1.5 15
    endloop
  endfacet
  facet normal 1 -0 0
    outer loop
      vertex 52 0 11
      vertex 52 1.5 5
      vertex 52 1.5 11
    endloop
  endfacet
  facet normal 1 0 0
    outer loop
      vertex 52 1.5 5
      vertex 52 0 11
      vertex 52 0 5
    endloop
  endfacet
  facet normal 0 0 1
    outer loop
      vertex 41.014 -18.8959 5
      vertex 37 -1.5 5
      vertex 37.1287 -18.0701 5
    endloop
  endfacet
  facet normal 0 0 1
    outer loop
      vertex 30.2865 -14.1198 5
      vertex 37 -1.5 5
      vertex 34 -1.5 5
    endloop
  endfacet
  facet normal 0 0 1
    outer loop
      vertex 37 -1.5 5
      vertex 33.5 -16.4545 5
      vertex 37.1287 -18.0701 5
    endloop
  endfacet
  facet normal -0 0 1
    outer loop
      vertex 27.6287 11.1679 5
      vertex 34 0 5
      vertex 30.2865 14.1198 5
    endloop
  endfacet
  facet normal -0 0 1
    outer loop
      vertex 25.6426 7.728 5
      vertex 34 0 5
      vertex 27.6287 11.1679 5
    endloop
  endfacet
  facet normal 0 0 1
    outer loop
      vertex 37 -1.5 5
      vertex 30.2865 -14.1198 5
      vertex 33.5 -16.4545 5
    endloop
  endfacet
  facet normal -0 0 1
    outer loop
      vertex 24.4152 3.95032 5
      vertex 34 0 5
      vertex 25.6426 7.728 5
    endloop
  endfacet
  facet normal 0 0 1
    outer loop
      vertex 34 -1.5 5
      vertex 27.6287 -11.1679 5
      vertex 30.2865 -14.1198 5
    endloop
  endfacet
  facet normal 0 0 1
    outer loop
      vertex 24 0 5
      vertex 34 0 5
      vertex 24.4152 3.95032 5
    endloop
  endfacet
  facet normal 0 0 1
    outer loop
      vertex 34 -1.5 5
      vertex 25.6426 -7.728 5
      vertex 27.6287 -11.1679 5
    endloop
  endfacet
  facet normal 0 0 1
    outer loop
      vertex 34 0 5
      vertex 24 0 5
      vertex 34 -1.5 5
    endloop
  endfacet
  facet normal 0 0 1
    outer loop
      vertex 34 -1.5 5
      vertex 24.4152 -3.95032 5
      vertex 25.6426 -7.728 5
    endloop
  endfacet
  facet normal 0 0 1
    outer loop
      vertex 34 -1.5 5
      vertex 24 0 5
      vertex 24.4152 -3.95032 5
    endloop
  endfacet
  facet normal -0 0 1
    outer loop
      vertex 52 1.5 5
      vertex 62 0 5
      vertex 61.5848 3.95032 5
    endloop
  endfacet
  facet normal 0 0 1
    outer loop
      vertex 52 1.5 5
      vertex 61.5848 3.95032 5
      vertex 60.3574 7.728 5
    endloop
  endfacet
  facet normal 0 0 1
    outer loop
      vertex 62 0 5
      vertex 52 1.5 5
      vertex 52 0 5
    endloop
  endfacet
  facet normal 0 0 1
    outer loop
      vertex 52 1.5 5
      vertex 60.3574 7.728 5
      vertex 58.3713 11.1679 5
    endloop
  endfacet
  facet normal 0 0 1
    outer loop
      vertex 62 0 5
      vertex 52 0 5
      vertex 61.5848 -3.95032 5
    endloop
  endfacet
  facet normal 0 0 1
    outer loop
      vertex 52 1.5 5
      vertex 58.3713 11.1679 5
      vertex 55.7135 14.1198 5
    endloop
  endfacet
  facet normal 0 0 1
    outer loop
      vertex 61.5848 -3.95032 5
      vertex 52 0 5
      vertex 60.3574 -7.728 5
    endloop
  endfacet
  facet normal 0 0 1
    outer loop
      vertex 49 1.5 5
      vertex 55.7135 14.1198 5
      vertex 52.5 16.4545 5
    endloop
  endfacet
  facet normal 0 0 1
    outer loop
      vertex 60.3574 -7.728 5
      vertex 52 0 5
      vertex 58.3713 -11.1679 5
    endloop
  endfacet
  facet normal 0 0 1
    outer loop
      vertex 58.3713 -11.1679 5
      vertex 52 0 5
      vertex 55.7135 -14.1198 5
    endloop
  endfacet
  facet normal 0 0 1
    outer loop
      vertex 55.7135 14.1198 5
      vertex 49 1.5 5
      vertex 52 1.5 5
    endloop
  endfacet
  facet normal 0 0 1
    outer loop
      vertex 44.986 18.8959 5
      vertex 49 1.5 5
      vertex 48.8713 18.0701 5
    endloop
  endfacet
  facet normal 0 0 1
    outer loop
      vertex 48.8713 18.0701 5
      vertex 49 1.5 5
      vertex 52.5 16.4545 5
    endloop
  endfacet
  facet normal -0 0 1
    outer loop
      vertex 49 0 5
      vertex 55.7135 -14.1198 5
      vertex 52 0 5
    endloop
  endfacet
  facet normal 0 0 1
    outer loop
      vertex 55.7135 -14.1198 5
      vertex 49 0 5
      vertex 52.5 -16.4545 5
    endloop
  endfacet
  facet normal 0 0 1
    outer loop
      vertex 49 0 5
      vertex 48.8713 -18.0701 5
      vertex 52.5 -16.4545 5
    endloop
  endfacet
  facet normal -0 0 1
    outer loop
      vertex 41.014 18.8959 5
      vertex 49 1.5 5
      vertex 44.986 18.8959 5
    endloop
  endfacet
  facet normal 0 0 1
    outer loop
      vertex 49 1.5 5
      vertex 37 0 5
      vertex 49 0 5
    endloop
  endfacet
  facet normal 0 0 1
    outer loop
      vertex 37 -1.5 5
      vertex 49 0 5
      vertex 37 0 5
    endloop
  endfacet
  facet normal 0 0 1
    outer loop
      vertex 49 1.5 5
      vertex 41.014 18.8959 5
      vertex 37 0 5
    endloop
  endfacet
  facet normal 0 0 1
    outer loop
      vertex 49 0 5
      vertex 44.986 -18.8959 5
      vertex 48.8713 -18.0701 5
    endloop
  endfacet
  facet normal 0 0 1
    outer loop
      vertex 37 0 5
      vertex 41.014 18.8959 5
      vertex 37.1287 18.0701 5
    endloop
  endfacet
  facet normal 0 0 1
    outer loop
      vertex 49 0 5
      vertex 37 -1.5 5
      vertex 44.986 -18.8959 5
    endloop
  endfacet
  facet normal 0 0 1
    outer loop
      vertex 44.986 -18.8959 5
      vertex 37 -1.5 5
      vertex 41.014 -18.8959 5
    endloop
  endfacet
  facet normal -0 0 1
    outer loop
      vertex 33.5 16.4545 5
      vertex 37 0 5
      vertex 37.1287 18.0701 5
    endloop
  endfacet
  facet normal 0 0 1
    outer loop
      vertex 37 0 5
      vertex 30.2865 14.1198 5
      vertex 34 0 5
    endloop
  endfacet
  facet normal -0 0 1
    outer loop
      vertex 30.2865 14.1198 5
      vertex 37 0 5
      vertex 33.5 16.4545 5
    endloop
  endfacet
  facet normal 0 -1 0
    outer loop
      vertex 49 0 5
      vertex 52 0 11
      vertex 49 0 11
    endloop
  endfacet
  facet normal 0 -1 -0
    outer loop
      vertex 52 0 11
      vertex 49 0 5
      vertex 52 0 5
    endloop
  endfacet
  facet normal -1 0 0
    outer loop
      vertex 29 -1.5 11
      vertex 29 1.5 15
      vertex 29 1.5 11
    endloop
  endfacet
  facet normal -1 -0 0
    outer loop
      vertex 29 1.5 15
      vertex 29 -1.5 11
      vertex 29 -1.5 15
    endloop
  endfacet
  facet normal -0 0 1
    outer loop
      vertex 29 1.5 15
      vertex 37 -1.5 15
      vertex 37 1.5 15
    endloop
  endfacet
  facet normal 0 0 1
    outer loop
      vertex 37 -1.5 15
      vertex 29 1.5 15
      vertex 29 -1.5 15
    endloop
  endfacet
  facet normal 1 0 0
    outer loop
      vertex 37 1.5 15
      vertex 37 0 11
      vertex 37 1.5 11
    endloop
  endfacet
  facet normal 1 -0 0
    outer loop
      vertex 37 -1.5 15
      vertex 37 0 11
      vertex 37 1.5 15
    endloop
  endfacet
  facet normal 1 0 0
    outer loop
      vertex 37 -1.5 5
      vertex 37 0 11
      vertex 37 -1.5 15
    endloop
  endfacet
  facet normal 1 0 0
    outer loop
      vertex 37 0 11
      vertex 37 -1.5 5
      vertex 37 0 5
    endloop
  endfacet
  facet normal 0 1 -0
    outer loop
      vertex 37 1.5 11
      vertex 29 1.5 15
      vertex 37 1.5 15
    endloop
  endfacet
  facet normal 0 1 0
    outer loop
      vertex 29 1.5 15
      vertex 37 1.5 11
      vertex 29 1.5 11
    endloop
  endfacet
  facet normal 0 0 -1
    outer loop
      vertex 34 -1.5 11
      vertex 29 -1.5 11
      vertex 34 0 11
    endloop
  endfacet
  facet normal 0 0 -1
    outer loop
      vertex 34 0 11
      vertex 37 1.5 11
      vertex 37 0 11
    endloop
  endfacet
  facet normal 0 0 -1
    outer loop
      vertex 29 1.5 11
      vertex 34 0 11
      vertex 29 -1.5 11
    endloop
  endfacet
  facet normal 0 0 -1
    outer loop
      vertex 34 0 11
      vertex 29 1.5 11
      vertex 37 1.5 11
    endloop
  endfacet
  facet normal 0 -1 0
    outer loop
      vertex 34 -1.5 11
      vertex 29 -1.5 15
      vertex 29 -1.5 11
    endloop
  endfacet
  facet normal 0 -1 0
    outer loop
      vertex 29 -1.5 15
      vertex 34 -1.5 11
      vertex 37 -1.5 15
    endloop
  endfacet
  facet normal 0 -1 0
    outer loop
      vertex 37 -1.5 5
      vertex 34 -1.5 11
      vertex 34 -1.5 5
    endloop
  endfacet
  facet normal 0 -1 0
    outer loop
      vertex 34 -1.5 11
      vertex 37 -1.5 5
      vertex 37 -1.5 15
    endloop
  endfacet
  facet normal -1 0 0
    outer loop
      vertex 34 -1.5 5
      vertex 34 0 11
      vertex 34 0 5
    endloop
  endfacet
  facet normal -1 -0 0
    outer loop
      vertex 34 0 11
      vertex 34 -1.5 5
      vertex 34 -1.5 11
    endloop
  endfacet
  facet normal 0 1 -0
    outer loop
      vertex 37 0 5
      vertex 34 0 11
      vertex 37 0 11
    endloop
  endfacet
  facet normal 0 1 0
    outer loop
      vertex 34 0 11
      vertex 37 0 5
      vertex 34 0 5
    endloop
  endfacet
  facet normal 0.994522 0.104528 0
    outer loop
      vertex 62 0 5
      vertex 61.5848 3.95032 0
      vertex 61.5848 3.95032 5
    endloop
  endfacet
  facet normal 0.994522 0.104528 0
    outer loop
      vertex 61.5848 3.95032 0
      vertex 62 0 5
      vertex 62 0 0
    endloop
  endfacet
  facet normal -0.994522 0.104528 0
    outer loop
      vertex 24 0 0
      vertex 24.4152 3.95032 5
      vertex 24.4152 3.95032 0
    endloop
  endfacet
  facet normal -0.994522 0.104528 0
    outer loop
      vertex 24.4152 3.95032 5
      vertex 24 0 0
      vertex 24 0 5
    endloop
  endfacet
  facet normal 0 1 -0
    outer loop
      vertex 44.986 18.8959 0
      vertex 41.014 18.8959 5
      vertex 44.986 18.8959 5
    endloop
  endfacet
  facet normal 0 1 0
    outer loop
      vertex 41.014 18.8959 5
      vertex 44.986 18.8959 0
      vertex 41.014 18.8959 0
    endloop
  endfacet
  facet normal 0 -1 0
    outer loop
      vertex 41.014 -18.8959 0
      vertex 44.986 -18.8959 5
      vertex 41.014 -18.8959 5
    endloop
  endfacet
  facet normal 0 -1 -0
    outer loop
      vertex 44.986 -18.8959 5
      vertex 41.014 -18.8959 0
      vertex 44.986 -18.8959 0
    endloop
  endfacet
  facet normal 0.587785 0.809017 -0
    outer loop
      vertex 55.7135 14.1198 0
      vertex 52.5 16.4545 5
      vertex 55.7135 14.1198 5
    endloop
  endfacet
  facet normal 0.587785 0.809017 0
    outer loop
      vertex 52.5 16.4545 5
      vertex 55.7135 14.1198 0
      vertex 52.5 16.4545 0
    endloop
  endfacet
  facet normal -0.743145 0.669131 0
    outer loop
      vertex 27.6287 11.1679 0
      vertex 30.2865 14.1198 5
      vertex 30.2865 14.1198 0
    endloop
  endfacet
  facet normal -0.743145 0.669131 0
    outer loop
      vertex 30.2865 14.1198 5
      vertex 27.6287 11.1679 0
      vertex 27.6287 11.1679 5
    endloop
  endfacet
  facet normal -0.866025 0.5 0
    outer loop
      vertex 25.6426 7.728 0
      vertex 27.6287 11.1679 5
      vertex 27.6287 11.1679 0
    endloop
  endfacet
  facet normal -0.866025 0.5 0
    outer loop
      vertex 27.6287 11.1679 5
      vertex 25.6426 7.728 0
      vertex 25.6426 7.728 5
    endloop
  endfacet
  facet normal -0.406736 0.913546 0
    outer loop
      vertex 37.1287 18.0701 0
      vertex 33.5 16.4545 5
      vertex 37.1287 18.0701 5
    endloop
  endfacet
  facet normal -0.406736 0.913546 0
    outer loop
      vertex 33.5 16.4545 5
      vertex 37.1287 18.0701 0
      vertex 33.5 16.4545 0
    endloop
  endfacet
  facet normal 0.866026 0.5 0
    outer loop
      vertex 60.3574 7.728 5
      vertex 58.3713 11.1679 0
      vertex 58.3713 11.1679 5
    endloop
  endfacet
  facet normal 0.866026 0.5 0
    outer loop
      vertex 58.3713 11.1679 0
      vertex 60.3574 7.728 5
      vertex 60.3574 7.728 0
    endloop
  endfacet
  facet normal 0.951056 0.309018 0
    outer loop
      vertex 61.5848 3.95032 5
      vertex 60.3574 7.728 0
      vertex 60.3574 7.728 5
    endloop
  endfacet
  facet normal 0.951056 0.309018 0
    outer loop
      vertex 60.3574 7.728 0
      vertex 61.5848 3.95032 5
      vertex 61.5848 3.95032 0
    endloop
  endfacet
  facet normal 0.743145 0.669131 0
    outer loop
      vertex 58.3713 11.1679 5
      vertex 55.7135 14.1198 0
      vertex 55.7135 14.1198 5
    endloop
  endfacet
  facet normal 0.743145 0.669131 0
    outer loop
      vertex 55.7135 14.1198 0
      vertex 58.3713 11.1679 5
      vertex 58.3713 11.1679 0
    endloop
  endfacet
  facet normal 0.207912 0.978148 -0
    outer loop
      vertex 48.8713 18.0701 0
      vertex 44.986 18.8959 5
      vertex 48.8713 18.0701 5
    endloop
  endfacet
  facet normal 0.207912 0.978148 0
    outer loop
      vertex 44.986 18.8959 5
      vertex 48.8713 18.0701 0
      vertex 44.986 18.8959 0
    endloop
  endfacet
  facet normal 0.406736 0.913546 -0
    outer loop
      vertex 52.5 16.4545 0
      vertex 48.8713 18.0701 5
      vertex 52.5 16.4545 5
    endloop
  endfacet
  facet normal 0.406736 0.913546 0
    outer loop
      vertex 48.8713 18.0701 5
      vertex 52.5 16.4545 0
      vertex 48.8713 18.0701 0
    endloop
  endfacet
  facet normal -0.951056 0.309017 0
    outer loop
      vertex 24.4152 3.95032 0
      vertex 25.6426 7.728 5
      vertex 25.6426 7.728 0
    endloop
  endfacet
  facet normal -0.951056 0.309017 0
    outer loop
      vertex 25.6426 7.728 5
      vertex 24.4152 3.95032 0
      vertex 24.4152 3.95032 5
    endloop
  endfacet
  facet normal -0.587785 0.809017 0
    outer loop
      vertex 33.5 16.4545 0
      vertex 30.2865 14.1198 5
      vertex 33.5 16.4545 5
    endloop
  endfacet
  facet normal -0.587785 0.809017 0
    outer loop
      vertex 30.2865 14.1198 5
      vertex 33.5 16.4545 0
      vertex 30.2865 14.1198 0
    endloop
  endfacet
  facet normal -0.207912 0.978148 0
    outer loop
      vertex 41.014 18.8959 0
      vertex 37.1287 18.0701 5
      vertex 41.014 18.8959 5
    endloop
  endfacet
  facet normal -0.207912 0.978148 0
    outer loop
      vertex 37.1287 18.0701 5
      vertex 41.014 18.8959 0
      vertex 37.1287 18.0701 0
    endloop
  endfacet
  facet normal 0.994522 -0.104528 0
    outer loop
      vertex 61.5848 -3.95032 5
      vertex 62 0 0
      vertex 62 0 5
    endloop
  endfacet
  facet normal 0.994522 -0.104528 0
    outer loop
      vertex 62 0 0
      vertex 61.5848 -3.95032 5
      vertex 61.5848 -3.95032 0
    endloop
  endfacet
  facet normal 0 0 -1
    outer loop
      vertex 61.5848 -3.95032 0
      vertex 61.5848 3.95032 0
      vertex 62 0 0
    endloop
  endfacet
  facet normal 0 0 -1
    outer loop
      vertex 60.3574 -7.728 0
      vertex 61.5848 3.95032 0
      vertex 61.5848 -3.95032 0
    endloop
  endfacet
  facet normal 0 0 -1
    outer loop
      vertex 60.3574 -7.728 0
      vertex 60.3574 7.728 0
      vertex 61.5848 3.95032 0
    endloop
  endfacet
  facet normal 0 0 -1
    outer loop
      vertex 58.3713 -11.1679 0
      vertex 60.3574 7.728 0
      vertex 60.3574 -7.728 0
    endloop
  endfacet
  facet normal 0 0 -1
    outer loop
      vertex 58.3713 -11.1679 0
      vertex 58.3713 11.1679 0
      vertex 60.3574 7.728 0
    endloop
  endfacet
  facet normal 0 0 -1
    outer loop
      vertex 55.7135 -14.1198 0
      vertex 58.3713 11.1679 0
      vertex 58.3713 -11.1679 0
    endloop
  endfacet
  facet normal 0 0 -1
    outer loop
      vertex 55.7135 -14.1198 0
      vertex 55.7135 14.1198 0
      vertex 58.3713 11.1679 0
    endloop
  endfacet
  facet normal 0 0 -1
    outer loop
      vertex 52.5 -16.4545 0
      vertex 55.7135 14.1198 0
      vertex 55.7135 -14.1198 0
    endloop
  endfacet
  facet normal 0 0 -1
    outer loop
      vertex 52.5 -16.4545 0
      vertex 52.5 16.4545 0
      vertex 55.7135 14.1198 0
    endloop
  endfacet
  facet normal 0 0 -1
    outer loop
      vertex 48.8713 -18.0701 0
      vertex 52.5 16.4545 0
      vertex 52.5 -16.4545 0
    endloop
  endfacet
  facet normal 0 0 -1
    outer loop
      vertex 48.8713 -18.0701 0
      vertex 48.8713 18.0701 0
      vertex 52.5 16.4545 0
    endloop
  endfacet
  facet normal 0 0 -1
    outer loop
      vertex 44.986 -18.8959 0
      vertex 48.8713 18.0701 0
      vertex 48.8713 -18.0701 0
    endloop
  endfacet
  facet normal 0 0 -1
    outer loop
      vertex 44.986 -18.8959 0
      vertex 44.986 18.8959 0
      vertex 48.8713 18.0701 0
    endloop
  endfacet
  facet normal 0 0 -1
    outer loop
      vertex 41.014 -18.8959 0
      vertex 44.986 18.8959 0
      vertex 44.986 -18.8959 0
    endloop
  endfacet
  facet normal 0 0 -1
    outer loop
      vertex 41.014 -18.8959 0
      vertex 41.014 18.8959 0
      vertex 44.986 18.8959 0
    endloop
  endfacet
  facet normal 0 0 -1
    outer loop
      vertex 37.1287 -18.0701 0
      vertex 41.014 18.8959 0
      vertex 41.014 -18.8959 0
    endloop
  endfacet
  facet normal 0 0 -1
    outer loop
      vertex 37.1287 -18.0701 0
      vertex 37.1287 18.0701 0
      vertex 41.014 18.8959 0
    endloop
  endfacet
  facet normal 0 0 -1
    outer loop
      vertex 33.5 -16.4545 0
      vertex 37.1287 18.0701 0
      vertex 37.1287 -18.0701 0
    endloop
  endfacet
  facet normal 0 0 -1
    outer loop
      vertex 33.5 -16.4545 0
      vertex 33.5 16.4545 0
      vertex 37.1287 18.0701 0
    endloop
  endfacet
  facet normal 0 0 -1
    outer loop
      vertex 30.2865 -14.1198 0
      vertex 33.5 16.4545 0
      vertex 33.5 -16.4545 0
    endloop
  endfacet
  facet normal 0 0 -1
    outer loop
      vertex 30.2865 -14.1198 0
      vertex 30.2865 14.1198 0
      vertex 33.5 16.4545 0
    endloop
  endfacet
  facet normal 0 0 -1
    outer loop
      vertex 27.6287 -11.1679 0
      vertex 30.2865 14.1198 0
      vertex 30.2865 -14.1198 0
    endloop
  endfacet
  facet normal 0 0 -1
    outer loop
      vertex 27.6287 -11.1679 0
      vertex 27.6287 11.1679 0
      vertex 30.2865 14.1198 0
    endloop
  endfacet
  facet normal 0 0 -1
    outer loop
      vertex 25.6426 -7.728 0
      vertex 27.6287 11.1679 0
      vertex 27.6287 -11.1679 0
    endloop
  endfacet
  facet normal 0 0 -1
    outer loop
      vertex 25.6426 -7.728 0
      vertex 25.6426 7.728 0
      vertex 27.6287 11.1679 0
    endloop
  endfacet
  facet normal 0 0 -1
    outer loop
      vertex 24.4152 -3.95032 0
      vertex 25.6426 7.728 0
      vertex 25.6426 -7.728 0
    endloop
  endfacet
  facet normal 0 0 -1
    outer loop
      vertex 24.4152 -3.95032 0
      vertex 24.4152 3.95032 0
      vertex 25.6426 7.728 0
    endloop
  endfacet
  facet normal 0 -0 -1
    outer loop
      vertex 24.4152 3.95032 0
      vertex 24.4152 -3.95032 0
      vertex 24 0 0
    endloop
  endfacet
  facet normal 0.743145 -0.669131 0
    outer loop
      vertex 55.7135 -14.1198 5
      vertex 58.3713 -11.1679 0
      vertex 58.3713 -11.1679 5
    endloop
  endfacet
  facet normal 0.743145 -0.669131 0
    outer loop
      vertex 58.3713 -11.1679 0
      vertex 55.7135 -14.1198 5
      vertex 55.7135 -14.1198 0
    endloop
  endfacet
  facet normal 0.951056 -0.309018 0
    outer loop
      vertex 60.3574 -7.728 5
      vertex 61.5848 -3.95032 0
      vertex 61.5848 -3.95032 5
    endloop
  endfacet
  facet normal 0.951056 -0.309018 0
    outer loop
      vertex 61.5848 -3.95032 0
      vertex 60.3574 -7.728 5
      vertex 60.3574 -7.728 0
    endloop
  endfacet
  facet normal 0.866026 -0.5 0
    outer loop
      vertex 58.3713 -11.1679 5
      vertex 60.3574 -7.728 0
      vertex 60.3574 -7.728 5
    endloop
  endfacet
  facet normal 0.866026 -0.5 0
    outer loop
      vertex 60.3574 -7.728 0
      vertex 58.3713 -11.1679 5
      vertex 58.3713 -11.1679 0
    endloop
  endfacet
  facet normal -0.866025 -0.5 0
    outer loop
      vertex 27.6287 -11.1679 0
      vertex 25.6426 -7.728 5
      vertex 25.6426 -7.728 0
    endloop
  endfacet
  facet normal -0.866025 -0.5 0
    outer loop
      vertex 25.6426 -7.728 5
      vertex 27.6287 -11.1679 0
      vertex 27.6287 -11.1679 5
    endloop
  endfacet
  facet normal -0.994522 -0.104528 0
    outer loop
      vertex 24.4152 -3.95032 0
      vertex 24 0 5
      vertex 24 0 0
    endloop
  endfacet
  facet normal -0.994522 -0.104528 0
    outer loop
      vertex 24 0 5
      vertex 24.4152 -3.95032 0
      vertex 24.4152 -3.95032 5
    endloop
  endfacet
  facet normal 0.207912 -0.978148 0
    outer loop
      vertex 44.986 -18.8959 0
      vertex 48.8713 -18.0701 5
      vertex 44.986 -18.8959 5
    endloop
  endfacet
  facet normal 0.207912 -0.978148 0
    outer loop
      vertex 48.8713 -18.0701 5
      vertex 44.986 -18.8959 0
      vertex 48.8713 -18.0701 0
    endloop
  endfacet
  facet normal 0.587785 -0.809017 0
    outer loop
      vertex 52.5 -16.4545 0
      vertex 55.7135 -14.1198 5
      vertex 52.5 -16.4545 5
    endloop
  endfacet
  facet normal 0.587785 -0.809017 0
    outer loop
      vertex 55.7135 -14.1198 5
      vertex 52.5 -16.4545 0
      vertex 55.7135 -14.1198 0
    endloop
  endfacet
  facet normal -0.406736 -0.913546 0
    outer loop
      vertex 33.5 -16.4545 0
      vertex 37.1287 -18.0701 5
      vertex 33.5 -16.4545 5
    endloop
  endfacet
  facet normal -0.406736 -0.913546 -0
    outer loop
      vertex 37.1287 -18.0701 5
      vertex 33.5 -16.4545 0
      vertex 37.1287 -18.0701 0
    endloop
  endfacet
  facet normal -0.743145 -0.669131 0
    outer loop
      vertex 30.2865 -14.1198 0
      vertex 27.6287 -11.1679 5
      vertex 27.6287 -11.1679 0
    endloop
  endfacet
  facet normal -0.743145 -0.669131 0
    outer loop
      vertex 27.6287 -11.1679 5
      vertex 30.2865 -14.1198 0
      vertex 30.2865 -14.1198 5
    endloop
  endfacet
  facet normal -0.951056 -0.309017 0
    outer loop
      vertex 25.6426 -7.728 0
      vertex 24.4152 -3.95032 5
      vertex 24.4152 -3.95032 0
    endloop
  endfacet
  facet normal -0.951056 -0.309017 0
    outer loop
      vertex 24.4152 -3.95032 5
      vertex 25.6426 -7.728 0
      vertex 25.6426 -7.728 5
    endloop
  endfacet
  facet normal 0.406736 -0.913546 0
    outer loop
      vertex 48.8713 -18.0701 0
      vertex 52.5 -16.4545 5
      vertex 48.8713 -18.0701 5
    endloop
  endfacet
  facet normal 0.406736 -0.913546 0
    outer loop
      vertex 52.5 -16.4545 5
      vertex 48.8713 -18.0701 0
      vertex 52.5 -16.4545 0
    endloop
  endfacet
  facet normal -0.587785 -0.809017 0
    outer loop
      vertex 30.2865 -14.1198 0
      vertex 33.5 -16.4545 5
      vertex 30.2865 -14.1198 5
    endloop
  endfacet
  facet normal -0.587785 -0.809017 -0
    outer loop
      vertex 33.5 -16.4545 5
      vertex 30.2865 -14.1198 0
      vertex 33.5 -16.4545 0
    endloop
  endfacet
  facet normal -0.207912 -0.978148 0
    outer loop
      vertex 37.1287 -18.0701 0
      vertex 41.014 -18.8959 5
      vertex 37.1287 -18.0701 5
    endloop
  endfacet
  facet normal -0.207912 -0.978148 -0
    outer loop
      vertex 41.014 -18.8959 5
      vertex 37.1287 -18.0701 0
      vertex 41.014 -18.8959 0
    endloop
  endfacet
endsolid OpenSCAD_Model
