solid OpenSCAD_Model
  facet normal -1 0 0
    outer loop
      vertex 0 0 0
      vertex 0 24 38
      vertex 0 24 0
    endloop
  endfacet
  facet normal -1 -0 0
    outer loop
      vertex 0 24 38
      vertex 0 0 0
      vertex 0 0 38
    endloop
  endfacet
  facet normal 0 0 1
    outer loop
      vertex 31 24 38
      vertex 24 17 38
      vertex 31 0 38
    endloop
  endfacet
  facet normal 0 0 1
    outer loop
      vertex 31 24 38
      vertex 17 17 38
      vertex 24 17 38
    endloop
  endfacet
  facet normal 0 0 1
    outer loop
      vertex 17 17 38
      vertex 0 24 38
      vertex 17 7 38
    endloop
  endfacet
  facet normal -0 0 1
    outer loop
      vertex 0 24 38
      vertex 17 17 38
      vertex 31 24 38
    endloop
  endfacet
  facet normal -0 0 1
    outer loop
      vertex 24 7 38
      vertex 31 0 38
      vertex 24 17 38
    endloop
  endfacet
  facet normal -0 0 1
    outer loop
      vertex 17 7 38
      vertex 31 0 38
      vertex 24 7 38
    endloop
  endfacet
  facet normal 0 0 1
    outer loop
      vertex 17 7 38
      vertex 0 0 38
      vertex 31 0 38
    endloop
  endfacet
  facet normal 0 0 1
    outer loop
      vertex 0 0 38
      vertex 17 7 38
      vertex 0 24 38
    endloop
  endfacet
  facet normal 1 0 0
    outer loop
      vertex 31 7 14
      vertex 31 0 14
      vertex 31 7 7
    endloop
  endfacet
  facet normal 1 0 0
    outer loop
      vertex 31 24 38
      vertex 31 17 31
      vertex 31 24 0
    endloop
  endfacet
  facet normal 1 0 0
    outer loop
      vertex 31 24 38
      vertex 31 7 31
      vertex 31 17 31
    endloop
  endfacet
  facet normal 1 -0 0
    outer loop
      vertex 31 0 38
      vertex 31 7 31
      vertex 31 24 38
    endloop
  endfacet
  facet normal 1 0 0
    outer loop
      vertex 31 0 24
      vertex 31 7 31
      vertex 31 0 38
    endloop
  endfacet
  facet normal 1 0 0
    outer loop
      vertex 31 7 31
      vertex 31 0 24
      vertex 31 7 24
    endloop
  endfacet
  facet normal 1 -0 0
    outer loop
      vertex 31 17 7
      vertex 31 24 0
      vertex 31 17 31
    endloop
  endfacet
  facet normal 1 -0 0
    outer loop
      vertex 31 7 7
      vertex 31 24 0
      vertex 31 17 7
    endloop
  endfacet
  facet normal 1 0 0
    outer loop
      vertex 31 7 7
      vertex 31 0 0
      vertex 31 24 0
    endloop
  endfacet
  facet normal 1 0 0
    outer loop
      vertex 31 0 0
      vertex 31 7 7
      vertex 31 0 14
    endloop
  endfacet
  facet normal 0 1 -0
    outer loop
      vertex 31 24 0
      vertex 0 24 38
      vertex 31 24 38
    endloop
  endfacet
  facet normal 0 1 0
    outer loop
      vertex 0 24 38
      vertex 31 24 0
      vertex 0 24 0
    endloop
  endfacet
  facet normal 0 0 -1
    outer loop
      vertex 31 0 0
      vertex 24 7 0
      vertex 31 24 0
    endloop
  endfacet
  facet normal 0 0 -1
    outer loop
      vertex 31 0 0
      vertex 17 7 0
      vertex 24 7 0
    endloop
  endfacet
  facet normal -0 0 -1
    outer loop
      vertex 17 7 0
      vertex 0 0 0
      vertex 17 17 0
    endloop
  endfacet
  facet normal 0 0 -1
    outer loop
      vertex 0 0 0
      vertex 17 7 0
      vertex 31 0 0
    endloop
  endfacet
  facet normal 0 0 -1
    outer loop
      vertex 24 17 0
      vertex 31 24 0
      vertex 24 7 0
    endloop
  endfacet
  facet normal 0 0 -1
    outer loop
      vertex 17 17 0
      vertex 31 24 0
      vertex 24 17 0
    endloop
  endfacet
  facet normal 0 0 -1
    outer loop
      vertex 17 17 0
      vertex 0 24 0
      vertex 31 24 0
    endloop
  endfacet
  facet normal 0 0 -1
    outer loop
      vertex 0 24 0
      vertex 17 17 0
      vertex 0 0 0
    endloop
  endfacet
  facet normal 0 -1 0
    outer loop
      vertex 0 0 38
      vertex 7 0 24
      vertex 31 0 38
    endloop
  endfacet
  facet normal 0 -1 0
    outer loop
      vertex 0 0 38
      vertex 7 0 14
      vertex 7 0 24
    endloop
  endfacet
  facet normal 0 -1 0
    outer loop
      vertex 0 0 0
      vertex 7 0 14
      vertex 0 0 38
    endloop
  endfacet
  facet normal 0 -1 0
    outer loop
      vertex 31 0 0
      vertex 7 0 14
      vertex 0 0 0
    endloop
  endfacet
  facet normal 0 -1 0
    outer loop
      vertex 7 0 14
      vertex 31 0 0
      vertex 31 0 14
    endloop
  endfacet
  facet normal 0 -1 -0
    outer loop
      vertex 31 0 38
      vertex 7 0 24
      vertex 31 0 24
    endloop
  endfacet
  facet normal 1 -0 0
    outer loop
      vertex 7 0 24
      vertex 7 7 14
      vertex 7 7 24
    endloop
  endfacet
  facet normal 1 0 0
    outer loop
      vertex 7 7 14
      vertex 7 0 24
      vertex 7 0 14
    endloop
  endfacet
  facet normal 1 0 0
    outer loop
      vertex 7 7 24
      vertex 7 17 31
      vertex 7 7 31
    endloop
  endfacet
  facet normal 1 0 0
    outer loop
      vertex 7 17 31
      vertex 7 7 24
      vertex 7 17 7
    endloop
  endfacet
  facet normal 1 -0 0
    outer loop
      vertex 7 7 14
      vertex 7 17 7
      vertex 7 7 24
    endloop
  endfacet
  facet normal 1 0 0
    outer loop
      vertex 7 17 7
      vertex 7 7 14
      vertex 7 7 7
    endloop
  endfacet
  facet normal 0 0 -1
    outer loop
      vertex 7 7 31
      vertex 17 17 31
      vertex 17 7 31
    endloop
  endfacet
  facet normal -0 0 -1
    outer loop
      vertex 17 17 31
      vertex 7 7 31
      vertex 7 17 31
    endloop
  endfacet
  facet normal 0 0 -1
    outer loop
      vertex 24 7 31
      vertex 31 17 31
      vertex 31 7 31
    endloop
  endfacet
  facet normal -0 0 -1
    outer loop
      vertex 31 17 31
      vertex 24 7 31
      vertex 24 17 31
    endloop
  endfacet
  facet normal 0 -1 0
    outer loop
      vertex 17 17 0
      vertex 24 17 7
      vertex 17 17 7
    endloop
  endfacet
  facet normal 0 -1 -0
    outer loop
      vertex 24 17 7
      vertex 17 17 0
      vertex 24 17 0
    endloop
  endfacet
  facet normal 0 -1 0
    outer loop
      vertex 17 17 7
      vertex 17 17 31
      vertex 7 17 31
    endloop
  endfacet
  facet normal 0 -1 0
    outer loop
      vertex 17 17 31
      vertex 17 17 7
      vertex 24 17 31
    endloop
  endfacet
  facet normal 0 -1 0
    outer loop
      vertex 17 17 7
      vertex 7 17 31
      vertex 7 17 7
    endloop
  endfacet
  facet normal 0 -1 0
    outer loop
      vertex 24 17 7
      vertex 24 17 31
      vertex 17 17 7
    endloop
  endfacet
  facet normal 0 -1 0
    outer loop
      vertex 24 17 31
      vertex 24 17 7
      vertex 31 17 31
    endloop
  endfacet
  facet normal 0 -1 -0
    outer loop
      vertex 31 17 31
      vertex 24 17 7
      vertex 31 17 7
    endloop
  endfacet
  facet normal 0 -1 0
    outer loop
      vertex 17 17 31
      vertex 24 17 38
      vertex 17 17 38
    endloop
  endfacet
  facet normal 0 -1 -0
    outer loop
      vertex 24 17 38
      vertex 17 17 31
      vertex 24 17 31
    endloop
  endfacet
  facet normal -0 0 1
    outer loop
      vertex 7 17 7
      vertex 17 7 7
      vertex 17 17 7
    endloop
  endfacet
  facet normal 0 0 1
    outer loop
      vertex 17 7 7
      vertex 7 17 7
      vertex 7 7 7
    endloop
  endfacet
  facet normal -0 0 1
    outer loop
      vertex 24 17 7
      vertex 31 7 7
      vertex 31 17 7
    endloop
  endfacet
  facet normal 0 0 1
    outer loop
      vertex 31 7 7
      vertex 24 17 7
      vertex 24 7 7
    endloop
  endfacet
  facet normal 0 1 -0
    outer loop
      vertex 31 7 24
      vertex 24 7 31
      vertex 31 7 31
    endloop
  endfacet
  facet normal 0 1 0
    outer loop
      vertex 24 7 31
      vertex 31 7 24
      vertex 17 7 31
    endloop
  endfacet
  facet normal 0 1 0
    outer loop
      vertex 7 7 24
      vertex 17 7 31
      vertex 31 7 24
    endloop
  endfacet
  facet normal 0 1 0
    outer loop
      vertex 17 7 31
      vertex 7 7 24
      vertex 7 7 31
    endloop
  endfacet
  facet normal 0 1 -0
    outer loop
      vertex 24 7 31
      vertex 17 7 38
      vertex 24 7 38
    endloop
  endfacet
  facet normal 0 1 0
    outer loop
      vertex 17 7 38
      vertex 24 7 31
      vertex 17 7 31
    endloop
  endfacet
  facet normal 0 1 -0
    outer loop
      vertex 24 7 0
      vertex 17 7 7
      vertex 24 7 7
    endloop
  endfacet
  facet normal 0 1 0
    outer loop
      vertex 17 7 7
      vertex 24 7 0
      vertex 17 7 0
    endloop
  endfacet
  facet normal 0 1 0
    outer loop
      vertex 24 7 7
      vertex 31 7 14
      vertex 31 7 7
    endloop
  endfacet
  facet normal 0 1 0
    outer loop
      vertex 17 7 7
      vertex 31 7 14
      vertex 24 7 7
    endloop
  endfacet
  facet normal 0 1 0
    outer loop
      vertex 31 7 14
      vertex 17 7 7
      vertex 7 7 14
    endloop
  endfacet
  facet normal 0 1 0
    outer loop
      vertex 7 7 14
      vertex 17 7 7
      vertex 7 7 7
    endloop
  endfacet
  facet normal 0 0 -1
    outer loop
      vertex 7 0 24
      vertex 31 7 24
      vertex 31 0 24
    endloop
  endfacet
  facet normal -0 0 -1
    outer loop
      vertex 31 7 24
      vertex 7 0 24
      vertex 7 7 24
    endloop
  endfacet
  facet normal -0 0 1
    outer loop
      vertex 7 7 14
      vertex 31 0 14
      vertex 31 7 14
    endloop
  endfacet
  facet normal 0 0 1
    outer loop
      vertex 31 0 14
      vertex 7 7 14
      vertex 7 0 14
    endloop
  endfacet
  facet normal 1 -0 0
    outer loop
      vertex 17 7 38
      vertex 17 17 31
      vertex 17 17 38
    endloop
  endfacet
  facet normal 1 0 0
    outer loop
      vertex 17 17 31
      vertex 17 7 38
      vertex 17 7 31
    endloop
  endfacet
  facet normal 1 -0 0
    outer loop
      vertex 17 7 7
      vertex 17 17 0
      vertex 17 17 7
    endloop
  endfacet
  facet normal 1 0 0
    outer loop
      vertex 17 17 0
      vertex 17 7 7
      vertex 17 7 0
    endloop
  endfacet
  facet normal -1 0 0
    outer loop
      vertex 24 7 31
      vertex 24 17 38
      vertex 24 17 31
    endloop
  endfacet
  facet normal -1 -0 0
    outer loop
      vertex 24 17 38
      vertex 24 7 31
      vertex 24 7 38
    endloop
  endfacet
  facet normal -1 0 0
    outer loop
      vertex 24 7 0
      vertex 24 17 7
      vertex 24 17 0
    endloop
  endfacet
  facet normal -1 -0 0
    outer loop
      vertex 24 17 7
      vertex 24 7 0
      vertex 24 7 7
    endloop
  endfacet
  facet normal 0.923879 -0 0.382684
    outer loop
      vertex 5.69706 24 5.69706
      vertex 6.4 25.8 4
      vertex 5.69706 25.8 5.69706
    endloop
  endfacet
  facet normal 0.923879 0 0.382684
    outer loop
      vertex 6.4 25.8 4
      vertex 5.69706 24 5.69706
      vertex 6.4 24 4
    endloop
  endfacet
  facet normal -0.923879 0 0.382684
    outer loop
      vertex 1.6 24 4
      vertex 2.30294 25.8 5.69706
      vertex 1.6 25.8 4
    endloop
  endfacet
  facet normal -0.923879 0 0.382684
    outer loop
      vertex 2.30294 25.8 5.69706
      vertex 1.6 24 4
      vertex 2.30294 24 5.69706
    endloop
  endfacet
  facet normal 0.382684 0 0.923879
    outer loop
      vertex 4 25.8 6.4
      vertex 5.69706 24 5.69706
      vertex 5.69706 25.8 5.69706
    endloop
  endfacet
  facet normal 0.382684 0 0.923879
    outer loop
      vertex 5.69706 24 5.69706
      vertex 4 25.8 6.4
      vertex 4 24 6.4
    endloop
  endfacet
  facet normal 0 -1 0
    outer loop
      vertex 2.30294 24 5.69706
      vertex 5.69706 24 5.69706
      vertex 4 24 6.4
    endloop
  endfacet
  facet normal 0 -1 0
    outer loop
      vertex 1.6 24 4
      vertex 5.69706 24 5.69706
      vertex 2.30294 24 5.69706
    endloop
  endfacet
  facet normal 0 -1 0
    outer loop
      vertex 1.6 24 4
      vertex 6.4 24 4
      vertex 5.69706 24 5.69706
    endloop
  endfacet
  facet normal 0 -1 0
    outer loop
      vertex 2.30294 24 2.30294
      vertex 6.4 24 4
      vertex 1.6 24 4
    endloop
  endfacet
  facet normal 0 -1 0
    outer loop
      vertex 2.30294 24 2.30294
      vertex 5.69706 24 2.30294
      vertex 6.4 24 4
    endloop
  endfacet
  facet normal -0 -1 0
    outer loop
      vertex 5.69706 24 2.30294
      vertex 2.30294 24 2.30294
      vertex 4 24 1.6
    endloop
  endfacet
  facet normal -0.382684 0 0.923879
    outer loop
      vertex 2.30294 25.8 5.69706
      vertex 4 24 6.4
      vertex 4 25.8 6.4
    endloop
  endfacet
  facet normal -0.382684 0 0.923879
    outer loop
      vertex 4 24 6.4
      vertex 2.30294 25.8 5.69706
      vertex 2.30294 24 5.69706
    endloop
  endfacet
  facet normal 0.382684 0 -0.923879
    outer loop
      vertex 4 24 1.6
      vertex 5.69706 25.8 2.30294
      vertex 5.69706 24 2.30294
    endloop
  endfacet
  facet normal 0.382684 0 -0.923879
    outer loop
      vertex 5.69706 25.8 2.30294
      vertex 4 24 1.6
      vertex 4 25.8 1.6
    endloop
  endfacet
  facet normal -0.923879 0 -0.382684
    outer loop
      vertex 2.30294 24 2.30294
      vertex 1.6 25.8 4
      vertex 2.30294 25.8 2.30294
    endloop
  endfacet
  facet normal -0.923879 -0 -0.382684
    outer loop
      vertex 1.6 25.8 4
      vertex 2.30294 24 2.30294
      vertex 1.6 24 4
    endloop
  endfacet
  facet normal 0.923879 0 -0.382684
    outer loop
      vertex 6.4 24 4
      vertex 5.69706 25.8 2.30294
      vertex 6.4 25.8 4
    endloop
  endfacet
  facet normal 0.923879 0 -0.382684
    outer loop
      vertex 5.69706 25.8 2.30294
      vertex 6.4 24 4
      vertex 5.69706 24 2.30294
    endloop
  endfacet
  facet normal -0.382684 0 -0.923879
    outer loop
      vertex 2.30294 24 2.30294
      vertex 4 25.8 1.6
      vertex 4 24 1.6
    endloop
  endfacet
  facet normal -0.382684 0 -0.923879
    outer loop
      vertex 4 25.8 1.6
      vertex 2.30294 24 2.30294
      vertex 2.30294 25.8 2.30294
    endloop
  endfacet
  facet normal 0.923879 -0 0.382684
    outer loop
      vertex 5.69706 24 13.6971
      vertex 6.4 25.8 12
      vertex 5.69706 25.8 13.6971
    endloop
  endfacet
  facet normal 0.923879 0 0.382684
    outer loop
      vertex 6.4 25.8 12
      vertex 5.69706 24 13.6971
      vertex 6.4 24 12
    endloop
  endfacet
  facet normal -0.382684 0 0.923879
    outer loop
      vertex 2.30294 25.8 13.6971
      vertex 4 24 14.4
      vertex 4 25.8 14.4
    endloop
  endfacet
  facet normal -0.382684 0 0.923879
    outer loop
      vertex 4 24 14.4
      vertex 2.30294 25.8 13.6971
      vertex 2.30294 24 13.6971
    endloop
  endfacet
  facet normal 0.382684 0 0.923879
    outer loop
      vertex 4 25.8 14.4
      vertex 5.69706 24 13.6971
      vertex 5.69706 25.8 13.6971
    endloop
  endfacet
  facet normal 0.382684 0 0.923879
    outer loop
      vertex 5.69706 24 13.6971
      vertex 4 25.8 14.4
      vertex 4 24 14.4
    endloop
  endfacet
  facet normal 0 -1 0
    outer loop
      vertex 2.30294 24 13.6971
      vertex 5.69706 24 13.6971
      vertex 4 24 14.4
    endloop
  endfacet
  facet normal 0 -1 0
    outer loop
      vertex 1.6 24 12
      vertex 5.69706 24 13.6971
      vertex 2.30294 24 13.6971
    endloop
  endfacet
  facet normal 0 -1 0
    outer loop
      vertex 1.6 24 12
      vertex 6.4 24 12
      vertex 5.69706 24 13.6971
    endloop
  endfacet
  facet normal 0 -1 0
    outer loop
      vertex 2.30294 24 10.3029
      vertex 6.4 24 12
      vertex 1.6 24 12
    endloop
  endfacet
  facet normal 0 -1 0
    outer loop
      vertex 2.30294 24 10.3029
      vertex 5.69706 24 10.3029
      vertex 6.4 24 12
    endloop
  endfacet
  facet normal -0 -1 0
    outer loop
      vertex 5.69706 24 10.3029
      vertex 2.30294 24 10.3029
      vertex 4 24 9.6
    endloop
  endfacet
  facet normal -0.923879 0 0.382684
    outer loop
      vertex 1.6 24 12
      vertex 2.30294 25.8 13.6971
      vertex 1.6 25.8 12
    endloop
  endfacet
  facet normal -0.923879 0 0.382684
    outer loop
      vertex 2.30294 25.8 13.6971
      vertex 1.6 24 12
      vertex 2.30294 24 13.6971
    endloop
  endfacet
  facet normal 0.92388 0 -0.382683
    outer loop
      vertex 6.4 24 12
      vertex 5.69706 25.8 10.3029
      vertex 6.4 25.8 12
    endloop
  endfacet
  facet normal 0.92388 0 -0.382683
    outer loop
      vertex 5.69706 25.8 10.3029
      vertex 6.4 24 12
      vertex 5.69706 24 10.3029
    endloop
  endfacet
  facet normal -0.382684 0 -0.923879
    outer loop
      vertex 2.30294 24 10.3029
      vertex 4 25.8 9.6
      vertex 4 24 9.6
    endloop
  endfacet
  facet normal -0.382684 0 -0.923879
    outer loop
      vertex 4 25.8 9.6
      vertex 2.30294 24 10.3029
      vertex 2.30294 25.8 10.3029
    endloop
  endfacet
  facet normal -0.92388 0 -0.382683
    outer loop
      vertex 2.30294 24 10.3029
      vertex 1.6 25.8 12
      vertex 2.30294 25.8 10.3029
    endloop
  endfacet
  facet normal -0.92388 -0 -0.382683
    outer loop
      vertex 1.6 25.8 12
      vertex 2.30294 24 10.3029
      vertex 1.6 24 12
    endloop
  endfacet
  facet normal 0.382684 0 -0.923879
    outer loop
      vertex 4 24 9.6
      vertex 5.69706 25.8 10.3029
      vertex 5.69706 24 10.3029
    endloop
  endfacet
  facet normal 0.382684 0 -0.923879
    outer loop
      vertex 5.69706 25.8 10.3029
      vertex 4 24 9.6
      vertex 4 25.8 9.6
    endloop
  endfacet
  facet normal 0.923879 -0 0.382684
    outer loop
      vertex 5.69706 24 21.6971
      vertex 6.4 25.8 20
      vertex 5.69706 25.8 21.6971
    endloop
  endfacet
  facet normal 0.923879 0 0.382684
    outer loop
      vertex 6.4 25.8 20
      vertex 5.69706 24 21.6971
      vertex 6.4 24 20
    endloop
  endfacet
  facet normal -0.382684 0 0.923879
    outer loop
      vertex 2.30294 25.8 21.6971
      vertex 4 24 22.4
      vertex 4 25.8 22.4
    endloop
  endfacet
  facet normal -0.382684 0 0.923879
    outer loop
      vertex 4 24 22.4
      vertex 2.30294 25.8 21.6971
      vertex 2.30294 24 21.6971
    endloop
  endfacet
  facet normal 0.382684 0 0.923879
    outer loop
      vertex 4 25.8 22.4
      vertex 5.69706 24 21.6971
      vertex 5.69706 25.8 21.6971
    endloop
  endfacet
  facet normal 0.382684 0 0.923879
    outer loop
      vertex 5.69706 24 21.6971
      vertex 4 25.8 22.4
      vertex 4 24 22.4
    endloop
  endfacet
  facet normal 0 -1 0
    outer loop
      vertex 2.30294 24 21.6971
      vertex 5.69706 24 21.6971
      vertex 4 24 22.4
    endloop
  endfacet
  facet normal 0 -1 0
    outer loop
      vertex 1.6 24 20
      vertex 5.69706 24 21.6971
      vertex 2.30294 24 21.6971
    endloop
  endfacet
  facet normal 0 -1 0
    outer loop
      vertex 1.6 24 20
      vertex 6.4 24 20
      vertex 5.69706 24 21.6971
    endloop
  endfacet
  facet normal 0 -1 0
    outer loop
      vertex 2.30294 24 18.3029
      vertex 6.4 24 20
      vertex 1.6 24 20
    endloop
  endfacet
  facet normal 0 -1 0
    outer loop
      vertex 2.30294 24 18.3029
      vertex 5.69706 24 18.3029
      vertex 6.4 24 20
    endloop
  endfacet
  facet normal -0 -1 0
    outer loop
      vertex 5.69706 24 18.3029
      vertex 2.30294 24 18.3029
      vertex 4 24 17.6
    endloop
  endfacet
  facet normal -0.923879 0 0.382684
    outer loop
      vertex 1.6 24 20
      vertex 2.30294 25.8 21.6971
      vertex 1.6 25.8 20
    endloop
  endfacet
  facet normal -0.923879 0 0.382684
    outer loop
      vertex 2.30294 25.8 21.6971
      vertex 1.6 24 20
      vertex 2.30294 24 21.6971
    endloop
  endfacet
  facet normal 0.923879 0 -0.382684
    outer loop
      vertex 6.4 24 20
      vertex 5.69706 25.8 18.3029
      vertex 6.4 25.8 20
    endloop
  endfacet
  facet normal 0.923879 0 -0.382684
    outer loop
      vertex 5.69706 25.8 18.3029
      vertex 6.4 24 20
      vertex 5.69706 24 18.3029
    endloop
  endfacet
  facet normal -0.382684 0 -0.923879
    outer loop
      vertex 2.30294 24 18.3029
      vertex 4 25.8 17.6
      vertex 4 24 17.6
    endloop
  endfacet
  facet normal -0.382684 0 -0.923879
    outer loop
      vertex 4 25.8 17.6
      vertex 2.30294 24 18.3029
      vertex 2.30294 25.8 18.3029
    endloop
  endfacet
  facet normal -0.923879 0 -0.382684
    outer loop
      vertex 2.30294 24 18.3029
      vertex 1.6 25.8 20
      vertex 2.30294 25.8 18.3029
    endloop
  endfacet
  facet normal -0.923879 -0 -0.382684
    outer loop
      vertex 1.6 25.8 20
      vertex 2.30294 24 18.3029
      vertex 1.6 24 20
    endloop
  endfacet
  facet normal 0.382684 0 -0.923879
    outer loop
      vertex 4 24 17.6
      vertex 5.69706 25.8 18.3029
      vertex 5.69706 24 18.3029
    endloop
  endfacet
  facet normal 0.382684 0 -0.923879
    outer loop
      vertex 5.69706 25.8 18.3029
      vertex 4 24 17.6
      vertex 4 25.8 17.6
    endloop
  endfacet
  facet normal 0.923879 -0 0.382684
    outer loop
      vertex 5.69706 24 29.6971
      vertex 6.4 25.8 28
      vertex 5.69706 25.8 29.6971
    endloop
  endfacet
  facet normal 0.923879 0 0.382684
    outer loop
      vertex 6.4 25.8 28
      vertex 5.69706 24 29.6971
      vertex 6.4 24 28
    endloop
  endfacet
  facet normal -0.382684 0 0.923879
    outer loop
      vertex 2.30294 25.8 29.6971
      vertex 4 24 30.4
      vertex 4 25.8 30.4
    endloop
  endfacet
  facet normal -0.382684 0 0.923879
    outer loop
      vertex 4 24 30.4
      vertex 2.30294 25.8 29.6971
      vertex 2.30294 24 29.6971
    endloop
  endfacet
  facet normal 0.382684 0 0.923879
    outer loop
      vertex 4 25.8 30.4
      vertex 5.69706 24 29.6971
      vertex 5.69706 25.8 29.6971
    endloop
  endfacet
  facet normal 0.382684 0 0.923879
    outer loop
      vertex 5.69706 24 29.6971
      vertex 4 25.8 30.4
      vertex 4 24 30.4
    endloop
  endfacet
  facet normal 0 -1 0
    outer loop
      vertex 2.30294 24 29.6971
      vertex 5.69706 24 29.6971
      vertex 4 24 30.4
    endloop
  endfacet
  facet normal 0 -1 0
    outer loop
      vertex 1.6 24 28
      vertex 5.69706 24 29.6971
      vertex 2.30294 24 29.6971
    endloop
  endfacet
  facet normal 0 -1 0
    outer loop
      vertex 1.6 24 28
      vertex 6.4 24 28
      vertex 5.69706 24 29.6971
    endloop
  endfacet
  facet normal 0 -1 0
    outer loop
      vertex 2.30294 24 26.3029
      vertex 6.4 24 28
      vertex 1.6 24 28
    endloop
  endfacet
  facet normal 0 -1 0
    outer loop
      vertex 2.30294 24 26.3029
      vertex 5.69706 24 26.3029
      vertex 6.4 24 28
    endloop
  endfacet
  facet normal -0 -1 0
    outer loop
      vertex 5.69706 24 26.3029
      vertex 2.30294 24 26.3029
      vertex 4 24 25.6
    endloop
  endfacet
  facet normal -0.923879 0 0.382684
    outer loop
      vertex 1.6 24 28
      vertex 2.30294 25.8 29.6971
      vertex 1.6 25.8 28
    endloop
  endfacet
  facet normal -0.923879 0 0.382684
    outer loop
      vertex 2.30294 25.8 29.6971
      vertex 1.6 24 28
      vertex 2.30294 24 29.6971
    endloop
  endfacet
  facet normal 0.923879 0 -0.382684
    outer loop
      vertex 6.4 24 28
      vertex 5.69706 25.8 26.3029
      vertex 6.4 25.8 28
    endloop
  endfacet
  facet normal 0.923879 0 -0.382684
    outer loop
      vertex 5.69706 25.8 26.3029
      vertex 6.4 24 28
      vertex 5.69706 24 26.3029
    endloop
  endfacet
  facet normal -0.382684 0 -0.923879
    outer loop
      vertex 2.30294 24 26.3029
      vertex 4 25.8 25.6
      vertex 4 24 25.6
    endloop
  endfacet
  facet normal -0.382684 0 -0.923879
    outer loop
      vertex 4 25.8 25.6
      vertex 2.30294 24 26.3029
      vertex 2.30294 25.8 26.3029
    endloop
  endfacet
  facet normal -0.923879 0 -0.382684
    outer loop
      vertex 2.30294 24 26.3029
      vertex 1.6 25.8 28
      vertex 2.30294 25.8 26.3029
    endloop
  endfacet
  facet normal -0.923879 -0 -0.382684
    outer loop
      vertex 1.6 25.8 28
      vertex 2.30294 24 26.3029
      vertex 1.6 24 28
    endloop
  endfacet
  facet normal 0.382684 0 -0.923879
    outer loop
      vertex 4 24 25.6
      vertex 5.69706 25.8 26.3029
      vertex 5.69706 24 26.3029
    endloop
  endfacet
  facet normal 0.382684 0 -0.923879
    outer loop
      vertex 5.69706 25.8 26.3029
      vertex 4 24 25.6
      vertex 4 25.8 25.6
    endloop
  endfacet
  facet normal 0.923879 -0 0.382684
    outer loop
      vertex 5.69706 24 37.6971
      vertex 6.4 25.8 36
      vertex 5.69706 25.8 37.6971
    endloop
  endfacet
  facet normal 0.923879 0 0.382684
    outer loop
      vertex 6.4 25.8 36
      vertex 5.69706 24 37.6971
      vertex 6.4 24 36
    endloop
  endfacet
  facet normal -0.382684 0 0.923879
    outer loop
      vertex 2.30294 25.8 37.6971
      vertex 3.03432 24 38
      vertex 3.03432 25.8 38
    endloop
  endfacet
  facet normal -0.382684 0 0.923879
    outer loop
      vertex 3.03432 24 38
      vertex 2.30294 25.8 37.6971
      vertex 2.30294 24 37.6971
    endloop
  endfacet
  facet normal 0.382683 0 0.92388
    outer loop
      vertex 4.96568 25.8 38
      vertex 5.69706 24 37.6971
      vertex 5.69706 25.8 37.6971
    endloop
  endfacet
  facet normal 0.382683 0 0.92388
    outer loop
      vertex 5.69706 24 37.6971
      vertex 4.96568 25.8 38
      vertex 4.96568 24 38
    endloop
  endfacet
  facet normal 0 -1 0
    outer loop
      vertex 1.6 24 36
      vertex 3.03432 24 38
      vertex 2.30294 24 37.6971
    endloop
  endfacet
  facet normal 0 -1 0
    outer loop
      vertex 2.30294 24 34.3029
      vertex 3.03432 24 38
      vertex 1.6 24 36
    endloop
  endfacet
  facet normal 0 -1 0
    outer loop
      vertex 4 24 33.6
      vertex 3.03432 24 38
      vertex 2.30294 24 34.3029
    endloop
  endfacet
  facet normal 0 -1 0
    outer loop
      vertex 4.96568 24 38
      vertex 6.4 24 36
      vertex 5.69706 24 37.6971
    endloop
  endfacet
  facet normal 0 -1 0
    outer loop
      vertex 3.03432 24 38
      vertex 4 24 33.6
      vertex 4.96568 24 38
    endloop
  endfacet
  facet normal 0 -1 0
    outer loop
      vertex 4.96568 24 38
      vertex 5.69706 24 34.3029
      vertex 6.4 24 36
    endloop
  endfacet
  facet normal 0 -1 -0
    outer loop
      vertex 4.96568 24 38
      vertex 4 24 33.6
      vertex 5.69706 24 34.3029
    endloop
  endfacet
  facet normal -0.923879 0 0.382684
    outer loop
      vertex 1.6 24 36
      vertex 2.30294 25.8 37.6971
      vertex 1.6 25.8 36
    endloop
  endfacet
  facet normal -0.923879 0 0.382684
    outer loop
      vertex 2.30294 25.8 37.6971
      vertex 1.6 24 36
      vertex 2.30294 24 37.6971
    endloop
  endfacet
  facet normal 0.923879 0 -0.382684
    outer loop
      vertex 6.4 24 36
      vertex 5.69706 25.8 34.3029
      vertex 6.4 25.8 36
    endloop
  endfacet
  facet normal 0.923879 0 -0.382684
    outer loop
      vertex 5.69706 25.8 34.3029
      vertex 6.4 24 36
      vertex 5.69706 24 34.3029
    endloop
  endfacet
  facet normal -0.382684 0 -0.923879
    outer loop
      vertex 2.30294 24 34.3029
      vertex 4 25.8 33.6
      vertex 4 24 33.6
    endloop
  endfacet
  facet normal -0.382684 0 -0.923879
    outer loop
      vertex 4 25.8 33.6
      vertex 2.30294 24 34.3029
      vertex 2.30294 25.8 34.3029
    endloop
  endfacet
  facet normal -0.923879 0 -0.382684
    outer loop
      vertex 2.30294 24 34.3029
      vertex 1.6 25.8 36
      vertex 2.30294 25.8 34.3029
    endloop
  endfacet
  facet normal -0.923879 -0 -0.382684
    outer loop
      vertex 1.6 25.8 36
      vertex 2.30294 24 34.3029
      vertex 1.6 24 36
    endloop
  endfacet
  facet normal 0.382684 0 -0.923879
    outer loop
      vertex 4 24 33.6
      vertex 5.69706 25.8 34.3029
      vertex 5.69706 24 34.3029
    endloop
  endfacet
  facet normal 0.382684 0 -0.923879
    outer loop
      vertex 5.69706 25.8 34.3029
      vertex 4 24 33.6
      vertex 4 25.8 33.6
    endloop
  endfacet
  facet normal 0.923879 -0 0.382684
    outer loop
      vertex 13.6971 24 5.69706
      vertex 14.4 25.8 4
      vertex 13.6971 25.8 5.69706
    endloop
  endfacet
  facet normal 0.923879 0 0.382684
    outer loop
      vertex 14.4 25.8 4
      vertex 13.6971 24 5.69706
      vertex 14.4 24 4
    endloop
  endfacet
  facet normal -0.923879 0 0.382684
    outer loop
      vertex 9.6 24 4
      vertex 10.3029 25.8 5.69706
      vertex 9.6 25.8 4
    endloop
  endfacet
  facet normal -0.923879 0 0.382684
    outer loop
      vertex 10.3029 25.8 5.69706
      vertex 9.6 24 4
      vertex 10.3029 24 5.69706
    endloop
  endfacet
  facet normal 0.382684 0 0.923879
    outer loop
      vertex 12 25.8 6.4
      vertex 13.6971 24 5.69706
      vertex 13.6971 25.8 5.69706
    endloop
  endfacet
  facet normal 0.382684 0 0.923879
    outer loop
      vertex 13.6971 24 5.69706
      vertex 12 25.8 6.4
      vertex 12 24 6.4
    endloop
  endfacet
  facet normal -0.382683 0 0.92388
    outer loop
      vertex 10.3029 25.8 5.69706
      vertex 12 24 6.4
      vertex 12 25.8 6.4
    endloop
  endfacet
  facet normal -0.382683 0 0.92388
    outer loop
      vertex 12 24 6.4
      vertex 10.3029 25.8 5.69706
      vertex 10.3029 24 5.69706
    endloop
  endfacet
  facet normal 0.382684 0 -0.923879
    outer loop
      vertex 12 24 1.6
      vertex 13.6971 25.8 2.30294
      vertex 13.6971 24 2.30294
    endloop
  endfacet
  facet normal 0.382684 0 -0.923879
    outer loop
      vertex 13.6971 25.8 2.30294
      vertex 12 24 1.6
      vertex 12 25.8 1.6
    endloop
  endfacet
  facet normal -0.923879 0 -0.382684
    outer loop
      vertex 10.3029 24 2.30294
      vertex 9.6 25.8 4
      vertex 10.3029 25.8 2.30294
    endloop
  endfacet
  facet normal -0.923879 -0 -0.382684
    outer loop
      vertex 9.6 25.8 4
      vertex 10.3029 24 2.30294
      vertex 9.6 24 4
    endloop
  endfacet
  facet normal 0.923879 0 -0.382684
    outer loop
      vertex 14.4 24 4
      vertex 13.6971 25.8 2.30294
      vertex 14.4 25.8 4
    endloop
  endfacet
  facet normal 0.923879 0 -0.382684
    outer loop
      vertex 13.6971 25.8 2.30294
      vertex 14.4 24 4
      vertex 13.6971 24 2.30294
    endloop
  endfacet
  facet normal -0.382683 0 -0.92388
    outer loop
      vertex 10.3029 24 2.30294
      vertex 12 25.8 1.6
      vertex 12 24 1.6
    endloop
  endfacet
  facet normal -0.382683 0 -0.92388
    outer loop
      vertex 12 25.8 1.6
      vertex 10.3029 24 2.30294
      vertex 10.3029 25.8 2.30294
    endloop
  endfacet
  facet normal 0 -1 0
    outer loop
      vertex 10.3029 24 5.69706
      vertex 13.6971 24 5.69706
      vertex 12 24 6.4
    endloop
  endfacet
  facet normal 0 -1 0
    outer loop
      vertex 9.6 24 4
      vertex 13.6971 24 5.69706
      vertex 10.3029 24 5.69706
    endloop
  endfacet
  facet normal 0 -1 0
    outer loop
      vertex 9.6 24 4
      vertex 14.4 24 4
      vertex 13.6971 24 5.69706
    endloop
  endfacet
  facet normal 0 -1 0
    outer loop
      vertex 10.3029 24 2.30294
      vertex 14.4 24 4
      vertex 9.6 24 4
    endloop
  endfacet
  facet normal 0 -1 0
    outer loop
      vertex 10.3029 24 2.30294
      vertex 13.6971 24 2.30294
      vertex 14.4 24 4
    endloop
  endfacet
  facet normal -0 -1 0
    outer loop
      vertex 13.6971 24 2.30294
      vertex 10.3029 24 2.30294
      vertex 12 24 1.6
    endloop
  endfacet
  facet normal 0.923879 -0 0.382684
    outer loop
      vertex 13.6971 24 13.6971
      vertex 14.4 25.8 12
      vertex 13.6971 25.8 13.6971
    endloop
  endfacet
  facet normal 0.923879 0 0.382684
    outer loop
      vertex 14.4 25.8 12
      vertex 13.6971 24 13.6971
      vertex 14.4 24 12
    endloop
  endfacet
  facet normal -0.92388 0 -0.382683
    outer loop
      vertex 10.3029 24 10.3029
      vertex 9.6 25.8 12
      vertex 10.3029 25.8 10.3029
    endloop
  endfacet
  facet normal -0.92388 -0 -0.382683
    outer loop
      vertex 9.6 25.8 12
      vertex 10.3029 24 10.3029
      vertex 9.6 24 12
    endloop
  endfacet
  facet normal -0.382683 0 0.92388
    outer loop
      vertex 10.3029 25.8 13.6971
      vertex 12 24 14.4
      vertex 12 25.8 14.4
    endloop
  endfacet
  facet normal -0.382683 0 0.92388
    outer loop
      vertex 12 24 14.4
      vertex 10.3029 25.8 13.6971
      vertex 10.3029 24 13.6971
    endloop
  endfacet
  facet normal 0.382684 0 0.923879
    outer loop
      vertex 12 25.8 14.4
      vertex 13.6971 24 13.6971
      vertex 13.6971 25.8 13.6971
    endloop
  endfacet
  facet normal 0.382684 0 0.923879
    outer loop
      vertex 13.6971 24 13.6971
      vertex 12 25.8 14.4
      vertex 12 24 14.4
    endloop
  endfacet
  facet normal 0 -1 0
    outer loop
      vertex 10.3029 24 13.6971
      vertex 13.6971 24 13.6971
      vertex 12 24 14.4
    endloop
  endfacet
  facet normal 0 -1 0
    outer loop
      vertex 9.6 24 12
      vertex 13.6971 24 13.6971
      vertex 10.3029 24 13.6971
    endloop
  endfacet
  facet normal 0 -1 0
    outer loop
      vertex 9.6 24 12
      vertex 14.4 24 12
      vertex 13.6971 24 13.6971
    endloop
  endfacet
  facet normal 0 -1 0
    outer loop
      vertex 10.3029 24 10.3029
      vertex 14.4 24 12
      vertex 9.6 24 12
    endloop
  endfacet
  facet normal 0 -1 0
    outer loop
      vertex 10.3029 24 10.3029
      vertex 13.6971 24 10.3029
      vertex 14.4 24 12
    endloop
  endfacet
  facet normal -0 -1 0
    outer loop
      vertex 13.6971 24 10.3029
      vertex 10.3029 24 10.3029
      vertex 12 24 9.6
    endloop
  endfacet
  facet normal -0.923879 0 0.382684
    outer loop
      vertex 9.6 24 12
      vertex 10.3029 25.8 13.6971
      vertex 9.6 25.8 12
    endloop
  endfacet
  facet normal -0.923879 0 0.382684
    outer loop
      vertex 10.3029 25.8 13.6971
      vertex 9.6 24 12
      vertex 10.3029 24 13.6971
    endloop
  endfacet
  facet normal 0.92388 0 -0.382683
    outer loop
      vertex 14.4 24 12
      vertex 13.6971 25.8 10.3029
      vertex 14.4 25.8 12
    endloop
  endfacet
  facet normal 0.92388 0 -0.382683
    outer loop
      vertex 13.6971 25.8 10.3029
      vertex 14.4 24 12
      vertex 13.6971 24 10.3029
    endloop
  endfacet
  facet normal 0.382684 0 -0.923879
    outer loop
      vertex 12 24 9.6
      vertex 13.6971 25.8 10.3029
      vertex 13.6971 24 10.3029
    endloop
  endfacet
  facet normal 0.382684 0 -0.923879
    outer loop
      vertex 13.6971 25.8 10.3029
      vertex 12 24 9.6
      vertex 12 25.8 9.6
    endloop
  endfacet
  facet normal -0.382683 0 -0.92388
    outer loop
      vertex 10.3029 24 10.3029
      vertex 12 25.8 9.6
      vertex 12 24 9.6
    endloop
  endfacet
  facet normal -0.382683 0 -0.92388
    outer loop
      vertex 12 25.8 9.6
      vertex 10.3029 24 10.3029
      vertex 10.3029 25.8 10.3029
    endloop
  endfacet
  facet normal 0.923879 -0 0.382684
    outer loop
      vertex 13.6971 24 21.6971
      vertex 14.4 25.8 20
      vertex 13.6971 25.8 21.6971
    endloop
  endfacet
  facet normal 0.923879 0 0.382684
    outer loop
      vertex 14.4 25.8 20
      vertex 13.6971 24 21.6971
      vertex 14.4 24 20
    endloop
  endfacet
  facet normal -0.382683 0 0.92388
    outer loop
      vertex 10.3029 25.8 21.6971
      vertex 12 24 22.4
      vertex 12 25.8 22.4
    endloop
  endfacet
  facet normal -0.382683 0 0.92388
    outer loop
      vertex 12 24 22.4
      vertex 10.3029 25.8 21.6971
      vertex 10.3029 24 21.6971
    endloop
  endfacet
  facet normal 0.382684 0 0.923879
    outer loop
      vertex 12 25.8 22.4
      vertex 13.6971 24 21.6971
      vertex 13.6971 25.8 21.6971
    endloop
  endfacet
  facet normal 0.382684 0 0.923879
    outer loop
      vertex 13.6971 24 21.6971
      vertex 12 25.8 22.4
      vertex 12 24 22.4
    endloop
  endfacet
  facet normal 0 -1 0
    outer loop
      vertex 10.3029 24 21.6971
      vertex 13.6971 24 21.6971
      vertex 12 24 22.4
    endloop
  endfacet
  facet normal 0 -1 0
    outer loop
      vertex 9.6 24 20
      vertex 13.6971 24 21.6971
      vertex 10.3029 24 21.6971
    endloop
  endfacet
  facet normal 0 -1 0
    outer loop
      vertex 9.6 24 20
      vertex 14.4 24 20
      vertex 13.6971 24 21.6971
    endloop
  endfacet
  facet normal 0 -1 0
    outer loop
      vertex 10.3029 24 18.3029
      vertex 14.4 24 20
      vertex 9.6 24 20
    endloop
  endfacet
  facet normal 0 -1 0
    outer loop
      vertex 10.3029 24 18.3029
      vertex 13.6971 24 18.3029
      vertex 14.4 24 20
    endloop
  endfacet
  facet normal -0 -1 0
    outer loop
      vertex 13.6971 24 18.3029
      vertex 10.3029 24 18.3029
      vertex 12 24 17.6
    endloop
  endfacet
  facet normal -0.923879 0 0.382684
    outer loop
      vertex 9.6 24 20
      vertex 10.3029 25.8 21.6971
      vertex 9.6 25.8 20
    endloop
  endfacet
  facet normal -0.923879 0 0.382684
    outer loop
      vertex 10.3029 25.8 21.6971
      vertex 9.6 24 20
      vertex 10.3029 24 21.6971
    endloop
  endfacet
  facet normal 0.923879 0 -0.382684
    outer loop
      vertex 14.4 24 20
      vertex 13.6971 25.8 18.3029
      vertex 14.4 25.8 20
    endloop
  endfacet
  facet normal 0.923879 0 -0.382684
    outer loop
      vertex 13.6971 25.8 18.3029
      vertex 14.4 24 20
      vertex 13.6971 24 18.3029
    endloop
  endfacet
  facet normal -0.923879 0 -0.382684
    outer loop
      vertex 10.3029 24 18.3029
      vertex 9.6 25.8 20
      vertex 10.3029 25.8 18.3029
    endloop
  endfacet
  facet normal -0.923879 -0 -0.382684
    outer loop
      vertex 9.6 25.8 20
      vertex 10.3029 24 18.3029
      vertex 9.6 24 20
    endloop
  endfacet
  facet normal 0.382684 0 -0.923879
    outer loop
      vertex 12 24 17.6
      vertex 13.6971 25.8 18.3029
      vertex 13.6971 24 18.3029
    endloop
  endfacet
  facet normal 0.382684 0 -0.923879
    outer loop
      vertex 13.6971 25.8 18.3029
      vertex 12 24 17.6
      vertex 12 25.8 17.6
    endloop
  endfacet
  facet normal -0.382684 0 -0.923879
    outer loop
      vertex 10.3029 24 18.3029
      vertex 12 25.8 17.6
      vertex 12 24 17.6
    endloop
  endfacet
  facet normal -0.382684 0 -0.923879
    outer loop
      vertex 12 25.8 17.6
      vertex 10.3029 24 18.3029
      vertex 10.3029 25.8 18.3029
    endloop
  endfacet
  facet normal 0.923879 -0 0.382684
    outer loop
      vertex 13.6971 24 29.6971
      vertex 14.4 25.8 28
      vertex 13.6971 25.8 29.6971
    endloop
  endfacet
  facet normal 0.923879 0 0.382684
    outer loop
      vertex 14.4 25.8 28
      vertex 13.6971 24 29.6971
      vertex 14.4 24 28
    endloop
  endfacet
  facet normal -0.923879 0 -0.382684
    outer loop
      vertex 10.3029 24 26.3029
      vertex 9.6 25.8 28
      vertex 10.3029 25.8 26.3029
    endloop
  endfacet
  facet normal -0.923879 -0 -0.382684
    outer loop
      vertex 9.6 25.8 28
      vertex 10.3029 24 26.3029
      vertex 9.6 24 28
    endloop
  endfacet
  facet normal -0.382683 0 0.92388
    outer loop
      vertex 10.3029 25.8 29.6971
      vertex 12 24 30.4
      vertex 12 25.8 30.4
    endloop
  endfacet
  facet normal -0.382683 0 0.92388
    outer loop
      vertex 12 24 30.4
      vertex 10.3029 25.8 29.6971
      vertex 10.3029 24 29.6971
    endloop
  endfacet
  facet normal 0.382684 0 0.923879
    outer loop
      vertex 12 25.8 30.4
      vertex 13.6971 24 29.6971
      vertex 13.6971 25.8 29.6971
    endloop
  endfacet
  facet normal 0.382684 0 0.923879
    outer loop
      vertex 13.6971 24 29.6971
      vertex 12 25.8 30.4
      vertex 12 24 30.4
    endloop
  endfacet
  facet normal 0 -1 0
    outer loop
      vertex 10.3029 24 29.6971
      vertex 13.6971 24 29.6971
      vertex 12 24 30.4
    endloop
  endfacet
  facet normal 0 -1 0
    outer loop
      vertex 9.6 24 28
      vertex 13.6971 24 29.6971
      vertex 10.3029 24 29.6971
    endloop
  endfacet
  facet normal 0 -1 0
    outer loop
      vertex 9.6 24 28
      vertex 14.4 24 28
      vertex 13.6971 24 29.6971
    endloop
  endfacet
  facet normal 0 -1 0
    outer loop
      vertex 10.3029 24 26.3029
      vertex 14.4 24 28
      vertex 9.6 24 28
    endloop
  endfacet
  facet normal 0 -1 0
    outer loop
      vertex 10.3029 24 26.3029
      vertex 13.6971 24 26.3029
      vertex 14.4 24 28
    endloop
  endfacet
  facet normal -0 -1 0
    outer loop
      vertex 13.6971 24 26.3029
      vertex 10.3029 24 26.3029
      vertex 12 24 25.6
    endloop
  endfacet
  facet normal -0.923879 0 0.382684
    outer loop
      vertex 9.6 24 28
      vertex 10.3029 25.8 29.6971
      vertex 9.6 25.8 28
    endloop
  endfacet
  facet normal -0.923879 0 0.382684
    outer loop
      vertex 10.3029 25.8 29.6971
      vertex 9.6 24 28
      vertex 10.3029 24 29.6971
    endloop
  endfacet
  facet normal 0.923879 0 -0.382684
    outer loop
      vertex 14.4 24 28
      vertex 13.6971 25.8 26.3029
      vertex 14.4 25.8 28
    endloop
  endfacet
  facet normal 0.923879 0 -0.382684
    outer loop
      vertex 13.6971 25.8 26.3029
      vertex 14.4 24 28
      vertex 13.6971 24 26.3029
    endloop
  endfacet
  facet normal 0.382684 0 -0.923879
    outer loop
      vertex 12 24 25.6
      vertex 13.6971 25.8 26.3029
      vertex 13.6971 24 26.3029
    endloop
  endfacet
  facet normal 0.382684 0 -0.923879
    outer loop
      vertex 13.6971 25.8 26.3029
      vertex 12 24 25.6
      vertex 12 25.8 25.6
    endloop
  endfacet
  facet normal -0.382684 0 -0.923879
    outer loop
      vertex 10.3029 24 26.3029
      vertex 12 25.8 25.6
      vertex 12 24 25.6
    endloop
  endfacet
  facet normal -0.382684 0 -0.923879
    outer loop
      vertex 12 25.8 25.6
      vertex 10.3029 24 26.3029
      vertex 10.3029 25.8 26.3029
    endloop
  endfacet
  facet normal 0.923879 -0 0.382684
    outer loop
      vertex 13.6971 24 37.6971
      vertex 14.4 25.8 36
      vertex 13.6971 25.8 37.6971
    endloop
  endfacet
  facet normal 0.923879 0 0.382684
    outer loop
      vertex 14.4 25.8 36
      vertex 13.6971 24 37.6971
      vertex 14.4 24 36
    endloop
  endfacet
  facet normal -0.382683 0 0.92388
    outer loop
      vertex 10.3029 25.8 37.6971
      vertex 11.0343 24 38
      vertex 11.0343 25.8 38
    endloop
  endfacet
  facet normal -0.382683 0 0.92388
    outer loop
      vertex 11.0343 24 38
      vertex 10.3029 25.8 37.6971
      vertex 10.3029 24 37.6971
    endloop
  endfacet
  facet normal 0.382683 0 0.92388
    outer loop
      vertex 12.9657 25.8 38
      vertex 13.6971 24 37.6971
      vertex 13.6971 25.8 37.6971
    endloop
  endfacet
  facet normal 0.382683 0 0.92388
    outer loop
      vertex 13.6971 24 37.6971
      vertex 12.9657 25.8 38
      vertex 12.9657 24 38
    endloop
  endfacet
  facet normal 0 -1 0
    outer loop
      vertex 9.6 24 36
      vertex 11.0343 24 38
      vertex 10.3029 24 37.6971
    endloop
  endfacet
  facet normal 0 -1 0
    outer loop
      vertex 10.3029 24 34.3029
      vertex 11.0343 24 38
      vertex 9.6 24 36
    endloop
  endfacet
  facet normal 0 -1 0
    outer loop
      vertex 12 24 33.6
      vertex 11.0343 24 38
      vertex 10.3029 24 34.3029
    endloop
  endfacet
  facet normal 0 -1 0
    outer loop
      vertex 12.9657 24 38
      vertex 14.4 24 36
      vertex 13.6971 24 37.6971
    endloop
  endfacet
  facet normal 0 -1 0
    outer loop
      vertex 11.0343 24 38
      vertex 12 24 33.6
      vertex 12.9657 24 38
    endloop
  endfacet
  facet normal 0 -1 0
    outer loop
      vertex 12.9657 24 38
      vertex 13.6971 24 34.3029
      vertex 14.4 24 36
    endloop
  endfacet
  facet normal 0 -1 -0
    outer loop
      vertex 12.9657 24 38
      vertex 12 24 33.6
      vertex 13.6971 24 34.3029
    endloop
  endfacet
  facet normal -0.923879 0 0.382684
    outer loop
      vertex 9.6 24 36
      vertex 10.3029 25.8 37.6971
      vertex 9.6 25.8 36
    endloop
  endfacet
  facet normal -0.923879 0 0.382684
    outer loop
      vertex 10.3029 25.8 37.6971
      vertex 9.6 24 36
      vertex 10.3029 24 37.6971
    endloop
  endfacet
  facet normal 0.923879 0 -0.382684
    outer loop
      vertex 14.4 24 36
      vertex 13.6971 25.8 34.3029
      vertex 14.4 25.8 36
    endloop
  endfacet
  facet normal 0.923879 0 -0.382684
    outer loop
      vertex 13.6971 25.8 34.3029
      vertex 14.4 24 36
      vertex 13.6971 24 34.3029
    endloop
  endfacet
  facet normal -0.923879 0 -0.382684
    outer loop
      vertex 10.3029 24 34.3029
      vertex 9.6 25.8 36
      vertex 10.3029 25.8 34.3029
    endloop
  endfacet
  facet normal -0.923879 -0 -0.382684
    outer loop
      vertex 9.6 25.8 36
      vertex 10.3029 24 34.3029
      vertex 9.6 24 36
    endloop
  endfacet
  facet normal 0.382684 0 -0.923879
    outer loop
      vertex 12 24 33.6
      vertex 13.6971 25.8 34.3029
      vertex 13.6971 24 34.3029
    endloop
  endfacet
  facet normal 0.382684 0 -0.923879
    outer loop
      vertex 13.6971 25.8 34.3029
      vertex 12 24 33.6
      vertex 12 25.8 33.6
    endloop
  endfacet
  facet normal -0.382684 0 -0.923879
    outer loop
      vertex 10.3029 24 34.3029
      vertex 12 25.8 33.6
      vertex 12 24 33.6
    endloop
  endfacet
  facet normal -0.382684 0 -0.923879
    outer loop
      vertex 12 25.8 33.6
      vertex 10.3029 24 34.3029
      vertex 10.3029 25.8 34.3029
    endloop
  endfacet
  facet normal 0.923879 -0 0.382684
    outer loop
      vertex 21.6971 24 5.69706
      vertex 22.4 25.8 4
      vertex 21.6971 25.8 5.69706
    endloop
  endfacet
  facet normal 0.923879 0 0.382684
    outer loop
      vertex 22.4 25.8 4
      vertex 21.6971 24 5.69706
      vertex 22.4 24 4
    endloop
  endfacet
  facet normal -0.923879 0 0.382684
    outer loop
      vertex 17.6 24 4
      vertex 18.3029 25.8 5.69706
      vertex 17.6 25.8 4
    endloop
  endfacet
  facet normal -0.923879 0 0.382684
    outer loop
      vertex 18.3029 25.8 5.69706
      vertex 17.6 24 4
      vertex 18.3029 24 5.69706
    endloop
  endfacet
  facet normal 0.382684 0 0.923879
    outer loop
      vertex 20 25.8 6.4
      vertex 21.6971 24 5.69706
      vertex 21.6971 25.8 5.69706
    endloop
  endfacet
  facet normal 0.382684 0 0.923879
    outer loop
      vertex 21.6971 24 5.69706
      vertex 20 25.8 6.4
      vertex 20 24 6.4
    endloop
  endfacet
  facet normal 0 -1 0
    outer loop
      vertex 18.3029 24 5.69706
      vertex 21.6971 24 5.69706
      vertex 20 24 6.4
    endloop
  endfacet
  facet normal 0 -1 0
    outer loop
      vertex 17.6 24 4
      vertex 21.6971 24 5.69706
      vertex 18.3029 24 5.69706
    endloop
  endfacet
  facet normal 0 -1 0
    outer loop
      vertex 17.6 24 4
      vertex 22.4 24 4
      vertex 21.6971 24 5.69706
    endloop
  endfacet
  facet normal 0 -1 0
    outer loop
      vertex 18.3029 24 2.30294
      vertex 22.4 24 4
      vertex 17.6 24 4
    endloop
  endfacet
  facet normal 0 -1 0
    outer loop
      vertex 18.3029 24 2.30294
      vertex 21.6971 24 2.30294
      vertex 22.4 24 4
    endloop
  endfacet
  facet normal -0 -1 0
    outer loop
      vertex 21.6971 24 2.30294
      vertex 18.3029 24 2.30294
      vertex 20 24 1.6
    endloop
  endfacet
  facet normal -0.382684 0 0.923879
    outer loop
      vertex 18.3029 25.8 5.69706
      vertex 20 24 6.4
      vertex 20 25.8 6.4
    endloop
  endfacet
  facet normal -0.382684 0 0.923879
    outer loop
      vertex 20 24 6.4
      vertex 18.3029 25.8 5.69706
      vertex 18.3029 24 5.69706
    endloop
  endfacet
  facet normal 0.382684 0 -0.923879
    outer loop
      vertex 20 24 1.6
      vertex 21.6971 25.8 2.30294
      vertex 21.6971 24 2.30294
    endloop
  endfacet
  facet normal 0.382684 0 -0.923879
    outer loop
      vertex 21.6971 25.8 2.30294
      vertex 20 24 1.6
      vertex 20 25.8 1.6
    endloop
  endfacet
  facet normal -0.923879 0 -0.382684
    outer loop
      vertex 18.3029 24 2.30294
      vertex 17.6 25.8 4
      vertex 18.3029 25.8 2.30294
    endloop
  endfacet
  facet normal -0.923879 -0 -0.382684
    outer loop
      vertex 17.6 25.8 4
      vertex 18.3029 24 2.30294
      vertex 17.6 24 4
    endloop
  endfacet
  facet normal 0.923879 0 -0.382684
    outer loop
      vertex 22.4 24 4
      vertex 21.6971 25.8 2.30294
      vertex 22.4 25.8 4
    endloop
  endfacet
  facet normal 0.923879 0 -0.382684
    outer loop
      vertex 21.6971 25.8 2.30294
      vertex 22.4 24 4
      vertex 21.6971 24 2.30294
    endloop
  endfacet
  facet normal -0.382684 0 -0.923879
    outer loop
      vertex 18.3029 24 2.30294
      vertex 20 25.8 1.6
      vertex 20 24 1.6
    endloop
  endfacet
  facet normal -0.382684 0 -0.923879
    outer loop
      vertex 20 25.8 1.6
      vertex 18.3029 24 2.30294
      vertex 18.3029 25.8 2.30294
    endloop
  endfacet
  facet normal 0.923879 -0 0.382684
    outer loop
      vertex 21.6971 24 13.6971
      vertex 22.4 25.8 12
      vertex 21.6971 25.8 13.6971
    endloop
  endfacet
  facet normal 0.923879 0 0.382684
    outer loop
      vertex 22.4 25.8 12
      vertex 21.6971 24 13.6971
      vertex 22.4 24 12
    endloop
  endfacet
  facet normal -0.923879 0 -0.382684
    outer loop
      vertex 18.3029 24 10.3029
      vertex 17.6 25.8 12
      vertex 18.3029 25.8 10.3029
    endloop
  endfacet
  facet normal -0.923879 -0 -0.382684
    outer loop
      vertex 17.6 25.8 12
      vertex 18.3029 24 10.3029
      vertex 17.6 24 12
    endloop
  endfacet
  facet normal -0.382684 0 0.923879
    outer loop
      vertex 18.3029 25.8 13.6971
      vertex 20 24 14.4
      vertex 20 25.8 14.4
    endloop
  endfacet
  facet normal -0.382684 0 0.923879
    outer loop
      vertex 20 24 14.4
      vertex 18.3029 25.8 13.6971
      vertex 18.3029 24 13.6971
    endloop
  endfacet
  facet normal 0.382684 0 0.923879
    outer loop
      vertex 20 25.8 14.4
      vertex 21.6971 24 13.6971
      vertex 21.6971 25.8 13.6971
    endloop
  endfacet
  facet normal 0.382684 0 0.923879
    outer loop
      vertex 21.6971 24 13.6971
      vertex 20 25.8 14.4
      vertex 20 24 14.4
    endloop
  endfacet
  facet normal 0 -1 0
    outer loop
      vertex 18.3029 24 13.6971
      vertex 21.6971 24 13.6971
      vertex 20 24 14.4
    endloop
  endfacet
  facet normal 0 -1 0
    outer loop
      vertex 17.6 24 12
      vertex 21.6971 24 13.6971
      vertex 18.3029 24 13.6971
    endloop
  endfacet
  facet normal 0 -1 0
    outer loop
      vertex 17.6 24 12
      vertex 22.4 24 12
      vertex 21.6971 24 13.6971
    endloop
  endfacet
  facet normal 0 -1 0
    outer loop
      vertex 18.3029 24 10.3029
      vertex 22.4 24 12
      vertex 17.6 24 12
    endloop
  endfacet
  facet normal 0 -1 0
    outer loop
      vertex 18.3029 24 10.3029
      vertex 21.6971 24 10.3029
      vertex 22.4 24 12
    endloop
  endfacet
  facet normal -0 -1 0
    outer loop
      vertex 21.6971 24 10.3029
      vertex 18.3029 24 10.3029
      vertex 20 24 9.6
    endloop
  endfacet
  facet normal -0.923879 0 0.382684
    outer loop
      vertex 17.6 24 12
      vertex 18.3029 25.8 13.6971
      vertex 17.6 25.8 12
    endloop
  endfacet
  facet normal -0.923879 0 0.382684
    outer loop
      vertex 18.3029 25.8 13.6971
      vertex 17.6 24 12
      vertex 18.3029 24 13.6971
    endloop
  endfacet
  facet normal 0.92388 0 -0.382683
    outer loop
      vertex 22.4 24 12
      vertex 21.6971 25.8 10.3029
      vertex 22.4 25.8 12
    endloop
  endfacet
  facet normal 0.92388 0 -0.382683
    outer loop
      vertex 21.6971 25.8 10.3029
      vertex 22.4 24 12
      vertex 21.6971 24 10.3029
    endloop
  endfacet
  facet normal 0.382684 0 -0.923879
    outer loop
      vertex 20 24 9.6
      vertex 21.6971 25.8 10.3029
      vertex 21.6971 24 10.3029
    endloop
  endfacet
  facet normal 0.382684 0 -0.923879
    outer loop
      vertex 21.6971 25.8 10.3029
      vertex 20 24 9.6
      vertex 20 25.8 9.6
    endloop
  endfacet
  facet normal -0.382684 0 -0.923879
    outer loop
      vertex 18.3029 24 10.3029
      vertex 20 25.8 9.6
      vertex 20 24 9.6
    endloop
  endfacet
  facet normal -0.382684 0 -0.923879
    outer loop
      vertex 20 25.8 9.6
      vertex 18.3029 24 10.3029
      vertex 18.3029 25.8 10.3029
    endloop
  endfacet
  facet normal 0.923879 -0 0.382684
    outer loop
      vertex 21.6971 24 21.6971
      vertex 22.4 25.8 20
      vertex 21.6971 25.8 21.6971
    endloop
  endfacet
  facet normal 0.923879 0 0.382684
    outer loop
      vertex 22.4 25.8 20
      vertex 21.6971 24 21.6971
      vertex 22.4 24 20
    endloop
  endfacet
  facet normal -0.923879 0 -0.382684
    outer loop
      vertex 18.3029 24 18.3029
      vertex 17.6 25.8 20
      vertex 18.3029 25.8 18.3029
    endloop
  endfacet
  facet normal -0.923879 -0 -0.382684
    outer loop
      vertex 17.6 25.8 20
      vertex 18.3029 24 18.3029
      vertex 17.6 24 20
    endloop
  endfacet
  facet normal -0.382684 0 0.923879
    outer loop
      vertex 18.3029 25.8 21.6971
      vertex 20 24 22.4
      vertex 20 25.8 22.4
    endloop
  endfacet
  facet normal -0.382684 0 0.923879
    outer loop
      vertex 20 24 22.4
      vertex 18.3029 25.8 21.6971
      vertex 18.3029 24 21.6971
    endloop
  endfacet
  facet normal 0.382684 0 0.923879
    outer loop
      vertex 20 25.8 22.4
      vertex 21.6971 24 21.6971
      vertex 21.6971 25.8 21.6971
    endloop
  endfacet
  facet normal 0.382684 0 0.923879
    outer loop
      vertex 21.6971 24 21.6971
      vertex 20 25.8 22.4
      vertex 20 24 22.4
    endloop
  endfacet
  facet normal 0 -1 0
    outer loop
      vertex 18.3029 24 21.6971
      vertex 21.6971 24 21.6971
      vertex 20 24 22.4
    endloop
  endfacet
  facet normal 0 -1 0
    outer loop
      vertex 17.6 24 20
      vertex 21.6971 24 21.6971
      vertex 18.3029 24 21.6971
    endloop
  endfacet
  facet normal 0 -1 0
    outer loop
      vertex 17.6 24 20
      vertex 22.4 24 20
      vertex 21.6971 24 21.6971
    endloop
  endfacet
  facet normal 0 -1 0
    outer loop
      vertex 18.3029 24 18.3029
      vertex 22.4 24 20
      vertex 17.6 24 20
    endloop
  endfacet
  facet normal 0 -1 0
    outer loop
      vertex 18.3029 24 18.3029
      vertex 21.6971 24 18.3029
      vertex 22.4 24 20
    endloop
  endfacet
  facet normal -0 -1 0
    outer loop
      vertex 21.6971 24 18.3029
      vertex 18.3029 24 18.3029
      vertex 20 24 17.6
    endloop
  endfacet
  facet normal -0.923879 0 0.382684
    outer loop
      vertex 17.6 24 20
      vertex 18.3029 25.8 21.6971
      vertex 17.6 25.8 20
    endloop
  endfacet
  facet normal -0.923879 0 0.382684
    outer loop
      vertex 18.3029 25.8 21.6971
      vertex 17.6 24 20
      vertex 18.3029 24 21.6971
    endloop
  endfacet
  facet normal 0.923879 0 -0.382684
    outer loop
      vertex 22.4 24 20
      vertex 21.6971 25.8 18.3029
      vertex 22.4 25.8 20
    endloop
  endfacet
  facet normal 0.923879 0 -0.382684
    outer loop
      vertex 21.6971 25.8 18.3029
      vertex 22.4 24 20
      vertex 21.6971 24 18.3029
    endloop
  endfacet
  facet normal 0.382684 0 -0.923879
    outer loop
      vertex 20 24 17.6
      vertex 21.6971 25.8 18.3029
      vertex 21.6971 24 18.3029
    endloop
  endfacet
  facet normal 0.382684 0 -0.923879
    outer loop
      vertex 21.6971 25.8 18.3029
      vertex 20 24 17.6
      vertex 20 25.8 17.6
    endloop
  endfacet
  facet normal -0.382684 0 -0.923879
    outer loop
      vertex 18.3029 24 18.3029
      vertex 20 25.8 17.6
      vertex 20 24 17.6
    endloop
  endfacet
  facet normal -0.382684 0 -0.923879
    outer loop
      vertex 20 25.8 17.6
      vertex 18.3029 24 18.3029
      vertex 18.3029 25.8 18.3029
    endloop
  endfacet
  facet normal 0.923879 -0 0.382684
    outer loop
      vertex 21.6971 24 29.6971
      vertex 22.4 25.8 28
      vertex 21.6971 25.8 29.6971
    endloop
  endfacet
  facet normal 0.923879 0 0.382684
    outer loop
      vertex 22.4 25.8 28
      vertex 21.6971 24 29.6971
      vertex 22.4 24 28
    endloop
  endfacet
  facet normal -0.382684 0 -0.923879
    outer loop
      vertex 18.3029 24 26.3029
      vertex 20 25.8 25.6
      vertex 20 24 25.6
    endloop
  endfacet
  facet normal -0.382684 0 -0.923879
    outer loop
      vertex 20 25.8 25.6
      vertex 18.3029 24 26.3029
      vertex 18.3029 25.8 26.3029
    endloop
  endfacet
  facet normal -0.382684 0 0.923879
    outer loop
      vertex 18.3029 25.8 29.6971
      vertex 20 24 30.4
      vertex 20 25.8 30.4
    endloop
  endfacet
  facet normal -0.382684 0 0.923879
    outer loop
      vertex 20 24 30.4
      vertex 18.3029 25.8 29.6971
      vertex 18.3029 24 29.6971
    endloop
  endfacet
  facet normal 0.382684 0 0.923879
    outer loop
      vertex 20 25.8 30.4
      vertex 21.6971 24 29.6971
      vertex 21.6971 25.8 29.6971
    endloop
  endfacet
  facet normal 0.382684 0 0.923879
    outer loop
      vertex 21.6971 24 29.6971
      vertex 20 25.8 30.4
      vertex 20 24 30.4
    endloop
  endfacet
  facet normal 0 -1 0
    outer loop
      vertex 18.3029 24 29.6971
      vertex 21.6971 24 29.6971
      vertex 20 24 30.4
    endloop
  endfacet
  facet normal 0 -1 0
    outer loop
      vertex 17.6 24 28
      vertex 21.6971 24 29.6971
      vertex 18.3029 24 29.6971
    endloop
  endfacet
  facet normal 0 -1 0
    outer loop
      vertex 17.6 24 28
      vertex 22.4 24 28
      vertex 21.6971 24 29.6971
    endloop
  endfacet
  facet normal 0 -1 0
    outer loop
      vertex 18.3029 24 26.3029
      vertex 22.4 24 28
      vertex 17.6 24 28
    endloop
  endfacet
  facet normal 0 -1 0
    outer loop
      vertex 18.3029 24 26.3029
      vertex 21.6971 24 26.3029
      vertex 22.4 24 28
    endloop
  endfacet
  facet normal -0 -1 0
    outer loop
      vertex 21.6971 24 26.3029
      vertex 18.3029 24 26.3029
      vertex 20 24 25.6
    endloop
  endfacet
  facet normal -0.923879 0 0.382684
    outer loop
      vertex 17.6 24 28
      vertex 18.3029 25.8 29.6971
      vertex 17.6 25.8 28
    endloop
  endfacet
  facet normal -0.923879 0 0.382684
    outer loop
      vertex 18.3029 25.8 29.6971
      vertex 17.6 24 28
      vertex 18.3029 24 29.6971
    endloop
  endfacet
  facet normal -0.923879 0 -0.382684
    outer loop
      vertex 18.3029 24 26.3029
      vertex 17.6 25.8 28
      vertex 18.3029 25.8 26.3029
    endloop
  endfacet
  facet normal -0.923879 -0 -0.382684
    outer loop
      vertex 17.6 25.8 28
      vertex 18.3029 24 26.3029
      vertex 17.6 24 28
    endloop
  endfacet
  facet normal 0.382684 0 -0.923879
    outer loop
      vertex 20 24 25.6
      vertex 21.6971 25.8 26.3029
      vertex 21.6971 24 26.3029
    endloop
  endfacet
  facet normal 0.382684 0 -0.923879
    outer loop
      vertex 21.6971 25.8 26.3029
      vertex 20 24 25.6
      vertex 20 25.8 25.6
    endloop
  endfacet
  facet normal 0.923879 0 -0.382684
    outer loop
      vertex 22.4 24 28
      vertex 21.6971 25.8 26.3029
      vertex 22.4 25.8 28
    endloop
  endfacet
  facet normal 0.923879 0 -0.382684
    outer loop
      vertex 21.6971 25.8 26.3029
      vertex 22.4 24 28
      vertex 21.6971 24 26.3029
    endloop
  endfacet
  facet normal 0.923879 -0 0.382684
    outer loop
      vertex 21.6971 24 37.6971
      vertex 22.4 25.8 36
      vertex 21.6971 25.8 37.6971
    endloop
  endfacet
  facet normal 0.923879 0 0.382684
    outer loop
      vertex 22.4 25.8 36
      vertex 21.6971 24 37.6971
      vertex 22.4 24 36
    endloop
  endfacet
  facet normal -0.923879 0 -0.382684
    outer loop
      vertex 18.3029 24 34.3029
      vertex 17.6 25.8 36
      vertex 18.3029 25.8 34.3029
    endloop
  endfacet
  facet normal -0.923879 -0 -0.382684
    outer loop
      vertex 17.6 25.8 36
      vertex 18.3029 24 34.3029
      vertex 17.6 24 36
    endloop
  endfacet
  facet normal -0.382684 0 0.923879
    outer loop
      vertex 18.3029 25.8 37.6971
      vertex 19.0343 24 38
      vertex 19.0343 25.8 38
    endloop
  endfacet
  facet normal -0.382684 0 0.923879
    outer loop
      vertex 19.0343 24 38
      vertex 18.3029 25.8 37.6971
      vertex 18.3029 24 37.6971
    endloop
  endfacet
  facet normal 0.382684 0 0.923879
    outer loop
      vertex 20.9657 25.8 38
      vertex 21.6971 24 37.6971
      vertex 21.6971 25.8 37.6971
    endloop
  endfacet
  facet normal 0.382684 0 0.923879
    outer loop
      vertex 21.6971 24 37.6971
      vertex 20.9657 25.8 38
      vertex 20.9657 24 38
    endloop
  endfacet
  facet normal 0 -1 0
    outer loop
      vertex 17.6 24 36
      vertex 19.0343 24 38
      vertex 18.3029 24 37.6971
    endloop
  endfacet
  facet normal 0 -1 0
    outer loop
      vertex 18.3029 24 34.3029
      vertex 19.0343 24 38
      vertex 17.6 24 36
    endloop
  endfacet
  facet normal 0 -1 0
    outer loop
      vertex 20 24 33.6
      vertex 19.0343 24 38
      vertex 18.3029 24 34.3029
    endloop
  endfacet
  facet normal 0 -1 0
    outer loop
      vertex 20.9657 24 38
      vertex 22.4 24 36
      vertex 21.6971 24 37.6971
    endloop
  endfacet
  facet normal 0 -1 0
    outer loop
      vertex 19.0343 24 38
      vertex 20 24 33.6
      vertex 20.9657 24 38
    endloop
  endfacet
  facet normal 0 -1 0
    outer loop
      vertex 20.9657 24 38
      vertex 21.6971 24 34.3029
      vertex 22.4 24 36
    endloop
  endfacet
  facet normal 0 -1 -0
    outer loop
      vertex 20.9657 24 38
      vertex 20 24 33.6
      vertex 21.6971 24 34.3029
    endloop
  endfacet
  facet normal -0.923879 0 0.382684
    outer loop
      vertex 17.6 24 36
      vertex 18.3029 25.8 37.6971
      vertex 17.6 25.8 36
    endloop
  endfacet
  facet normal -0.923879 0 0.382684
    outer loop
      vertex 18.3029 25.8 37.6971
      vertex 17.6 24 36
      vertex 18.3029 24 37.6971
    endloop
  endfacet
  facet normal 0.923879 0 -0.382684
    outer loop
      vertex 22.4 24 36
      vertex 21.6971 25.8 34.3029
      vertex 22.4 25.8 36
    endloop
  endfacet
  facet normal 0.923879 0 -0.382684
    outer loop
      vertex 21.6971 25.8 34.3029
      vertex 22.4 24 36
      vertex 21.6971 24 34.3029
    endloop
  endfacet
  facet normal 0.382684 0 -0.923879
    outer loop
      vertex 20 24 33.6
      vertex 21.6971 25.8 34.3029
      vertex 21.6971 24 34.3029
    endloop
  endfacet
  facet normal 0.382684 0 -0.923879
    outer loop
      vertex 21.6971 25.8 34.3029
      vertex 20 24 33.6
      vertex 20 25.8 33.6
    endloop
  endfacet
  facet normal -0.382684 0 -0.923879
    outer loop
      vertex 18.3029 24 34.3029
      vertex 20 25.8 33.6
      vertex 20 24 33.6
    endloop
  endfacet
  facet normal -0.382684 0 -0.923879
    outer loop
      vertex 20 25.8 33.6
      vertex 18.3029 24 34.3029
      vertex 18.3029 25.8 34.3029
    endloop
  endfacet
  facet normal 0.923879 -0 0.382684
    outer loop
      vertex 29.6971 24 5.69706
      vertex 30.4 25.8 4
      vertex 29.6971 25.8 5.69706
    endloop
  endfacet
  facet normal 0.923879 0 0.382684
    outer loop
      vertex 30.4 25.8 4
      vertex 29.6971 24 5.69706
      vertex 30.4 24 4
    endloop
  endfacet
  facet normal -0.923879 0 0.382684
    outer loop
      vertex 25.6 24 4
      vertex 26.3029 25.8 5.69706
      vertex 25.6 25.8 4
    endloop
  endfacet
  facet normal -0.923879 0 0.382684
    outer loop
      vertex 26.3029 25.8 5.69706
      vertex 25.6 24 4
      vertex 26.3029 24 5.69706
    endloop
  endfacet
  facet normal 0.382684 0 0.923879
    outer loop
      vertex 28 25.8 6.4
      vertex 29.6971 24 5.69706
      vertex 29.6971 25.8 5.69706
    endloop
  endfacet
  facet normal 0.382684 0 0.923879
    outer loop
      vertex 29.6971 24 5.69706
      vertex 28 25.8 6.4
      vertex 28 24 6.4
    endloop
  endfacet
  facet normal 0 -1 0
    outer loop
      vertex 26.3029 24 5.69706
      vertex 29.6971 24 5.69706
      vertex 28 24 6.4
    endloop
  endfacet
  facet normal 0 -1 0
    outer loop
      vertex 25.6 24 4
      vertex 29.6971 24 5.69706
      vertex 26.3029 24 5.69706
    endloop
  endfacet
  facet normal 0 -1 0
    outer loop
      vertex 25.6 24 4
      vertex 30.4 24 4
      vertex 29.6971 24 5.69706
    endloop
  endfacet
  facet normal 0 -1 0
    outer loop
      vertex 26.3029 24 2.30294
      vertex 30.4 24 4
      vertex 25.6 24 4
    endloop
  endfacet
  facet normal 0 -1 0
    outer loop
      vertex 26.3029 24 2.30294
      vertex 29.6971 24 2.30294
      vertex 30.4 24 4
    endloop
  endfacet
  facet normal -0 -1 0
    outer loop
      vertex 29.6971 24 2.30294
      vertex 26.3029 24 2.30294
      vertex 28 24 1.6
    endloop
  endfacet
  facet normal -0.382684 0 0.923879
    outer loop
      vertex 26.3029 25.8 5.69706
      vertex 28 24 6.4
      vertex 28 25.8 6.4
    endloop
  endfacet
  facet normal -0.382684 0 0.923879
    outer loop
      vertex 28 24 6.4
      vertex 26.3029 25.8 5.69706
      vertex 26.3029 24 5.69706
    endloop
  endfacet
  facet normal 0.382684 0 -0.923879
    outer loop
      vertex 28 24 1.6
      vertex 29.6971 25.8 2.30294
      vertex 29.6971 24 2.30294
    endloop
  endfacet
  facet normal 0.382684 0 -0.923879
    outer loop
      vertex 29.6971 25.8 2.30294
      vertex 28 24 1.6
      vertex 28 25.8 1.6
    endloop
  endfacet
  facet normal -0.923879 0 -0.382684
    outer loop
      vertex 26.3029 24 2.30294
      vertex 25.6 25.8 4
      vertex 26.3029 25.8 2.30294
    endloop
  endfacet
  facet normal -0.923879 -0 -0.382684
    outer loop
      vertex 25.6 25.8 4
      vertex 26.3029 24 2.30294
      vertex 25.6 24 4
    endloop
  endfacet
  facet normal -0.382684 0 -0.923879
    outer loop
      vertex 26.3029 24 2.30294
      vertex 28 25.8 1.6
      vertex 28 24 1.6
    endloop
  endfacet
  facet normal -0.382684 0 -0.923879
    outer loop
      vertex 28 25.8 1.6
      vertex 26.3029 24 2.30294
      vertex 26.3029 25.8 2.30294
    endloop
  endfacet
  facet normal 0.923879 0 -0.382684
    outer loop
      vertex 30.4 24 4
      vertex 29.6971 25.8 2.30294
      vertex 30.4 25.8 4
    endloop
  endfacet
  facet normal 0.923879 0 -0.382684
    outer loop
      vertex 29.6971 25.8 2.30294
      vertex 30.4 24 4
      vertex 29.6971 24 2.30294
    endloop
  endfacet
  facet normal 0.923879 -0 0.382684
    outer loop
      vertex 29.6971 24 13.6971
      vertex 30.4 25.8 12
      vertex 29.6971 25.8 13.6971
    endloop
  endfacet
  facet normal 0.923879 0 0.382684
    outer loop
      vertex 30.4 25.8 12
      vertex 29.6971 24 13.6971
      vertex 30.4 24 12
    endloop
  endfacet
  facet normal -0.923879 0 -0.382684
    outer loop
      vertex 26.3029 24 10.3029
      vertex 25.6 25.8 12
      vertex 26.3029 25.8 10.3029
    endloop
  endfacet
  facet normal -0.923879 -0 -0.382684
    outer loop
      vertex 25.6 25.8 12
      vertex 26.3029 24 10.3029
      vertex 25.6 24 12
    endloop
  endfacet
  facet normal -0.382684 0 0.923879
    outer loop
      vertex 26.3029 25.8 13.6971
      vertex 28 24 14.4
      vertex 28 25.8 14.4
    endloop
  endfacet
  facet normal -0.382684 0 0.923879
    outer loop
      vertex 28 24 14.4
      vertex 26.3029 25.8 13.6971
      vertex 26.3029 24 13.6971
    endloop
  endfacet
  facet normal 0.382684 0 0.923879
    outer loop
      vertex 28 25.8 14.4
      vertex 29.6971 24 13.6971
      vertex 29.6971 25.8 13.6971
    endloop
  endfacet
  facet normal 0.382684 0 0.923879
    outer loop
      vertex 29.6971 24 13.6971
      vertex 28 25.8 14.4
      vertex 28 24 14.4
    endloop
  endfacet
  facet normal 0 -1 0
    outer loop
      vertex 26.3029 24 13.6971
      vertex 29.6971 24 13.6971
      vertex 28 24 14.4
    endloop
  endfacet
  facet normal 0 -1 0
    outer loop
      vertex 25.6 24 12
      vertex 29.6971 24 13.6971
      vertex 26.3029 24 13.6971
    endloop
  endfacet
  facet normal 0 -1 0
    outer loop
      vertex 25.6 24 12
      vertex 30.4 24 12
      vertex 29.6971 24 13.6971
    endloop
  endfacet
  facet normal 0 -1 0
    outer loop
      vertex 26.3029 24 10.3029
      vertex 30.4 24 12
      vertex 25.6 24 12
    endloop
  endfacet
  facet normal 0 -1 0
    outer loop
      vertex 26.3029 24 10.3029
      vertex 29.6971 24 10.3029
      vertex 30.4 24 12
    endloop
  endfacet
  facet normal -0 -1 0
    outer loop
      vertex 29.6971 24 10.3029
      vertex 26.3029 24 10.3029
      vertex 28 24 9.6
    endloop
  endfacet
  facet normal -0.923879 0 0.382684
    outer loop
      vertex 25.6 24 12
      vertex 26.3029 25.8 13.6971
      vertex 25.6 25.8 12
    endloop
  endfacet
  facet normal -0.923879 0 0.382684
    outer loop
      vertex 26.3029 25.8 13.6971
      vertex 25.6 24 12
      vertex 26.3029 24 13.6971
    endloop
  endfacet
  facet normal 0.92388 0 -0.382683
    outer loop
      vertex 30.4 24 12
      vertex 29.6971 25.8 10.3029
      vertex 30.4 25.8 12
    endloop
  endfacet
  facet normal 0.92388 0 -0.382683
    outer loop
      vertex 29.6971 25.8 10.3029
      vertex 30.4 24 12
      vertex 29.6971 24 10.3029
    endloop
  endfacet
  facet normal 0.382684 0 -0.923879
    outer loop
      vertex 28 24 9.6
      vertex 29.6971 25.8 10.3029
      vertex 29.6971 24 10.3029
    endloop
  endfacet
  facet normal 0.382684 0 -0.923879
    outer loop
      vertex 29.6971 25.8 10.3029
      vertex 28 24 9.6
      vertex 28 25.8 9.6
    endloop
  endfacet
  facet normal -0.382684 0 -0.923879
    outer loop
      vertex 26.3029 24 10.3029
      vertex 28 25.8 9.6
      vertex 28 24 9.6
    endloop
  endfacet
  facet normal -0.382684 0 -0.923879
    outer loop
      vertex 28 25.8 9.6
      vertex 26.3029 24 10.3029
      vertex 26.3029 25.8 10.3029
    endloop
  endfacet
  facet normal 0.923879 -0 0.382684
    outer loop
      vertex 29.6971 24 21.6971
      vertex 30.4 25.8 20
      vertex 29.6971 25.8 21.6971
    endloop
  endfacet
  facet normal 0.923879 0 0.382684
    outer loop
      vertex 30.4 25.8 20
      vertex 29.6971 24 21.6971
      vertex 30.4 24 20
    endloop
  endfacet
  facet normal -0.923879 0 -0.382684
    outer loop
      vertex 26.3029 24 18.3029
      vertex 25.6 25.8 20
      vertex 26.3029 25.8 18.3029
    endloop
  endfacet
  facet normal -0.923879 -0 -0.382684
    outer loop
      vertex 25.6 25.8 20
      vertex 26.3029 24 18.3029
      vertex 25.6 24 20
    endloop
  endfacet
  facet normal -0.382684 0 -0.923879
    outer loop
      vertex 26.3029 24 18.3029
      vertex 28 25.8 17.6
      vertex 28 24 17.6
    endloop
  endfacet
  facet normal -0.382684 0 -0.923879
    outer loop
      vertex 28 25.8 17.6
      vertex 26.3029 24 18.3029
      vertex 26.3029 25.8 18.3029
    endloop
  endfacet
  facet normal -0.382684 0 0.923879
    outer loop
      vertex 26.3029 25.8 21.6971
      vertex 28 24 22.4
      vertex 28 25.8 22.4
    endloop
  endfacet
  facet normal -0.382684 0 0.923879
    outer loop
      vertex 28 24 22.4
      vertex 26.3029 25.8 21.6971
      vertex 26.3029 24 21.6971
    endloop
  endfacet
  facet normal 0.382684 0 0.923879
    outer loop
      vertex 28 25.8 22.4
      vertex 29.6971 24 21.6971
      vertex 29.6971 25.8 21.6971
    endloop
  endfacet
  facet normal 0.382684 0 0.923879
    outer loop
      vertex 29.6971 24 21.6971
      vertex 28 25.8 22.4
      vertex 28 24 22.4
    endloop
  endfacet
  facet normal 0 -1 0
    outer loop
      vertex 26.3029 24 21.6971
      vertex 29.6971 24 21.6971
      vertex 28 24 22.4
    endloop
  endfacet
  facet normal 0 -1 0
    outer loop
      vertex 25.6 24 20
      vertex 29.6971 24 21.6971
      vertex 26.3029 24 21.6971
    endloop
  endfacet
  facet normal 0 -1 0
    outer loop
      vertex 25.6 24 20
      vertex 30.4 24 20
      vertex 29.6971 24 21.6971
    endloop
  endfacet
  facet normal 0 -1 0
    outer loop
      vertex 26.3029 24 18.3029
      vertex 30.4 24 20
      vertex 25.6 24 20
    endloop
  endfacet
  facet normal 0 -1 0
    outer loop
      vertex 26.3029 24 18.3029
      vertex 29.6971 24 18.3029
      vertex 30.4 24 20
    endloop
  endfacet
  facet normal -0 -1 0
    outer loop
      vertex 29.6971 24 18.3029
      vertex 26.3029 24 18.3029
      vertex 28 24 17.6
    endloop
  endfacet
  facet normal -0.923879 0 0.382684
    outer loop
      vertex 25.6 24 20
      vertex 26.3029 25.8 21.6971
      vertex 25.6 25.8 20
    endloop
  endfacet
  facet normal -0.923879 0 0.382684
    outer loop
      vertex 26.3029 25.8 21.6971
      vertex 25.6 24 20
      vertex 26.3029 24 21.6971
    endloop
  endfacet
  facet normal 0.382684 0 -0.923879
    outer loop
      vertex 28 24 17.6
      vertex 29.6971 25.8 18.3029
      vertex 29.6971 24 18.3029
    endloop
  endfacet
  facet normal 0.382684 0 -0.923879
    outer loop
      vertex 29.6971 25.8 18.3029
      vertex 28 24 17.6
      vertex 28 25.8 17.6
    endloop
  endfacet
  facet normal 0.923879 0 -0.382684
    outer loop
      vertex 30.4 24 20
      vertex 29.6971 25.8 18.3029
      vertex 30.4 25.8 20
    endloop
  endfacet
  facet normal 0.923879 0 -0.382684
    outer loop
      vertex 29.6971 25.8 18.3029
      vertex 30.4 24 20
      vertex 29.6971 24 18.3029
    endloop
  endfacet
  facet normal 0.923879 -0 0.382684
    outer loop
      vertex 29.6971 24 29.6971
      vertex 30.4 25.8 28
      vertex 29.6971 25.8 29.6971
    endloop
  endfacet
  facet normal 0.923879 0 0.382684
    outer loop
      vertex 30.4 25.8 28
      vertex 29.6971 24 29.6971
      vertex 30.4 24 28
    endloop
  endfacet
  facet normal -0.923879 0 -0.382684
    outer loop
      vertex 26.3029 24 26.3029
      vertex 25.6 25.8 28
      vertex 26.3029 25.8 26.3029
    endloop
  endfacet
  facet normal -0.923879 -0 -0.382684
    outer loop
      vertex 25.6 25.8 28
      vertex 26.3029 24 26.3029
      vertex 25.6 24 28
    endloop
  endfacet
  facet normal -0.382684 0 0.923879
    outer loop
      vertex 26.3029 25.8 29.6971
      vertex 28 24 30.4
      vertex 28 25.8 30.4
    endloop
  endfacet
  facet normal -0.382684 0 0.923879
    outer loop
      vertex 28 24 30.4
      vertex 26.3029 25.8 29.6971
      vertex 26.3029 24 29.6971
    endloop
  endfacet
  facet normal 0.382684 0 0.923879
    outer loop
      vertex 28 25.8 30.4
      vertex 29.6971 24 29.6971
      vertex 29.6971 25.8 29.6971
    endloop
  endfacet
  facet normal 0.382684 0 0.923879
    outer loop
      vertex 29.6971 24 29.6971
      vertex 28 25.8 30.4
      vertex 28 24 30.4
    endloop
  endfacet
  facet normal 0 -1 0
    outer loop
      vertex 26.3029 24 29.6971
      vertex 29.6971 24 29.6971
      vertex 28 24 30.4
    endloop
  endfacet
  facet normal 0 -1 0
    outer loop
      vertex 25.6 24 28
      vertex 29.6971 24 29.6971
      vertex 26.3029 24 29.6971
    endloop
  endfacet
  facet normal 0 -1 0
    outer loop
      vertex 25.6 24 28
      vertex 30.4 24 28
      vertex 29.6971 24 29.6971
    endloop
  endfacet
  facet normal 0 -1 0
    outer loop
      vertex 26.3029 24 26.3029
      vertex 30.4 24 28
      vertex 25.6 24 28
    endloop
  endfacet
  facet normal 0 -1 0
    outer loop
      vertex 26.3029 24 26.3029
      vertex 29.6971 24 26.3029
      vertex 30.4 24 28
    endloop
  endfacet
  facet normal -0 -1 0
    outer loop
      vertex 29.6971 24 26.3029
      vertex 26.3029 24 26.3029
      vertex 28 24 25.6
    endloop
  endfacet
  facet normal -0.923879 0 0.382684
    outer loop
      vertex 25.6 24 28
      vertex 26.3029 25.8 29.6971
      vertex 25.6 25.8 28
    endloop
  endfacet
  facet normal -0.923879 0 0.382684
    outer loop
      vertex 26.3029 25.8 29.6971
      vertex 25.6 24 28
      vertex 26.3029 24 29.6971
    endloop
  endfacet
  facet normal 0.923879 0 -0.382684
    outer loop
      vertex 30.4 24 28
      vertex 29.6971 25.8 26.3029
      vertex 30.4 25.8 28
    endloop
  endfacet
  facet normal 0.923879 0 -0.382684
    outer loop
      vertex 29.6971 25.8 26.3029
      vertex 30.4 24 28
      vertex 29.6971 24 26.3029
    endloop
  endfacet
  facet normal 0.382684 0 -0.923879
    outer loop
      vertex 28 24 25.6
      vertex 29.6971 25.8 26.3029
      vertex 29.6971 24 26.3029
    endloop
  endfacet
  facet normal 0.382684 0 -0.923879
    outer loop
      vertex 29.6971 25.8 26.3029
      vertex 28 24 25.6
      vertex 28 25.8 25.6
    endloop
  endfacet
  facet normal -0.382684 0 -0.923879
    outer loop
      vertex 26.3029 24 26.3029
      vertex 28 25.8 25.6
      vertex 28 24 25.6
    endloop
  endfacet
  facet normal -0.382684 0 -0.923879
    outer loop
      vertex 28 25.8 25.6
      vertex 26.3029 24 26.3029
      vertex 26.3029 25.8 26.3029
    endloop
  endfacet
  facet normal 0.923879 -0 0.382684
    outer loop
      vertex 29.6971 24 37.6971
      vertex 30.4 25.8 36
      vertex 29.6971 25.8 37.6971
    endloop
  endfacet
  facet normal 0.923879 0 0.382684
    outer loop
      vertex 30.4 25.8 36
      vertex 29.6971 24 37.6971
      vertex 30.4 24 36
    endloop
  endfacet
  facet normal -0.382684 0 0.923879
    outer loop
      vertex 26.3029 25.8 37.6971
      vertex 27.0343 24 38
      vertex 27.0343 25.8 38
    endloop
  endfacet
  facet normal -0.382684 0 0.923879
    outer loop
      vertex 27.0343 24 38
      vertex 26.3029 25.8 37.6971
      vertex 26.3029 24 37.6971
    endloop
  endfacet
  facet normal 0.382684 0 0.923879
    outer loop
      vertex 28.9657 25.8 38
      vertex 29.6971 24 37.6971
      vertex 29.6971 25.8 37.6971
    endloop
  endfacet
  facet normal 0.382684 0 0.923879
    outer loop
      vertex 29.6971 24 37.6971
      vertex 28.9657 25.8 38
      vertex 28.9657 24 38
    endloop
  endfacet
  facet normal 0 -1 0
    outer loop
      vertex 25.6 24 36
      vertex 27.0343 24 38
      vertex 26.3029 24 37.6971
    endloop
  endfacet
  facet normal 0 -1 0
    outer loop
      vertex 26.3029 24 34.3029
      vertex 27.0343 24 38
      vertex 25.6 24 36
    endloop
  endfacet
  facet normal 0 -1 0
    outer loop
      vertex 28 24 33.6
      vertex 27.0343 24 38
      vertex 26.3029 24 34.3029
    endloop
  endfacet
  facet normal 0 -1 0
    outer loop
      vertex 28.9657 24 38
      vertex 30.4 24 36
      vertex 29.6971 24 37.6971
    endloop
  endfacet
  facet normal 0 -1 0
    outer loop
      vertex 27.0343 24 38
      vertex 28 24 33.6
      vertex 28.9657 24 38
    endloop
  endfacet
  facet normal 0 -1 0
    outer loop
      vertex 28.9657 24 38
      vertex 29.6971 24 34.3029
      vertex 30.4 24 36
    endloop
  endfacet
  facet normal 0 -1 -0
    outer loop
      vertex 28.9657 24 38
      vertex 28 24 33.6
      vertex 29.6971 24 34.3029
    endloop
  endfacet
  facet normal -0.923879 0 0.382684
    outer loop
      vertex 25.6 24 36
      vertex 26.3029 25.8 37.6971
      vertex 25.6 25.8 36
    endloop
  endfacet
  facet normal -0.923879 0 0.382684
    outer loop
      vertex 26.3029 25.8 37.6971
      vertex 25.6 24 36
      vertex 26.3029 24 37.6971
    endloop
  endfacet
  facet normal 0.923879 0 -0.382684
    outer loop
      vertex 30.4 24 36
      vertex 29.6971 25.8 34.3029
      vertex 30.4 25.8 36
    endloop
  endfacet
  facet normal 0.923879 0 -0.382684
    outer loop
      vertex 29.6971 25.8 34.3029
      vertex 30.4 24 36
      vertex 29.6971 24 34.3029
    endloop
  endfacet
  facet normal -0.923879 0 -0.382684
    outer loop
      vertex 26.3029 24 34.3029
      vertex 25.6 25.8 36
      vertex 26.3029 25.8 34.3029
    endloop
  endfacet
  facet normal -0.923879 -0 -0.382684
    outer loop
      vertex 25.6 25.8 36
      vertex 26.3029 24 34.3029
      vertex 25.6 24 36
    endloop
  endfacet
  facet normal 0.382684 0 -0.923879
    outer loop
      vertex 28 24 33.6
      vertex 29.6971 25.8 34.3029
      vertex 29.6971 24 34.3029
    endloop
  endfacet
  facet normal 0.382684 0 -0.923879
    outer loop
      vertex 29.6971 25.8 34.3029
      vertex 28 24 33.6
      vertex 28 25.8 33.6
    endloop
  endfacet
  facet normal -0.382684 0 -0.923879
    outer loop
      vertex 26.3029 24 34.3029
      vertex 28 25.8 33.6
      vertex 28 24 33.6
    endloop
  endfacet
  facet normal -0.382684 0 -0.923879
    outer loop
      vertex 28 25.8 33.6
      vertex 26.3029 24 34.3029
      vertex 26.3029 25.8 34.3029
    endloop
  endfacet
  facet normal -0 0 1
    outer loop
      vertex 3.03432 25.8 38
      vertex 4.96568 24 38
      vertex 4.96568 25.8 38
    endloop
  endfacet
  facet normal 0 0 1
    outer loop
      vertex 4.96568 24 38
      vertex 3.03432 25.8 38
      vertex 3.03432 24 38
    endloop
  endfacet
  facet normal -0 0 1
    outer loop
      vertex 11.0343 25.8 38
      vertex 12.9657 24 38
      vertex 12.9657 25.8 38
    endloop
  endfacet
  facet normal 0 0 1
    outer loop
      vertex 12.9657 24 38
      vertex 11.0343 25.8 38
      vertex 11.0343 24 38
    endloop
  endfacet
  facet normal -0 0 1
    outer loop
      vertex 19.0343 25.8 38
      vertex 20.9657 24 38
      vertex 20.9657 25.8 38
    endloop
  endfacet
  facet normal 0 0 1
    outer loop
      vertex 20.9657 24 38
      vertex 19.0343 25.8 38
      vertex 19.0343 24 38
    endloop
  endfacet
  facet normal -0 0 1
    outer loop
      vertex 27.0343 25.8 38
      vertex 28.9657 24 38
      vertex 28.9657 25.8 38
    endloop
  endfacet
  facet normal 0 0 1
    outer loop
      vertex 28.9657 24 38
      vertex 27.0343 25.8 38
      vertex 27.0343 24 38
    endloop
  endfacet
  facet normal 0 1 0
    outer loop
      vertex 6.4 25.8 36
      vertex 4.96568 25.8 38
      vertex 5.69706 25.8 37.6971
    endloop
  endfacet
  facet normal 0 1 -0
    outer loop
      vertex 5.69706 25.8 34.3029
      vertex 4.96568 25.8 38
      vertex 6.4 25.8 36
    endloop
  endfacet
  facet normal 0 1 0
    outer loop
      vertex 4 25.8 33.6
      vertex 4.96568 25.8 38
      vertex 5.69706 25.8 34.3029
    endloop
  endfacet
  facet normal 0 1 0
    outer loop
      vertex 3.03432 25.8 38
      vertex 1.6 25.8 36
      vertex 2.30294 25.8 37.6971
    endloop
  endfacet
  facet normal 0 1 0
    outer loop
      vertex 4.96568 25.8 38
      vertex 4 25.8 33.6
      vertex 3.03432 25.8 38
    endloop
  endfacet
  facet normal 0 1 0
    outer loop
      vertex 3.03432 25.8 38
      vertex 2.30294 25.8 34.3029
      vertex 1.6 25.8 36
    endloop
  endfacet
  facet normal 0 1 0
    outer loop
      vertex 3.03432 25.8 38
      vertex 4 25.8 33.6
      vertex 2.30294 25.8 34.3029
    endloop
  endfacet
  facet normal 0 1 0
    outer loop
      vertex 14.4 25.8 36
      vertex 12.9657 25.8 38
      vertex 13.6971 25.8 37.6971
    endloop
  endfacet
  facet normal 0 1 -0
    outer loop
      vertex 13.6971 25.8 34.3029
      vertex 12.9657 25.8 38
      vertex 14.4 25.8 36
    endloop
  endfacet
  facet normal 0 1 0
    outer loop
      vertex 12 25.8 33.6
      vertex 12.9657 25.8 38
      vertex 13.6971 25.8 34.3029
    endloop
  endfacet
  facet normal 0 1 0
    outer loop
      vertex 11.0343 25.8 38
      vertex 9.6 25.8 36
      vertex 10.3029 25.8 37.6971
    endloop
  endfacet
  facet normal 0 1 0
    outer loop
      vertex 12.9657 25.8 38
      vertex 12 25.8 33.6
      vertex 11.0343 25.8 38
    endloop
  endfacet
  facet normal 0 1 0
    outer loop
      vertex 11.0343 25.8 38
      vertex 10.3029 25.8 34.3029
      vertex 9.6 25.8 36
    endloop
  endfacet
  facet normal 0 1 0
    outer loop
      vertex 11.0343 25.8 38
      vertex 12 25.8 33.6
      vertex 10.3029 25.8 34.3029
    endloop
  endfacet
  facet normal 0 1 0
    outer loop
      vertex 22.4 25.8 36
      vertex 20.9657 25.8 38
      vertex 21.6971 25.8 37.6971
    endloop
  endfacet
  facet normal 0 1 -0
    outer loop
      vertex 21.6971 25.8 34.3029
      vertex 20.9657 25.8 38
      vertex 22.4 25.8 36
    endloop
  endfacet
  facet normal 0 1 0
    outer loop
      vertex 20 25.8 33.6
      vertex 20.9657 25.8 38
      vertex 21.6971 25.8 34.3029
    endloop
  endfacet
  facet normal 0 1 0
    outer loop
      vertex 19.0343 25.8 38
      vertex 17.6 25.8 36
      vertex 18.3029 25.8 37.6971
    endloop
  endfacet
  facet normal 0 1 0
    outer loop
      vertex 20.9657 25.8 38
      vertex 20 25.8 33.6
      vertex 19.0343 25.8 38
    endloop
  endfacet
  facet normal 0 1 0
    outer loop
      vertex 19.0343 25.8 38
      vertex 18.3029 25.8 34.3029
      vertex 17.6 25.8 36
    endloop
  endfacet
  facet normal 0 1 0
    outer loop
      vertex 19.0343 25.8 38
      vertex 20 25.8 33.6
      vertex 18.3029 25.8 34.3029
    endloop
  endfacet
  facet normal 0 1 0
    outer loop
      vertex 30.4 25.8 36
      vertex 28.9657 25.8 38
      vertex 29.6971 25.8 37.6971
    endloop
  endfacet
  facet normal 0 1 -0
    outer loop
      vertex 29.6971 25.8 34.3029
      vertex 28.9657 25.8 38
      vertex 30.4 25.8 36
    endloop
  endfacet
  facet normal 0 1 0
    outer loop
      vertex 28 25.8 33.6
      vertex 28.9657 25.8 38
      vertex 29.6971 25.8 34.3029
    endloop
  endfacet
  facet normal 0 1 0
    outer loop
      vertex 27.0343 25.8 38
      vertex 25.6 25.8 36
      vertex 26.3029 25.8 37.6971
    endloop
  endfacet
  facet normal 0 1 0
    outer loop
      vertex 28.9657 25.8 38
      vertex 28 25.8 33.6
      vertex 27.0343 25.8 38
    endloop
  endfacet
  facet normal 0 1 0
    outer loop
      vertex 27.0343 25.8 38
      vertex 26.3029 25.8 34.3029
      vertex 25.6 25.8 36
    endloop
  endfacet
  facet normal 0 1 0
    outer loop
      vertex 27.0343 25.8 38
      vertex 28 25.8 33.6
      vertex 26.3029 25.8 34.3029
    endloop
  endfacet
  facet normal 0 1 0
    outer loop
      vertex 5.69706 25.8 29.6971
      vertex 2.30294 25.8 29.6971
      vertex 4 25.8 30.4
    endloop
  endfacet
  facet normal 0 1 0
    outer loop
      vertex 6.4 25.8 28
      vertex 2.30294 25.8 29.6971
      vertex 5.69706 25.8 29.6971
    endloop
  endfacet
  facet normal 0 1 0
    outer loop
      vertex 6.4 25.8 28
      vertex 1.6 25.8 28
      vertex 2.30294 25.8 29.6971
    endloop
  endfacet
  facet normal 0 1 -0
    outer loop
      vertex 5.69706 25.8 26.3029
      vertex 1.6 25.8 28
      vertex 6.4 25.8 28
    endloop
  endfacet
  facet normal 0 1 0
    outer loop
      vertex 5.69706 25.8 26.3029
      vertex 2.30294 25.8 26.3029
      vertex 1.6 25.8 28
    endloop
  endfacet
  facet normal -0 1 0
    outer loop
      vertex 2.30294 25.8 26.3029
      vertex 5.69706 25.8 26.3029
      vertex 4 25.8 25.6
    endloop
  endfacet
  facet normal 0 1 0
    outer loop
      vertex 5.69706 25.8 21.6971
      vertex 2.30294 25.8 21.6971
      vertex 4 25.8 22.4
    endloop
  endfacet
  facet normal 0 1 0
    outer loop
      vertex 6.4 25.8 20
      vertex 2.30294 25.8 21.6971
      vertex 5.69706 25.8 21.6971
    endloop
  endfacet
  facet normal 0 1 0
    outer loop
      vertex 6.4 25.8 20
      vertex 1.6 25.8 20
      vertex 2.30294 25.8 21.6971
    endloop
  endfacet
  facet normal 0 1 -0
    outer loop
      vertex 5.69706 25.8 18.3029
      vertex 1.6 25.8 20
      vertex 6.4 25.8 20
    endloop
  endfacet
  facet normal 0 1 0
    outer loop
      vertex 5.69706 25.8 18.3029
      vertex 2.30294 25.8 18.3029
      vertex 1.6 25.8 20
    endloop
  endfacet
  facet normal -0 1 0
    outer loop
      vertex 2.30294 25.8 18.3029
      vertex 5.69706 25.8 18.3029
      vertex 4 25.8 17.6
    endloop
  endfacet
  facet normal 0 1 0
    outer loop
      vertex 5.69706 25.8 13.6971
      vertex 2.30294 25.8 13.6971
      vertex 4 25.8 14.4
    endloop
  endfacet
  facet normal 0 1 0
    outer loop
      vertex 6.4 25.8 12
      vertex 2.30294 25.8 13.6971
      vertex 5.69706 25.8 13.6971
    endloop
  endfacet
  facet normal 0 1 0
    outer loop
      vertex 6.4 25.8 12
      vertex 1.6 25.8 12
      vertex 2.30294 25.8 13.6971
    endloop
  endfacet
  facet normal 0 1 -0
    outer loop
      vertex 5.69706 25.8 10.3029
      vertex 1.6 25.8 12
      vertex 6.4 25.8 12
    endloop
  endfacet
  facet normal 0 1 0
    outer loop
      vertex 5.69706 25.8 10.3029
      vertex 2.30294 25.8 10.3029
      vertex 1.6 25.8 12
    endloop
  endfacet
  facet normal -0 1 0
    outer loop
      vertex 2.30294 25.8 10.3029
      vertex 5.69706 25.8 10.3029
      vertex 4 25.8 9.6
    endloop
  endfacet
  facet normal 0 1 0
    outer loop
      vertex 5.69706 25.8 5.69706
      vertex 2.30294 25.8 5.69706
      vertex 4 25.8 6.4
    endloop
  endfacet
  facet normal 0 1 0
    outer loop
      vertex 6.4 25.8 4
      vertex 2.30294 25.8 5.69706
      vertex 5.69706 25.8 5.69706
    endloop
  endfacet
  facet normal 0 1 0
    outer loop
      vertex 6.4 25.8 4
      vertex 1.6 25.8 4
      vertex 2.30294 25.8 5.69706
    endloop
  endfacet
  facet normal 0 1 -0
    outer loop
      vertex 5.69706 25.8 2.30294
      vertex 1.6 25.8 4
      vertex 6.4 25.8 4
    endloop
  endfacet
  facet normal 0 1 0
    outer loop
      vertex 5.69706 25.8 2.30294
      vertex 2.30294 25.8 2.30294
      vertex 1.6 25.8 4
    endloop
  endfacet
  facet normal -0 1 0
    outer loop
      vertex 2.30294 25.8 2.30294
      vertex 5.69706 25.8 2.30294
      vertex 4 25.8 1.6
    endloop
  endfacet
  facet normal 0 1 0
    outer loop
      vertex 13.6971 25.8 29.6971
      vertex 10.3029 25.8 29.6971
      vertex 12 25.8 30.4
    endloop
  endfacet
  facet normal 0 1 0
    outer loop
      vertex 14.4 25.8 28
      vertex 10.3029 25.8 29.6971
      vertex 13.6971 25.8 29.6971
    endloop
  endfacet
  facet normal 0 1 0
    outer loop
      vertex 14.4 25.8 28
      vertex 9.6 25.8 28
      vertex 10.3029 25.8 29.6971
    endloop
  endfacet
  facet normal 0 1 -0
    outer loop
      vertex 13.6971 25.8 26.3029
      vertex 9.6 25.8 28
      vertex 14.4 25.8 28
    endloop
  endfacet
  facet normal 0 1 0
    outer loop
      vertex 13.6971 25.8 26.3029
      vertex 10.3029 25.8 26.3029
      vertex 9.6 25.8 28
    endloop
  endfacet
  facet normal -0 1 0
    outer loop
      vertex 10.3029 25.8 26.3029
      vertex 13.6971 25.8 26.3029
      vertex 12 25.8 25.6
    endloop
  endfacet
  facet normal 0 1 0
    outer loop
      vertex 13.6971 25.8 21.6971
      vertex 10.3029 25.8 21.6971
      vertex 12 25.8 22.4
    endloop
  endfacet
  facet normal 0 1 0
    outer loop
      vertex 14.4 25.8 20
      vertex 10.3029 25.8 21.6971
      vertex 13.6971 25.8 21.6971
    endloop
  endfacet
  facet normal 0 1 0
    outer loop
      vertex 14.4 25.8 20
      vertex 9.6 25.8 20
      vertex 10.3029 25.8 21.6971
    endloop
  endfacet
  facet normal 0 1 -0
    outer loop
      vertex 13.6971 25.8 18.3029
      vertex 9.6 25.8 20
      vertex 14.4 25.8 20
    endloop
  endfacet
  facet normal 0 1 0
    outer loop
      vertex 13.6971 25.8 18.3029
      vertex 10.3029 25.8 18.3029
      vertex 9.6 25.8 20
    endloop
  endfacet
  facet normal -0 1 0
    outer loop
      vertex 10.3029 25.8 18.3029
      vertex 13.6971 25.8 18.3029
      vertex 12 25.8 17.6
    endloop
  endfacet
  facet normal 0 1 0
    outer loop
      vertex 13.6971 25.8 13.6971
      vertex 10.3029 25.8 13.6971
      vertex 12 25.8 14.4
    endloop
  endfacet
  facet normal 0 1 0
    outer loop
      vertex 14.4 25.8 12
      vertex 10.3029 25.8 13.6971
      vertex 13.6971 25.8 13.6971
    endloop
  endfacet
  facet normal 0 1 0
    outer loop
      vertex 14.4 25.8 12
      vertex 9.6 25.8 12
      vertex 10.3029 25.8 13.6971
    endloop
  endfacet
  facet normal 0 1 -0
    outer loop
      vertex 13.6971 25.8 10.3029
      vertex 9.6 25.8 12
      vertex 14.4 25.8 12
    endloop
  endfacet
  facet normal 0 1 0
    outer loop
      vertex 13.6971 25.8 10.3029
      vertex 10.3029 25.8 10.3029
      vertex 9.6 25.8 12
    endloop
  endfacet
  facet normal -0 1 0
    outer loop
      vertex 10.3029 25.8 10.3029
      vertex 13.6971 25.8 10.3029
      vertex 12 25.8 9.6
    endloop
  endfacet
  facet normal 0 1 0
    outer loop
      vertex 13.6971 25.8 5.69706
      vertex 10.3029 25.8 5.69706
      vertex 12 25.8 6.4
    endloop
  endfacet
  facet normal 0 1 0
    outer loop
      vertex 14.4 25.8 4
      vertex 10.3029 25.8 5.69706
      vertex 13.6971 25.8 5.69706
    endloop
  endfacet
  facet normal 0 1 0
    outer loop
      vertex 14.4 25.8 4
      vertex 9.6 25.8 4
      vertex 10.3029 25.8 5.69706
    endloop
  endfacet
  facet normal 0 1 -0
    outer loop
      vertex 13.6971 25.8 2.30294
      vertex 9.6 25.8 4
      vertex 14.4 25.8 4
    endloop
  endfacet
  facet normal 0 1 0
    outer loop
      vertex 13.6971 25.8 2.30294
      vertex 10.3029 25.8 2.30294
      vertex 9.6 25.8 4
    endloop
  endfacet
  facet normal -0 1 0
    outer loop
      vertex 10.3029 25.8 2.30294
      vertex 13.6971 25.8 2.30294
      vertex 12 25.8 1.6
    endloop
  endfacet
  facet normal 0 1 0
    outer loop
      vertex 21.6971 25.8 29.6971
      vertex 18.3029 25.8 29.6971
      vertex 20 25.8 30.4
    endloop
  endfacet
  facet normal 0 1 0
    outer loop
      vertex 22.4 25.8 28
      vertex 18.3029 25.8 29.6971
      vertex 21.6971 25.8 29.6971
    endloop
  endfacet
  facet normal 0 1 0
    outer loop
      vertex 22.4 25.8 28
      vertex 17.6 25.8 28
      vertex 18.3029 25.8 29.6971
    endloop
  endfacet
  facet normal 0 1 -0
    outer loop
      vertex 21.6971 25.8 26.3029
      vertex 17.6 25.8 28
      vertex 22.4 25.8 28
    endloop
  endfacet
  facet normal 0 1 0
    outer loop
      vertex 21.6971 25.8 26.3029
      vertex 18.3029 25.8 26.3029
      vertex 17.6 25.8 28
    endloop
  endfacet
  facet normal -0 1 0
    outer loop
      vertex 18.3029 25.8 26.3029
      vertex 21.6971 25.8 26.3029
      vertex 20 25.8 25.6
    endloop
  endfacet
  facet normal 0 1 0
    outer loop
      vertex 21.6971 25.8 21.6971
      vertex 18.3029 25.8 21.6971
      vertex 20 25.8 22.4
    endloop
  endfacet
  facet normal 0 1 0
    outer loop
      vertex 22.4 25.8 20
      vertex 18.3029 25.8 21.6971
      vertex 21.6971 25.8 21.6971
    endloop
  endfacet
  facet normal 0 1 0
    outer loop
      vertex 22.4 25.8 20
      vertex 17.6 25.8 20
      vertex 18.3029 25.8 21.6971
    endloop
  endfacet
  facet normal 0 1 -0
    outer loop
      vertex 21.6971 25.8 18.3029
      vertex 17.6 25.8 20
      vertex 22.4 25.8 20
    endloop
  endfacet
  facet normal 0 1 0
    outer loop
      vertex 21.6971 25.8 18.3029
      vertex 18.3029 25.8 18.3029
      vertex 17.6 25.8 20
    endloop
  endfacet
  facet normal -0 1 0
    outer loop
      vertex 18.3029 25.8 18.3029
      vertex 21.6971 25.8 18.3029
      vertex 20 25.8 17.6
    endloop
  endfacet
  facet normal 0 1 0
    outer loop
      vertex 21.6971 25.8 13.6971
      vertex 18.3029 25.8 13.6971
      vertex 20 25.8 14.4
    endloop
  endfacet
  facet normal 0 1 0
    outer loop
      vertex 22.4 25.8 12
      vertex 18.3029 25.8 13.6971
      vertex 21.6971 25.8 13.6971
    endloop
  endfacet
  facet normal 0 1 0
    outer loop
      vertex 22.4 25.8 12
      vertex 17.6 25.8 12
      vertex 18.3029 25.8 13.6971
    endloop
  endfacet
  facet normal 0 1 -0
    outer loop
      vertex 21.6971 25.8 10.3029
      vertex 17.6 25.8 12
      vertex 22.4 25.8 12
    endloop
  endfacet
  facet normal 0 1 0
    outer loop
      vertex 21.6971 25.8 10.3029
      vertex 18.3029 25.8 10.3029
      vertex 17.6 25.8 12
    endloop
  endfacet
  facet normal -0 1 0
    outer loop
      vertex 18.3029 25.8 10.3029
      vertex 21.6971 25.8 10.3029
      vertex 20 25.8 9.6
    endloop
  endfacet
  facet normal 0 1 0
    outer loop
      vertex 21.6971 25.8 5.69706
      vertex 18.3029 25.8 5.69706
      vertex 20 25.8 6.4
    endloop
  endfacet
  facet normal 0 1 0
    outer loop
      vertex 22.4 25.8 4
      vertex 18.3029 25.8 5.69706
      vertex 21.6971 25.8 5.69706
    endloop
  endfacet
  facet normal 0 1 0
    outer loop
      vertex 22.4 25.8 4
      vertex 17.6 25.8 4
      vertex 18.3029 25.8 5.69706
    endloop
  endfacet
  facet normal 0 1 -0
    outer loop
      vertex 21.6971 25.8 2.30294
      vertex 17.6 25.8 4
      vertex 22.4 25.8 4
    endloop
  endfacet
  facet normal 0 1 0
    outer loop
      vertex 21.6971 25.8 2.30294
      vertex 18.3029 25.8 2.30294
      vertex 17.6 25.8 4
    endloop
  endfacet
  facet normal -0 1 0
    outer loop
      vertex 18.3029 25.8 2.30294
      vertex 21.6971 25.8 2.30294
      vertex 20 25.8 1.6
    endloop
  endfacet
  facet normal 0 1 0
    outer loop
      vertex 29.6971 25.8 29.6971
      vertex 26.3029 25.8 29.6971
      vertex 28 25.8 30.4
    endloop
  endfacet
  facet normal 0 1 0
    outer loop
      vertex 30.4 25.8 28
      vertex 26.3029 25.8 29.6971
      vertex 29.6971 25.8 29.6971
    endloop
  endfacet
  facet normal 0 1 0
    outer loop
      vertex 30.4 25.8 28
      vertex 25.6 25.8 28
      vertex 26.3029 25.8 29.6971
    endloop
  endfacet
  facet normal 0 1 -0
    outer loop
      vertex 29.6971 25.8 26.3029
      vertex 25.6 25.8 28
      vertex 30.4 25.8 28
    endloop
  endfacet
  facet normal 0 1 0
    outer loop
      vertex 29.6971 25.8 26.3029
      vertex 26.3029 25.8 26.3029
      vertex 25.6 25.8 28
    endloop
  endfacet
  facet normal -0 1 0
    outer loop
      vertex 26.3029 25.8 26.3029
      vertex 29.6971 25.8 26.3029
      vertex 28 25.8 25.6
    endloop
  endfacet
  facet normal 0 1 0
    outer loop
      vertex 29.6971 25.8 21.6971
      vertex 26.3029 25.8 21.6971
      vertex 28 25.8 22.4
    endloop
  endfacet
  facet normal 0 1 0
    outer loop
      vertex 30.4 25.8 20
      vertex 26.3029 25.8 21.6971
      vertex 29.6971 25.8 21.6971
    endloop
  endfacet
  facet normal 0 1 0
    outer loop
      vertex 30.4 25.8 20
      vertex 25.6 25.8 20
      vertex 26.3029 25.8 21.6971
    endloop
  endfacet
  facet normal 0 1 -0
    outer loop
      vertex 29.6971 25.8 18.3029
      vertex 25.6 25.8 20
      vertex 30.4 25.8 20
    endloop
  endfacet
  facet normal 0 1 0
    outer loop
      vertex 29.6971 25.8 18.3029
      vertex 26.3029 25.8 18.3029
      vertex 25.6 25.8 20
    endloop
  endfacet
  facet normal -0 1 0
    outer loop
      vertex 26.3029 25.8 18.3029
      vertex 29.6971 25.8 18.3029
      vertex 28 25.8 17.6
    endloop
  endfacet
  facet normal 0 1 0
    outer loop
      vertex 29.6971 25.8 13.6971
      vertex 26.3029 25.8 13.6971
      vertex 28 25.8 14.4
    endloop
  endfacet
  facet normal 0 1 0
    outer loop
      vertex 30.4 25.8 12
      vertex 26.3029 25.8 13.6971
      vertex 29.6971 25.8 13.6971
    endloop
  endfacet
  facet normal 0 1 0
    outer loop
      vertex 30.4 25.8 12
      vertex 25.6 25.8 12
      vertex 26.3029 25.8 13.6971
    endloop
  endfacet
  facet normal 0 1 -0
    outer loop
      vertex 29.6971 25.8 10.3029
      vertex 25.6 25.8 12
      vertex 30.4 25.8 12
    endloop
  endfacet
  facet normal 0 1 0
    outer loop
      vertex 29.6971 25.8 10.3029
      vertex 26.3029 25.8 10.3029
      vertex 25.6 25.8 12
    endloop
  endfacet
  facet normal -0 1 0
    outer loop
      vertex 26.3029 25.8 10.3029
      vertex 29.6971 25.8 10.3029
      vertex 28 25.8 9.6
    endloop
  endfacet
  facet normal 0 1 0
    outer loop
      vertex 29.6971 25.8 5.69706
      vertex 26.3029 25.8 5.69706
      vertex 28 25.8 6.4
    endloop
  endfacet
  facet normal 0 1 0
    outer loop
      vertex 30.4 25.8 4
      vertex 26.3029 25.8 5.69706
      vertex 29.6971 25.8 5.69706
    endloop
  endfacet
  facet normal 0 1 0
    outer loop
      vertex 30.4 25.8 4
      vertex 25.6 25.8 4
      vertex 26.3029 25.8 5.69706
    endloop
  endfacet
  facet normal 0 1 -0
    outer loop
      vertex 29.6971 25.8 2.30294
      vertex 25.6 25.8 4
      vertex 30.4 25.8 4
    endloop
  endfacet
  facet normal 0 1 0
    outer loop
      vertex 29.6971 25.8 2.30294
      vertex 26.3029 25.8 2.30294
      vertex 25.6 25.8 4
    endloop
  endfacet
  facet normal -0 1 0
    outer loop
      vertex 26.3029 25.8 2.30294
      vertex 29.6971 25.8 2.30294
      vertex 28 25.8 1.6
    endloop
  endfacet
endsolid OpenSCAD_Model
