solid OpenSCAD_Model
  facet normal -1 0 0
    outer loop
      vertex 0 -4 25
      vertex 0 16 29
      vertex 0 16 25
    endloop
  endfacet
  facet normal -1 -0 0
    outer loop
      vertex 0 16 29
      vertex 0 -4 25
      vertex 0 -4 29
    endloop
  endfacet
  facet normal -0 0 1
    outer loop
      vertex 0 16 29
      vertex 40 -4 29
      vertex 40 16 29
    endloop
  endfacet
  facet normal 0 0 1
    outer loop
      vertex 40 -4 29
      vertex 0 16 29
      vertex 0 -4 29
    endloop
  endfacet
  facet normal 1 -0 0
    outer loop
      vertex 40 -4 29
      vertex 40 16 25
      vertex 40 16 29
    endloop
  endfacet
  facet normal 1 0 0
    outer loop
      vertex 40 16 25
      vertex 40 -4 29
      vertex 40 -4 25
    endloop
  endfacet
  facet normal 0 1 -0
    outer loop
      vertex 40 16 25
      vertex 0 16 29
      vertex 40 16 29
    endloop
  endfacet
  facet normal 0 1 0
    outer loop
      vertex 0 16 29
      vertex 40 16 25
      vertex 0 16 25
    endloop
  endfacet
  facet normal 0 0 -1
    outer loop
      vertex 40 -4 25
      vertex 24 8 25
      vertex 40 16 25
    endloop
  endfacet
  facet normal 0 0 -1
    outer loop
      vertex 40 -4 25
      vertex 23.5418 6.14111 25
      vertex 24 8 25
    endloop
  endfacet
  facet normal 0 0 -1
    outer loop
      vertex 40 -4 25
      vertex 22.2723 4.70806 25
      vertex 23.5418 6.14111 25
    endloop
  endfacet
  facet normal 0 0 -1
    outer loop
      vertex 40 -4 25
      vertex 20.4821 4.02916 25
      vertex 22.2723 4.70806 25
    endloop
  endfacet
  facet normal 0 0 -1
    outer loop
      vertex 0 -4 25
      vertex 20.4821 4.02916 25
      vertex 40 -4 25
    endloop
  endfacet
  facet normal 0 0 -1
    outer loop
      vertex 0 16 25
      vertex 16.1162 7.04274 25
      vertex 0 -4 25
    endloop
  endfacet
  facet normal -0 0 -1
    outer loop
      vertex 17.006 5.34751 25
      vertex 0 -4 25
      vertex 16.1162 7.04274 25
    endloop
  endfacet
  facet normal -0 0 -1
    outer loop
      vertex 18.5816 4.25993 25
      vertex 0 -4 25
      vertex 17.006 5.34751 25
    endloop
  endfacet
  facet normal -0 0 -1
    outer loop
      vertex 20.4821 4.02916 25
      vertex 0 -4 25
      vertex 18.5816 4.25993 25
    endloop
  endfacet
  facet normal 0 0 -1
    outer loop
      vertex 23.5418 9.85889 25
      vertex 40 16 25
      vertex 24 8 25
    endloop
  endfacet
  facet normal 0 0 -1
    outer loop
      vertex 22.2723 11.2919 25
      vertex 40 16 25
      vertex 23.5418 9.85889 25
    endloop
  endfacet
  facet normal 0 0 -1
    outer loop
      vertex 20.4821 11.9708 25
      vertex 40 16 25
      vertex 22.2723 11.2919 25
    endloop
  endfacet
  facet normal 0 0 -1
    outer loop
      vertex 0 16 25
      vertex 20.4821 11.9708 25
      vertex 18.5816 11.7401 25
    endloop
  endfacet
  facet normal 0 0 -1
    outer loop
      vertex 16.1162 7.04274 25
      vertex 0 16 25
      vertex 16.1162 8.95726 25
    endloop
  endfacet
  facet normal 0 0 -1
    outer loop
      vertex 20.4821 11.9708 25
      vertex 0 16 25
      vertex 40 16 25
    endloop
  endfacet
  facet normal 0 0 -1
    outer loop
      vertex 17.006 10.6525 25
      vertex 0 16 25
      vertex 18.5816 11.7401 25
    endloop
  endfacet
  facet normal 0 0 -1
    outer loop
      vertex 16.1162 8.95726 25
      vertex 0 16 25
      vertex 17.006 10.6525 25
    endloop
  endfacet
  facet normal 0 -1 0
    outer loop
      vertex 0 -4 25
      vertex 40 -4 29
      vertex 0 -4 29
    endloop
  endfacet
  facet normal 0 -1 -0
    outer loop
      vertex 40 -4 29
      vertex 0 -4 25
      vertex 40 -4 25
    endloop
  endfacet
  facet normal 0.970942 0.239316 0
    outer loop
      vertex 24 8 25
      vertex 23.5418 9.85889 0
      vertex 23.5418 9.85889 25
    endloop
  endfacet
  facet normal 0.970942 0.239316 0
    outer loop
      vertex 23.5418 9.85889 0
      vertex 24 8 25
      vertex 24 8 0
    endloop
  endfacet
  facet normal -1 0 0
    outer loop
      vertex 16.1162 7.04274 0
      vertex 16.1162 8.95726 25
      vertex 16.1162 8.95726 0
    endloop
  endfacet
  facet normal -1 -0 0
    outer loop
      vertex 16.1162 8.95726 25
      vertex 16.1162 7.04274 0
      vertex 16.1162 7.04274 25
    endloop
  endfacet
  facet normal -0.120536 0.992709 0
    outer loop
      vertex 20.4821 11.9708 0
      vertex 18.5816 11.7401 25
      vertex 20.4821 11.9708 25
    endloop
  endfacet
  facet normal -0.120536 0.992709 0
    outer loop
      vertex 18.5816 11.7401 25
      vertex 20.4821 11.9708 0
      vertex 18.5816 11.7401 0
    endloop
  endfacet
  facet normal 0.748511 0.663123 0
    outer loop
      vertex 23.5418 9.85889 25
      vertex 22.2723 11.2919 0
      vertex 22.2723 11.2919 25
    endloop
  endfacet
  facet normal 0.748511 0.663123 0
    outer loop
      vertex 22.2723 11.2919 0
      vertex 23.5418 9.85889 25
      vertex 23.5418 9.85889 0
    endloop
  endfacet
  facet normal -0.568064 0.822984 0
    outer loop
      vertex 18.5816 11.7401 0
      vertex 17.006 10.6525 25
      vertex 18.5816 11.7401 25
    endloop
  endfacet
  facet normal -0.568064 0.822984 0
    outer loop
      vertex 17.006 10.6525 25
      vertex 18.5816 11.7401 0
      vertex 17.006 10.6525 0
    endloop
  endfacet
  facet normal 0.970942 -0.239315 0
    outer loop
      vertex 23.5418 6.14111 25
      vertex 24 8 0
      vertex 24 8 25
    endloop
  endfacet
  facet normal 0.970942 -0.239315 0
    outer loop
      vertex 24 8 0
      vertex 23.5418 6.14111 25
      vertex 23.5418 6.14111 0
    endloop
  endfacet
  facet normal 0.354605 0.935016 -0
    outer loop
      vertex 22.2723 11.2919 0
      vertex 20.4821 11.9708 25
      vertex 22.2723 11.2919 25
    endloop
  endfacet
  facet normal 0.354605 0.935016 0
    outer loop
      vertex 20.4821 11.9708 25
      vertex 22.2723 11.2919 0
      vertex 20.4821 11.9708 0
    endloop
  endfacet
  facet normal -0.885456 -0.464723 0
    outer loop
      vertex 17.006 5.34751 0
      vertex 16.1162 7.04274 25
      vertex 16.1162 7.04274 0
    endloop
  endfacet
  facet normal -0.885456 -0.464723 0
    outer loop
      vertex 16.1162 7.04274 25
      vertex 17.006 5.34751 0
      vertex 17.006 5.34751 25
    endloop
  endfacet
  facet normal 0.748511 -0.663123 0
    outer loop
      vertex 22.2723 4.70806 25
      vertex 23.5418 6.14111 0
      vertex 23.5418 6.14111 25
    endloop
  endfacet
  facet normal 0.748511 -0.663123 0
    outer loop
      vertex 23.5418 6.14111 0
      vertex 22.2723 4.70806 25
      vertex 22.2723 4.70806 0
    endloop
  endfacet
  facet normal -0.885456 0.464723 0
    outer loop
      vertex 16.1162 8.95726 0
      vertex 17.006 10.6525 25
      vertex 17.006 10.6525 0
    endloop
  endfacet
  facet normal -0.885456 0.464723 0
    outer loop
      vertex 17.006 10.6525 25
      vertex 16.1162 8.95726 0
      vertex 16.1162 8.95726 25
    endloop
  endfacet
  facet normal 0 0 -1
    outer loop
      vertex 23.5418 6.14111 0
      vertex 23.5418 9.85889 0
      vertex 24 8 0
    endloop
  endfacet
  facet normal 0 0 -1
    outer loop
      vertex 22.2723 4.70806 0
      vertex 23.5418 9.85889 0
      vertex 23.5418 6.14111 0
    endloop
  endfacet
  facet normal 0 0 -1
    outer loop
      vertex 22.2723 4.70806 0
      vertex 22.2723 11.2919 0
      vertex 23.5418 9.85889 0
    endloop
  endfacet
  facet normal 0 0 -1
    outer loop
      vertex 20.4821 4.02916 0
      vertex 22.2723 11.2919 0
      vertex 22.2723 4.70806 0
    endloop
  endfacet
  facet normal 0 0 -1
    outer loop
      vertex 20.4821 4.02916 0
      vertex 20.4821 11.9708 0
      vertex 22.2723 11.2919 0
    endloop
  endfacet
  facet normal 0 0 -1
    outer loop
      vertex 18.5816 4.25993 0
      vertex 20.4821 11.9708 0
      vertex 20.4821 4.02916 0
    endloop
  endfacet
  facet normal 0 0 -1
    outer loop
      vertex 18.5816 4.25993 0
      vertex 18.5816 11.7401 0
      vertex 20.4821 11.9708 0
    endloop
  endfacet
  facet normal 0 0 -1
    outer loop
      vertex 17.006 5.34751 0
      vertex 18.5816 11.7401 0
      vertex 18.5816 4.25993 0
    endloop
  endfacet
  facet normal 0 0 -1
    outer loop
      vertex 17.006 5.34751 0
      vertex 17.006 10.6525 0
      vertex 18.5816 11.7401 0
    endloop
  endfacet
  facet normal 0 0 -1
    outer loop
      vertex 16.1162 7.04274 0
      vertex 17.006 10.6525 0
      vertex 17.006 5.34751 0
    endloop
  endfacet
  facet normal 0 0 -1
    outer loop
      vertex 17.006 10.6525 0
      vertex 16.1162 7.04274 0
      vertex 16.1162 8.95726 0
    endloop
  endfacet
  facet normal -0.568064 -0.822984 0
    outer loop
      vertex 17.006 5.34751 0
      vertex 18.5816 4.25993 25
      vertex 17.006 5.34751 25
    endloop
  endfacet
  facet normal -0.568064 -0.822984 -0
    outer loop
      vertex 18.5816 4.25993 25
      vertex 17.006 5.34751 0
      vertex 18.5816 4.25993 0
    endloop
  endfacet
  facet normal 0.354605 -0.935016 0
    outer loop
      vertex 20.4821 4.02916 0
      vertex 22.2723 4.70806 25
      vertex 20.4821 4.02916 25
    endloop
  endfacet
  facet normal 0.354605 -0.935016 0
    outer loop
      vertex 22.2723 4.70806 25
      vertex 20.4821 4.02916 0
      vertex 22.2723 4.70806 0
    endloop
  endfacet
  facet normal -0.120536 -0.992709 0
    outer loop
      vertex 18.5816 4.25993 0
      vertex 20.4821 4.02916 25
      vertex 18.5816 4.25993 25
    endloop
  endfacet
  facet normal -0.120536 -0.992709 -0
    outer loop
      vertex 20.4821 4.02916 25
      vertex 18.5816 4.25993 0
      vertex 20.4821 4.02916 0
    endloop
  endfacet
endsolid OpenSCAD_Model
