solid OpenSCAD_Model
  facet normal -1 0 0
    outer loop
      vertex 0 0 40
      vertex 0 65 46
      vertex 0 65 40
    endloop
  endfacet
  facet normal -1 -0 0
    outer loop
      vertex 0 65 46
      vertex 0 0 40
      vertex 0 0 46
    endloop
  endfacet
  facet normal -0 0 1
    outer loop
      vertex 0 65 46
      vertex 40 0 46
      vertex 40 65 46
    endloop
  endfacet
  facet normal 0 0 1
    outer loop
      vertex 40 0 46
      vertex 0 65 46
      vertex 0 0 46
    endloop
  endfacet
  facet normal 1 -0 0
    outer loop
      vertex 40 0 46
      vertex 40 65 40
      vertex 40 65 46
    endloop
  endfacet
  facet normal 1 0 0
    outer loop
      vertex 40 65 40
      vertex 40 0 46
      vertex 40 0 40
    endloop
  endfacet
  facet normal 0 1 -0
    outer loop
      vertex 40 65 40
      vertex 0 65 46
      vertex 40 65 46
    endloop
  endfacet
  facet normal 0 1 0
    outer loop
      vertex 0 65 46
      vertex 40 65 40
      vertex 0 65 40
    endloop
  endfacet
  facet normal 0 0 -1
    outer loop
      vertex 24.6194 41.4199 40
      vertex 40 65 40
      vertex 24.6194 23.5801 40
    endloop
  endfacet
  facet normal 0 0 -1
    outer loop
      vertex 40 65 40
      vertex 24.6194 41.4199 40
      vertex 25 43.3333 40
    endloop
  endfacet
  facet normal 0 0 -1
    outer loop
      vertex 23.5355 25.2022 40
      vertex 24.6194 41.4199 40
      vertex 24.6194 23.5801 40
    endloop
  endfacet
  facet normal 0 0 -1
    outer loop
      vertex 23.5355 25.2022 40
      vertex 23.5355 39.7978 40
      vertex 24.6194 41.4199 40
    endloop
  endfacet
  facet normal 0 0 -1
    outer loop
      vertex 21.9134 26.2861 40
      vertex 23.5355 39.7978 40
      vertex 23.5355 25.2022 40
    endloop
  endfacet
  facet normal 0 0 -1
    outer loop
      vertex 21.9134 26.2861 40
      vertex 21.9134 38.7139 40
      vertex 23.5355 39.7978 40
    endloop
  endfacet
  facet normal 0 0 -1
    outer loop
      vertex 20 26.6667 40
      vertex 21.9134 38.7139 40
      vertex 21.9134 26.2861 40
    endloop
  endfacet
  facet normal 0 0 -1
    outer loop
      vertex 20 26.6667 40
      vertex 20 38.3333 40
      vertex 21.9134 38.7139 40
    endloop
  endfacet
  facet normal 0 0 -1
    outer loop
      vertex 18.0866 26.2861 40
      vertex 20 38.3333 40
      vertex 20 26.6667 40
    endloop
  endfacet
  facet normal 0 0 -1
    outer loop
      vertex 18.0866 26.2861 40
      vertex 18.0866 38.7139 40
      vertex 20 38.3333 40
    endloop
  endfacet
  facet normal 0 0 -1
    outer loop
      vertex 16.4645 25.2022 40
      vertex 18.0866 38.7139 40
      vertex 18.0866 26.2861 40
    endloop
  endfacet
  facet normal 0 0 -1
    outer loop
      vertex 16.4645 25.2022 40
      vertex 16.4645 39.7978 40
      vertex 18.0866 38.7139 40
    endloop
  endfacet
  facet normal 0 0 -1
    outer loop
      vertex 15.3806 23.5801 40
      vertex 16.4645 39.7978 40
      vertex 16.4645 25.2022 40
    endloop
  endfacet
  facet normal 0 0 -1
    outer loop
      vertex 15.3806 23.5801 40
      vertex 15.3806 41.4199 40
      vertex 16.4645 39.7978 40
    endloop
  endfacet
  facet normal 0 0 -1
    outer loop
      vertex 0 0 40
      vertex 15.3806 23.5801 40
      vertex 15 21.6667 40
    endloop
  endfacet
  facet normal -0 0 -1
    outer loop
      vertex 15.3806 23.5801 40
      vertex 0 0 40
      vertex 15.3806 41.4199 40
    endloop
  endfacet
  facet normal 0 0 -1
    outer loop
      vertex 24.6194 23.5801 40
      vertex 40 0 40
      vertex 25 21.6667 40
    endloop
  endfacet
  facet normal 0 0 -1
    outer loop
      vertex 40 0 40
      vertex 24.6194 19.7533 40
      vertex 25 21.6667 40
    endloop
  endfacet
  facet normal 0 0 -1
    outer loop
      vertex 40 0 40
      vertex 23.5355 18.1311 40
      vertex 24.6194 19.7533 40
    endloop
  endfacet
  facet normal 0 0 -1
    outer loop
      vertex 40 0 40
      vertex 21.9134 17.0473 40
      vertex 23.5355 18.1311 40
    endloop
  endfacet
  facet normal 0 0 -1
    outer loop
      vertex 40 0 40
      vertex 20 16.6667 40
      vertex 21.9134 17.0473 40
    endloop
  endfacet
  facet normal 0 0 -1
    outer loop
      vertex 0 0 40
      vertex 20 16.6667 40
      vertex 40 0 40
    endloop
  endfacet
  facet normal -0 0 -1
    outer loop
      vertex 20 16.6667 40
      vertex 0 0 40
      vertex 18.0866 17.0473 40
    endloop
  endfacet
  facet normal 0 0 -1
    outer loop
      vertex 0 65 40
      vertex 15.3806 41.4199 40
      vertex 0 0 40
    endloop
  endfacet
  facet normal -0 0 -1
    outer loop
      vertex 15.3806 19.7533 40
      vertex 0 0 40
      vertex 15 21.6667 40
    endloop
  endfacet
  facet normal -0 0 -1
    outer loop
      vertex 16.4645 18.1311 40
      vertex 0 0 40
      vertex 15.3806 19.7533 40
    endloop
  endfacet
  facet normal -0 0 -1
    outer loop
      vertex 18.0866 17.0473 40
      vertex 0 0 40
      vertex 16.4645 18.1311 40
    endloop
  endfacet
  facet normal 0 0 -1
    outer loop
      vertex 40 0 40
      vertex 24.6194 23.5801 40
      vertex 40 65 40
    endloop
  endfacet
  facet normal 0 0 -1
    outer loop
      vertex 24.6194 45.2467 40
      vertex 40 65 40
      vertex 25 43.3333 40
    endloop
  endfacet
  facet normal 0 0 -1
    outer loop
      vertex 23.5355 46.8689 40
      vertex 40 65 40
      vertex 24.6194 45.2467 40
    endloop
  endfacet
  facet normal 0 0 -1
    outer loop
      vertex 21.9134 47.9527 40
      vertex 40 65 40
      vertex 23.5355 46.8689 40
    endloop
  endfacet
  facet normal 0 0 -1
    outer loop
      vertex 20 48.3333 40
      vertex 40 65 40
      vertex 21.9134 47.9527 40
    endloop
  endfacet
  facet normal 0 0 -1
    outer loop
      vertex 0 65 40
      vertex 20 48.3333 40
      vertex 18.0866 47.9527 40
    endloop
  endfacet
  facet normal 0 0 -1
    outer loop
      vertex 0 65 40
      vertex 18.0866 47.9527 40
      vertex 16.4645 46.8689 40
    endloop
  endfacet
  facet normal 0 0 -1
    outer loop
      vertex 15.3806 41.4199 40
      vertex 0 65 40
      vertex 15 43.3333 40
    endloop
  endfacet
  facet normal 0 0 -1
    outer loop
      vertex 20 48.3333 40
      vertex 0 65 40
      vertex 40 65 40
    endloop
  endfacet
  facet normal 0 0 -1
    outer loop
      vertex 15.3806 45.2467 40
      vertex 0 65 40
      vertex 16.4645 46.8689 40
    endloop
  endfacet
  facet normal 0 0 -1
    outer loop
      vertex 15 43.3333 40
      vertex 0 65 40
      vertex 15.3806 45.2467 40
    endloop
  endfacet
  facet normal 0 -1 0
    outer loop
      vertex 0 0 40
      vertex 40 0 46
      vertex 0 0 46
    endloop
  endfacet
  facet normal 0 -1 -0
    outer loop
      vertex 40 0 46
      vertex 0 0 40
      vertex 40 0 40
    endloop
  endfacet
  facet normal 0.980785 0.195091 0
    outer loop
      vertex 25 21.6667 40
      vertex 24.6194 23.5801 0
      vertex 24.6194 23.5801 40
    endloop
  endfacet
  facet normal 0.980785 0.195091 0
    outer loop
      vertex 24.6194 23.5801 0
      vertex 25 21.6667 40
      vertex 25 21.6667 0
    endloop
  endfacet
  facet normal -0.980785 -0.19509 0
    outer loop
      vertex 15.3806 19.7533 0
      vertex 15 21.6667 40
      vertex 15 21.6667 0
    endloop
  endfacet
  facet normal -0.980785 -0.19509 0
    outer loop
      vertex 15 21.6667 40
      vertex 15.3806 19.7533 0
      vertex 15.3806 19.7533 40
    endloop
  endfacet
  facet normal -0.19509 0.980785 0
    outer loop
      vertex 20 26.6667 0
      vertex 18.0866 26.2861 40
      vertex 20 26.6667 40
    endloop
  endfacet
  facet normal -0.19509 0.980785 0
    outer loop
      vertex 18.0866 26.2861 40
      vertex 20 26.6667 0
      vertex 18.0866 26.2861 0
    endloop
  endfacet
  facet normal 0.19509 -0.980785 0
    outer loop
      vertex 20 16.6667 0
      vertex 21.9134 17.0473 40
      vertex 20 16.6667 40
    endloop
  endfacet
  facet normal 0.19509 -0.980785 0
    outer loop
      vertex 21.9134 17.0473 40
      vertex 20 16.6667 0
      vertex 21.9134 17.0473 0
    endloop
  endfacet
  facet normal 0.555571 -0.831469 0
    outer loop
      vertex 21.9134 17.0473 0
      vertex 23.5355 18.1311 40
      vertex 21.9134 17.0473 40
    endloop
  endfacet
  facet normal 0.555571 -0.831469 0
    outer loop
      vertex 23.5355 18.1311 40
      vertex 21.9134 17.0473 0
      vertex 23.5355 18.1311 0
    endloop
  endfacet
  facet normal 0.555571 0.831469 -0
    outer loop
      vertex 23.5355 25.2022 0
      vertex 21.9134 26.2861 40
      vertex 23.5355 25.2022 40
    endloop
  endfacet
  facet normal 0.555571 0.831469 0
    outer loop
      vertex 21.9134 26.2861 40
      vertex 23.5355 25.2022 0
      vertex 21.9134 26.2861 0
    endloop
  endfacet
  facet normal 0.83147 0.555569 0
    outer loop
      vertex 24.6194 23.5801 40
      vertex 23.5355 25.2022 0
      vertex 23.5355 25.2022 40
    endloop
  endfacet
  facet normal 0.83147 0.555569 0
    outer loop
      vertex 23.5355 25.2022 0
      vertex 24.6194 23.5801 40
      vertex 24.6194 23.5801 0
    endloop
  endfacet
  facet normal 0.19509 0.980785 -0
    outer loop
      vertex 21.9134 26.2861 0
      vertex 20 26.6667 40
      vertex 21.9134 26.2861 40
    endloop
  endfacet
  facet normal 0.19509 0.980785 0
    outer loop
      vertex 20 26.6667 40
      vertex 21.9134 26.2861 0
      vertex 20 26.6667 0
    endloop
  endfacet
  facet normal -0.83147 0.55557 0
    outer loop
      vertex 15.3806 23.5801 0
      vertex 16.4645 25.2022 40
      vertex 16.4645 25.2022 0
    endloop
  endfacet
  facet normal -0.83147 0.55557 0
    outer loop
      vertex 16.4645 25.2022 40
      vertex 15.3806 23.5801 0
      vertex 15.3806 23.5801 40
    endloop
  endfacet
  facet normal 0 0 -1
    outer loop
      vertex 24.6194 19.7533 0
      vertex 24.6194 23.5801 0
      vertex 25 21.6667 0
    endloop
  endfacet
  facet normal 0 0 -1
    outer loop
      vertex 23.5355 18.1311 0
      vertex 24.6194 23.5801 0
      vertex 24.6194 19.7533 0
    endloop
  endfacet
  facet normal 0 0 -1
    outer loop
      vertex 23.5355 18.1311 0
      vertex 23.5355 25.2022 0
      vertex 24.6194 23.5801 0
    endloop
  endfacet
  facet normal 0 0 -1
    outer loop
      vertex 21.9134 17.0473 0
      vertex 23.5355 25.2022 0
      vertex 23.5355 18.1311 0
    endloop
  endfacet
  facet normal 0 0 -1
    outer loop
      vertex 21.9134 17.0473 0
      vertex 21.9134 26.2861 0
      vertex 23.5355 25.2022 0
    endloop
  endfacet
  facet normal 0 0 -1
    outer loop
      vertex 20 16.6667 0
      vertex 21.9134 26.2861 0
      vertex 21.9134 17.0473 0
    endloop
  endfacet
  facet normal 0 0 -1
    outer loop
      vertex 20 16.6667 0
      vertex 20 26.6667 0
      vertex 21.9134 26.2861 0
    endloop
  endfacet
  facet normal 0 0 -1
    outer loop
      vertex 18.0866 17.0473 0
      vertex 20 26.6667 0
      vertex 20 16.6667 0
    endloop
  endfacet
  facet normal 0 0 -1
    outer loop
      vertex 18.0866 17.0473 0
      vertex 18.0866 26.2861 0
      vertex 20 26.6667 0
    endloop
  endfacet
  facet normal 0 0 -1
    outer loop
      vertex 16.4645 18.1311 0
      vertex 18.0866 26.2861 0
      vertex 18.0866 17.0473 0
    endloop
  endfacet
  facet normal 0 0 -1
    outer loop
      vertex 16.4645 18.1311 0
      vertex 16.4645 25.2022 0
      vertex 18.0866 26.2861 0
    endloop
  endfacet
  facet normal 0 0 -1
    outer loop
      vertex 15.3806 19.7533 0
      vertex 16.4645 25.2022 0
      vertex 16.4645 18.1311 0
    endloop
  endfacet
  facet normal 0 0 -1
    outer loop
      vertex 15.3806 19.7533 0
      vertex 15.3806 23.5801 0
      vertex 16.4645 25.2022 0
    endloop
  endfacet
  facet normal 0 -0 -1
    outer loop
      vertex 15.3806 23.5801 0
      vertex 15.3806 19.7533 0
      vertex 15 21.6667 0
    endloop
  endfacet
  facet normal -0.980785 0.19509 0
    outer loop
      vertex 15 21.6667 0
      vertex 15.3806 23.5801 40
      vertex 15.3806 23.5801 0
    endloop
  endfacet
  facet normal -0.980785 0.19509 0
    outer loop
      vertex 15.3806 23.5801 40
      vertex 15 21.6667 0
      vertex 15 21.6667 40
    endloop
  endfacet
  facet normal -0.555571 0.831469 0
    outer loop
      vertex 18.0866 26.2861 0
      vertex 16.4645 25.2022 40
      vertex 18.0866 26.2861 40
    endloop
  endfacet
  facet normal -0.555571 0.831469 0
    outer loop
      vertex 16.4645 25.2022 40
      vertex 18.0866 26.2861 0
      vertex 16.4645 25.2022 0
    endloop
  endfacet
  facet normal 0.980785 -0.195091 0
    outer loop
      vertex 24.6194 19.7533 40
      vertex 25 21.6667 0
      vertex 25 21.6667 40
    endloop
  endfacet
  facet normal 0.980785 -0.195091 0
    outer loop
      vertex 25 21.6667 0
      vertex 24.6194 19.7533 40
      vertex 24.6194 19.7533 0
    endloop
  endfacet
  facet normal 0.83147 -0.555569 0
    outer loop
      vertex 23.5355 18.1311 40
      vertex 24.6194 19.7533 0
      vertex 24.6194 19.7533 40
    endloop
  endfacet
  facet normal 0.83147 -0.555569 0
    outer loop
      vertex 24.6194 19.7533 0
      vertex 23.5355 18.1311 40
      vertex 23.5355 18.1311 0
    endloop
  endfacet
  facet normal -0.19509 -0.980785 0
    outer loop
      vertex 18.0866 17.0473 0
      vertex 20 16.6667 40
      vertex 18.0866 17.0473 40
    endloop
  endfacet
  facet normal -0.19509 -0.980785 -0
    outer loop
      vertex 20 16.6667 40
      vertex 18.0866 17.0473 0
      vertex 20 16.6667 0
    endloop
  endfacet
  facet normal -0.555571 -0.831469 0
    outer loop
      vertex 16.4645 18.1311 0
      vertex 18.0866 17.0473 40
      vertex 16.4645 18.1311 40
    endloop
  endfacet
  facet normal -0.555571 -0.831469 -0
    outer loop
      vertex 18.0866 17.0473 40
      vertex 16.4645 18.1311 0
      vertex 18.0866 17.0473 0
    endloop
  endfacet
  facet normal -0.83147 -0.55557 0
    outer loop
      vertex 16.4645 18.1311 0
      vertex 15.3806 19.7533 40
      vertex 15.3806 19.7533 0
    endloop
  endfacet
  facet normal -0.83147 -0.55557 0
    outer loop
      vertex 15.3806 19.7533 40
      vertex 16.4645 18.1311 0
      vertex 16.4645 18.1311 40
    endloop
  endfacet
  facet normal 0.980785 0.195091 0
    outer loop
      vertex 25 43.3333 40
      vertex 24.6194 45.2467 0
      vertex 24.6194 45.2467 40
    endloop
  endfacet
  facet normal 0.980785 0.195091 0
    outer loop
      vertex 24.6194 45.2467 0
      vertex 25 43.3333 40
      vertex 25 43.3333 0
    endloop
  endfacet
  facet normal -0.195091 0.980785 0
    outer loop
      vertex 20 48.3333 0
      vertex 18.0866 47.9527 40
      vertex 20 48.3333 40
    endloop
  endfacet
  facet normal -0.195091 0.980785 0
    outer loop
      vertex 18.0866 47.9527 40
      vertex 20 48.3333 0
      vertex 18.0866 47.9527 0
    endloop
  endfacet
  facet normal 0.55557 -0.83147 0
    outer loop
      vertex 21.9134 38.7139 0
      vertex 23.5355 39.7978 40
      vertex 21.9134 38.7139 40
    endloop
  endfacet
  facet normal 0.55557 -0.83147 0
    outer loop
      vertex 23.5355 39.7978 40
      vertex 21.9134 38.7139 0
      vertex 23.5355 39.7978 0
    endloop
  endfacet
  facet normal 0.55557 0.83147 -0
    outer loop
      vertex 23.5355 46.8689 0
      vertex 21.9134 47.9527 40
      vertex 23.5355 46.8689 40
    endloop
  endfacet
  facet normal 0.55557 0.83147 0
    outer loop
      vertex 21.9134 47.9527 40
      vertex 23.5355 46.8689 0
      vertex 21.9134 47.9527 0
    endloop
  endfacet
  facet normal 0.83147 0.55557 0
    outer loop
      vertex 24.6194 45.2467 40
      vertex 23.5355 46.8689 0
      vertex 23.5355 46.8689 40
    endloop
  endfacet
  facet normal 0.83147 0.55557 0
    outer loop
      vertex 23.5355 46.8689 0
      vertex 24.6194 45.2467 40
      vertex 24.6194 45.2467 0
    endloop
  endfacet
  facet normal 0.195091 0.980785 -0
    outer loop
      vertex 21.9134 47.9527 0
      vertex 20 48.3333 40
      vertex 21.9134 47.9527 40
    endloop
  endfacet
  facet normal 0.195091 0.980785 0
    outer loop
      vertex 20 48.3333 40
      vertex 21.9134 47.9527 0
      vertex 20 48.3333 0
    endloop
  endfacet
  facet normal -0.831469 0.555571 0
    outer loop
      vertex 15.3806 45.2467 0
      vertex 16.4645 46.8689 40
      vertex 16.4645 46.8689 0
    endloop
  endfacet
  facet normal -0.831469 0.555571 0
    outer loop
      vertex 16.4645 46.8689 40
      vertex 15.3806 45.2467 0
      vertex 15.3806 45.2467 40
    endloop
  endfacet
  facet normal 0 0 -1
    outer loop
      vertex 24.6194 41.4199 0
      vertex 24.6194 45.2467 0
      vertex 25 43.3333 0
    endloop
  endfacet
  facet normal 0 0 -1
    outer loop
      vertex 23.5355 39.7978 0
      vertex 24.6194 45.2467 0
      vertex 24.6194 41.4199 0
    endloop
  endfacet
  facet normal 0 0 -1
    outer loop
      vertex 23.5355 39.7978 0
      vertex 23.5355 46.8689 0
      vertex 24.6194 45.2467 0
    endloop
  endfacet
  facet normal 0 0 -1
    outer loop
      vertex 21.9134 38.7139 0
      vertex 23.5355 46.8689 0
      vertex 23.5355 39.7978 0
    endloop
  endfacet
  facet normal 0 0 -1
    outer loop
      vertex 21.9134 38.7139 0
      vertex 21.9134 47.9527 0
      vertex 23.5355 46.8689 0
    endloop
  endfacet
  facet normal 0 0 -1
    outer loop
      vertex 20 38.3333 0
      vertex 21.9134 47.9527 0
      vertex 21.9134 38.7139 0
    endloop
  endfacet
  facet normal 0 0 -1
    outer loop
      vertex 20 38.3333 0
      vertex 20 48.3333 0
      vertex 21.9134 47.9527 0
    endloop
  endfacet
  facet normal 0 0 -1
    outer loop
      vertex 18.0866 38.7139 0
      vertex 20 48.3333 0
      vertex 20 38.3333 0
    endloop
  endfacet
  facet normal 0 0 -1
    outer loop
      vertex 18.0866 38.7139 0
      vertex 18.0866 47.9527 0
      vertex 20 48.3333 0
    endloop
  endfacet
  facet normal 0 0 -1
    outer loop
      vertex 16.4645 39.7978 0
      vertex 18.0866 47.9527 0
      vertex 18.0866 38.7139 0
    endloop
  endfacet
  facet normal 0 0 -1
    outer loop
      vertex 16.4645 39.7978 0
      vertex 16.4645 46.8689 0
      vertex 18.0866 47.9527 0
    endloop
  endfacet
  facet normal 0 0 -1
    outer loop
      vertex 15.3806 41.4199 0
      vertex 16.4645 46.8689 0
      vertex 16.4645 39.7978 0
    endloop
  endfacet
  facet normal 0 0 -1
    outer loop
      vertex 15.3806 41.4199 0
      vertex 15.3806 45.2467 0
      vertex 16.4645 46.8689 0
    endloop
  endfacet
  facet normal 0 -0 -1
    outer loop
      vertex 15.3806 45.2467 0
      vertex 15.3806 41.4199 0
      vertex 15 43.3333 0
    endloop
  endfacet
  facet normal -0.980785 0.19509 0
    outer loop
      vertex 15 43.3333 0
      vertex 15.3806 45.2467 40
      vertex 15.3806 45.2467 0
    endloop
  endfacet
  facet normal -0.980785 0.19509 0
    outer loop
      vertex 15.3806 45.2467 40
      vertex 15 43.3333 0
      vertex 15 43.3333 40
    endloop
  endfacet
  facet normal -0.55557 0.83147 0
    outer loop
      vertex 18.0866 47.9527 0
      vertex 16.4645 46.8689 40
      vertex 18.0866 47.9527 40
    endloop
  endfacet
  facet normal -0.55557 0.83147 0
    outer loop
      vertex 16.4645 46.8689 40
      vertex 18.0866 47.9527 0
      vertex 16.4645 46.8689 0
    endloop
  endfacet
  facet normal -0.195091 -0.980785 0
    outer loop
      vertex 18.0866 38.7139 0
      vertex 20 38.3333 40
      vertex 18.0866 38.7139 40
    endloop
  endfacet
  facet normal -0.195091 -0.980785 -0
    outer loop
      vertex 20 38.3333 40
      vertex 18.0866 38.7139 0
      vertex 20 38.3333 0
    endloop
  endfacet
  facet normal -0.831469 -0.555571 0
    outer loop
      vertex 16.4645 39.7978 0
      vertex 15.3806 41.4199 40
      vertex 15.3806 41.4199 0
    endloop
  endfacet
  facet normal -0.831469 -0.555571 0
    outer loop
      vertex 15.3806 41.4199 40
      vertex 16.4645 39.7978 0
      vertex 16.4645 39.7978 40
    endloop
  endfacet
  facet normal -0.980785 -0.19509 0
    outer loop
      vertex 15.3806 41.4199 0
      vertex 15 43.3333 40
      vertex 15 43.3333 0
    endloop
  endfacet
  facet normal -0.980785 -0.19509 0
    outer loop
      vertex 15 43.3333 40
      vertex 15.3806 41.4199 0
      vertex 15.3806 41.4199 40
    endloop
  endfacet
  facet normal 0.83147 -0.55557 0
    outer loop
      vertex 23.5355 39.7978 40
      vertex 24.6194 41.4199 0
      vertex 24.6194 41.4199 40
    endloop
  endfacet
  facet normal 0.83147 -0.55557 0
    outer loop
      vertex 24.6194 41.4199 0
      vertex 23.5355 39.7978 40
      vertex 23.5355 39.7978 0
    endloop
  endfacet
  facet normal 0.980785 -0.195091 0
    outer loop
      vertex 24.6194 41.4199 40
      vertex 25 43.3333 0
      vertex 25 43.3333 40
    endloop
  endfacet
  facet normal 0.980785 -0.195091 0
    outer loop
      vertex 25 43.3333 0
      vertex 24.6194 41.4199 40
      vertex 24.6194 41.4199 0
    endloop
  endfacet
  facet normal 0.195091 -0.980785 0
    outer loop
      vertex 20 38.3333 0
      vertex 21.9134 38.7139 40
      vertex 20 38.3333 40
    endloop
  endfacet
  facet normal 0.195091 -0.980785 0
    outer loop
      vertex 21.9134 38.7139 40
      vertex 20 38.3333 0
      vertex 21.9134 38.7139 0
    endloop
  endfacet
  facet normal -0.55557 -0.83147 0
    outer loop
      vertex 16.4645 39.7978 0
      vertex 18.0866 38.7139 40
      vertex 16.4645 39.7978 40
    endloop
  endfacet
  facet normal -0.55557 -0.83147 -0
    outer loop
      vertex 18.0866 38.7139 40
      vertex 16.4645 39.7978 0
      vertex 18.0866 38.7139 0
    endloop
  endfacet
endsolid OpenSCAD_Model
