solid OpenSCAD_Model
  facet normal -1 0 0
    outer loop
      vertex 6.5 -6.5 6.5
      vertex 6.5 58.5 33.5
      vertex 6.5 58.5 6.5
    endloop
  endfacet
  facet normal -1 -0 0
    outer loop
      vertex 6.5 58.5 33.5
      vertex 6.5 -6.5 6.5
      vertex 6.5 -6.5 33.5
    endloop
  endfacet
  facet normal -0 0 1
    outer loop
      vertex 30.7596 40.0463 33.5
      vertex 31 21.1667 33.5
      vertex 31 42.3333 33.5
    endloop
  endfacet
  facet normal 0 0 1
    outer loop
      vertex 30.7596 40.0463 33.5
      vertex 30.7596 23.4537 33.5
      vertex 31 21.1667 33.5
    endloop
  endfacet
  facet normal -0 0 1
    outer loop
      vertex 30.049 37.8592 33.5
      vertex 30.7596 23.4537 33.5
      vertex 30.7596 40.0463 33.5
    endloop
  endfacet
  facet normal 0 0 1
    outer loop
      vertex 30.049 37.8592 33.5
      vertex 30.049 25.6408 33.5
      vertex 30.7596 23.4537 33.5
    endloop
  endfacet
  facet normal -0 0 1
    outer loop
      vertex 28.8992 35.8677 33.5
      vertex 30.049 25.6408 33.5
      vertex 30.049 37.8592 33.5
    endloop
  endfacet
  facet normal 0 0 1
    outer loop
      vertex 28.8992 35.8677 33.5
      vertex 28.8992 27.6323 33.5
      vertex 30.049 25.6408 33.5
    endloop
  endfacet
  facet normal -0 0 1
    outer loop
      vertex 27.3604 34.1587 33.5
      vertex 28.8992 27.6323 33.5
      vertex 28.8992 35.8677 33.5
    endloop
  endfacet
  facet normal 0 0 1
    outer loop
      vertex 27.3604 34.1587 33.5
      vertex 27.3604 29.3413 33.5
      vertex 28.8992 27.6323 33.5
    endloop
  endfacet
  facet normal -0 0 1
    outer loop
      vertex 25.5 32.8071 33.5
      vertex 27.3604 29.3413 33.5
      vertex 27.3604 34.1587 33.5
    endloop
  endfacet
  facet normal 0 0 1
    outer loop
      vertex 25.5 32.8071 33.5
      vertex 25.5 30.6929 33.5
      vertex 27.3604 29.3413 33.5
    endloop
  endfacet
  facet normal -0 0 1
    outer loop
      vertex 23.3992 31.8717 33.5
      vertex 25.5 30.6929 33.5
      vertex 25.5 32.8071 33.5
    endloop
  endfacet
  facet normal 0 0 1
    outer loop
      vertex 23.3992 31.8717 33.5
      vertex 23.3992 31.6283 33.5
      vertex 25.5 30.6929 33.5
    endloop
  endfacet
  facet normal 0 -0 1
    outer loop
      vertex 23.3992 31.6283 33.5
      vertex 23.3992 31.8717 33.5
      vertex 22.8266 31.75 33.5
    endloop
  endfacet
  facet normal 0 0 1
    outer loop
      vertex 31 21.1667 33.5
      vertex 33.5 58.5 33.5
      vertex 31 42.3333 33.5
    endloop
  endfacet
  facet normal 0 0 1
    outer loop
      vertex 33.5 58.5 33.5
      vertex 30.7596 44.6204 33.5
      vertex 31 42.3333 33.5
    endloop
  endfacet
  facet normal 0 0 1
    outer loop
      vertex 33.5 58.5 33.5
      vertex 30.049 46.8074 33.5
      vertex 30.7596 44.6204 33.5
    endloop
  endfacet
  facet normal 0 0 1
    outer loop
      vertex 33.5 58.5 33.5
      vertex 28.8992 48.799 33.5
      vertex 30.049 46.8074 33.5
    endloop
  endfacet
  facet normal 0 0 1
    outer loop
      vertex 33.5 58.5 33.5
      vertex 27.3604 50.5079 33.5
      vertex 28.8992 48.799 33.5
    endloop
  endfacet
  facet normal 0 0 1
    outer loop
      vertex 33.5 58.5 33.5
      vertex 25.5 51.8596 33.5
      vertex 27.3604 50.5079 33.5
    endloop
  endfacet
  facet normal 0 0 1
    outer loop
      vertex 33.5 58.5 33.5
      vertex 23.3992 52.795 33.5
      vertex 25.5 51.8596 33.5
    endloop
  endfacet
  facet normal 0 0 1
    outer loop
      vertex 33.5 58.5 33.5
      vertex 21.1498 53.2731 33.5
      vertex 23.3992 52.795 33.5
    endloop
  endfacet
  facet normal 0 0 1
    outer loop
      vertex 33.5 58.5 33.5
      vertex 18.8502 53.2731 33.5
      vertex 21.1498 53.2731 33.5
    endloop
  endfacet
  facet normal -0 0 1
    outer loop
      vertex 6.5 58.5 33.5
      vertex 18.8502 53.2731 33.5
      vertex 33.5 58.5 33.5
    endloop
  endfacet
  facet normal 0 0 1
    outer loop
      vertex 9 42.3333 33.5
      vertex 6.5 58.5 33.5
      vertex 9 21.1667 33.5
    endloop
  endfacet
  facet normal 0 0 1
    outer loop
      vertex 9.24038 44.6204 33.5
      vertex 6.5 58.5 33.5
      vertex 9 42.3333 33.5
    endloop
  endfacet
  facet normal 0 0 1
    outer loop
      vertex 9.951 46.8074 33.5
      vertex 6.5 58.5 33.5
      vertex 9.24038 44.6204 33.5
    endloop
  endfacet
  facet normal 0 0 1
    outer loop
      vertex 11.1008 48.799 33.5
      vertex 6.5 58.5 33.5
      vertex 9.951 46.8074 33.5
    endloop
  endfacet
  facet normal 0 0 1
    outer loop
      vertex 12.6396 50.5079 33.5
      vertex 6.5 58.5 33.5
      vertex 11.1008 48.799 33.5
    endloop
  endfacet
  facet normal 0 0 1
    outer loop
      vertex 14.5 51.8596 33.5
      vertex 6.5 58.5 33.5
      vertex 12.6396 50.5079 33.5
    endloop
  endfacet
  facet normal 0 0 1
    outer loop
      vertex 16.6008 52.795 33.5
      vertex 6.5 58.5 33.5
      vertex 14.5 51.8596 33.5
    endloop
  endfacet
  facet normal 0 0 1
    outer loop
      vertex 18.8502 53.2731 33.5
      vertex 6.5 58.5 33.5
      vertex 16.6008 52.795 33.5
    endloop
  endfacet
  facet normal 0 0 1
    outer loop
      vertex 33.5 58.5 33.5
      vertex 31 21.1667 33.5
      vertex 33.5 -6.5 33.5
    endloop
  endfacet
  facet normal -0 0 1
    outer loop
      vertex 30.7596 18.8796 33.5
      vertex 33.5 -6.5 33.5
      vertex 31 21.1667 33.5
    endloop
  endfacet
  facet normal -0 0 1
    outer loop
      vertex 30.049 16.6926 33.5
      vertex 33.5 -6.5 33.5
      vertex 30.7596 18.8796 33.5
    endloop
  endfacet
  facet normal -0 0 1
    outer loop
      vertex 28.8992 14.701 33.5
      vertex 33.5 -6.5 33.5
      vertex 30.049 16.6926 33.5
    endloop
  endfacet
  facet normal -0 0 1
    outer loop
      vertex 27.3604 12.9921 33.5
      vertex 33.5 -6.5 33.5
      vertex 28.8992 14.701 33.5
    endloop
  endfacet
  facet normal -0 0 1
    outer loop
      vertex 25.5 11.6404 33.5
      vertex 33.5 -6.5 33.5
      vertex 27.3604 12.9921 33.5
    endloop
  endfacet
  facet normal -0 0 1
    outer loop
      vertex 23.3992 10.705 33.5
      vertex 33.5 -6.5 33.5
      vertex 25.5 11.6404 33.5
    endloop
  endfacet
  facet normal -0 0 1
    outer loop
      vertex 21.1498 10.2269 33.5
      vertex 33.5 -6.5 33.5
      vertex 23.3992 10.705 33.5
    endloop
  endfacet
  facet normal -0 0 1
    outer loop
      vertex 18.8502 10.2269 33.5
      vertex 33.5 -6.5 33.5
      vertex 21.1498 10.2269 33.5
    endloop
  endfacet
  facet normal 0 0 1
    outer loop
      vertex 6.5 -6.5 33.5
      vertex 18.8502 10.2269 33.5
      vertex 16.6008 10.705 33.5
    endloop
  endfacet
  facet normal 0 0 1
    outer loop
      vertex 6.5 -6.5 33.5
      vertex 16.6008 10.705 33.5
      vertex 14.5 11.6404 33.5
    endloop
  endfacet
  facet normal 0 0 1
    outer loop
      vertex 6.5 -6.5 33.5
      vertex 14.5 11.6404 33.5
      vertex 12.6396 12.9921 33.5
    endloop
  endfacet
  facet normal 0 0 1
    outer loop
      vertex 18.8502 10.2269 33.5
      vertex 6.5 -6.5 33.5
      vertex 33.5 -6.5 33.5
    endloop
  endfacet
  facet normal 0 0 1
    outer loop
      vertex 11.1008 14.701 33.5
      vertex 6.5 -6.5 33.5
      vertex 12.6396 12.9921 33.5
    endloop
  endfacet
  facet normal 0 0 1
    outer loop
      vertex 9.951 16.6926 33.5
      vertex 6.5 -6.5 33.5
      vertex 11.1008 14.701 33.5
    endloop
  endfacet
  facet normal 0 0 1
    outer loop
      vertex 9.24038 18.8796 33.5
      vertex 6.5 -6.5 33.5
      vertex 9.951 16.6926 33.5
    endloop
  endfacet
  facet normal 0 0 1
    outer loop
      vertex 9 21.1667 33.5
      vertex 6.5 -6.5 33.5
      vertex 9.24038 18.8796 33.5
    endloop
  endfacet
  facet normal 0 0 1
    outer loop
      vertex 6.5 -6.5 33.5
      vertex 9 21.1667 33.5
      vertex 6.5 58.5 33.5
    endloop
  endfacet
  facet normal 0 0 1
    outer loop
      vertex 16.6008 31.8717 33.5
      vertex 16.6008 31.6283 33.5
      vertex 17.1734 31.75 33.5
    endloop
  endfacet
  facet normal 0 0 1
    outer loop
      vertex 16.6008 31.8717 33.5
      vertex 14.5 30.6929 33.5
      vertex 16.6008 31.6283 33.5
    endloop
  endfacet
  facet normal 0 0 1
    outer loop
      vertex 14.5 32.8071 33.5
      vertex 14.5 30.6929 33.5
      vertex 16.6008 31.8717 33.5
    endloop
  endfacet
  facet normal 0 0 1
    outer loop
      vertex 12.6396 34.1587 33.5
      vertex 14.5 30.6929 33.5
      vertex 14.5 32.8071 33.5
    endloop
  endfacet
  facet normal 0 0 1
    outer loop
      vertex 12.6396 34.1587 33.5
      vertex 12.6396 29.3413 33.5
      vertex 14.5 30.6929 33.5
    endloop
  endfacet
  facet normal 0 0 1
    outer loop
      vertex 11.1008 35.8677 33.5
      vertex 12.6396 29.3413 33.5
      vertex 12.6396 34.1587 33.5
    endloop
  endfacet
  facet normal 0 0 1
    outer loop
      vertex 11.1008 35.8677 33.5
      vertex 11.1008 27.6323 33.5
      vertex 12.6396 29.3413 33.5
    endloop
  endfacet
  facet normal 0 0 1
    outer loop
      vertex 9.951 37.8592 33.5
      vertex 11.1008 27.6323 33.5
      vertex 11.1008 35.8677 33.5
    endloop
  endfacet
  facet normal 0 0 1
    outer loop
      vertex 9.951 37.8592 33.5
      vertex 9.951 25.6408 33.5
      vertex 11.1008 27.6323 33.5
    endloop
  endfacet
  facet normal 0 0 1
    outer loop
      vertex 9.24038 40.0463 33.5
      vertex 9.951 25.6408 33.5
      vertex 9.951 37.8592 33.5
    endloop
  endfacet
  facet normal 0 0 1
    outer loop
      vertex 9.24038 40.0463 33.5
      vertex 9.24038 23.4537 33.5
      vertex 9.951 25.6408 33.5
    endloop
  endfacet
  facet normal 0 0 1
    outer loop
      vertex 9 42.3333 33.5
      vertex 9.24038 23.4537 33.5
      vertex 9.24038 40.0463 33.5
    endloop
  endfacet
  facet normal 0 0 1
    outer loop
      vertex 9.24038 23.4537 33.5
      vertex 9 42.3333 33.5
      vertex 9 21.1667 33.5
    endloop
  endfacet
  facet normal 1 -0 0
    outer loop
      vertex 33.5 -6.5 33.5
      vertex 33.5 58.5 6.5
      vertex 33.5 58.5 33.5
    endloop
  endfacet
  facet normal 1 0 0
    outer loop
      vertex 33.5 58.5 6.5
      vertex 33.5 -6.5 33.5
      vertex 33.5 -6.5 6.5
    endloop
  endfacet
  facet normal 0 1 -0
    outer loop
      vertex 33.5 58.5 6.5
      vertex 6.5 58.5 33.5
      vertex 33.5 58.5 33.5
    endloop
  endfacet
  facet normal 0 1 0
    outer loop
      vertex 6.5 58.5 33.5
      vertex 33.5 58.5 6.5
      vertex 6.5 58.5 6.5
    endloop
  endfacet
  facet normal 0 0 -1
    outer loop
      vertex 30.7596 23.4537 6.5
      vertex 31 42.3333 6.5
      vertex 31 21.1667 6.5
    endloop
  endfacet
  facet normal 0 0 -1
    outer loop
      vertex 30.7596 23.4537 6.5
      vertex 30.7596 40.0463 6.5
      vertex 31 42.3333 6.5
    endloop
  endfacet
  facet normal 0 0 -1
    outer loop
      vertex 30.049 25.6408 6.5
      vertex 30.7596 40.0463 6.5
      vertex 30.7596 23.4537 6.5
    endloop
  endfacet
  facet normal 0 0 -1
    outer loop
      vertex 30.049 25.6408 6.5
      vertex 30.049 37.8592 6.5
      vertex 30.7596 40.0463 6.5
    endloop
  endfacet
  facet normal 0 0 -1
    outer loop
      vertex 28.8992 27.6323 6.5
      vertex 30.049 37.8592 6.5
      vertex 30.049 25.6408 6.5
    endloop
  endfacet
  facet normal 0 0 -1
    outer loop
      vertex 28.8992 27.6323 6.5
      vertex 28.8992 35.8677 6.5
      vertex 30.049 37.8592 6.5
    endloop
  endfacet
  facet normal 0 0 -1
    outer loop
      vertex 27.3604 29.3413 6.5
      vertex 28.8992 35.8677 6.5
      vertex 28.8992 27.6323 6.5
    endloop
  endfacet
  facet normal 0 0 -1
    outer loop
      vertex 27.3604 29.3413 6.5
      vertex 27.3604 34.1587 6.5
      vertex 28.8992 35.8677 6.5
    endloop
  endfacet
  facet normal 0 0 -1
    outer loop
      vertex 25.5 30.6929 6.5
      vertex 27.3604 34.1587 6.5
      vertex 27.3604 29.3413 6.5
    endloop
  endfacet
  facet normal 0 0 -1
    outer loop
      vertex 25.5 30.6929 6.5
      vertex 25.5 32.8071 6.5
      vertex 27.3604 34.1587 6.5
    endloop
  endfacet
  facet normal 0 0 -1
    outer loop
      vertex 23.3992 31.6283 6.5
      vertex 25.5 32.8071 6.5
      vertex 25.5 30.6929 6.5
    endloop
  endfacet
  facet normal 0 0 -1
    outer loop
      vertex 23.3992 31.6283 6.5
      vertex 23.3992 31.8717 6.5
      vertex 25.5 32.8071 6.5
    endloop
  endfacet
  facet normal 0 -0 -1
    outer loop
      vertex 23.3992 31.8717 6.5
      vertex 23.3992 31.6283 6.5
      vertex 22.8266 31.75 6.5
    endloop
  endfacet
  facet normal 0 0 -1
    outer loop
      vertex 33.5 -6.5 6.5
      vertex 31 21.1667 6.5
      vertex 33.5 58.5 6.5
    endloop
  endfacet
  facet normal 0 0 -1
    outer loop
      vertex 33.5 -6.5 6.5
      vertex 30.7596 18.8796 6.5
      vertex 31 21.1667 6.5
    endloop
  endfacet
  facet normal 0 0 -1
    outer loop
      vertex 33.5 -6.5 6.5
      vertex 30.049 16.6926 6.5
      vertex 30.7596 18.8796 6.5
    endloop
  endfacet
  facet normal 0 0 -1
    outer loop
      vertex 33.5 -6.5 6.5
      vertex 28.8992 14.701 6.5
      vertex 30.049 16.6926 6.5
    endloop
  endfacet
  facet normal 0 0 -1
    outer loop
      vertex 33.5 -6.5 6.5
      vertex 27.3604 12.9921 6.5
      vertex 28.8992 14.701 6.5
    endloop
  endfacet
  facet normal 0 0 -1
    outer loop
      vertex 33.5 -6.5 6.5
      vertex 25.5 11.6404 6.5
      vertex 27.3604 12.9921 6.5
    endloop
  endfacet
  facet normal 0 0 -1
    outer loop
      vertex 33.5 -6.5 6.5
      vertex 23.3992 10.705 6.5
      vertex 25.5 11.6404 6.5
    endloop
  endfacet
  facet normal 0 0 -1
    outer loop
      vertex 33.5 -6.5 6.5
      vertex 21.1498 10.2269 6.5
      vertex 23.3992 10.705 6.5
    endloop
  endfacet
  facet normal 0 0 -1
    outer loop
      vertex 33.5 -6.5 6.5
      vertex 18.8502 10.2269 6.5
      vertex 21.1498 10.2269 6.5
    endloop
  endfacet
  facet normal 0 0 -1
    outer loop
      vertex 6.5 -6.5 6.5
      vertex 18.8502 10.2269 6.5
      vertex 33.5 -6.5 6.5
    endloop
  endfacet
  facet normal -0 0 -1
    outer loop
      vertex 18.8502 10.2269 6.5
      vertex 6.5 -6.5 6.5
      vertex 16.6008 10.705 6.5
    endloop
  endfacet
  facet normal -0 0 -1
    outer loop
      vertex 16.6008 10.705 6.5
      vertex 6.5 -6.5 6.5
      vertex 14.5 11.6404 6.5
    endloop
  endfacet
  facet normal 0 0 -1
    outer loop
      vertex 6.5 58.5 6.5
      vertex 9 21.1667 6.5
      vertex 6.5 -6.5 6.5
    endloop
  endfacet
  facet normal -0 0 -1
    outer loop
      vertex 9.24038 18.8796 6.5
      vertex 6.5 -6.5 6.5
      vertex 9 21.1667 6.5
    endloop
  endfacet
  facet normal -0 0 -1
    outer loop
      vertex 9.951 16.6926 6.5
      vertex 6.5 -6.5 6.5
      vertex 9.24038 18.8796 6.5
    endloop
  endfacet
  facet normal -0 0 -1
    outer loop
      vertex 11.1008 14.701 6.5
      vertex 6.5 -6.5 6.5
      vertex 9.951 16.6926 6.5
    endloop
  endfacet
  facet normal -0 0 -1
    outer loop
      vertex 12.6396 12.9921 6.5
      vertex 6.5 -6.5 6.5
      vertex 11.1008 14.701 6.5
    endloop
  endfacet
  facet normal -0 0 -1
    outer loop
      vertex 14.5 11.6404 6.5
      vertex 6.5 -6.5 6.5
      vertex 12.6396 12.9921 6.5
    endloop
  endfacet
  facet normal 0 0 -1
    outer loop
      vertex 31 42.3333 6.5
      vertex 33.5 58.5 6.5
      vertex 31 21.1667 6.5
    endloop
  endfacet
  facet normal 0 0 -1
    outer loop
      vertex 30.7596 44.6204 6.5
      vertex 33.5 58.5 6.5
      vertex 31 42.3333 6.5
    endloop
  endfacet
  facet normal 0 0 -1
    outer loop
      vertex 30.049 46.8074 6.5
      vertex 33.5 58.5 6.5
      vertex 30.7596 44.6204 6.5
    endloop
  endfacet
  facet normal 0 0 -1
    outer loop
      vertex 28.8992 48.799 6.5
      vertex 33.5 58.5 6.5
      vertex 30.049 46.8074 6.5
    endloop
  endfacet
  facet normal 0 0 -1
    outer loop
      vertex 27.3604 50.5079 6.5
      vertex 33.5 58.5 6.5
      vertex 28.8992 48.799 6.5
    endloop
  endfacet
  facet normal 0 0 -1
    outer loop
      vertex 25.5 51.8596 6.5
      vertex 33.5 58.5 6.5
      vertex 27.3604 50.5079 6.5
    endloop
  endfacet
  facet normal 0 0 -1
    outer loop
      vertex 23.3992 52.795 6.5
      vertex 33.5 58.5 6.5
      vertex 25.5 51.8596 6.5
    endloop
  endfacet
  facet normal 0 0 -1
    outer loop
      vertex 21.1498 53.2731 6.5
      vertex 33.5 58.5 6.5
      vertex 23.3992 52.795 6.5
    endloop
  endfacet
  facet normal 0 0 -1
    outer loop
      vertex 18.8502 53.2731 6.5
      vertex 33.5 58.5 6.5
      vertex 21.1498 53.2731 6.5
    endloop
  endfacet
  facet normal 0 0 -1
    outer loop
      vertex 6.5 58.5 6.5
      vertex 18.8502 53.2731 6.5
      vertex 16.6008 52.795 6.5
    endloop
  endfacet
  facet normal 0 0 -1
    outer loop
      vertex 18.8502 53.2731 6.5
      vertex 6.5 58.5 6.5
      vertex 33.5 58.5 6.5
    endloop
  endfacet
  facet normal 0 0 -1
    outer loop
      vertex 14.5 51.8596 6.5
      vertex 6.5 58.5 6.5
      vertex 16.6008 52.795 6.5
    endloop
  endfacet
  facet normal 0 0 -1
    outer loop
      vertex 12.6396 50.5079 6.5
      vertex 6.5 58.5 6.5
      vertex 14.5 51.8596 6.5
    endloop
  endfacet
  facet normal 0 0 -1
    outer loop
      vertex 11.1008 48.799 6.5
      vertex 6.5 58.5 6.5
      vertex 12.6396 50.5079 6.5
    endloop
  endfacet
  facet normal 0 0 -1
    outer loop
      vertex 9.951 46.8074 6.5
      vertex 6.5 58.5 6.5
      vertex 11.1008 48.799 6.5
    endloop
  endfacet
  facet normal 0 0 -1
    outer loop
      vertex 9.24038 44.6204 6.5
      vertex 6.5 58.5 6.5
      vertex 9.951 46.8074 6.5
    endloop
  endfacet
  facet normal 0 0 -1
    outer loop
      vertex 9 42.3333 6.5
      vertex 6.5 58.5 6.5
      vertex 9.24038 44.6204 6.5
    endloop
  endfacet
  facet normal 0 0 -1
    outer loop
      vertex 9 21.1667 6.5
      vertex 6.5 58.5 6.5
      vertex 9 42.3333 6.5
    endloop
  endfacet
  facet normal 0 0 -1
    outer loop
      vertex 16.6008 31.6283 6.5
      vertex 16.6008 31.8717 6.5
      vertex 17.1734 31.75 6.5
    endloop
  endfacet
  facet normal 0 0 -1
    outer loop
      vertex 14.5 30.6929 6.5
      vertex 16.6008 31.8717 6.5
      vertex 16.6008 31.6283 6.5
    endloop
  endfacet
  facet normal 0 0 -1
    outer loop
      vertex 14.5 30.6929 6.5
      vertex 14.5 32.8071 6.5
      vertex 16.6008 31.8717 6.5
    endloop
  endfacet
  facet normal 0 0 -1
    outer loop
      vertex 12.6396 29.3413 6.5
      vertex 14.5 32.8071 6.5
      vertex 14.5 30.6929 6.5
    endloop
  endfacet
  facet normal 0 0 -1
    outer loop
      vertex 12.6396 29.3413 6.5
      vertex 12.6396 34.1587 6.5
      vertex 14.5 32.8071 6.5
    endloop
  endfacet
  facet normal 0 0 -1
    outer loop
      vertex 11.1008 27.6323 6.5
      vertex 12.6396 34.1587 6.5
      vertex 12.6396 29.3413 6.5
    endloop
  endfacet
  facet normal 0 0 -1
    outer loop
      vertex 11.1008 27.6323 6.5
      vertex 11.1008 35.8677 6.5
      vertex 12.6396 34.1587 6.5
    endloop
  endfacet
  facet normal 0 0 -1
    outer loop
      vertex 9.951 25.6408 6.5
      vertex 11.1008 35.8677 6.5
      vertex 11.1008 27.6323 6.5
    endloop
  endfacet
  facet normal 0 0 -1
    outer loop
      vertex 9.951 25.6408 6.5
      vertex 9.951 37.8592 6.5
      vertex 11.1008 35.8677 6.5
    endloop
  endfacet
  facet normal 0 0 -1
    outer loop
      vertex 9.24038 23.4537 6.5
      vertex 9.951 37.8592 6.5
      vertex 9.951 25.6408 6.5
    endloop
  endfacet
  facet normal 0 0 -1
    outer loop
      vertex 9.24038 23.4537 6.5
      vertex 9.24038 40.0463 6.5
      vertex 9.951 37.8592 6.5
    endloop
  endfacet
  facet normal 0 0 -1
    outer loop
      vertex 9 21.1667 6.5
      vertex 9.24038 40.0463 6.5
      vertex 9.24038 23.4537 6.5
    endloop
  endfacet
  facet normal -0 0 -1
    outer loop
      vertex 9.24038 40.0463 6.5
      vertex 9 21.1667 6.5
      vertex 9 42.3333 6.5
    endloop
  endfacet
  facet normal 0 -1 0
    outer loop
      vertex 26.3029 -6.5 13.6971
      vertex 26.3029 -6.5 18.3029
      vertex 21.6971 -6.5 13.6971
    endloop
  endfacet
  facet normal 0 -1 0
    outer loop
      vertex 26.3029 -6.5 18.3029
      vertex 26.3029 -6.5 13.6971
      vertex 28 -6.5 14.4
    endloop
  endfacet
  facet normal 0 -1 0
    outer loop
      vertex 22.4 -6.5 12
      vertex 26.3029 -6.5 13.6971
      vertex 21.6971 -6.5 13.6971
    endloop
  endfacet
  facet normal 0 -1 0
    outer loop
      vertex 22.4 -6.5 12
      vertex 25.6 -6.5 12
      vertex 26.3029 -6.5 13.6971
    endloop
  endfacet
  facet normal 0 -1 0
    outer loop
      vertex 21.6971 -6.5 10.3029
      vertex 25.6 -6.5 12
      vertex 22.4 -6.5 12
    endloop
  endfacet
  facet normal 0 -1 0
    outer loop
      vertex 21.6971 -6.5 10.3029
      vertex 26.3029 -6.5 10.3029
      vertex 25.6 -6.5 12
    endloop
  endfacet
  facet normal 0 -1 0
    outer loop
      vertex 20 -6.5 9.6
      vertex 26.3029 -6.5 10.3029
      vertex 21.6971 -6.5 10.3029
    endloop
  endfacet
  facet normal 0 -1 -0
    outer loop
      vertex 26.3029 -6.5 10.3029
      vertex 20 -6.5 9.6
      vertex 28 -6.5 9.6
    endloop
  endfacet
  facet normal 0 -1 0
    outer loop
      vertex 18.3029 -6.5 13.6971
      vertex 18.3029 -6.5 18.3029
      vertex 13.6971 -6.5 13.6971
    endloop
  endfacet
  facet normal 0 -1 0
    outer loop
      vertex 18.3029 -6.5 18.3029
      vertex 18.3029 -6.5 13.6971
      vertex 20 -6.5 14.4
    endloop
  endfacet
  facet normal 0 -1 0
    outer loop
      vertex 14.4 -6.5 12
      vertex 18.3029 -6.5 13.6971
      vertex 13.6971 -6.5 13.6971
    endloop
  endfacet
  facet normal 0 -1 0
    outer loop
      vertex 14.4 -6.5 12
      vertex 17.6 -6.5 12
      vertex 18.3029 -6.5 13.6971
    endloop
  endfacet
  facet normal 0 -1 0
    outer loop
      vertex 13.6971 -6.5 10.3029
      vertex 17.6 -6.5 12
      vertex 14.4 -6.5 12
    endloop
  endfacet
  facet normal 0 -1 0
    outer loop
      vertex 13.6971 -6.5 10.3029
      vertex 18.3029 -6.5 10.3029
      vertex 17.6 -6.5 12
    endloop
  endfacet
  facet normal 0 -1 0
    outer loop
      vertex 12 -6.5 9.6
      vertex 18.3029 -6.5 10.3029
      vertex 13.6971 -6.5 10.3029
    endloop
  endfacet
  facet normal 0 -1 -0
    outer loop
      vertex 18.3029 -6.5 10.3029
      vertex 12 -6.5 9.6
      vertex 20 -6.5 9.6
    endloop
  endfacet
  facet normal 0 -1 0
    outer loop
      vertex 26.3029 -6.5 21.6971
      vertex 26.3029 -6.5 26.3029
      vertex 21.6971 -6.5 21.6971
    endloop
  endfacet
  facet normal 0 -1 0
    outer loop
      vertex 26.3029 -6.5 26.3029
      vertex 26.3029 -6.5 21.6971
      vertex 28 -6.5 22.4
    endloop
  endfacet
  facet normal 0 -1 0
    outer loop
      vertex 22.4 -6.5 20
      vertex 26.3029 -6.5 21.6971
      vertex 21.6971 -6.5 21.6971
    endloop
  endfacet
  facet normal 0 -1 0
    outer loop
      vertex 22.4 -6.5 20
      vertex 25.6 -6.5 20
      vertex 26.3029 -6.5 21.6971
    endloop
  endfacet
  facet normal 0 -1 0
    outer loop
      vertex 21.6971 -6.5 18.3029
      vertex 25.6 -6.5 20
      vertex 22.4 -6.5 20
    endloop
  endfacet
  facet normal 0 -1 0
    outer loop
      vertex 21.6971 -6.5 18.3029
      vertex 26.3029 -6.5 18.3029
      vertex 25.6 -6.5 20
    endloop
  endfacet
  facet normal 0 -1 0
    outer loop
      vertex 20 -6.5 14.4
      vertex 21.6971 -6.5 18.3029
      vertex 20 -6.5 17.6
    endloop
  endfacet
  facet normal 0 -1 0
    outer loop
      vertex 21.6971 -6.5 13.6971
      vertex 21.6971 -6.5 18.3029
      vertex 20 -6.5 14.4
    endloop
  endfacet
  facet normal 0 -1 0
    outer loop
      vertex 18.3029 -6.5 21.6971
      vertex 18.3029 -6.5 26.3029
      vertex 13.6971 -6.5 21.6971
    endloop
  endfacet
  facet normal 0 -1 0
    outer loop
      vertex 18.3029 -6.5 26.3029
      vertex 18.3029 -6.5 21.6971
      vertex 20 -6.5 22.4
    endloop
  endfacet
  facet normal 0 -1 0
    outer loop
      vertex 14.4 -6.5 20
      vertex 18.3029 -6.5 21.6971
      vertex 13.6971 -6.5 21.6971
    endloop
  endfacet
  facet normal 0 -1 0
    outer loop
      vertex 14.4 -6.5 20
      vertex 17.6 -6.5 20
      vertex 18.3029 -6.5 21.6971
    endloop
  endfacet
  facet normal 0 -1 0
    outer loop
      vertex 13.6971 -6.5 18.3029
      vertex 17.6 -6.5 20
      vertex 14.4 -6.5 20
    endloop
  endfacet
  facet normal 0 -1 0
    outer loop
      vertex 13.6971 -6.5 18.3029
      vertex 18.3029 -6.5 18.3029
      vertex 17.6 -6.5 20
    endloop
  endfacet
  facet normal 0 -1 0
    outer loop
      vertex 12 -6.5 14.4
      vertex 13.6971 -6.5 18.3029
      vertex 12 -6.5 17.6
    endloop
  endfacet
  facet normal 0 -1 0
    outer loop
      vertex 13.6971 -6.5 13.6971
      vertex 13.6971 -6.5 18.3029
      vertex 12 -6.5 14.4
    endloop
  endfacet
  facet normal 0 -1 0
    outer loop
      vertex 21.6971 -6.5 29.6971
      vertex 28 -6.5 30.4
      vertex 20 -6.5 30.4
    endloop
  endfacet
  facet normal 0 -1 0
    outer loop
      vertex 21.6971 -6.5 29.6971
      vertex 26.3029 -6.5 29.6971
      vertex 28 -6.5 30.4
    endloop
  endfacet
  facet normal 0 -1 0
    outer loop
      vertex 22.4 -6.5 28
      vertex 26.3029 -6.5 29.6971
      vertex 21.6971 -6.5 29.6971
    endloop
  endfacet
  facet normal 0 -1 0
    outer loop
      vertex 22.4 -6.5 28
      vertex 25.6 -6.5 28
      vertex 26.3029 -6.5 29.6971
    endloop
  endfacet
  facet normal 0 -1 0
    outer loop
      vertex 21.6971 -6.5 26.3029
      vertex 25.6 -6.5 28
      vertex 22.4 -6.5 28
    endloop
  endfacet
  facet normal 0 -1 0
    outer loop
      vertex 21.6971 -6.5 26.3029
      vertex 26.3029 -6.5 26.3029
      vertex 25.6 -6.5 28
    endloop
  endfacet
  facet normal 0 -1 0
    outer loop
      vertex 20 -6.5 22.4
      vertex 21.6971 -6.5 26.3029
      vertex 20 -6.5 25.6
    endloop
  endfacet
  facet normal 0 -1 0
    outer loop
      vertex 21.6971 -6.5 21.6971
      vertex 21.6971 -6.5 26.3029
      vertex 20 -6.5 22.4
    endloop
  endfacet
  facet normal 0 -1 0
    outer loop
      vertex 13.6971 -6.5 29.6971
      vertex 20 -6.5 30.4
      vertex 12 -6.5 30.4
    endloop
  endfacet
  facet normal 0 -1 0
    outer loop
      vertex 13.6971 -6.5 29.6971
      vertex 18.3029 -6.5 29.6971
      vertex 20 -6.5 30.4
    endloop
  endfacet
  facet normal 0 -1 0
    outer loop
      vertex 14.4 -6.5 28
      vertex 18.3029 -6.5 29.6971
      vertex 13.6971 -6.5 29.6971
    endloop
  endfacet
  facet normal 0 -1 0
    outer loop
      vertex 14.4 -6.5 28
      vertex 17.6 -6.5 28
      vertex 18.3029 -6.5 29.6971
    endloop
  endfacet
  facet normal 0 -1 0
    outer loop
      vertex 13.6971 -6.5 26.3029
      vertex 17.6 -6.5 28
      vertex 14.4 -6.5 28
    endloop
  endfacet
  facet normal 0 -1 0
    outer loop
      vertex 13.6971 -6.5 26.3029
      vertex 18.3029 -6.5 26.3029
      vertex 17.6 -6.5 28
    endloop
  endfacet
  facet normal 0 -1 0
    outer loop
      vertex 12 -6.5 22.4
      vertex 13.6971 -6.5 26.3029
      vertex 12 -6.5 25.6
    endloop
  endfacet
  facet normal 0 -1 0
    outer loop
      vertex 13.6971 -6.5 21.6971
      vertex 13.6971 -6.5 26.3029
      vertex 12 -6.5 22.4
    endloop
  endfacet
  facet normal 0 -1 0
    outer loop
      vertex 20 -6.5 30.4
      vertex 6.5 -6.5 33.5
      vertex 12 -6.5 30.4
    endloop
  endfacet
  facet normal 0 -1 0
    outer loop
      vertex 6.5 -6.5 33.5
      vertex 10.3029 -6.5 29.6971
      vertex 12 -6.5 30.4
    endloop
  endfacet
  facet normal 0 -1 0
    outer loop
      vertex 6.5 -6.5 33.5
      vertex 9.6 -6.5 28
      vertex 10.3029 -6.5 29.6971
    endloop
  endfacet
  facet normal 0 -1 0
    outer loop
      vertex 9.6 -6.5 20
      vertex 9.6 -6.5 28
      vertex 6.5 -6.5 33.5
    endloop
  endfacet
  facet normal 0 -1 0
    outer loop
      vertex 18.3029 -6.5 26.3029
      vertex 20 -6.5 22.4
      vertex 20 -6.5 25.6
    endloop
  endfacet
  facet normal 0 -1 0
    outer loop
      vertex 13.6971 -6.5 26.3029
      vertex 13.6971 -6.5 21.6971
      vertex 18.3029 -6.5 26.3029
    endloop
  endfacet
  facet normal 0 -1 0
    outer loop
      vertex 10.3029 -6.5 26.3029
      vertex 12 -6.5 22.4
      vertex 12 -6.5 25.6
    endloop
  endfacet
  facet normal 0 -1 0
    outer loop
      vertex 9.6 -6.5 28
      vertex 9.6 -6.5 20
      vertex 10.3029 -6.5 26.3029
    endloop
  endfacet
  facet normal 0 -1 0
    outer loop
      vertex 10.3029 -6.5 26.3029
      vertex 10.3029 -6.5 21.6971
      vertex 12 -6.5 22.4
    endloop
  endfacet
  facet normal 0 -1 -0
    outer loop
      vertex 10.3029 -6.5 26.3029
      vertex 9.6 -6.5 20
      vertex 10.3029 -6.5 21.6971
    endloop
  endfacet
  facet normal 0 -1 0
    outer loop
      vertex 18.3029 -6.5 18.3029
      vertex 20 -6.5 14.4
      vertex 20 -6.5 17.6
    endloop
  endfacet
  facet normal 0 -1 0
    outer loop
      vertex 13.6971 -6.5 18.3029
      vertex 13.6971 -6.5 13.6971
      vertex 18.3029 -6.5 18.3029
    endloop
  endfacet
  facet normal 0 -1 0
    outer loop
      vertex 10.3029 -6.5 18.3029
      vertex 12 -6.5 14.4
      vertex 12 -6.5 17.6
    endloop
  endfacet
  facet normal 0 -1 0
    outer loop
      vertex 10.3029 -6.5 18.3029
      vertex 10.3029 -6.5 13.6971
      vertex 12 -6.5 14.4
    endloop
  endfacet
  facet normal 0 -1 0
    outer loop
      vertex 9.6 -6.5 20
      vertex 10.3029 -6.5 13.6971
      vertex 10.3029 -6.5 18.3029
    endloop
  endfacet
  facet normal 0 -1 0
    outer loop
      vertex 6.5 -6.5 6.5
      vertex 9.6 -6.5 20
      vertex 6.5 -6.5 33.5
    endloop
  endfacet
  facet normal 0 -1 0
    outer loop
      vertex 9.6 -6.5 20
      vertex 9.6 -6.5 12
      vertex 10.3029 -6.5 13.6971
    endloop
  endfacet
  facet normal 0 -1 0
    outer loop
      vertex 6.5 -6.5 6.5
      vertex 20 -6.5 9.6
      vertex 12 -6.5 9.6
    endloop
  endfacet
  facet normal 0 -1 0
    outer loop
      vertex 33.5 -6.5 6.5
      vertex 20 -6.5 9.6
      vertex 6.5 -6.5 6.5
    endloop
  endfacet
  facet normal 0 -1 -0
    outer loop
      vertex 10.3029 -6.5 10.3029
      vertex 6.5 -6.5 6.5
      vertex 12 -6.5 9.6
    endloop
  endfacet
  facet normal 0 -1 -0
    outer loop
      vertex 9.6 -6.5 12
      vertex 6.5 -6.5 6.5
      vertex 10.3029 -6.5 10.3029
    endloop
  endfacet
  facet normal 0 -1 -0
    outer loop
      vertex 9.6 -6.5 20
      vertex 6.5 -6.5 6.5
      vertex 9.6 -6.5 12
    endloop
  endfacet
  facet normal 0 -1 0
    outer loop
      vertex 6.5 -6.5 33.5
      vertex 20 -6.5 30.4
      vertex 33.5 -6.5 33.5
    endloop
  endfacet
  facet normal 0 -1 0
    outer loop
      vertex 28 -6.5 30.4
      vertex 33.5 -6.5 33.5
      vertex 20 -6.5 30.4
    endloop
  endfacet
  facet normal 0 -1 0
    outer loop
      vertex 29.6971 -6.5 29.6971
      vertex 33.5 -6.5 33.5
      vertex 28 -6.5 30.4
    endloop
  endfacet
  facet normal 0 -1 0
    outer loop
      vertex 30.4 -6.5 28
      vertex 33.5 -6.5 33.5
      vertex 29.6971 -6.5 29.6971
    endloop
  endfacet
  facet normal 0 -1 0
    outer loop
      vertex 30.4 -6.5 20
      vertex 30.4 -6.5 28
      vertex 29.6971 -6.5 26.3029
    endloop
  endfacet
  facet normal 0 -1 0
    outer loop
      vertex 21.6971 -6.5 26.3029
      vertex 21.6971 -6.5 21.6971
      vertex 26.3029 -6.5 26.3029
    endloop
  endfacet
  facet normal 0 -1 0
    outer loop
      vertex 26.3029 -6.5 26.3029
      vertex 28 -6.5 22.4
      vertex 28 -6.5 25.6
    endloop
  endfacet
  facet normal 0 -1 0
    outer loop
      vertex 28 -6.5 22.4
      vertex 29.6971 -6.5 26.3029
      vertex 28 -6.5 25.6
    endloop
  endfacet
  facet normal 0 -1 0
    outer loop
      vertex 29.6971 -6.5 21.6971
      vertex 29.6971 -6.5 26.3029
      vertex 28 -6.5 22.4
    endloop
  endfacet
  facet normal 0 -1 0
    outer loop
      vertex 30.4 -6.5 20
      vertex 29.6971 -6.5 26.3029
      vertex 29.6971 -6.5 21.6971
    endloop
  endfacet
  facet normal 0 -1 0
    outer loop
      vertex 30.4 -6.5 28
      vertex 30.4 -6.5 20
      vertex 33.5 -6.5 33.5
    endloop
  endfacet
  facet normal 0 -1 0
    outer loop
      vertex 21.6971 -6.5 18.3029
      vertex 21.6971 -6.5 13.6971
      vertex 26.3029 -6.5 18.3029
    endloop
  endfacet
  facet normal 0 -1 0
    outer loop
      vertex 26.3029 -6.5 18.3029
      vertex 28 -6.5 14.4
      vertex 28 -6.5 17.6
    endloop
  endfacet
  facet normal 0 -1 0
    outer loop
      vertex 28 -6.5 14.4
      vertex 29.6971 -6.5 18.3029
      vertex 28 -6.5 17.6
    endloop
  endfacet
  facet normal 0 -1 0
    outer loop
      vertex 29.6971 -6.5 13.6971
      vertex 29.6971 -6.5 18.3029
      vertex 28 -6.5 14.4
    endloop
  endfacet
  facet normal 0 -1 0
    outer loop
      vertex 29.6971 -6.5 13.6971
      vertex 30.4 -6.5 20
      vertex 29.6971 -6.5 18.3029
    endloop
  endfacet
  facet normal 0 -1 0
    outer loop
      vertex 30.4 -6.5 12
      vertex 30.4 -6.5 20
      vertex 29.6971 -6.5 13.6971
    endloop
  endfacet
  facet normal 0 -1 0
    outer loop
      vertex 33.5 -6.5 6.5
      vertex 30.4 -6.5 20
      vertex 30.4 -6.5 12
    endloop
  endfacet
  facet normal 0 -1 0
    outer loop
      vertex 30.4 -6.5 20
      vertex 33.5 -6.5 6.5
      vertex 33.5 -6.5 33.5
    endloop
  endfacet
  facet normal 0 -1 0
    outer loop
      vertex 29.6971 -6.5 10.3029
      vertex 33.5 -6.5 6.5
      vertex 30.4 -6.5 12
    endloop
  endfacet
  facet normal 0 -1 0
    outer loop
      vertex 28 -6.5 9.6
      vertex 33.5 -6.5 6.5
      vertex 29.6971 -6.5 10.3029
    endloop
  endfacet
  facet normal 0 -1 0
    outer loop
      vertex 20 -6.5 9.6
      vertex 33.5 -6.5 6.5
      vertex 28 -6.5 9.6
    endloop
  endfacet
  facet normal -0.994522 -0.104528 0
    outer loop
      vertex 31 21.1667 6.5
      vertex 30.7596 23.4537 33.5
      vertex 30.7596 23.4537 6.5
    endloop
  endfacet
  facet normal -0.994522 -0.104528 0
    outer loop
      vertex 30.7596 23.4537 33.5
      vertex 31 21.1667 6.5
      vertex 31 21.1667 33.5
    endloop
  endfacet
  facet normal 0.207912 -0.978147 0
    outer loop
      vertex 16.6008 31.6283 6.5
      vertex 17.1734 31.75 33.5
      vertex 16.6008 31.6283 33.5
    endloop
  endfacet
  facet normal 0.207912 -0.978147 0
    outer loop
      vertex 17.1734 31.75 33.5
      vertex 16.6008 31.6283 6.5
      vertex 17.1734 31.75 6.5
    endloop
  endfacet
  facet normal -0.587786 -0.809017 0
    outer loop
      vertex 25.5 30.6929 6.5
      vertex 27.3604 29.3413 33.5
      vertex 25.5 30.6929 33.5
    endloop
  endfacet
  facet normal -0.587786 -0.809017 -0
    outer loop
      vertex 27.3604 29.3413 33.5
      vertex 25.5 30.6929 6.5
      vertex 27.3604 29.3413 6.5
    endloop
  endfacet
  facet normal 0.866025 -0.5 0
    outer loop
      vertex 9.951 25.6408 33.5
      vertex 11.1008 27.6323 6.5
      vertex 11.1008 27.6323 33.5
    endloop
  endfacet
  facet normal 0.866025 -0.5 0
    outer loop
      vertex 11.1008 27.6323 6.5
      vertex 9.951 25.6408 33.5
      vertex 9.951 25.6408 6.5
    endloop
  endfacet
  facet normal 0.951057 -0.309017 0
    outer loop
      vertex 9.24038 23.4537 33.5
      vertex 9.951 25.6408 6.5
      vertex 9.951 25.6408 33.5
    endloop
  endfacet
  facet normal 0.951057 -0.309017 0
    outer loop
      vertex 9.951 25.6408 6.5
      vertex 9.24038 23.4537 33.5
      vertex 9.24038 23.4537 6.5
    endloop
  endfacet
  facet normal 0.587785 -0.809017 0
    outer loop
      vertex 12.6396 29.3413 6.5
      vertex 14.5 30.6929 33.5
      vertex 12.6396 29.3413 33.5
    endloop
  endfacet
  facet normal 0.587785 -0.809017 0
    outer loop
      vertex 14.5 30.6929 33.5
      vertex 12.6396 29.3413 6.5
      vertex 14.5 30.6929 6.5
    endloop
  endfacet
  facet normal -0.743145 0.66913 0
    outer loop
      vertex 27.3604 12.9921 6.5
      vertex 28.8992 14.701 33.5
      vertex 28.8992 14.701 6.5
    endloop
  endfacet
  facet normal -0.743145 0.66913 0
    outer loop
      vertex 28.8992 14.701 33.5
      vertex 27.3604 12.9921 6.5
      vertex 27.3604 12.9921 33.5
    endloop
  endfacet
  facet normal -0.866025 0.500001 0
    outer loop
      vertex 28.8992 14.701 6.5
      vertex 30.049 16.6926 33.5
      vertex 30.049 16.6926 6.5
    endloop
  endfacet
  facet normal -0.866025 0.500001 0
    outer loop
      vertex 30.049 16.6926 33.5
      vertex 28.8992 14.701 6.5
      vertex 28.8992 14.701 33.5
    endloop
  endfacet
  facet normal -0.866025 -0.5 0
    outer loop
      vertex 30.049 25.6408 6.5
      vertex 28.8992 27.6323 33.5
      vertex 28.8992 27.6323 6.5
    endloop
  endfacet
  facet normal -0.866025 -0.5 0
    outer loop
      vertex 28.8992 27.6323 33.5
      vertex 30.049 25.6408 6.5
      vertex 30.049 25.6408 33.5
    endloop
  endfacet
  facet normal -0.951056 -0.309017 0
    outer loop
      vertex 30.7596 23.4537 6.5
      vertex 30.049 25.6408 33.5
      vertex 30.049 25.6408 6.5
    endloop
  endfacet
  facet normal -0.951056 -0.309017 0
    outer loop
      vertex 30.049 25.6408 33.5
      vertex 30.7596 23.4537 6.5
      vertex 30.7596 23.4537 33.5
    endloop
  endfacet
  facet normal -0.743145 -0.669131 0
    outer loop
      vertex 28.8992 27.6323 6.5
      vertex 27.3604 29.3413 33.5
      vertex 27.3604 29.3413 6.5
    endloop
  endfacet
  facet normal -0.743145 -0.669131 0
    outer loop
      vertex 27.3604 29.3413 33.5
      vertex 28.8992 27.6323 6.5
      vertex 28.8992 27.6323 33.5
    endloop
  endfacet
  facet normal -0.207913 -0.978147 0
    outer loop
      vertex 22.8266 31.75 6.5
      vertex 23.3992 31.6283 33.5
      vertex 22.8266 31.75 33.5
    endloop
  endfacet
  facet normal -0.207913 -0.978147 -0
    outer loop
      vertex 23.3992 31.6283 33.5
      vertex 22.8266 31.75 6.5
      vertex 23.3992 31.6283 6.5
    endloop
  endfacet
  facet normal -0.406737 -0.913545 0
    outer loop
      vertex 23.3992 31.6283 6.5
      vertex 25.5 30.6929 33.5
      vertex 23.3992 31.6283 33.5
    endloop
  endfacet
  facet normal -0.406737 -0.913545 -0
    outer loop
      vertex 25.5 30.6929 33.5
      vertex 23.3992 31.6283 6.5
      vertex 25.5 30.6929 6.5
    endloop
  endfacet
  facet normal 0.994522 -0.104528 0
    outer loop
      vertex 9 21.1667 33.5
      vertex 9.24038 23.4537 6.5
      vertex 9.24038 23.4537 33.5
    endloop
  endfacet
  facet normal 0.994522 -0.104528 0
    outer loop
      vertex 9.24038 23.4537 6.5
      vertex 9 21.1667 33.5
      vertex 9 21.1667 6.5
    endloop
  endfacet
  facet normal 0.743145 -0.669131 0
    outer loop
      vertex 11.1008 27.6323 33.5
      vertex 12.6396 29.3413 6.5
      vertex 12.6396 29.3413 33.5
    endloop
  endfacet
  facet normal 0.743145 -0.669131 0
    outer loop
      vertex 12.6396 29.3413 6.5
      vertex 11.1008 27.6323 33.5
      vertex 11.1008 27.6323 6.5
    endloop
  endfacet
  facet normal 0.406737 -0.913545 0
    outer loop
      vertex 14.5 30.6929 6.5
      vertex 16.6008 31.6283 33.5
      vertex 14.5 30.6929 33.5
    endloop
  endfacet
  facet normal 0.406737 -0.913545 0
    outer loop
      vertex 16.6008 31.6283 33.5
      vertex 14.5 30.6929 6.5
      vertex 16.6008 31.6283 6.5
    endloop
  endfacet
  facet normal -0.994522 0.104528 0
    outer loop
      vertex 30.7596 18.8796 6.5
      vertex 31 21.1667 33.5
      vertex 31 21.1667 6.5
    endloop
  endfacet
  facet normal -0.994522 0.104528 0
    outer loop
      vertex 31 21.1667 33.5
      vertex 30.7596 18.8796 6.5
      vertex 30.7596 18.8796 33.5
    endloop
  endfacet
  facet normal -0.207912 0.978148 0
    outer loop
      vertex 23.3992 10.705 6.5
      vertex 21.1498 10.2269 33.5
      vertex 23.3992 10.705 33.5
    endloop
  endfacet
  facet normal -0.207912 0.978148 0
    outer loop
      vertex 21.1498 10.2269 33.5
      vertex 23.3992 10.705 6.5
      vertex 21.1498 10.2269 6.5
    endloop
  endfacet
  facet normal -0.587786 0.809017 0
    outer loop
      vertex 27.3604 12.9921 6.5
      vertex 25.5 11.6404 33.5
      vertex 27.3604 12.9921 33.5
    endloop
  endfacet
  facet normal -0.587786 0.809017 0
    outer loop
      vertex 25.5 11.6404 33.5
      vertex 27.3604 12.9921 6.5
      vertex 25.5 11.6404 6.5
    endloop
  endfacet
  facet normal 0.406736 0.913546 -0
    outer loop
      vertex 16.6008 10.705 6.5
      vertex 14.5 11.6404 33.5
      vertex 16.6008 10.705 33.5
    endloop
  endfacet
  facet normal 0.406736 0.913546 0
    outer loop
      vertex 14.5 11.6404 33.5
      vertex 16.6008 10.705 6.5
      vertex 14.5 11.6404 6.5
    endloop
  endfacet
  facet normal 0 1 -0
    outer loop
      vertex 21.1498 10.2269 6.5
      vertex 18.8502 10.2269 33.5
      vertex 21.1498 10.2269 33.5
    endloop
  endfacet
  facet normal 0 1 0
    outer loop
      vertex 18.8502 10.2269 33.5
      vertex 21.1498 10.2269 6.5
      vertex 18.8502 10.2269 6.5
    endloop
  endfacet
  facet normal 0.743145 0.66913 0
    outer loop
      vertex 12.6396 12.9921 33.5
      vertex 11.1008 14.701 6.5
      vertex 11.1008 14.701 33.5
    endloop
  endfacet
  facet normal 0.743145 0.66913 0
    outer loop
      vertex 11.1008 14.701 6.5
      vertex 12.6396 12.9921 33.5
      vertex 12.6396 12.9921 6.5
    endloop
  endfacet
  facet normal 0.951057 0.309017 0
    outer loop
      vertex 9.951 16.6926 33.5
      vertex 9.24038 18.8796 6.5
      vertex 9.24038 18.8796 33.5
    endloop
  endfacet
  facet normal 0.951057 0.309017 0
    outer loop
      vertex 9.24038 18.8796 6.5
      vertex 9.951 16.6926 33.5
      vertex 9.951 16.6926 6.5
    endloop
  endfacet
  facet normal 0.994522 0.104528 0
    outer loop
      vertex 9.24038 18.8796 33.5
      vertex 9 21.1667 6.5
      vertex 9 21.1667 33.5
    endloop
  endfacet
  facet normal 0.994522 0.104528 0
    outer loop
      vertex 9 21.1667 6.5
      vertex 9.24038 18.8796 33.5
      vertex 9.24038 18.8796 6.5
    endloop
  endfacet
  facet normal -0.406736 0.913546 0
    outer loop
      vertex 25.5 11.6404 6.5
      vertex 23.3992 10.705 33.5
      vertex 25.5 11.6404 33.5
    endloop
  endfacet
  facet normal -0.406736 0.913546 0
    outer loop
      vertex 23.3992 10.705 33.5
      vertex 25.5 11.6404 6.5
      vertex 23.3992 10.705 6.5
    endloop
  endfacet
  facet normal -0.951056 0.309017 0
    outer loop
      vertex 30.049 16.6926 6.5
      vertex 30.7596 18.8796 33.5
      vertex 30.7596 18.8796 6.5
    endloop
  endfacet
  facet normal -0.951056 0.309017 0
    outer loop
      vertex 30.7596 18.8796 33.5
      vertex 30.049 16.6926 6.5
      vertex 30.049 16.6926 33.5
    endloop
  endfacet
  facet normal 0.207912 0.978148 -0
    outer loop
      vertex 18.8502 10.2269 6.5
      vertex 16.6008 10.705 33.5
      vertex 18.8502 10.2269 33.5
    endloop
  endfacet
  facet normal 0.207912 0.978148 0
    outer loop
      vertex 16.6008 10.705 33.5
      vertex 18.8502 10.2269 6.5
      vertex 16.6008 10.705 6.5
    endloop
  endfacet
  facet normal 0.587785 0.809017 -0
    outer loop
      vertex 14.5 11.6404 6.5
      vertex 12.6396 12.9921 33.5
      vertex 14.5 11.6404 33.5
    endloop
  endfacet
  facet normal 0.587785 0.809017 0
    outer loop
      vertex 12.6396 12.9921 33.5
      vertex 14.5 11.6404 6.5
      vertex 12.6396 12.9921 6.5
    endloop
  endfacet
  facet normal 0.866025 0.5 0
    outer loop
      vertex 11.1008 14.701 33.5
      vertex 9.951 16.6926 6.5
      vertex 9.951 16.6926 33.5
    endloop
  endfacet
  facet normal 0.866025 0.5 0
    outer loop
      vertex 9.951 16.6926 6.5
      vertex 11.1008 14.701 33.5
      vertex 11.1008 14.701 6.5
    endloop
  endfacet
  facet normal -0.994522 -0.104528 0
    outer loop
      vertex 31 42.3333 6.5
      vertex 30.7596 44.6204 33.5
      vertex 30.7596 44.6204 6.5
    endloop
  endfacet
  facet normal -0.994522 -0.104528 0
    outer loop
      vertex 30.7596 44.6204 33.5
      vertex 31 42.3333 6.5
      vertex 31 42.3333 33.5
    endloop
  endfacet
  facet normal 0 -1 0
    outer loop
      vertex 18.8502 53.2731 6.5
      vertex 21.1498 53.2731 33.5
      vertex 18.8502 53.2731 33.5
    endloop
  endfacet
  facet normal 0 -1 -0
    outer loop
      vertex 21.1498 53.2731 33.5
      vertex 18.8502 53.2731 6.5
      vertex 21.1498 53.2731 6.5
    endloop
  endfacet
  facet normal -0.207913 0.978147 0
    outer loop
      vertex 23.3992 31.8717 6.5
      vertex 22.8266 31.75 33.5
      vertex 23.3992 31.8717 33.5
    endloop
  endfacet
  facet normal -0.207913 0.978147 0
    outer loop
      vertex 22.8266 31.75 33.5
      vertex 23.3992 31.8717 6.5
      vertex 22.8266 31.75 6.5
    endloop
  endfacet
  facet normal -0.587785 -0.809017 0
    outer loop
      vertex 25.5 51.8596 6.5
      vertex 27.3604 50.5079 33.5
      vertex 25.5 51.8596 33.5
    endloop
  endfacet
  facet normal -0.587785 -0.809017 -0
    outer loop
      vertex 27.3604 50.5079 33.5
      vertex 25.5 51.8596 6.5
      vertex 27.3604 50.5079 6.5
    endloop
  endfacet
  facet normal 0.743145 -0.66913 0
    outer loop
      vertex 11.1008 48.799 33.5
      vertex 12.6396 50.5079 6.5
      vertex 12.6396 50.5079 33.5
    endloop
  endfacet
  facet normal 0.743145 -0.66913 0
    outer loop
      vertex 12.6396 50.5079 6.5
      vertex 11.1008 48.799 33.5
      vertex 11.1008 48.799 6.5
    endloop
  endfacet
  facet normal 0.406736 -0.913546 0
    outer loop
      vertex 14.5 51.8596 6.5
      vertex 16.6008 52.795 33.5
      vertex 14.5 51.8596 33.5
    endloop
  endfacet
  facet normal 0.406736 -0.913546 0
    outer loop
      vertex 16.6008 52.795 33.5
      vertex 14.5 51.8596 6.5
      vertex 16.6008 52.795 6.5
    endloop
  endfacet
  facet normal -0.866025 0.5 0
    outer loop
      vertex 28.8992 35.8677 6.5
      vertex 30.049 37.8592 33.5
      vertex 30.049 37.8592 6.5
    endloop
  endfacet
  facet normal -0.866025 0.5 0
    outer loop
      vertex 30.049 37.8592 33.5
      vertex 28.8992 35.8677 6.5
      vertex 28.8992 35.8677 33.5
    endloop
  endfacet
  facet normal -0.866025 -0.5 0
    outer loop
      vertex 30.049 46.8074 6.5
      vertex 28.8992 48.799 33.5
      vertex 28.8992 48.799 6.5
    endloop
  endfacet
  facet normal -0.866025 -0.5 0
    outer loop
      vertex 28.8992 48.799 33.5
      vertex 30.049 46.8074 6.5
      vertex 30.049 46.8074 33.5
    endloop
  endfacet
  facet normal -0.951056 -0.309018 0
    outer loop
      vertex 30.7596 44.6204 6.5
      vertex 30.049 46.8074 33.5
      vertex 30.049 46.8074 6.5
    endloop
  endfacet
  facet normal -0.951056 -0.309018 0
    outer loop
      vertex 30.049 46.8074 33.5
      vertex 30.7596 44.6204 6.5
      vertex 30.7596 44.6204 33.5
    endloop
  endfacet
  facet normal -0.743145 -0.66913 0
    outer loop
      vertex 28.8992 48.799 6.5
      vertex 27.3604 50.5079 33.5
      vertex 27.3604 50.5079 6.5
    endloop
  endfacet
  facet normal -0.743145 -0.66913 0
    outer loop
      vertex 27.3604 50.5079 33.5
      vertex 28.8992 48.799 6.5
      vertex 28.8992 48.799 33.5
    endloop
  endfacet
  facet normal -0.207913 -0.978147 0
    outer loop
      vertex 21.1498 53.2731 6.5
      vertex 23.3992 52.795 33.5
      vertex 21.1498 53.2731 33.5
    endloop
  endfacet
  facet normal -0.207913 -0.978147 -0
    outer loop
      vertex 23.3992 52.795 33.5
      vertex 21.1498 53.2731 6.5
      vertex 23.3992 52.795 6.5
    endloop
  endfacet
  facet normal -0.406736 -0.913546 0
    outer loop
      vertex 23.3992 52.795 6.5
      vertex 25.5 51.8596 33.5
      vertex 23.3992 52.795 33.5
    endloop
  endfacet
  facet normal -0.406736 -0.913546 -0
    outer loop
      vertex 25.5 51.8596 33.5
      vertex 23.3992 52.795 6.5
      vertex 25.5 51.8596 6.5
    endloop
  endfacet
  facet normal 0.951056 -0.309017 0
    outer loop
      vertex 9.24038 44.6204 33.5
      vertex 9.951 46.8074 6.5
      vertex 9.951 46.8074 33.5
    endloop
  endfacet
  facet normal 0.951056 -0.309017 0
    outer loop
      vertex 9.951 46.8074 6.5
      vertex 9.24038 44.6204 33.5
      vertex 9.24038 44.6204 6.5
    endloop
  endfacet
  facet normal 0.866025 -0.5 0
    outer loop
      vertex 9.951 46.8074 33.5
      vertex 11.1008 48.799 6.5
      vertex 11.1008 48.799 33.5
    endloop
  endfacet
  facet normal 0.866025 -0.5 0
    outer loop
      vertex 11.1008 48.799 6.5
      vertex 9.951 46.8074 33.5
      vertex 9.951 46.8074 6.5
    endloop
  endfacet
  facet normal 0.994522 -0.104528 0
    outer loop
      vertex 9 42.3333 33.5
      vertex 9.24038 44.6204 6.5
      vertex 9.24038 44.6204 33.5
    endloop
  endfacet
  facet normal 0.994522 -0.104528 0
    outer loop
      vertex 9.24038 44.6204 6.5
      vertex 9 42.3333 33.5
      vertex 9 42.3333 6.5
    endloop
  endfacet
  facet normal 0.587785 -0.809017 0
    outer loop
      vertex 12.6396 50.5079 6.5
      vertex 14.5 51.8596 33.5
      vertex 12.6396 50.5079 33.5
    endloop
  endfacet
  facet normal 0.587785 -0.809017 0
    outer loop
      vertex 14.5 51.8596 33.5
      vertex 12.6396 50.5079 6.5
      vertex 14.5 51.8596 6.5
    endloop
  endfacet
  facet normal 0.207913 -0.978147 0
    outer loop
      vertex 16.6008 52.795 6.5
      vertex 18.8502 53.2731 33.5
      vertex 16.6008 52.795 33.5
    endloop
  endfacet
  facet normal 0.207913 -0.978147 0
    outer loop
      vertex 18.8502 53.2731 33.5
      vertex 16.6008 52.795 6.5
      vertex 18.8502 53.2731 6.5
    endloop
  endfacet
  facet normal -0.994522 0.104528 0
    outer loop
      vertex 30.7596 40.0463 6.5
      vertex 31 42.3333 33.5
      vertex 31 42.3333 6.5
    endloop
  endfacet
  facet normal -0.994522 0.104528 0
    outer loop
      vertex 31 42.3333 33.5
      vertex 30.7596 40.0463 6.5
      vertex 30.7596 40.0463 33.5
    endloop
  endfacet
  facet normal -0.951056 0.309018 0
    outer loop
      vertex 30.049 37.8592 6.5
      vertex 30.7596 40.0463 33.5
      vertex 30.7596 40.0463 6.5
    endloop
  endfacet
  facet normal -0.951056 0.309018 0
    outer loop
      vertex 30.7596 40.0463 33.5
      vertex 30.049 37.8592 6.5
      vertex 30.049 37.8592 33.5
    endloop
  endfacet
  facet normal 0.994522 0.104528 0
    outer loop
      vertex 9.24038 40.0463 33.5
      vertex 9 42.3333 6.5
      vertex 9 42.3333 33.5
    endloop
  endfacet
  facet normal 0.994522 0.104528 0
    outer loop
      vertex 9 42.3333 6.5
      vertex 9.24038 40.0463 33.5
      vertex 9.24038 40.0463 6.5
    endloop
  endfacet
  facet normal 0.406736 0.913546 -0
    outer loop
      vertex 16.6008 31.8717 6.5
      vertex 14.5 32.8071 33.5
      vertex 16.6008 31.8717 33.5
    endloop
  endfacet
  facet normal 0.406736 0.913546 0
    outer loop
      vertex 14.5 32.8071 33.5
      vertex 16.6008 31.8717 6.5
      vertex 14.5 32.8071 6.5
    endloop
  endfacet
  facet normal 0.743145 0.669131 0
    outer loop
      vertex 12.6396 34.1587 33.5
      vertex 11.1008 35.8677 6.5
      vertex 11.1008 35.8677 33.5
    endloop
  endfacet
  facet normal 0.743145 0.669131 0
    outer loop
      vertex 11.1008 35.8677 6.5
      vertex 12.6396 34.1587 33.5
      vertex 12.6396 34.1587 6.5
    endloop
  endfacet
  facet normal -0.743145 0.669131 0
    outer loop
      vertex 27.3604 34.1587 6.5
      vertex 28.8992 35.8677 33.5
      vertex 28.8992 35.8677 6.5
    endloop
  endfacet
  facet normal -0.743145 0.669131 0
    outer loop
      vertex 28.8992 35.8677 33.5
      vertex 27.3604 34.1587 6.5
      vertex 27.3604 34.1587 33.5
    endloop
  endfacet
  facet normal 0.207912 0.978147 -0
    outer loop
      vertex 17.1734 31.75 6.5
      vertex 16.6008 31.8717 33.5
      vertex 17.1734 31.75 33.5
    endloop
  endfacet
  facet normal 0.207912 0.978147 0
    outer loop
      vertex 16.6008 31.8717 33.5
      vertex 17.1734 31.75 6.5
      vertex 16.6008 31.8717 6.5
    endloop
  endfacet
  facet normal 0.587786 0.809017 -0
    outer loop
      vertex 14.5 32.8071 6.5
      vertex 12.6396 34.1587 33.5
      vertex 14.5 32.8071 33.5
    endloop
  endfacet
  facet normal 0.587786 0.809017 0
    outer loop
      vertex 12.6396 34.1587 33.5
      vertex 14.5 32.8071 6.5
      vertex 12.6396 34.1587 6.5
    endloop
  endfacet
  facet normal 0.866025 0.5 0
    outer loop
      vertex 11.1008 35.8677 33.5
      vertex 9.951 37.8592 6.5
      vertex 9.951 37.8592 33.5
    endloop
  endfacet
  facet normal 0.866025 0.5 0
    outer loop
      vertex 9.951 37.8592 6.5
      vertex 11.1008 35.8677 33.5
      vertex 11.1008 35.8677 6.5
    endloop
  endfacet
  facet normal 0.951056 0.309017 0
    outer loop
      vertex 9.951 37.8592 33.5
      vertex 9.24038 40.0463 6.5
      vertex 9.24038 40.0463 33.5
    endloop
  endfacet
  facet normal 0.951056 0.309017 0
    outer loop
      vertex 9.24038 40.0463 6.5
      vertex 9.951 37.8592 33.5
      vertex 9.951 37.8592 6.5
    endloop
  endfacet
  facet normal -0.587786 0.809016 0
    outer loop
      vertex 27.3604 34.1587 6.5
      vertex 25.5 32.8071 33.5
      vertex 27.3604 34.1587 33.5
    endloop
  endfacet
  facet normal -0.587786 0.809016 0
    outer loop
      vertex 25.5 32.8071 33.5
      vertex 27.3604 34.1587 6.5
      vertex 25.5 32.8071 6.5
    endloop
  endfacet
  facet normal -0.406736 0.913546 0
    outer loop
      vertex 25.5 32.8071 6.5
      vertex 23.3992 31.8717 33.5
      vertex 25.5 32.8071 33.5
    endloop
  endfacet
  facet normal -0.406736 0.913546 0
    outer loop
      vertex 23.3992 31.8717 33.5
      vertex 25.5 32.8071 6.5
      vertex 23.3992 31.8717 6.5
    endloop
  endfacet
  facet normal 0.923879 -0 0.382684
    outer loop
      vertex 13.6971 -7.8 13.6971
      vertex 14.4 -6.5 12
      vertex 13.6971 -6.5 13.6971
    endloop
  endfacet
  facet normal 0.923879 0 0.382684
    outer loop
      vertex 14.4 -6.5 12
      vertex 13.6971 -7.8 13.6971
      vertex 14.4 -7.8 12
    endloop
  endfacet
  facet normal -0.92388 0 -0.382683
    outer loop
      vertex 10.3029 -7.8 10.3029
      vertex 9.6 -6.5 12
      vertex 10.3029 -6.5 10.3029
    endloop
  endfacet
  facet normal -0.92388 -0 -0.382683
    outer loop
      vertex 9.6 -6.5 12
      vertex 10.3029 -7.8 10.3029
      vertex 9.6 -7.8 12
    endloop
  endfacet
  facet normal -0.382683 0 -0.92388
    outer loop
      vertex 10.3029 -7.8 10.3029
      vertex 12 -6.5 9.6
      vertex 12 -7.8 9.6
    endloop
  endfacet
  facet normal -0.382683 0 -0.92388
    outer loop
      vertex 12 -6.5 9.6
      vertex 10.3029 -7.8 10.3029
      vertex 10.3029 -6.5 10.3029
    endloop
  endfacet
  facet normal -0.382683 0 0.92388
    outer loop
      vertex 10.3029 -6.5 13.6971
      vertex 12 -7.8 14.4
      vertex 12 -6.5 14.4
    endloop
  endfacet
  facet normal -0.382683 0 0.92388
    outer loop
      vertex 12 -7.8 14.4
      vertex 10.3029 -6.5 13.6971
      vertex 10.3029 -7.8 13.6971
    endloop
  endfacet
  facet normal 0.382684 0 0.923879
    outer loop
      vertex 12 -6.5 14.4
      vertex 13.6971 -7.8 13.6971
      vertex 13.6971 -6.5 13.6971
    endloop
  endfacet
  facet normal 0.382684 0 0.923879
    outer loop
      vertex 13.6971 -7.8 13.6971
      vertex 12 -6.5 14.4
      vertex 12 -7.8 14.4
    endloop
  endfacet
  facet normal 0 -1 0
    outer loop
      vertex 10.3029 -7.8 13.6971
      vertex 13.6971 -7.8 13.6971
      vertex 12 -7.8 14.4
    endloop
  endfacet
  facet normal 0 -1 0
    outer loop
      vertex 9.6 -7.8 12
      vertex 13.6971 -7.8 13.6971
      vertex 10.3029 -7.8 13.6971
    endloop
  endfacet
  facet normal 0 -1 0
    outer loop
      vertex 9.6 -7.8 12
      vertex 14.4 -7.8 12
      vertex 13.6971 -7.8 13.6971
    endloop
  endfacet
  facet normal 0 -1 0
    outer loop
      vertex 10.3029 -7.8 10.3029
      vertex 14.4 -7.8 12
      vertex 9.6 -7.8 12
    endloop
  endfacet
  facet normal 0 -1 0
    outer loop
      vertex 10.3029 -7.8 10.3029
      vertex 13.6971 -7.8 10.3029
      vertex 14.4 -7.8 12
    endloop
  endfacet
  facet normal -0 -1 0
    outer loop
      vertex 13.6971 -7.8 10.3029
      vertex 10.3029 -7.8 10.3029
      vertex 12 -7.8 9.6
    endloop
  endfacet
  facet normal -0.923879 0 0.382684
    outer loop
      vertex 9.6 -7.8 12
      vertex 10.3029 -6.5 13.6971
      vertex 9.6 -6.5 12
    endloop
  endfacet
  facet normal -0.923879 0 0.382684
    outer loop
      vertex 10.3029 -6.5 13.6971
      vertex 9.6 -7.8 12
      vertex 10.3029 -7.8 13.6971
    endloop
  endfacet
  facet normal 0.382684 0 -0.923879
    outer loop
      vertex 12 -7.8 9.6
      vertex 13.6971 -6.5 10.3029
      vertex 13.6971 -7.8 10.3029
    endloop
  endfacet
  facet normal 0.382684 0 -0.923879
    outer loop
      vertex 13.6971 -6.5 10.3029
      vertex 12 -7.8 9.6
      vertex 12 -6.5 9.6
    endloop
  endfacet
  facet normal 0.92388 0 -0.382683
    outer loop
      vertex 14.4 -7.8 12
      vertex 13.6971 -6.5 10.3029
      vertex 14.4 -6.5 12
    endloop
  endfacet
  facet normal 0.92388 0 -0.382683
    outer loop
      vertex 13.6971 -6.5 10.3029
      vertex 14.4 -7.8 12
      vertex 13.6971 -7.8 10.3029
    endloop
  endfacet
  facet normal 0.923879 -0 0.382684
    outer loop
      vertex 13.6971 -7.8 21.6971
      vertex 14.4 -6.5 20
      vertex 13.6971 -6.5 21.6971
    endloop
  endfacet
  facet normal 0.923879 0 0.382684
    outer loop
      vertex 14.4 -6.5 20
      vertex 13.6971 -7.8 21.6971
      vertex 14.4 -7.8 20
    endloop
  endfacet
  facet normal -0.923879 0 -0.382684
    outer loop
      vertex 10.3029 -7.8 18.3029
      vertex 9.6 -6.5 20
      vertex 10.3029 -6.5 18.3029
    endloop
  endfacet
  facet normal -0.923879 -0 -0.382684
    outer loop
      vertex 9.6 -6.5 20
      vertex 10.3029 -7.8 18.3029
      vertex 9.6 -7.8 20
    endloop
  endfacet
  facet normal -0.382684 0 -0.923879
    outer loop
      vertex 10.3029 -7.8 18.3029
      vertex 12 -6.5 17.6
      vertex 12 -7.8 17.6
    endloop
  endfacet
  facet normal -0.382684 0 -0.923879
    outer loop
      vertex 12 -6.5 17.6
      vertex 10.3029 -7.8 18.3029
      vertex 10.3029 -6.5 18.3029
    endloop
  endfacet
  facet normal -0.382683 0 0.92388
    outer loop
      vertex 10.3029 -6.5 21.6971
      vertex 12 -7.8 22.4
      vertex 12 -6.5 22.4
    endloop
  endfacet
  facet normal -0.382683 0 0.92388
    outer loop
      vertex 12 -7.8 22.4
      vertex 10.3029 -6.5 21.6971
      vertex 10.3029 -7.8 21.6971
    endloop
  endfacet
  facet normal 0.382684 0 0.923879
    outer loop
      vertex 12 -6.5 22.4
      vertex 13.6971 -7.8 21.6971
      vertex 13.6971 -6.5 21.6971
    endloop
  endfacet
  facet normal 0.382684 0 0.923879
    outer loop
      vertex 13.6971 -7.8 21.6971
      vertex 12 -6.5 22.4
      vertex 12 -7.8 22.4
    endloop
  endfacet
  facet normal 0 -1 0
    outer loop
      vertex 10.3029 -7.8 21.6971
      vertex 13.6971 -7.8 21.6971
      vertex 12 -7.8 22.4
    endloop
  endfacet
  facet normal 0 -1 0
    outer loop
      vertex 9.6 -7.8 20
      vertex 13.6971 -7.8 21.6971
      vertex 10.3029 -7.8 21.6971
    endloop
  endfacet
  facet normal 0 -1 0
    outer loop
      vertex 9.6 -7.8 20
      vertex 14.4 -7.8 20
      vertex 13.6971 -7.8 21.6971
    endloop
  endfacet
  facet normal 0 -1 0
    outer loop
      vertex 10.3029 -7.8 18.3029
      vertex 14.4 -7.8 20
      vertex 9.6 -7.8 20
    endloop
  endfacet
  facet normal 0 -1 0
    outer loop
      vertex 10.3029 -7.8 18.3029
      vertex 13.6971 -7.8 18.3029
      vertex 14.4 -7.8 20
    endloop
  endfacet
  facet normal -0 -1 0
    outer loop
      vertex 13.6971 -7.8 18.3029
      vertex 10.3029 -7.8 18.3029
      vertex 12 -7.8 17.6
    endloop
  endfacet
  facet normal -0.923879 0 0.382684
    outer loop
      vertex 9.6 -7.8 20
      vertex 10.3029 -6.5 21.6971
      vertex 9.6 -6.5 20
    endloop
  endfacet
  facet normal -0.923879 0 0.382684
    outer loop
      vertex 10.3029 -6.5 21.6971
      vertex 9.6 -7.8 20
      vertex 10.3029 -7.8 21.6971
    endloop
  endfacet
  facet normal 0.382684 0 -0.923879
    outer loop
      vertex 12 -7.8 17.6
      vertex 13.6971 -6.5 18.3029
      vertex 13.6971 -7.8 18.3029
    endloop
  endfacet
  facet normal 0.382684 0 -0.923879
    outer loop
      vertex 13.6971 -6.5 18.3029
      vertex 12 -7.8 17.6
      vertex 12 -6.5 17.6
    endloop
  endfacet
  facet normal 0.923879 0 -0.382684
    outer loop
      vertex 14.4 -7.8 20
      vertex 13.6971 -6.5 18.3029
      vertex 14.4 -6.5 20
    endloop
  endfacet
  facet normal 0.923879 0 -0.382684
    outer loop
      vertex 13.6971 -6.5 18.3029
      vertex 14.4 -7.8 20
      vertex 13.6971 -7.8 18.3029
    endloop
  endfacet
  facet normal 0.923879 -0 0.382684
    outer loop
      vertex 13.6971 -7.8 29.6971
      vertex 14.4 -6.5 28
      vertex 13.6971 -6.5 29.6971
    endloop
  endfacet
  facet normal 0.923879 0 0.382684
    outer loop
      vertex 14.4 -6.5 28
      vertex 13.6971 -7.8 29.6971
      vertex 14.4 -7.8 28
    endloop
  endfacet
  facet normal -0.923879 0 -0.382684
    outer loop
      vertex 10.3029 -7.8 26.3029
      vertex 9.6 -6.5 28
      vertex 10.3029 -6.5 26.3029
    endloop
  endfacet
  facet normal -0.923879 -0 -0.382684
    outer loop
      vertex 9.6 -6.5 28
      vertex 10.3029 -7.8 26.3029
      vertex 9.6 -7.8 28
    endloop
  endfacet
  facet normal -0.382683 0 0.92388
    outer loop
      vertex 10.3029 -6.5 29.6971
      vertex 12 -7.8 30.4
      vertex 12 -6.5 30.4
    endloop
  endfacet
  facet normal -0.382683 0 0.92388
    outer loop
      vertex 12 -7.8 30.4
      vertex 10.3029 -6.5 29.6971
      vertex 10.3029 -7.8 29.6971
    endloop
  endfacet
  facet normal 0.382684 0 0.923879
    outer loop
      vertex 12 -6.5 30.4
      vertex 13.6971 -7.8 29.6971
      vertex 13.6971 -6.5 29.6971
    endloop
  endfacet
  facet normal 0.382684 0 0.923879
    outer loop
      vertex 13.6971 -7.8 29.6971
      vertex 12 -6.5 30.4
      vertex 12 -7.8 30.4
    endloop
  endfacet
  facet normal 0 -1 0
    outer loop
      vertex 10.3029 -7.8 29.6971
      vertex 13.6971 -7.8 29.6971
      vertex 12 -7.8 30.4
    endloop
  endfacet
  facet normal 0 -1 0
    outer loop
      vertex 9.6 -7.8 28
      vertex 13.6971 -7.8 29.6971
      vertex 10.3029 -7.8 29.6971
    endloop
  endfacet
  facet normal 0 -1 0
    outer loop
      vertex 9.6 -7.8 28
      vertex 14.4 -7.8 28
      vertex 13.6971 -7.8 29.6971
    endloop
  endfacet
  facet normal 0 -1 0
    outer loop
      vertex 10.3029 -7.8 26.3029
      vertex 14.4 -7.8 28
      vertex 9.6 -7.8 28
    endloop
  endfacet
  facet normal 0 -1 0
    outer loop
      vertex 10.3029 -7.8 26.3029
      vertex 13.6971 -7.8 26.3029
      vertex 14.4 -7.8 28
    endloop
  endfacet
  facet normal -0 -1 0
    outer loop
      vertex 13.6971 -7.8 26.3029
      vertex 10.3029 -7.8 26.3029
      vertex 12 -7.8 25.6
    endloop
  endfacet
  facet normal -0.923879 0 0.382684
    outer loop
      vertex 9.6 -7.8 28
      vertex 10.3029 -6.5 29.6971
      vertex 9.6 -6.5 28
    endloop
  endfacet
  facet normal -0.923879 0 0.382684
    outer loop
      vertex 10.3029 -6.5 29.6971
      vertex 9.6 -7.8 28
      vertex 10.3029 -7.8 29.6971
    endloop
  endfacet
  facet normal 0.382684 0 -0.923879
    outer loop
      vertex 12 -7.8 25.6
      vertex 13.6971 -6.5 26.3029
      vertex 13.6971 -7.8 26.3029
    endloop
  endfacet
  facet normal 0.382684 0 -0.923879
    outer loop
      vertex 13.6971 -6.5 26.3029
      vertex 12 -7.8 25.6
      vertex 12 -6.5 25.6
    endloop
  endfacet
  facet normal -0.382684 0 -0.923879
    outer loop
      vertex 10.3029 -7.8 26.3029
      vertex 12 -6.5 25.6
      vertex 12 -7.8 25.6
    endloop
  endfacet
  facet normal -0.382684 0 -0.923879
    outer loop
      vertex 12 -6.5 25.6
      vertex 10.3029 -7.8 26.3029
      vertex 10.3029 -6.5 26.3029
    endloop
  endfacet
  facet normal 0.923879 0 -0.382684
    outer loop
      vertex 14.4 -7.8 28
      vertex 13.6971 -6.5 26.3029
      vertex 14.4 -6.5 28
    endloop
  endfacet
  facet normal 0.923879 0 -0.382684
    outer loop
      vertex 13.6971 -6.5 26.3029
      vertex 14.4 -7.8 28
      vertex 13.6971 -7.8 26.3029
    endloop
  endfacet
  facet normal 0.923879 -0 0.382684
    outer loop
      vertex 21.6971 -7.8 13.6971
      vertex 22.4 -6.5 12
      vertex 21.6971 -6.5 13.6971
    endloop
  endfacet
  facet normal 0.923879 0 0.382684
    outer loop
      vertex 22.4 -6.5 12
      vertex 21.6971 -7.8 13.6971
      vertex 22.4 -7.8 12
    endloop
  endfacet
  facet normal -0.923879 0 -0.382684
    outer loop
      vertex 18.3029 -7.8 10.3029
      vertex 17.6 -6.5 12
      vertex 18.3029 -6.5 10.3029
    endloop
  endfacet
  facet normal -0.923879 -0 -0.382684
    outer loop
      vertex 17.6 -6.5 12
      vertex 18.3029 -7.8 10.3029
      vertex 17.6 -7.8 12
    endloop
  endfacet
  facet normal -0.382684 0 0.923879
    outer loop
      vertex 18.3029 -6.5 13.6971
      vertex 20 -7.8 14.4
      vertex 20 -6.5 14.4
    endloop
  endfacet
  facet normal -0.382684 0 0.923879
    outer loop
      vertex 20 -7.8 14.4
      vertex 18.3029 -6.5 13.6971
      vertex 18.3029 -7.8 13.6971
    endloop
  endfacet
  facet normal 0.382684 0 0.923879
    outer loop
      vertex 20 -6.5 14.4
      vertex 21.6971 -7.8 13.6971
      vertex 21.6971 -6.5 13.6971
    endloop
  endfacet
  facet normal 0.382684 0 0.923879
    outer loop
      vertex 21.6971 -7.8 13.6971
      vertex 20 -6.5 14.4
      vertex 20 -7.8 14.4
    endloop
  endfacet
  facet normal 0 -1 0
    outer loop
      vertex 18.3029 -7.8 13.6971
      vertex 21.6971 -7.8 13.6971
      vertex 20 -7.8 14.4
    endloop
  endfacet
  facet normal 0 -1 0
    outer loop
      vertex 17.6 -7.8 12
      vertex 21.6971 -7.8 13.6971
      vertex 18.3029 -7.8 13.6971
    endloop
  endfacet
  facet normal 0 -1 0
    outer loop
      vertex 17.6 -7.8 12
      vertex 22.4 -7.8 12
      vertex 21.6971 -7.8 13.6971
    endloop
  endfacet
  facet normal 0 -1 0
    outer loop
      vertex 18.3029 -7.8 10.3029
      vertex 22.4 -7.8 12
      vertex 17.6 -7.8 12
    endloop
  endfacet
  facet normal 0 -1 0
    outer loop
      vertex 18.3029 -7.8 10.3029
      vertex 21.6971 -7.8 10.3029
      vertex 22.4 -7.8 12
    endloop
  endfacet
  facet normal -0 -1 0
    outer loop
      vertex 21.6971 -7.8 10.3029
      vertex 18.3029 -7.8 10.3029
      vertex 20 -7.8 9.6
    endloop
  endfacet
  facet normal -0.923879 0 0.382684
    outer loop
      vertex 17.6 -7.8 12
      vertex 18.3029 -6.5 13.6971
      vertex 17.6 -6.5 12
    endloop
  endfacet
  facet normal -0.923879 0 0.382684
    outer loop
      vertex 18.3029 -6.5 13.6971
      vertex 17.6 -7.8 12
      vertex 18.3029 -7.8 13.6971
    endloop
  endfacet
  facet normal 0.92388 0 -0.382683
    outer loop
      vertex 22.4 -7.8 12
      vertex 21.6971 -6.5 10.3029
      vertex 22.4 -6.5 12
    endloop
  endfacet
  facet normal 0.92388 0 -0.382683
    outer loop
      vertex 21.6971 -6.5 10.3029
      vertex 22.4 -7.8 12
      vertex 21.6971 -7.8 10.3029
    endloop
  endfacet
  facet normal 0.382684 0 -0.923879
    outer loop
      vertex 20 -7.8 9.6
      vertex 21.6971 -6.5 10.3029
      vertex 21.6971 -7.8 10.3029
    endloop
  endfacet
  facet normal 0.382684 0 -0.923879
    outer loop
      vertex 21.6971 -6.5 10.3029
      vertex 20 -7.8 9.6
      vertex 20 -6.5 9.6
    endloop
  endfacet
  facet normal -0.382684 0 -0.923879
    outer loop
      vertex 18.3029 -7.8 10.3029
      vertex 20 -6.5 9.6
      vertex 20 -7.8 9.6
    endloop
  endfacet
  facet normal -0.382684 0 -0.923879
    outer loop
      vertex 20 -6.5 9.6
      vertex 18.3029 -7.8 10.3029
      vertex 18.3029 -6.5 10.3029
    endloop
  endfacet
  facet normal 0.923879 -0 0.382684
    outer loop
      vertex 21.6971 -7.8 21.6971
      vertex 22.4 -6.5 20
      vertex 21.6971 -6.5 21.6971
    endloop
  endfacet
  facet normal 0.923879 0 0.382684
    outer loop
      vertex 22.4 -6.5 20
      vertex 21.6971 -7.8 21.6971
      vertex 22.4 -7.8 20
    endloop
  endfacet
  facet normal -0.923879 0 -0.382684
    outer loop
      vertex 18.3029 -7.8 18.3029
      vertex 17.6 -6.5 20
      vertex 18.3029 -6.5 18.3029
    endloop
  endfacet
  facet normal -0.923879 -0 -0.382684
    outer loop
      vertex 17.6 -6.5 20
      vertex 18.3029 -7.8 18.3029
      vertex 17.6 -7.8 20
    endloop
  endfacet
  facet normal -0.382684 0 0.923879
    outer loop
      vertex 18.3029 -6.5 21.6971
      vertex 20 -7.8 22.4
      vertex 20 -6.5 22.4
    endloop
  endfacet
  facet normal -0.382684 0 0.923879
    outer loop
      vertex 20 -7.8 22.4
      vertex 18.3029 -6.5 21.6971
      vertex 18.3029 -7.8 21.6971
    endloop
  endfacet
  facet normal 0.382684 0 0.923879
    outer loop
      vertex 20 -6.5 22.4
      vertex 21.6971 -7.8 21.6971
      vertex 21.6971 -6.5 21.6971
    endloop
  endfacet
  facet normal 0.382684 0 0.923879
    outer loop
      vertex 21.6971 -7.8 21.6971
      vertex 20 -6.5 22.4
      vertex 20 -7.8 22.4
    endloop
  endfacet
  facet normal 0 -1 0
    outer loop
      vertex 18.3029 -7.8 21.6971
      vertex 21.6971 -7.8 21.6971
      vertex 20 -7.8 22.4
    endloop
  endfacet
  facet normal 0 -1 0
    outer loop
      vertex 17.6 -7.8 20
      vertex 21.6971 -7.8 21.6971
      vertex 18.3029 -7.8 21.6971
    endloop
  endfacet
  facet normal 0 -1 0
    outer loop
      vertex 17.6 -7.8 20
      vertex 22.4 -7.8 20
      vertex 21.6971 -7.8 21.6971
    endloop
  endfacet
  facet normal 0 -1 0
    outer loop
      vertex 18.3029 -7.8 18.3029
      vertex 22.4 -7.8 20
      vertex 17.6 -7.8 20
    endloop
  endfacet
  facet normal 0 -1 0
    outer loop
      vertex 18.3029 -7.8 18.3029
      vertex 21.6971 -7.8 18.3029
      vertex 22.4 -7.8 20
    endloop
  endfacet
  facet normal -0 -1 0
    outer loop
      vertex 21.6971 -7.8 18.3029
      vertex 18.3029 -7.8 18.3029
      vertex 20 -7.8 17.6
    endloop
  endfacet
  facet normal -0.923879 0 0.382684
    outer loop
      vertex 17.6 -7.8 20
      vertex 18.3029 -6.5 21.6971
      vertex 17.6 -6.5 20
    endloop
  endfacet
  facet normal -0.923879 0 0.382684
    outer loop
      vertex 18.3029 -6.5 21.6971
      vertex 17.6 -7.8 20
      vertex 18.3029 -7.8 21.6971
    endloop
  endfacet
  facet normal 0.923879 0 -0.382684
    outer loop
      vertex 22.4 -7.8 20
      vertex 21.6971 -6.5 18.3029
      vertex 22.4 -6.5 20
    endloop
  endfacet
  facet normal 0.923879 0 -0.382684
    outer loop
      vertex 21.6971 -6.5 18.3029
      vertex 22.4 -7.8 20
      vertex 21.6971 -7.8 18.3029
    endloop
  endfacet
  facet normal 0.382684 0 -0.923879
    outer loop
      vertex 20 -7.8 17.6
      vertex 21.6971 -6.5 18.3029
      vertex 21.6971 -7.8 18.3029
    endloop
  endfacet
  facet normal 0.382684 0 -0.923879
    outer loop
      vertex 21.6971 -6.5 18.3029
      vertex 20 -7.8 17.6
      vertex 20 -6.5 17.6
    endloop
  endfacet
  facet normal -0.382684 0 -0.923879
    outer loop
      vertex 18.3029 -7.8 18.3029
      vertex 20 -6.5 17.6
      vertex 20 -7.8 17.6
    endloop
  endfacet
  facet normal -0.382684 0 -0.923879
    outer loop
      vertex 20 -6.5 17.6
      vertex 18.3029 -7.8 18.3029
      vertex 18.3029 -6.5 18.3029
    endloop
  endfacet
  facet normal 0.923879 -0 0.382684
    outer loop
      vertex 21.6971 -7.8 29.6971
      vertex 22.4 -6.5 28
      vertex 21.6971 -6.5 29.6971
    endloop
  endfacet
  facet normal 0.923879 0 0.382684
    outer loop
      vertex 22.4 -6.5 28
      vertex 21.6971 -7.8 29.6971
      vertex 22.4 -7.8 28
    endloop
  endfacet
  facet normal -0.923879 0 -0.382684
    outer loop
      vertex 18.3029 -7.8 26.3029
      vertex 17.6 -6.5 28
      vertex 18.3029 -6.5 26.3029
    endloop
  endfacet
  facet normal -0.923879 -0 -0.382684
    outer loop
      vertex 17.6 -6.5 28
      vertex 18.3029 -7.8 26.3029
      vertex 17.6 -7.8 28
    endloop
  endfacet
  facet normal -0.382684 0 0.923879
    outer loop
      vertex 18.3029 -6.5 29.6971
      vertex 20 -7.8 30.4
      vertex 20 -6.5 30.4
    endloop
  endfacet
  facet normal -0.382684 0 0.923879
    outer loop
      vertex 20 -7.8 30.4
      vertex 18.3029 -6.5 29.6971
      vertex 18.3029 -7.8 29.6971
    endloop
  endfacet
  facet normal 0.382684 0 0.923879
    outer loop
      vertex 20 -6.5 30.4
      vertex 21.6971 -7.8 29.6971
      vertex 21.6971 -6.5 29.6971
    endloop
  endfacet
  facet normal 0.382684 0 0.923879
    outer loop
      vertex 21.6971 -7.8 29.6971
      vertex 20 -6.5 30.4
      vertex 20 -7.8 30.4
    endloop
  endfacet
  facet normal 0 -1 0
    outer loop
      vertex 18.3029 -7.8 29.6971
      vertex 21.6971 -7.8 29.6971
      vertex 20 -7.8 30.4
    endloop
  endfacet
  facet normal 0 -1 0
    outer loop
      vertex 17.6 -7.8 28
      vertex 21.6971 -7.8 29.6971
      vertex 18.3029 -7.8 29.6971
    endloop
  endfacet
  facet normal 0 -1 0
    outer loop
      vertex 17.6 -7.8 28
      vertex 22.4 -7.8 28
      vertex 21.6971 -7.8 29.6971
    endloop
  endfacet
  facet normal 0 -1 0
    outer loop
      vertex 18.3029 -7.8 26.3029
      vertex 22.4 -7.8 28
      vertex 17.6 -7.8 28
    endloop
  endfacet
  facet normal 0 -1 0
    outer loop
      vertex 18.3029 -7.8 26.3029
      vertex 21.6971 -7.8 26.3029
      vertex 22.4 -7.8 28
    endloop
  endfacet
  facet normal -0 -1 0
    outer loop
      vertex 21.6971 -7.8 26.3029
      vertex 18.3029 -7.8 26.3029
      vertex 20 -7.8 25.6
    endloop
  endfacet
  facet normal -0.923879 0 0.382684
    outer loop
      vertex 17.6 -7.8 28
      vertex 18.3029 -6.5 29.6971
      vertex 17.6 -6.5 28
    endloop
  endfacet
  facet normal -0.923879 0 0.382684
    outer loop
      vertex 18.3029 -6.5 29.6971
      vertex 17.6 -7.8 28
      vertex 18.3029 -7.8 29.6971
    endloop
  endfacet
  facet normal 0.923879 0 -0.382684
    outer loop
      vertex 22.4 -7.8 28
      vertex 21.6971 -6.5 26.3029
      vertex 22.4 -6.5 28
    endloop
  endfacet
  facet normal 0.923879 0 -0.382684
    outer loop
      vertex 21.6971 -6.5 26.3029
      vertex 22.4 -7.8 28
      vertex 21.6971 -7.8 26.3029
    endloop
  endfacet
  facet normal 0.382684 0 -0.923879
    outer loop
      vertex 20 -7.8 25.6
      vertex 21.6971 -6.5 26.3029
      vertex 21.6971 -7.8 26.3029
    endloop
  endfacet
  facet normal 0.382684 0 -0.923879
    outer loop
      vertex 21.6971 -6.5 26.3029
      vertex 20 -7.8 25.6
      vertex 20 -6.5 25.6
    endloop
  endfacet
  facet normal -0.382684 0 -0.923879
    outer loop
      vertex 18.3029 -7.8 26.3029
      vertex 20 -6.5 25.6
      vertex 20 -7.8 25.6
    endloop
  endfacet
  facet normal -0.382684 0 -0.923879
    outer loop
      vertex 20 -6.5 25.6
      vertex 18.3029 -7.8 26.3029
      vertex 18.3029 -6.5 26.3029
    endloop
  endfacet
  facet normal 0.923879 -0 0.382684
    outer loop
      vertex 29.6971 -7.8 13.6971
      vertex 30.4 -6.5 12
      vertex 29.6971 -6.5 13.6971
    endloop
  endfacet
  facet normal 0.923879 0 0.382684
    outer loop
      vertex 30.4 -6.5 12
      vertex 29.6971 -7.8 13.6971
      vertex 30.4 -7.8 12
    endloop
  endfacet
  facet normal -0.923879 0 -0.382684
    outer loop
      vertex 26.3029 -7.8 10.3029
      vertex 25.6 -6.5 12
      vertex 26.3029 -6.5 10.3029
    endloop
  endfacet
  facet normal -0.923879 -0 -0.382684
    outer loop
      vertex 25.6 -6.5 12
      vertex 26.3029 -7.8 10.3029
      vertex 25.6 -7.8 12
    endloop
  endfacet
  facet normal -0.382684 0 0.923879
    outer loop
      vertex 26.3029 -6.5 13.6971
      vertex 28 -7.8 14.4
      vertex 28 -6.5 14.4
    endloop
  endfacet
  facet normal -0.382684 0 0.923879
    outer loop
      vertex 28 -7.8 14.4
      vertex 26.3029 -6.5 13.6971
      vertex 26.3029 -7.8 13.6971
    endloop
  endfacet
  facet normal 0.382684 0 0.923879
    outer loop
      vertex 28 -6.5 14.4
      vertex 29.6971 -7.8 13.6971
      vertex 29.6971 -6.5 13.6971
    endloop
  endfacet
  facet normal 0.382684 0 0.923879
    outer loop
      vertex 29.6971 -7.8 13.6971
      vertex 28 -6.5 14.4
      vertex 28 -7.8 14.4
    endloop
  endfacet
  facet normal 0 -1 0
    outer loop
      vertex 26.3029 -7.8 13.6971
      vertex 29.6971 -7.8 13.6971
      vertex 28 -7.8 14.4
    endloop
  endfacet
  facet normal 0 -1 0
    outer loop
      vertex 25.6 -7.8 12
      vertex 29.6971 -7.8 13.6971
      vertex 26.3029 -7.8 13.6971
    endloop
  endfacet
  facet normal 0 -1 0
    outer loop
      vertex 25.6 -7.8 12
      vertex 30.4 -7.8 12
      vertex 29.6971 -7.8 13.6971
    endloop
  endfacet
  facet normal 0 -1 0
    outer loop
      vertex 26.3029 -7.8 10.3029
      vertex 30.4 -7.8 12
      vertex 25.6 -7.8 12
    endloop
  endfacet
  facet normal 0 -1 0
    outer loop
      vertex 26.3029 -7.8 10.3029
      vertex 29.6971 -7.8 10.3029
      vertex 30.4 -7.8 12
    endloop
  endfacet
  facet normal -0 -1 0
    outer loop
      vertex 29.6971 -7.8 10.3029
      vertex 26.3029 -7.8 10.3029
      vertex 28 -7.8 9.6
    endloop
  endfacet
  facet normal -0.923879 0 0.382684
    outer loop
      vertex 25.6 -7.8 12
      vertex 26.3029 -6.5 13.6971
      vertex 25.6 -6.5 12
    endloop
  endfacet
  facet normal -0.923879 0 0.382684
    outer loop
      vertex 26.3029 -6.5 13.6971
      vertex 25.6 -7.8 12
      vertex 26.3029 -7.8 13.6971
    endloop
  endfacet
  facet normal 0.92388 0 -0.382683
    outer loop
      vertex 30.4 -7.8 12
      vertex 29.6971 -6.5 10.3029
      vertex 30.4 -6.5 12
    endloop
  endfacet
  facet normal 0.92388 0 -0.382683
    outer loop
      vertex 29.6971 -6.5 10.3029
      vertex 30.4 -7.8 12
      vertex 29.6971 -7.8 10.3029
    endloop
  endfacet
  facet normal 0.382684 0 -0.923879
    outer loop
      vertex 28 -7.8 9.6
      vertex 29.6971 -6.5 10.3029
      vertex 29.6971 -7.8 10.3029
    endloop
  endfacet
  facet normal 0.382684 0 -0.923879
    outer loop
      vertex 29.6971 -6.5 10.3029
      vertex 28 -7.8 9.6
      vertex 28 -6.5 9.6
    endloop
  endfacet
  facet normal -0.382684 0 -0.923879
    outer loop
      vertex 26.3029 -7.8 10.3029
      vertex 28 -6.5 9.6
      vertex 28 -7.8 9.6
    endloop
  endfacet
  facet normal -0.382684 0 -0.923879
    outer loop
      vertex 28 -6.5 9.6
      vertex 26.3029 -7.8 10.3029
      vertex 26.3029 -6.5 10.3029
    endloop
  endfacet
  facet normal 0.923879 -0 0.382684
    outer loop
      vertex 29.6971 -7.8 21.6971
      vertex 30.4 -6.5 20
      vertex 29.6971 -6.5 21.6971
    endloop
  endfacet
  facet normal 0.923879 0 0.382684
    outer loop
      vertex 30.4 -6.5 20
      vertex 29.6971 -7.8 21.6971
      vertex 30.4 -7.8 20
    endloop
  endfacet
  facet normal -0.923879 0 -0.382684
    outer loop
      vertex 26.3029 -7.8 18.3029
      vertex 25.6 -6.5 20
      vertex 26.3029 -6.5 18.3029
    endloop
  endfacet
  facet normal -0.923879 -0 -0.382684
    outer loop
      vertex 25.6 -6.5 20
      vertex 26.3029 -7.8 18.3029
      vertex 25.6 -7.8 20
    endloop
  endfacet
  facet normal -0.382684 0 0.923879
    outer loop
      vertex 26.3029 -6.5 21.6971
      vertex 28 -7.8 22.4
      vertex 28 -6.5 22.4
    endloop
  endfacet
  facet normal -0.382684 0 0.923879
    outer loop
      vertex 28 -7.8 22.4
      vertex 26.3029 -6.5 21.6971
      vertex 26.3029 -7.8 21.6971
    endloop
  endfacet
  facet normal 0.382684 0 0.923879
    outer loop
      vertex 28 -6.5 22.4
      vertex 29.6971 -7.8 21.6971
      vertex 29.6971 -6.5 21.6971
    endloop
  endfacet
  facet normal 0.382684 0 0.923879
    outer loop
      vertex 29.6971 -7.8 21.6971
      vertex 28 -6.5 22.4
      vertex 28 -7.8 22.4
    endloop
  endfacet
  facet normal 0 -1 0
    outer loop
      vertex 26.3029 -7.8 21.6971
      vertex 29.6971 -7.8 21.6971
      vertex 28 -7.8 22.4
    endloop
  endfacet
  facet normal 0 -1 0
    outer loop
      vertex 25.6 -7.8 20
      vertex 29.6971 -7.8 21.6971
      vertex 26.3029 -7.8 21.6971
    endloop
  endfacet
  facet normal 0 -1 0
    outer loop
      vertex 25.6 -7.8 20
      vertex 30.4 -7.8 20
      vertex 29.6971 -7.8 21.6971
    endloop
  endfacet
  facet normal 0 -1 0
    outer loop
      vertex 26.3029 -7.8 18.3029
      vertex 30.4 -7.8 20
      vertex 25.6 -7.8 20
    endloop
  endfacet
  facet normal 0 -1 0
    outer loop
      vertex 26.3029 -7.8 18.3029
      vertex 29.6971 -7.8 18.3029
      vertex 30.4 -7.8 20
    endloop
  endfacet
  facet normal -0 -1 0
    outer loop
      vertex 29.6971 -7.8 18.3029
      vertex 26.3029 -7.8 18.3029
      vertex 28 -7.8 17.6
    endloop
  endfacet
  facet normal -0.923879 0 0.382684
    outer loop
      vertex 25.6 -7.8 20
      vertex 26.3029 -6.5 21.6971
      vertex 25.6 -6.5 20
    endloop
  endfacet
  facet normal -0.923879 0 0.382684
    outer loop
      vertex 26.3029 -6.5 21.6971
      vertex 25.6 -7.8 20
      vertex 26.3029 -7.8 21.6971
    endloop
  endfacet
  facet normal 0.923879 0 -0.382684
    outer loop
      vertex 30.4 -7.8 20
      vertex 29.6971 -6.5 18.3029
      vertex 30.4 -6.5 20
    endloop
  endfacet
  facet normal 0.923879 0 -0.382684
    outer loop
      vertex 29.6971 -6.5 18.3029
      vertex 30.4 -7.8 20
      vertex 29.6971 -7.8 18.3029
    endloop
  endfacet
  facet normal 0.382684 0 -0.923879
    outer loop
      vertex 28 -7.8 17.6
      vertex 29.6971 -6.5 18.3029
      vertex 29.6971 -7.8 18.3029
    endloop
  endfacet
  facet normal 0.382684 0 -0.923879
    outer loop
      vertex 29.6971 -6.5 18.3029
      vertex 28 -7.8 17.6
      vertex 28 -6.5 17.6
    endloop
  endfacet
  facet normal -0.382684 0 -0.923879
    outer loop
      vertex 26.3029 -7.8 18.3029
      vertex 28 -6.5 17.6
      vertex 28 -7.8 17.6
    endloop
  endfacet
  facet normal -0.382684 0 -0.923879
    outer loop
      vertex 28 -6.5 17.6
      vertex 26.3029 -7.8 18.3029
      vertex 26.3029 -6.5 18.3029
    endloop
  endfacet
  facet normal 0.923879 -0 0.382684
    outer loop
      vertex 29.6971 -7.8 29.6971
      vertex 30.4 -6.5 28
      vertex 29.6971 -6.5 29.6971
    endloop
  endfacet
  facet normal 0.923879 0 0.382684
    outer loop
      vertex 30.4 -6.5 28
      vertex 29.6971 -7.8 29.6971
      vertex 30.4 -7.8 28
    endloop
  endfacet
  facet normal -0.382684 0 -0.923879
    outer loop
      vertex 26.3029 -7.8 26.3029
      vertex 28 -6.5 25.6
      vertex 28 -7.8 25.6
    endloop
  endfacet
  facet normal -0.382684 0 -0.923879
    outer loop
      vertex 28 -6.5 25.6
      vertex 26.3029 -7.8 26.3029
      vertex 26.3029 -6.5 26.3029
    endloop
  endfacet
  facet normal -0.382684 0 0.923879
    outer loop
      vertex 26.3029 -6.5 29.6971
      vertex 28 -7.8 30.4
      vertex 28 -6.5 30.4
    endloop
  endfacet
  facet normal -0.382684 0 0.923879
    outer loop
      vertex 28 -7.8 30.4
      vertex 26.3029 -6.5 29.6971
      vertex 26.3029 -7.8 29.6971
    endloop
  endfacet
  facet normal 0.382684 0 0.923879
    outer loop
      vertex 28 -6.5 30.4
      vertex 29.6971 -7.8 29.6971
      vertex 29.6971 -6.5 29.6971
    endloop
  endfacet
  facet normal 0.382684 0 0.923879
    outer loop
      vertex 29.6971 -7.8 29.6971
      vertex 28 -6.5 30.4
      vertex 28 -7.8 30.4
    endloop
  endfacet
  facet normal 0 -1 0
    outer loop
      vertex 26.3029 -7.8 29.6971
      vertex 29.6971 -7.8 29.6971
      vertex 28 -7.8 30.4
    endloop
  endfacet
  facet normal 0 -1 0
    outer loop
      vertex 25.6 -7.8 28
      vertex 29.6971 -7.8 29.6971
      vertex 26.3029 -7.8 29.6971
    endloop
  endfacet
  facet normal 0 -1 0
    outer loop
      vertex 25.6 -7.8 28
      vertex 30.4 -7.8 28
      vertex 29.6971 -7.8 29.6971
    endloop
  endfacet
  facet normal 0 -1 0
    outer loop
      vertex 26.3029 -7.8 26.3029
      vertex 30.4 -7.8 28
      vertex 25.6 -7.8 28
    endloop
  endfacet
  facet normal 0 -1 0
    outer loop
      vertex 26.3029 -7.8 26.3029
      vertex 29.6971 -7.8 26.3029
      vertex 30.4 -7.8 28
    endloop
  endfacet
  facet normal -0 -1 0
    outer loop
      vertex 29.6971 -7.8 26.3029
      vertex 26.3029 -7.8 26.3029
      vertex 28 -7.8 25.6
    endloop
  endfacet
  facet normal -0.923879 0 0.382684
    outer loop
      vertex 25.6 -7.8 28
      vertex 26.3029 -6.5 29.6971
      vertex 25.6 -6.5 28
    endloop
  endfacet
  facet normal -0.923879 0 0.382684
    outer loop
      vertex 26.3029 -6.5 29.6971
      vertex 25.6 -7.8 28
      vertex 26.3029 -7.8 29.6971
    endloop
  endfacet
  facet normal -0.923879 0 -0.382684
    outer loop
      vertex 26.3029 -7.8 26.3029
      vertex 25.6 -6.5 28
      vertex 26.3029 -6.5 26.3029
    endloop
  endfacet
  facet normal -0.923879 -0 -0.382684
    outer loop
      vertex 25.6 -6.5 28
      vertex 26.3029 -7.8 26.3029
      vertex 25.6 -7.8 28
    endloop
  endfacet
  facet normal 0.382684 0 -0.923879
    outer loop
      vertex 28 -7.8 25.6
      vertex 29.6971 -6.5 26.3029
      vertex 29.6971 -7.8 26.3029
    endloop
  endfacet
  facet normal 0.382684 0 -0.923879
    outer loop
      vertex 29.6971 -6.5 26.3029
      vertex 28 -7.8 25.6
      vertex 28 -6.5 25.6
    endloop
  endfacet
  facet normal 0.923879 0 -0.382684
    outer loop
      vertex 30.4 -7.8 28
      vertex 29.6971 -6.5 26.3029
      vertex 30.4 -6.5 28
    endloop
  endfacet
  facet normal 0.923879 0 -0.382684
    outer loop
      vertex 29.6971 -6.5 26.3029
      vertex 30.4 -7.8 28
      vertex 29.6971 -7.8 26.3029
    endloop
  endfacet
endsolid OpenSCAD_Model
