solid OpenSCAD_Model
  facet normal -1 0 0
    outer loop
      vertex 0 0 0
      vertex 0 25 25
      vertex 0 25 0
    endloop
  endfacet
  facet normal -1 -0 0
    outer loop
      vertex 0 25 25
      vertex 0 0 0
      vertex 0 0 25
    endloop
  endfacet
  facet normal 0 0 1
    outer loop
      vertex 40 25 25
      vertex 25.5 16 25
      vertex 40 0 25
    endloop
  endfacet
  facet normal 0 0 1
    outer loop
      vertex 40 25 25
      vertex 14.5 16 25
      vertex 25.5 16 25
    endloop
  endfacet
  facet normal 0 0 1
    outer loop
      vertex 0 0 25
      vertex 14.5 16 25
      vertex 0 25 25
    endloop
  endfacet
  facet normal -0 0 1
    outer loop
      vertex 0 25 25
      vertex 14.5 16 25
      vertex 40 25 25
    endloop
  endfacet
  facet normal -0 0 1
    outer loop
      vertex 25.5 5 25
      vertex 40 0 25
      vertex 25.5 16 25
    endloop
  endfacet
  facet normal -0 0 1
    outer loop
      vertex 14.5 5 25
      vertex 40 0 25
      vertex 25.5 5 25
    endloop
  endfacet
  facet normal 0 0 1
    outer loop
      vertex 14.5 5 25
      vertex 0 0 25
      vertex 40 0 25
    endloop
  endfacet
  facet normal 0 0 1
    outer loop
      vertex 14.5 16 25
      vertex 0 0 25
      vertex 14.5 5 25
    endloop
  endfacet
  facet normal 1 -0 0
    outer loop
      vertex 40 0 25
      vertex 40 25 0
      vertex 40 25 25
    endloop
  endfacet
  facet normal 1 0 0
    outer loop
      vertex 40 25 0
      vertex 40 0 25
      vertex 40 0 0
    endloop
  endfacet
  facet normal 0 0 -1
    outer loop
      vertex 25.5 16 0
      vertex 40 0 0
      vertex 25.5 5 0
    endloop
  endfacet
  facet normal 0 0 -1
    outer loop
      vertex 40 0 0
      vertex 14.5 5 0
      vertex 25.5 5 0
    endloop
  endfacet
  facet normal -0 0 -1
    outer loop
      vertex 14.5 5 0
      vertex 0 0 0
      vertex 14.5 16 0
    endloop
  endfacet
  facet normal 0 0 -1
    outer loop
      vertex 0 0 0
      vertex 14.5 5 0
      vertex 40 0 0
    endloop
  endfacet
  facet normal 0 0 -1
    outer loop
      vertex 40 0 0
      vertex 25.5 16 0
      vertex 40 25 0
    endloop
  endfacet
  facet normal 0 0 -1
    outer loop
      vertex 14.5 16 0
      vertex 40 25 0
      vertex 25.5 16 0
    endloop
  endfacet
  facet normal 0 0 -1
    outer loop
      vertex 14.5 16 0
      vertex 0 25 0
      vertex 40 25 0
    endloop
  endfacet
  facet normal 0 0 -1
    outer loop
      vertex 0 25 0
      vertex 14.5 16 0
      vertex 0 0 0
    endloop
  endfacet
  facet normal 0 -1 0
    outer loop
      vertex 0 0 25
      vertex 4 0 21
      vertex 40 0 25
    endloop
  endfacet
  facet normal 0 -1 0
    outer loop
      vertex 0 0 25
      vertex 4 0 4
      vertex 4 0 21
    endloop
  endfacet
  facet normal 0 -1 -0
    outer loop
      vertex 4 0 4
      vertex 0 0 0
      vertex 36 0 4
    endloop
  endfacet
  facet normal 0 -1 0
    outer loop
      vertex 0 0 0
      vertex 4 0 4
      vertex 0 0 25
    endloop
  endfacet
  facet normal 0 -1 0
    outer loop
      vertex 36 0 21
      vertex 40 0 25
      vertex 4 0 21
    endloop
  endfacet
  facet normal 0 -1 0
    outer loop
      vertex 36 0 4
      vertex 40 0 25
      vertex 36 0 21
    endloop
  endfacet
  facet normal 0 -1 0
    outer loop
      vertex 36 0 4
      vertex 40 0 0
      vertex 40 0 25
    endloop
  endfacet
  facet normal 0 -1 0
    outer loop
      vertex 40 0 0
      vertex 36 0 4
      vertex 0 0 0
    endloop
  endfacet
  facet normal 0 1 -0
    outer loop
      vertex 40 25 0
      vertex 0 25 25
      vertex 40 25 25
    endloop
  endfacet
  facet normal 0 1 0
    outer loop
      vertex 0 25 25
      vertex 40 25 0
      vertex 0 25 0
    endloop
  endfacet
  facet normal 1 -0 0
    outer loop
      vertex 14.5 5 25
      vertex 14.5 16 21
      vertex 14.5 16 25
    endloop
  endfacet
  facet normal 1 0 0
    outer loop
      vertex 14.5 16 21
      vertex 14.5 5 25
      vertex 14.5 5 21
    endloop
  endfacet
  facet normal 1 -0 0
    outer loop
      vertex 14.5 5 4
      vertex 14.5 16 0
      vertex 14.5 16 4
    endloop
  endfacet
  facet normal 1 0 0
    outer loop
      vertex 14.5 16 0
      vertex 14.5 5 4
      vertex 14.5 5 0
    endloop
  endfacet
  facet normal -1 0 0
    outer loop
      vertex 25.5 5 21
      vertex 25.5 16 25
      vertex 25.5 16 21
    endloop
  endfacet
  facet normal -1 -0 0
    outer loop
      vertex 25.5 16 25
      vertex 25.5 5 21
      vertex 25.5 5 25
    endloop
  endfacet
  facet normal -1 0 0
    outer loop
      vertex 25.5 5 0
      vertex 25.5 16 4
      vertex 25.5 16 0
    endloop
  endfacet
  facet normal -1 -0 0
    outer loop
      vertex 25.5 16 4
      vertex 25.5 5 0
      vertex 25.5 5 4
    endloop
  endfacet
  facet normal 0 -1 0
    outer loop
      vertex 14.5 16 21
      vertex 25.5 16 25
      vertex 14.5 16 25
    endloop
  endfacet
  facet normal 0 -1 -0
    outer loop
      vertex 25.5 16 25
      vertex 14.5 16 21
      vertex 25.5 16 21
    endloop
  endfacet
  facet normal 0 -1 0
    outer loop
      vertex 14.5 16 0
      vertex 25.5 16 4
      vertex 14.5 16 4
    endloop
  endfacet
  facet normal 0 -1 -0
    outer loop
      vertex 25.5 16 4
      vertex 14.5 16 0
      vertex 25.5 16 0
    endloop
  endfacet
  facet normal 0 1 -0
    outer loop
      vertex 25.5 5 21
      vertex 14.5 5 25
      vertex 25.5 5 25
    endloop
  endfacet
  facet normal 0 1 0
    outer loop
      vertex 14.5 5 25
      vertex 25.5 5 21
      vertex 14.5 5 21
    endloop
  endfacet
  facet normal 0 1 -0
    outer loop
      vertex 25.5 5 0
      vertex 14.5 5 4
      vertex 25.5 5 4
    endloop
  endfacet
  facet normal 0 1 0
    outer loop
      vertex 14.5 5 4
      vertex 25.5 5 0
      vertex 14.5 5 0
    endloop
  endfacet
  facet normal 1 -0 0
    outer loop
      vertex 4 0 21
      vertex 4 22.5 4
      vertex 4 22.5 21
    endloop
  endfacet
  facet normal 1 0 0
    outer loop
      vertex 4 22.5 4
      vertex 4 0 21
      vertex 4 0 4
    endloop
  endfacet
  facet normal 0 0 -1
    outer loop
      vertex 25.5 16 21
      vertex 36 0 21
      vertex 25.5 5 21
    endloop
  endfacet
  facet normal 0 0 -1
    outer loop
      vertex 36 0 21
      vertex 14.5 5 21
      vertex 25.5 5 21
    endloop
  endfacet
  facet normal -0 0 -1
    outer loop
      vertex 14.5 5 21
      vertex 4 0 21
      vertex 14.5 16 21
    endloop
  endfacet
  facet normal 0 0 -1
    outer loop
      vertex 4 0 21
      vertex 14.5 5 21
      vertex 36 0 21
    endloop
  endfacet
  facet normal 0 0 -1
    outer loop
      vertex 36 0 21
      vertex 25.5 16 21
      vertex 36 22.5 21
    endloop
  endfacet
  facet normal 0 0 -1
    outer loop
      vertex 14.5 16 21
      vertex 36 22.5 21
      vertex 25.5 16 21
    endloop
  endfacet
  facet normal 0 0 -1
    outer loop
      vertex 14.5 16 21
      vertex 4 22.5 21
      vertex 36 22.5 21
    endloop
  endfacet
  facet normal 0 0 -1
    outer loop
      vertex 4 22.5 21
      vertex 14.5 16 21
      vertex 4 0 21
    endloop
  endfacet
  facet normal -1 0 0
    outer loop
      vertex 36 0 4
      vertex 36 22.5 21
      vertex 36 22.5 4
    endloop
  endfacet
  facet normal -1 -0 0
    outer loop
      vertex 36 22.5 21
      vertex 36 0 4
      vertex 36 0 21
    endloop
  endfacet
  facet normal 0 -1 0
    outer loop
      vertex 4 22.5 4
      vertex 36 22.5 21
      vertex 4 22.5 21
    endloop
  endfacet
  facet normal 0 -1 -0
    outer loop
      vertex 36 22.5 21
      vertex 4 22.5 4
      vertex 36 22.5 4
    endloop
  endfacet
  facet normal 0 0 1
    outer loop
      vertex 36 22.5 4
      vertex 25.5 16 4
      vertex 36 0 4
    endloop
  endfacet
  facet normal 0 0 1
    outer loop
      vertex 36 22.5 4
      vertex 14.5 16 4
      vertex 25.5 16 4
    endloop
  endfacet
  facet normal 0 0 1
    outer loop
      vertex 4 0 4
      vertex 14.5 16 4
      vertex 4 22.5 4
    endloop
  endfacet
  facet normal -0 0 1
    outer loop
      vertex 4 22.5 4
      vertex 14.5 16 4
      vertex 36 22.5 4
    endloop
  endfacet
  facet normal -0 0 1
    outer loop
      vertex 25.5 5 4
      vertex 36 0 4
      vertex 25.5 16 4
    endloop
  endfacet
  facet normal -0 0 1
    outer loop
      vertex 14.5 5 4
      vertex 36 0 4
      vertex 25.5 5 4
    endloop
  endfacet
  facet normal 0 0 1
    outer loop
      vertex 14.5 5 4
      vertex 4 0 4
      vertex 36 0 4
    endloop
  endfacet
  facet normal 0 0 1
    outer loop
      vertex 14.5 16 4
      vertex 4 0 4
      vertex 14.5 5 4
    endloop
  endfacet
  facet normal 0.923879 -0 0.382684
    outer loop
      vertex 5.69706 25 5.69706
      vertex 6.4 26.8 4
      vertex 5.69706 26.8 5.69706
    endloop
  endfacet
  facet normal 0.923879 0 0.382684
    outer loop
      vertex 6.4 26.8 4
      vertex 5.69706 25 5.69706
      vertex 6.4 25 4
    endloop
  endfacet
  facet normal -0.923879 0 0.382684
    outer loop
      vertex 1.6 25 4
      vertex 2.30294 26.8 5.69706
      vertex 1.6 26.8 4
    endloop
  endfacet
  facet normal -0.923879 0 0.382684
    outer loop
      vertex 2.30294 26.8 5.69706
      vertex 1.6 25 4
      vertex 2.30294 25 5.69706
    endloop
  endfacet
  facet normal 0.382684 0 0.923879
    outer loop
      vertex 4 26.8 6.4
      vertex 5.69706 25 5.69706
      vertex 5.69706 26.8 5.69706
    endloop
  endfacet
  facet normal 0.382684 0 0.923879
    outer loop
      vertex 5.69706 25 5.69706
      vertex 4 26.8 6.4
      vertex 4 25 6.4
    endloop
  endfacet
  facet normal 0 -1 0
    outer loop
      vertex 2.30294 25 5.69706
      vertex 5.69706 25 5.69706
      vertex 4 25 6.4
    endloop
  endfacet
  facet normal 0 -1 0
    outer loop
      vertex 1.6 25 4
      vertex 5.69706 25 5.69706
      vertex 2.30294 25 5.69706
    endloop
  endfacet
  facet normal 0 -1 0
    outer loop
      vertex 1.6 25 4
      vertex 6.4 25 4
      vertex 5.69706 25 5.69706
    endloop
  endfacet
  facet normal 0 -1 0
    outer loop
      vertex 2.30294 25 2.30294
      vertex 6.4 25 4
      vertex 1.6 25 4
    endloop
  endfacet
  facet normal 0 -1 0
    outer loop
      vertex 2.30294 25 2.30294
      vertex 5.69706 25 2.30294
      vertex 6.4 25 4
    endloop
  endfacet
  facet normal -0 -1 0
    outer loop
      vertex 5.69706 25 2.30294
      vertex 2.30294 25 2.30294
      vertex 4 25 1.6
    endloop
  endfacet
  facet normal -0.382684 0 0.923879
    outer loop
      vertex 2.30294 26.8 5.69706
      vertex 4 25 6.4
      vertex 4 26.8 6.4
    endloop
  endfacet
  facet normal -0.382684 0 0.923879
    outer loop
      vertex 4 25 6.4
      vertex 2.30294 26.8 5.69706
      vertex 2.30294 25 5.69706
    endloop
  endfacet
  facet normal 0.382684 0 -0.923879
    outer loop
      vertex 4 25 1.6
      vertex 5.69706 26.8 2.30294
      vertex 5.69706 25 2.30294
    endloop
  endfacet
  facet normal 0.382684 0 -0.923879
    outer loop
      vertex 5.69706 26.8 2.30294
      vertex 4 25 1.6
      vertex 4 26.8 1.6
    endloop
  endfacet
  facet normal -0.923879 0 -0.382684
    outer loop
      vertex 2.30294 25 2.30294
      vertex 1.6 26.8 4
      vertex 2.30294 26.8 2.30294
    endloop
  endfacet
  facet normal -0.923879 -0 -0.382684
    outer loop
      vertex 1.6 26.8 4
      vertex 2.30294 25 2.30294
      vertex 1.6 25 4
    endloop
  endfacet
  facet normal 0.923879 0 -0.382684
    outer loop
      vertex 6.4 25 4
      vertex 5.69706 26.8 2.30294
      vertex 6.4 26.8 4
    endloop
  endfacet
  facet normal 0.923879 0 -0.382684
    outer loop
      vertex 5.69706 26.8 2.30294
      vertex 6.4 25 4
      vertex 5.69706 25 2.30294
    endloop
  endfacet
  facet normal -0.382684 0 -0.923879
    outer loop
      vertex 2.30294 25 2.30294
      vertex 4 26.8 1.6
      vertex 4 25 1.6
    endloop
  endfacet
  facet normal -0.382684 0 -0.923879
    outer loop
      vertex 4 26.8 1.6
      vertex 2.30294 25 2.30294
      vertex 2.30294 26.8 2.30294
    endloop
  endfacet
  facet normal 0.923879 -0 0.382684
    outer loop
      vertex 5.69706 25 13.6971
      vertex 6.4 26.8 12
      vertex 5.69706 26.8 13.6971
    endloop
  endfacet
  facet normal 0.923879 0 0.382684
    outer loop
      vertex 6.4 26.8 12
      vertex 5.69706 25 13.6971
      vertex 6.4 25 12
    endloop
  endfacet
  facet normal -0.382684 0 0.923879
    outer loop
      vertex 2.30294 26.8 13.6971
      vertex 4 25 14.4
      vertex 4 26.8 14.4
    endloop
  endfacet
  facet normal -0.382684 0 0.923879
    outer loop
      vertex 4 25 14.4
      vertex 2.30294 26.8 13.6971
      vertex 2.30294 25 13.6971
    endloop
  endfacet
  facet normal 0.382684 0 0.923879
    outer loop
      vertex 4 26.8 14.4
      vertex 5.69706 25 13.6971
      vertex 5.69706 26.8 13.6971
    endloop
  endfacet
  facet normal 0.382684 0 0.923879
    outer loop
      vertex 5.69706 25 13.6971
      vertex 4 26.8 14.4
      vertex 4 25 14.4
    endloop
  endfacet
  facet normal 0 -1 0
    outer loop
      vertex 2.30294 25 13.6971
      vertex 5.69706 25 13.6971
      vertex 4 25 14.4
    endloop
  endfacet
  facet normal 0 -1 0
    outer loop
      vertex 1.6 25 12
      vertex 5.69706 25 13.6971
      vertex 2.30294 25 13.6971
    endloop
  endfacet
  facet normal 0 -1 0
    outer loop
      vertex 1.6 25 12
      vertex 6.4 25 12
      vertex 5.69706 25 13.6971
    endloop
  endfacet
  facet normal 0 -1 0
    outer loop
      vertex 2.30294 25 10.3029
      vertex 6.4 25 12
      vertex 1.6 25 12
    endloop
  endfacet
  facet normal 0 -1 0
    outer loop
      vertex 2.30294 25 10.3029
      vertex 5.69706 25 10.3029
      vertex 6.4 25 12
    endloop
  endfacet
  facet normal -0 -1 0
    outer loop
      vertex 5.69706 25 10.3029
      vertex 2.30294 25 10.3029
      vertex 4 25 9.6
    endloop
  endfacet
  facet normal -0.923879 0 0.382684
    outer loop
      vertex 1.6 25 12
      vertex 2.30294 26.8 13.6971
      vertex 1.6 26.8 12
    endloop
  endfacet
  facet normal -0.923879 0 0.382684
    outer loop
      vertex 2.30294 26.8 13.6971
      vertex 1.6 25 12
      vertex 2.30294 25 13.6971
    endloop
  endfacet
  facet normal 0.92388 0 -0.382683
    outer loop
      vertex 6.4 25 12
      vertex 5.69706 26.8 10.3029
      vertex 6.4 26.8 12
    endloop
  endfacet
  facet normal 0.92388 0 -0.382683
    outer loop
      vertex 5.69706 26.8 10.3029
      vertex 6.4 25 12
      vertex 5.69706 25 10.3029
    endloop
  endfacet
  facet normal -0.382684 0 -0.923879
    outer loop
      vertex 2.30294 25 10.3029
      vertex 4 26.8 9.6
      vertex 4 25 9.6
    endloop
  endfacet
  facet normal -0.382684 0 -0.923879
    outer loop
      vertex 4 26.8 9.6
      vertex 2.30294 25 10.3029
      vertex 2.30294 26.8 10.3029
    endloop
  endfacet
  facet normal -0.92388 0 -0.382683
    outer loop
      vertex 2.30294 25 10.3029
      vertex 1.6 26.8 12
      vertex 2.30294 26.8 10.3029
    endloop
  endfacet
  facet normal -0.92388 -0 -0.382683
    outer loop
      vertex 1.6 26.8 12
      vertex 2.30294 25 10.3029
      vertex 1.6 25 12
    endloop
  endfacet
  facet normal 0.382684 0 -0.923879
    outer loop
      vertex 4 25 9.6
      vertex 5.69706 26.8 10.3029
      vertex 5.69706 25 10.3029
    endloop
  endfacet
  facet normal 0.382684 0 -0.923879
    outer loop
      vertex 5.69706 26.8 10.3029
      vertex 4 25 9.6
      vertex 4 26.8 9.6
    endloop
  endfacet
  facet normal 0.923879 -0 0.382684
    outer loop
      vertex 5.69706 25 21.6971
      vertex 6.4 26.8 20
      vertex 5.69706 26.8 21.6971
    endloop
  endfacet
  facet normal 0.923879 0 0.382684
    outer loop
      vertex 6.4 26.8 20
      vertex 5.69706 25 21.6971
      vertex 6.4 25 20
    endloop
  endfacet
  facet normal -0.382684 0 0.923879
    outer loop
      vertex 2.30294 26.8 21.6971
      vertex 4 25 22.4
      vertex 4 26.8 22.4
    endloop
  endfacet
  facet normal -0.382684 0 0.923879
    outer loop
      vertex 4 25 22.4
      vertex 2.30294 26.8 21.6971
      vertex 2.30294 25 21.6971
    endloop
  endfacet
  facet normal 0.382684 0 0.923879
    outer loop
      vertex 4 26.8 22.4
      vertex 5.69706 25 21.6971
      vertex 5.69706 26.8 21.6971
    endloop
  endfacet
  facet normal 0.382684 0 0.923879
    outer loop
      vertex 5.69706 25 21.6971
      vertex 4 26.8 22.4
      vertex 4 25 22.4
    endloop
  endfacet
  facet normal 0 -1 0
    outer loop
      vertex 2.30294 25 21.6971
      vertex 5.69706 25 21.6971
      vertex 4 25 22.4
    endloop
  endfacet
  facet normal 0 -1 0
    outer loop
      vertex 1.6 25 20
      vertex 5.69706 25 21.6971
      vertex 2.30294 25 21.6971
    endloop
  endfacet
  facet normal 0 -1 0
    outer loop
      vertex 1.6 25 20
      vertex 6.4 25 20
      vertex 5.69706 25 21.6971
    endloop
  endfacet
  facet normal 0 -1 0
    outer loop
      vertex 2.30294 25 18.3029
      vertex 6.4 25 20
      vertex 1.6 25 20
    endloop
  endfacet
  facet normal 0 -1 0
    outer loop
      vertex 2.30294 25 18.3029
      vertex 5.69706 25 18.3029
      vertex 6.4 25 20
    endloop
  endfacet
  facet normal -0 -1 0
    outer loop
      vertex 5.69706 25 18.3029
      vertex 2.30294 25 18.3029
      vertex 4 25 17.6
    endloop
  endfacet
  facet normal -0.923879 0 0.382684
    outer loop
      vertex 1.6 25 20
      vertex 2.30294 26.8 21.6971
      vertex 1.6 26.8 20
    endloop
  endfacet
  facet normal -0.923879 0 0.382684
    outer loop
      vertex 2.30294 26.8 21.6971
      vertex 1.6 25 20
      vertex 2.30294 25 21.6971
    endloop
  endfacet
  facet normal 0.923879 0 -0.382684
    outer loop
      vertex 6.4 25 20
      vertex 5.69706 26.8 18.3029
      vertex 6.4 26.8 20
    endloop
  endfacet
  facet normal 0.923879 0 -0.382684
    outer loop
      vertex 5.69706 26.8 18.3029
      vertex 6.4 25 20
      vertex 5.69706 25 18.3029
    endloop
  endfacet
  facet normal -0.382684 0 -0.923879
    outer loop
      vertex 2.30294 25 18.3029
      vertex 4 26.8 17.6
      vertex 4 25 17.6
    endloop
  endfacet
  facet normal -0.382684 0 -0.923879
    outer loop
      vertex 4 26.8 17.6
      vertex 2.30294 25 18.3029
      vertex 2.30294 26.8 18.3029
    endloop
  endfacet
  facet normal -0.923879 0 -0.382684
    outer loop
      vertex 2.30294 25 18.3029
      vertex 1.6 26.8 20
      vertex 2.30294 26.8 18.3029
    endloop
  endfacet
  facet normal -0.923879 -0 -0.382684
    outer loop
      vertex 1.6 26.8 20
      vertex 2.30294 25 18.3029
      vertex 1.6 25 20
    endloop
  endfacet
  facet normal 0.382684 0 -0.923879
    outer loop
      vertex 4 25 17.6
      vertex 5.69706 26.8 18.3029
      vertex 5.69706 25 18.3029
    endloop
  endfacet
  facet normal 0.382684 0 -0.923879
    outer loop
      vertex 5.69706 26.8 18.3029
      vertex 4 25 17.6
      vertex 4 26.8 17.6
    endloop
  endfacet
  facet normal 0.923879 -0 0.382684
    outer loop
      vertex 13.6971 25 5.69706
      vertex 14.4 26.8 4
      vertex 13.6971 26.8 5.69706
    endloop
  endfacet
  facet normal 0.923879 0 0.382684
    outer loop
      vertex 14.4 26.8 4
      vertex 13.6971 25 5.69706
      vertex 14.4 25 4
    endloop
  endfacet
  facet normal -0.923879 0 0.382684
    outer loop
      vertex 9.6 25 4
      vertex 10.3029 26.8 5.69706
      vertex 9.6 26.8 4
    endloop
  endfacet
  facet normal -0.923879 0 0.382684
    outer loop
      vertex 10.3029 26.8 5.69706
      vertex 9.6 25 4
      vertex 10.3029 25 5.69706
    endloop
  endfacet
  facet normal 0.382684 0 0.923879
    outer loop
      vertex 12 26.8 6.4
      vertex 13.6971 25 5.69706
      vertex 13.6971 26.8 5.69706
    endloop
  endfacet
  facet normal 0.382684 0 0.923879
    outer loop
      vertex 13.6971 25 5.69706
      vertex 12 26.8 6.4
      vertex 12 25 6.4
    endloop
  endfacet
  facet normal 0 -1 0
    outer loop
      vertex 10.3029 25 5.69706
      vertex 13.6971 25 5.69706
      vertex 12 25 6.4
    endloop
  endfacet
  facet normal 0 -1 0
    outer loop
      vertex 9.6 25 4
      vertex 13.6971 25 5.69706
      vertex 10.3029 25 5.69706
    endloop
  endfacet
  facet normal 0 -1 0
    outer loop
      vertex 9.6 25 4
      vertex 14.4 25 4
      vertex 13.6971 25 5.69706
    endloop
  endfacet
  facet normal 0 -1 0
    outer loop
      vertex 10.3029 25 2.30294
      vertex 14.4 25 4
      vertex 9.6 25 4
    endloop
  endfacet
  facet normal 0 -1 0
    outer loop
      vertex 10.3029 25 2.30294
      vertex 13.6971 25 2.30294
      vertex 14.4 25 4
    endloop
  endfacet
  facet normal -0 -1 0
    outer loop
      vertex 13.6971 25 2.30294
      vertex 10.3029 25 2.30294
      vertex 12 25 1.6
    endloop
  endfacet
  facet normal -0.382683 0 0.92388
    outer loop
      vertex 10.3029 26.8 5.69706
      vertex 12 25 6.4
      vertex 12 26.8 6.4
    endloop
  endfacet
  facet normal -0.382683 0 0.92388
    outer loop
      vertex 12 25 6.4
      vertex 10.3029 26.8 5.69706
      vertex 10.3029 25 5.69706
    endloop
  endfacet
  facet normal 0.382684 0 -0.923879
    outer loop
      vertex 12 25 1.6
      vertex 13.6971 26.8 2.30294
      vertex 13.6971 25 2.30294
    endloop
  endfacet
  facet normal 0.382684 0 -0.923879
    outer loop
      vertex 13.6971 26.8 2.30294
      vertex 12 25 1.6
      vertex 12 26.8 1.6
    endloop
  endfacet
  facet normal -0.923879 0 -0.382684
    outer loop
      vertex 10.3029 25 2.30294
      vertex 9.6 26.8 4
      vertex 10.3029 26.8 2.30294
    endloop
  endfacet
  facet normal -0.923879 -0 -0.382684
    outer loop
      vertex 9.6 26.8 4
      vertex 10.3029 25 2.30294
      vertex 9.6 25 4
    endloop
  endfacet
  facet normal 0.923879 0 -0.382684
    outer loop
      vertex 14.4 25 4
      vertex 13.6971 26.8 2.30294
      vertex 14.4 26.8 4
    endloop
  endfacet
  facet normal 0.923879 0 -0.382684
    outer loop
      vertex 13.6971 26.8 2.30294
      vertex 14.4 25 4
      vertex 13.6971 25 2.30294
    endloop
  endfacet
  facet normal -0.382683 0 -0.92388
    outer loop
      vertex 10.3029 25 2.30294
      vertex 12 26.8 1.6
      vertex 12 25 1.6
    endloop
  endfacet
  facet normal -0.382683 0 -0.92388
    outer loop
      vertex 12 26.8 1.6
      vertex 10.3029 25 2.30294
      vertex 10.3029 26.8 2.30294
    endloop
  endfacet
  facet normal 0.923879 -0 0.382684
    outer loop
      vertex 13.6971 25 13.6971
      vertex 14.4 26.8 12
      vertex 13.6971 26.8 13.6971
    endloop
  endfacet
  facet normal 0.923879 0 0.382684
    outer loop
      vertex 14.4 26.8 12
      vertex 13.6971 25 13.6971
      vertex 14.4 25 12
    endloop
  endfacet
  facet normal -0.92388 0 -0.382683
    outer loop
      vertex 10.3029 25 10.3029
      vertex 9.6 26.8 12
      vertex 10.3029 26.8 10.3029
    endloop
  endfacet
  facet normal -0.92388 -0 -0.382683
    outer loop
      vertex 9.6 26.8 12
      vertex 10.3029 25 10.3029
      vertex 9.6 25 12
    endloop
  endfacet
  facet normal -0.382683 0 0.92388
    outer loop
      vertex 10.3029 26.8 13.6971
      vertex 12 25 14.4
      vertex 12 26.8 14.4
    endloop
  endfacet
  facet normal -0.382683 0 0.92388
    outer loop
      vertex 12 25 14.4
      vertex 10.3029 26.8 13.6971
      vertex 10.3029 25 13.6971
    endloop
  endfacet
  facet normal 0.382684 0 0.923879
    outer loop
      vertex 12 26.8 14.4
      vertex 13.6971 25 13.6971
      vertex 13.6971 26.8 13.6971
    endloop
  endfacet
  facet normal 0.382684 0 0.923879
    outer loop
      vertex 13.6971 25 13.6971
      vertex 12 26.8 14.4
      vertex 12 25 14.4
    endloop
  endfacet
  facet normal 0 -1 0
    outer loop
      vertex 10.3029 25 13.6971
      vertex 13.6971 25 13.6971
      vertex 12 25 14.4
    endloop
  endfacet
  facet normal 0 -1 0
    outer loop
      vertex 9.6 25 12
      vertex 13.6971 25 13.6971
      vertex 10.3029 25 13.6971
    endloop
  endfacet
  facet normal 0 -1 0
    outer loop
      vertex 9.6 25 12
      vertex 14.4 25 12
      vertex 13.6971 25 13.6971
    endloop
  endfacet
  facet normal 0 -1 0
    outer loop
      vertex 10.3029 25 10.3029
      vertex 14.4 25 12
      vertex 9.6 25 12
    endloop
  endfacet
  facet normal 0 -1 0
    outer loop
      vertex 10.3029 25 10.3029
      vertex 13.6971 25 10.3029
      vertex 14.4 25 12
    endloop
  endfacet
  facet normal -0 -1 0
    outer loop
      vertex 13.6971 25 10.3029
      vertex 10.3029 25 10.3029
      vertex 12 25 9.6
    endloop
  endfacet
  facet normal -0.923879 0 0.382684
    outer loop
      vertex 9.6 25 12
      vertex 10.3029 26.8 13.6971
      vertex 9.6 26.8 12
    endloop
  endfacet
  facet normal -0.923879 0 0.382684
    outer loop
      vertex 10.3029 26.8 13.6971
      vertex 9.6 25 12
      vertex 10.3029 25 13.6971
    endloop
  endfacet
  facet normal 0.92388 0 -0.382683
    outer loop
      vertex 14.4 25 12
      vertex 13.6971 26.8 10.3029
      vertex 14.4 26.8 12
    endloop
  endfacet
  facet normal 0.92388 0 -0.382683
    outer loop
      vertex 13.6971 26.8 10.3029
      vertex 14.4 25 12
      vertex 13.6971 25 10.3029
    endloop
  endfacet
  facet normal 0.382684 0 -0.923879
    outer loop
      vertex 12 25 9.6
      vertex 13.6971 26.8 10.3029
      vertex 13.6971 25 10.3029
    endloop
  endfacet
  facet normal 0.382684 0 -0.923879
    outer loop
      vertex 13.6971 26.8 10.3029
      vertex 12 25 9.6
      vertex 12 26.8 9.6
    endloop
  endfacet
  facet normal -0.382683 0 -0.92388
    outer loop
      vertex 10.3029 25 10.3029
      vertex 12 26.8 9.6
      vertex 12 25 9.6
    endloop
  endfacet
  facet normal -0.382683 0 -0.92388
    outer loop
      vertex 12 26.8 9.6
      vertex 10.3029 25 10.3029
      vertex 10.3029 26.8 10.3029
    endloop
  endfacet
  facet normal 0.923879 -0 0.382684
    outer loop
      vertex 13.6971 25 21.6971
      vertex 14.4 26.8 20
      vertex 13.6971 26.8 21.6971
    endloop
  endfacet
  facet normal 0.923879 0 0.382684
    outer loop
      vertex 14.4 26.8 20
      vertex 13.6971 25 21.6971
      vertex 14.4 25 20
    endloop
  endfacet
  facet normal -0.923879 0 -0.382684
    outer loop
      vertex 10.3029 25 18.3029
      vertex 9.6 26.8 20
      vertex 10.3029 26.8 18.3029
    endloop
  endfacet
  facet normal -0.923879 -0 -0.382684
    outer loop
      vertex 9.6 26.8 20
      vertex 10.3029 25 18.3029
      vertex 9.6 25 20
    endloop
  endfacet
  facet normal -0.382683 0 0.92388
    outer loop
      vertex 10.3029 26.8 21.6971
      vertex 12 25 22.4
      vertex 12 26.8 22.4
    endloop
  endfacet
  facet normal -0.382683 0 0.92388
    outer loop
      vertex 12 25 22.4
      vertex 10.3029 26.8 21.6971
      vertex 10.3029 25 21.6971
    endloop
  endfacet
  facet normal 0.382684 0 0.923879
    outer loop
      vertex 12 26.8 22.4
      vertex 13.6971 25 21.6971
      vertex 13.6971 26.8 21.6971
    endloop
  endfacet
  facet normal 0.382684 0 0.923879
    outer loop
      vertex 13.6971 25 21.6971
      vertex 12 26.8 22.4
      vertex 12 25 22.4
    endloop
  endfacet
  facet normal 0 -1 0
    outer loop
      vertex 10.3029 25 21.6971
      vertex 13.6971 25 21.6971
      vertex 12 25 22.4
    endloop
  endfacet
  facet normal 0 -1 0
    outer loop
      vertex 9.6 25 20
      vertex 13.6971 25 21.6971
      vertex 10.3029 25 21.6971
    endloop
  endfacet
  facet normal 0 -1 0
    outer loop
      vertex 9.6 25 20
      vertex 14.4 25 20
      vertex 13.6971 25 21.6971
    endloop
  endfacet
  facet normal 0 -1 0
    outer loop
      vertex 10.3029 25 18.3029
      vertex 14.4 25 20
      vertex 9.6 25 20
    endloop
  endfacet
  facet normal 0 -1 0
    outer loop
      vertex 10.3029 25 18.3029
      vertex 13.6971 25 18.3029
      vertex 14.4 25 20
    endloop
  endfacet
  facet normal -0 -1 0
    outer loop
      vertex 13.6971 25 18.3029
      vertex 10.3029 25 18.3029
      vertex 12 25 17.6
    endloop
  endfacet
  facet normal -0.923879 0 0.382684
    outer loop
      vertex 9.6 25 20
      vertex 10.3029 26.8 21.6971
      vertex 9.6 26.8 20
    endloop
  endfacet
  facet normal -0.923879 0 0.382684
    outer loop
      vertex 10.3029 26.8 21.6971
      vertex 9.6 25 20
      vertex 10.3029 25 21.6971
    endloop
  endfacet
  facet normal 0.923879 0 -0.382684
    outer loop
      vertex 14.4 25 20
      vertex 13.6971 26.8 18.3029
      vertex 14.4 26.8 20
    endloop
  endfacet
  facet normal 0.923879 0 -0.382684
    outer loop
      vertex 13.6971 26.8 18.3029
      vertex 14.4 25 20
      vertex 13.6971 25 18.3029
    endloop
  endfacet
  facet normal 0.382684 0 -0.923879
    outer loop
      vertex 12 25 17.6
      vertex 13.6971 26.8 18.3029
      vertex 13.6971 25 18.3029
    endloop
  endfacet
  facet normal 0.382684 0 -0.923879
    outer loop
      vertex 13.6971 26.8 18.3029
      vertex 12 25 17.6
      vertex 12 26.8 17.6
    endloop
  endfacet
  facet normal -0.382684 0 -0.923879
    outer loop
      vertex 10.3029 25 18.3029
      vertex 12 26.8 17.6
      vertex 12 25 17.6
    endloop
  endfacet
  facet normal -0.382684 0 -0.923879
    outer loop
      vertex 12 26.8 17.6
      vertex 10.3029 25 18.3029
      vertex 10.3029 26.8 18.3029
    endloop
  endfacet
  facet normal 0.923879 -0 0.382684
    outer loop
      vertex 21.6971 25 5.69706
      vertex 22.4 26.8 4
      vertex 21.6971 26.8 5.69706
    endloop
  endfacet
  facet normal 0.923879 0 0.382684
    outer loop
      vertex 22.4 26.8 4
      vertex 21.6971 25 5.69706
      vertex 22.4 25 4
    endloop
  endfacet
  facet normal -0.923879 0 0.382684
    outer loop
      vertex 17.6 25 4
      vertex 18.3029 26.8 5.69706
      vertex 17.6 26.8 4
    endloop
  endfacet
  facet normal -0.923879 0 0.382684
    outer loop
      vertex 18.3029 26.8 5.69706
      vertex 17.6 25 4
      vertex 18.3029 25 5.69706
    endloop
  endfacet
  facet normal 0.382684 0 0.923879
    outer loop
      vertex 20 26.8 6.4
      vertex 21.6971 25 5.69706
      vertex 21.6971 26.8 5.69706
    endloop
  endfacet
  facet normal 0.382684 0 0.923879
    outer loop
      vertex 21.6971 25 5.69706
      vertex 20 26.8 6.4
      vertex 20 25 6.4
    endloop
  endfacet
  facet normal -0.382684 0 0.923879
    outer loop
      vertex 18.3029 26.8 5.69706
      vertex 20 25 6.4
      vertex 20 26.8 6.4
    endloop
  endfacet
  facet normal -0.382684 0 0.923879
    outer loop
      vertex 20 25 6.4
      vertex 18.3029 26.8 5.69706
      vertex 18.3029 25 5.69706
    endloop
  endfacet
  facet normal 0.382684 0 -0.923879
    outer loop
      vertex 20 25 1.6
      vertex 21.6971 26.8 2.30294
      vertex 21.6971 25 2.30294
    endloop
  endfacet
  facet normal 0.382684 0 -0.923879
    outer loop
      vertex 21.6971 26.8 2.30294
      vertex 20 25 1.6
      vertex 20 26.8 1.6
    endloop
  endfacet
  facet normal -0.923879 0 -0.382684
    outer loop
      vertex 18.3029 25 2.30294
      vertex 17.6 26.8 4
      vertex 18.3029 26.8 2.30294
    endloop
  endfacet
  facet normal -0.923879 -0 -0.382684
    outer loop
      vertex 17.6 26.8 4
      vertex 18.3029 25 2.30294
      vertex 17.6 25 4
    endloop
  endfacet
  facet normal 0.923879 0 -0.382684
    outer loop
      vertex 22.4 25 4
      vertex 21.6971 26.8 2.30294
      vertex 22.4 26.8 4
    endloop
  endfacet
  facet normal 0.923879 0 -0.382684
    outer loop
      vertex 21.6971 26.8 2.30294
      vertex 22.4 25 4
      vertex 21.6971 25 2.30294
    endloop
  endfacet
  facet normal -0.382684 0 -0.923879
    outer loop
      vertex 18.3029 25 2.30294
      vertex 20 26.8 1.6
      vertex 20 25 1.6
    endloop
  endfacet
  facet normal -0.382684 0 -0.923879
    outer loop
      vertex 20 26.8 1.6
      vertex 18.3029 25 2.30294
      vertex 18.3029 26.8 2.30294
    endloop
  endfacet
  facet normal 0 -1 0
    outer loop
      vertex 18.3029 25 5.69706
      vertex 21.6971 25 5.69706
      vertex 20 25 6.4
    endloop
  endfacet
  facet normal 0 -1 0
    outer loop
      vertex 17.6 25 4
      vertex 21.6971 25 5.69706
      vertex 18.3029 25 5.69706
    endloop
  endfacet
  facet normal 0 -1 0
    outer loop
      vertex 17.6 25 4
      vertex 22.4 25 4
      vertex 21.6971 25 5.69706
    endloop
  endfacet
  facet normal 0 -1 0
    outer loop
      vertex 18.3029 25 2.30294
      vertex 22.4 25 4
      vertex 17.6 25 4
    endloop
  endfacet
  facet normal 0 -1 0
    outer loop
      vertex 18.3029 25 2.30294
      vertex 21.6971 25 2.30294
      vertex 22.4 25 4
    endloop
  endfacet
  facet normal -0 -1 0
    outer loop
      vertex 21.6971 25 2.30294
      vertex 18.3029 25 2.30294
      vertex 20 25 1.6
    endloop
  endfacet
  facet normal 0.923879 -0 0.382684
    outer loop
      vertex 21.6971 25 13.6971
      vertex 22.4 26.8 12
      vertex 21.6971 26.8 13.6971
    endloop
  endfacet
  facet normal 0.923879 0 0.382684
    outer loop
      vertex 22.4 26.8 12
      vertex 21.6971 25 13.6971
      vertex 22.4 25 12
    endloop
  endfacet
  facet normal -0.923879 0 -0.382684
    outer loop
      vertex 18.3029 25 10.3029
      vertex 17.6 26.8 12
      vertex 18.3029 26.8 10.3029
    endloop
  endfacet
  facet normal -0.923879 -0 -0.382684
    outer loop
      vertex 17.6 26.8 12
      vertex 18.3029 25 10.3029
      vertex 17.6 25 12
    endloop
  endfacet
  facet normal -0.382684 0 0.923879
    outer loop
      vertex 18.3029 26.8 13.6971
      vertex 20 25 14.4
      vertex 20 26.8 14.4
    endloop
  endfacet
  facet normal -0.382684 0 0.923879
    outer loop
      vertex 20 25 14.4
      vertex 18.3029 26.8 13.6971
      vertex 18.3029 25 13.6971
    endloop
  endfacet
  facet normal 0.382684 0 0.923879
    outer loop
      vertex 20 26.8 14.4
      vertex 21.6971 25 13.6971
      vertex 21.6971 26.8 13.6971
    endloop
  endfacet
  facet normal 0.382684 0 0.923879
    outer loop
      vertex 21.6971 25 13.6971
      vertex 20 26.8 14.4
      vertex 20 25 14.4
    endloop
  endfacet
  facet normal 0 -1 0
    outer loop
      vertex 18.3029 25 13.6971
      vertex 21.6971 25 13.6971
      vertex 20 25 14.4
    endloop
  endfacet
  facet normal 0 -1 0
    outer loop
      vertex 17.6 25 12
      vertex 21.6971 25 13.6971
      vertex 18.3029 25 13.6971
    endloop
  endfacet
  facet normal 0 -1 0
    outer loop
      vertex 17.6 25 12
      vertex 22.4 25 12
      vertex 21.6971 25 13.6971
    endloop
  endfacet
  facet normal 0 -1 0
    outer loop
      vertex 18.3029 25 10.3029
      vertex 22.4 25 12
      vertex 17.6 25 12
    endloop
  endfacet
  facet normal 0 -1 0
    outer loop
      vertex 18.3029 25 10.3029
      vertex 21.6971 25 10.3029
      vertex 22.4 25 12
    endloop
  endfacet
  facet normal -0 -1 0
    outer loop
      vertex 21.6971 25 10.3029
      vertex 18.3029 25 10.3029
      vertex 20 25 9.6
    endloop
  endfacet
  facet normal -0.923879 0 0.382684
    outer loop
      vertex 17.6 25 12
      vertex 18.3029 26.8 13.6971
      vertex 17.6 26.8 12
    endloop
  endfacet
  facet normal -0.923879 0 0.382684
    outer loop
      vertex 18.3029 26.8 13.6971
      vertex 17.6 25 12
      vertex 18.3029 25 13.6971
    endloop
  endfacet
  facet normal 0.92388 0 -0.382683
    outer loop
      vertex 22.4 25 12
      vertex 21.6971 26.8 10.3029
      vertex 22.4 26.8 12
    endloop
  endfacet
  facet normal 0.92388 0 -0.382683
    outer loop
      vertex 21.6971 26.8 10.3029
      vertex 22.4 25 12
      vertex 21.6971 25 10.3029
    endloop
  endfacet
  facet normal 0.382684 0 -0.923879
    outer loop
      vertex 20 25 9.6
      vertex 21.6971 26.8 10.3029
      vertex 21.6971 25 10.3029
    endloop
  endfacet
  facet normal 0.382684 0 -0.923879
    outer loop
      vertex 21.6971 26.8 10.3029
      vertex 20 25 9.6
      vertex 20 26.8 9.6
    endloop
  endfacet
  facet normal -0.382684 0 -0.923879
    outer loop
      vertex 18.3029 25 10.3029
      vertex 20 26.8 9.6
      vertex 20 25 9.6
    endloop
  endfacet
  facet normal -0.382684 0 -0.923879
    outer loop
      vertex 20 26.8 9.6
      vertex 18.3029 25 10.3029
      vertex 18.3029 26.8 10.3029
    endloop
  endfacet
  facet normal 0.923879 -0 0.382684
    outer loop
      vertex 21.6971 25 21.6971
      vertex 22.4 26.8 20
      vertex 21.6971 26.8 21.6971
    endloop
  endfacet
  facet normal 0.923879 0 0.382684
    outer loop
      vertex 22.4 26.8 20
      vertex 21.6971 25 21.6971
      vertex 22.4 25 20
    endloop
  endfacet
  facet normal -0.923879 0 -0.382684
    outer loop
      vertex 18.3029 25 18.3029
      vertex 17.6 26.8 20
      vertex 18.3029 26.8 18.3029
    endloop
  endfacet
  facet normal -0.923879 -0 -0.382684
    outer loop
      vertex 17.6 26.8 20
      vertex 18.3029 25 18.3029
      vertex 17.6 25 20
    endloop
  endfacet
  facet normal -0.382684 0 0.923879
    outer loop
      vertex 18.3029 26.8 21.6971
      vertex 20 25 22.4
      vertex 20 26.8 22.4
    endloop
  endfacet
  facet normal -0.382684 0 0.923879
    outer loop
      vertex 20 25 22.4
      vertex 18.3029 26.8 21.6971
      vertex 18.3029 25 21.6971
    endloop
  endfacet
  facet normal 0.382684 0 0.923879
    outer loop
      vertex 20 26.8 22.4
      vertex 21.6971 25 21.6971
      vertex 21.6971 26.8 21.6971
    endloop
  endfacet
  facet normal 0.382684 0 0.923879
    outer loop
      vertex 21.6971 25 21.6971
      vertex 20 26.8 22.4
      vertex 20 25 22.4
    endloop
  endfacet
  facet normal 0 -1 0
    outer loop
      vertex 18.3029 25 21.6971
      vertex 21.6971 25 21.6971
      vertex 20 25 22.4
    endloop
  endfacet
  facet normal 0 -1 0
    outer loop
      vertex 17.6 25 20
      vertex 21.6971 25 21.6971
      vertex 18.3029 25 21.6971
    endloop
  endfacet
  facet normal 0 -1 0
    outer loop
      vertex 17.6 25 20
      vertex 22.4 25 20
      vertex 21.6971 25 21.6971
    endloop
  endfacet
  facet normal 0 -1 0
    outer loop
      vertex 18.3029 25 18.3029
      vertex 22.4 25 20
      vertex 17.6 25 20
    endloop
  endfacet
  facet normal 0 -1 0
    outer loop
      vertex 18.3029 25 18.3029
      vertex 21.6971 25 18.3029
      vertex 22.4 25 20
    endloop
  endfacet
  facet normal -0 -1 0
    outer loop
      vertex 21.6971 25 18.3029
      vertex 18.3029 25 18.3029
      vertex 20 25 17.6
    endloop
  endfacet
  facet normal -0.923879 0 0.382684
    outer loop
      vertex 17.6 25 20
      vertex 18.3029 26.8 21.6971
      vertex 17.6 26.8 20
    endloop
  endfacet
  facet normal -0.923879 0 0.382684
    outer loop
      vertex 18.3029 26.8 21.6971
      vertex 17.6 25 20
      vertex 18.3029 25 21.6971
    endloop
  endfacet
  facet normal 0.923879 0 -0.382684
    outer loop
      vertex 22.4 25 20
      vertex 21.6971 26.8 18.3029
      vertex 22.4 26.8 20
    endloop
  endfacet
  facet normal 0.923879 0 -0.382684
    outer loop
      vertex 21.6971 26.8 18.3029
      vertex 22.4 25 20
      vertex 21.6971 25 18.3029
    endloop
  endfacet
  facet normal 0.382684 0 -0.923879
    outer loop
      vertex 20 25 17.6
      vertex 21.6971 26.8 18.3029
      vertex 21.6971 25 18.3029
    endloop
  endfacet
  facet normal 0.382684 0 -0.923879
    outer loop
      vertex 21.6971 26.8 18.3029
      vertex 20 25 17.6
      vertex 20 26.8 17.6
    endloop
  endfacet
  facet normal -0.382684 0 -0.923879
    outer loop
      vertex 18.3029 25 18.3029
      vertex 20 26.8 17.6
      vertex 20 25 17.6
    endloop
  endfacet
  facet normal -0.382684 0 -0.923879
    outer loop
      vertex 20 26.8 17.6
      vertex 18.3029 25 18.3029
      vertex 18.3029 26.8 18.3029
    endloop
  endfacet
  facet normal 0.923879 -0 0.382684
    outer loop
      vertex 29.6971 25 5.69706
      vertex 30.4 26.8 4
      vertex 29.6971 26.8 5.69706
    endloop
  endfacet
  facet normal 0.923879 0 0.382684
    outer loop
      vertex 30.4 26.8 4
      vertex 29.6971 25 5.69706
      vertex 30.4 25 4
    endloop
  endfacet
  facet normal -0.923879 0 0.382684
    outer loop
      vertex 25.6 25 4
      vertex 26.3029 26.8 5.69706
      vertex 25.6 26.8 4
    endloop
  endfacet
  facet normal -0.923879 0 0.382684
    outer loop
      vertex 26.3029 26.8 5.69706
      vertex 25.6 25 4
      vertex 26.3029 25 5.69706
    endloop
  endfacet
  facet normal 0.382684 0 0.923879
    outer loop
      vertex 28 26.8 6.4
      vertex 29.6971 25 5.69706
      vertex 29.6971 26.8 5.69706
    endloop
  endfacet
  facet normal 0.382684 0 0.923879
    outer loop
      vertex 29.6971 25 5.69706
      vertex 28 26.8 6.4
      vertex 28 25 6.4
    endloop
  endfacet
  facet normal -0.382684 0 0.923879
    outer loop
      vertex 26.3029 26.8 5.69706
      vertex 28 25 6.4
      vertex 28 26.8 6.4
    endloop
  endfacet
  facet normal -0.382684 0 0.923879
    outer loop
      vertex 28 25 6.4
      vertex 26.3029 26.8 5.69706
      vertex 26.3029 25 5.69706
    endloop
  endfacet
  facet normal 0.382684 0 -0.923879
    outer loop
      vertex 28 25 1.6
      vertex 29.6971 26.8 2.30294
      vertex 29.6971 25 2.30294
    endloop
  endfacet
  facet normal 0.382684 0 -0.923879
    outer loop
      vertex 29.6971 26.8 2.30294
      vertex 28 25 1.6
      vertex 28 26.8 1.6
    endloop
  endfacet
  facet normal -0.923879 0 -0.382684
    outer loop
      vertex 26.3029 25 2.30294
      vertex 25.6 26.8 4
      vertex 26.3029 26.8 2.30294
    endloop
  endfacet
  facet normal -0.923879 -0 -0.382684
    outer loop
      vertex 25.6 26.8 4
      vertex 26.3029 25 2.30294
      vertex 25.6 25 4
    endloop
  endfacet
  facet normal 0.923879 0 -0.382684
    outer loop
      vertex 30.4 25 4
      vertex 29.6971 26.8 2.30294
      vertex 30.4 26.8 4
    endloop
  endfacet
  facet normal 0.923879 0 -0.382684
    outer loop
      vertex 29.6971 26.8 2.30294
      vertex 30.4 25 4
      vertex 29.6971 25 2.30294
    endloop
  endfacet
  facet normal -0.382684 0 -0.923879
    outer loop
      vertex 26.3029 25 2.30294
      vertex 28 26.8 1.6
      vertex 28 25 1.6
    endloop
  endfacet
  facet normal -0.382684 0 -0.923879
    outer loop
      vertex 28 26.8 1.6
      vertex 26.3029 25 2.30294
      vertex 26.3029 26.8 2.30294
    endloop
  endfacet
  facet normal 0 -1 0
    outer loop
      vertex 26.3029 25 5.69706
      vertex 29.6971 25 5.69706
      vertex 28 25 6.4
    endloop
  endfacet
  facet normal 0 -1 0
    outer loop
      vertex 25.6 25 4
      vertex 29.6971 25 5.69706
      vertex 26.3029 25 5.69706
    endloop
  endfacet
  facet normal 0 -1 0
    outer loop
      vertex 25.6 25 4
      vertex 30.4 25 4
      vertex 29.6971 25 5.69706
    endloop
  endfacet
  facet normal 0 -1 0
    outer loop
      vertex 26.3029 25 2.30294
      vertex 30.4 25 4
      vertex 25.6 25 4
    endloop
  endfacet
  facet normal 0 -1 0
    outer loop
      vertex 26.3029 25 2.30294
      vertex 29.6971 25 2.30294
      vertex 30.4 25 4
    endloop
  endfacet
  facet normal -0 -1 0
    outer loop
      vertex 29.6971 25 2.30294
      vertex 26.3029 25 2.30294
      vertex 28 25 1.6
    endloop
  endfacet
  facet normal 0.923879 -0 0.382684
    outer loop
      vertex 29.6971 25 13.6971
      vertex 30.4 26.8 12
      vertex 29.6971 26.8 13.6971
    endloop
  endfacet
  facet normal 0.923879 0 0.382684
    outer loop
      vertex 30.4 26.8 12
      vertex 29.6971 25 13.6971
      vertex 30.4 25 12
    endloop
  endfacet
  facet normal -0.923879 0 -0.382684
    outer loop
      vertex 26.3029 25 10.3029
      vertex 25.6 26.8 12
      vertex 26.3029 26.8 10.3029
    endloop
  endfacet
  facet normal -0.923879 -0 -0.382684
    outer loop
      vertex 25.6 26.8 12
      vertex 26.3029 25 10.3029
      vertex 25.6 25 12
    endloop
  endfacet
  facet normal -0.382684 0 0.923879
    outer loop
      vertex 26.3029 26.8 13.6971
      vertex 28 25 14.4
      vertex 28 26.8 14.4
    endloop
  endfacet
  facet normal -0.382684 0 0.923879
    outer loop
      vertex 28 25 14.4
      vertex 26.3029 26.8 13.6971
      vertex 26.3029 25 13.6971
    endloop
  endfacet
  facet normal 0.382684 0 0.923879
    outer loop
      vertex 28 26.8 14.4
      vertex 29.6971 25 13.6971
      vertex 29.6971 26.8 13.6971
    endloop
  endfacet
  facet normal 0.382684 0 0.923879
    outer loop
      vertex 29.6971 25 13.6971
      vertex 28 26.8 14.4
      vertex 28 25 14.4
    endloop
  endfacet
  facet normal 0 -1 0
    outer loop
      vertex 26.3029 25 13.6971
      vertex 29.6971 25 13.6971
      vertex 28 25 14.4
    endloop
  endfacet
  facet normal 0 -1 0
    outer loop
      vertex 25.6 25 12
      vertex 29.6971 25 13.6971
      vertex 26.3029 25 13.6971
    endloop
  endfacet
  facet normal 0 -1 0
    outer loop
      vertex 25.6 25 12
      vertex 30.4 25 12
      vertex 29.6971 25 13.6971
    endloop
  endfacet
  facet normal 0 -1 0
    outer loop
      vertex 26.3029 25 10.3029
      vertex 30.4 25 12
      vertex 25.6 25 12
    endloop
  endfacet
  facet normal 0 -1 0
    outer loop
      vertex 26.3029 25 10.3029
      vertex 29.6971 25 10.3029
      vertex 30.4 25 12
    endloop
  endfacet
  facet normal -0 -1 0
    outer loop
      vertex 29.6971 25 10.3029
      vertex 26.3029 25 10.3029
      vertex 28 25 9.6
    endloop
  endfacet
  facet normal -0.923879 0 0.382684
    outer loop
      vertex 25.6 25 12
      vertex 26.3029 26.8 13.6971
      vertex 25.6 26.8 12
    endloop
  endfacet
  facet normal -0.923879 0 0.382684
    outer loop
      vertex 26.3029 26.8 13.6971
      vertex 25.6 25 12
      vertex 26.3029 25 13.6971
    endloop
  endfacet
  facet normal 0.92388 0 -0.382683
    outer loop
      vertex 30.4 25 12
      vertex 29.6971 26.8 10.3029
      vertex 30.4 26.8 12
    endloop
  endfacet
  facet normal 0.92388 0 -0.382683
    outer loop
      vertex 29.6971 26.8 10.3029
      vertex 30.4 25 12
      vertex 29.6971 25 10.3029
    endloop
  endfacet
  facet normal 0.382684 0 -0.923879
    outer loop
      vertex 28 25 9.6
      vertex 29.6971 26.8 10.3029
      vertex 29.6971 25 10.3029
    endloop
  endfacet
  facet normal 0.382684 0 -0.923879
    outer loop
      vertex 29.6971 26.8 10.3029
      vertex 28 25 9.6
      vertex 28 26.8 9.6
    endloop
  endfacet
  facet normal -0.382684 0 -0.923879
    outer loop
      vertex 26.3029 25 10.3029
      vertex 28 26.8 9.6
      vertex 28 25 9.6
    endloop
  endfacet
  facet normal -0.382684 0 -0.923879
    outer loop
      vertex 28 26.8 9.6
      vertex 26.3029 25 10.3029
      vertex 26.3029 26.8 10.3029
    endloop
  endfacet
  facet normal 0.923879 -0 0.382684
    outer loop
      vertex 29.6971 25 21.6971
      vertex 30.4 26.8 20
      vertex 29.6971 26.8 21.6971
    endloop
  endfacet
  facet normal 0.923879 0 0.382684
    outer loop
      vertex 30.4 26.8 20
      vertex 29.6971 25 21.6971
      vertex 30.4 25 20
    endloop
  endfacet
  facet normal -0.923879 0 -0.382684
    outer loop
      vertex 26.3029 25 18.3029
      vertex 25.6 26.8 20
      vertex 26.3029 26.8 18.3029
    endloop
  endfacet
  facet normal -0.923879 -0 -0.382684
    outer loop
      vertex 25.6 26.8 20
      vertex 26.3029 25 18.3029
      vertex 25.6 25 20
    endloop
  endfacet
  facet normal -0.382684 0 0.923879
    outer loop
      vertex 26.3029 26.8 21.6971
      vertex 28 25 22.4
      vertex 28 26.8 22.4
    endloop
  endfacet
  facet normal -0.382684 0 0.923879
    outer loop
      vertex 28 25 22.4
      vertex 26.3029 26.8 21.6971
      vertex 26.3029 25 21.6971
    endloop
  endfacet
  facet normal 0.382684 0 0.923879
    outer loop
      vertex 28 26.8 22.4
      vertex 29.6971 25 21.6971
      vertex 29.6971 26.8 21.6971
    endloop
  endfacet
  facet normal 0.382684 0 0.923879
    outer loop
      vertex 29.6971 25 21.6971
      vertex 28 26.8 22.4
      vertex 28 25 22.4
    endloop
  endfacet
  facet normal 0 -1 0
    outer loop
      vertex 26.3029 25 21.6971
      vertex 29.6971 25 21.6971
      vertex 28 25 22.4
    endloop
  endfacet
  facet normal 0 -1 0
    outer loop
      vertex 25.6 25 20
      vertex 29.6971 25 21.6971
      vertex 26.3029 25 21.6971
    endloop
  endfacet
  facet normal 0 -1 0
    outer loop
      vertex 25.6 25 20
      vertex 30.4 25 20
      vertex 29.6971 25 21.6971
    endloop
  endfacet
  facet normal 0 -1 0
    outer loop
      vertex 26.3029 25 18.3029
      vertex 30.4 25 20
      vertex 25.6 25 20
    endloop
  endfacet
  facet normal 0 -1 0
    outer loop
      vertex 26.3029 25 18.3029
      vertex 29.6971 25 18.3029
      vertex 30.4 25 20
    endloop
  endfacet
  facet normal -0 -1 0
    outer loop
      vertex 29.6971 25 18.3029
      vertex 26.3029 25 18.3029
      vertex 28 25 17.6
    endloop
  endfacet
  facet normal -0.923879 0 0.382684
    outer loop
      vertex 25.6 25 20
      vertex 26.3029 26.8 21.6971
      vertex 25.6 26.8 20
    endloop
  endfacet
  facet normal -0.923879 0 0.382684
    outer loop
      vertex 26.3029 26.8 21.6971
      vertex 25.6 25 20
      vertex 26.3029 25 21.6971
    endloop
  endfacet
  facet normal 0.923879 0 -0.382684
    outer loop
      vertex 30.4 25 20
      vertex 29.6971 26.8 18.3029
      vertex 30.4 26.8 20
    endloop
  endfacet
  facet normal 0.923879 0 -0.382684
    outer loop
      vertex 29.6971 26.8 18.3029
      vertex 30.4 25 20
      vertex 29.6971 25 18.3029
    endloop
  endfacet
  facet normal 0.382684 0 -0.923879
    outer loop
      vertex 28 25 17.6
      vertex 29.6971 26.8 18.3029
      vertex 29.6971 25 18.3029
    endloop
  endfacet
  facet normal 0.382684 0 -0.923879
    outer loop
      vertex 29.6971 26.8 18.3029
      vertex 28 25 17.6
      vertex 28 26.8 17.6
    endloop
  endfacet
  facet normal -0.382684 0 -0.923879
    outer loop
      vertex 26.3029 25 18.3029
      vertex 28 26.8 17.6
      vertex 28 25 17.6
    endloop
  endfacet
  facet normal -0.382684 0 -0.923879
    outer loop
      vertex 28 26.8 17.6
      vertex 26.3029 25 18.3029
      vertex 26.3029 26.8 18.3029
    endloop
  endfacet
  facet normal 0.923879 -0 0.382684
    outer loop
      vertex 37.6971 25 5.69706
      vertex 38.4 26.8 4
      vertex 37.6971 26.8 5.69706
    endloop
  endfacet
  facet normal 0.923879 0 0.382684
    outer loop
      vertex 38.4 26.8 4
      vertex 37.6971 25 5.69706
      vertex 38.4 25 4
    endloop
  endfacet
  facet normal -0.923879 0 0.382684
    outer loop
      vertex 33.6 25 4
      vertex 34.3029 26.8 5.69706
      vertex 33.6 26.8 4
    endloop
  endfacet
  facet normal -0.923879 0 0.382684
    outer loop
      vertex 34.3029 26.8 5.69706
      vertex 33.6 25 4
      vertex 34.3029 25 5.69706
    endloop
  endfacet
  facet normal 0.382684 0 0.923879
    outer loop
      vertex 36 26.8 6.4
      vertex 37.6971 25 5.69706
      vertex 37.6971 26.8 5.69706
    endloop
  endfacet
  facet normal 0.382684 0 0.923879
    outer loop
      vertex 37.6971 25 5.69706
      vertex 36 26.8 6.4
      vertex 36 25 6.4
    endloop
  endfacet
  facet normal -0.382684 0 0.923879
    outer loop
      vertex 34.3029 26.8 5.69706
      vertex 36 25 6.4
      vertex 36 26.8 6.4
    endloop
  endfacet
  facet normal -0.382684 0 0.923879
    outer loop
      vertex 36 25 6.4
      vertex 34.3029 26.8 5.69706
      vertex 34.3029 25 5.69706
    endloop
  endfacet
  facet normal 0.382684 0 -0.923879
    outer loop
      vertex 36 25 1.6
      vertex 37.6971 26.8 2.30294
      vertex 37.6971 25 2.30294
    endloop
  endfacet
  facet normal 0.382684 0 -0.923879
    outer loop
      vertex 37.6971 26.8 2.30294
      vertex 36 25 1.6
      vertex 36 26.8 1.6
    endloop
  endfacet
  facet normal -0.923879 0 -0.382684
    outer loop
      vertex 34.3029 25 2.30294
      vertex 33.6 26.8 4
      vertex 34.3029 26.8 2.30294
    endloop
  endfacet
  facet normal -0.923879 -0 -0.382684
    outer loop
      vertex 33.6 26.8 4
      vertex 34.3029 25 2.30294
      vertex 33.6 25 4
    endloop
  endfacet
  facet normal 0.923879 0 -0.382684
    outer loop
      vertex 38.4 25 4
      vertex 37.6971 26.8 2.30294
      vertex 38.4 26.8 4
    endloop
  endfacet
  facet normal 0.923879 0 -0.382684
    outer loop
      vertex 37.6971 26.8 2.30294
      vertex 38.4 25 4
      vertex 37.6971 25 2.30294
    endloop
  endfacet
  facet normal -0.382684 0 -0.923879
    outer loop
      vertex 34.3029 25 2.30294
      vertex 36 26.8 1.6
      vertex 36 25 1.6
    endloop
  endfacet
  facet normal -0.382684 0 -0.923879
    outer loop
      vertex 36 26.8 1.6
      vertex 34.3029 25 2.30294
      vertex 34.3029 26.8 2.30294
    endloop
  endfacet
  facet normal 0 -1 0
    outer loop
      vertex 34.3029 25 5.69706
      vertex 37.6971 25 5.69706
      vertex 36 25 6.4
    endloop
  endfacet
  facet normal 0 -1 0
    outer loop
      vertex 33.6 25 4
      vertex 37.6971 25 5.69706
      vertex 34.3029 25 5.69706
    endloop
  endfacet
  facet normal 0 -1 0
    outer loop
      vertex 33.6 25 4
      vertex 38.4 25 4
      vertex 37.6971 25 5.69706
    endloop
  endfacet
  facet normal 0 -1 0
    outer loop
      vertex 34.3029 25 2.30294
      vertex 38.4 25 4
      vertex 33.6 25 4
    endloop
  endfacet
  facet normal 0 -1 0
    outer loop
      vertex 34.3029 25 2.30294
      vertex 37.6971 25 2.30294
      vertex 38.4 25 4
    endloop
  endfacet
  facet normal -0 -1 0
    outer loop
      vertex 37.6971 25 2.30294
      vertex 34.3029 25 2.30294
      vertex 36 25 1.6
    endloop
  endfacet
  facet normal 0.923879 -0 0.382684
    outer loop
      vertex 37.6971 25 13.6971
      vertex 38.4 26.8 12
      vertex 37.6971 26.8 13.6971
    endloop
  endfacet
  facet normal 0.923879 0 0.382684
    outer loop
      vertex 38.4 26.8 12
      vertex 37.6971 25 13.6971
      vertex 38.4 25 12
    endloop
  endfacet
  facet normal -0.923879 0 -0.382684
    outer loop
      vertex 34.3029 25 10.3029
      vertex 33.6 26.8 12
      vertex 34.3029 26.8 10.3029
    endloop
  endfacet
  facet normal -0.923879 -0 -0.382684
    outer loop
      vertex 33.6 26.8 12
      vertex 34.3029 25 10.3029
      vertex 33.6 25 12
    endloop
  endfacet
  facet normal -0.382684 0 0.923879
    outer loop
      vertex 34.3029 26.8 13.6971
      vertex 36 25 14.4
      vertex 36 26.8 14.4
    endloop
  endfacet
  facet normal -0.382684 0 0.923879
    outer loop
      vertex 36 25 14.4
      vertex 34.3029 26.8 13.6971
      vertex 34.3029 25 13.6971
    endloop
  endfacet
  facet normal 0.382684 0 0.923879
    outer loop
      vertex 36 26.8 14.4
      vertex 37.6971 25 13.6971
      vertex 37.6971 26.8 13.6971
    endloop
  endfacet
  facet normal 0.382684 0 0.923879
    outer loop
      vertex 37.6971 25 13.6971
      vertex 36 26.8 14.4
      vertex 36 25 14.4
    endloop
  endfacet
  facet normal 0 -1 0
    outer loop
      vertex 34.3029 25 13.6971
      vertex 37.6971 25 13.6971
      vertex 36 25 14.4
    endloop
  endfacet
  facet normal 0 -1 0
    outer loop
      vertex 33.6 25 12
      vertex 37.6971 25 13.6971
      vertex 34.3029 25 13.6971
    endloop
  endfacet
  facet normal 0 -1 0
    outer loop
      vertex 33.6 25 12
      vertex 38.4 25 12
      vertex 37.6971 25 13.6971
    endloop
  endfacet
  facet normal 0 -1 0
    outer loop
      vertex 34.3029 25 10.3029
      vertex 38.4 25 12
      vertex 33.6 25 12
    endloop
  endfacet
  facet normal 0 -1 0
    outer loop
      vertex 34.3029 25 10.3029
      vertex 37.6971 25 10.3029
      vertex 38.4 25 12
    endloop
  endfacet
  facet normal -0 -1 0
    outer loop
      vertex 37.6971 25 10.3029
      vertex 34.3029 25 10.3029
      vertex 36 25 9.6
    endloop
  endfacet
  facet normal -0.923879 0 0.382684
    outer loop
      vertex 33.6 25 12
      vertex 34.3029 26.8 13.6971
      vertex 33.6 26.8 12
    endloop
  endfacet
  facet normal -0.923879 0 0.382684
    outer loop
      vertex 34.3029 26.8 13.6971
      vertex 33.6 25 12
      vertex 34.3029 25 13.6971
    endloop
  endfacet
  facet normal 0.923879 0 -0.382684
    outer loop
      vertex 38.4 25 12
      vertex 37.6971 26.8 10.3029
      vertex 38.4 26.8 12
    endloop
  endfacet
  facet normal 0.923879 0 -0.382684
    outer loop
      vertex 37.6971 26.8 10.3029
      vertex 38.4 25 12
      vertex 37.6971 25 10.3029
    endloop
  endfacet
  facet normal 0.382684 0 -0.923879
    outer loop
      vertex 36 25 9.6
      vertex 37.6971 26.8 10.3029
      vertex 37.6971 25 10.3029
    endloop
  endfacet
  facet normal 0.382684 0 -0.923879
    outer loop
      vertex 37.6971 26.8 10.3029
      vertex 36 25 9.6
      vertex 36 26.8 9.6
    endloop
  endfacet
  facet normal -0.382684 0 -0.923879
    outer loop
      vertex 34.3029 25 10.3029
      vertex 36 26.8 9.6
      vertex 36 25 9.6
    endloop
  endfacet
  facet normal -0.382684 0 -0.923879
    outer loop
      vertex 36 26.8 9.6
      vertex 34.3029 25 10.3029
      vertex 34.3029 26.8 10.3029
    endloop
  endfacet
  facet normal 0.923879 -0 0.382684
    outer loop
      vertex 37.6971 25 21.6971
      vertex 38.4 26.8 20
      vertex 37.6971 26.8 21.6971
    endloop
  endfacet
  facet normal 0.923879 0 0.382684
    outer loop
      vertex 38.4 26.8 20
      vertex 37.6971 25 21.6971
      vertex 38.4 25 20
    endloop
  endfacet
  facet normal -0.923879 0 -0.382684
    outer loop
      vertex 34.3029 25 18.3029
      vertex 33.6 26.8 20
      vertex 34.3029 26.8 18.3029
    endloop
  endfacet
  facet normal -0.923879 -0 -0.382684
    outer loop
      vertex 33.6 26.8 20
      vertex 34.3029 25 18.3029
      vertex 33.6 25 20
    endloop
  endfacet
  facet normal -0.382684 0 0.923879
    outer loop
      vertex 34.3029 26.8 21.6971
      vertex 36 25 22.4
      vertex 36 26.8 22.4
    endloop
  endfacet
  facet normal -0.382684 0 0.923879
    outer loop
      vertex 36 25 22.4
      vertex 34.3029 26.8 21.6971
      vertex 34.3029 25 21.6971
    endloop
  endfacet
  facet normal 0.382684 0 0.923879
    outer loop
      vertex 36 26.8 22.4
      vertex 37.6971 25 21.6971
      vertex 37.6971 26.8 21.6971
    endloop
  endfacet
  facet normal 0.382684 0 0.923879
    outer loop
      vertex 37.6971 25 21.6971
      vertex 36 26.8 22.4
      vertex 36 25 22.4
    endloop
  endfacet
  facet normal 0 -1 0
    outer loop
      vertex 34.3029 25 21.6971
      vertex 37.6971 25 21.6971
      vertex 36 25 22.4
    endloop
  endfacet
  facet normal 0 -1 0
    outer loop
      vertex 33.6 25 20
      vertex 37.6971 25 21.6971
      vertex 34.3029 25 21.6971
    endloop
  endfacet
  facet normal 0 -1 0
    outer loop
      vertex 33.6 25 20
      vertex 38.4 25 20
      vertex 37.6971 25 21.6971
    endloop
  endfacet
  facet normal 0 -1 0
    outer loop
      vertex 34.3029 25 18.3029
      vertex 38.4 25 20
      vertex 33.6 25 20
    endloop
  endfacet
  facet normal 0 -1 0
    outer loop
      vertex 34.3029 25 18.3029
      vertex 37.6971 25 18.3029
      vertex 38.4 25 20
    endloop
  endfacet
  facet normal -0 -1 0
    outer loop
      vertex 37.6971 25 18.3029
      vertex 34.3029 25 18.3029
      vertex 36 25 17.6
    endloop
  endfacet
  facet normal -0.923879 0 0.382684
    outer loop
      vertex 33.6 25 20
      vertex 34.3029 26.8 21.6971
      vertex 33.6 26.8 20
    endloop
  endfacet
  facet normal -0.923879 0 0.382684
    outer loop
      vertex 34.3029 26.8 21.6971
      vertex 33.6 25 20
      vertex 34.3029 25 21.6971
    endloop
  endfacet
  facet normal 0.923879 0 -0.382684
    outer loop
      vertex 38.4 25 20
      vertex 37.6971 26.8 18.3029
      vertex 38.4 26.8 20
    endloop
  endfacet
  facet normal 0.923879 0 -0.382684
    outer loop
      vertex 37.6971 26.8 18.3029
      vertex 38.4 25 20
      vertex 37.6971 25 18.3029
    endloop
  endfacet
  facet normal 0.382684 0 -0.923879
    outer loop
      vertex 36 25 17.6
      vertex 37.6971 26.8 18.3029
      vertex 37.6971 25 18.3029
    endloop
  endfacet
  facet normal 0.382684 0 -0.923879
    outer loop
      vertex 37.6971 26.8 18.3029
      vertex 36 25 17.6
      vertex 36 26.8 17.6
    endloop
  endfacet
  facet normal -0.382684 0 -0.923879
    outer loop
      vertex 34.3029 25 18.3029
      vertex 36 26.8 17.6
      vertex 36 25 17.6
    endloop
  endfacet
  facet normal -0.382684 0 -0.923879
    outer loop
      vertex 36 26.8 17.6
      vertex 34.3029 25 18.3029
      vertex 34.3029 26.8 18.3029
    endloop
  endfacet
  facet normal 0 1 0
    outer loop
      vertex 5.69706 26.8 21.6971
      vertex 2.30294 26.8 21.6971
      vertex 4 26.8 22.4
    endloop
  endfacet
  facet normal 0 1 0
    outer loop
      vertex 6.4 26.8 20
      vertex 2.30294 26.8 21.6971
      vertex 5.69706 26.8 21.6971
    endloop
  endfacet
  facet normal 0 1 0
    outer loop
      vertex 6.4 26.8 20
      vertex 1.6 26.8 20
      vertex 2.30294 26.8 21.6971
    endloop
  endfacet
  facet normal 0 1 -0
    outer loop
      vertex 5.69706 26.8 18.3029
      vertex 1.6 26.8 20
      vertex 6.4 26.8 20
    endloop
  endfacet
  facet normal 0 1 0
    outer loop
      vertex 5.69706 26.8 18.3029
      vertex 2.30294 26.8 18.3029
      vertex 1.6 26.8 20
    endloop
  endfacet
  facet normal -0 1 0
    outer loop
      vertex 2.30294 26.8 18.3029
      vertex 5.69706 26.8 18.3029
      vertex 4 26.8 17.6
    endloop
  endfacet
  facet normal 0 1 0
    outer loop
      vertex 5.69706 26.8 13.6971
      vertex 2.30294 26.8 13.6971
      vertex 4 26.8 14.4
    endloop
  endfacet
  facet normal 0 1 0
    outer loop
      vertex 6.4 26.8 12
      vertex 2.30294 26.8 13.6971
      vertex 5.69706 26.8 13.6971
    endloop
  endfacet
  facet normal 0 1 0
    outer loop
      vertex 6.4 26.8 12
      vertex 1.6 26.8 12
      vertex 2.30294 26.8 13.6971
    endloop
  endfacet
  facet normal 0 1 -0
    outer loop
      vertex 5.69706 26.8 10.3029
      vertex 1.6 26.8 12
      vertex 6.4 26.8 12
    endloop
  endfacet
  facet normal 0 1 0
    outer loop
      vertex 5.69706 26.8 10.3029
      vertex 2.30294 26.8 10.3029
      vertex 1.6 26.8 12
    endloop
  endfacet
  facet normal -0 1 0
    outer loop
      vertex 2.30294 26.8 10.3029
      vertex 5.69706 26.8 10.3029
      vertex 4 26.8 9.6
    endloop
  endfacet
  facet normal 0 1 0
    outer loop
      vertex 5.69706 26.8 5.69706
      vertex 2.30294 26.8 5.69706
      vertex 4 26.8 6.4
    endloop
  endfacet
  facet normal 0 1 0
    outer loop
      vertex 6.4 26.8 4
      vertex 2.30294 26.8 5.69706
      vertex 5.69706 26.8 5.69706
    endloop
  endfacet
  facet normal 0 1 0
    outer loop
      vertex 6.4 26.8 4
      vertex 1.6 26.8 4
      vertex 2.30294 26.8 5.69706
    endloop
  endfacet
  facet normal 0 1 -0
    outer loop
      vertex 5.69706 26.8 2.30294
      vertex 1.6 26.8 4
      vertex 6.4 26.8 4
    endloop
  endfacet
  facet normal 0 1 0
    outer loop
      vertex 5.69706 26.8 2.30294
      vertex 2.30294 26.8 2.30294
      vertex 1.6 26.8 4
    endloop
  endfacet
  facet normal -0 1 0
    outer loop
      vertex 2.30294 26.8 2.30294
      vertex 5.69706 26.8 2.30294
      vertex 4 26.8 1.6
    endloop
  endfacet
  facet normal 0 1 0
    outer loop
      vertex 13.6971 26.8 21.6971
      vertex 10.3029 26.8 21.6971
      vertex 12 26.8 22.4
    endloop
  endfacet
  facet normal 0 1 0
    outer loop
      vertex 14.4 26.8 20
      vertex 10.3029 26.8 21.6971
      vertex 13.6971 26.8 21.6971
    endloop
  endfacet
  facet normal 0 1 0
    outer loop
      vertex 14.4 26.8 20
      vertex 9.6 26.8 20
      vertex 10.3029 26.8 21.6971
    endloop
  endfacet
  facet normal 0 1 -0
    outer loop
      vertex 13.6971 26.8 18.3029
      vertex 9.6 26.8 20
      vertex 14.4 26.8 20
    endloop
  endfacet
  facet normal 0 1 0
    outer loop
      vertex 13.6971 26.8 18.3029
      vertex 10.3029 26.8 18.3029
      vertex 9.6 26.8 20
    endloop
  endfacet
  facet normal -0 1 0
    outer loop
      vertex 10.3029 26.8 18.3029
      vertex 13.6971 26.8 18.3029
      vertex 12 26.8 17.6
    endloop
  endfacet
  facet normal 0 1 0
    outer loop
      vertex 13.6971 26.8 13.6971
      vertex 10.3029 26.8 13.6971
      vertex 12 26.8 14.4
    endloop
  endfacet
  facet normal 0 1 0
    outer loop
      vertex 14.4 26.8 12
      vertex 10.3029 26.8 13.6971
      vertex 13.6971 26.8 13.6971
    endloop
  endfacet
  facet normal 0 1 0
    outer loop
      vertex 14.4 26.8 12
      vertex 9.6 26.8 12
      vertex 10.3029 26.8 13.6971
    endloop
  endfacet
  facet normal 0 1 -0
    outer loop
      vertex 13.6971 26.8 10.3029
      vertex 9.6 26.8 12
      vertex 14.4 26.8 12
    endloop
  endfacet
  facet normal 0 1 0
    outer loop
      vertex 13.6971 26.8 10.3029
      vertex 10.3029 26.8 10.3029
      vertex 9.6 26.8 12
    endloop
  endfacet
  facet normal -0 1 0
    outer loop
      vertex 10.3029 26.8 10.3029
      vertex 13.6971 26.8 10.3029
      vertex 12 26.8 9.6
    endloop
  endfacet
  facet normal 0 1 0
    outer loop
      vertex 13.6971 26.8 5.69706
      vertex 10.3029 26.8 5.69706
      vertex 12 26.8 6.4
    endloop
  endfacet
  facet normal 0 1 0
    outer loop
      vertex 14.4 26.8 4
      vertex 10.3029 26.8 5.69706
      vertex 13.6971 26.8 5.69706
    endloop
  endfacet
  facet normal 0 1 0
    outer loop
      vertex 14.4 26.8 4
      vertex 9.6 26.8 4
      vertex 10.3029 26.8 5.69706
    endloop
  endfacet
  facet normal 0 1 -0
    outer loop
      vertex 13.6971 26.8 2.30294
      vertex 9.6 26.8 4
      vertex 14.4 26.8 4
    endloop
  endfacet
  facet normal 0 1 0
    outer loop
      vertex 13.6971 26.8 2.30294
      vertex 10.3029 26.8 2.30294
      vertex 9.6 26.8 4
    endloop
  endfacet
  facet normal -0 1 0
    outer loop
      vertex 10.3029 26.8 2.30294
      vertex 13.6971 26.8 2.30294
      vertex 12 26.8 1.6
    endloop
  endfacet
  facet normal 0 1 0
    outer loop
      vertex 21.6971 26.8 21.6971
      vertex 18.3029 26.8 21.6971
      vertex 20 26.8 22.4
    endloop
  endfacet
  facet normal 0 1 0
    outer loop
      vertex 22.4 26.8 20
      vertex 18.3029 26.8 21.6971
      vertex 21.6971 26.8 21.6971
    endloop
  endfacet
  facet normal 0 1 0
    outer loop
      vertex 22.4 26.8 20
      vertex 17.6 26.8 20
      vertex 18.3029 26.8 21.6971
    endloop
  endfacet
  facet normal 0 1 -0
    outer loop
      vertex 21.6971 26.8 18.3029
      vertex 17.6 26.8 20
      vertex 22.4 26.8 20
    endloop
  endfacet
  facet normal 0 1 0
    outer loop
      vertex 21.6971 26.8 18.3029
      vertex 18.3029 26.8 18.3029
      vertex 17.6 26.8 20
    endloop
  endfacet
  facet normal -0 1 0
    outer loop
      vertex 18.3029 26.8 18.3029
      vertex 21.6971 26.8 18.3029
      vertex 20 26.8 17.6
    endloop
  endfacet
  facet normal 0 1 0
    outer loop
      vertex 21.6971 26.8 13.6971
      vertex 18.3029 26.8 13.6971
      vertex 20 26.8 14.4
    endloop
  endfacet
  facet normal 0 1 0
    outer loop
      vertex 22.4 26.8 12
      vertex 18.3029 26.8 13.6971
      vertex 21.6971 26.8 13.6971
    endloop
  endfacet
  facet normal 0 1 0
    outer loop
      vertex 22.4 26.8 12
      vertex 17.6 26.8 12
      vertex 18.3029 26.8 13.6971
    endloop
  endfacet
  facet normal 0 1 -0
    outer loop
      vertex 21.6971 26.8 10.3029
      vertex 17.6 26.8 12
      vertex 22.4 26.8 12
    endloop
  endfacet
  facet normal 0 1 0
    outer loop
      vertex 21.6971 26.8 10.3029
      vertex 18.3029 26.8 10.3029
      vertex 17.6 26.8 12
    endloop
  endfacet
  facet normal -0 1 0
    outer loop
      vertex 18.3029 26.8 10.3029
      vertex 21.6971 26.8 10.3029
      vertex 20 26.8 9.6
    endloop
  endfacet
  facet normal 0 1 0
    outer loop
      vertex 21.6971 26.8 5.69706
      vertex 18.3029 26.8 5.69706
      vertex 20 26.8 6.4
    endloop
  endfacet
  facet normal 0 1 0
    outer loop
      vertex 22.4 26.8 4
      vertex 18.3029 26.8 5.69706
      vertex 21.6971 26.8 5.69706
    endloop
  endfacet
  facet normal 0 1 0
    outer loop
      vertex 22.4 26.8 4
      vertex 17.6 26.8 4
      vertex 18.3029 26.8 5.69706
    endloop
  endfacet
  facet normal 0 1 -0
    outer loop
      vertex 21.6971 26.8 2.30294
      vertex 17.6 26.8 4
      vertex 22.4 26.8 4
    endloop
  endfacet
  facet normal 0 1 0
    outer loop
      vertex 21.6971 26.8 2.30294
      vertex 18.3029 26.8 2.30294
      vertex 17.6 26.8 4
    endloop
  endfacet
  facet normal -0 1 0
    outer loop
      vertex 18.3029 26.8 2.30294
      vertex 21.6971 26.8 2.30294
      vertex 20 26.8 1.6
    endloop
  endfacet
  facet normal 0 1 0
    outer loop
      vertex 29.6971 26.8 21.6971
      vertex 26.3029 26.8 21.6971
      vertex 28 26.8 22.4
    endloop
  endfacet
  facet normal 0 1 0
    outer loop
      vertex 30.4 26.8 20
      vertex 26.3029 26.8 21.6971
      vertex 29.6971 26.8 21.6971
    endloop
  endfacet
  facet normal 0 1 0
    outer loop
      vertex 30.4 26.8 20
      vertex 25.6 26.8 20
      vertex 26.3029 26.8 21.6971
    endloop
  endfacet
  facet normal 0 1 -0
    outer loop
      vertex 29.6971 26.8 18.3029
      vertex 25.6 26.8 20
      vertex 30.4 26.8 20
    endloop
  endfacet
  facet normal 0 1 0
    outer loop
      vertex 29.6971 26.8 18.3029
      vertex 26.3029 26.8 18.3029
      vertex 25.6 26.8 20
    endloop
  endfacet
  facet normal -0 1 0
    outer loop
      vertex 26.3029 26.8 18.3029
      vertex 29.6971 26.8 18.3029
      vertex 28 26.8 17.6
    endloop
  endfacet
  facet normal 0 1 0
    outer loop
      vertex 29.6971 26.8 13.6971
      vertex 26.3029 26.8 13.6971
      vertex 28 26.8 14.4
    endloop
  endfacet
  facet normal 0 1 0
    outer loop
      vertex 30.4 26.8 12
      vertex 26.3029 26.8 13.6971
      vertex 29.6971 26.8 13.6971
    endloop
  endfacet
  facet normal 0 1 0
    outer loop
      vertex 30.4 26.8 12
      vertex 25.6 26.8 12
      vertex 26.3029 26.8 13.6971
    endloop
  endfacet
  facet normal 0 1 -0
    outer loop
      vertex 29.6971 26.8 10.3029
      vertex 25.6 26.8 12
      vertex 30.4 26.8 12
    endloop
  endfacet
  facet normal 0 1 0
    outer loop
      vertex 29.6971 26.8 10.3029
      vertex 26.3029 26.8 10.3029
      vertex 25.6 26.8 12
    endloop
  endfacet
  facet normal -0 1 0
    outer loop
      vertex 26.3029 26.8 10.3029
      vertex 29.6971 26.8 10.3029
      vertex 28 26.8 9.6
    endloop
  endfacet
  facet normal 0 1 0
    outer loop
      vertex 29.6971 26.8 5.69706
      vertex 26.3029 26.8 5.69706
      vertex 28 26.8 6.4
    endloop
  endfacet
  facet normal 0 1 0
    outer loop
      vertex 30.4 26.8 4
      vertex 26.3029 26.8 5.69706
      vertex 29.6971 26.8 5.69706
    endloop
  endfacet
  facet normal 0 1 0
    outer loop
      vertex 30.4 26.8 4
      vertex 25.6 26.8 4
      vertex 26.3029 26.8 5.69706
    endloop
  endfacet
  facet normal 0 1 -0
    outer loop
      vertex 29.6971 26.8 2.30294
      vertex 25.6 26.8 4
      vertex 30.4 26.8 4
    endloop
  endfacet
  facet normal 0 1 0
    outer loop
      vertex 29.6971 26.8 2.30294
      vertex 26.3029 26.8 2.30294
      vertex 25.6 26.8 4
    endloop
  endfacet
  facet normal -0 1 0
    outer loop
      vertex 26.3029 26.8 2.30294
      vertex 29.6971 26.8 2.30294
      vertex 28 26.8 1.6
    endloop
  endfacet
  facet normal 0 1 0
    outer loop
      vertex 37.6971 26.8 21.6971
      vertex 34.3029 26.8 21.6971
      vertex 36 26.8 22.4
    endloop
  endfacet
  facet normal 0 1 0
    outer loop
      vertex 38.4 26.8 20
      vertex 34.3029 26.8 21.6971
      vertex 37.6971 26.8 21.6971
    endloop
  endfacet
  facet normal 0 1 0
    outer loop
      vertex 38.4 26.8 20
      vertex 33.6 26.8 20
      vertex 34.3029 26.8 21.6971
    endloop
  endfacet
  facet normal 0 1 -0
    outer loop
      vertex 37.6971 26.8 18.3029
      vertex 33.6 26.8 20
      vertex 38.4 26.8 20
    endloop
  endfacet
  facet normal 0 1 0
    outer loop
      vertex 37.6971 26.8 18.3029
      vertex 34.3029 26.8 18.3029
      vertex 33.6 26.8 20
    endloop
  endfacet
  facet normal -0 1 0
    outer loop
      vertex 34.3029 26.8 18.3029
      vertex 37.6971 26.8 18.3029
      vertex 36 26.8 17.6
    endloop
  endfacet
  facet normal 0 1 0
    outer loop
      vertex 37.6971 26.8 13.6971
      vertex 34.3029 26.8 13.6971
      vertex 36 26.8 14.4
    endloop
  endfacet
  facet normal 0 1 0
    outer loop
      vertex 38.4 26.8 12
      vertex 34.3029 26.8 13.6971
      vertex 37.6971 26.8 13.6971
    endloop
  endfacet
  facet normal 0 1 0
    outer loop
      vertex 38.4 26.8 12
      vertex 33.6 26.8 12
      vertex 34.3029 26.8 13.6971
    endloop
  endfacet
  facet normal 0 1 -0
    outer loop
      vertex 37.6971 26.8 10.3029
      vertex 33.6 26.8 12
      vertex 38.4 26.8 12
    endloop
  endfacet
  facet normal 0 1 0
    outer loop
      vertex 37.6971 26.8 10.3029
      vertex 34.3029 26.8 10.3029
      vertex 33.6 26.8 12
    endloop
  endfacet
  facet normal -0 1 0
    outer loop
      vertex 34.3029 26.8 10.3029
      vertex 37.6971 26.8 10.3029
      vertex 36 26.8 9.6
    endloop
  endfacet
  facet normal 0 1 0
    outer loop
      vertex 37.6971 26.8 5.69706
      vertex 34.3029 26.8 5.69706
      vertex 36 26.8 6.4
    endloop
  endfacet
  facet normal 0 1 0
    outer loop
      vertex 38.4 26.8 4
      vertex 34.3029 26.8 5.69706
      vertex 37.6971 26.8 5.69706
    endloop
  endfacet
  facet normal 0 1 0
    outer loop
      vertex 38.4 26.8 4
      vertex 33.6 26.8 4
      vertex 34.3029 26.8 5.69706
    endloop
  endfacet
  facet normal 0 1 -0
    outer loop
      vertex 37.6971 26.8 2.30294
      vertex 33.6 26.8 4
      vertex 38.4 26.8 4
    endloop
  endfacet
  facet normal 0 1 0
    outer loop
      vertex 37.6971 26.8 2.30294
      vertex 34.3029 26.8 2.30294
      vertex 33.6 26.8 4
    endloop
  endfacet
  facet normal -0 1 0
    outer loop
      vertex 34.3029 26.8 2.30294
      vertex 37.6971 26.8 2.30294
      vertex 36 26.8 1.6
    endloop
  endfacet
endsolid OpenSCAD_Model
