solid OpenSCAD_Model
  facet normal -1 0 0
    outer loop
      vertex 0 0 0
      vertex 0 20 25
      vertex 0 20 0
    endloop
  endfacet
  facet normal -1 -0 0
    outer loop
      vertex 0 20 25
      vertex 0 0 0
      vertex 0 0 25
    endloop
  endfacet
  facet normal 0 0 1
    outer loop
      vertex 40 20 25
      vertex 25.5 8 25
      vertex 40 0 25
    endloop
  endfacet
  facet normal 0 0 1
    outer loop
      vertex 40 20 25
      vertex 25.1683 9.88111 25
      vertex 25.5 8 25
    endloop
  endfacet
  facet normal 0 0 1
    outer loop
      vertex 40 20 25
      vertex 24.2132 11.5353 25
      vertex 25.1683 9.88111 25
    endloop
  endfacet
  facet normal 0 0 1
    outer loop
      vertex 40 20 25
      vertex 22.75 12.7631 25
      vertex 24.2132 11.5353 25
    endloop
  endfacet
  facet normal 0 0 1
    outer loop
      vertex 40 20 25
      vertex 20.9551 13.4164 25
      vertex 22.75 12.7631 25
    endloop
  endfacet
  facet normal 0 0 1
    outer loop
      vertex 40 20 25
      vertex 19.0449 13.4164 25
      vertex 20.9551 13.4164 25
    endloop
  endfacet
  facet normal 0 0 1
    outer loop
      vertex 14.8317 9.88111 25
      vertex 0 20 25
      vertex 14.5 8 25
    endloop
  endfacet
  facet normal 0 0 1
    outer loop
      vertex 15.7868 11.5353 25
      vertex 0 20 25
      vertex 14.8317 9.88111 25
    endloop
  endfacet
  facet normal 0 0 1
    outer loop
      vertex 17.25 12.7631 25
      vertex 0 20 25
      vertex 15.7868 11.5353 25
    endloop
  endfacet
  facet normal 0 0 1
    outer loop
      vertex 19.0449 13.4164 25
      vertex 0 20 25
      vertex 17.25 12.7631 25
    endloop
  endfacet
  facet normal -0 0 1
    outer loop
      vertex 0 20 25
      vertex 19.0449 13.4164 25
      vertex 40 20 25
    endloop
  endfacet
  facet normal -0 0 1
    outer loop
      vertex 25.1683 6.11889 25
      vertex 40 0 25
      vertex 25.5 8 25
    endloop
  endfacet
  facet normal -0 0 1
    outer loop
      vertex 24.2132 4.46467 25
      vertex 40 0 25
      vertex 25.1683 6.11889 25
    endloop
  endfacet
  facet normal -0 0 1
    outer loop
      vertex 22.75 3.23686 25
      vertex 40 0 25
      vertex 24.2132 4.46467 25
    endloop
  endfacet
  facet normal -0 0 1
    outer loop
      vertex 20.9551 2.58356 25
      vertex 40 0 25
      vertex 22.75 3.23686 25
    endloop
  endfacet
  facet normal -0 0 1
    outer loop
      vertex 19.0449 2.58356 25
      vertex 40 0 25
      vertex 20.9551 2.58356 25
    endloop
  endfacet
  facet normal 0 0 1
    outer loop
      vertex 0 0 25
      vertex 14.5 8 25
      vertex 0 20 25
    endloop
  endfacet
  facet normal 0 0 1
    outer loop
      vertex 14.5 8 25
      vertex 0 0 25
      vertex 14.8317 6.11889 25
    endloop
  endfacet
  facet normal 0 0 1
    outer loop
      vertex 19.0449 2.58356 25
      vertex 0 0 25
      vertex 40 0 25
    endloop
  endfacet
  facet normal 0 0 1
    outer loop
      vertex 17.25 3.23686 25
      vertex 0 0 25
      vertex 19.0449 2.58356 25
    endloop
  endfacet
  facet normal 0 0 1
    outer loop
      vertex 15.7868 4.46467 25
      vertex 0 0 25
      vertex 17.25 3.23686 25
    endloop
  endfacet
  facet normal 0 0 1
    outer loop
      vertex 14.8317 6.11889 25
      vertex 0 0 25
      vertex 15.7868 4.46467 25
    endloop
  endfacet
  facet normal 1 -0 0
    outer loop
      vertex 40 0 25
      vertex 40 20 0
      vertex 40 20 25
    endloop
  endfacet
  facet normal 1 0 0
    outer loop
      vertex 40 20 0
      vertex 40 0 25
      vertex 40 0 0
    endloop
  endfacet
  facet normal 0 1 -0
    outer loop
      vertex 40 20 0
      vertex 0 20 25
      vertex 40 20 25
    endloop
  endfacet
  facet normal 0 1 0
    outer loop
      vertex 0 20 25
      vertex 40 20 0
      vertex 0 20 0
    endloop
  endfacet
  facet normal 0 0 -1
    outer loop
      vertex 40 0 0
      vertex 25.5 8 0
      vertex 40 20 0
    endloop
  endfacet
  facet normal 0 0 -1
    outer loop
      vertex 40 0 0
      vertex 25.1683 6.11889 0
      vertex 25.5 8 0
    endloop
  endfacet
  facet normal 0 0 -1
    outer loop
      vertex 40 0 0
      vertex 24.2132 4.46467 0
      vertex 25.1683 6.11889 0
    endloop
  endfacet
  facet normal 0 0 -1
    outer loop
      vertex 40 0 0
      vertex 22.75 3.23686 0
      vertex 24.2132 4.46467 0
    endloop
  endfacet
  facet normal 0 0 -1
    outer loop
      vertex 40 0 0
      vertex 20.9551 2.58356 0
      vertex 22.75 3.23686 0
    endloop
  endfacet
  facet normal 0 0 -1
    outer loop
      vertex 40 0 0
      vertex 19.0449 2.58356 0
      vertex 20.9551 2.58356 0
    endloop
  endfacet
  facet normal -0 0 -1
    outer loop
      vertex 14.8317 6.11889 0
      vertex 0 0 0
      vertex 14.5 8 0
    endloop
  endfacet
  facet normal -0 0 -1
    outer loop
      vertex 15.7868 4.46467 0
      vertex 0 0 0
      vertex 14.8317 6.11889 0
    endloop
  endfacet
  facet normal -0 0 -1
    outer loop
      vertex 17.25 3.23686 0
      vertex 0 0 0
      vertex 15.7868 4.46467 0
    endloop
  endfacet
  facet normal -0 0 -1
    outer loop
      vertex 19.0449 2.58356 0
      vertex 0 0 0
      vertex 17.25 3.23686 0
    endloop
  endfacet
  facet normal 0 0 -1
    outer loop
      vertex 0 0 0
      vertex 19.0449 2.58356 0
      vertex 40 0 0
    endloop
  endfacet
  facet normal 0 0 -1
    outer loop
      vertex 25.1683 9.88111 0
      vertex 40 20 0
      vertex 25.5 8 0
    endloop
  endfacet
  facet normal 0 0 -1
    outer loop
      vertex 24.2132 11.5353 0
      vertex 40 20 0
      vertex 25.1683 9.88111 0
    endloop
  endfacet
  facet normal 0 0 -1
    outer loop
      vertex 22.75 12.7631 0
      vertex 40 20 0
      vertex 24.2132 11.5353 0
    endloop
  endfacet
  facet normal 0 0 -1
    outer loop
      vertex 20.9551 13.4164 0
      vertex 40 20 0
      vertex 22.75 12.7631 0
    endloop
  endfacet
  facet normal 0 0 -1
    outer loop
      vertex 19.0449 13.4164 0
      vertex 40 20 0
      vertex 20.9551 13.4164 0
    endloop
  endfacet
  facet normal 0 0 -1
    outer loop
      vertex 0 20 0
      vertex 14.5 8 0
      vertex 0 0 0
    endloop
  endfacet
  facet normal 0 0 -1
    outer loop
      vertex 14.5 8 0
      vertex 0 20 0
      vertex 14.8317 9.88111 0
    endloop
  endfacet
  facet normal 0 0 -1
    outer loop
      vertex 14.8317 9.88111 0
      vertex 0 20 0
      vertex 15.7868 11.5353 0
    endloop
  endfacet
  facet normal 0 0 -1
    outer loop
      vertex 19.0449 13.4164 0
      vertex 0 20 0
      vertex 40 20 0
    endloop
  endfacet
  facet normal 0 0 -1
    outer loop
      vertex 17.25 12.7631 0
      vertex 0 20 0
      vertex 19.0449 13.4164 0
    endloop
  endfacet
  facet normal 0 0 -1
    outer loop
      vertex 15.7868 11.5353 0
      vertex 0 20 0
      vertex 17.25 12.7631 0
    endloop
  endfacet
  facet normal 0 -1 0
    outer loop
      vertex 0 0 25
      vertex 4 0 21
      vertex 40 0 25
    endloop
  endfacet
  facet normal 0 -1 0
    outer loop
      vertex 0 0 25
      vertex 4 0 4
      vertex 4 0 21
    endloop
  endfacet
  facet normal 0 -1 -0
    outer loop
      vertex 4 0 4
      vertex 0 0 0
      vertex 36 0 4
    endloop
  endfacet
  facet normal 0 -1 0
    outer loop
      vertex 0 0 0
      vertex 4 0 4
      vertex 0 0 25
    endloop
  endfacet
  facet normal 0 -1 0
    outer loop
      vertex 36 0 21
      vertex 40 0 25
      vertex 4 0 21
    endloop
  endfacet
  facet normal 0 -1 0
    outer loop
      vertex 36 0 4
      vertex 40 0 25
      vertex 36 0 21
    endloop
  endfacet
  facet normal 0 -1 0
    outer loop
      vertex 36 0 4
      vertex 40 0 0
      vertex 40 0 25
    endloop
  endfacet
  facet normal 0 -1 0
    outer loop
      vertex 40 0 0
      vertex 36 0 4
      vertex 0 0 0
    endloop
  endfacet
  facet normal -0.984808 -0.173649 0
    outer loop
      vertex 25.5 8 0
      vertex 25.1683 9.88111 4
      vertex 25.1683 9.88111 0
    endloop
  endfacet
  facet normal -0.984808 -0.173649 0
    outer loop
      vertex 25.1683 9.88111 4
      vertex 25.5 8 0
      vertex 25.5 8 4
    endloop
  endfacet
  facet normal -0.984808 -0.173649 0
    outer loop
      vertex 25.5 8 21
      vertex 25.1683 9.88111 25
      vertex 25.1683 9.88111 21
    endloop
  endfacet
  facet normal -0.984808 -0.173649 0
    outer loop
      vertex 25.1683 9.88111 25
      vertex 25.5 8 21
      vertex 25.5 8 25
    endloop
  endfacet
  facet normal -0.34202 -0.939693 0
    outer loop
      vertex 20.9551 13.4164 21
      vertex 22.75 12.7631 25
      vertex 20.9551 13.4164 25
    endloop
  endfacet
  facet normal -0.34202 -0.939693 -0
    outer loop
      vertex 22.75 12.7631 25
      vertex 20.9551 13.4164 21
      vertex 22.75 12.7631 21
    endloop
  endfacet
  facet normal -0.34202 -0.939693 0
    outer loop
      vertex 20.9551 13.4164 0
      vertex 22.75 12.7631 4
      vertex 20.9551 13.4164 4
    endloop
  endfacet
  facet normal -0.34202 -0.939693 -0
    outer loop
      vertex 22.75 12.7631 4
      vertex 20.9551 13.4164 0
      vertex 22.75 12.7631 0
    endloop
  endfacet
  facet normal 0.984808 0.173648 0
    outer loop
      vertex 14.8317 6.11889 4
      vertex 14.5 8 0
      vertex 14.5 8 4
    endloop
  endfacet
  facet normal 0.984808 0.173648 0
    outer loop
      vertex 14.5 8 0
      vertex 14.8317 6.11889 4
      vertex 14.8317 6.11889 0
    endloop
  endfacet
  facet normal 0.984808 0.173648 0
    outer loop
      vertex 14.8317 6.11889 25
      vertex 14.5 8 21
      vertex 14.5 8 25
    endloop
  endfacet
  facet normal 0.984808 0.173648 0
    outer loop
      vertex 14.5 8 21
      vertex 14.8317 6.11889 25
      vertex 14.8317 6.11889 21
    endloop
  endfacet
  facet normal -0.866026 0.5 0
    outer loop
      vertex 24.2132 4.46467 0
      vertex 25.1683 6.11889 4
      vertex 25.1683 6.11889 0
    endloop
  endfacet
  facet normal -0.866026 0.5 0
    outer loop
      vertex 25.1683 6.11889 4
      vertex 24.2132 4.46467 0
      vertex 24.2132 4.46467 4
    endloop
  endfacet
  facet normal -0.866026 0.5 0
    outer loop
      vertex 24.2132 4.46467 21
      vertex 25.1683 6.11889 25
      vertex 25.1683 6.11889 21
    endloop
  endfacet
  facet normal -0.866026 0.5 0
    outer loop
      vertex 25.1683 6.11889 25
      vertex 24.2132 4.46467 21
      vertex 24.2132 4.46467 25
    endloop
  endfacet
  facet normal -0.642788 0.766044 0
    outer loop
      vertex 24.2132 4.46467 0
      vertex 22.75 3.23686 4
      vertex 24.2132 4.46467 4
    endloop
  endfacet
  facet normal -0.642788 0.766044 0
    outer loop
      vertex 22.75 3.23686 4
      vertex 24.2132 4.46467 0
      vertex 22.75 3.23686 0
    endloop
  endfacet
  facet normal -0.642788 0.766044 0
    outer loop
      vertex 24.2132 4.46467 21
      vertex 22.75 3.23686 25
      vertex 24.2132 4.46467 25
    endloop
  endfacet
  facet normal -0.642788 0.766044 0
    outer loop
      vertex 22.75 3.23686 25
      vertex 24.2132 4.46467 21
      vertex 22.75 3.23686 21
    endloop
  endfacet
  facet normal 0 1 -0
    outer loop
      vertex 20.9551 2.58356 21
      vertex 19.0449 2.58356 25
      vertex 20.9551 2.58356 25
    endloop
  endfacet
  facet normal 0 1 0
    outer loop
      vertex 19.0449 2.58356 25
      vertex 20.9551 2.58356 21
      vertex 19.0449 2.58356 21
    endloop
  endfacet
  facet normal 0 1 -0
    outer loop
      vertex 20.9551 2.58356 0
      vertex 19.0449 2.58356 4
      vertex 20.9551 2.58356 4
    endloop
  endfacet
  facet normal 0 1 0
    outer loop
      vertex 19.0449 2.58356 4
      vertex 20.9551 2.58356 0
      vertex 19.0449 2.58356 0
    endloop
  endfacet
  facet normal -0.642788 -0.766044 0
    outer loop
      vertex 22.75 12.7631 21
      vertex 24.2132 11.5353 25
      vertex 22.75 12.7631 25
    endloop
  endfacet
  facet normal -0.642788 -0.766044 -0
    outer loop
      vertex 24.2132 11.5353 25
      vertex 22.75 12.7631 21
      vertex 24.2132 11.5353 21
    endloop
  endfacet
  facet normal -0.642788 -0.766044 0
    outer loop
      vertex 22.75 12.7631 0
      vertex 24.2132 11.5353 4
      vertex 22.75 12.7631 4
    endloop
  endfacet
  facet normal -0.642788 -0.766044 -0
    outer loop
      vertex 24.2132 11.5353 4
      vertex 22.75 12.7631 0
      vertex 24.2132 11.5353 0
    endloop
  endfacet
  facet normal -0.866026 -0.5 0
    outer loop
      vertex 25.1683 9.88111 0
      vertex 24.2132 11.5353 4
      vertex 24.2132 11.5353 0
    endloop
  endfacet
  facet normal -0.866026 -0.5 0
    outer loop
      vertex 24.2132 11.5353 4
      vertex 25.1683 9.88111 0
      vertex 25.1683 9.88111 4
    endloop
  endfacet
  facet normal -0.866026 -0.5 0
    outer loop
      vertex 25.1683 9.88111 21
      vertex 24.2132 11.5353 25
      vertex 24.2132 11.5353 21
    endloop
  endfacet
  facet normal -0.866026 -0.5 0
    outer loop
      vertex 24.2132 11.5353 25
      vertex 25.1683 9.88111 21
      vertex 25.1683 9.88111 25
    endloop
  endfacet
  facet normal 0 -1 0
    outer loop
      vertex 19.0449 13.4164 0
      vertex 20.9551 13.4164 4
      vertex 19.0449 13.4164 4
    endloop
  endfacet
  facet normal 0 -1 -0
    outer loop
      vertex 20.9551 13.4164 4
      vertex 19.0449 13.4164 0
      vertex 20.9551 13.4164 0
    endloop
  endfacet
  facet normal 0 -1 0
    outer loop
      vertex 19.0449 13.4164 21
      vertex 20.9551 13.4164 25
      vertex 19.0449 13.4164 25
    endloop
  endfacet
  facet normal 0 -1 -0
    outer loop
      vertex 20.9551 13.4164 25
      vertex 19.0449 13.4164 21
      vertex 20.9551 13.4164 21
    endloop
  endfacet
  facet normal 0.642787 -0.766045 0
    outer loop
      vertex 15.7868 11.5353 21
      vertex 17.25 12.7631 25
      vertex 15.7868 11.5353 25
    endloop
  endfacet
  facet normal 0.642787 -0.766045 0
    outer loop
      vertex 17.25 12.7631 25
      vertex 15.7868 11.5353 21
      vertex 17.25 12.7631 21
    endloop
  endfacet
  facet normal 0.642787 -0.766045 0
    outer loop
      vertex 15.7868 11.5353 0
      vertex 17.25 12.7631 4
      vertex 15.7868 11.5353 4
    endloop
  endfacet
  facet normal 0.642787 -0.766045 0
    outer loop
      vertex 17.25 12.7631 4
      vertex 15.7868 11.5353 0
      vertex 17.25 12.7631 0
    endloop
  endfacet
  facet normal 0.866025 -0.5 0
    outer loop
      vertex 14.8317 9.88111 25
      vertex 15.7868 11.5353 21
      vertex 15.7868 11.5353 25
    endloop
  endfacet
  facet normal 0.866025 -0.5 0
    outer loop
      vertex 15.7868 11.5353 21
      vertex 14.8317 9.88111 25
      vertex 14.8317 9.88111 21
    endloop
  endfacet
  facet normal 0.866025 -0.5 0
    outer loop
      vertex 14.8317 9.88111 4
      vertex 15.7868 11.5353 0
      vertex 15.7868 11.5353 4
    endloop
  endfacet
  facet normal 0.866025 -0.5 0
    outer loop
      vertex 15.7868 11.5353 0
      vertex 14.8317 9.88111 4
      vertex 14.8317 9.88111 0
    endloop
  endfacet
  facet normal 0.866025 0.5 0
    outer loop
      vertex 15.7868 4.46467 4
      vertex 14.8317 6.11889 0
      vertex 14.8317 6.11889 4
    endloop
  endfacet
  facet normal 0.866025 0.5 0
    outer loop
      vertex 14.8317 6.11889 0
      vertex 15.7868 4.46467 4
      vertex 15.7868 4.46467 0
    endloop
  endfacet
  facet normal 0.866025 0.5 0
    outer loop
      vertex 15.7868 4.46467 25
      vertex 14.8317 6.11889 21
      vertex 14.8317 6.11889 25
    endloop
  endfacet
  facet normal 0.866025 0.5 0
    outer loop
      vertex 14.8317 6.11889 21
      vertex 15.7868 4.46467 25
      vertex 15.7868 4.46467 21
    endloop
  endfacet
  facet normal 0.342021 0.939692 -0
    outer loop
      vertex 19.0449 2.58356 0
      vertex 17.25 3.23686 4
      vertex 19.0449 2.58356 4
    endloop
  endfacet
  facet normal 0.342021 0.939692 0
    outer loop
      vertex 17.25 3.23686 4
      vertex 19.0449 2.58356 0
      vertex 17.25 3.23686 0
    endloop
  endfacet
  facet normal 0.342021 0.939692 -0
    outer loop
      vertex 19.0449 2.58356 21
      vertex 17.25 3.23686 25
      vertex 19.0449 2.58356 25
    endloop
  endfacet
  facet normal 0.342021 0.939692 0
    outer loop
      vertex 17.25 3.23686 25
      vertex 19.0449 2.58356 21
      vertex 17.25 3.23686 21
    endloop
  endfacet
  facet normal 0.642787 0.766045 -0
    outer loop
      vertex 17.25 3.23686 0
      vertex 15.7868 4.46467 4
      vertex 17.25 3.23686 4
    endloop
  endfacet
  facet normal 0.642787 0.766045 0
    outer loop
      vertex 15.7868 4.46467 4
      vertex 17.25 3.23686 0
      vertex 15.7868 4.46467 0
    endloop
  endfacet
  facet normal 0.642787 0.766045 -0
    outer loop
      vertex 17.25 3.23686 21
      vertex 15.7868 4.46467 25
      vertex 17.25 3.23686 25
    endloop
  endfacet
  facet normal 0.642787 0.766045 0
    outer loop
      vertex 15.7868 4.46467 25
      vertex 17.25 3.23686 21
      vertex 15.7868 4.46467 21
    endloop
  endfacet
  facet normal 0.984808 -0.173648 0
    outer loop
      vertex 14.5 8 4
      vertex 14.8317 9.88111 0
      vertex 14.8317 9.88111 4
    endloop
  endfacet
  facet normal 0.984808 -0.173648 0
    outer loop
      vertex 14.8317 9.88111 0
      vertex 14.5 8 4
      vertex 14.5 8 0
    endloop
  endfacet
  facet normal 0.984808 -0.173648 0
    outer loop
      vertex 14.5 8 25
      vertex 14.8317 9.88111 21
      vertex 14.8317 9.88111 25
    endloop
  endfacet
  facet normal 0.984808 -0.173648 0
    outer loop
      vertex 14.8317 9.88111 21
      vertex 14.5 8 25
      vertex 14.5 8 21
    endloop
  endfacet
  facet normal 0.342021 -0.939692 0
    outer loop
      vertex 17.25 12.7631 0
      vertex 19.0449 13.4164 4
      vertex 17.25 12.7631 4
    endloop
  endfacet
  facet normal 0.342021 -0.939692 0
    outer loop
      vertex 19.0449 13.4164 4
      vertex 17.25 12.7631 0
      vertex 19.0449 13.4164 0
    endloop
  endfacet
  facet normal 0.342021 -0.939692 0
    outer loop
      vertex 17.25 12.7631 21
      vertex 19.0449 13.4164 25
      vertex 17.25 12.7631 25
    endloop
  endfacet
  facet normal 0.342021 -0.939692 0
    outer loop
      vertex 19.0449 13.4164 25
      vertex 17.25 12.7631 21
      vertex 19.0449 13.4164 21
    endloop
  endfacet
  facet normal -0.34202 0.939693 0
    outer loop
      vertex 22.75 3.23686 21
      vertex 20.9551 2.58356 25
      vertex 22.75 3.23686 25
    endloop
  endfacet
  facet normal -0.34202 0.939693 0
    outer loop
      vertex 20.9551 2.58356 25
      vertex 22.75 3.23686 21
      vertex 20.9551 2.58356 21
    endloop
  endfacet
  facet normal -0.34202 0.939693 0
    outer loop
      vertex 22.75 3.23686 0
      vertex 20.9551 2.58356 4
      vertex 22.75 3.23686 4
    endloop
  endfacet
  facet normal -0.34202 0.939693 0
    outer loop
      vertex 20.9551 2.58356 4
      vertex 22.75 3.23686 0
      vertex 20.9551 2.58356 0
    endloop
  endfacet
  facet normal -0.984808 0.173649 0
    outer loop
      vertex 25.1683 6.11889 21
      vertex 25.5 8 25
      vertex 25.5 8 21
    endloop
  endfacet
  facet normal -0.984808 0.173649 0
    outer loop
      vertex 25.5 8 25
      vertex 25.1683 6.11889 21
      vertex 25.1683 6.11889 25
    endloop
  endfacet
  facet normal -0.984808 0.173649 0
    outer loop
      vertex 25.1683 6.11889 0
      vertex 25.5 8 4
      vertex 25.5 8 0
    endloop
  endfacet
  facet normal -0.984808 0.173649 0
    outer loop
      vertex 25.5 8 4
      vertex 25.1683 6.11889 0
      vertex 25.1683 6.11889 4
    endloop
  endfacet
  facet normal 1 -0 0
    outer loop
      vertex 4 0 21
      vertex 4 17.5 4
      vertex 4 17.5 21
    endloop
  endfacet
  facet normal 1 0 0
    outer loop
      vertex 4 17.5 4
      vertex 4 0 21
      vertex 4 0 4
    endloop
  endfacet
  facet normal 0 0 -1
    outer loop
      vertex 36 0 21
      vertex 25.5 8 21
      vertex 36 17.5 21
    endloop
  endfacet
  facet normal 0 0 -1
    outer loop
      vertex 36 0 21
      vertex 25.1683 6.11889 21
      vertex 25.5 8 21
    endloop
  endfacet
  facet normal 0 0 -1
    outer loop
      vertex 36 0 21
      vertex 24.2132 4.46467 21
      vertex 25.1683 6.11889 21
    endloop
  endfacet
  facet normal 0 0 -1
    outer loop
      vertex 36 0 21
      vertex 22.75 3.23686 21
      vertex 24.2132 4.46467 21
    endloop
  endfacet
  facet normal 0 0 -1
    outer loop
      vertex 36 0 21
      vertex 20.9551 2.58356 21
      vertex 22.75 3.23686 21
    endloop
  endfacet
  facet normal 0 0 -1
    outer loop
      vertex 36 0 21
      vertex 19.0449 2.58356 21
      vertex 20.9551 2.58356 21
    endloop
  endfacet
  facet normal -0 0 -1
    outer loop
      vertex 14.8317 6.11889 21
      vertex 4 0 21
      vertex 14.5 8 21
    endloop
  endfacet
  facet normal -0 0 -1
    outer loop
      vertex 15.7868 4.46467 21
      vertex 4 0 21
      vertex 14.8317 6.11889 21
    endloop
  endfacet
  facet normal -0 0 -1
    outer loop
      vertex 17.25 3.23686 21
      vertex 4 0 21
      vertex 15.7868 4.46467 21
    endloop
  endfacet
  facet normal -0 0 -1
    outer loop
      vertex 19.0449 2.58356 21
      vertex 4 0 21
      vertex 17.25 3.23686 21
    endloop
  endfacet
  facet normal 0 0 -1
    outer loop
      vertex 4 0 21
      vertex 19.0449 2.58356 21
      vertex 36 0 21
    endloop
  endfacet
  facet normal 0 0 -1
    outer loop
      vertex 25.1683 9.88111 21
      vertex 36 17.5 21
      vertex 25.5 8 21
    endloop
  endfacet
  facet normal 0 0 -1
    outer loop
      vertex 24.2132 11.5353 21
      vertex 36 17.5 21
      vertex 25.1683 9.88111 21
    endloop
  endfacet
  facet normal 0 0 -1
    outer loop
      vertex 22.75 12.7631 21
      vertex 36 17.5 21
      vertex 24.2132 11.5353 21
    endloop
  endfacet
  facet normal 0 0 -1
    outer loop
      vertex 20.9551 13.4164 21
      vertex 36 17.5 21
      vertex 22.75 12.7631 21
    endloop
  endfacet
  facet normal 0 0 -1
    outer loop
      vertex 19.0449 13.4164 21
      vertex 36 17.5 21
      vertex 20.9551 13.4164 21
    endloop
  endfacet
  facet normal 0 0 -1
    outer loop
      vertex 4 17.5 21
      vertex 14.5 8 21
      vertex 4 0 21
    endloop
  endfacet
  facet normal 0 0 -1
    outer loop
      vertex 14.5 8 21
      vertex 4 17.5 21
      vertex 14.8317 9.88111 21
    endloop
  endfacet
  facet normal 0 0 -1
    outer loop
      vertex 19.0449 13.4164 21
      vertex 4 17.5 21
      vertex 36 17.5 21
    endloop
  endfacet
  facet normal 0 0 -1
    outer loop
      vertex 17.25 12.7631 21
      vertex 4 17.5 21
      vertex 19.0449 13.4164 21
    endloop
  endfacet
  facet normal 0 0 -1
    outer loop
      vertex 15.7868 11.5353 21
      vertex 4 17.5 21
      vertex 17.25 12.7631 21
    endloop
  endfacet
  facet normal 0 0 -1
    outer loop
      vertex 14.8317 9.88111 21
      vertex 4 17.5 21
      vertex 15.7868 11.5353 21
    endloop
  endfacet
  facet normal -1 0 0
    outer loop
      vertex 36 0 4
      vertex 36 17.5 21
      vertex 36 17.5 4
    endloop
  endfacet
  facet normal -1 -0 0
    outer loop
      vertex 36 17.5 21
      vertex 36 0 4
      vertex 36 0 21
    endloop
  endfacet
  facet normal 0 -1 0
    outer loop
      vertex 4 17.5 4
      vertex 36 17.5 21
      vertex 4 17.5 21
    endloop
  endfacet
  facet normal 0 -1 -0
    outer loop
      vertex 36 17.5 21
      vertex 4 17.5 4
      vertex 36 17.5 4
    endloop
  endfacet
  facet normal 0 0 1
    outer loop
      vertex 36 17.5 4
      vertex 25.5 8 4
      vertex 36 0 4
    endloop
  endfacet
  facet normal 0 0 1
    outer loop
      vertex 36 17.5 4
      vertex 25.1683 9.88111 4
      vertex 25.5 8 4
    endloop
  endfacet
  facet normal 0 0 1
    outer loop
      vertex 36 17.5 4
      vertex 24.2132 11.5353 4
      vertex 25.1683 9.88111 4
    endloop
  endfacet
  facet normal 0 0 1
    outer loop
      vertex 36 17.5 4
      vertex 22.75 12.7631 4
      vertex 24.2132 11.5353 4
    endloop
  endfacet
  facet normal 0 0 1
    outer loop
      vertex 36 17.5 4
      vertex 20.9551 13.4164 4
      vertex 22.75 12.7631 4
    endloop
  endfacet
  facet normal 0 0 1
    outer loop
      vertex 36 17.5 4
      vertex 19.0449 13.4164 4
      vertex 20.9551 13.4164 4
    endloop
  endfacet
  facet normal 0 0 1
    outer loop
      vertex 14.8317 9.88111 4
      vertex 4 17.5 4
      vertex 14.5 8 4
    endloop
  endfacet
  facet normal 0 0 1
    outer loop
      vertex 15.7868 11.5353 4
      vertex 4 17.5 4
      vertex 14.8317 9.88111 4
    endloop
  endfacet
  facet normal 0 0 1
    outer loop
      vertex 17.25 12.7631 4
      vertex 4 17.5 4
      vertex 15.7868 11.5353 4
    endloop
  endfacet
  facet normal 0 0 1
    outer loop
      vertex 19.0449 13.4164 4
      vertex 4 17.5 4
      vertex 17.25 12.7631 4
    endloop
  endfacet
  facet normal -0 0 1
    outer loop
      vertex 4 17.5 4
      vertex 19.0449 13.4164 4
      vertex 36 17.5 4
    endloop
  endfacet
  facet normal -0 0 1
    outer loop
      vertex 25.1683 6.11889 4
      vertex 36 0 4
      vertex 25.5 8 4
    endloop
  endfacet
  facet normal -0 0 1
    outer loop
      vertex 24.2132 4.46467 4
      vertex 36 0 4
      vertex 25.1683 6.11889 4
    endloop
  endfacet
  facet normal -0 0 1
    outer loop
      vertex 22.75 3.23686 4
      vertex 36 0 4
      vertex 24.2132 4.46467 4
    endloop
  endfacet
  facet normal -0 0 1
    outer loop
      vertex 20.9551 2.58356 4
      vertex 36 0 4
      vertex 22.75 3.23686 4
    endloop
  endfacet
  facet normal -0 0 1
    outer loop
      vertex 19.0449 2.58356 4
      vertex 36 0 4
      vertex 20.9551 2.58356 4
    endloop
  endfacet
  facet normal 0 0 1
    outer loop
      vertex 4 0 4
      vertex 14.5 8 4
      vertex 4 17.5 4
    endloop
  endfacet
  facet normal 0 0 1
    outer loop
      vertex 14.5 8 4
      vertex 4 0 4
      vertex 14.8317 6.11889 4
    endloop
  endfacet
  facet normal 0 0 1
    outer loop
      vertex 19.0449 2.58356 4
      vertex 4 0 4
      vertex 36 0 4
    endloop
  endfacet
  facet normal 0 0 1
    outer loop
      vertex 17.25 3.23686 4
      vertex 4 0 4
      vertex 19.0449 2.58356 4
    endloop
  endfacet
  facet normal 0 0 1
    outer loop
      vertex 15.7868 4.46467 4
      vertex 4 0 4
      vertex 17.25 3.23686 4
    endloop
  endfacet
  facet normal 0 0 1
    outer loop
      vertex 14.8317 6.11889 4
      vertex 4 0 4
      vertex 15.7868 4.46467 4
    endloop
  endfacet
  facet normal 0.923879 -0 0.382684
    outer loop
      vertex 5.69706 20 5.69706
      vertex 6.4 21.8 4
      vertex 5.69706 21.8 5.69706
    endloop
  endfacet
  facet normal 0.923879 0 0.382684
    outer loop
      vertex 6.4 21.8 4
      vertex 5.69706 20 5.69706
      vertex 6.4 20 4
    endloop
  endfacet
  facet normal -0.923879 0 0.382684
    outer loop
      vertex 1.6 20 4
      vertex 2.30294 21.8 5.69706
      vertex 1.6 21.8 4
    endloop
  endfacet
  facet normal -0.923879 0 0.382684
    outer loop
      vertex 2.30294 21.8 5.69706
      vertex 1.6 20 4
      vertex 2.30294 20 5.69706
    endloop
  endfacet
  facet normal 0.382684 0 0.923879
    outer loop
      vertex 4 21.8 6.4
      vertex 5.69706 20 5.69706
      vertex 5.69706 21.8 5.69706
    endloop
  endfacet
  facet normal 0.382684 0 0.923879
    outer loop
      vertex 5.69706 20 5.69706
      vertex 4 21.8 6.4
      vertex 4 20 6.4
    endloop
  endfacet
  facet normal 0 -1 0
    outer loop
      vertex 2.30294 20 5.69706
      vertex 5.69706 20 5.69706
      vertex 4 20 6.4
    endloop
  endfacet
  facet normal 0 -1 0
    outer loop
      vertex 1.6 20 4
      vertex 5.69706 20 5.69706
      vertex 2.30294 20 5.69706
    endloop
  endfacet
  facet normal 0 -1 0
    outer loop
      vertex 1.6 20 4
      vertex 6.4 20 4
      vertex 5.69706 20 5.69706
    endloop
  endfacet
  facet normal 0 -1 0
    outer loop
      vertex 2.30294 20 2.30294
      vertex 6.4 20 4
      vertex 1.6 20 4
    endloop
  endfacet
  facet normal 0 -1 0
    outer loop
      vertex 2.30294 20 2.30294
      vertex 5.69706 20 2.30294
      vertex 6.4 20 4
    endloop
  endfacet
  facet normal -0 -1 0
    outer loop
      vertex 5.69706 20 2.30294
      vertex 2.30294 20 2.30294
      vertex 4 20 1.6
    endloop
  endfacet
  facet normal -0.382684 0 0.923879
    outer loop
      vertex 2.30294 21.8 5.69706
      vertex 4 20 6.4
      vertex 4 21.8 6.4
    endloop
  endfacet
  facet normal -0.382684 0 0.923879
    outer loop
      vertex 4 20 6.4
      vertex 2.30294 21.8 5.69706
      vertex 2.30294 20 5.69706
    endloop
  endfacet
  facet normal 0.382684 0 -0.923879
    outer loop
      vertex 4 20 1.6
      vertex 5.69706 21.8 2.30294
      vertex 5.69706 20 2.30294
    endloop
  endfacet
  facet normal 0.382684 0 -0.923879
    outer loop
      vertex 5.69706 21.8 2.30294
      vertex 4 20 1.6
      vertex 4 21.8 1.6
    endloop
  endfacet
  facet normal -0.923879 0 -0.382684
    outer loop
      vertex 2.30294 20 2.30294
      vertex 1.6 21.8 4
      vertex 2.30294 21.8 2.30294
    endloop
  endfacet
  facet normal -0.923879 -0 -0.382684
    outer loop
      vertex 1.6 21.8 4
      vertex 2.30294 20 2.30294
      vertex 1.6 20 4
    endloop
  endfacet
  facet normal 0.923879 0 -0.382684
    outer loop
      vertex 6.4 20 4
      vertex 5.69706 21.8 2.30294
      vertex 6.4 21.8 4
    endloop
  endfacet
  facet normal 0.923879 0 -0.382684
    outer loop
      vertex 5.69706 21.8 2.30294
      vertex 6.4 20 4
      vertex 5.69706 20 2.30294
    endloop
  endfacet
  facet normal -0.382684 0 -0.923879
    outer loop
      vertex 2.30294 20 2.30294
      vertex 4 21.8 1.6
      vertex 4 20 1.6
    endloop
  endfacet
  facet normal -0.382684 0 -0.923879
    outer loop
      vertex 4 21.8 1.6
      vertex 2.30294 20 2.30294
      vertex 2.30294 21.8 2.30294
    endloop
  endfacet
  facet normal 0.923879 -0 0.382684
    outer loop
      vertex 5.69706 20 13.6971
      vertex 6.4 21.8 12
      vertex 5.69706 21.8 13.6971
    endloop
  endfacet
  facet normal 0.923879 0 0.382684
    outer loop
      vertex 6.4 21.8 12
      vertex 5.69706 20 13.6971
      vertex 6.4 20 12
    endloop
  endfacet
  facet normal -0.382684 0 0.923879
    outer loop
      vertex 2.30294 21.8 13.6971
      vertex 4 20 14.4
      vertex 4 21.8 14.4
    endloop
  endfacet
  facet normal -0.382684 0 0.923879
    outer loop
      vertex 4 20 14.4
      vertex 2.30294 21.8 13.6971
      vertex 2.30294 20 13.6971
    endloop
  endfacet
  facet normal 0.382684 0 0.923879
    outer loop
      vertex 4 21.8 14.4
      vertex 5.69706 20 13.6971
      vertex 5.69706 21.8 13.6971
    endloop
  endfacet
  facet normal 0.382684 0 0.923879
    outer loop
      vertex 5.69706 20 13.6971
      vertex 4 21.8 14.4
      vertex 4 20 14.4
    endloop
  endfacet
  facet normal 0 -1 0
    outer loop
      vertex 2.30294 20 13.6971
      vertex 5.69706 20 13.6971
      vertex 4 20 14.4
    endloop
  endfacet
  facet normal 0 -1 0
    outer loop
      vertex 1.6 20 12
      vertex 5.69706 20 13.6971
      vertex 2.30294 20 13.6971
    endloop
  endfacet
  facet normal 0 -1 0
    outer loop
      vertex 1.6 20 12
      vertex 6.4 20 12
      vertex 5.69706 20 13.6971
    endloop
  endfacet
  facet normal 0 -1 0
    outer loop
      vertex 2.30294 20 10.3029
      vertex 6.4 20 12
      vertex 1.6 20 12
    endloop
  endfacet
  facet normal 0 -1 0
    outer loop
      vertex 2.30294 20 10.3029
      vertex 5.69706 20 10.3029
      vertex 6.4 20 12
    endloop
  endfacet
  facet normal -0 -1 0
    outer loop
      vertex 5.69706 20 10.3029
      vertex 2.30294 20 10.3029
      vertex 4 20 9.6
    endloop
  endfacet
  facet normal -0.923879 0 0.382684
    outer loop
      vertex 1.6 20 12
      vertex 2.30294 21.8 13.6971
      vertex 1.6 21.8 12
    endloop
  endfacet
  facet normal -0.923879 0 0.382684
    outer loop
      vertex 2.30294 21.8 13.6971
      vertex 1.6 20 12
      vertex 2.30294 20 13.6971
    endloop
  endfacet
  facet normal 0.92388 0 -0.382683
    outer loop
      vertex 6.4 20 12
      vertex 5.69706 21.8 10.3029
      vertex 6.4 21.8 12
    endloop
  endfacet
  facet normal 0.92388 0 -0.382683
    outer loop
      vertex 5.69706 21.8 10.3029
      vertex 6.4 20 12
      vertex 5.69706 20 10.3029
    endloop
  endfacet
  facet normal -0.382684 0 -0.923879
    outer loop
      vertex 2.30294 20 10.3029
      vertex 4 21.8 9.6
      vertex 4 20 9.6
    endloop
  endfacet
  facet normal -0.382684 0 -0.923879
    outer loop
      vertex 4 21.8 9.6
      vertex 2.30294 20 10.3029
      vertex 2.30294 21.8 10.3029
    endloop
  endfacet
  facet normal -0.92388 0 -0.382683
    outer loop
      vertex 2.30294 20 10.3029
      vertex 1.6 21.8 12
      vertex 2.30294 21.8 10.3029
    endloop
  endfacet
  facet normal -0.92388 -0 -0.382683
    outer loop
      vertex 1.6 21.8 12
      vertex 2.30294 20 10.3029
      vertex 1.6 20 12
    endloop
  endfacet
  facet normal 0.382684 0 -0.923879
    outer loop
      vertex 4 20 9.6
      vertex 5.69706 21.8 10.3029
      vertex 5.69706 20 10.3029
    endloop
  endfacet
  facet normal 0.382684 0 -0.923879
    outer loop
      vertex 5.69706 21.8 10.3029
      vertex 4 20 9.6
      vertex 4 21.8 9.6
    endloop
  endfacet
  facet normal 0.923879 -0 0.382684
    outer loop
      vertex 5.69706 20 21.6971
      vertex 6.4 21.8 20
      vertex 5.69706 21.8 21.6971
    endloop
  endfacet
  facet normal 0.923879 0 0.382684
    outer loop
      vertex 6.4 21.8 20
      vertex 5.69706 20 21.6971
      vertex 6.4 20 20
    endloop
  endfacet
  facet normal -0.382684 0 0.923879
    outer loop
      vertex 2.30294 21.8 21.6971
      vertex 4 20 22.4
      vertex 4 21.8 22.4
    endloop
  endfacet
  facet normal -0.382684 0 0.923879
    outer loop
      vertex 4 20 22.4
      vertex 2.30294 21.8 21.6971
      vertex 2.30294 20 21.6971
    endloop
  endfacet
  facet normal 0.382684 0 0.923879
    outer loop
      vertex 4 21.8 22.4
      vertex 5.69706 20 21.6971
      vertex 5.69706 21.8 21.6971
    endloop
  endfacet
  facet normal 0.382684 0 0.923879
    outer loop
      vertex 5.69706 20 21.6971
      vertex 4 21.8 22.4
      vertex 4 20 22.4
    endloop
  endfacet
  facet normal 0 -1 0
    outer loop
      vertex 2.30294 20 21.6971
      vertex 5.69706 20 21.6971
      vertex 4 20 22.4
    endloop
  endfacet
  facet normal 0 -1 0
    outer loop
      vertex 1.6 20 20
      vertex 5.69706 20 21.6971
      vertex 2.30294 20 21.6971
    endloop
  endfacet
  facet normal 0 -1 0
    outer loop
      vertex 1.6 20 20
      vertex 6.4 20 20
      vertex 5.69706 20 21.6971
    endloop
  endfacet
  facet normal 0 -1 0
    outer loop
      vertex 2.30294 20 18.3029
      vertex 6.4 20 20
      vertex 1.6 20 20
    endloop
  endfacet
  facet normal 0 -1 0
    outer loop
      vertex 2.30294 20 18.3029
      vertex 5.69706 20 18.3029
      vertex 6.4 20 20
    endloop
  endfacet
  facet normal -0 -1 0
    outer loop
      vertex 5.69706 20 18.3029
      vertex 2.30294 20 18.3029
      vertex 4 20 17.6
    endloop
  endfacet
  facet normal -0.923879 0 0.382684
    outer loop
      vertex 1.6 20 20
      vertex 2.30294 21.8 21.6971
      vertex 1.6 21.8 20
    endloop
  endfacet
  facet normal -0.923879 0 0.382684
    outer loop
      vertex 2.30294 21.8 21.6971
      vertex 1.6 20 20
      vertex 2.30294 20 21.6971
    endloop
  endfacet
  facet normal 0.923879 0 -0.382684
    outer loop
      vertex 6.4 20 20
      vertex 5.69706 21.8 18.3029
      vertex 6.4 21.8 20
    endloop
  endfacet
  facet normal 0.923879 0 -0.382684
    outer loop
      vertex 5.69706 21.8 18.3029
      vertex 6.4 20 20
      vertex 5.69706 20 18.3029
    endloop
  endfacet
  facet normal -0.382684 0 -0.923879
    outer loop
      vertex 2.30294 20 18.3029
      vertex 4 21.8 17.6
      vertex 4 20 17.6
    endloop
  endfacet
  facet normal -0.382684 0 -0.923879
    outer loop
      vertex 4 21.8 17.6
      vertex 2.30294 20 18.3029
      vertex 2.30294 21.8 18.3029
    endloop
  endfacet
  facet normal -0.923879 0 -0.382684
    outer loop
      vertex 2.30294 20 18.3029
      vertex 1.6 21.8 20
      vertex 2.30294 21.8 18.3029
    endloop
  endfacet
  facet normal -0.923879 -0 -0.382684
    outer loop
      vertex 1.6 21.8 20
      vertex 2.30294 20 18.3029
      vertex 1.6 20 20
    endloop
  endfacet
  facet normal 0.382684 0 -0.923879
    outer loop
      vertex 4 20 17.6
      vertex 5.69706 21.8 18.3029
      vertex 5.69706 20 18.3029
    endloop
  endfacet
  facet normal 0.382684 0 -0.923879
    outer loop
      vertex 5.69706 21.8 18.3029
      vertex 4 20 17.6
      vertex 4 21.8 17.6
    endloop
  endfacet
  facet normal 0.923879 -0 0.382684
    outer loop
      vertex 13.6971 20 5.69706
      vertex 14.4 21.8 4
      vertex 13.6971 21.8 5.69706
    endloop
  endfacet
  facet normal 0.923879 0 0.382684
    outer loop
      vertex 14.4 21.8 4
      vertex 13.6971 20 5.69706
      vertex 14.4 20 4
    endloop
  endfacet
  facet normal -0.923879 0 0.382684
    outer loop
      vertex 9.6 20 4
      vertex 10.3029 21.8 5.69706
      vertex 9.6 21.8 4
    endloop
  endfacet
  facet normal -0.923879 0 0.382684
    outer loop
      vertex 10.3029 21.8 5.69706
      vertex 9.6 20 4
      vertex 10.3029 20 5.69706
    endloop
  endfacet
  facet normal 0.382684 0 0.923879
    outer loop
      vertex 12 21.8 6.4
      vertex 13.6971 20 5.69706
      vertex 13.6971 21.8 5.69706
    endloop
  endfacet
  facet normal 0.382684 0 0.923879
    outer loop
      vertex 13.6971 20 5.69706
      vertex 12 21.8 6.4
      vertex 12 20 6.4
    endloop
  endfacet
  facet normal -0.382683 0 0.92388
    outer loop
      vertex 10.3029 21.8 5.69706
      vertex 12 20 6.4
      vertex 12 21.8 6.4
    endloop
  endfacet
  facet normal -0.382683 0 0.92388
    outer loop
      vertex 12 20 6.4
      vertex 10.3029 21.8 5.69706
      vertex 10.3029 20 5.69706
    endloop
  endfacet
  facet normal 0.382684 0 -0.923879
    outer loop
      vertex 12 20 1.6
      vertex 13.6971 21.8 2.30294
      vertex 13.6971 20 2.30294
    endloop
  endfacet
  facet normal 0.382684 0 -0.923879
    outer loop
      vertex 13.6971 21.8 2.30294
      vertex 12 20 1.6
      vertex 12 21.8 1.6
    endloop
  endfacet
  facet normal -0.923879 0 -0.382684
    outer loop
      vertex 10.3029 20 2.30294
      vertex 9.6 21.8 4
      vertex 10.3029 21.8 2.30294
    endloop
  endfacet
  facet normal -0.923879 -0 -0.382684
    outer loop
      vertex 9.6 21.8 4
      vertex 10.3029 20 2.30294
      vertex 9.6 20 4
    endloop
  endfacet
  facet normal -0.382683 0 -0.92388
    outer loop
      vertex 10.3029 20 2.30294
      vertex 12 21.8 1.6
      vertex 12 20 1.6
    endloop
  endfacet
  facet normal -0.382683 0 -0.92388
    outer loop
      vertex 12 21.8 1.6
      vertex 10.3029 20 2.30294
      vertex 10.3029 21.8 2.30294
    endloop
  endfacet
  facet normal 0 -1 0
    outer loop
      vertex 10.3029 20 5.69706
      vertex 13.6971 20 5.69706
      vertex 12 20 6.4
    endloop
  endfacet
  facet normal 0 -1 0
    outer loop
      vertex 9.6 20 4
      vertex 13.6971 20 5.69706
      vertex 10.3029 20 5.69706
    endloop
  endfacet
  facet normal 0 -1 0
    outer loop
      vertex 9.6 20 4
      vertex 14.4 20 4
      vertex 13.6971 20 5.69706
    endloop
  endfacet
  facet normal 0 -1 0
    outer loop
      vertex 10.3029 20 2.30294
      vertex 14.4 20 4
      vertex 9.6 20 4
    endloop
  endfacet
  facet normal 0 -1 0
    outer loop
      vertex 10.3029 20 2.30294
      vertex 13.6971 20 2.30294
      vertex 14.4 20 4
    endloop
  endfacet
  facet normal -0 -1 0
    outer loop
      vertex 13.6971 20 2.30294
      vertex 10.3029 20 2.30294
      vertex 12 20 1.6
    endloop
  endfacet
  facet normal 0.923879 0 -0.382684
    outer loop
      vertex 14.4 20 4
      vertex 13.6971 21.8 2.30294
      vertex 14.4 21.8 4
    endloop
  endfacet
  facet normal 0.923879 0 -0.382684
    outer loop
      vertex 13.6971 21.8 2.30294
      vertex 14.4 20 4
      vertex 13.6971 20 2.30294
    endloop
  endfacet
  facet normal 0.923879 -0 0.382684
    outer loop
      vertex 13.6971 20 13.6971
      vertex 14.4 21.8 12
      vertex 13.6971 21.8 13.6971
    endloop
  endfacet
  facet normal 0.923879 0 0.382684
    outer loop
      vertex 14.4 21.8 12
      vertex 13.6971 20 13.6971
      vertex 14.4 20 12
    endloop
  endfacet
  facet normal -0.92388 0 -0.382683
    outer loop
      vertex 10.3029 20 10.3029
      vertex 9.6 21.8 12
      vertex 10.3029 21.8 10.3029
    endloop
  endfacet
  facet normal -0.92388 -0 -0.382683
    outer loop
      vertex 9.6 21.8 12
      vertex 10.3029 20 10.3029
      vertex 9.6 20 12
    endloop
  endfacet
  facet normal -0.382683 0 -0.92388
    outer loop
      vertex 10.3029 20 10.3029
      vertex 12 21.8 9.6
      vertex 12 20 9.6
    endloop
  endfacet
  facet normal -0.382683 0 -0.92388
    outer loop
      vertex 12 21.8 9.6
      vertex 10.3029 20 10.3029
      vertex 10.3029 21.8 10.3029
    endloop
  endfacet
  facet normal -0.382683 0 0.92388
    outer loop
      vertex 10.3029 21.8 13.6971
      vertex 12 20 14.4
      vertex 12 21.8 14.4
    endloop
  endfacet
  facet normal -0.382683 0 0.92388
    outer loop
      vertex 12 20 14.4
      vertex 10.3029 21.8 13.6971
      vertex 10.3029 20 13.6971
    endloop
  endfacet
  facet normal 0.382684 0 0.923879
    outer loop
      vertex 12 21.8 14.4
      vertex 13.6971 20 13.6971
      vertex 13.6971 21.8 13.6971
    endloop
  endfacet
  facet normal 0.382684 0 0.923879
    outer loop
      vertex 13.6971 20 13.6971
      vertex 12 21.8 14.4
      vertex 12 20 14.4
    endloop
  endfacet
  facet normal 0 -1 0
    outer loop
      vertex 10.3029 20 13.6971
      vertex 13.6971 20 13.6971
      vertex 12 20 14.4
    endloop
  endfacet
  facet normal 0 -1 0
    outer loop
      vertex 9.6 20 12
      vertex 13.6971 20 13.6971
      vertex 10.3029 20 13.6971
    endloop
  endfacet
  facet normal 0 -1 0
    outer loop
      vertex 9.6 20 12
      vertex 14.4 20 12
      vertex 13.6971 20 13.6971
    endloop
  endfacet
  facet normal 0 -1 0
    outer loop
      vertex 10.3029 20 10.3029
      vertex 14.4 20 12
      vertex 9.6 20 12
    endloop
  endfacet
  facet normal 0 -1 0
    outer loop
      vertex 10.3029 20 10.3029
      vertex 13.6971 20 10.3029
      vertex 14.4 20 12
    endloop
  endfacet
  facet normal -0 -1 0
    outer loop
      vertex 13.6971 20 10.3029
      vertex 10.3029 20 10.3029
      vertex 12 20 9.6
    endloop
  endfacet
  facet normal -0.923879 0 0.382684
    outer loop
      vertex 9.6 20 12
      vertex 10.3029 21.8 13.6971
      vertex 9.6 21.8 12
    endloop
  endfacet
  facet normal -0.923879 0 0.382684
    outer loop
      vertex 10.3029 21.8 13.6971
      vertex 9.6 20 12
      vertex 10.3029 20 13.6971
    endloop
  endfacet
  facet normal 0.382684 0 -0.923879
    outer loop
      vertex 12 20 9.6
      vertex 13.6971 21.8 10.3029
      vertex 13.6971 20 10.3029
    endloop
  endfacet
  facet normal 0.382684 0 -0.923879
    outer loop
      vertex 13.6971 21.8 10.3029
      vertex 12 20 9.6
      vertex 12 21.8 9.6
    endloop
  endfacet
  facet normal 0.92388 0 -0.382683
    outer loop
      vertex 14.4 20 12
      vertex 13.6971 21.8 10.3029
      vertex 14.4 21.8 12
    endloop
  endfacet
  facet normal 0.92388 0 -0.382683
    outer loop
      vertex 13.6971 21.8 10.3029
      vertex 14.4 20 12
      vertex 13.6971 20 10.3029
    endloop
  endfacet
  facet normal 0.923879 -0 0.382684
    outer loop
      vertex 13.6971 20 21.6971
      vertex 14.4 21.8 20
      vertex 13.6971 21.8 21.6971
    endloop
  endfacet
  facet normal 0.923879 0 0.382684
    outer loop
      vertex 14.4 21.8 20
      vertex 13.6971 20 21.6971
      vertex 14.4 20 20
    endloop
  endfacet
  facet normal -0.382684 0 -0.923879
    outer loop
      vertex 10.3029 20 18.3029
      vertex 12 21.8 17.6
      vertex 12 20 17.6
    endloop
  endfacet
  facet normal -0.382684 0 -0.923879
    outer loop
      vertex 12 21.8 17.6
      vertex 10.3029 20 18.3029
      vertex 10.3029 21.8 18.3029
    endloop
  endfacet
  facet normal -0.382683 0 0.92388
    outer loop
      vertex 10.3029 21.8 21.6971
      vertex 12 20 22.4
      vertex 12 21.8 22.4
    endloop
  endfacet
  facet normal -0.382683 0 0.92388
    outer loop
      vertex 12 20 22.4
      vertex 10.3029 21.8 21.6971
      vertex 10.3029 20 21.6971
    endloop
  endfacet
  facet normal 0.382684 0 0.923879
    outer loop
      vertex 12 21.8 22.4
      vertex 13.6971 20 21.6971
      vertex 13.6971 21.8 21.6971
    endloop
  endfacet
  facet normal 0.382684 0 0.923879
    outer loop
      vertex 13.6971 20 21.6971
      vertex 12 21.8 22.4
      vertex 12 20 22.4
    endloop
  endfacet
  facet normal 0 -1 0
    outer loop
      vertex 10.3029 20 21.6971
      vertex 13.6971 20 21.6971
      vertex 12 20 22.4
    endloop
  endfacet
  facet normal 0 -1 0
    outer loop
      vertex 9.6 20 20
      vertex 13.6971 20 21.6971
      vertex 10.3029 20 21.6971
    endloop
  endfacet
  facet normal 0 -1 0
    outer loop
      vertex 9.6 20 20
      vertex 14.4 20 20
      vertex 13.6971 20 21.6971
    endloop
  endfacet
  facet normal 0 -1 0
    outer loop
      vertex 10.3029 20 18.3029
      vertex 14.4 20 20
      vertex 9.6 20 20
    endloop
  endfacet
  facet normal 0 -1 0
    outer loop
      vertex 10.3029 20 18.3029
      vertex 13.6971 20 18.3029
      vertex 14.4 20 20
    endloop
  endfacet
  facet normal -0 -1 0
    outer loop
      vertex 13.6971 20 18.3029
      vertex 10.3029 20 18.3029
      vertex 12 20 17.6
    endloop
  endfacet
  facet normal -0.923879 0 0.382684
    outer loop
      vertex 9.6 20 20
      vertex 10.3029 21.8 21.6971
      vertex 9.6 21.8 20
    endloop
  endfacet
  facet normal -0.923879 0 0.382684
    outer loop
      vertex 10.3029 21.8 21.6971
      vertex 9.6 20 20
      vertex 10.3029 20 21.6971
    endloop
  endfacet
  facet normal -0.923879 0 -0.382684
    outer loop
      vertex 10.3029 20 18.3029
      vertex 9.6 21.8 20
      vertex 10.3029 21.8 18.3029
    endloop
  endfacet
  facet normal -0.923879 -0 -0.382684
    outer loop
      vertex 9.6 21.8 20
      vertex 10.3029 20 18.3029
      vertex 9.6 20 20
    endloop
  endfacet
  facet normal 0.382684 0 -0.923879
    outer loop
      vertex 12 20 17.6
      vertex 13.6971 21.8 18.3029
      vertex 13.6971 20 18.3029
    endloop
  endfacet
  facet normal 0.382684 0 -0.923879
    outer loop
      vertex 13.6971 21.8 18.3029
      vertex 12 20 17.6
      vertex 12 21.8 17.6
    endloop
  endfacet
  facet normal 0.923879 0 -0.382684
    outer loop
      vertex 14.4 20 20
      vertex 13.6971 21.8 18.3029
      vertex 14.4 21.8 20
    endloop
  endfacet
  facet normal 0.923879 0 -0.382684
    outer loop
      vertex 13.6971 21.8 18.3029
      vertex 14.4 20 20
      vertex 13.6971 20 18.3029
    endloop
  endfacet
  facet normal 0.923879 -0 0.382684
    outer loop
      vertex 21.6971 20 5.69706
      vertex 22.4 21.8 4
      vertex 21.6971 21.8 5.69706
    endloop
  endfacet
  facet normal 0.923879 0 0.382684
    outer loop
      vertex 22.4 21.8 4
      vertex 21.6971 20 5.69706
      vertex 22.4 20 4
    endloop
  endfacet
  facet normal -0.923879 0 0.382684
    outer loop
      vertex 17.6 20 4
      vertex 18.3029 21.8 5.69706
      vertex 17.6 21.8 4
    endloop
  endfacet
  facet normal -0.923879 0 0.382684
    outer loop
      vertex 18.3029 21.8 5.69706
      vertex 17.6 20 4
      vertex 18.3029 20 5.69706
    endloop
  endfacet
  facet normal 0.382684 0 0.923879
    outer loop
      vertex 20 21.8 6.4
      vertex 21.6971 20 5.69706
      vertex 21.6971 21.8 5.69706
    endloop
  endfacet
  facet normal 0.382684 0 0.923879
    outer loop
      vertex 21.6971 20 5.69706
      vertex 20 21.8 6.4
      vertex 20 20 6.4
    endloop
  endfacet
  facet normal 0 -1 0
    outer loop
      vertex 18.3029 20 5.69706
      vertex 21.6971 20 5.69706
      vertex 20 20 6.4
    endloop
  endfacet
  facet normal 0 -1 0
    outer loop
      vertex 17.6 20 4
      vertex 21.6971 20 5.69706
      vertex 18.3029 20 5.69706
    endloop
  endfacet
  facet normal 0 -1 0
    outer loop
      vertex 17.6 20 4
      vertex 22.4 20 4
      vertex 21.6971 20 5.69706
    endloop
  endfacet
  facet normal 0 -1 0
    outer loop
      vertex 18.3029 20 2.30294
      vertex 22.4 20 4
      vertex 17.6 20 4
    endloop
  endfacet
  facet normal 0 -1 0
    outer loop
      vertex 18.3029 20 2.30294
      vertex 21.6971 20 2.30294
      vertex 22.4 20 4
    endloop
  endfacet
  facet normal -0 -1 0
    outer loop
      vertex 21.6971 20 2.30294
      vertex 18.3029 20 2.30294
      vertex 20 20 1.6
    endloop
  endfacet
  facet normal -0.382684 0 0.923879
    outer loop
      vertex 18.3029 21.8 5.69706
      vertex 20 20 6.4
      vertex 20 21.8 6.4
    endloop
  endfacet
  facet normal -0.382684 0 0.923879
    outer loop
      vertex 20 20 6.4
      vertex 18.3029 21.8 5.69706
      vertex 18.3029 20 5.69706
    endloop
  endfacet
  facet normal 0.382684 0 -0.923879
    outer loop
      vertex 20 20 1.6
      vertex 21.6971 21.8 2.30294
      vertex 21.6971 20 2.30294
    endloop
  endfacet
  facet normal 0.382684 0 -0.923879
    outer loop
      vertex 21.6971 21.8 2.30294
      vertex 20 20 1.6
      vertex 20 21.8 1.6
    endloop
  endfacet
  facet normal -0.923879 0 -0.382684
    outer loop
      vertex 18.3029 20 2.30294
      vertex 17.6 21.8 4
      vertex 18.3029 21.8 2.30294
    endloop
  endfacet
  facet normal -0.923879 -0 -0.382684
    outer loop
      vertex 17.6 21.8 4
      vertex 18.3029 20 2.30294
      vertex 17.6 20 4
    endloop
  endfacet
  facet normal -0.382684 0 -0.923879
    outer loop
      vertex 18.3029 20 2.30294
      vertex 20 21.8 1.6
      vertex 20 20 1.6
    endloop
  endfacet
  facet normal -0.382684 0 -0.923879
    outer loop
      vertex 20 21.8 1.6
      vertex 18.3029 20 2.30294
      vertex 18.3029 21.8 2.30294
    endloop
  endfacet
  facet normal 0.923879 0 -0.382684
    outer loop
      vertex 22.4 20 4
      vertex 21.6971 21.8 2.30294
      vertex 22.4 21.8 4
    endloop
  endfacet
  facet normal 0.923879 0 -0.382684
    outer loop
      vertex 21.6971 21.8 2.30294
      vertex 22.4 20 4
      vertex 21.6971 20 2.30294
    endloop
  endfacet
  facet normal 0.923879 -0 0.382684
    outer loop
      vertex 21.6971 20 13.6971
      vertex 22.4 21.8 12
      vertex 21.6971 21.8 13.6971
    endloop
  endfacet
  facet normal 0.923879 0 0.382684
    outer loop
      vertex 22.4 21.8 12
      vertex 21.6971 20 13.6971
      vertex 22.4 20 12
    endloop
  endfacet
  facet normal -0.923879 0 -0.382684
    outer loop
      vertex 18.3029 20 10.3029
      vertex 17.6 21.8 12
      vertex 18.3029 21.8 10.3029
    endloop
  endfacet
  facet normal -0.923879 -0 -0.382684
    outer loop
      vertex 17.6 21.8 12
      vertex 18.3029 20 10.3029
      vertex 17.6 20 12
    endloop
  endfacet
  facet normal -0.382684 0 0.923879
    outer loop
      vertex 18.3029 21.8 13.6971
      vertex 20 20 14.4
      vertex 20 21.8 14.4
    endloop
  endfacet
  facet normal -0.382684 0 0.923879
    outer loop
      vertex 20 20 14.4
      vertex 18.3029 21.8 13.6971
      vertex 18.3029 20 13.6971
    endloop
  endfacet
  facet normal 0.382684 0 0.923879
    outer loop
      vertex 20 21.8 14.4
      vertex 21.6971 20 13.6971
      vertex 21.6971 21.8 13.6971
    endloop
  endfacet
  facet normal 0.382684 0 0.923879
    outer loop
      vertex 21.6971 20 13.6971
      vertex 20 21.8 14.4
      vertex 20 20 14.4
    endloop
  endfacet
  facet normal 0 -1 0
    outer loop
      vertex 18.3029 20 13.6971
      vertex 21.6971 20 13.6971
      vertex 20 20 14.4
    endloop
  endfacet
  facet normal 0 -1 0
    outer loop
      vertex 17.6 20 12
      vertex 21.6971 20 13.6971
      vertex 18.3029 20 13.6971
    endloop
  endfacet
  facet normal 0 -1 0
    outer loop
      vertex 17.6 20 12
      vertex 22.4 20 12
      vertex 21.6971 20 13.6971
    endloop
  endfacet
  facet normal 0 -1 0
    outer loop
      vertex 18.3029 20 10.3029
      vertex 22.4 20 12
      vertex 17.6 20 12
    endloop
  endfacet
  facet normal 0 -1 0
    outer loop
      vertex 18.3029 20 10.3029
      vertex 21.6971 20 10.3029
      vertex 22.4 20 12
    endloop
  endfacet
  facet normal -0 -1 0
    outer loop
      vertex 21.6971 20 10.3029
      vertex 18.3029 20 10.3029
      vertex 20 20 9.6
    endloop
  endfacet
  facet normal -0.923879 0 0.382684
    outer loop
      vertex 17.6 20 12
      vertex 18.3029 21.8 13.6971
      vertex 17.6 21.8 12
    endloop
  endfacet
  facet normal -0.923879 0 0.382684
    outer loop
      vertex 18.3029 21.8 13.6971
      vertex 17.6 20 12
      vertex 18.3029 20 13.6971
    endloop
  endfacet
  facet normal 0.382684 0 -0.923879
    outer loop
      vertex 20 20 9.6
      vertex 21.6971 21.8 10.3029
      vertex 21.6971 20 10.3029
    endloop
  endfacet
  facet normal 0.382684 0 -0.923879
    outer loop
      vertex 21.6971 21.8 10.3029
      vertex 20 20 9.6
      vertex 20 21.8 9.6
    endloop
  endfacet
  facet normal -0.382684 0 -0.923879
    outer loop
      vertex 18.3029 20 10.3029
      vertex 20 21.8 9.6
      vertex 20 20 9.6
    endloop
  endfacet
  facet normal -0.382684 0 -0.923879
    outer loop
      vertex 20 21.8 9.6
      vertex 18.3029 20 10.3029
      vertex 18.3029 21.8 10.3029
    endloop
  endfacet
  facet normal 0.92388 0 -0.382683
    outer loop
      vertex 22.4 20 12
      vertex 21.6971 21.8 10.3029
      vertex 22.4 21.8 12
    endloop
  endfacet
  facet normal 0.92388 0 -0.382683
    outer loop
      vertex 21.6971 21.8 10.3029
      vertex 22.4 20 12
      vertex 21.6971 20 10.3029
    endloop
  endfacet
  facet normal 0.923879 -0 0.382684
    outer loop
      vertex 21.6971 20 21.6971
      vertex 22.4 21.8 20
      vertex 21.6971 21.8 21.6971
    endloop
  endfacet
  facet normal 0.923879 0 0.382684
    outer loop
      vertex 22.4 21.8 20
      vertex 21.6971 20 21.6971
      vertex 22.4 20 20
    endloop
  endfacet
  facet normal -0.923879 0 -0.382684
    outer loop
      vertex 18.3029 20 18.3029
      vertex 17.6 21.8 20
      vertex 18.3029 21.8 18.3029
    endloop
  endfacet
  facet normal -0.923879 -0 -0.382684
    outer loop
      vertex 17.6 21.8 20
      vertex 18.3029 20 18.3029
      vertex 17.6 20 20
    endloop
  endfacet
  facet normal -0.382684 0 -0.923879
    outer loop
      vertex 18.3029 20 18.3029
      vertex 20 21.8 17.6
      vertex 20 20 17.6
    endloop
  endfacet
  facet normal -0.382684 0 -0.923879
    outer loop
      vertex 20 21.8 17.6
      vertex 18.3029 20 18.3029
      vertex 18.3029 21.8 18.3029
    endloop
  endfacet
  facet normal -0.382684 0 0.923879
    outer loop
      vertex 18.3029 21.8 21.6971
      vertex 20 20 22.4
      vertex 20 21.8 22.4
    endloop
  endfacet
  facet normal -0.382684 0 0.923879
    outer loop
      vertex 20 20 22.4
      vertex 18.3029 21.8 21.6971
      vertex 18.3029 20 21.6971
    endloop
  endfacet
  facet normal 0.382684 0 0.923879
    outer loop
      vertex 20 21.8 22.4
      vertex 21.6971 20 21.6971
      vertex 21.6971 21.8 21.6971
    endloop
  endfacet
  facet normal 0.382684 0 0.923879
    outer loop
      vertex 21.6971 20 21.6971
      vertex 20 21.8 22.4
      vertex 20 20 22.4
    endloop
  endfacet
  facet normal 0 -1 0
    outer loop
      vertex 18.3029 20 21.6971
      vertex 21.6971 20 21.6971
      vertex 20 20 22.4
    endloop
  endfacet
  facet normal 0 -1 0
    outer loop
      vertex 17.6 20 20
      vertex 21.6971 20 21.6971
      vertex 18.3029 20 21.6971
    endloop
  endfacet
  facet normal 0 -1 0
    outer loop
      vertex 17.6 20 20
      vertex 22.4 20 20
      vertex 21.6971 20 21.6971
    endloop
  endfacet
  facet normal 0 -1 0
    outer loop
      vertex 18.3029 20 18.3029
      vertex 22.4 20 20
      vertex 17.6 20 20
    endloop
  endfacet
  facet normal 0 -1 0
    outer loop
      vertex 18.3029 20 18.3029
      vertex 21.6971 20 18.3029
      vertex 22.4 20 20
    endloop
  endfacet
  facet normal -0 -1 0
    outer loop
      vertex 21.6971 20 18.3029
      vertex 18.3029 20 18.3029
      vertex 20 20 17.6
    endloop
  endfacet
  facet normal -0.923879 0 0.382684
    outer loop
      vertex 17.6 20 20
      vertex 18.3029 21.8 21.6971
      vertex 17.6 21.8 20
    endloop
  endfacet
  facet normal -0.923879 0 0.382684
    outer loop
      vertex 18.3029 21.8 21.6971
      vertex 17.6 20 20
      vertex 18.3029 20 21.6971
    endloop
  endfacet
  facet normal 0.382684 0 -0.923879
    outer loop
      vertex 20 20 17.6
      vertex 21.6971 21.8 18.3029
      vertex 21.6971 20 18.3029
    endloop
  endfacet
  facet normal 0.382684 0 -0.923879
    outer loop
      vertex 21.6971 21.8 18.3029
      vertex 20 20 17.6
      vertex 20 21.8 17.6
    endloop
  endfacet
  facet normal 0.923879 0 -0.382684
    outer loop
      vertex 22.4 20 20
      vertex 21.6971 21.8 18.3029
      vertex 22.4 21.8 20
    endloop
  endfacet
  facet normal 0.923879 0 -0.382684
    outer loop
      vertex 21.6971 21.8 18.3029
      vertex 22.4 20 20
      vertex 21.6971 20 18.3029
    endloop
  endfacet
  facet normal 0.923879 -0 0.382684
    outer loop
      vertex 29.6971 20 5.69706
      vertex 30.4 21.8 4
      vertex 29.6971 21.8 5.69706
    endloop
  endfacet
  facet normal 0.923879 0 0.382684
    outer loop
      vertex 30.4 21.8 4
      vertex 29.6971 20 5.69706
      vertex 30.4 20 4
    endloop
  endfacet
  facet normal -0.923879 0 0.382684
    outer loop
      vertex 25.6 20 4
      vertex 26.3029 21.8 5.69706
      vertex 25.6 21.8 4
    endloop
  endfacet
  facet normal -0.923879 0 0.382684
    outer loop
      vertex 26.3029 21.8 5.69706
      vertex 25.6 20 4
      vertex 26.3029 20 5.69706
    endloop
  endfacet
  facet normal 0.382684 0 0.923879
    outer loop
      vertex 28 21.8 6.4
      vertex 29.6971 20 5.69706
      vertex 29.6971 21.8 5.69706
    endloop
  endfacet
  facet normal 0.382684 0 0.923879
    outer loop
      vertex 29.6971 20 5.69706
      vertex 28 21.8 6.4
      vertex 28 20 6.4
    endloop
  endfacet
  facet normal 0 -1 0
    outer loop
      vertex 26.3029 20 5.69706
      vertex 29.6971 20 5.69706
      vertex 28 20 6.4
    endloop
  endfacet
  facet normal 0 -1 0
    outer loop
      vertex 25.6 20 4
      vertex 29.6971 20 5.69706
      vertex 26.3029 20 5.69706
    endloop
  endfacet
  facet normal 0 -1 0
    outer loop
      vertex 25.6 20 4
      vertex 30.4 20 4
      vertex 29.6971 20 5.69706
    endloop
  endfacet
  facet normal 0 -1 0
    outer loop
      vertex 26.3029 20 2.30294
      vertex 30.4 20 4
      vertex 25.6 20 4
    endloop
  endfacet
  facet normal 0 -1 0
    outer loop
      vertex 26.3029 20 2.30294
      vertex 29.6971 20 2.30294
      vertex 30.4 20 4
    endloop
  endfacet
  facet normal -0 -1 0
    outer loop
      vertex 29.6971 20 2.30294
      vertex 26.3029 20 2.30294
      vertex 28 20 1.6
    endloop
  endfacet
  facet normal -0.382684 0 0.923879
    outer loop
      vertex 26.3029 21.8 5.69706
      vertex 28 20 6.4
      vertex 28 21.8 6.4
    endloop
  endfacet
  facet normal -0.382684 0 0.923879
    outer loop
      vertex 28 20 6.4
      vertex 26.3029 21.8 5.69706
      vertex 26.3029 20 5.69706
    endloop
  endfacet
  facet normal 0.382684 0 -0.923879
    outer loop
      vertex 28 20 1.6
      vertex 29.6971 21.8 2.30294
      vertex 29.6971 20 2.30294
    endloop
  endfacet
  facet normal 0.382684 0 -0.923879
    outer loop
      vertex 29.6971 21.8 2.30294
      vertex 28 20 1.6
      vertex 28 21.8 1.6
    endloop
  endfacet
  facet normal -0.923879 0 -0.382684
    outer loop
      vertex 26.3029 20 2.30294
      vertex 25.6 21.8 4
      vertex 26.3029 21.8 2.30294
    endloop
  endfacet
  facet normal -0.923879 -0 -0.382684
    outer loop
      vertex 25.6 21.8 4
      vertex 26.3029 20 2.30294
      vertex 25.6 20 4
    endloop
  endfacet
  facet normal -0.382684 0 -0.923879
    outer loop
      vertex 26.3029 20 2.30294
      vertex 28 21.8 1.6
      vertex 28 20 1.6
    endloop
  endfacet
  facet normal -0.382684 0 -0.923879
    outer loop
      vertex 28 21.8 1.6
      vertex 26.3029 20 2.30294
      vertex 26.3029 21.8 2.30294
    endloop
  endfacet
  facet normal 0.923879 0 -0.382684
    outer loop
      vertex 30.4 20 4
      vertex 29.6971 21.8 2.30294
      vertex 30.4 21.8 4
    endloop
  endfacet
  facet normal 0.923879 0 -0.382684
    outer loop
      vertex 29.6971 21.8 2.30294
      vertex 30.4 20 4
      vertex 29.6971 20 2.30294
    endloop
  endfacet
  facet normal 0.923879 -0 0.382684
    outer loop
      vertex 29.6971 20 13.6971
      vertex 30.4 21.8 12
      vertex 29.6971 21.8 13.6971
    endloop
  endfacet
  facet normal 0.923879 0 0.382684
    outer loop
      vertex 30.4 21.8 12
      vertex 29.6971 20 13.6971
      vertex 30.4 20 12
    endloop
  endfacet
  facet normal -0.382684 0 0.923879
    outer loop
      vertex 26.3029 21.8 13.6971
      vertex 28 20 14.4
      vertex 28 21.8 14.4
    endloop
  endfacet
  facet normal -0.382684 0 0.923879
    outer loop
      vertex 28 20 14.4
      vertex 26.3029 21.8 13.6971
      vertex 26.3029 20 13.6971
    endloop
  endfacet
  facet normal 0.382684 0 0.923879
    outer loop
      vertex 28 21.8 14.4
      vertex 29.6971 20 13.6971
      vertex 29.6971 21.8 13.6971
    endloop
  endfacet
  facet normal 0.382684 0 0.923879
    outer loop
      vertex 29.6971 20 13.6971
      vertex 28 21.8 14.4
      vertex 28 20 14.4
    endloop
  endfacet
  facet normal 0 -1 0
    outer loop
      vertex 26.3029 20 13.6971
      vertex 29.6971 20 13.6971
      vertex 28 20 14.4
    endloop
  endfacet
  facet normal 0 -1 0
    outer loop
      vertex 25.6 20 12
      vertex 29.6971 20 13.6971
      vertex 26.3029 20 13.6971
    endloop
  endfacet
  facet normal 0 -1 0
    outer loop
      vertex 25.6 20 12
      vertex 30.4 20 12
      vertex 29.6971 20 13.6971
    endloop
  endfacet
  facet normal 0 -1 0
    outer loop
      vertex 26.3029 20 10.3029
      vertex 30.4 20 12
      vertex 25.6 20 12
    endloop
  endfacet
  facet normal 0 -1 0
    outer loop
      vertex 26.3029 20 10.3029
      vertex 29.6971 20 10.3029
      vertex 30.4 20 12
    endloop
  endfacet
  facet normal -0 -1 0
    outer loop
      vertex 29.6971 20 10.3029
      vertex 26.3029 20 10.3029
      vertex 28 20 9.6
    endloop
  endfacet
  facet normal -0.923879 0 0.382684
    outer loop
      vertex 25.6 20 12
      vertex 26.3029 21.8 13.6971
      vertex 25.6 21.8 12
    endloop
  endfacet
  facet normal -0.923879 0 0.382684
    outer loop
      vertex 26.3029 21.8 13.6971
      vertex 25.6 20 12
      vertex 26.3029 20 13.6971
    endloop
  endfacet
  facet normal 0.92388 0 -0.382683
    outer loop
      vertex 30.4 20 12
      vertex 29.6971 21.8 10.3029
      vertex 30.4 21.8 12
    endloop
  endfacet
  facet normal 0.92388 0 -0.382683
    outer loop
      vertex 29.6971 21.8 10.3029
      vertex 30.4 20 12
      vertex 29.6971 20 10.3029
    endloop
  endfacet
  facet normal -0.923879 0 -0.382684
    outer loop
      vertex 26.3029 20 10.3029
      vertex 25.6 21.8 12
      vertex 26.3029 21.8 10.3029
    endloop
  endfacet
  facet normal -0.923879 -0 -0.382684
    outer loop
      vertex 25.6 21.8 12
      vertex 26.3029 20 10.3029
      vertex 25.6 20 12
    endloop
  endfacet
  facet normal 0.382684 0 -0.923879
    outer loop
      vertex 28 20 9.6
      vertex 29.6971 21.8 10.3029
      vertex 29.6971 20 10.3029
    endloop
  endfacet
  facet normal 0.382684 0 -0.923879
    outer loop
      vertex 29.6971 21.8 10.3029
      vertex 28 20 9.6
      vertex 28 21.8 9.6
    endloop
  endfacet
  facet normal -0.382684 0 -0.923879
    outer loop
      vertex 26.3029 20 10.3029
      vertex 28 21.8 9.6
      vertex 28 20 9.6
    endloop
  endfacet
  facet normal -0.382684 0 -0.923879
    outer loop
      vertex 28 21.8 9.6
      vertex 26.3029 20 10.3029
      vertex 26.3029 21.8 10.3029
    endloop
  endfacet
  facet normal 0.923879 -0 0.382684
    outer loop
      vertex 29.6971 20 21.6971
      vertex 30.4 21.8 20
      vertex 29.6971 21.8 21.6971
    endloop
  endfacet
  facet normal 0.923879 0 0.382684
    outer loop
      vertex 30.4 21.8 20
      vertex 29.6971 20 21.6971
      vertex 30.4 20 20
    endloop
  endfacet
  facet normal -0.382684 0 -0.923879
    outer loop
      vertex 26.3029 20 18.3029
      vertex 28 21.8 17.6
      vertex 28 20 17.6
    endloop
  endfacet
  facet normal -0.382684 0 -0.923879
    outer loop
      vertex 28 21.8 17.6
      vertex 26.3029 20 18.3029
      vertex 26.3029 21.8 18.3029
    endloop
  endfacet
  facet normal -0.382684 0 0.923879
    outer loop
      vertex 26.3029 21.8 21.6971
      vertex 28 20 22.4
      vertex 28 21.8 22.4
    endloop
  endfacet
  facet normal -0.382684 0 0.923879
    outer loop
      vertex 28 20 22.4
      vertex 26.3029 21.8 21.6971
      vertex 26.3029 20 21.6971
    endloop
  endfacet
  facet normal 0.382684 0 0.923879
    outer loop
      vertex 28 21.8 22.4
      vertex 29.6971 20 21.6971
      vertex 29.6971 21.8 21.6971
    endloop
  endfacet
  facet normal 0.382684 0 0.923879
    outer loop
      vertex 29.6971 20 21.6971
      vertex 28 21.8 22.4
      vertex 28 20 22.4
    endloop
  endfacet
  facet normal 0 -1 0
    outer loop
      vertex 26.3029 20 21.6971
      vertex 29.6971 20 21.6971
      vertex 28 20 22.4
    endloop
  endfacet
  facet normal 0 -1 0
    outer loop
      vertex 25.6 20 20
      vertex 29.6971 20 21.6971
      vertex 26.3029 20 21.6971
    endloop
  endfacet
  facet normal 0 -1 0
    outer loop
      vertex 25.6 20 20
      vertex 30.4 20 20
      vertex 29.6971 20 21.6971
    endloop
  endfacet
  facet normal 0 -1 0
    outer loop
      vertex 26.3029 20 18.3029
      vertex 30.4 20 20
      vertex 25.6 20 20
    endloop
  endfacet
  facet normal 0 -1 0
    outer loop
      vertex 26.3029 20 18.3029
      vertex 29.6971 20 18.3029
      vertex 30.4 20 20
    endloop
  endfacet
  facet normal -0 -1 0
    outer loop
      vertex 29.6971 20 18.3029
      vertex 26.3029 20 18.3029
      vertex 28 20 17.6
    endloop
  endfacet
  facet normal -0.923879 0 0.382684
    outer loop
      vertex 25.6 20 20
      vertex 26.3029 21.8 21.6971
      vertex 25.6 21.8 20
    endloop
  endfacet
  facet normal -0.923879 0 0.382684
    outer loop
      vertex 26.3029 21.8 21.6971
      vertex 25.6 20 20
      vertex 26.3029 20 21.6971
    endloop
  endfacet
  facet normal -0.923879 0 -0.382684
    outer loop
      vertex 26.3029 20 18.3029
      vertex 25.6 21.8 20
      vertex 26.3029 21.8 18.3029
    endloop
  endfacet
  facet normal -0.923879 -0 -0.382684
    outer loop
      vertex 25.6 21.8 20
      vertex 26.3029 20 18.3029
      vertex 25.6 20 20
    endloop
  endfacet
  facet normal 0.382684 0 -0.923879
    outer loop
      vertex 28 20 17.6
      vertex 29.6971 21.8 18.3029
      vertex 29.6971 20 18.3029
    endloop
  endfacet
  facet normal 0.382684 0 -0.923879
    outer loop
      vertex 29.6971 21.8 18.3029
      vertex 28 20 17.6
      vertex 28 21.8 17.6
    endloop
  endfacet
  facet normal 0.923879 0 -0.382684
    outer loop
      vertex 30.4 20 20
      vertex 29.6971 21.8 18.3029
      vertex 30.4 21.8 20
    endloop
  endfacet
  facet normal 0.923879 0 -0.382684
    outer loop
      vertex 29.6971 21.8 18.3029
      vertex 30.4 20 20
      vertex 29.6971 20 18.3029
    endloop
  endfacet
  facet normal 0.923879 -0 0.382684
    outer loop
      vertex 37.6971 20 5.69706
      vertex 38.4 21.8 4
      vertex 37.6971 21.8 5.69706
    endloop
  endfacet
  facet normal 0.923879 0 0.382684
    outer loop
      vertex 38.4 21.8 4
      vertex 37.6971 20 5.69706
      vertex 38.4 20 4
    endloop
  endfacet
  facet normal -0.923879 0 0.382684
    outer loop
      vertex 33.6 20 4
      vertex 34.3029 21.8 5.69706
      vertex 33.6 21.8 4
    endloop
  endfacet
  facet normal -0.923879 0 0.382684
    outer loop
      vertex 34.3029 21.8 5.69706
      vertex 33.6 20 4
      vertex 34.3029 20 5.69706
    endloop
  endfacet
  facet normal 0.382684 0 0.923879
    outer loop
      vertex 36 21.8 6.4
      vertex 37.6971 20 5.69706
      vertex 37.6971 21.8 5.69706
    endloop
  endfacet
  facet normal 0.382684 0 0.923879
    outer loop
      vertex 37.6971 20 5.69706
      vertex 36 21.8 6.4
      vertex 36 20 6.4
    endloop
  endfacet
  facet normal 0 -1 0
    outer loop
      vertex 34.3029 20 5.69706
      vertex 37.6971 20 5.69706
      vertex 36 20 6.4
    endloop
  endfacet
  facet normal 0 -1 0
    outer loop
      vertex 33.6 20 4
      vertex 37.6971 20 5.69706
      vertex 34.3029 20 5.69706
    endloop
  endfacet
  facet normal 0 -1 0
    outer loop
      vertex 33.6 20 4
      vertex 38.4 20 4
      vertex 37.6971 20 5.69706
    endloop
  endfacet
  facet normal 0 -1 0
    outer loop
      vertex 34.3029 20 2.30294
      vertex 38.4 20 4
      vertex 33.6 20 4
    endloop
  endfacet
  facet normal 0 -1 0
    outer loop
      vertex 34.3029 20 2.30294
      vertex 37.6971 20 2.30294
      vertex 38.4 20 4
    endloop
  endfacet
  facet normal -0 -1 0
    outer loop
      vertex 37.6971 20 2.30294
      vertex 34.3029 20 2.30294
      vertex 36 20 1.6
    endloop
  endfacet
  facet normal -0.382684 0 0.923879
    outer loop
      vertex 34.3029 21.8 5.69706
      vertex 36 20 6.4
      vertex 36 21.8 6.4
    endloop
  endfacet
  facet normal -0.382684 0 0.923879
    outer loop
      vertex 36 20 6.4
      vertex 34.3029 21.8 5.69706
      vertex 34.3029 20 5.69706
    endloop
  endfacet
  facet normal 0.382684 0 -0.923879
    outer loop
      vertex 36 20 1.6
      vertex 37.6971 21.8 2.30294
      vertex 37.6971 20 2.30294
    endloop
  endfacet
  facet normal 0.382684 0 -0.923879
    outer loop
      vertex 37.6971 21.8 2.30294
      vertex 36 20 1.6
      vertex 36 21.8 1.6
    endloop
  endfacet
  facet normal -0.923879 0 -0.382684
    outer loop
      vertex 34.3029 20 2.30294
      vertex 33.6 21.8 4
      vertex 34.3029 21.8 2.30294
    endloop
  endfacet
  facet normal -0.923879 -0 -0.382684
    outer loop
      vertex 33.6 21.8 4
      vertex 34.3029 20 2.30294
      vertex 33.6 20 4
    endloop
  endfacet
  facet normal 0.923879 0 -0.382684
    outer loop
      vertex 38.4 20 4
      vertex 37.6971 21.8 2.30294
      vertex 38.4 21.8 4
    endloop
  endfacet
  facet normal 0.923879 0 -0.382684
    outer loop
      vertex 37.6971 21.8 2.30294
      vertex 38.4 20 4
      vertex 37.6971 20 2.30294
    endloop
  endfacet
  facet normal -0.382684 0 -0.923879
    outer loop
      vertex 34.3029 20 2.30294
      vertex 36 21.8 1.6
      vertex 36 20 1.6
    endloop
  endfacet
  facet normal -0.382684 0 -0.923879
    outer loop
      vertex 36 21.8 1.6
      vertex 34.3029 20 2.30294
      vertex 34.3029 21.8 2.30294
    endloop
  endfacet
  facet normal 0.923879 -0 0.382684
    outer loop
      vertex 37.6971 20 13.6971
      vertex 38.4 21.8 12
      vertex 37.6971 21.8 13.6971
    endloop
  endfacet
  facet normal 0.923879 0 0.382684
    outer loop
      vertex 38.4 21.8 12
      vertex 37.6971 20 13.6971
      vertex 38.4 20 12
    endloop
  endfacet
  facet normal -0.382684 0 0.923879
    outer loop
      vertex 34.3029 21.8 13.6971
      vertex 36 20 14.4
      vertex 36 21.8 14.4
    endloop
  endfacet
  facet normal -0.382684 0 0.923879
    outer loop
      vertex 36 20 14.4
      vertex 34.3029 21.8 13.6971
      vertex 34.3029 20 13.6971
    endloop
  endfacet
  facet normal 0.382684 0 0.923879
    outer loop
      vertex 36 21.8 14.4
      vertex 37.6971 20 13.6971
      vertex 37.6971 21.8 13.6971
    endloop
  endfacet
  facet normal 0.382684 0 0.923879
    outer loop
      vertex 37.6971 20 13.6971
      vertex 36 21.8 14.4
      vertex 36 20 14.4
    endloop
  endfacet
  facet normal 0 -1 0
    outer loop
      vertex 34.3029 20 13.6971
      vertex 37.6971 20 13.6971
      vertex 36 20 14.4
    endloop
  endfacet
  facet normal 0 -1 0
    outer loop
      vertex 33.6 20 12
      vertex 37.6971 20 13.6971
      vertex 34.3029 20 13.6971
    endloop
  endfacet
  facet normal 0 -1 0
    outer loop
      vertex 33.6 20 12
      vertex 38.4 20 12
      vertex 37.6971 20 13.6971
    endloop
  endfacet
  facet normal 0 -1 0
    outer loop
      vertex 34.3029 20 10.3029
      vertex 38.4 20 12
      vertex 33.6 20 12
    endloop
  endfacet
  facet normal 0 -1 0
    outer loop
      vertex 34.3029 20 10.3029
      vertex 37.6971 20 10.3029
      vertex 38.4 20 12
    endloop
  endfacet
  facet normal -0 -1 0
    outer loop
      vertex 37.6971 20 10.3029
      vertex 34.3029 20 10.3029
      vertex 36 20 9.6
    endloop
  endfacet
  facet normal -0.923879 0 0.382684
    outer loop
      vertex 33.6 20 12
      vertex 34.3029 21.8 13.6971
      vertex 33.6 21.8 12
    endloop
  endfacet
  facet normal -0.923879 0 0.382684
    outer loop
      vertex 34.3029 21.8 13.6971
      vertex 33.6 20 12
      vertex 34.3029 20 13.6971
    endloop
  endfacet
  facet normal 0.923879 0 -0.382684
    outer loop
      vertex 38.4 20 12
      vertex 37.6971 21.8 10.3029
      vertex 38.4 21.8 12
    endloop
  endfacet
  facet normal 0.923879 0 -0.382684
    outer loop
      vertex 37.6971 21.8 10.3029
      vertex 38.4 20 12
      vertex 37.6971 20 10.3029
    endloop
  endfacet
  facet normal -0.923879 0 -0.382684
    outer loop
      vertex 34.3029 20 10.3029
      vertex 33.6 21.8 12
      vertex 34.3029 21.8 10.3029
    endloop
  endfacet
  facet normal -0.923879 -0 -0.382684
    outer loop
      vertex 33.6 21.8 12
      vertex 34.3029 20 10.3029
      vertex 33.6 20 12
    endloop
  endfacet
  facet normal 0.382684 0 -0.923879
    outer loop
      vertex 36 20 9.6
      vertex 37.6971 21.8 10.3029
      vertex 37.6971 20 10.3029
    endloop
  endfacet
  facet normal 0.382684 0 -0.923879
    outer loop
      vertex 37.6971 21.8 10.3029
      vertex 36 20 9.6
      vertex 36 21.8 9.6
    endloop
  endfacet
  facet normal -0.382684 0 -0.923879
    outer loop
      vertex 34.3029 20 10.3029
      vertex 36 21.8 9.6
      vertex 36 20 9.6
    endloop
  endfacet
  facet normal -0.382684 0 -0.923879
    outer loop
      vertex 36 21.8 9.6
      vertex 34.3029 20 10.3029
      vertex 34.3029 21.8 10.3029
    endloop
  endfacet
  facet normal 0.923879 -0 0.382684
    outer loop
      vertex 37.6971 20 21.6971
      vertex 38.4 21.8 20
      vertex 37.6971 21.8 21.6971
    endloop
  endfacet
  facet normal 0.923879 0 0.382684
    outer loop
      vertex 38.4 21.8 20
      vertex 37.6971 20 21.6971
      vertex 38.4 20 20
    endloop
  endfacet
  facet normal -0.382684 0 0.923879
    outer loop
      vertex 34.3029 21.8 21.6971
      vertex 36 20 22.4
      vertex 36 21.8 22.4
    endloop
  endfacet
  facet normal -0.382684 0 0.923879
    outer loop
      vertex 36 20 22.4
      vertex 34.3029 21.8 21.6971
      vertex 34.3029 20 21.6971
    endloop
  endfacet
  facet normal 0.382684 0 0.923879
    outer loop
      vertex 36 21.8 22.4
      vertex 37.6971 20 21.6971
      vertex 37.6971 21.8 21.6971
    endloop
  endfacet
  facet normal 0.382684 0 0.923879
    outer loop
      vertex 37.6971 20 21.6971
      vertex 36 21.8 22.4
      vertex 36 20 22.4
    endloop
  endfacet
  facet normal 0 -1 0
    outer loop
      vertex 34.3029 20 21.6971
      vertex 37.6971 20 21.6971
      vertex 36 20 22.4
    endloop
  endfacet
  facet normal 0 -1 0
    outer loop
      vertex 33.6 20 20
      vertex 37.6971 20 21.6971
      vertex 34.3029 20 21.6971
    endloop
  endfacet
  facet normal 0 -1 0
    outer loop
      vertex 33.6 20 20
      vertex 38.4 20 20
      vertex 37.6971 20 21.6971
    endloop
  endfacet
  facet normal 0 -1 0
    outer loop
      vertex 34.3029 20 18.3029
      vertex 38.4 20 20
      vertex 33.6 20 20
    endloop
  endfacet
  facet normal 0 -1 0
    outer loop
      vertex 34.3029 20 18.3029
      vertex 37.6971 20 18.3029
      vertex 38.4 20 20
    endloop
  endfacet
  facet normal -0 -1 0
    outer loop
      vertex 37.6971 20 18.3029
      vertex 34.3029 20 18.3029
      vertex 36 20 17.6
    endloop
  endfacet
  facet normal -0.923879 0 0.382684
    outer loop
      vertex 33.6 20 20
      vertex 34.3029 21.8 21.6971
      vertex 33.6 21.8 20
    endloop
  endfacet
  facet normal -0.923879 0 0.382684
    outer loop
      vertex 34.3029 21.8 21.6971
      vertex 33.6 20 20
      vertex 34.3029 20 21.6971
    endloop
  endfacet
  facet normal 0.923879 0 -0.382684
    outer loop
      vertex 38.4 20 20
      vertex 37.6971 21.8 18.3029
      vertex 38.4 21.8 20
    endloop
  endfacet
  facet normal 0.923879 0 -0.382684
    outer loop
      vertex 37.6971 21.8 18.3029
      vertex 38.4 20 20
      vertex 37.6971 20 18.3029
    endloop
  endfacet
  facet normal -0.923879 0 -0.382684
    outer loop
      vertex 34.3029 20 18.3029
      vertex 33.6 21.8 20
      vertex 34.3029 21.8 18.3029
    endloop
  endfacet
  facet normal -0.923879 -0 -0.382684
    outer loop
      vertex 33.6 21.8 20
      vertex 34.3029 20 18.3029
      vertex 33.6 20 20
    endloop
  endfacet
  facet normal 0.382684 0 -0.923879
    outer loop
      vertex 36 20 17.6
      vertex 37.6971 21.8 18.3029
      vertex 37.6971 20 18.3029
    endloop
  endfacet
  facet normal 0.382684 0 -0.923879
    outer loop
      vertex 37.6971 21.8 18.3029
      vertex 36 20 17.6
      vertex 36 21.8 17.6
    endloop
  endfacet
  facet normal -0.382684 0 -0.923879
    outer loop
      vertex 34.3029 20 18.3029
      vertex 36 21.8 17.6
      vertex 36 20 17.6
    endloop
  endfacet
  facet normal -0.382684 0 -0.923879
    outer loop
      vertex 36 21.8 17.6
      vertex 34.3029 20 18.3029
      vertex 34.3029 21.8 18.3029
    endloop
  endfacet
  facet normal 0 1 0
    outer loop
      vertex 5.69706 21.8 21.6971
      vertex 2.30294 21.8 21.6971
      vertex 4 21.8 22.4
    endloop
  endfacet
  facet normal 0 1 0
    outer loop
      vertex 6.4 21.8 20
      vertex 2.30294 21.8 21.6971
      vertex 5.69706 21.8 21.6971
    endloop
  endfacet
  facet normal 0 1 0
    outer loop
      vertex 6.4 21.8 20
      vertex 1.6 21.8 20
      vertex 2.30294 21.8 21.6971
    endloop
  endfacet
  facet normal 0 1 -0
    outer loop
      vertex 5.69706 21.8 18.3029
      vertex 1.6 21.8 20
      vertex 6.4 21.8 20
    endloop
  endfacet
  facet normal 0 1 0
    outer loop
      vertex 5.69706 21.8 18.3029
      vertex 2.30294 21.8 18.3029
      vertex 1.6 21.8 20
    endloop
  endfacet
  facet normal -0 1 0
    outer loop
      vertex 2.30294 21.8 18.3029
      vertex 5.69706 21.8 18.3029
      vertex 4 21.8 17.6
    endloop
  endfacet
  facet normal 0 1 0
    outer loop
      vertex 5.69706 21.8 13.6971
      vertex 2.30294 21.8 13.6971
      vertex 4 21.8 14.4
    endloop
  endfacet
  facet normal 0 1 0
    outer loop
      vertex 6.4 21.8 12
      vertex 2.30294 21.8 13.6971
      vertex 5.69706 21.8 13.6971
    endloop
  endfacet
  facet normal 0 1 0
    outer loop
      vertex 6.4 21.8 12
      vertex 1.6 21.8 12
      vertex 2.30294 21.8 13.6971
    endloop
  endfacet
  facet normal 0 1 -0
    outer loop
      vertex 5.69706 21.8 10.3029
      vertex 1.6 21.8 12
      vertex 6.4 21.8 12
    endloop
  endfacet
  facet normal 0 1 0
    outer loop
      vertex 5.69706 21.8 10.3029
      vertex 2.30294 21.8 10.3029
      vertex 1.6 21.8 12
    endloop
  endfacet
  facet normal -0 1 0
    outer loop
      vertex 2.30294 21.8 10.3029
      vertex 5.69706 21.8 10.3029
      vertex 4 21.8 9.6
    endloop
  endfacet
  facet normal 0 1 0
    outer loop
      vertex 5.69706 21.8 5.69706
      vertex 2.30294 21.8 5.69706
      vertex 4 21.8 6.4
    endloop
  endfacet
  facet normal 0 1 0
    outer loop
      vertex 6.4 21.8 4
      vertex 2.30294 21.8 5.69706
      vertex 5.69706 21.8 5.69706
    endloop
  endfacet
  facet normal 0 1 0
    outer loop
      vertex 6.4 21.8 4
      vertex 1.6 21.8 4
      vertex 2.30294 21.8 5.69706
    endloop
  endfacet
  facet normal 0 1 -0
    outer loop
      vertex 5.69706 21.8 2.30294
      vertex 1.6 21.8 4
      vertex 6.4 21.8 4
    endloop
  endfacet
  facet normal 0 1 0
    outer loop
      vertex 5.69706 21.8 2.30294
      vertex 2.30294 21.8 2.30294
      vertex 1.6 21.8 4
    endloop
  endfacet
  facet normal -0 1 0
    outer loop
      vertex 2.30294 21.8 2.30294
      vertex 5.69706 21.8 2.30294
      vertex 4 21.8 1.6
    endloop
  endfacet
  facet normal 0 1 0
    outer loop
      vertex 13.6971 21.8 21.6971
      vertex 10.3029 21.8 21.6971
      vertex 12 21.8 22.4
    endloop
  endfacet
  facet normal 0 1 0
    outer loop
      vertex 14.4 21.8 20
      vertex 10.3029 21.8 21.6971
      vertex 13.6971 21.8 21.6971
    endloop
  endfacet
  facet normal 0 1 0
    outer loop
      vertex 14.4 21.8 20
      vertex 9.6 21.8 20
      vertex 10.3029 21.8 21.6971
    endloop
  endfacet
  facet normal 0 1 -0
    outer loop
      vertex 13.6971 21.8 18.3029
      vertex 9.6 21.8 20
      vertex 14.4 21.8 20
    endloop
  endfacet
  facet normal 0 1 0
    outer loop
      vertex 13.6971 21.8 18.3029
      vertex 10.3029 21.8 18.3029
      vertex 9.6 21.8 20
    endloop
  endfacet
  facet normal -0 1 0
    outer loop
      vertex 10.3029 21.8 18.3029
      vertex 13.6971 21.8 18.3029
      vertex 12 21.8 17.6
    endloop
  endfacet
  facet normal 0 1 0
    outer loop
      vertex 13.6971 21.8 13.6971
      vertex 10.3029 21.8 13.6971
      vertex 12 21.8 14.4
    endloop
  endfacet
  facet normal 0 1 0
    outer loop
      vertex 14.4 21.8 12
      vertex 10.3029 21.8 13.6971
      vertex 13.6971 21.8 13.6971
    endloop
  endfacet
  facet normal 0 1 0
    outer loop
      vertex 14.4 21.8 12
      vertex 9.6 21.8 12
      vertex 10.3029 21.8 13.6971
    endloop
  endfacet
  facet normal 0 1 -0
    outer loop
      vertex 13.6971 21.8 10.3029
      vertex 9.6 21.8 12
      vertex 14.4 21.8 12
    endloop
  endfacet
  facet normal 0 1 0
    outer loop
      vertex 13.6971 21.8 10.3029
      vertex 10.3029 21.8 10.3029
      vertex 9.6 21.8 12
    endloop
  endfacet
  facet normal -0 1 0
    outer loop
      vertex 10.3029 21.8 10.3029
      vertex 13.6971 21.8 10.3029
      vertex 12 21.8 9.6
    endloop
  endfacet
  facet normal 0 1 0
    outer loop
      vertex 13.6971 21.8 5.69706
      vertex 10.3029 21.8 5.69706
      vertex 12 21.8 6.4
    endloop
  endfacet
  facet normal 0 1 0
    outer loop
      vertex 14.4 21.8 4
      vertex 10.3029 21.8 5.69706
      vertex 13.6971 21.8 5.69706
    endloop
  endfacet
  facet normal 0 1 0
    outer loop
      vertex 14.4 21.8 4
      vertex 9.6 21.8 4
      vertex 10.3029 21.8 5.69706
    endloop
  endfacet
  facet normal 0 1 -0
    outer loop
      vertex 13.6971 21.8 2.30294
      vertex 9.6 21.8 4
      vertex 14.4 21.8 4
    endloop
  endfacet
  facet normal 0 1 0
    outer loop
      vertex 13.6971 21.8 2.30294
      vertex 10.3029 21.8 2.30294
      vertex 9.6 21.8 4
    endloop
  endfacet
  facet normal -0 1 0
    outer loop
      vertex 10.3029 21.8 2.30294
      vertex 13.6971 21.8 2.30294
      vertex 12 21.8 1.6
    endloop
  endfacet
  facet normal 0 1 0
    outer loop
      vertex 21.6971 21.8 21.6971
      vertex 18.3029 21.8 21.6971
      vertex 20 21.8 22.4
    endloop
  endfacet
  facet normal 0 1 0
    outer loop
      vertex 22.4 21.8 20
      vertex 18.3029 21.8 21.6971
      vertex 21.6971 21.8 21.6971
    endloop
  endfacet
  facet normal 0 1 0
    outer loop
      vertex 22.4 21.8 20
      vertex 17.6 21.8 20
      vertex 18.3029 21.8 21.6971
    endloop
  endfacet
  facet normal 0 1 -0
    outer loop
      vertex 21.6971 21.8 18.3029
      vertex 17.6 21.8 20
      vertex 22.4 21.8 20
    endloop
  endfacet
  facet normal 0 1 0
    outer loop
      vertex 21.6971 21.8 18.3029
      vertex 18.3029 21.8 18.3029
      vertex 17.6 21.8 20
    endloop
  endfacet
  facet normal -0 1 0
    outer loop
      vertex 18.3029 21.8 18.3029
      vertex 21.6971 21.8 18.3029
      vertex 20 21.8 17.6
    endloop
  endfacet
  facet normal 0 1 0
    outer loop
      vertex 21.6971 21.8 13.6971
      vertex 18.3029 21.8 13.6971
      vertex 20 21.8 14.4
    endloop
  endfacet
  facet normal 0 1 0
    outer loop
      vertex 22.4 21.8 12
      vertex 18.3029 21.8 13.6971
      vertex 21.6971 21.8 13.6971
    endloop
  endfacet
  facet normal 0 1 0
    outer loop
      vertex 22.4 21.8 12
      vertex 17.6 21.8 12
      vertex 18.3029 21.8 13.6971
    endloop
  endfacet
  facet normal 0 1 -0
    outer loop
      vertex 21.6971 21.8 10.3029
      vertex 17.6 21.8 12
      vertex 22.4 21.8 12
    endloop
  endfacet
  facet normal 0 1 0
    outer loop
      vertex 21.6971 21.8 10.3029
      vertex 18.3029 21.8 10.3029
      vertex 17.6 21.8 12
    endloop
  endfacet
  facet normal -0 1 0
    outer loop
      vertex 18.3029 21.8 10.3029
      vertex 21.6971 21.8 10.3029
      vertex 20 21.8 9.6
    endloop
  endfacet
  facet normal 0 1 0
    outer loop
      vertex 21.6971 21.8 5.69706
      vertex 18.3029 21.8 5.69706
      vertex 20 21.8 6.4
    endloop
  endfacet
  facet normal 0 1 0
    outer loop
      vertex 22.4 21.8 4
      vertex 18.3029 21.8 5.69706
      vertex 21.6971 21.8 5.69706
    endloop
  endfacet
  facet normal 0 1 0
    outer loop
      vertex 22.4 21.8 4
      vertex 17.6 21.8 4
      vertex 18.3029 21.8 5.69706
    endloop
  endfacet
  facet normal 0 1 -0
    outer loop
      vertex 21.6971 21.8 2.30294
      vertex 17.6 21.8 4
      vertex 22.4 21.8 4
    endloop
  endfacet
  facet normal 0 1 0
    outer loop
      vertex 21.6971 21.8 2.30294
      vertex 18.3029 21.8 2.30294
      vertex 17.6 21.8 4
    endloop
  endfacet
  facet normal -0 1 0
    outer loop
      vertex 18.3029 21.8 2.30294
      vertex 21.6971 21.8 2.30294
      vertex 20 21.8 1.6
    endloop
  endfacet
  facet normal 0 1 0
    outer loop
      vertex 29.6971 21.8 21.6971
      vertex 26.3029 21.8 21.6971
      vertex 28 21.8 22.4
    endloop
  endfacet
  facet normal 0 1 0
    outer loop
      vertex 30.4 21.8 20
      vertex 26.3029 21.8 21.6971
      vertex 29.6971 21.8 21.6971
    endloop
  endfacet
  facet normal 0 1 0
    outer loop
      vertex 30.4 21.8 20
      vertex 25.6 21.8 20
      vertex 26.3029 21.8 21.6971
    endloop
  endfacet
  facet normal 0 1 -0
    outer loop
      vertex 29.6971 21.8 18.3029
      vertex 25.6 21.8 20
      vertex 30.4 21.8 20
    endloop
  endfacet
  facet normal 0 1 0
    outer loop
      vertex 29.6971 21.8 18.3029
      vertex 26.3029 21.8 18.3029
      vertex 25.6 21.8 20
    endloop
  endfacet
  facet normal -0 1 0
    outer loop
      vertex 26.3029 21.8 18.3029
      vertex 29.6971 21.8 18.3029
      vertex 28 21.8 17.6
    endloop
  endfacet
  facet normal 0 1 0
    outer loop
      vertex 29.6971 21.8 13.6971
      vertex 26.3029 21.8 13.6971
      vertex 28 21.8 14.4
    endloop
  endfacet
  facet normal 0 1 0
    outer loop
      vertex 30.4 21.8 12
      vertex 26.3029 21.8 13.6971
      vertex 29.6971 21.8 13.6971
    endloop
  endfacet
  facet normal 0 1 0
    outer loop
      vertex 30.4 21.8 12
      vertex 25.6 21.8 12
      vertex 26.3029 21.8 13.6971
    endloop
  endfacet
  facet normal 0 1 -0
    outer loop
      vertex 29.6971 21.8 10.3029
      vertex 25.6 21.8 12
      vertex 30.4 21.8 12
    endloop
  endfacet
  facet normal 0 1 0
    outer loop
      vertex 29.6971 21.8 10.3029
      vertex 26.3029 21.8 10.3029
      vertex 25.6 21.8 12
    endloop
  endfacet
  facet normal -0 1 0
    outer loop
      vertex 26.3029 21.8 10.3029
      vertex 29.6971 21.8 10.3029
      vertex 28 21.8 9.6
    endloop
  endfacet
  facet normal 0 1 0
    outer loop
      vertex 29.6971 21.8 5.69706
      vertex 26.3029 21.8 5.69706
      vertex 28 21.8 6.4
    endloop
  endfacet
  facet normal 0 1 0
    outer loop
      vertex 30.4 21.8 4
      vertex 26.3029 21.8 5.69706
      vertex 29.6971 21.8 5.69706
    endloop
  endfacet
  facet normal 0 1 0
    outer loop
      vertex 30.4 21.8 4
      vertex 25.6 21.8 4
      vertex 26.3029 21.8 5.69706
    endloop
  endfacet
  facet normal 0 1 -0
    outer loop
      vertex 29.6971 21.8 2.30294
      vertex 25.6 21.8 4
      vertex 30.4 21.8 4
    endloop
  endfacet
  facet normal 0 1 0
    outer loop
      vertex 29.6971 21.8 2.30294
      vertex 26.3029 21.8 2.30294
      vertex 25.6 21.8 4
    endloop
  endfacet
  facet normal -0 1 0
    outer loop
      vertex 26.3029 21.8 2.30294
      vertex 29.6971 21.8 2.30294
      vertex 28 21.8 1.6
    endloop
  endfacet
  facet normal 0 1 0
    outer loop
      vertex 37.6971 21.8 21.6971
      vertex 34.3029 21.8 21.6971
      vertex 36 21.8 22.4
    endloop
  endfacet
  facet normal 0 1 0
    outer loop
      vertex 38.4 21.8 20
      vertex 34.3029 21.8 21.6971
      vertex 37.6971 21.8 21.6971
    endloop
  endfacet
  facet normal 0 1 0
    outer loop
      vertex 38.4 21.8 20
      vertex 33.6 21.8 20
      vertex 34.3029 21.8 21.6971
    endloop
  endfacet
  facet normal 0 1 -0
    outer loop
      vertex 37.6971 21.8 18.3029
      vertex 33.6 21.8 20
      vertex 38.4 21.8 20
    endloop
  endfacet
  facet normal 0 1 0
    outer loop
      vertex 37.6971 21.8 18.3029
      vertex 34.3029 21.8 18.3029
      vertex 33.6 21.8 20
    endloop
  endfacet
  facet normal -0 1 0
    outer loop
      vertex 34.3029 21.8 18.3029
      vertex 37.6971 21.8 18.3029
      vertex 36 21.8 17.6
    endloop
  endfacet
  facet normal 0 1 0
    outer loop
      vertex 37.6971 21.8 13.6971
      vertex 34.3029 21.8 13.6971
      vertex 36 21.8 14.4
    endloop
  endfacet
  facet normal 0 1 0
    outer loop
      vertex 38.4 21.8 12
      vertex 34.3029 21.8 13.6971
      vertex 37.6971 21.8 13.6971
    endloop
  endfacet
  facet normal 0 1 0
    outer loop
      vertex 38.4 21.8 12
      vertex 33.6 21.8 12
      vertex 34.3029 21.8 13.6971
    endloop
  endfacet
  facet normal 0 1 -0
    outer loop
      vertex 37.6971 21.8 10.3029
      vertex 33.6 21.8 12
      vertex 38.4 21.8 12
    endloop
  endfacet
  facet normal 0 1 0
    outer loop
      vertex 37.6971 21.8 10.3029
      vertex 34.3029 21.8 10.3029
      vertex 33.6 21.8 12
    endloop
  endfacet
  facet normal -0 1 0
    outer loop
      vertex 34.3029 21.8 10.3029
      vertex 37.6971 21.8 10.3029
      vertex 36 21.8 9.6
    endloop
  endfacet
  facet normal 0 1 0
    outer loop
      vertex 37.6971 21.8 5.69706
      vertex 34.3029 21.8 5.69706
      vertex 36 21.8 6.4
    endloop
  endfacet
  facet normal 0 1 0
    outer loop
      vertex 38.4 21.8 4
      vertex 34.3029 21.8 5.69706
      vertex 37.6971 21.8 5.69706
    endloop
  endfacet
  facet normal 0 1 0
    outer loop
      vertex 38.4 21.8 4
      vertex 33.6 21.8 4
      vertex 34.3029 21.8 5.69706
    endloop
  endfacet
  facet normal 0 1 -0
    outer loop
      vertex 37.6971 21.8 2.30294
      vertex 33.6 21.8 4
      vertex 38.4 21.8 4
    endloop
  endfacet
  facet normal 0 1 0
    outer loop
      vertex 37.6971 21.8 2.30294
      vertex 34.3029 21.8 2.30294
      vertex 33.6 21.8 4
    endloop
  endfacet
  facet normal -0 1 0
    outer loop
      vertex 34.3029 21.8 2.30294
      vertex 37.6971 21.8 2.30294
      vertex 36 21.8 1.6
    endloop
  endfacet
endsolid OpenSCAD_Model
