solid OpenSCAD_Model
  facet normal 0.923879 0.382684 0
    outer loop
      vertex 6.4 4 -7.62939e-007
      vertex 5.69706 5.69706 -1.8
      vertex 5.69706 5.69706 -7.62939e-007
    endloop
  endfacet
  facet normal 0.923879 0.382684 0
    outer loop
      vertex 5.69706 5.69706 -1.8
      vertex 6.4 4 -7.62939e-007
      vertex 6.4 4 -1.8
    endloop
  endfacet
  facet normal -0.923879 0.382684 0
    outer loop
      vertex 1.6 4 -1.8
      vertex 2.30294 5.69706 -7.62939e-007
      vertex 2.30294 5.69706 -1.8
    endloop
  endfacet
  facet normal -0.923879 0.382684 0
    outer loop
      vertex 2.30294 5.69706 -7.62939e-007
      vertex 1.6 4 -1.8
      vertex 1.6 4 -7.62939e-007
    endloop
  endfacet
  facet normal 0.382684 0.923879 -0
    outer loop
      vertex 5.69706 5.69706 -1.8
      vertex 4 6.4 -7.62939e-007
      vertex 5.69706 5.69706 -7.62939e-007
    endloop
  endfacet
  facet normal 0.382684 0.923879 0
    outer loop
      vertex 4 6.4 -7.62939e-007
      vertex 5.69706 5.69706 -1.8
      vertex 4 6.4 -1.8
    endloop
  endfacet
  facet normal 0 0 -1
    outer loop
      vertex 9.6 20 -1.8
      vertex 11.5 22 -1.8
      vertex 11.5 17.8071 -1.8
    endloop
  endfacet
  facet normal 0 0 -1
    outer loop
      vertex 9.6 20 -1.8
      vertex 11.5 17.8071 -1.8
      vertex 10.3029 18.3029 -1.8
    endloop
  endfacet
  facet normal 0 -0 -1
    outer loop
      vertex 10.3029 21.6971 -1.8
      vertex 11.5 22 -1.8
      vertex 9.6 20 -1.8
    endloop
  endfacet
  facet normal -0 0 -1
    outer loop
      vertex 11.5 22 -1.8
      vertex 10.3029 21.6971 -1.8
      vertex 11.0343 22 -1.8
    endloop
  endfacet
  facet normal 0 0 -1
    outer loop
      vertex 9.6 12 -1.8
      vertex 11.5 9.80711 -1.8
      vertex 10.3029 10.3029 -1.8
    endloop
  endfacet
  facet normal 0 0 -1
    outer loop
      vertex 11.5 9.80711 -1.8
      vertex 9.6 12 -1.8
      vertex 11.5 14.1929 -1.8
    endloop
  endfacet
  facet normal 0 0 -1
    outer loop
      vertex 11.5 14.1929 -1.8
      vertex 9.6 12 -1.8
      vertex 10.3029 13.6971 -1.8
    endloop
  endfacet
  facet normal 0 0 -1
    outer loop
      vertex 9.6 4 -1.8
      vertex 11.5 1.80711 -1.8
      vertex 10.3029 2.30294 -1.8
    endloop
  endfacet
  facet normal 0 0 -1
    outer loop
      vertex 11.5 1.80711 -1.8
      vertex 9.6 4 -1.8
      vertex 11.5 6.19289 -1.8
    endloop
  endfacet
  facet normal 0 0 -1
    outer loop
      vertex 11.5 6.19289 -1.8
      vertex 9.6 4 -1.8
      vertex 10.3029 5.69706 -1.8
    endloop
  endfacet
  facet normal 0 0 -1
    outer loop
      vertex 4.96568 22 -1.8
      vertex 6.4 20 -1.8
      vertex 5.69706 18.3029 -1.8
    endloop
  endfacet
  facet normal 0 0 -1
    outer loop
      vertex 6.4 20 -1.8
      vertex 4.96568 22 -1.8
      vertex 5.69706 21.6971 -1.8
    endloop
  endfacet
  facet normal 0 0 -1
    outer loop
      vertex 4 17.6 -1.8
      vertex 4.96568 22 -1.8
      vertex 5.69706 18.3029 -1.8
    endloop
  endfacet
  facet normal 0 0 -1
    outer loop
      vertex 4 17.6 -1.8
      vertex 3.03432 22 -1.8
      vertex 4.96568 22 -1.8
    endloop
  endfacet
  facet normal 0 0 -1
    outer loop
      vertex 2.30294 18.3029 -1.8
      vertex 3.03432 22 -1.8
      vertex 4 17.6 -1.8
    endloop
  endfacet
  facet normal 0 0 -1
    outer loop
      vertex 1.6 20 -1.8
      vertex 3.03432 22 -1.8
      vertex 2.30294 18.3029 -1.8
    endloop
  endfacet
  facet normal 0 0 -1
    outer loop
      vertex 3.03432 22 -1.8
      vertex 1.6 20 -1.8
      vertex 2.30294 21.6971 -1.8
    endloop
  endfacet
  facet normal 0 0 -1
    outer loop
      vertex 5.69706 10.3029 -1.8
      vertex 5.69706 13.6971 -1.8
      vertex 6.4 12 -1.8
    endloop
  endfacet
  facet normal 0 0 -1
    outer loop
      vertex 4 9.6 -1.8
      vertex 5.69706 13.6971 -1.8
      vertex 5.69706 10.3029 -1.8
    endloop
  endfacet
  facet normal 0 0 -1
    outer loop
      vertex 4 9.6 -1.8
      vertex 4 14.4 -1.8
      vertex 5.69706 13.6971 -1.8
    endloop
  endfacet
  facet normal 0 0 -1
    outer loop
      vertex 2.30294 10.3029 -1.8
      vertex 4 14.4 -1.8
      vertex 4 9.6 -1.8
    endloop
  endfacet
  facet normal 0 0 -1
    outer loop
      vertex 2.30294 10.3029 -1.8
      vertex 2.30294 13.6971 -1.8
      vertex 4 14.4 -1.8
    endloop
  endfacet
  facet normal 0 -0 -1
    outer loop
      vertex 2.30294 13.6971 -1.8
      vertex 2.30294 10.3029 -1.8
      vertex 1.6 12 -1.8
    endloop
  endfacet
  facet normal 0 0 -1
    outer loop
      vertex 5.69706 2.30294 -1.8
      vertex 5.69706 5.69706 -1.8
      vertex 6.4 4 -1.8
    endloop
  endfacet
  facet normal 0 0 -1
    outer loop
      vertex 4 1.6 -1.8
      vertex 5.69706 5.69706 -1.8
      vertex 5.69706 2.30294 -1.8
    endloop
  endfacet
  facet normal 0 0 -1
    outer loop
      vertex 4 1.6 -1.8
      vertex 4 6.4 -1.8
      vertex 5.69706 5.69706 -1.8
    endloop
  endfacet
  facet normal 0 0 -1
    outer loop
      vertex 2.30294 2.30294 -1.8
      vertex 4 6.4 -1.8
      vertex 4 1.6 -1.8
    endloop
  endfacet
  facet normal 0 0 -1
    outer loop
      vertex 2.30294 2.30294 -1.8
      vertex 2.30294 5.69706 -1.8
      vertex 4 6.4 -1.8
    endloop
  endfacet
  facet normal 0 -0 -1
    outer loop
      vertex 2.30294 5.69706 -1.8
      vertex 2.30294 2.30294 -1.8
      vertex 1.6 4 -1.8
    endloop
  endfacet
  facet normal 0 0 1
    outer loop
      vertex 5.69706 5.69706 -7.62939e-007
      vertex 5.69706 2.30294 -7.62939e-007
      vertex 6.4 4 -7.62939e-007
    endloop
  endfacet
  facet normal 0 0 1
    outer loop
      vertex 4 6.4 -7.62939e-007
      vertex 5.69706 2.30294 -7.62939e-007
      vertex 5.69706 5.69706 -7.62939e-007
    endloop
  endfacet
  facet normal 0 0 1
    outer loop
      vertex 4 6.4 -7.62939e-007
      vertex 4 1.6 -7.62939e-007
      vertex 5.69706 2.30294 -7.62939e-007
    endloop
  endfacet
  facet normal -0 0 1
    outer loop
      vertex 2.30294 5.69706 -7.62939e-007
      vertex 4 1.6 -7.62939e-007
      vertex 4 6.4 -7.62939e-007
    endloop
  endfacet
  facet normal 0 0 1
    outer loop
      vertex 2.30294 5.69706 -7.62939e-007
      vertex 2.30294 2.30294 -7.62939e-007
      vertex 4 1.6 -7.62939e-007
    endloop
  endfacet
  facet normal 0 -0 1
    outer loop
      vertex 2.30294 2.30294 -7.62939e-007
      vertex 2.30294 5.69706 -7.62939e-007
      vertex 1.6 4 -7.62939e-007
    endloop
  endfacet
  facet normal -0.382684 0.923879 0
    outer loop
      vertex 4 6.4 -1.8
      vertex 2.30294 5.69706 -7.62939e-007
      vertex 4 6.4 -7.62939e-007
    endloop
  endfacet
  facet normal -0.382684 0.923879 0
    outer loop
      vertex 2.30294 5.69706 -7.62939e-007
      vertex 4 6.4 -1.8
      vertex 2.30294 5.69706 -1.8
    endloop
  endfacet
  facet normal 0.382684 -0.923879 0
    outer loop
      vertex 4 1.6 -1.8
      vertex 5.69706 2.30294 -7.62939e-007
      vertex 4 1.6 -7.62939e-007
    endloop
  endfacet
  facet normal 0.382684 -0.923879 0
    outer loop
      vertex 5.69706 2.30294 -7.62939e-007
      vertex 4 1.6 -1.8
      vertex 5.69706 2.30294 -1.8
    endloop
  endfacet
  facet normal -0.923879 -0.382684 0
    outer loop
      vertex 2.30294 2.30294 -1.8
      vertex 1.6 4 -7.62939e-007
      vertex 1.6 4 -1.8
    endloop
  endfacet
  facet normal -0.923879 -0.382684 0
    outer loop
      vertex 1.6 4 -7.62939e-007
      vertex 2.30294 2.30294 -1.8
      vertex 2.30294 2.30294 -7.62939e-007
    endloop
  endfacet
  facet normal 0.923879 -0.382684 0
    outer loop
      vertex 5.69706 2.30294 -7.62939e-007
      vertex 6.4 4 -1.8
      vertex 6.4 4 -7.62939e-007
    endloop
  endfacet
  facet normal 0.923879 -0.382684 0
    outer loop
      vertex 6.4 4 -1.8
      vertex 5.69706 2.30294 -7.62939e-007
      vertex 5.69706 2.30294 -1.8
    endloop
  endfacet
  facet normal -0.382684 -0.923879 0
    outer loop
      vertex 2.30294 2.30294 -1.8
      vertex 4 1.6 -7.62939e-007
      vertex 2.30294 2.30294 -7.62939e-007
    endloop
  endfacet
  facet normal -0.382684 -0.923879 -0
    outer loop
      vertex 4 1.6 -7.62939e-007
      vertex 2.30294 2.30294 -1.8
      vertex 4 1.6 -1.8
    endloop
  endfacet
  facet normal 0.923879 0.382684 0
    outer loop
      vertex 6.4 12 -7.62939e-007
      vertex 5.69706 13.6971 -1.8
      vertex 5.69706 13.6971 -7.62939e-007
    endloop
  endfacet
  facet normal 0.923879 0.382684 0
    outer loop
      vertex 5.69706 13.6971 -1.8
      vertex 6.4 12 -7.62939e-007
      vertex 6.4 12 -1.8
    endloop
  endfacet
  facet normal -0.382684 0.923879 0
    outer loop
      vertex 4 14.4 -1.8
      vertex 2.30294 13.6971 -7.62939e-007
      vertex 4 14.4 -7.62939e-007
    endloop
  endfacet
  facet normal -0.382684 0.923879 0
    outer loop
      vertex 2.30294 13.6971 -7.62939e-007
      vertex 4 14.4 -1.8
      vertex 2.30294 13.6971 -1.8
    endloop
  endfacet
  facet normal 0.382684 0.923879 -0
    outer loop
      vertex 5.69706 13.6971 -1.8
      vertex 4 14.4 -7.62939e-007
      vertex 5.69706 13.6971 -7.62939e-007
    endloop
  endfacet
  facet normal 0.382684 0.923879 0
    outer loop
      vertex 4 14.4 -7.62939e-007
      vertex 5.69706 13.6971 -1.8
      vertex 4 14.4 -1.8
    endloop
  endfacet
  facet normal 0 0 1
    outer loop
      vertex 5.69706 13.6971 -7.62939e-007
      vertex 5.69706 10.3029 -7.62939e-007
      vertex 6.4 12 -7.62939e-007
    endloop
  endfacet
  facet normal 0 0 1
    outer loop
      vertex 4 14.4 -7.62939e-007
      vertex 5.69706 10.3029 -7.62939e-007
      vertex 5.69706 13.6971 -7.62939e-007
    endloop
  endfacet
  facet normal 0 0 1
    outer loop
      vertex 4 14.4 -7.62939e-007
      vertex 4 9.6 -7.62939e-007
      vertex 5.69706 10.3029 -7.62939e-007
    endloop
  endfacet
  facet normal -0 0 1
    outer loop
      vertex 2.30294 13.6971 -7.62939e-007
      vertex 4 9.6 -7.62939e-007
      vertex 4 14.4 -7.62939e-007
    endloop
  endfacet
  facet normal 0 0 1
    outer loop
      vertex 2.30294 13.6971 -7.62939e-007
      vertex 2.30294 10.3029 -7.62939e-007
      vertex 4 9.6 -7.62939e-007
    endloop
  endfacet
  facet normal 0 -0 1
    outer loop
      vertex 2.30294 10.3029 -7.62939e-007
      vertex 2.30294 13.6971 -7.62939e-007
      vertex 1.6 12 -7.62939e-007
    endloop
  endfacet
  facet normal -0.923879 0.382684 0
    outer loop
      vertex 1.6 12 -1.8
      vertex 2.30294 13.6971 -7.62939e-007
      vertex 2.30294 13.6971 -1.8
    endloop
  endfacet
  facet normal -0.923879 0.382684 0
    outer loop
      vertex 2.30294 13.6971 -7.62939e-007
      vertex 1.6 12 -1.8
      vertex 1.6 12 -7.62939e-007
    endloop
  endfacet
  facet normal 0.92388 -0.382683 0
    outer loop
      vertex 5.69706 10.3029 -7.62939e-007
      vertex 6.4 12 -1.8
      vertex 6.4 12 -7.62939e-007
    endloop
  endfacet
  facet normal 0.92388 -0.382683 0
    outer loop
      vertex 6.4 12 -1.8
      vertex 5.69706 10.3029 -7.62939e-007
      vertex 5.69706 10.3029 -1.8
    endloop
  endfacet
  facet normal -0.382684 -0.923879 0
    outer loop
      vertex 2.30294 10.3029 -1.8
      vertex 4 9.6 -7.62939e-007
      vertex 2.30294 10.3029 -7.62939e-007
    endloop
  endfacet
  facet normal -0.382684 -0.923879 -0
    outer loop
      vertex 4 9.6 -7.62939e-007
      vertex 2.30294 10.3029 -1.8
      vertex 4 9.6 -1.8
    endloop
  endfacet
  facet normal -0.92388 -0.382683 0
    outer loop
      vertex 2.30294 10.3029 -1.8
      vertex 1.6 12 -7.62939e-007
      vertex 1.6 12 -1.8
    endloop
  endfacet
  facet normal -0.92388 -0.382683 0
    outer loop
      vertex 1.6 12 -7.62939e-007
      vertex 2.30294 10.3029 -1.8
      vertex 2.30294 10.3029 -7.62939e-007
    endloop
  endfacet
  facet normal 0.382684 -0.923879 0
    outer loop
      vertex 4 9.6 -1.8
      vertex 5.69706 10.3029 -7.62939e-007
      vertex 4 9.6 -7.62939e-007
    endloop
  endfacet
  facet normal 0.382684 -0.923879 0
    outer loop
      vertex 5.69706 10.3029 -7.62939e-007
      vertex 4 9.6 -1.8
      vertex 5.69706 10.3029 -1.8
    endloop
  endfacet
  facet normal 0.923879 0.382684 0
    outer loop
      vertex 6.4 20 -7.62939e-007
      vertex 5.69706 21.6971 -1.8
      vertex 5.69706 21.6971 -7.62939e-007
    endloop
  endfacet
  facet normal 0.923879 0.382684 0
    outer loop
      vertex 5.69706 21.6971 -1.8
      vertex 6.4 20 -7.62939e-007
      vertex 6.4 20 -1.8
    endloop
  endfacet
  facet normal -0.382684 0.923879 0
    outer loop
      vertex 3.03432 22 -1.8
      vertex 2.30294 21.6971 -7.62939e-007
      vertex 3.03432 22 -7.62939e-007
    endloop
  endfacet
  facet normal -0.382684 0.923879 0
    outer loop
      vertex 2.30294 21.6971 -7.62939e-007
      vertex 3.03432 22 -1.8
      vertex 2.30294 21.6971 -1.8
    endloop
  endfacet
  facet normal 0.382683 0.92388 -0
    outer loop
      vertex 5.69706 21.6971 -1.8
      vertex 4.96568 22 -7.62939e-007
      vertex 5.69706 21.6971 -7.62939e-007
    endloop
  endfacet
  facet normal 0.382683 0.92388 0
    outer loop
      vertex 4.96568 22 -7.62939e-007
      vertex 5.69706 21.6971 -1.8
      vertex 4.96568 22 -1.8
    endloop
  endfacet
  facet normal 0 0 1
    outer loop
      vertex 4.96568 22 -7.62939e-007
      vertex 6.4 20 -7.62939e-007
      vertex 5.69706 21.6971 -7.62939e-007
    endloop
  endfacet
  facet normal 0 0 1
    outer loop
      vertex 6.4 20 -7.62939e-007
      vertex 4.96568 22 -7.62939e-007
      vertex 5.69706 18.3029 -7.62939e-007
    endloop
  endfacet
  facet normal 0 0 1
    outer loop
      vertex 4.96568 22 -7.62939e-007
      vertex 4 17.6 -7.62939e-007
      vertex 5.69706 18.3029 -7.62939e-007
    endloop
  endfacet
  facet normal -0 0 1
    outer loop
      vertex 3.03432 22 -7.62939e-007
      vertex 4 17.6 -7.62939e-007
      vertex 4.96568 22 -7.62939e-007
    endloop
  endfacet
  facet normal 0 0 1
    outer loop
      vertex 1.6 20 -7.62939e-007
      vertex 3.03432 22 -7.62939e-007
      vertex 2.30294 21.6971 -7.62939e-007
    endloop
  endfacet
  facet normal 0 0 1
    outer loop
      vertex 3.03432 22 -7.62939e-007
      vertex 2.30294 18.3029 -7.62939e-007
      vertex 4 17.6 -7.62939e-007
    endloop
  endfacet
  facet normal 0 0 1
    outer loop
      vertex 3.03432 22 -7.62939e-007
      vertex 1.6 20 -7.62939e-007
      vertex 2.30294 18.3029 -7.62939e-007
    endloop
  endfacet
  facet normal -0.923879 0.382684 0
    outer loop
      vertex 1.6 20 -1.8
      vertex 2.30294 21.6971 -7.62939e-007
      vertex 2.30294 21.6971 -1.8
    endloop
  endfacet
  facet normal -0.923879 0.382684 0
    outer loop
      vertex 2.30294 21.6971 -7.62939e-007
      vertex 1.6 20 -1.8
      vertex 1.6 20 -7.62939e-007
    endloop
  endfacet
  facet normal 0.923879 -0.382684 0
    outer loop
      vertex 5.69706 18.3029 -7.62939e-007
      vertex 6.4 20 -1.8
      vertex 6.4 20 -7.62939e-007
    endloop
  endfacet
  facet normal 0.923879 -0.382684 0
    outer loop
      vertex 6.4 20 -1.8
      vertex 5.69706 18.3029 -7.62939e-007
      vertex 5.69706 18.3029 -1.8
    endloop
  endfacet
  facet normal -0.382684 -0.923879 0
    outer loop
      vertex 2.30294 18.3029 -1.8
      vertex 4 17.6 -7.62939e-007
      vertex 2.30294 18.3029 -7.62939e-007
    endloop
  endfacet
  facet normal -0.382684 -0.923879 -0
    outer loop
      vertex 4 17.6 -7.62939e-007
      vertex 2.30294 18.3029 -1.8
      vertex 4 17.6 -1.8
    endloop
  endfacet
  facet normal -0.923879 -0.382684 0
    outer loop
      vertex 2.30294 18.3029 -1.8
      vertex 1.6 20 -7.62939e-007
      vertex 1.6 20 -1.8
    endloop
  endfacet
  facet normal -0.923879 -0.382684 0
    outer loop
      vertex 1.6 20 -7.62939e-007
      vertex 2.30294 18.3029 -1.8
      vertex 2.30294 18.3029 -7.62939e-007
    endloop
  endfacet
  facet normal 0.382684 -0.923879 0
    outer loop
      vertex 4 17.6 -1.8
      vertex 5.69706 18.3029 -7.62939e-007
      vertex 4 17.6 -7.62939e-007
    endloop
  endfacet
  facet normal 0.382684 -0.923879 0
    outer loop
      vertex 5.69706 18.3029 -7.62939e-007
      vertex 4 17.6 -1.8
      vertex 5.69706 18.3029 -1.8
    endloop
  endfacet
  facet normal -0.923879 0.382684 0
    outer loop
      vertex 9.6 4 -1.8
      vertex 10.3029 5.69706 -7.62939e-007
      vertex 10.3029 5.69706 -1.8
    endloop
  endfacet
  facet normal -0.923879 0.382684 0
    outer loop
      vertex 10.3029 5.69706 -7.62939e-007
      vertex 9.6 4 -1.8
      vertex 9.6 4 -7.62939e-007
    endloop
  endfacet
  facet normal -0.382683 0.92388 0
    outer loop
      vertex 11.5 6.19289 -1.8
      vertex 10.3029 5.69706 -7.62939e-007
      vertex 11.5 6.19289 -7.62939e-007
    endloop
  endfacet
  facet normal -0.382683 0.92388 0
    outer loop
      vertex 10.3029 5.69706 -7.62939e-007
      vertex 11.5 6.19289 -1.8
      vertex 10.3029 5.69706 -1.8
    endloop
  endfacet
  facet normal -0.923879 -0.382684 0
    outer loop
      vertex 10.3029 2.30294 -1.8
      vertex 9.6 4 -7.62939e-007
      vertex 9.6 4 -1.8
    endloop
  endfacet
  facet normal -0.923879 -0.382684 0
    outer loop
      vertex 9.6 4 -7.62939e-007
      vertex 10.3029 2.30294 -1.8
      vertex 10.3029 2.30294 -7.62939e-007
    endloop
  endfacet
  facet normal -0.382683 -0.92388 0
    outer loop
      vertex 10.3029 2.30294 -1.8
      vertex 11.5 1.80711 -7.62939e-007
      vertex 10.3029 2.30294 -7.62939e-007
    endloop
  endfacet
  facet normal -0.382683 -0.92388 -0
    outer loop
      vertex 11.5 1.80711 -7.62939e-007
      vertex 10.3029 2.30294 -1.8
      vertex 11.5 1.80711 -1.8
    endloop
  endfacet
  facet normal 0 0 1
    outer loop
      vertex 9.6 4 -7.62939e-007
      vertex 11.5 6.19289 -7.62939e-007
      vertex 10.3029 5.69706 -7.62939e-007
    endloop
  endfacet
  facet normal 0 0 1
    outer loop
      vertex 11.5 6.19289 -7.62939e-007
      vertex 9.6 4 -7.62939e-007
      vertex 11.5 1.80711 -7.62939e-007
    endloop
  endfacet
  facet normal 0 0 1
    outer loop
      vertex 11.5 1.80711 -7.62939e-007
      vertex 9.6 4 -7.62939e-007
      vertex 10.3029 2.30294 -7.62939e-007
    endloop
  endfacet
  facet normal -0.92388 -0.382683 0
    outer loop
      vertex 10.3029 10.3029 -1.8
      vertex 9.6 12 -7.62939e-007
      vertex 9.6 12 -1.8
    endloop
  endfacet
  facet normal -0.92388 -0.382683 0
    outer loop
      vertex 9.6 12 -7.62939e-007
      vertex 10.3029 10.3029 -1.8
      vertex 10.3029 10.3029 -7.62939e-007
    endloop
  endfacet
  facet normal -0.382683 -0.92388 0
    outer loop
      vertex 10.3029 10.3029 -1.8
      vertex 11.5 9.80711 -7.62939e-007
      vertex 10.3029 10.3029 -7.62939e-007
    endloop
  endfacet
  facet normal -0.382683 -0.92388 -0
    outer loop
      vertex 11.5 9.80711 -7.62939e-007
      vertex 10.3029 10.3029 -1.8
      vertex 11.5 9.80711 -1.8
    endloop
  endfacet
  facet normal -0.382683 0.92388 0
    outer loop
      vertex 11.5 14.1929 -1.8
      vertex 10.3029 13.6971 -7.62939e-007
      vertex 11.5 14.1929 -7.62939e-007
    endloop
  endfacet
  facet normal -0.382683 0.92388 0
    outer loop
      vertex 10.3029 13.6971 -7.62939e-007
      vertex 11.5 14.1929 -1.8
      vertex 10.3029 13.6971 -1.8
    endloop
  endfacet
  facet normal 0 0 1
    outer loop
      vertex 9.6 12 -7.62939e-007
      vertex 11.5 14.1929 -7.62939e-007
      vertex 10.3029 13.6971 -7.62939e-007
    endloop
  endfacet
  facet normal 0 0 1
    outer loop
      vertex 11.5 14.1929 -7.62939e-007
      vertex 9.6 12 -7.62939e-007
      vertex 11.5 9.80711 -7.62939e-007
    endloop
  endfacet
  facet normal 0 0 1
    outer loop
      vertex 11.5 9.80711 -7.62939e-007
      vertex 9.6 12 -7.62939e-007
      vertex 10.3029 10.3029 -7.62939e-007
    endloop
  endfacet
  facet normal -0.923879 0.382684 0
    outer loop
      vertex 9.6 12 -1.8
      vertex 10.3029 13.6971 -7.62939e-007
      vertex 10.3029 13.6971 -1.8
    endloop
  endfacet
  facet normal -0.923879 0.382684 0
    outer loop
      vertex 10.3029 13.6971 -7.62939e-007
      vertex 9.6 12 -1.8
      vertex 9.6 12 -7.62939e-007
    endloop
  endfacet
  facet normal -0.382684 -0.923879 0
    outer loop
      vertex 10.3029 18.3029 -1.8
      vertex 11.5 17.8071 -7.62939e-007
      vertex 10.3029 18.3029 -7.62939e-007
    endloop
  endfacet
  facet normal -0.382684 -0.923879 -0
    outer loop
      vertex 11.5 17.8071 -7.62939e-007
      vertex 10.3029 18.3029 -1.8
      vertex 11.5 17.8071 -1.8
    endloop
  endfacet
  facet normal -0.382683 0.92388 0
    outer loop
      vertex 11.0343 22 -1.8
      vertex 10.3029 21.6971 -7.62939e-007
      vertex 11.0343 22 -7.62939e-007
    endloop
  endfacet
  facet normal -0.382683 0.92388 0
    outer loop
      vertex 10.3029 21.6971 -7.62939e-007
      vertex 11.0343 22 -1.8
      vertex 10.3029 21.6971 -1.8
    endloop
  endfacet
  facet normal 0 0 1
    outer loop
      vertex 10.3029 21.6971 -7.62939e-007
      vertex 11.5 22 -7.62939e-007
      vertex 11.0343 22 -7.62939e-007
    endloop
  endfacet
  facet normal 0 0 1
    outer loop
      vertex 11.5 22 -7.62939e-007
      vertex 10.3029 21.6971 -7.62939e-007
      vertex 9.6 20 -7.62939e-007
    endloop
  endfacet
  facet normal 0 0 1
    outer loop
      vertex 11.5 22 -7.62939e-007
      vertex 9.6 20 -7.62939e-007
      vertex 11.5 17.8071 -7.62939e-007
    endloop
  endfacet
  facet normal 0 0 1
    outer loop
      vertex 11.5 17.8071 -7.62939e-007
      vertex 9.6 20 -7.62939e-007
      vertex 10.3029 18.3029 -7.62939e-007
    endloop
  endfacet
  facet normal -0.923879 0.382684 0
    outer loop
      vertex 9.6 20 -1.8
      vertex 10.3029 21.6971 -7.62939e-007
      vertex 10.3029 21.6971 -1.8
    endloop
  endfacet
  facet normal -0.923879 0.382684 0
    outer loop
      vertex 10.3029 21.6971 -7.62939e-007
      vertex 9.6 20 -1.8
      vertex 9.6 20 -7.62939e-007
    endloop
  endfacet
  facet normal -0.923879 -0.382684 0
    outer loop
      vertex 10.3029 18.3029 -1.8
      vertex 9.6 20 -7.62939e-007
      vertex 9.6 20 -1.8
    endloop
  endfacet
  facet normal -0.923879 -0.382684 0
    outer loop
      vertex 9.6 20 -7.62939e-007
      vertex 10.3029 18.3029 -1.8
      vertex 10.3029 18.3029 -7.62939e-007
    endloop
  endfacet
  facet normal 0.923879 0.382684 0
    outer loop
      vertex 30.4 4 -7.62939e-007
      vertex 29.6971 5.69706 -1.8
      vertex 29.6971 5.69706 -7.62939e-007
    endloop
  endfacet
  facet normal 0.923879 0.382684 0
    outer loop
      vertex 29.6971 5.69706 -1.8
      vertex 30.4 4 -7.62939e-007
      vertex 30.4 4 -1.8
    endloop
  endfacet
  facet normal 0.382683 0.92388 -0
    outer loop
      vertex 29.6971 5.69706 -1.8
      vertex 28.5 6.19289 -7.62939e-007
      vertex 29.6971 5.69706 -7.62939e-007
    endloop
  endfacet
  facet normal 0.382683 0.92388 0
    outer loop
      vertex 28.5 6.19289 -7.62939e-007
      vertex 29.6971 5.69706 -1.8
      vertex 28.5 6.19289 -1.8
    endloop
  endfacet
  facet normal 0 0 -1
    outer loop
      vertex 28.5 17.8071 -1.8
      vertex 30.4 20 -1.8
      vertex 29.6971 18.3029 -1.8
    endloop
  endfacet
  facet normal 0 0 -1
    outer loop
      vertex 30.4 20 -1.8
      vertex 28.5 22 -1.8
      vertex 29.6971 21.6971 -1.8
    endloop
  endfacet
  facet normal -0 0 -1
    outer loop
      vertex 30.4 20 -1.8
      vertex 28.5 17.8071 -1.8
      vertex 28.5 22 -1.8
    endloop
  endfacet
  facet normal 0 0 -1
    outer loop
      vertex 29.6971 21.6971 -1.8
      vertex 28.5 22 -1.8
      vertex 28.9657 22 -1.8
    endloop
  endfacet
  facet normal 0 0 -1
    outer loop
      vertex 36.9657 22 -1.8
      vertex 38.4 20 -1.8
      vertex 37.6971 18.3029 -1.8
    endloop
  endfacet
  facet normal 0 0 -1
    outer loop
      vertex 38.4 20 -1.8
      vertex 36.9657 22 -1.8
      vertex 37.6971 21.6971 -1.8
    endloop
  endfacet
  facet normal 0 0 -1
    outer loop
      vertex 36 17.6 -1.8
      vertex 36.9657 22 -1.8
      vertex 37.6971 18.3029 -1.8
    endloop
  endfacet
  facet normal 0 0 -1
    outer loop
      vertex 36 17.6 -1.8
      vertex 35.0343 22 -1.8
      vertex 36.9657 22 -1.8
    endloop
  endfacet
  facet normal 0 0 -1
    outer loop
      vertex 34.3029 18.3029 -1.8
      vertex 35.0343 22 -1.8
      vertex 36 17.6 -1.8
    endloop
  endfacet
  facet normal 0 0 -1
    outer loop
      vertex 33.6 20 -1.8
      vertex 35.0343 22 -1.8
      vertex 34.3029 18.3029 -1.8
    endloop
  endfacet
  facet normal 0 0 -1
    outer loop
      vertex 35.0343 22 -1.8
      vertex 33.6 20 -1.8
      vertex 34.3029 21.6971 -1.8
    endloop
  endfacet
  facet normal 0 0 -1
    outer loop
      vertex 37.6971 10.3029 -1.8
      vertex 37.6971 13.6971 -1.8
      vertex 38.4 12 -1.8
    endloop
  endfacet
  facet normal 0 0 -1
    outer loop
      vertex 36 9.6 -1.8
      vertex 37.6971 13.6971 -1.8
      vertex 37.6971 10.3029 -1.8
    endloop
  endfacet
  facet normal 0 0 -1
    outer loop
      vertex 36 9.6 -1.8
      vertex 36 14.4 -1.8
      vertex 37.6971 13.6971 -1.8
    endloop
  endfacet
  facet normal 0 0 -1
    outer loop
      vertex 34.3029 10.3029 -1.8
      vertex 36 14.4 -1.8
      vertex 36 9.6 -1.8
    endloop
  endfacet
  facet normal 0 0 -1
    outer loop
      vertex 34.3029 10.3029 -1.8
      vertex 34.3029 13.6971 -1.8
      vertex 36 14.4 -1.8
    endloop
  endfacet
  facet normal 0 -0 -1
    outer loop
      vertex 34.3029 13.6971 -1.8
      vertex 34.3029 10.3029 -1.8
      vertex 33.6 12 -1.8
    endloop
  endfacet
  facet normal 0 0 -1
    outer loop
      vertex 37.6971 2.30294 -1.8
      vertex 37.6971 5.69706 -1.8
      vertex 38.4 4 -1.8
    endloop
  endfacet
  facet normal 0 0 -1
    outer loop
      vertex 36 1.6 -1.8
      vertex 37.6971 5.69706 -1.8
      vertex 37.6971 2.30294 -1.8
    endloop
  endfacet
  facet normal 0 0 -1
    outer loop
      vertex 36 1.6 -1.8
      vertex 36 6.4 -1.8
      vertex 37.6971 5.69706 -1.8
    endloop
  endfacet
  facet normal 0 0 -1
    outer loop
      vertex 34.3029 2.30294 -1.8
      vertex 36 6.4 -1.8
      vertex 36 1.6 -1.8
    endloop
  endfacet
  facet normal 0 0 -1
    outer loop
      vertex 34.3029 2.30294 -1.8
      vertex 34.3029 5.69706 -1.8
      vertex 36 6.4 -1.8
    endloop
  endfacet
  facet normal 0 -0 -1
    outer loop
      vertex 34.3029 5.69706 -1.8
      vertex 34.3029 2.30294 -1.8
      vertex 33.6 4 -1.8
    endloop
  endfacet
  facet normal 0 0 -1
    outer loop
      vertex 28.5 9.80711 -1.8
      vertex 30.4 12 -1.8
      vertex 29.6971 10.3029 -1.8
    endloop
  endfacet
  facet normal 0 0 -1
    outer loop
      vertex 28.5 14.1929 -1.8
      vertex 30.4 12 -1.8
      vertex 28.5 9.80711 -1.8
    endloop
  endfacet
  facet normal 0 0 -1
    outer loop
      vertex 30.4 12 -1.8
      vertex 28.5 14.1929 -1.8
      vertex 29.6971 13.6971 -1.8
    endloop
  endfacet
  facet normal 0 0 -1
    outer loop
      vertex 28.5 1.80711 -1.8
      vertex 30.4 4 -1.8
      vertex 29.6971 2.30294 -1.8
    endloop
  endfacet
  facet normal 0 0 -1
    outer loop
      vertex 28.5 6.19289 -1.8
      vertex 30.4 4 -1.8
      vertex 28.5 1.80711 -1.8
    endloop
  endfacet
  facet normal 0 0 -1
    outer loop
      vertex 30.4 4 -1.8
      vertex 28.5 6.19289 -1.8
      vertex 29.6971 5.69706 -1.8
    endloop
  endfacet
  facet normal 0 0 1
    outer loop
      vertex 28.5 6.19289 -7.62939e-007
      vertex 30.4 4 -7.62939e-007
      vertex 29.6971 5.69706 -7.62939e-007
    endloop
  endfacet
  facet normal 0 0 1
    outer loop
      vertex 28.5 1.80711 -7.62939e-007
      vertex 30.4 4 -7.62939e-007
      vertex 28.5 6.19289 -7.62939e-007
    endloop
  endfacet
  facet normal 0 0 1
    outer loop
      vertex 30.4 4 -7.62939e-007
      vertex 28.5 1.80711 -7.62939e-007
      vertex 29.6971 2.30294 -7.62939e-007
    endloop
  endfacet
  facet normal 0.382684 -0.923879 0
    outer loop
      vertex 28.5 1.80711 -1.8
      vertex 29.6971 2.30294 -7.62939e-007
      vertex 28.5 1.80711 -7.62939e-007
    endloop
  endfacet
  facet normal 0.382684 -0.923879 0
    outer loop
      vertex 29.6971 2.30294 -7.62939e-007
      vertex 28.5 1.80711 -1.8
      vertex 29.6971 2.30294 -1.8
    endloop
  endfacet
  facet normal 0.923879 -0.382684 0
    outer loop
      vertex 29.6971 2.30294 -7.62939e-007
      vertex 30.4 4 -1.8
      vertex 30.4 4 -7.62939e-007
    endloop
  endfacet
  facet normal 0.923879 -0.382684 0
    outer loop
      vertex 30.4 4 -1.8
      vertex 29.6971 2.30294 -7.62939e-007
      vertex 29.6971 2.30294 -1.8
    endloop
  endfacet
  facet normal 0.923879 0.382684 0
    outer loop
      vertex 30.4 12 -7.62939e-007
      vertex 29.6971 13.6971 -1.8
      vertex 29.6971 13.6971 -7.62939e-007
    endloop
  endfacet
  facet normal 0.923879 0.382684 0
    outer loop
      vertex 29.6971 13.6971 -1.8
      vertex 30.4 12 -7.62939e-007
      vertex 30.4 12 -1.8
    endloop
  endfacet
  facet normal 0.382684 0.923879 -0
    outer loop
      vertex 29.6971 13.6971 -1.8
      vertex 28.5 14.1929 -7.62939e-007
      vertex 29.6971 13.6971 -7.62939e-007
    endloop
  endfacet
  facet normal 0.382684 0.923879 0
    outer loop
      vertex 28.5 14.1929 -7.62939e-007
      vertex 29.6971 13.6971 -1.8
      vertex 28.5 14.1929 -1.8
    endloop
  endfacet
  facet normal 0 0 1
    outer loop
      vertex 28.5 14.1929 -7.62939e-007
      vertex 30.4 12 -7.62939e-007
      vertex 29.6971 13.6971 -7.62939e-007
    endloop
  endfacet
  facet normal 0 0 1
    outer loop
      vertex 28.5 9.80711 -7.62939e-007
      vertex 30.4 12 -7.62939e-007
      vertex 28.5 14.1929 -7.62939e-007
    endloop
  endfacet
  facet normal 0 0 1
    outer loop
      vertex 30.4 12 -7.62939e-007
      vertex 28.5 9.80711 -7.62939e-007
      vertex 29.6971 10.3029 -7.62939e-007
    endloop
  endfacet
  facet normal 0.92388 -0.382683 0
    outer loop
      vertex 29.6971 10.3029 -7.62939e-007
      vertex 30.4 12 -1.8
      vertex 30.4 12 -7.62939e-007
    endloop
  endfacet
  facet normal 0.92388 -0.382683 0
    outer loop
      vertex 30.4 12 -1.8
      vertex 29.6971 10.3029 -7.62939e-007
      vertex 29.6971 10.3029 -1.8
    endloop
  endfacet
  facet normal 0.382684 -0.923879 0
    outer loop
      vertex 28.5 9.80711 -1.8
      vertex 29.6971 10.3029 -7.62939e-007
      vertex 28.5 9.80711 -7.62939e-007
    endloop
  endfacet
  facet normal 0.382684 -0.923879 0
    outer loop
      vertex 29.6971 10.3029 -7.62939e-007
      vertex 28.5 9.80711 -1.8
      vertex 29.6971 10.3029 -1.8
    endloop
  endfacet
  facet normal 0.923879 0.382684 0
    outer loop
      vertex 30.4 20 -7.62939e-007
      vertex 29.6971 21.6971 -1.8
      vertex 29.6971 21.6971 -7.62939e-007
    endloop
  endfacet
  facet normal 0.923879 0.382684 0
    outer loop
      vertex 29.6971 21.6971 -1.8
      vertex 30.4 20 -7.62939e-007
      vertex 30.4 20 -1.8
    endloop
  endfacet
  facet normal 0.382684 0.923879 -0
    outer loop
      vertex 29.6971 21.6971 -1.8
      vertex 28.9657 22 -7.62939e-007
      vertex 29.6971 21.6971 -7.62939e-007
    endloop
  endfacet
  facet normal 0.382684 0.923879 0
    outer loop
      vertex 28.9657 22 -7.62939e-007
      vertex 29.6971 21.6971 -1.8
      vertex 28.9657 22 -1.8
    endloop
  endfacet
  facet normal 0 0 1
    outer loop
      vertex 28.5 22 -7.62939e-007
      vertex 30.4 20 -7.62939e-007
      vertex 29.6971 21.6971 -7.62939e-007
    endloop
  endfacet
  facet normal -0 0 1
    outer loop
      vertex 28.5 22 -7.62939e-007
      vertex 29.6971 21.6971 -7.62939e-007
      vertex 28.9657 22 -7.62939e-007
    endloop
  endfacet
  facet normal 0 0 1
    outer loop
      vertex 28.5 17.8071 -7.62939e-007
      vertex 30.4 20 -7.62939e-007
      vertex 28.5 22 -7.62939e-007
    endloop
  endfacet
  facet normal 0 0 1
    outer loop
      vertex 30.4 20 -7.62939e-007
      vertex 28.5 17.8071 -7.62939e-007
      vertex 29.6971 18.3029 -7.62939e-007
    endloop
  endfacet
  facet normal 0.382684 -0.923879 0
    outer loop
      vertex 28.5 17.8071 -1.8
      vertex 29.6971 18.3029 -7.62939e-007
      vertex 28.5 17.8071 -7.62939e-007
    endloop
  endfacet
  facet normal 0.382684 -0.923879 0
    outer loop
      vertex 29.6971 18.3029 -7.62939e-007
      vertex 28.5 17.8071 -1.8
      vertex 29.6971 18.3029 -1.8
    endloop
  endfacet
  facet normal 0.923879 -0.382684 0
    outer loop
      vertex 29.6971 18.3029 -7.62939e-007
      vertex 30.4 20 -1.8
      vertex 30.4 20 -7.62939e-007
    endloop
  endfacet
  facet normal 0.923879 -0.382684 0
    outer loop
      vertex 30.4 20 -1.8
      vertex 29.6971 18.3029 -7.62939e-007
      vertex 29.6971 18.3029 -1.8
    endloop
  endfacet
  facet normal 0.923879 0.382684 0
    outer loop
      vertex 38.4 4 -7.62939e-007
      vertex 37.6971 5.69706 -1.8
      vertex 37.6971 5.69706 -7.62939e-007
    endloop
  endfacet
  facet normal 0.923879 0.382684 0
    outer loop
      vertex 37.6971 5.69706 -1.8
      vertex 38.4 4 -7.62939e-007
      vertex 38.4 4 -1.8
    endloop
  endfacet
  facet normal -0.923879 0.382684 0
    outer loop
      vertex 33.6 4 -1.8
      vertex 34.3029 5.69706 -7.62939e-007
      vertex 34.3029 5.69706 -1.8
    endloop
  endfacet
  facet normal -0.923879 0.382684 0
    outer loop
      vertex 34.3029 5.69706 -7.62939e-007
      vertex 33.6 4 -1.8
      vertex 33.6 4 -7.62939e-007
    endloop
  endfacet
  facet normal 0.382684 0.923879 -0
    outer loop
      vertex 37.6971 5.69706 -1.8
      vertex 36 6.4 -7.62939e-007
      vertex 37.6971 5.69706 -7.62939e-007
    endloop
  endfacet
  facet normal 0.382684 0.923879 0
    outer loop
      vertex 36 6.4 -7.62939e-007
      vertex 37.6971 5.69706 -1.8
      vertex 36 6.4 -1.8
    endloop
  endfacet
  facet normal 0 0 1
    outer loop
      vertex 37.6971 5.69706 -7.62939e-007
      vertex 37.6971 2.30294 -7.62939e-007
      vertex 38.4 4 -7.62939e-007
    endloop
  endfacet
  facet normal 0 0 1
    outer loop
      vertex 36 6.4 -7.62939e-007
      vertex 37.6971 2.30294 -7.62939e-007
      vertex 37.6971 5.69706 -7.62939e-007
    endloop
  endfacet
  facet normal 0 0 1
    outer loop
      vertex 36 6.4 -7.62939e-007
      vertex 36 1.6 -7.62939e-007
      vertex 37.6971 2.30294 -7.62939e-007
    endloop
  endfacet
  facet normal -0 0 1
    outer loop
      vertex 34.3029 5.69706 -7.62939e-007
      vertex 36 1.6 -7.62939e-007
      vertex 36 6.4 -7.62939e-007
    endloop
  endfacet
  facet normal 0 0 1
    outer loop
      vertex 34.3029 5.69706 -7.62939e-007
      vertex 34.3029 2.30294 -7.62939e-007
      vertex 36 1.6 -7.62939e-007
    endloop
  endfacet
  facet normal 0 -0 1
    outer loop
      vertex 34.3029 2.30294 -7.62939e-007
      vertex 34.3029 5.69706 -7.62939e-007
      vertex 33.6 4 -7.62939e-007
    endloop
  endfacet
  facet normal -0.382684 0.923879 0
    outer loop
      vertex 36 6.4 -1.8
      vertex 34.3029 5.69706 -7.62939e-007
      vertex 36 6.4 -7.62939e-007
    endloop
  endfacet
  facet normal -0.382684 0.923879 0
    outer loop
      vertex 34.3029 5.69706 -7.62939e-007
      vertex 36 6.4 -1.8
      vertex 34.3029 5.69706 -1.8
    endloop
  endfacet
  facet normal 0.382684 -0.923879 0
    outer loop
      vertex 36 1.6 -1.8
      vertex 37.6971 2.30294 -7.62939e-007
      vertex 36 1.6 -7.62939e-007
    endloop
  endfacet
  facet normal 0.382684 -0.923879 0
    outer loop
      vertex 37.6971 2.30294 -7.62939e-007
      vertex 36 1.6 -1.8
      vertex 37.6971 2.30294 -1.8
    endloop
  endfacet
  facet normal -0.923879 -0.382684 0
    outer loop
      vertex 34.3029 2.30294 -1.8
      vertex 33.6 4 -7.62939e-007
      vertex 33.6 4 -1.8
    endloop
  endfacet
  facet normal -0.923879 -0.382684 0
    outer loop
      vertex 33.6 4 -7.62939e-007
      vertex 34.3029 2.30294 -1.8
      vertex 34.3029 2.30294 -7.62939e-007
    endloop
  endfacet
  facet normal 0.923879 -0.382684 0
    outer loop
      vertex 37.6971 2.30294 -7.62939e-007
      vertex 38.4 4 -1.8
      vertex 38.4 4 -7.62939e-007
    endloop
  endfacet
  facet normal 0.923879 -0.382684 0
    outer loop
      vertex 38.4 4 -1.8
      vertex 37.6971 2.30294 -7.62939e-007
      vertex 37.6971 2.30294 -1.8
    endloop
  endfacet
  facet normal -0.382684 -0.923879 0
    outer loop
      vertex 34.3029 2.30294 -1.8
      vertex 36 1.6 -7.62939e-007
      vertex 34.3029 2.30294 -7.62939e-007
    endloop
  endfacet
  facet normal -0.382684 -0.923879 -0
    outer loop
      vertex 36 1.6 -7.62939e-007
      vertex 34.3029 2.30294 -1.8
      vertex 36 1.6 -1.8
    endloop
  endfacet
  facet normal 0.923879 0.382684 0
    outer loop
      vertex 38.4 12 -7.62939e-007
      vertex 37.6971 13.6971 -1.8
      vertex 37.6971 13.6971 -7.62939e-007
    endloop
  endfacet
  facet normal 0.923879 0.382684 0
    outer loop
      vertex 37.6971 13.6971 -1.8
      vertex 38.4 12 -7.62939e-007
      vertex 38.4 12 -1.8
    endloop
  endfacet
  facet normal -0.382684 0.923879 0
    outer loop
      vertex 36 14.4 -1.8
      vertex 34.3029 13.6971 -7.62939e-007
      vertex 36 14.4 -7.62939e-007
    endloop
  endfacet
  facet normal -0.382684 0.923879 0
    outer loop
      vertex 34.3029 13.6971 -7.62939e-007
      vertex 36 14.4 -1.8
      vertex 34.3029 13.6971 -1.8
    endloop
  endfacet
  facet normal 0.382684 0.923879 -0
    outer loop
      vertex 37.6971 13.6971 -1.8
      vertex 36 14.4 -7.62939e-007
      vertex 37.6971 13.6971 -7.62939e-007
    endloop
  endfacet
  facet normal 0.382684 0.923879 0
    outer loop
      vertex 36 14.4 -7.62939e-007
      vertex 37.6971 13.6971 -1.8
      vertex 36 14.4 -1.8
    endloop
  endfacet
  facet normal 0 0 1
    outer loop
      vertex 37.6971 13.6971 -7.62939e-007
      vertex 37.6971 10.3029 -7.62939e-007
      vertex 38.4 12 -7.62939e-007
    endloop
  endfacet
  facet normal 0 0 1
    outer loop
      vertex 36 14.4 -7.62939e-007
      vertex 37.6971 10.3029 -7.62939e-007
      vertex 37.6971 13.6971 -7.62939e-007
    endloop
  endfacet
  facet normal 0 0 1
    outer loop
      vertex 36 14.4 -7.62939e-007
      vertex 36 9.6 -7.62939e-007
      vertex 37.6971 10.3029 -7.62939e-007
    endloop
  endfacet
  facet normal -0 0 1
    outer loop
      vertex 34.3029 13.6971 -7.62939e-007
      vertex 36 9.6 -7.62939e-007
      vertex 36 14.4 -7.62939e-007
    endloop
  endfacet
  facet normal 0 0 1
    outer loop
      vertex 34.3029 13.6971 -7.62939e-007
      vertex 34.3029 10.3029 -7.62939e-007
      vertex 36 9.6 -7.62939e-007
    endloop
  endfacet
  facet normal 0 -0 1
    outer loop
      vertex 34.3029 10.3029 -7.62939e-007
      vertex 34.3029 13.6971 -7.62939e-007
      vertex 33.6 12 -7.62939e-007
    endloop
  endfacet
  facet normal -0.923879 0.382684 0
    outer loop
      vertex 33.6 12 -1.8
      vertex 34.3029 13.6971 -7.62939e-007
      vertex 34.3029 13.6971 -1.8
    endloop
  endfacet
  facet normal -0.923879 0.382684 0
    outer loop
      vertex 34.3029 13.6971 -7.62939e-007
      vertex 33.6 12 -1.8
      vertex 33.6 12 -7.62939e-007
    endloop
  endfacet
  facet normal 0.923879 -0.382684 0
    outer loop
      vertex 37.6971 10.3029 -7.62939e-007
      vertex 38.4 12 -1.8
      vertex 38.4 12 -7.62939e-007
    endloop
  endfacet
  facet normal 0.923879 -0.382684 0
    outer loop
      vertex 38.4 12 -1.8
      vertex 37.6971 10.3029 -7.62939e-007
      vertex 37.6971 10.3029 -1.8
    endloop
  endfacet
  facet normal -0.923879 -0.382684 0
    outer loop
      vertex 34.3029 10.3029 -1.8
      vertex 33.6 12 -7.62939e-007
      vertex 33.6 12 -1.8
    endloop
  endfacet
  facet normal -0.923879 -0.382684 0
    outer loop
      vertex 33.6 12 -7.62939e-007
      vertex 34.3029 10.3029 -1.8
      vertex 34.3029 10.3029 -7.62939e-007
    endloop
  endfacet
  facet normal 0.382684 -0.923879 0
    outer loop
      vertex 36 9.6 -1.8
      vertex 37.6971 10.3029 -7.62939e-007
      vertex 36 9.6 -7.62939e-007
    endloop
  endfacet
  facet normal 0.382684 -0.923879 0
    outer loop
      vertex 37.6971 10.3029 -7.62939e-007
      vertex 36 9.6 -1.8
      vertex 37.6971 10.3029 -1.8
    endloop
  endfacet
  facet normal -0.382684 -0.923879 0
    outer loop
      vertex 34.3029 10.3029 -1.8
      vertex 36 9.6 -7.62939e-007
      vertex 34.3029 10.3029 -7.62939e-007
    endloop
  endfacet
  facet normal -0.382684 -0.923879 -0
    outer loop
      vertex 36 9.6 -7.62939e-007
      vertex 34.3029 10.3029 -1.8
      vertex 36 9.6 -1.8
    endloop
  endfacet
  facet normal 0.923879 0.382684 0
    outer loop
      vertex 38.4 20 -7.62939e-007
      vertex 37.6971 21.6971 -1.8
      vertex 37.6971 21.6971 -7.62939e-007
    endloop
  endfacet
  facet normal 0.923879 0.382684 0
    outer loop
      vertex 37.6971 21.6971 -1.8
      vertex 38.4 20 -7.62939e-007
      vertex 38.4 20 -1.8
    endloop
  endfacet
  facet normal -0.382683 0.92388 0
    outer loop
      vertex 35.0343 22 -1.8
      vertex 34.3029 21.6971 -7.62939e-007
      vertex 35.0343 22 -7.62939e-007
    endloop
  endfacet
  facet normal -0.382683 0.92388 0
    outer loop
      vertex 34.3029 21.6971 -7.62939e-007
      vertex 35.0343 22 -1.8
      vertex 34.3029 21.6971 -1.8
    endloop
  endfacet
  facet normal 0.382683 0.92388 -0
    outer loop
      vertex 37.6971 21.6971 -1.8
      vertex 36.9657 22 -7.62939e-007
      vertex 37.6971 21.6971 -7.62939e-007
    endloop
  endfacet
  facet normal 0.382683 0.92388 0
    outer loop
      vertex 36.9657 22 -7.62939e-007
      vertex 37.6971 21.6971 -1.8
      vertex 36.9657 22 -1.8
    endloop
  endfacet
  facet normal 0 0 1
    outer loop
      vertex 36.9657 22 -7.62939e-007
      vertex 38.4 20 -7.62939e-007
      vertex 37.6971 21.6971 -7.62939e-007
    endloop
  endfacet
  facet normal 0 0 1
    outer loop
      vertex 38.4 20 -7.62939e-007
      vertex 36.9657 22 -7.62939e-007
      vertex 37.6971 18.3029 -7.62939e-007
    endloop
  endfacet
  facet normal 0 0 1
    outer loop
      vertex 36.9657 22 -7.62939e-007
      vertex 36 17.6 -7.62939e-007
      vertex 37.6971 18.3029 -7.62939e-007
    endloop
  endfacet
  facet normal -0 0 1
    outer loop
      vertex 35.0343 22 -7.62939e-007
      vertex 36 17.6 -7.62939e-007
      vertex 36.9657 22 -7.62939e-007
    endloop
  endfacet
  facet normal 0 0 1
    outer loop
      vertex 33.6 20 -7.62939e-007
      vertex 35.0343 22 -7.62939e-007
      vertex 34.3029 21.6971 -7.62939e-007
    endloop
  endfacet
  facet normal 0 0 1
    outer loop
      vertex 35.0343 22 -7.62939e-007
      vertex 34.3029 18.3029 -7.62939e-007
      vertex 36 17.6 -7.62939e-007
    endloop
  endfacet
  facet normal 0 0 1
    outer loop
      vertex 35.0343 22 -7.62939e-007
      vertex 33.6 20 -7.62939e-007
      vertex 34.3029 18.3029 -7.62939e-007
    endloop
  endfacet
  facet normal -0.923879 0.382684 0
    outer loop
      vertex 33.6 20 -1.8
      vertex 34.3029 21.6971 -7.62939e-007
      vertex 34.3029 21.6971 -1.8
    endloop
  endfacet
  facet normal -0.923879 0.382684 0
    outer loop
      vertex 34.3029 21.6971 -7.62939e-007
      vertex 33.6 20 -1.8
      vertex 33.6 20 -7.62939e-007
    endloop
  endfacet
  facet normal 0.923879 -0.382684 0
    outer loop
      vertex 37.6971 18.3029 -7.62939e-007
      vertex 38.4 20 -1.8
      vertex 38.4 20 -7.62939e-007
    endloop
  endfacet
  facet normal 0.923879 -0.382684 0
    outer loop
      vertex 38.4 20 -1.8
      vertex 37.6971 18.3029 -7.62939e-007
      vertex 37.6971 18.3029 -1.8
    endloop
  endfacet
  facet normal -0.923879 -0.382684 0
    outer loop
      vertex 34.3029 18.3029 -1.8
      vertex 33.6 20 -7.62939e-007
      vertex 33.6 20 -1.8
    endloop
  endfacet
  facet normal -0.923879 -0.382684 0
    outer loop
      vertex 33.6 20 -7.62939e-007
      vertex 34.3029 18.3029 -1.8
      vertex 34.3029 18.3029 -7.62939e-007
    endloop
  endfacet
  facet normal 0.382684 -0.923879 0
    outer loop
      vertex 36 17.6 -1.8
      vertex 37.6971 18.3029 -7.62939e-007
      vertex 36 17.6 -7.62939e-007
    endloop
  endfacet
  facet normal 0.382684 -0.923879 0
    outer loop
      vertex 37.6971 18.3029 -7.62939e-007
      vertex 36 17.6 -1.8
      vertex 37.6971 18.3029 -1.8
    endloop
  endfacet
  facet normal -0.382684 -0.923879 0
    outer loop
      vertex 34.3029 18.3029 -1.8
      vertex 36 17.6 -7.62939e-007
      vertex 34.3029 18.3029 -7.62939e-007
    endloop
  endfacet
  facet normal -0.382684 -0.923879 -0
    outer loop
      vertex 36 17.6 -7.62939e-007
      vertex 34.3029 18.3029 -1.8
      vertex 36 17.6 -1.8
    endloop
  endfacet
  facet normal -1 0 0
    outer loop
      vertex 0 0 0
      vertex 0 22 32
      vertex 0 22 0
    endloop
  endfacet
  facet normal -1 -0 0
    outer loop
      vertex 0 22 32
      vertex 0 0 0
      vertex 0 0 32
    endloop
  endfacet
  facet normal -0 0 1
    outer loop
      vertex 0 22 32
      vertex 40 0 32
      vertex 40 22 32
    endloop
  endfacet
  facet normal 0 0 1
    outer loop
      vertex 40 0 32
      vertex 0 22 32
      vertex 0 0 32
    endloop
  endfacet
  facet normal 1 -0 0
    outer loop
      vertex 40 0 32
      vertex 40 22 0
      vertex 40 22 32
    endloop
  endfacet
  facet normal 1 0 0
    outer loop
      vertex 40 22 0
      vertex 40 0 32
      vertex 40 0 0
    endloop
  endfacet
  facet normal 0 1 0
    outer loop
      vertex 40 22 32
      vertex 28.5 22 17.5
      vertex 0 22 32
    endloop
  endfacet
  facet normal 0 1 -0
    outer loop
      vertex 40 22 0
      vertex 28.5 22 17.5
      vertex 40 22 32
    endloop
  endfacet
  facet normal 0 1 0
    outer loop
      vertex 28.5 22 17.5
      vertex 40 22 0
      vertex 28.5 22 0
    endloop
  endfacet
  facet normal 0 1 -0
    outer loop
      vertex 11.5 22 17.5
      vertex 0 22 32
      vertex 28.5 22 17.5
    endloop
  endfacet
  facet normal 0 1 0
    outer loop
      vertex 0 22 0
      vertex 11.5 22 17.5
      vertex 11.5 22 0
    endloop
  endfacet
  facet normal 0 1 0
    outer loop
      vertex 11.5 22 17.5
      vertex 0 22 0
      vertex 0 22 32
    endloop
  endfacet
  facet normal 0 0 -1
    outer loop
      vertex 0 0 0
      vertex 11.5 22 0
      vertex 11.5 0 0
    endloop
  endfacet
  facet normal -0 0 -1
    outer loop
      vertex 11.5 22 0
      vertex 0 0 0
      vertex 0 22 0
    endloop
  endfacet
  facet normal 0 0 -1
    outer loop
      vertex 28.5 0 0
      vertex 40 22 0
      vertex 40 0 0
    endloop
  endfacet
  facet normal -0 0 -1
    outer loop
      vertex 40 22 0
      vertex 28.5 0 0
      vertex 28.5 22 0
    endloop
  endfacet
  facet normal 0 -1 0
    outer loop
      vertex 0 0 32
      vertex 11.5 0 17.5
      vertex 40 0 32
    endloop
  endfacet
  facet normal 0 -1 0
    outer loop
      vertex 0 0 0
      vertex 11.5 0 17.5
      vertex 0 0 32
    endloop
  endfacet
  facet normal 0 -1 -0
    outer loop
      vertex 11.5 0 17.5
      vertex 0 0 0
      vertex 11.5 0 0
    endloop
  endfacet
  facet normal 0 -1 0
    outer loop
      vertex 28.5 0 17.5
      vertex 40 0 32
      vertex 11.5 0 17.5
    endloop
  endfacet
  facet normal 0 -1 0
    outer loop
      vertex 40 0 0
      vertex 28.5 0 17.5
      vertex 28.5 0 0
    endloop
  endfacet
  facet normal 0 -1 0
    outer loop
      vertex 28.5 0 17.5
      vertex 40 0 0
      vertex 40 0 32
    endloop
  endfacet
  facet normal 1 -0 0
    outer loop
      vertex 11.5 0 17.5
      vertex 11.5 22 0
      vertex 11.5 22 17.5
    endloop
  endfacet
  facet normal 1 0 0
    outer loop
      vertex 11.5 22 0
      vertex 11.5 0 17.5
      vertex 11.5 0 0
    endloop
  endfacet
  facet normal 0 0 -1
    outer loop
      vertex 11.5 0 17.5
      vertex 28.5 22 17.5
      vertex 28.5 0 17.5
    endloop
  endfacet
  facet normal -0 0 -1
    outer loop
      vertex 28.5 22 17.5
      vertex 11.5 0 17.5
      vertex 11.5 22 17.5
    endloop
  endfacet
  facet normal -1 0 0
    outer loop
      vertex 28.5 0 0
      vertex 28.5 22 17.5
      vertex 28.5 22 0
    endloop
  endfacet
  facet normal -1 -0 0
    outer loop
      vertex 28.5 22 17.5
      vertex 28.5 0 0
      vertex 28.5 0 17.5
    endloop
  endfacet
  facet normal 0 1 -0
    outer loop
      vertex 11.5 22 -1.8
      vertex 11.0343 22 -7.62939e-007
      vertex 11.5 22 -7.62939e-007
    endloop
  endfacet
  facet normal 0 1 0
    outer loop
      vertex 11.0343 22 -7.62939e-007
      vertex 11.5 22 -1.8
      vertex 11.0343 22 -1.8
    endloop
  endfacet
  facet normal 0 1 -0
    outer loop
      vertex 28.9657 22 -1.8
      vertex 28.5 22 -7.62939e-007
      vertex 28.9657 22 -7.62939e-007
    endloop
  endfacet
  facet normal 0 1 0
    outer loop
      vertex 28.5 22 -7.62939e-007
      vertex 28.9657 22 -1.8
      vertex 28.5 22 -1.8
    endloop
  endfacet
  facet normal 0 1 -0
    outer loop
      vertex 4.96568 22 -1.8
      vertex 3.03432 22 -7.62939e-007
      vertex 4.96568 22 -7.62939e-007
    endloop
  endfacet
  facet normal 0 1 0
    outer loop
      vertex 3.03432 22 -7.62939e-007
      vertex 4.96568 22 -1.8
      vertex 3.03432 22 -1.8
    endloop
  endfacet
  facet normal 0 1 -0
    outer loop
      vertex 36.9657 22 -1.8
      vertex 35.0343 22 -7.62939e-007
      vertex 36.9657 22 -7.62939e-007
    endloop
  endfacet
  facet normal 0 1 0
    outer loop
      vertex 35.0343 22 -7.62939e-007
      vertex 36.9657 22 -1.8
      vertex 35.0343 22 -1.8
    endloop
  endfacet
  facet normal 1 -0 0
    outer loop
      vertex 11.5 17.8071 -7.62939e-007
      vertex 11.5 22 -1.8
      vertex 11.5 22 -7.62939e-007
    endloop
  endfacet
  facet normal 1 0 0
    outer loop
      vertex 11.5 22 -1.8
      vertex 11.5 17.8071 -7.62939e-007
      vertex 11.5 17.8071 -1.8
    endloop
  endfacet
  facet normal 1 -0 0
    outer loop
      vertex 11.5 9.80711 -7.62939e-007
      vertex 11.5 14.1929 -1.8
      vertex 11.5 14.1929 -7.62939e-007
    endloop
  endfacet
  facet normal 1 0 0
    outer loop
      vertex 11.5 14.1929 -1.8
      vertex 11.5 9.80711 -7.62939e-007
      vertex 11.5 9.80711 -1.8
    endloop
  endfacet
  facet normal 1 -0 0
    outer loop
      vertex 11.5 1.80711 -7.62939e-007
      vertex 11.5 6.19289 -1.8
      vertex 11.5 6.19289 -7.62939e-007
    endloop
  endfacet
  facet normal 1 0 0
    outer loop
      vertex 11.5 6.19289 -1.8
      vertex 11.5 1.80711 -7.62939e-007
      vertex 11.5 1.80711 -1.8
    endloop
  endfacet
  facet normal -1 0 0
    outer loop
      vertex 28.5 17.8071 -1.8
      vertex 28.5 22 -7.62939e-007
      vertex 28.5 22 -1.8
    endloop
  endfacet
  facet normal -1 -0 0
    outer loop
      vertex 28.5 22 -7.62939e-007
      vertex 28.5 17.8071 -1.8
      vertex 28.5 17.8071 -7.62939e-007
    endloop
  endfacet
  facet normal -1 0 0
    outer loop
      vertex 28.5 9.80711 -1.8
      vertex 28.5 14.1929 -7.62939e-007
      vertex 28.5 14.1929 -1.8
    endloop
  endfacet
  facet normal -1 -0 0
    outer loop
      vertex 28.5 14.1929 -7.62939e-007
      vertex 28.5 9.80711 -1.8
      vertex 28.5 9.80711 -7.62939e-007
    endloop
  endfacet
  facet normal -1 0 0
    outer loop
      vertex 28.5 1.80711 -1.8
      vertex 28.5 6.19289 -7.62939e-007
      vertex 28.5 6.19289 -1.8
    endloop
  endfacet
  facet normal -1 -0 0
    outer loop
      vertex 28.5 6.19289 -7.62939e-007
      vertex 28.5 1.80711 -1.8
      vertex 28.5 1.80711 -7.62939e-007
    endloop
  endfacet
endsolid OpenSCAD_Model
