solid OpenSCAD_Model
  facet normal 0.923879 0.382684 0
    outer loop
      vertex 6.4 4 -7.62939e-007
      vertex 5.69706 5.69706 -1.8
      vertex 5.69706 5.69706 -7.62939e-007
    endloop
  endfacet
  facet normal 0.923879 0.382684 0
    outer loop
      vertex 5.69706 5.69706 -1.8
      vertex 6.4 4 -7.62939e-007
      vertex 6.4 4 -1.8
    endloop
  endfacet
  facet normal -0.923879 0.382684 0
    outer loop
      vertex 1.6 4 -1.8
      vertex 2.30294 5.69706 -7.62939e-007
      vertex 2.30294 5.69706 -1.8
    endloop
  endfacet
  facet normal -0.923879 0.382684 0
    outer loop
      vertex 2.30294 5.69706 -7.62939e-007
      vertex 1.6 4 -1.8
      vertex 1.6 4 -7.62939e-007
    endloop
  endfacet
  facet normal 0.382684 0.923879 -0
    outer loop
      vertex 5.69706 5.69706 -1.8
      vertex 4 6.4 -7.62939e-007
      vertex 5.69706 5.69706 -7.62939e-007
    endloop
  endfacet
  facet normal 0.382684 0.923879 0
    outer loop
      vertex 4 6.4 -7.62939e-007
      vertex 5.69706 5.69706 -1.8
      vertex 4 6.4 -1.8
    endloop
  endfacet
  facet normal 0 0 -1
    outer loop
      vertex 5.69706 2.30294 -1.8
      vertex 5.69706 5.69706 -1.8
      vertex 6.4 4 -1.8
    endloop
  endfacet
  facet normal 0 0 -1
    outer loop
      vertex 4 1.6 -1.8
      vertex 5.69706 5.69706 -1.8
      vertex 5.69706 2.30294 -1.8
    endloop
  endfacet
  facet normal 0 0 -1
    outer loop
      vertex 4 1.6 -1.8
      vertex 4 6.4 -1.8
      vertex 5.69706 5.69706 -1.8
    endloop
  endfacet
  facet normal 0 0 -1
    outer loop
      vertex 2.30294 2.30294 -1.8
      vertex 4 6.4 -1.8
      vertex 4 1.6 -1.8
    endloop
  endfacet
  facet normal 0 0 -1
    outer loop
      vertex 2.30294 2.30294 -1.8
      vertex 2.30294 5.69706 -1.8
      vertex 4 6.4 -1.8
    endloop
  endfacet
  facet normal 0 -0 -1
    outer loop
      vertex 2.30294 5.69706 -1.8
      vertex 2.30294 2.30294 -1.8
      vertex 1.6 4 -1.8
    endloop
  endfacet
  facet normal -0.382684 0.923879 0
    outer loop
      vertex 4 6.4 -1.8
      vertex 2.30294 5.69706 -7.62939e-007
      vertex 4 6.4 -7.62939e-007
    endloop
  endfacet
  facet normal -0.382684 0.923879 0
    outer loop
      vertex 2.30294 5.69706 -7.62939e-007
      vertex 4 6.4 -1.8
      vertex 2.30294 5.69706 -1.8
    endloop
  endfacet
  facet normal 0.382684 -0.923879 0
    outer loop
      vertex 4 1.6 -1.8
      vertex 5.69706 2.30294 -7.62939e-007
      vertex 4 1.6 -7.62939e-007
    endloop
  endfacet
  facet normal 0.382684 -0.923879 0
    outer loop
      vertex 5.69706 2.30294 -7.62939e-007
      vertex 4 1.6 -1.8
      vertex 5.69706 2.30294 -1.8
    endloop
  endfacet
  facet normal -0.923879 -0.382684 0
    outer loop
      vertex 2.30294 2.30294 -1.8
      vertex 1.6 4 -7.62939e-007
      vertex 1.6 4 -1.8
    endloop
  endfacet
  facet normal -0.923879 -0.382684 0
    outer loop
      vertex 1.6 4 -7.62939e-007
      vertex 2.30294 2.30294 -1.8
      vertex 2.30294 2.30294 -7.62939e-007
    endloop
  endfacet
  facet normal 0.923879 -0.382684 0
    outer loop
      vertex 5.69706 2.30294 -7.62939e-007
      vertex 6.4 4 -1.8
      vertex 6.4 4 -7.62939e-007
    endloop
  endfacet
  facet normal 0.923879 -0.382684 0
    outer loop
      vertex 6.4 4 -1.8
      vertex 5.69706 2.30294 -7.62939e-007
      vertex 5.69706 2.30294 -1.8
    endloop
  endfacet
  facet normal -0.382684 -0.923879 0
    outer loop
      vertex 2.30294 2.30294 -1.8
      vertex 4 1.6 -7.62939e-007
      vertex 2.30294 2.30294 -7.62939e-007
    endloop
  endfacet
  facet normal -0.382684 -0.923879 -0
    outer loop
      vertex 4 1.6 -7.62939e-007
      vertex 2.30294 2.30294 -1.8
      vertex 4 1.6 -1.8
    endloop
  endfacet
  facet normal 0 0 1
    outer loop
      vertex 5.69706 5.69706 -7.62939e-007
      vertex 5.69706 2.30294 -7.62939e-007
      vertex 6.4 4 -7.62939e-007
    endloop
  endfacet
  facet normal 0 0 1
    outer loop
      vertex 4 6.4 -7.62939e-007
      vertex 5.69706 2.30294 -7.62939e-007
      vertex 5.69706 5.69706 -7.62939e-007
    endloop
  endfacet
  facet normal 0 0 1
    outer loop
      vertex 4 6.4 -7.62939e-007
      vertex 4 1.6 -7.62939e-007
      vertex 5.69706 2.30294 -7.62939e-007
    endloop
  endfacet
  facet normal -0 0 1
    outer loop
      vertex 2.30294 5.69706 -7.62939e-007
      vertex 4 1.6 -7.62939e-007
      vertex 4 6.4 -7.62939e-007
    endloop
  endfacet
  facet normal 0 0 1
    outer loop
      vertex 2.30294 5.69706 -7.62939e-007
      vertex 2.30294 2.30294 -7.62939e-007
      vertex 4 1.6 -7.62939e-007
    endloop
  endfacet
  facet normal 0 -0 1
    outer loop
      vertex 2.30294 2.30294 -7.62939e-007
      vertex 2.30294 5.69706 -7.62939e-007
      vertex 1.6 4 -7.62939e-007
    endloop
  endfacet
  facet normal 0.923879 0.382684 0
    outer loop
      vertex 30.4 4 -7.62939e-007
      vertex 29.6971 5.69706 -1.8
      vertex 29.6971 5.69706 -7.62939e-007
    endloop
  endfacet
  facet normal 0.923879 0.382684 0
    outer loop
      vertex 29.6971 5.69706 -1.8
      vertex 30.4 4 -7.62939e-007
      vertex 30.4 4 -1.8
    endloop
  endfacet
  facet normal -0.923879 0.382684 0
    outer loop
      vertex 25.6 4 -1.8
      vertex 26.3029 5.69706 -7.62939e-007
      vertex 26.3029 5.69706 -1.8
    endloop
  endfacet
  facet normal -0.923879 0.382684 0
    outer loop
      vertex 26.3029 5.69706 -7.62939e-007
      vertex 25.6 4 -1.8
      vertex 25.6 4 -7.62939e-007
    endloop
  endfacet
  facet normal 0.382684 0.923879 -0
    outer loop
      vertex 29.6971 5.69706 -1.8
      vertex 28 6.4 -7.62939e-007
      vertex 29.6971 5.69706 -7.62939e-007
    endloop
  endfacet
  facet normal 0.382684 0.923879 0
    outer loop
      vertex 28 6.4 -7.62939e-007
      vertex 29.6971 5.69706 -1.8
      vertex 28 6.4 -1.8
    endloop
  endfacet
  facet normal 0 0 -1
    outer loop
      vertex 29.6971 2.30294 -1.8
      vertex 29.6971 5.69706 -1.8
      vertex 30.4 4 -1.8
    endloop
  endfacet
  facet normal 0 0 -1
    outer loop
      vertex 28 1.6 -1.8
      vertex 29.6971 5.69706 -1.8
      vertex 29.6971 2.30294 -1.8
    endloop
  endfacet
  facet normal 0 0 -1
    outer loop
      vertex 28 1.6 -1.8
      vertex 28 6.4 -1.8
      vertex 29.6971 5.69706 -1.8
    endloop
  endfacet
  facet normal 0 0 -1
    outer loop
      vertex 26.3029 2.30294 -1.8
      vertex 28 6.4 -1.8
      vertex 28 1.6 -1.8
    endloop
  endfacet
  facet normal 0 0 -1
    outer loop
      vertex 26.3029 2.30294 -1.8
      vertex 26.3029 5.69706 -1.8
      vertex 28 6.4 -1.8
    endloop
  endfacet
  facet normal 0 -0 -1
    outer loop
      vertex 26.3029 5.69706 -1.8
      vertex 26.3029 2.30294 -1.8
      vertex 25.6 4 -1.8
    endloop
  endfacet
  facet normal 0 0 1
    outer loop
      vertex 29.6971 5.69706 -7.62939e-007
      vertex 29.6971 2.30294 -7.62939e-007
      vertex 30.4 4 -7.62939e-007
    endloop
  endfacet
  facet normal 0 0 1
    outer loop
      vertex 28 6.4 -7.62939e-007
      vertex 29.6971 2.30294 -7.62939e-007
      vertex 29.6971 5.69706 -7.62939e-007
    endloop
  endfacet
  facet normal 0 0 1
    outer loop
      vertex 28 6.4 -7.62939e-007
      vertex 28 1.6 -7.62939e-007
      vertex 29.6971 2.30294 -7.62939e-007
    endloop
  endfacet
  facet normal -0 0 1
    outer loop
      vertex 26.3029 5.69706 -7.62939e-007
      vertex 28 1.6 -7.62939e-007
      vertex 28 6.4 -7.62939e-007
    endloop
  endfacet
  facet normal 0 0 1
    outer loop
      vertex 26.3029 5.69706 -7.62939e-007
      vertex 26.3029 2.30294 -7.62939e-007
      vertex 28 1.6 -7.62939e-007
    endloop
  endfacet
  facet normal 0 -0 1
    outer loop
      vertex 26.3029 2.30294 -7.62939e-007
      vertex 26.3029 5.69706 -7.62939e-007
      vertex 25.6 4 -7.62939e-007
    endloop
  endfacet
  facet normal -0.382684 0.923879 0
    outer loop
      vertex 28 6.4 -1.8
      vertex 26.3029 5.69706 -7.62939e-007
      vertex 28 6.4 -7.62939e-007
    endloop
  endfacet
  facet normal -0.382684 0.923879 0
    outer loop
      vertex 26.3029 5.69706 -7.62939e-007
      vertex 28 6.4 -1.8
      vertex 26.3029 5.69706 -1.8
    endloop
  endfacet
  facet normal 0.382684 -0.923879 0
    outer loop
      vertex 28 1.6 -1.8
      vertex 29.6971 2.30294 -7.62939e-007
      vertex 28 1.6 -7.62939e-007
    endloop
  endfacet
  facet normal 0.382684 -0.923879 0
    outer loop
      vertex 29.6971 2.30294 -7.62939e-007
      vertex 28 1.6 -1.8
      vertex 29.6971 2.30294 -1.8
    endloop
  endfacet
  facet normal -0.923879 -0.382684 0
    outer loop
      vertex 26.3029 2.30294 -1.8
      vertex 25.6 4 -7.62939e-007
      vertex 25.6 4 -1.8
    endloop
  endfacet
  facet normal -0.923879 -0.382684 0
    outer loop
      vertex 25.6 4 -7.62939e-007
      vertex 26.3029 2.30294 -1.8
      vertex 26.3029 2.30294 -7.62939e-007
    endloop
  endfacet
  facet normal -0.382684 -0.923879 0
    outer loop
      vertex 26.3029 2.30294 -1.8
      vertex 28 1.6 -7.62939e-007
      vertex 26.3029 2.30294 -7.62939e-007
    endloop
  endfacet
  facet normal -0.382684 -0.923879 -0
    outer loop
      vertex 28 1.6 -7.62939e-007
      vertex 26.3029 2.30294 -1.8
      vertex 28 1.6 -1.8
    endloop
  endfacet
  facet normal 0.923879 -0.382684 0
    outer loop
      vertex 29.6971 2.30294 -7.62939e-007
      vertex 30.4 4 -1.8
      vertex 30.4 4 -7.62939e-007
    endloop
  endfacet
  facet normal 0.923879 -0.382684 0
    outer loop
      vertex 30.4 4 -1.8
      vertex 29.6971 2.30294 -7.62939e-007
      vertex 29.6971 2.30294 -1.8
    endloop
  endfacet
  facet normal -1 0 0
    outer loop
      vertex 0 0 0
      vertex 0 8 16
      vertex 0 8 0
    endloop
  endfacet
  facet normal -1 -0 0
    outer loop
      vertex 0 8 16
      vertex 0 0 0
      vertex 0 0 16
    endloop
  endfacet
  facet normal 0 0 -1
    outer loop
      vertex 7 0 8
      vertex 25 8 8
      vertex 25 0 8
    endloop
  endfacet
  facet normal -0 0 -1
    outer loop
      vertex 25 8 8
      vertex 7 0 8
      vertex 7 8 8
    endloop
  endfacet
  facet normal 1 -0 0
    outer loop
      vertex 7 0 8
      vertex 7 8 0
      vertex 7 8 8
    endloop
  endfacet
  facet normal 1 0 0
    outer loop
      vertex 7 8 0
      vertex 7 0 8
      vertex 7 0 0
    endloop
  endfacet
  facet normal 0 1 0
    outer loop
      vertex 32 8 16
      vertex 25 8 8
      vertex 0 8 16
    endloop
  endfacet
  facet normal 0 1 -0
    outer loop
      vertex 32 8 0
      vertex 25 8 8
      vertex 32 8 16
    endloop
  endfacet
  facet normal 0 1 0
    outer loop
      vertex 25 8 8
      vertex 32 8 0
      vertex 25 8 0
    endloop
  endfacet
  facet normal 0 1 -0
    outer loop
      vertex 7 8 8
      vertex 0 8 16
      vertex 25 8 8
    endloop
  endfacet
  facet normal 0 1 0
    outer loop
      vertex 0 8 0
      vertex 7 8 8
      vertex 7 8 0
    endloop
  endfacet
  facet normal 0 1 0
    outer loop
      vertex 7 8 8
      vertex 0 8 0
      vertex 0 8 16
    endloop
  endfacet
  facet normal 0 0 -1
    outer loop
      vertex 0 0 0
      vertex 7 8 0
      vertex 7 0 0
    endloop
  endfacet
  facet normal -0 0 -1
    outer loop
      vertex 7 8 0
      vertex 0 0 0
      vertex 0 8 0
    endloop
  endfacet
  facet normal 0 -1 0
    outer loop
      vertex 0 0 16
      vertex 7 0 8
      vertex 32 0 16
    endloop
  endfacet
  facet normal 0 -1 0
    outer loop
      vertex 0 0 0
      vertex 7 0 8
      vertex 0 0 16
    endloop
  endfacet
  facet normal 0 -1 -0
    outer loop
      vertex 7 0 8
      vertex 0 0 0
      vertex 7 0 0
    endloop
  endfacet
  facet normal 0 -1 0
    outer loop
      vertex 25 0 8
      vertex 32 0 16
      vertex 7 0 8
    endloop
  endfacet
  facet normal 0 -1 0
    outer loop
      vertex 32 0 0
      vertex 25 0 8
      vertex 25 0 0
    endloop
  endfacet
  facet normal 0 -1 0
    outer loop
      vertex 25 0 8
      vertex 32 0 0
      vertex 32 0 16
    endloop
  endfacet
  facet normal -1 0 0
    outer loop
      vertex 25 0 0
      vertex 25 8 8
      vertex 25 8 0
    endloop
  endfacet
  facet normal -1 -0 0
    outer loop
      vertex 25 8 8
      vertex 25 0 0
      vertex 25 0 8
    endloop
  endfacet
  facet normal 1 -0 0
    outer loop
      vertex 32 0 16
      vertex 32 8 0
      vertex 32 8 16
    endloop
  endfacet
  facet normal 1 0 0
    outer loop
      vertex 32 8 0
      vertex 32 0 16
      vertex 32 0 0
    endloop
  endfacet
  facet normal 0 0 -1
    outer loop
      vertex 25 0 0
      vertex 32 8 0
      vertex 32 0 0
    endloop
  endfacet
  facet normal -0 0 -1
    outer loop
      vertex 32 8 0
      vertex 25 0 0
      vertex 25 8 0
    endloop
  endfacet
  facet normal 0 0 1
    outer loop
      vertex 32 8 16
      vertex 30.4 4 16
      vertex 32 0 16
    endloop
  endfacet
  facet normal 0 0 1
    outer loop
      vertex 32 8 16
      vertex 29.6971 5.69706 16
      vertex 30.4 4 16
    endloop
  endfacet
  facet normal 0 0 1
    outer loop
      vertex 32 8 16
      vertex 28 6.4 16
      vertex 29.6971 5.69706 16
    endloop
  endfacet
  facet normal 0 0 1
    outer loop
      vertex 26.3029 5.69706 16
      vertex 22.4 4 16
      vertex 25.6 4 16
    endloop
  endfacet
  facet normal 0 0 1
    outer loop
      vertex 26.3029 5.69706 16
      vertex 21.6971 5.69706 16
      vertex 22.4 4 16
    endloop
  endfacet
  facet normal 0 0 1
    outer loop
      vertex 28 6.4 16
      vertex 21.6971 5.69706 16
      vertex 26.3029 5.69706 16
    endloop
  endfacet
  facet normal 0 0 1
    outer loop
      vertex 20 6.4 16
      vertex 28 6.4 16
      vertex 32 8 16
    endloop
  endfacet
  facet normal 0 0 1
    outer loop
      vertex 28 6.4 16
      vertex 20 6.4 16
      vertex 21.6971 5.69706 16
    endloop
  endfacet
  facet normal 0 0 1
    outer loop
      vertex 18.3029 5.69706 16
      vertex 14.4 4 16
      vertex 17.6 4 16
    endloop
  endfacet
  facet normal 0 0 1
    outer loop
      vertex 18.3029 5.69706 16
      vertex 13.6971 5.69706 16
      vertex 14.4 4 16
    endloop
  endfacet
  facet normal 0 0 1
    outer loop
      vertex 20 6.4 16
      vertex 13.6971 5.69706 16
      vertex 18.3029 5.69706 16
    endloop
  endfacet
  facet normal 0 0 1
    outer loop
      vertex 12 6.4 16
      vertex 20 6.4 16
      vertex 32 8 16
    endloop
  endfacet
  facet normal 0 0 1
    outer loop
      vertex 20 6.4 16
      vertex 12 6.4 16
      vertex 13.6971 5.69706 16
    endloop
  endfacet
  facet normal 0 0 1
    outer loop
      vertex 10.3029 5.69706 16
      vertex 6.4 4 16
      vertex 9.6 4 16
    endloop
  endfacet
  facet normal 0 0 1
    outer loop
      vertex 10.3029 5.69706 16
      vertex 5.69706 5.69706 16
      vertex 6.4 4 16
    endloop
  endfacet
  facet normal 0 0 1
    outer loop
      vertex 12 6.4 16
      vertex 5.69706 5.69706 16
      vertex 10.3029 5.69706 16
    endloop
  endfacet
  facet normal 0 0 1
    outer loop
      vertex 12 6.4 16
      vertex 4 6.4 16
      vertex 5.69706 5.69706 16
    endloop
  endfacet
  facet normal -0 0 1
    outer loop
      vertex 0 8 16
      vertex 12 6.4 16
      vertex 32 8 16
    endloop
  endfacet
  facet normal 0 0 1
    outer loop
      vertex 2.30294 5.69706 16
      vertex 0 8 16
      vertex 1.6 4 16
    endloop
  endfacet
  facet normal 0 0 1
    outer loop
      vertex 4 6.4 16
      vertex 0 8 16
      vertex 2.30294 5.69706 16
    endloop
  endfacet
  facet normal 0 0 1
    outer loop
      vertex 12 6.4 16
      vertex 0 8 16
      vertex 4 6.4 16
    endloop
  endfacet
  facet normal -0 0 1
    outer loop
      vertex 29.6971 2.30294 16
      vertex 32 0 16
      vertex 30.4 4 16
    endloop
  endfacet
  facet normal -0 0 1
    outer loop
      vertex 28 1.6 16
      vertex 32 0 16
      vertex 29.6971 2.30294 16
    endloop
  endfacet
  facet normal -0 0 1
    outer loop
      vertex 22.4 4 16
      vertex 26.3029 2.30294 16
      vertex 25.6 4 16
    endloop
  endfacet
  facet normal 0 0 1
    outer loop
      vertex 21.6971 2.30294 16
      vertex 26.3029 2.30294 16
      vertex 22.4 4 16
    endloop
  endfacet
  facet normal -0 0 1
    outer loop
      vertex 21.6971 2.30294 16
      vertex 28 1.6 16
      vertex 26.3029 2.30294 16
    endloop
  endfacet
  facet normal 0 0 1
    outer loop
      vertex 20 1.6 16
      vertex 28 1.6 16
      vertex 21.6971 2.30294 16
    endloop
  endfacet
  facet normal 0 0 1
    outer loop
      vertex 28 1.6 16
      vertex 20 1.6 16
      vertex 32 0 16
    endloop
  endfacet
  facet normal -0 0 1
    outer loop
      vertex 14.4 4 16
      vertex 18.3029 2.30294 16
      vertex 17.6 4 16
    endloop
  endfacet
  facet normal 0 0 1
    outer loop
      vertex 13.6971 2.30294 16
      vertex 18.3029 2.30294 16
      vertex 14.4 4 16
    endloop
  endfacet
  facet normal -0 0 1
    outer loop
      vertex 13.6971 2.30294 16
      vertex 20 1.6 16
      vertex 18.3029 2.30294 16
    endloop
  endfacet
  facet normal 0 0 1
    outer loop
      vertex 12 1.6 16
      vertex 20 1.6 16
      vertex 13.6971 2.30294 16
    endloop
  endfacet
  facet normal 0 0 1
    outer loop
      vertex 20 1.6 16
      vertex 12 1.6 16
      vertex 32 0 16
    endloop
  endfacet
  facet normal -0 0 1
    outer loop
      vertex 6.4 4 16
      vertex 10.3029 2.30294 16
      vertex 9.6 4 16
    endloop
  endfacet
  facet normal 0 0 1
    outer loop
      vertex 5.69706 2.30294 16
      vertex 10.3029 2.30294 16
      vertex 6.4 4 16
    endloop
  endfacet
  facet normal -0 0 1
    outer loop
      vertex 5.69706 2.30294 16
      vertex 12 1.6 16
      vertex 10.3029 2.30294 16
    endloop
  endfacet
  facet normal 0 0 1
    outer loop
      vertex 4 1.6 16
      vertex 12 1.6 16
      vertex 5.69706 2.30294 16
    endloop
  endfacet
  facet normal 0 0 1
    outer loop
      vertex 0 0 16
      vertex 12 1.6 16
      vertex 4 1.6 16
    endloop
  endfacet
  facet normal 0 0 1
    outer loop
      vertex 12 1.6 16
      vertex 0 0 16
      vertex 32 0 16
    endloop
  endfacet
  facet normal 0 0 1
    outer loop
      vertex 2.30294 2.30294 16
      vertex 0 0 16
      vertex 4 1.6 16
    endloop
  endfacet
  facet normal 0 0 1
    outer loop
      vertex 1.6 4 16
      vertex 0 0 16
      vertex 2.30294 2.30294 16
    endloop
  endfacet
  facet normal 0 0 1
    outer loop
      vertex 0 0 16
      vertex 1.6 4 16
      vertex 0 8 16
    endloop
  endfacet
  facet normal 0.923879 0.382684 0
    outer loop
      vertex 6.4 4 17.8
      vertex 5.69706 5.69706 16
      vertex 5.69706 5.69706 17.8
    endloop
  endfacet
  facet normal 0.923879 0.382684 0
    outer loop
      vertex 5.69706 5.69706 16
      vertex 6.4 4 17.8
      vertex 6.4 4 16
    endloop
  endfacet
  facet normal -0.923879 0.382684 0
    outer loop
      vertex 1.6 4 16
      vertex 2.30294 5.69706 17.8
      vertex 2.30294 5.69706 16
    endloop
  endfacet
  facet normal -0.923879 0.382684 0
    outer loop
      vertex 2.30294 5.69706 17.8
      vertex 1.6 4 16
      vertex 1.6 4 17.8
    endloop
  endfacet
  facet normal 0.382684 0.923879 -0
    outer loop
      vertex 5.69706 5.69706 16
      vertex 4 6.4 17.8
      vertex 5.69706 5.69706 17.8
    endloop
  endfacet
  facet normal 0.382684 0.923879 0
    outer loop
      vertex 4 6.4 17.8
      vertex 5.69706 5.69706 16
      vertex 4 6.4 16
    endloop
  endfacet
  facet normal -0.382684 0.923879 0
    outer loop
      vertex 4 6.4 16
      vertex 2.30294 5.69706 17.8
      vertex 4 6.4 17.8
    endloop
  endfacet
  facet normal -0.382684 0.923879 0
    outer loop
      vertex 2.30294 5.69706 17.8
      vertex 4 6.4 16
      vertex 2.30294 5.69706 16
    endloop
  endfacet
  facet normal 0.382684 -0.923879 0
    outer loop
      vertex 4 1.6 16
      vertex 5.69706 2.30294 17.8
      vertex 4 1.6 17.8
    endloop
  endfacet
  facet normal 0.382684 -0.923879 0
    outer loop
      vertex 5.69706 2.30294 17.8
      vertex 4 1.6 16
      vertex 5.69706 2.30294 16
    endloop
  endfacet
  facet normal -0.923879 -0.382684 0
    outer loop
      vertex 2.30294 2.30294 16
      vertex 1.6 4 17.8
      vertex 1.6 4 16
    endloop
  endfacet
  facet normal -0.923879 -0.382684 0
    outer loop
      vertex 1.6 4 17.8
      vertex 2.30294 2.30294 16
      vertex 2.30294 2.30294 17.8
    endloop
  endfacet
  facet normal 0.923879 -0.382684 0
    outer loop
      vertex 5.69706 2.30294 17.8
      vertex 6.4 4 16
      vertex 6.4 4 17.8
    endloop
  endfacet
  facet normal 0.923879 -0.382684 0
    outer loop
      vertex 6.4 4 16
      vertex 5.69706 2.30294 17.8
      vertex 5.69706 2.30294 16
    endloop
  endfacet
  facet normal -0.382684 -0.923879 0
    outer loop
      vertex 2.30294 2.30294 16
      vertex 4 1.6 17.8
      vertex 2.30294 2.30294 17.8
    endloop
  endfacet
  facet normal -0.382684 -0.923879 -0
    outer loop
      vertex 4 1.6 17.8
      vertex 2.30294 2.30294 16
      vertex 4 1.6 16
    endloop
  endfacet
  facet normal 0 0 1
    outer loop
      vertex 5.69706 5.69706 17.8
      vertex 5.69706 2.30294 17.8
      vertex 6.4 4 17.8
    endloop
  endfacet
  facet normal 0 0 1
    outer loop
      vertex 4 6.4 17.8
      vertex 5.69706 2.30294 17.8
      vertex 5.69706 5.69706 17.8
    endloop
  endfacet
  facet normal 0 0 1
    outer loop
      vertex 4 6.4 17.8
      vertex 4 1.6 17.8
      vertex 5.69706 2.30294 17.8
    endloop
  endfacet
  facet normal -0 0 1
    outer loop
      vertex 2.30294 5.69706 17.8
      vertex 4 1.6 17.8
      vertex 4 6.4 17.8
    endloop
  endfacet
  facet normal 0 0 1
    outer loop
      vertex 2.30294 5.69706 17.8
      vertex 2.30294 2.30294 17.8
      vertex 4 1.6 17.8
    endloop
  endfacet
  facet normal 0 -0 1
    outer loop
      vertex 2.30294 2.30294 17.8
      vertex 2.30294 5.69706 17.8
      vertex 1.6 4 17.8
    endloop
  endfacet
  facet normal 0.923879 0.382684 0
    outer loop
      vertex 14.4 4 17.8
      vertex 13.6971 5.69706 16
      vertex 13.6971 5.69706 17.8
    endloop
  endfacet
  facet normal 0.923879 0.382684 0
    outer loop
      vertex 13.6971 5.69706 16
      vertex 14.4 4 17.8
      vertex 14.4 4 16
    endloop
  endfacet
  facet normal -0.923879 0.382684 0
    outer loop
      vertex 9.6 4 16
      vertex 10.3029 5.69706 17.8
      vertex 10.3029 5.69706 16
    endloop
  endfacet
  facet normal -0.923879 0.382684 0
    outer loop
      vertex 10.3029 5.69706 17.8
      vertex 9.6 4 16
      vertex 9.6 4 17.8
    endloop
  endfacet
  facet normal 0.382684 0.923879 -0
    outer loop
      vertex 13.6971 5.69706 16
      vertex 12 6.4 17.8
      vertex 13.6971 5.69706 17.8
    endloop
  endfacet
  facet normal 0.382684 0.923879 0
    outer loop
      vertex 12 6.4 17.8
      vertex 13.6971 5.69706 16
      vertex 12 6.4 16
    endloop
  endfacet
  facet normal -0.382683 0.92388 0
    outer loop
      vertex 12 6.4 16
      vertex 10.3029 5.69706 17.8
      vertex 12 6.4 17.8
    endloop
  endfacet
  facet normal -0.382683 0.92388 0
    outer loop
      vertex 10.3029 5.69706 17.8
      vertex 12 6.4 16
      vertex 10.3029 5.69706 16
    endloop
  endfacet
  facet normal 0.382684 -0.923879 0
    outer loop
      vertex 12 1.6 16
      vertex 13.6971 2.30294 17.8
      vertex 12 1.6 17.8
    endloop
  endfacet
  facet normal 0.382684 -0.923879 0
    outer loop
      vertex 13.6971 2.30294 17.8
      vertex 12 1.6 16
      vertex 13.6971 2.30294 16
    endloop
  endfacet
  facet normal -0.923879 -0.382684 0
    outer loop
      vertex 10.3029 2.30294 16
      vertex 9.6 4 17.8
      vertex 9.6 4 16
    endloop
  endfacet
  facet normal -0.923879 -0.382684 0
    outer loop
      vertex 9.6 4 17.8
      vertex 10.3029 2.30294 16
      vertex 10.3029 2.30294 17.8
    endloop
  endfacet
  facet normal 0.923879 -0.382684 0
    outer loop
      vertex 13.6971 2.30294 17.8
      vertex 14.4 4 16
      vertex 14.4 4 17.8
    endloop
  endfacet
  facet normal 0.923879 -0.382684 0
    outer loop
      vertex 14.4 4 16
      vertex 13.6971 2.30294 17.8
      vertex 13.6971 2.30294 16
    endloop
  endfacet
  facet normal -0.382683 -0.92388 0
    outer loop
      vertex 10.3029 2.30294 16
      vertex 12 1.6 17.8
      vertex 10.3029 2.30294 17.8
    endloop
  endfacet
  facet normal -0.382683 -0.92388 -0
    outer loop
      vertex 12 1.6 17.8
      vertex 10.3029 2.30294 16
      vertex 12 1.6 16
    endloop
  endfacet
  facet normal 0 0 1
    outer loop
      vertex 13.6971 5.69706 17.8
      vertex 13.6971 2.30294 17.8
      vertex 14.4 4 17.8
    endloop
  endfacet
  facet normal 0 0 1
    outer loop
      vertex 12 6.4 17.8
      vertex 13.6971 2.30294 17.8
      vertex 13.6971 5.69706 17.8
    endloop
  endfacet
  facet normal 0 0 1
    outer loop
      vertex 12 6.4 17.8
      vertex 12 1.6 17.8
      vertex 13.6971 2.30294 17.8
    endloop
  endfacet
  facet normal -0 0 1
    outer loop
      vertex 10.3029 5.69706 17.8
      vertex 12 1.6 17.8
      vertex 12 6.4 17.8
    endloop
  endfacet
  facet normal 0 0 1
    outer loop
      vertex 10.3029 5.69706 17.8
      vertex 10.3029 2.30294 17.8
      vertex 12 1.6 17.8
    endloop
  endfacet
  facet normal 0 -0 1
    outer loop
      vertex 10.3029 2.30294 17.8
      vertex 10.3029 5.69706 17.8
      vertex 9.6 4 17.8
    endloop
  endfacet
  facet normal 0.923879 0.382684 0
    outer loop
      vertex 22.4 4 17.8
      vertex 21.6971 5.69706 16
      vertex 21.6971 5.69706 17.8
    endloop
  endfacet
  facet normal 0.923879 0.382684 0
    outer loop
      vertex 21.6971 5.69706 16
      vertex 22.4 4 17.8
      vertex 22.4 4 16
    endloop
  endfacet
  facet normal -0.923879 0.382684 0
    outer loop
      vertex 17.6 4 16
      vertex 18.3029 5.69706 17.8
      vertex 18.3029 5.69706 16
    endloop
  endfacet
  facet normal -0.923879 0.382684 0
    outer loop
      vertex 18.3029 5.69706 17.8
      vertex 17.6 4 16
      vertex 17.6 4 17.8
    endloop
  endfacet
  facet normal 0.382684 0.923879 -0
    outer loop
      vertex 21.6971 5.69706 16
      vertex 20 6.4 17.8
      vertex 21.6971 5.69706 17.8
    endloop
  endfacet
  facet normal 0.382684 0.923879 0
    outer loop
      vertex 20 6.4 17.8
      vertex 21.6971 5.69706 16
      vertex 20 6.4 16
    endloop
  endfacet
  facet normal 0 0 1
    outer loop
      vertex 21.6971 5.69706 17.8
      vertex 21.6971 2.30294 17.8
      vertex 22.4 4 17.8
    endloop
  endfacet
  facet normal 0 0 1
    outer loop
      vertex 20 6.4 17.8
      vertex 21.6971 2.30294 17.8
      vertex 21.6971 5.69706 17.8
    endloop
  endfacet
  facet normal 0 0 1
    outer loop
      vertex 20 6.4 17.8
      vertex 20 1.6 17.8
      vertex 21.6971 2.30294 17.8
    endloop
  endfacet
  facet normal -0 0 1
    outer loop
      vertex 18.3029 5.69706 17.8
      vertex 20 1.6 17.8
      vertex 20 6.4 17.8
    endloop
  endfacet
  facet normal 0 0 1
    outer loop
      vertex 18.3029 5.69706 17.8
      vertex 18.3029 2.30294 17.8
      vertex 20 1.6 17.8
    endloop
  endfacet
  facet normal 0 -0 1
    outer loop
      vertex 18.3029 2.30294 17.8
      vertex 18.3029 5.69706 17.8
      vertex 17.6 4 17.8
    endloop
  endfacet
  facet normal -0.382684 0.923879 0
    outer loop
      vertex 20 6.4 16
      vertex 18.3029 5.69706 17.8
      vertex 20 6.4 17.8
    endloop
  endfacet
  facet normal -0.382684 0.923879 0
    outer loop
      vertex 18.3029 5.69706 17.8
      vertex 20 6.4 16
      vertex 18.3029 5.69706 16
    endloop
  endfacet
  facet normal 0.382684 -0.923879 0
    outer loop
      vertex 20 1.6 16
      vertex 21.6971 2.30294 17.8
      vertex 20 1.6 17.8
    endloop
  endfacet
  facet normal 0.382684 -0.923879 0
    outer loop
      vertex 21.6971 2.30294 17.8
      vertex 20 1.6 16
      vertex 21.6971 2.30294 16
    endloop
  endfacet
  facet normal -0.923879 -0.382684 0
    outer loop
      vertex 18.3029 2.30294 16
      vertex 17.6 4 17.8
      vertex 17.6 4 16
    endloop
  endfacet
  facet normal -0.923879 -0.382684 0
    outer loop
      vertex 17.6 4 17.8
      vertex 18.3029 2.30294 16
      vertex 18.3029 2.30294 17.8
    endloop
  endfacet
  facet normal 0.923879 -0.382684 0
    outer loop
      vertex 21.6971 2.30294 17.8
      vertex 22.4 4 16
      vertex 22.4 4 17.8
    endloop
  endfacet
  facet normal 0.923879 -0.382684 0
    outer loop
      vertex 22.4 4 16
      vertex 21.6971 2.30294 17.8
      vertex 21.6971 2.30294 16
    endloop
  endfacet
  facet normal -0.382684 -0.923879 0
    outer loop
      vertex 18.3029 2.30294 16
      vertex 20 1.6 17.8
      vertex 18.3029 2.30294 17.8
    endloop
  endfacet
  facet normal -0.382684 -0.923879 -0
    outer loop
      vertex 20 1.6 17.8
      vertex 18.3029 2.30294 16
      vertex 20 1.6 16
    endloop
  endfacet
  facet normal 0.923879 0.382684 0
    outer loop
      vertex 30.4 4 17.8
      vertex 29.6971 5.69706 16
      vertex 29.6971 5.69706 17.8
    endloop
  endfacet
  facet normal 0.923879 0.382684 0
    outer loop
      vertex 29.6971 5.69706 16
      vertex 30.4 4 17.8
      vertex 30.4 4 16
    endloop
  endfacet
  facet normal -0.923879 0.382684 0
    outer loop
      vertex 25.6 4 16
      vertex 26.3029 5.69706 17.8
      vertex 26.3029 5.69706 16
    endloop
  endfacet
  facet normal -0.923879 0.382684 0
    outer loop
      vertex 26.3029 5.69706 17.8
      vertex 25.6 4 16
      vertex 25.6 4 17.8
    endloop
  endfacet
  facet normal 0.382684 0.923879 -0
    outer loop
      vertex 29.6971 5.69706 16
      vertex 28 6.4 17.8
      vertex 29.6971 5.69706 17.8
    endloop
  endfacet
  facet normal 0.382684 0.923879 0
    outer loop
      vertex 28 6.4 17.8
      vertex 29.6971 5.69706 16
      vertex 28 6.4 16
    endloop
  endfacet
  facet normal 0 0 1
    outer loop
      vertex 29.6971 5.69706 17.8
      vertex 29.6971 2.30294 17.8
      vertex 30.4 4 17.8
    endloop
  endfacet
  facet normal 0 0 1
    outer loop
      vertex 28 6.4 17.8
      vertex 29.6971 2.30294 17.8
      vertex 29.6971 5.69706 17.8
    endloop
  endfacet
  facet normal 0 0 1
    outer loop
      vertex 28 6.4 17.8
      vertex 28 1.6 17.8
      vertex 29.6971 2.30294 17.8
    endloop
  endfacet
  facet normal -0 0 1
    outer loop
      vertex 26.3029 5.69706 17.8
      vertex 28 1.6 17.8
      vertex 28 6.4 17.8
    endloop
  endfacet
  facet normal 0 0 1
    outer loop
      vertex 26.3029 5.69706 17.8
      vertex 26.3029 2.30294 17.8
      vertex 28 1.6 17.8
    endloop
  endfacet
  facet normal 0 -0 1
    outer loop
      vertex 26.3029 2.30294 17.8
      vertex 26.3029 5.69706 17.8
      vertex 25.6 4 17.8
    endloop
  endfacet
  facet normal -0.382684 0.923879 0
    outer loop
      vertex 28 6.4 16
      vertex 26.3029 5.69706 17.8
      vertex 28 6.4 17.8
    endloop
  endfacet
  facet normal -0.382684 0.923879 0
    outer loop
      vertex 26.3029 5.69706 17.8
      vertex 28 6.4 16
      vertex 26.3029 5.69706 16
    endloop
  endfacet
  facet normal 0.382684 -0.923879 0
    outer loop
      vertex 28 1.6 16
      vertex 29.6971 2.30294 17.8
      vertex 28 1.6 17.8
    endloop
  endfacet
  facet normal 0.382684 -0.923879 0
    outer loop
      vertex 29.6971 2.30294 17.8
      vertex 28 1.6 16
      vertex 29.6971 2.30294 16
    endloop
  endfacet
  facet normal -0.923879 -0.382684 0
    outer loop
      vertex 26.3029 2.30294 16
      vertex 25.6 4 17.8
      vertex 25.6 4 16
    endloop
  endfacet
  facet normal -0.923879 -0.382684 0
    outer loop
      vertex 25.6 4 17.8
      vertex 26.3029 2.30294 16
      vertex 26.3029 2.30294 17.8
    endloop
  endfacet
  facet normal -0.382684 -0.923879 0
    outer loop
      vertex 26.3029 2.30294 16
      vertex 28 1.6 17.8
      vertex 26.3029 2.30294 17.8
    endloop
  endfacet
  facet normal -0.382684 -0.923879 -0
    outer loop
      vertex 28 1.6 17.8
      vertex 26.3029 2.30294 16
      vertex 28 1.6 16
    endloop
  endfacet
  facet normal 0.923879 -0.382684 0
    outer loop
      vertex 29.6971 2.30294 17.8
      vertex 30.4 4 16
      vertex 30.4 4 17.8
    endloop
  endfacet
  facet normal 0.923879 -0.382684 0
    outer loop
      vertex 30.4 4 16
      vertex 29.6971 2.30294 17.8
      vertex 29.6971 2.30294 16
    endloop
  endfacet
endsolid OpenSCAD_Model
