solid OpenSCAD_Model
  facet normal -1 0 0
    outer loop
      vertex 0 10 0
      vertex 0 20 15
      vertex 0 20 0
    endloop
  endfacet
  facet normal -1 -0 0
    outer loop
      vertex 0 20 15
      vertex 0 10 0
      vertex 0 10 15
    endloop
  endfacet
  facet normal -0 0 1
    outer loop
      vertex 0 20 15
      vertex 15 10 15
      vertex 15 20 15
    endloop
  endfacet
  facet normal 0 0 1
    outer loop
      vertex 15 10 15
      vertex 0 20 15
      vertex 0 10 15
    endloop
  endfacet
  facet normal 1 -0 0
    outer loop
      vertex 15 10 15
      vertex 15 20 0
      vertex 15 20 15
    endloop
  endfacet
  facet normal 1 0 0
    outer loop
      vertex 15 20 0
      vertex 15 10 15
      vertex 15 10 0
    endloop
  endfacet
  facet normal 0 1 -0
    outer loop
      vertex 15 20 0
      vertex 0 20 15
      vertex 15 20 15
    endloop
  endfacet
  facet normal 0 1 0
    outer loop
      vertex 0 20 15
      vertex 15 20 0
      vertex 0 20 0
    endloop
  endfacet
  facet normal 0 0 -1
    outer loop
      vertex 0 10 0
      vertex 15 20 0
      vertex 15 10 0
    endloop
  endfacet
  facet normal -0 0 -1
    outer loop
      vertex 15 20 0
      vertex 0 10 0
      vertex 0 20 0
    endloop
  endfacet
  facet normal 0 -1 0
    outer loop
      vertex 0 10 15
      vertex 2.5 10 12.5
      vertex 15 10 15
    endloop
  endfacet
  facet normal 0 -1 0
    outer loop
      vertex 0 10 15
      vertex 2.5 10 2.5
      vertex 2.5 10 12.5
    endloop
  endfacet
  facet normal 0 -1 -0
    outer loop
      vertex 2.5 10 2.5
      vertex 0 10 0
      vertex 12.5 10 2.5
    endloop
  endfacet
  facet normal 0 -1 0
    outer loop
      vertex 0 10 0
      vertex 2.5 10 2.5
      vertex 0 10 15
    endloop
  endfacet
  facet normal 0 -1 0
    outer loop
      vertex 12.5 10 12.5
      vertex 15 10 15
      vertex 2.5 10 12.5
    endloop
  endfacet
  facet normal 0 -1 0
    outer loop
      vertex 12.5 10 2.5
      vertex 15 10 15
      vertex 12.5 10 12.5
    endloop
  endfacet
  facet normal 0 -1 0
    outer loop
      vertex 12.5 10 2.5
      vertex 15 10 0
      vertex 15 10 15
    endloop
  endfacet
  facet normal 0 -1 0
    outer loop
      vertex 15 10 0
      vertex 12.5 10 2.5
      vertex 0 10 0
    endloop
  endfacet
  facet normal -1 0 0
    outer loop
      vertex 2.5 0 2.5
      vertex 2.5 10 12.5
      vertex 2.5 10 2.5
    endloop
  endfacet
  facet normal -1 -0 0
    outer loop
      vertex 2.5 10 12.5
      vertex 2.5 0 2.5
      vertex 2.5 0 12.5
    endloop
  endfacet
  facet normal -0 0 1
    outer loop
      vertex 2.5 10 12.5
      vertex 12.5 0 12.5
      vertex 12.5 10 12.5
    endloop
  endfacet
  facet normal 0 0 1
    outer loop
      vertex 12.5 0 12.5
      vertex 2.5 10 12.5
      vertex 2.5 0 12.5
    endloop
  endfacet
  facet normal 1 -0 0
    outer loop
      vertex 12.5 0 12.5
      vertex 12.5 10 2.5
      vertex 12.5 10 12.5
    endloop
  endfacet
  facet normal 1 0 0
    outer loop
      vertex 12.5 10 2.5
      vertex 12.5 0 12.5
      vertex 12.5 0 2.5
    endloop
  endfacet
  facet normal 0 0 -1
    outer loop
      vertex 2.5 0 2.5
      vertex 12.5 10 2.5
      vertex 12.5 0 2.5
    endloop
  endfacet
  facet normal -0 0 -1
    outer loop
      vertex 12.5 10 2.5
      vertex 2.5 0 2.5
      vertex 2.5 10 2.5
    endloop
  endfacet
  facet normal 0 1 0
    outer loop
      vertex 15 0 15
      vertex 12.5 0 12.5
      vertex 0 0 15
    endloop
  endfacet
  facet normal 0 1 0
    outer loop
      vertex 15 0 15
      vertex 12.5 0 2.5
      vertex 12.5 0 12.5
    endloop
  endfacet
  facet normal 0 1 0
    outer loop
      vertex 12.5 0 2.5
      vertex 15 0 0
      vertex 2.5 0 2.5
    endloop
  endfacet
  facet normal 0 1 -0
    outer loop
      vertex 15 0 0
      vertex 12.5 0 2.5
      vertex 15 0 15
    endloop
  endfacet
  facet normal 0 1 -0
    outer loop
      vertex 2.5 0 12.5
      vertex 0 0 15
      vertex 12.5 0 12.5
    endloop
  endfacet
  facet normal 0 1 -0
    outer loop
      vertex 2.5 0 2.5
      vertex 0 0 15
      vertex 2.5 0 12.5
    endloop
  endfacet
  facet normal 0 1 0
    outer loop
      vertex 2.5 0 2.5
      vertex 0 0 0
      vertex 0 0 15
    endloop
  endfacet
  facet normal 0 1 0
    outer loop
      vertex 0 0 0
      vertex 2.5 0 2.5
      vertex 15 0 0
    endloop
  endfacet
  facet normal 0.959493 -0 0.281733
    outer loop
      vertex 2.73407 -9 1.75708
      vertex 3.25 -5 0
      vertex 2.73407 -5 1.75708
    endloop
  endfacet
  facet normal 0.959493 6.25573e-017 0.281733
    outer loop
      vertex 3.25 -5 0
      vertex 2.73407 -9 1.75708
      vertex 3.25 -9 8.88178e-016
    endloop
  endfacet
  facet normal 0.142315 0 0.989821
    outer loop
      vertex 0 -5 3.15042
      vertex 1.3501 -9 2.9563
      vertex 1.3501 -5 2.9563
    endloop
  endfacet
  facet normal 0.142315 0 0.989821
    outer loop
      vertex 1.3501 -9 2.9563
      vertex 0 -5 3.15042
      vertex 0 -9 3.15042
    endloop
  endfacet
  facet normal 0.654861 0 0.755749
    outer loop
      vertex 1.3501 -5 2.9563
      vertex 2.73407 -9 1.75708
      vertex 2.73407 -5 1.75708
    endloop
  endfacet
  facet normal 0.654861 0 0.755749
    outer loop
      vertex 2.73407 -9 1.75708
      vertex 1.3501 -5 2.9563
      vertex 1.3501 -9 2.9563
    endloop
  endfacet
  facet normal 0 -1 0
    outer loop
      vertex 0 -9 2.4
      vertex 1.3501 -9 2.9563
      vertex 0 -9 3.15042
    endloop
  endfacet
  facet normal 0 -1 0
    outer loop
      vertex 1.69706 -9 1.69706
      vertex 1.3501 -9 2.9563
      vertex 0 -9 2.4
    endloop
  endfacet
  facet normal 0 -1 0
    outer loop
      vertex 1.3501 -9 2.9563
      vertex 1.69706 -9 1.69706
      vertex 2.73407 -9 1.75708
    endloop
  endfacet
  facet normal 0 -1 0
    outer loop
      vertex 2.4 -9 8.88178e-016
      vertex 2.73407 -9 1.75708
      vertex 1.69706 -9 1.69706
    endloop
  endfacet
  facet normal 0 -1 -0
    outer loop
      vertex 2.73407 -9 1.75708
      vertex 2.4 -9 8.88178e-016
      vertex 3.25 -9 8.88178e-016
    endloop
  endfacet
  facet normal 1 0 0
    outer loop
      vertex 3.25 -9 8.88178e-016
      vertex 3.25 -9 0
      vertex 3.25 -5 0
    endloop
  endfacet
  facet normal -0.923879 -8.49728e-017 -0.382684
    outer loop
      vertex 2.4 -9 8.88178e-016
      vertex 1.69706 -5 1.69706
      vertex 2.4 -5 0
    endloop
  endfacet
  facet normal -0.923879 -0 -0.382684
    outer loop
      vertex 1.69706 -5 1.69706
      vertex 2.4 -9 8.88178e-016
      vertex 1.69706 -9 1.69706
    endloop
  endfacet
  facet normal -0.382684 0 -0.923879
    outer loop
      vertex 0 -9 2.4
      vertex 1.69706 -5 1.69706
      vertex 1.69706 -9 1.69706
    endloop
  endfacet
  facet normal -0.382684 0 -0.923879
    outer loop
      vertex 1.69706 -5 1.69706
      vertex 0 -9 2.4
      vertex 0 -5 2.4
    endloop
  endfacet
  facet normal -1 0 0
    outer loop
      vertex 2.4 -9 8.88178e-016
      vertex 2.4 -5 0
      vertex 2.4 -9 0
    endloop
  endfacet
  facet normal 0.959493 -0 0.281733
    outer loop
      vertex 2.73407 -9 9.75708
      vertex 3.25 -5 8
      vertex 2.73407 -5 9.75708
    endloop
  endfacet
  facet normal 0.959493 0 0.281733
    outer loop
      vertex 3.25 -5 8
      vertex 2.73407 -9 9.75708
      vertex 3.25 -9 8
    endloop
  endfacet
  facet normal 0.142315 0 0.989821
    outer loop
      vertex 0 -5 11.1504
      vertex 1.3501 -9 10.9563
      vertex 1.3501 -5 10.9563
    endloop
  endfacet
  facet normal 0.142315 0 0.989821
    outer loop
      vertex 1.3501 -9 10.9563
      vertex 0 -5 11.1504
      vertex 0 -9 11.1504
    endloop
  endfacet
  facet normal 0.654861 0 0.755749
    outer loop
      vertex 1.3501 -5 10.9563
      vertex 2.73407 -9 9.75708
      vertex 2.73407 -5 9.75708
    endloop
  endfacet
  facet normal 0.654861 0 0.755749
    outer loop
      vertex 2.73407 -9 9.75708
      vertex 1.3501 -5 10.9563
      vertex 1.3501 -9 10.9563
    endloop
  endfacet
  facet normal 0 -1 0
    outer loop
      vertex 0 -9 10.4
      vertex 1.3501 -9 10.9563
      vertex 0 -9 11.1504
    endloop
  endfacet
  facet normal 0 -1 0
    outer loop
      vertex 1.69706 -9 9.69706
      vertex 1.3501 -9 10.9563
      vertex 0 -9 10.4
    endloop
  endfacet
  facet normal 0 -1 0
    outer loop
      vertex 1.3501 -9 10.9563
      vertex 1.69706 -9 9.69706
      vertex 2.73407 -9 9.75708
    endloop
  endfacet
  facet normal 0 -1 0
    outer loop
      vertex 2.4 -9 8
      vertex 2.73407 -9 9.75708
      vertex 1.69706 -9 9.69706
    endloop
  endfacet
  facet normal 0 -1 0
    outer loop
      vertex 2.4 -9 8
      vertex 3.25 -9 8
      vertex 2.73407 -9 9.75708
    endloop
  endfacet
  facet normal 0 -1 0
    outer loop
      vertex 2.73407 -9 6.24292
      vertex 2.4 -9 8
      vertex 1.69706 -9 6.30294
    endloop
  endfacet
  facet normal 0 -1 0
    outer loop
      vertex 2.4 -9 8
      vertex 2.73407 -9 6.24292
      vertex 3.25 -9 8
    endloop
  endfacet
  facet normal 0 -1 0
    outer loop
      vertex 1.3501 -9 5.0437
      vertex 1.69706 -9 6.30294
      vertex 0 -9 5.6
    endloop
  endfacet
  facet normal 0 -1 -0
    outer loop
      vertex 1.69706 -9 6.30294
      vertex 1.3501 -9 5.0437
      vertex 2.73407 -9 6.24292
    endloop
  endfacet
  facet normal -0 -1 0
    outer loop
      vertex 1.3501 -9 5.0437
      vertex 0 -9 5.6
      vertex 0 -9 4.84958
    endloop
  endfacet
  facet normal 0.142315 0 -0.989821
    outer loop
      vertex 0 -9 4.84958
      vertex 1.3501 -5 5.0437
      vertex 1.3501 -9 5.0437
    endloop
  endfacet
  facet normal 0.142315 0 -0.989821
    outer loop
      vertex 1.3501 -5 5.0437
      vertex 0 -9 4.84958
      vertex 0 -5 4.84958
    endloop
  endfacet
  facet normal 0.654861 0 -0.755749
    outer loop
      vertex 1.3501 -9 5.0437
      vertex 2.73407 -5 6.24292
      vertex 2.73407 -9 6.24292
    endloop
  endfacet
  facet normal 0.654861 0 -0.755749
    outer loop
      vertex 2.73407 -5 6.24292
      vertex 1.3501 -9 5.0437
      vertex 1.3501 -5 5.0437
    endloop
  endfacet
  facet normal 0.959493 0 -0.281733
    outer loop
      vertex 3.25 -9 8
      vertex 2.73407 -5 6.24292
      vertex 3.25 -5 8
    endloop
  endfacet
  facet normal 0.959493 0 -0.281733
    outer loop
      vertex 2.73407 -5 6.24292
      vertex 3.25 -9 8
      vertex 2.73407 -9 6.24292
    endloop
  endfacet
  facet normal -0.923879 0 -0.382684
    outer loop
      vertex 2.4 -9 8
      vertex 1.69706 -5 9.69706
      vertex 2.4 -5 8
    endloop
  endfacet
  facet normal -0.923879 -0 -0.382684
    outer loop
      vertex 1.69706 -5 9.69706
      vertex 2.4 -9 8
      vertex 1.69706 -9 9.69706
    endloop
  endfacet
  facet normal -0.382684 0 -0.923879
    outer loop
      vertex 0 -9 10.4
      vertex 1.69706 -5 9.69706
      vertex 1.69706 -9 9.69706
    endloop
  endfacet
  facet normal -0.382684 0 -0.923879
    outer loop
      vertex 1.69706 -5 9.69706
      vertex 0 -9 10.4
      vertex 0 -5 10.4
    endloop
  endfacet
  facet normal -0.382684 0 0.923879
    outer loop
      vertex 0 -5 5.6
      vertex 1.69706 -9 6.30294
      vertex 1.69706 -5 6.30294
    endloop
  endfacet
  facet normal -0.382684 0 0.923879
    outer loop
      vertex 1.69706 -9 6.30294
      vertex 0 -5 5.6
      vertex 0 -9 5.6
    endloop
  endfacet
  facet normal -0.923879 0 0.382684
    outer loop
      vertex 1.69706 -9 6.30294
      vertex 2.4 -5 8
      vertex 1.69706 -5 6.30294
    endloop
  endfacet
  facet normal -0.923879 0 0.382684
    outer loop
      vertex 2.4 -5 8
      vertex 1.69706 -9 6.30294
      vertex 2.4 -9 8
    endloop
  endfacet
  facet normal 0.959493 -0 0.281733
    outer loop
      vertex 10.7341 -9 1.75708
      vertex 11.25 -5 0
      vertex 10.7341 -5 1.75708
    endloop
  endfacet
  facet normal 0.959493 6.25573e-017 0.281733
    outer loop
      vertex 11.25 -5 0
      vertex 10.7341 -9 1.75708
      vertex 11.25 -9 8.88178e-016
    endloop
  endfacet
  facet normal -1 0 0
    outer loop
      vertex 4.88165 -9 8.88178e-016
      vertex 4.88165 -5 0
      vertex 4.88165 -9 0
    endloop
  endfacet
  facet normal -1 0 0
    outer loop
      vertex 4.88165 -5 0
      vertex 4.88165 -9 8.88178e-016
      vertex 4.88165 -5 0.91563
    endloop
  endfacet
  facet normal -1 -0 0
    outer loop
      vertex 4.88165 -5 0.91563
      vertex 4.88165 -9 8.88178e-016
      vertex 4.88165 -9 0.91563
    endloop
  endfacet
  facet normal 0.142315 0 0.989821
    outer loop
      vertex 7.53748 -5 3.21692
      vertex 9.3501 -9 2.9563
      vertex 9.3501 -5 2.9563
    endloop
  endfacet
  facet normal 0.142315 0 0.989821
    outer loop
      vertex 9.3501 -9 2.9563
      vertex 7.53748 -5 3.21692
      vertex 7.53748 -9 3.21692
    endloop
  endfacet
  facet normal 0.654861 0 0.755749
    outer loop
      vertex 9.3501 -5 2.9563
      vertex 10.7341 -9 1.75708
      vertex 10.7341 -5 1.75708
    endloop
  endfacet
  facet normal 0.654861 0 0.755749
    outer loop
      vertex 10.7341 -9 1.75708
      vertex 9.3501 -5 2.9563
      vertex 9.3501 -9 2.9563
    endloop
  endfacet
  facet normal 0 -1 -0
    outer loop
      vertex 7.53748 -9 3.21692
      vertex 6.30294 -9 1.69706
      vertex 8 -9 2.4
    endloop
  endfacet
  facet normal 0 -1 0
    outer loop
      vertex 4.88165 -9 0.91563
      vertex 6.30294 -9 1.69706
      vertex 5.8717 -9 2.45619
    endloop
  endfacet
  facet normal 0 -1 0
    outer loop
      vertex 5.6 -9 8.88178e-016
      vertex 4.88165 -9 0.91563
      vertex 4.88165 -9 8.88178e-016
    endloop
  endfacet
  facet normal 0 -1 0
    outer loop
      vertex 4.88165 -9 0.91563
      vertex 5.6 -9 8.88178e-016
      vertex 6.30294 -9 1.69706
    endloop
  endfacet
  facet normal 0 -1 0
    outer loop
      vertex 6.30294 -9 1.69706
      vertex 7.53748 -9 3.21692
      vertex 5.8717 -9 2.45619
    endloop
  endfacet
  facet normal 0 -1 0
    outer loop
      vertex 7.53748 -9 3.21692
      vertex 8 -9 2.4
      vertex 9.3501 -9 2.9563
    endloop
  endfacet
  facet normal 0 -1 0
    outer loop
      vertex 9.69706 -9 1.69706
      vertex 9.3501 -9 2.9563
      vertex 8 -9 2.4
    endloop
  endfacet
  facet normal 0 -1 0
    outer loop
      vertex 9.3501 -9 2.9563
      vertex 9.69706 -9 1.69706
      vertex 10.7341 -9 1.75708
    endloop
  endfacet
  facet normal 0 -1 0
    outer loop
      vertex 10.4 -9 8.88178e-016
      vertex 10.7341 -9 1.75708
      vertex 9.69706 -9 1.69706
    endloop
  endfacet
  facet normal 0 -1 -0
    outer loop
      vertex 10.7341 -9 1.75708
      vertex 10.4 -9 8.88178e-016
      vertex 11.25 -9 8.88178e-016
    endloop
  endfacet
  facet normal -0.841253 0 0.540641
    outer loop
      vertex 4.88165 -9 0.91563
      vertex 5.8717 -5 2.45619
      vertex 4.88165 -5 0.91563
    endloop
  endfacet
  facet normal -0.841253 0 0.540641
    outer loop
      vertex 5.8717 -5 2.45619
      vertex 4.88165 -9 0.91563
      vertex 5.8717 -9 2.45619
    endloop
  endfacet
  facet normal -0.415415 0 0.909632
    outer loop
      vertex 5.8717 -5 2.45619
      vertex 7.53748 -9 3.21692
      vertex 7.53748 -5 3.21692
    endloop
  endfacet
  facet normal -0.415415 0 0.909632
    outer loop
      vertex 7.53748 -9 3.21692
      vertex 5.8717 -5 2.45619
      vertex 5.8717 -9 2.45619
    endloop
  endfacet
  facet normal 1 0 0
    outer loop
      vertex 11.25 -9 8.88178e-016
      vertex 11.25 -9 0
      vertex 11.25 -5 0
    endloop
  endfacet
  facet normal -0.923879 -8.49728e-017 -0.382684
    outer loop
      vertex 10.4 -9 8.88178e-016
      vertex 9.69706 -5 1.69706
      vertex 10.4 -5 0
    endloop
  endfacet
  facet normal -0.923879 -0 -0.382684
    outer loop
      vertex 9.69706 -5 1.69706
      vertex 10.4 -9 8.88178e-016
      vertex 9.69706 -9 1.69706
    endloop
  endfacet
  facet normal 0.923879 0 -0.382684
    outer loop
      vertex 6.30294 -9 1.69706
      vertex 5.6 -5 0
      vertex 6.30294 -5 1.69706
    endloop
  endfacet
  facet normal 0.923879 -8.49728e-017 -0.382684
    outer loop
      vertex 5.6 -5 0
      vertex 6.30294 -9 1.69706
      vertex 5.6 -9 8.88178e-016
    endloop
  endfacet
  facet normal -0.382684 0 -0.923879
    outer loop
      vertex 8 -9 2.4
      vertex 9.69706 -5 1.69706
      vertex 9.69706 -9 1.69706
    endloop
  endfacet
  facet normal -0.382684 0 -0.923879
    outer loop
      vertex 9.69706 -5 1.69706
      vertex 8 -9 2.4
      vertex 8 -5 2.4
    endloop
  endfacet
  facet normal 0.382684 0 -0.923879
    outer loop
      vertex 6.30294 -9 1.69706
      vertex 8 -5 2.4
      vertex 8 -9 2.4
    endloop
  endfacet
  facet normal 0.382684 0 -0.923879
    outer loop
      vertex 8 -5 2.4
      vertex 6.30294 -9 1.69706
      vertex 6.30294 -5 1.69706
    endloop
  endfacet
  facet normal 1 0 0
    outer loop
      vertex 5.6 -9 0
      vertex 5.6 -5 0
      vertex 5.6 -9 8.88178e-016
    endloop
  endfacet
  facet normal -1 0 0
    outer loop
      vertex 10.4 -9 8.88178e-016
      vertex 10.4 -5 0
      vertex 10.4 -9 0
    endloop
  endfacet
  facet normal 0.959493 -0 0.281733
    outer loop
      vertex 10.7341 -9 9.75708
      vertex 11.25 -5 8
      vertex 10.7341 -5 9.75708
    endloop
  endfacet
  facet normal 0.959493 0 0.281733
    outer loop
      vertex 11.25 -5 8
      vertex 10.7341 -9 9.75708
      vertex 11.25 -9 8
    endloop
  endfacet
  facet normal -1 0 0
    outer loop
      vertex 4.88165 -9 7.08437
      vertex 4.88165 -5 8.91563
      vertex 4.88165 -5 7.08437
    endloop
  endfacet
  facet normal -1 -0 0
    outer loop
      vertex 4.88165 -5 8.91563
      vertex 4.88165 -9 7.08437
      vertex 4.88165 -9 8.91563
    endloop
  endfacet
  facet normal 0.142315 0 0.989821
    outer loop
      vertex 7.53748 -5 11.2169
      vertex 9.3501 -9 10.9563
      vertex 9.3501 -5 10.9563
    endloop
  endfacet
  facet normal 0.142315 0 0.989821
    outer loop
      vertex 9.3501 -9 10.9563
      vertex 7.53748 -5 11.2169
      vertex 7.53748 -9 11.2169
    endloop
  endfacet
  facet normal 0.654861 0 0.755749
    outer loop
      vertex 9.3501 -5 10.9563
      vertex 10.7341 -9 9.75708
      vertex 10.7341 -5 9.75708
    endloop
  endfacet
  facet normal 0.654861 0 0.755749
    outer loop
      vertex 10.7341 -9 9.75708
      vertex 9.3501 -5 10.9563
      vertex 9.3501 -9 10.9563
    endloop
  endfacet
  facet normal 0 -1 -0
    outer loop
      vertex 7.53748 -9 11.2169
      vertex 6.30294 -9 9.69706
      vertex 8 -9 10.4
    endloop
  endfacet
  facet normal 0 -1 0
    outer loop
      vertex 4.88165 -9 8.91563
      vertex 6.30294 -9 9.69706
      vertex 5.8717 -9 10.4562
    endloop
  endfacet
  facet normal 0 -1 0
    outer loop
      vertex 4.88165 -9 8.91563
      vertex 5.6 -9 8
      vertex 6.30294 -9 9.69706
    endloop
  endfacet
  facet normal 0 -1 0
    outer loop
      vertex 4.88165 -9 7.08437
      vertex 5.6 -9 8
      vertex 4.88165 -9 8.91563
    endloop
  endfacet
  facet normal 0 -1 0
    outer loop
      vertex 4.88165 -9 7.08437
      vertex 6.30294 -9 6.30294
      vertex 5.6 -9 8
    endloop
  endfacet
  facet normal 0 -1 0
    outer loop
      vertex 7.53748 -9 4.78308
      vertex 6.30294 -9 6.30294
      vertex 5.8717 -9 5.54381
    endloop
  endfacet
  facet normal 0 -1 0
    outer loop
      vertex 5.8717 -9 5.54381
      vertex 6.30294 -9 6.30294
      vertex 4.88165 -9 7.08437
    endloop
  endfacet
  facet normal 0 -1 0
    outer loop
      vertex 6.30294 -9 9.69706
      vertex 7.53748 -9 11.2169
      vertex 5.8717 -9 10.4562
    endloop
  endfacet
  facet normal 0 -1 0
    outer loop
      vertex 7.53748 -9 11.2169
      vertex 8 -9 10.4
      vertex 9.3501 -9 10.9563
    endloop
  endfacet
  facet normal 0 -1 0
    outer loop
      vertex 9.69706 -9 9.69706
      vertex 9.3501 -9 10.9563
      vertex 8 -9 10.4
    endloop
  endfacet
  facet normal 0 -1 0
    outer loop
      vertex 9.3501 -9 10.9563
      vertex 9.69706 -9 9.69706
      vertex 10.7341 -9 9.75708
    endloop
  endfacet
  facet normal 0 -1 0
    outer loop
      vertex 10.4 -9 8
      vertex 10.7341 -9 9.75708
      vertex 9.69706 -9 9.69706
    endloop
  endfacet
  facet normal 0 -1 0
    outer loop
      vertex 10.4 -9 8
      vertex 11.25 -9 8
      vertex 10.7341 -9 9.75708
    endloop
  endfacet
  facet normal 0 -1 0
    outer loop
      vertex 10.7341 -9 6.24292
      vertex 10.4 -9 8
      vertex 9.69706 -9 6.30294
    endloop
  endfacet
  facet normal 0 -1 0
    outer loop
      vertex 10.4 -9 8
      vertex 10.7341 -9 6.24292
      vertex 11.25 -9 8
    endloop
  endfacet
  facet normal 0 -1 0
    outer loop
      vertex 9.3501 -9 5.0437
      vertex 9.69706 -9 6.30294
      vertex 8 -9 5.6
    endloop
  endfacet
  facet normal 0 -1 -0
    outer loop
      vertex 9.69706 -9 6.30294
      vertex 9.3501 -9 5.0437
      vertex 10.7341 -9 6.24292
    endloop
  endfacet
  facet normal 0 -1 0
    outer loop
      vertex 6.30294 -9 6.30294
      vertex 7.53748 -9 4.78308
      vertex 8 -9 5.6
    endloop
  endfacet
  facet normal 0 -1 -0
    outer loop
      vertex 8 -9 5.6
      vertex 7.53748 -9 4.78308
      vertex 9.3501 -9 5.0437
    endloop
  endfacet
  facet normal 0.142315 0 -0.989821
    outer loop
      vertex 7.53748 -9 4.78308
      vertex 9.3501 -5 5.0437
      vertex 9.3501 -9 5.0437
    endloop
  endfacet
  facet normal 0.142315 0 -0.989821
    outer loop
      vertex 9.3501 -5 5.0437
      vertex 7.53748 -9 4.78308
      vertex 7.53748 -5 4.78308
    endloop
  endfacet
  facet normal 0.654861 0 -0.755749
    outer loop
      vertex 9.3501 -9 5.0437
      vertex 10.7341 -5 6.24292
      vertex 10.7341 -9 6.24292
    endloop
  endfacet
  facet normal 0.654861 0 -0.755749
    outer loop
      vertex 10.7341 -5 6.24292
      vertex 9.3501 -9 5.0437
      vertex 9.3501 -5 5.0437
    endloop
  endfacet
  facet normal -0.841253 0 -0.540641
    outer loop
      vertex 5.8717 -9 5.54381
      vertex 4.88165 -5 7.08437
      vertex 5.8717 -5 5.54381
    endloop
  endfacet
  facet normal -0.841253 -0 -0.540641
    outer loop
      vertex 4.88165 -5 7.08437
      vertex 5.8717 -9 5.54381
      vertex 4.88165 -9 7.08437
    endloop
  endfacet
  facet normal -0.841253 0 0.540641
    outer loop
      vertex 4.88165 -9 8.91563
      vertex 5.8717 -5 10.4562
      vertex 4.88165 -5 8.91563
    endloop
  endfacet
  facet normal -0.841253 0 0.540641
    outer loop
      vertex 5.8717 -5 10.4562
      vertex 4.88165 -9 8.91563
      vertex 5.8717 -9 10.4562
    endloop
  endfacet
  facet normal -0.415415 0 0.909632
    outer loop
      vertex 5.8717 -5 10.4562
      vertex 7.53748 -9 11.2169
      vertex 7.53748 -5 11.2169
    endloop
  endfacet
  facet normal -0.415415 0 0.909632
    outer loop
      vertex 7.53748 -9 11.2169
      vertex 5.8717 -5 10.4562
      vertex 5.8717 -9 10.4562
    endloop
  endfacet
  facet normal 0.959493 0 -0.281733
    outer loop
      vertex 11.25 -9 8
      vertex 10.7341 -5 6.24292
      vertex 11.25 -5 8
    endloop
  endfacet
  facet normal 0.959493 0 -0.281733
    outer loop
      vertex 10.7341 -5 6.24292
      vertex 11.25 -9 8
      vertex 10.7341 -9 6.24292
    endloop
  endfacet
  facet normal -0.415415 0 -0.909632
    outer loop
      vertex 5.8717 -9 5.54381
      vertex 7.53748 -5 4.78308
      vertex 7.53748 -9 4.78308
    endloop
  endfacet
  facet normal -0.415415 0 -0.909632
    outer loop
      vertex 7.53748 -5 4.78308
      vertex 5.8717 -9 5.54381
      vertex 5.8717 -5 5.54381
    endloop
  endfacet
  facet normal -0.923879 0 -0.382684
    outer loop
      vertex 10.4 -9 8
      vertex 9.69706 -5 9.69706
      vertex 10.4 -5 8
    endloop
  endfacet
  facet normal -0.923879 -0 -0.382684
    outer loop
      vertex 9.69706 -5 9.69706
      vertex 10.4 -9 8
      vertex 9.69706 -9 9.69706
    endloop
  endfacet
  facet normal 0.923879 0 -0.382684
    outer loop
      vertex 6.30294 -9 9.69706
      vertex 5.6 -5 8
      vertex 6.30294 -5 9.69706
    endloop
  endfacet
  facet normal 0.923879 0 -0.382684
    outer loop
      vertex 5.6 -5 8
      vertex 6.30294 -9 9.69706
      vertex 5.6 -9 8
    endloop
  endfacet
  facet normal -0.382684 0 -0.923879
    outer loop
      vertex 8 -9 10.4
      vertex 9.69706 -5 9.69706
      vertex 9.69706 -9 9.69706
    endloop
  endfacet
  facet normal -0.382684 0 -0.923879
    outer loop
      vertex 9.69706 -5 9.69706
      vertex 8 -9 10.4
      vertex 8 -5 10.4
    endloop
  endfacet
  facet normal 0.382684 0 -0.923879
    outer loop
      vertex 6.30294 -9 9.69706
      vertex 8 -5 10.4
      vertex 8 -9 10.4
    endloop
  endfacet
  facet normal 0.382684 0 -0.923879
    outer loop
      vertex 8 -5 10.4
      vertex 6.30294 -9 9.69706
      vertex 6.30294 -5 9.69706
    endloop
  endfacet
  facet normal -0.382684 0 0.923879
    outer loop
      vertex 8 -5 5.6
      vertex 9.69706 -9 6.30294
      vertex 9.69706 -5 6.30294
    endloop
  endfacet
  facet normal -0.382684 0 0.923879
    outer loop
      vertex 9.69706 -9 6.30294
      vertex 8 -5 5.6
      vertex 8 -9 5.6
    endloop
  endfacet
  facet normal 0.923879 -0 0.382684
    outer loop
      vertex 5.6 -9 8
      vertex 6.30294 -5 6.30294
      vertex 5.6 -5 8
    endloop
  endfacet
  facet normal 0.923879 0 0.382684
    outer loop
      vertex 6.30294 -5 6.30294
      vertex 5.6 -9 8
      vertex 6.30294 -9 6.30294
    endloop
  endfacet
  facet normal -0.923879 0 0.382684
    outer loop
      vertex 9.69706 -9 6.30294
      vertex 10.4 -5 8
      vertex 9.69706 -5 6.30294
    endloop
  endfacet
  facet normal -0.923879 0 0.382684
    outer loop
      vertex 10.4 -5 8
      vertex 9.69706 -9 6.30294
      vertex 10.4 -9 8
    endloop
  endfacet
  facet normal 0.382684 0 0.923879
    outer loop
      vertex 6.30294 -5 6.30294
      vertex 8 -9 5.6
      vertex 8 -5 5.6
    endloop
  endfacet
  facet normal 0.382684 0 0.923879
    outer loop
      vertex 8 -9 5.6
      vertex 6.30294 -5 6.30294
      vertex 6.30294 -9 6.30294
    endloop
  endfacet
  facet normal -1 0 0
    outer loop
      vertex 0 -9 10.4
      vertex 0 -5 11.1504
      vertex 0 -5 10.4
    endloop
  endfacet
  facet normal -1 -0 0
    outer loop
      vertex 0 -5 11.1504
      vertex 0 -9 10.4
      vertex 0 -9 11.1504
    endloop
  endfacet
  facet normal -1 0 0
    outer loop
      vertex 0 -9 4.84958
      vertex 0 -5 5.6
      vertex 0 -5 4.84958
    endloop
  endfacet
  facet normal -1 -0 0
    outer loop
      vertex 0 -5 5.6
      vertex 0 -9 4.84958
      vertex 0 -9 5.6
    endloop
  endfacet
  facet normal -1 0 0
    outer loop
      vertex 0 -9 2.4
      vertex 0 -5 3.15042
      vertex 0 -5 2.4
    endloop
  endfacet
  facet normal -1 -0 0
    outer loop
      vertex 0 -5 3.15042
      vertex 0 -9 2.4
      vertex 0 -9 3.15042
    endloop
  endfacet
  facet normal -1 0 0
    outer loop
      vertex 0 -5 2.4
      vertex 0 0 0
      vertex 0 -5 0
    endloop
  endfacet
  facet normal -1 0 0
    outer loop
      vertex 0 -5 3.15042
      vertex 0 0 0
      vertex 0 -5 2.4
    endloop
  endfacet
  facet normal -1 0 0
    outer loop
      vertex 0 -5 4.84958
      vertex 0 0 0
      vertex 0 -5 3.15042
    endloop
  endfacet
  facet normal -1 0 0
    outer loop
      vertex 0 -5 5.6
      vertex 0 0 0
      vertex 0 -5 4.84958
    endloop
  endfacet
  facet normal -1 0 0
    outer loop
      vertex 0 0 0
      vertex 0 -5 5.6
      vertex 0 0 15
    endloop
  endfacet
  facet normal -1 0 0
    outer loop
      vertex 0 -5 10.4
      vertex 0 0 15
      vertex 0 -5 5.6
    endloop
  endfacet
  facet normal -1 0 0
    outer loop
      vertex 0 -5 11.1504
      vertex 0 0 15
      vertex 0 -5 10.4
    endloop
  endfacet
  facet normal -1 -0 0
    outer loop
      vertex 0 0 15
      vertex 0 -5 11.1504
      vertex 0 -5 15
    endloop
  endfacet
  facet normal 0 0 -1
    outer loop
      vertex 3.25 -9 0
      vertex 2.4 -9 0
      vertex 3.25 -5 0
    endloop
  endfacet
  facet normal 0 0 -1
    outer loop
      vertex 5.6 -9 0
      vertex 4.88165 -9 0
      vertex 5.6 -5 0
    endloop
  endfacet
  facet normal 0 0 -1
    outer loop
      vertex 11.25 -9 0
      vertex 10.4 -9 0
      vertex 11.25 -5 0
    endloop
  endfacet
  facet normal 0 0 -1
    outer loop
      vertex 11.25 -5 0
      vertex 15 0 0
      vertex 15 -5 0
    endloop
  endfacet
  facet normal 0 0 -1
    outer loop
      vertex 10.4 -5 0
      vertex 11.25 -5 0
      vertex 10.4 -9 0
    endloop
  endfacet
  facet normal 0 0 -1
    outer loop
      vertex 10.4 -5 0
      vertex 15 0 0
      vertex 11.25 -5 0
    endloop
  endfacet
  facet normal 0 0 -1
    outer loop
      vertex 5.6 -5 0
      vertex 15 0 0
      vertex 10.4 -5 0
    endloop
  endfacet
  facet normal 0 0 -1
    outer loop
      vertex 4.88165 -5 0
      vertex 5.6 -5 0
      vertex 4.88165 -9 0
    endloop
  endfacet
  facet normal 0 0 -1
    outer loop
      vertex 0 0 0
      vertex 5.6 -5 0
      vertex 4.88165 -5 0
    endloop
  endfacet
  facet normal 0 0 -1
    outer loop
      vertex 0 0 0
      vertex 4.88165 -5 0
      vertex 3.25 -5 0
    endloop
  endfacet
  facet normal 0 0 -1
    outer loop
      vertex 2.4 -5 0
      vertex 3.25 -5 0
      vertex 2.4 -9 0
    endloop
  endfacet
  facet normal 0 0 -1
    outer loop
      vertex 0 0 0
      vertex 3.25 -5 0
      vertex 2.4 -5 0
    endloop
  endfacet
  facet normal 0 0 -1
    outer loop
      vertex 0 0 0
      vertex 2.4 -5 0
      vertex 0 -5 0
    endloop
  endfacet
  facet normal 0 0 -1
    outer loop
      vertex 5.6 -5 0
      vertex 0 0 0
      vertex 15 0 0
    endloop
  endfacet
  facet normal 0 -1 0
    outer loop
      vertex 10.4 -9 0
      vertex 11.25 -9 8.88178e-016
      vertex 10.4 -9 8.88178e-016
    endloop
  endfacet
  facet normal 0 -1 -0
    outer loop
      vertex 11.25 -9 8.88178e-016
      vertex 10.4 -9 0
      vertex 11.25 -9 0
    endloop
  endfacet
  facet normal 0 -1 0
    outer loop
      vertex 4.88165 -9 0
      vertex 5.6 -9 8.88178e-016
      vertex 4.88165 -9 8.88178e-016
    endloop
  endfacet
  facet normal 0 -1 -0
    outer loop
      vertex 5.6 -9 8.88178e-016
      vertex 4.88165 -9 0
      vertex 5.6 -9 0
    endloop
  endfacet
  facet normal 0 -1 0
    outer loop
      vertex 2.4 -9 0
      vertex 3.25 -9 8.88178e-016
      vertex 2.4 -9 8.88178e-016
    endloop
  endfacet
  facet normal 0 -1 -0
    outer loop
      vertex 3.25 -9 8.88178e-016
      vertex 2.4 -9 0
      vertex 3.25 -9 0
    endloop
  endfacet
  facet normal -0 0 1
    outer loop
      vertex 0 0 15
      vertex 15 -5 15
      vertex 15 0 15
    endloop
  endfacet
  facet normal 0 0 1
    outer loop
      vertex 15 -5 15
      vertex 0 0 15
      vertex 0 -5 15
    endloop
  endfacet
  facet normal 1 -0 0
    outer loop
      vertex 15 -5 15
      vertex 15 0 0
      vertex 15 0 15
    endloop
  endfacet
  facet normal 1 0 0
    outer loop
      vertex 15 0 0
      vertex 15 -5 15
      vertex 15 -5 0
    endloop
  endfacet
  facet normal 0 -1 0
    outer loop
      vertex 0 -5 15
      vertex 7.53748 -5 11.2169
      vertex 15 -5 15
    endloop
  endfacet
  facet normal 0 -1 0
    outer loop
      vertex 1.3501 -5 10.9563
      vertex 0 -5 15
      vertex 0 -5 11.1504
    endloop
  endfacet
  facet normal 0 -1 0
    outer loop
      vertex 5.8717 -5 10.4562
      vertex 0 -5 15
      vertex 1.3501 -5 10.9563
    endloop
  endfacet
  facet normal 0 -1 0
    outer loop
      vertex 0 -5 15
      vertex 5.8717 -5 10.4562
      vertex 7.53748 -5 11.2169
    endloop
  endfacet
  facet normal 0 -1 0
    outer loop
      vertex 2.73407 -5 9.75708
      vertex 5.8717 -5 10.4562
      vertex 1.3501 -5 10.9563
    endloop
  endfacet
  facet normal 0 -1 0
    outer loop
      vertex 2.73407 -5 9.75708
      vertex 4.88165 -5 8.91563
      vertex 5.8717 -5 10.4562
    endloop
  endfacet
  facet normal 0 -1 0
    outer loop
      vertex 3.25 -5 8
      vertex 4.88165 -5 8.91563
      vertex 2.73407 -5 9.75708
    endloop
  endfacet
  facet normal 0 -1 0
    outer loop
      vertex 3.25 -5 8
      vertex 4.88165 -5 7.08437
      vertex 4.88165 -5 8.91563
    endloop
  endfacet
  facet normal 0 -1 0
    outer loop
      vertex 2.73407 -5 6.24292
      vertex 4.88165 -5 7.08437
      vertex 3.25 -5 8
    endloop
  endfacet
  facet normal 0 -1 0
    outer loop
      vertex 2.73407 -5 6.24292
      vertex 5.8717 -5 5.54381
      vertex 4.88165 -5 7.08437
    endloop
  endfacet
  facet normal 0 -1 0
    outer loop
      vertex 2.73407 -5 1.75708
      vertex 2.73407 -5 6.24292
      vertex 1.3501 -5 5.0437
    endloop
  endfacet
  facet normal 0 -1 0
    outer loop
      vertex 1.3501 -5 2.9563
      vertex 1.3501 -5 5.0437
      vertex 0 -5 4.84958
    endloop
  endfacet
  facet normal 0 -1 0
    outer loop
      vertex 2.73407 -5 1.75708
      vertex 1.3501 -5 5.0437
      vertex 1.3501 -5 2.9563
    endloop
  endfacet
  facet normal 0 -1 0
    outer loop
      vertex 2.73407 -5 6.24292
      vertex 2.73407 -5 1.75708
      vertex 5.8717 -5 5.54381
    endloop
  endfacet
  facet normal 0 -1 0
    outer loop
      vertex 1.3501 -5 2.9563
      vertex 0 -5 4.84958
      vertex 0 -5 3.15042
    endloop
  endfacet
  facet normal 0 -1 0
    outer loop
      vertex 5.8717 -5 5.54381
      vertex 5.8717 -5 2.45619
      vertex 7.53748 -5 4.78308
    endloop
  endfacet
  facet normal 0 -1 -0
    outer loop
      vertex 7.53748 -5 4.78308
      vertex 5.8717 -5 2.45619
      vertex 7.53748 -5 3.21692
    endloop
  endfacet
  facet normal 0 -1 -0
    outer loop
      vertex 5.8717 -5 5.54381
      vertex 2.73407 -5 1.75708
      vertex 5.8717 -5 2.45619
    endloop
  endfacet
  facet normal 0 -1 0
    outer loop
      vertex 2.73407 -5 1.75708
      vertex 4.88165 -5 0.91563
      vertex 5.8717 -5 2.45619
    endloop
  endfacet
  facet normal 0 -1 0
    outer loop
      vertex 3.25 -5 0
      vertex 4.88165 -5 0.91563
      vertex 2.73407 -5 1.75708
    endloop
  endfacet
  facet normal 0 -1 -0
    outer loop
      vertex 4.88165 -5 0.91563
      vertex 3.25 -5 0
      vertex 4.88165 -5 0
    endloop
  endfacet
  facet normal 0 -1 0
    outer loop
      vertex 9.3501 -5 10.9563
      vertex 15 -5 15
      vertex 7.53748 -5 11.2169
    endloop
  endfacet
  facet normal 0 -1 0
    outer loop
      vertex 10.7341 -5 9.75708
      vertex 15 -5 15
      vertex 9.3501 -5 10.9563
    endloop
  endfacet
  facet normal 0 -1 0
    outer loop
      vertex 11.25 -5 8
      vertex 15 -5 15
      vertex 10.7341 -5 9.75708
    endloop
  endfacet
  facet normal 0 -1 0
    outer loop
      vertex 15 -5 0
      vertex 11.25 -5 8
      vertex 10.7341 -5 6.24292
    endloop
  endfacet
  facet normal 0 -1 0
    outer loop
      vertex 7.53748 -5 3.21692
      vertex 9.3501 -5 5.0437
      vertex 7.53748 -5 4.78308
    endloop
  endfacet
  facet normal 0 -1 0
    outer loop
      vertex 9.3501 -5 2.9563
      vertex 9.3501 -5 5.0437
      vertex 7.53748 -5 3.21692
    endloop
  endfacet
  facet normal 0 -1 0
    outer loop
      vertex 9.3501 -5 5.0437
      vertex 9.3501 -5 2.9563
      vertex 10.7341 -5 6.24292
    endloop
  endfacet
  facet normal 0 -1 0
    outer loop
      vertex 10.7341 -5 1.75708
      vertex 10.7341 -5 6.24292
      vertex 9.3501 -5 2.9563
    endloop
  endfacet
  facet normal 0 -1 0
    outer loop
      vertex 15 -5 0
      vertex 10.7341 -5 6.24292
      vertex 10.7341 -5 1.75708
    endloop
  endfacet
  facet normal 0 -1 0
    outer loop
      vertex 15 -5 0
      vertex 10.7341 -5 1.75708
      vertex 11.25 -5 0
    endloop
  endfacet
  facet normal 0 -1 0
    outer loop
      vertex 11.25 -5 8
      vertex 15 -5 0
      vertex 15 -5 15
    endloop
  endfacet
  facet normal 0 -1 0
    outer loop
      vertex 6.30294 -5 1.69706
      vertex 9.69706 -5 1.69706
      vertex 8 -5 2.4
    endloop
  endfacet
  facet normal 0 -1 0
    outer loop
      vertex 5.6 -5 0
      vertex 9.69706 -5 1.69706
      vertex 6.30294 -5 1.69706
    endloop
  endfacet
  facet normal 0 -1 -0
    outer loop
      vertex 9.69706 -5 1.69706
      vertex 5.6 -5 0
      vertex 10.4 -5 0
    endloop
  endfacet
  facet normal 0 -1 0
    outer loop
      vertex 0 -5 0
      vertex 1.69706 -5 1.69706
      vertex 0 -5 2.4
    endloop
  endfacet
  facet normal 0 -1 -0
    outer loop
      vertex 1.69706 -5 1.69706
      vertex 0 -5 0
      vertex 2.4 -5 0
    endloop
  endfacet
  facet normal 0 -1 0
    outer loop
      vertex 0 -5 10.4
      vertex 2.4 -5 8
      vertex 1.69706 -5 9.69706
    endloop
  endfacet
  facet normal 0 -1 0
    outer loop
      vertex 0 -5 10.4
      vertex 1.69706 -5 6.30294
      vertex 2.4 -5 8
    endloop
  endfacet
  facet normal -0 -1 0
    outer loop
      vertex 1.69706 -5 6.30294
      vertex 0 -5 10.4
      vertex 0 -5 5.6
    endloop
  endfacet
  facet normal 0 -1 0
    outer loop
      vertex 6.30294 -5 9.69706
      vertex 9.69706 -5 9.69706
      vertex 8 -5 10.4
    endloop
  endfacet
  facet normal 0 -1 0
    outer loop
      vertex 5.6 -5 8
      vertex 9.69706 -5 9.69706
      vertex 6.30294 -5 9.69706
    endloop
  endfacet
  facet normal 0 -1 0
    outer loop
      vertex 5.6 -5 8
      vertex 10.4 -5 8
      vertex 9.69706 -5 9.69706
    endloop
  endfacet
  facet normal 0 -1 0
    outer loop
      vertex 6.30294 -5 6.30294
      vertex 10.4 -5 8
      vertex 5.6 -5 8
    endloop
  endfacet
  facet normal 0 -1 0
    outer loop
      vertex 6.30294 -5 6.30294
      vertex 9.69706 -5 6.30294
      vertex 10.4 -5 8
    endloop
  endfacet
  facet normal -0 -1 0
    outer loop
      vertex 9.69706 -5 6.30294
      vertex 6.30294 -5 6.30294
      vertex 8 -5 5.6
    endloop
  endfacet
endsolid OpenSCAD_Model
