solid OpenSCAD_Model
  facet normal 0 0 1
    outer loop
      vertex -39.4745 5 10
      vertex -62 5 10
      vertex -40 0 10
    endloop
  endfacet
  facet normal 0 0 1
    outer loop
      vertex -62 -5 10
      vertex -40 0 10
      vertex -62 5 10
    endloop
  endfacet
  facet normal 0 0 1
    outer loop
      vertex -40 0 10
      vertex -62 -5 10
      vertex -39.4745 -5 10
    endloop
  endfacet
  facet normal 1 -0 0
    outer loop
      vertex -38 -5 0
      vertex -38 5 -8.43769e-015
      vertex -38 5 0
    endloop
  endfacet
  facet normal 1 0 0
    outer loop
      vertex -38 5 -8.43769e-015
      vertex -38 -5 0
      vertex -38 -5 -8.43769e-015
    endloop
  endfacet
  facet normal 2.22045e-016 0 -1
    outer loop
      vertex -54 -5 -1.19904e-014
      vertex -38 5 -8.43769e-015
      vertex -38 -5 -8.43769e-015
    endloop
  endfacet
  facet normal 2.22045e-016 0 -1
    outer loop
      vertex -38 5 -8.43769e-015
      vertex -54 -5 -1.19904e-014
      vertex -54 5 -1.19904e-014
    endloop
  endfacet
  facet normal 0 1 0
    outer loop
      vertex -46 5 -6
      vertex -46 5 -14
      vertex -54 5 -6
    endloop
  endfacet
  facet normal 0 1 0
    outer loop
      vertex -38 5 0
      vertex -38 5 -8.43769e-015
      vertex -39.4745 5 0
    endloop
  endfacet
  facet normal 0 1 0
    outer loop
      vertex -54 5 -1.19904e-014
      vertex -39.4745 5 10
      vertex -39.4745 5 0
    endloop
  endfacet
  facet normal 0 1 0
    outer loop
      vertex -54 5 -1.19904e-014
      vertex -39.4745 5 0
      vertex -38 5 -8.43769e-015
    endloop
  endfacet
  facet normal 0 1 0
    outer loop
      vertex -39.4745 5 10
      vertex -54 5 -1.19904e-014
      vertex -62 5 10
    endloop
  endfacet
  facet normal 0 1 0
    outer loop
      vertex -62 5 -14
      vertex -54 5 -1.19904e-014
      vertex -54 5 -6
    endloop
  endfacet
  facet normal 0 1 0
    outer loop
      vertex -54 5 -1.19904e-014
      vertex -62 5 -14
      vertex -62 5 10
    endloop
  endfacet
  facet normal 0 1 0
    outer loop
      vertex -62 5 -14
      vertex -54 5 -6
      vertex -46 5 -14
    endloop
  endfacet
  facet normal -1 0 0
    outer loop
      vertex -62 -5 -14
      vertex -62 5 10
      vertex -62 5 -14
    endloop
  endfacet
  facet normal -1 -0 0
    outer loop
      vertex -62 5 10
      vertex -62 -5 -14
      vertex -62 -5 10
    endloop
  endfacet
  facet normal 0 -1 0
    outer loop
      vertex -54 -5 -1.19904e-014
      vertex -39.4745 -5 10
      vertex -62 -5 10
    endloop
  endfacet
  facet normal 0 -1 0
    outer loop
      vertex -39.4745 -5 0
      vertex -38 -5 -8.43769e-015
      vertex -38 -5 0
    endloop
  endfacet
  facet normal 0 -1 -0
    outer loop
      vertex -39.4745 -5 0
      vertex -54 -5 -1.19904e-014
      vertex -38 -5 -8.43769e-015
    endloop
  endfacet
  facet normal 0 -1 -0
    outer loop
      vertex -39.4745 -5 10
      vertex -54 -5 -1.19904e-014
      vertex -39.4745 -5 0
    endloop
  endfacet
  facet normal 0 -1 0
    outer loop
      vertex -62 -5 -14
      vertex -54 -5 -1.19904e-014
      vertex -62 -5 10
    endloop
  endfacet
  facet normal 0 -1 -0
    outer loop
      vertex -54 -5 -1.19904e-014
      vertex -62 -5 -14
      vertex -54 -5 -6
    endloop
  endfacet
  facet normal 0 -1 0
    outer loop
      vertex -46 -5 -14
      vertex -54 -5 -6
      vertex -62 -5 -14
    endloop
  endfacet
  facet normal 0 -1 0
    outer loop
      vertex -54 -5 -6
      vertex -46 -5 -14
      vertex -46 -5 -6
    endloop
  endfacet
  facet normal 1 -0 0
    outer loop
      vertex -54 -5 -1.19904e-014
      vertex -54 5 -6
      vertex -54 5 -1.19904e-014
    endloop
  endfacet
  facet normal 1 0 0
    outer loop
      vertex -54 5 -6
      vertex -54 -5 -1.19904e-014
      vertex -54 -5 -6
    endloop
  endfacet
  facet normal 0 0 -1
    outer loop
      vertex -62 -5 -14
      vertex -46 5 -14
      vertex -46 -5 -14
    endloop
  endfacet
  facet normal -0 0 -1
    outer loop
      vertex -46 5 -14
      vertex -62 -5 -14
      vertex -62 5 -14
    endloop
  endfacet
  facet normal -0 0 1
    outer loop
      vertex -54 5 -6
      vertex -46 -5 -6
      vertex -46 5 -6
    endloop
  endfacet
  facet normal 0 0 1
    outer loop
      vertex -46 -5 -6
      vertex -54 5 -6
      vertex -54 -5 -6
    endloop
  endfacet
  facet normal 1 -0 0
    outer loop
      vertex -46 -5 -6
      vertex -46 5 -14
      vertex -46 5 -6
    endloop
  endfacet
  facet normal 1 0 0
    outer loop
      vertex -46 5 -14
      vertex -46 -5 -6
      vertex -46 -5 -14
    endloop
  endfacet
  facet normal -0 0 1
    outer loop
      vertex 4.18114 -39.7809 10
      vertex 5 -62 10
      vertex 5 -39.6068 10
    endloop
  endfacet
  facet normal -0 0 1
    outer loop
      vertex -4.18114 -39.7809 10
      vertex 5 -62 10
      vertex 4.18114 -39.7809 10
    endloop
  endfacet
  facet normal 0 0 1
    outer loop
      vertex -5 -62 10
      vertex -4.18114 -39.7809 10
      vertex -5 -39.6068 10
    endloop
  endfacet
  facet normal 0 0 1
    outer loop
      vertex -4.18114 -39.7809 10
      vertex -5 -62 10
      vertex 5 -62 10
    endloop
  endfacet
  facet normal 0 1 -0
    outer loop
      vertex 5 -38 -8.43769e-015
      vertex -5 -38 0
      vertex 5 -38 0
    endloop
  endfacet
  facet normal 0 1 0
    outer loop
      vertex -5 -38 0
      vertex 5 -38 -8.43769e-015
      vertex -5 -38 -8.43769e-015
    endloop
  endfacet
  facet normal 0 2.22045e-016 -1
    outer loop
      vertex -5 -54 -1.19904e-014
      vertex 5 -38 -8.43769e-015
      vertex 5 -54 -1.19904e-014
    endloop
  endfacet
  facet normal 0 2.22045e-016 -1
    outer loop
      vertex 5 -38 -8.43769e-015
      vertex -5 -54 -1.19904e-014
      vertex -5 -38 -8.43769e-015
    endloop
  endfacet
  facet normal -1 0 0
    outer loop
      vertex -5 -46 -14
      vertex -5 -54 -6
      vertex -5 -46 -6
    endloop
  endfacet
  facet normal -1 -0 0
    outer loop
      vertex -5 -54 -6
      vertex -5 -62 -14
      vertex -5 -54 -1.19904e-014
    endloop
  endfacet
  facet normal -1 0 0
    outer loop
      vertex -5 -62 -14
      vertex -5 -54 -6
      vertex -5 -46 -14
    endloop
  endfacet
  facet normal -1 0 0
    outer loop
      vertex -5 -38 -8.43769e-015
      vertex -5 -39.6068 0
      vertex -5 -38 0
    endloop
  endfacet
  facet normal -1 0 0
    outer loop
      vertex -5 -54 -1.19904e-014
      vertex -5 -39.6068 0
      vertex -5 -38 -8.43769e-015
    endloop
  endfacet
  facet normal -1 0 0
    outer loop
      vertex -5 -54 -1.19904e-014
      vertex -5 -39.6068 10
      vertex -5 -39.6068 0
    endloop
  endfacet
  facet normal -1 0 0
    outer loop
      vertex -5 -54 -1.19904e-014
      vertex -5 -62 10
      vertex -5 -39.6068 10
    endloop
  endfacet
  facet normal -1 0 0
    outer loop
      vertex -5 -62 10
      vertex -5 -54 -1.19904e-014
      vertex -5 -62 -14
    endloop
  endfacet
  facet normal 0 -1 0
    outer loop
      vertex -5 -62 -14
      vertex 5 -62 10
      vertex -5 -62 10
    endloop
  endfacet
  facet normal 0 -1 -0
    outer loop
      vertex 5 -62 10
      vertex -5 -62 -14
      vertex 5 -62 -14
    endloop
  endfacet
  facet normal 1 0 0
    outer loop
      vertex 5 -39.6068 10
      vertex 5 -54 -1.19904e-014
      vertex 5 -39.6068 0
    endloop
  endfacet
  facet normal 1 0 0
    outer loop
      vertex 5 -62 -14
      vertex 5 -54 -1.19904e-014
      vertex 5 -62 10
    endloop
  endfacet
  facet normal 1 -0 0
    outer loop
      vertex 5 -62 10
      vertex 5 -54 -1.19904e-014
      vertex 5 -39.6068 10
    endloop
  endfacet
  facet normal 1 -0 0
    outer loop
      vertex 5 -39.6068 0
      vertex 5 -38 -8.43769e-015
      vertex 5 -38 0
    endloop
  endfacet
  facet normal 1 0 0
    outer loop
      vertex 5 -38 -8.43769e-015
      vertex 5 -39.6068 0
      vertex 5 -54 -1.19904e-014
    endloop
  endfacet
  facet normal 1 -0 0
    outer loop
      vertex 5 -54 -6
      vertex 5 -46 -14
      vertex 5 -46 -6
    endloop
  endfacet
  facet normal 1 0 0
    outer loop
      vertex 5 -54 -6
      vertex 5 -62 -14
      vertex 5 -46 -14
    endloop
  endfacet
  facet normal 1 0 0
    outer loop
      vertex 5 -54 -1.19904e-014
      vertex 5 -62 -14
      vertex 5 -54 -6
    endloop
  endfacet
  facet normal 0 1 -0
    outer loop
      vertex 5 -54 -6
      vertex -5 -54 -1.19904e-014
      vertex 5 -54 -1.19904e-014
    endloop
  endfacet
  facet normal 0 1 0
    outer loop
      vertex -5 -54 -1.19904e-014
      vertex 5 -54 -6
      vertex -5 -54 -6
    endloop
  endfacet
  facet normal 0 0 -1
    outer loop
      vertex -5 -62 -14
      vertex 5 -46 -14
      vertex 5 -62 -14
    endloop
  endfacet
  facet normal -0 0 -1
    outer loop
      vertex 5 -46 -14
      vertex -5 -62 -14
      vertex -5 -46 -14
    endloop
  endfacet
  facet normal -0 0 1
    outer loop
      vertex -5 -46 -6
      vertex 5 -54 -6
      vertex 5 -46 -6
    endloop
  endfacet
  facet normal 0 0 1
    outer loop
      vertex 5 -54 -6
      vertex -5 -46 -6
      vertex -5 -54 -6
    endloop
  endfacet
  facet normal 0 1 -0
    outer loop
      vertex 5 -46 -14
      vertex -5 -46 -6
      vertex 5 -46 -6
    endloop
  endfacet
  facet normal 0 1 0
    outer loop
      vertex -5 -46 -6
      vertex 5 -46 -14
      vertex -5 -46 -14
    endloop
  endfacet
  facet normal 0 0 1
    outer loop
      vertex 62 5 10
      vertex 40 0 10
      vertex 62 -5 10
    endloop
  endfacet
  facet normal 0 -0 1
    outer loop
      vertex 40 0 10
      vertex 62 5 10
      vertex 39.4745 5 10
    endloop
  endfacet
  facet normal 0 0 1
    outer loop
      vertex 62 -5 10
      vertex 40 0 10
      vertex 39.4745 -5 10
    endloop
  endfacet
  facet normal -1 0 0
    outer loop
      vertex 38 -5 -8.43769e-015
      vertex 38 5 0
      vertex 38 5 -8.43769e-015
    endloop
  endfacet
  facet normal -1 -0 0
    outer loop
      vertex 38 5 0
      vertex 38 -5 -8.43769e-015
      vertex 38 -5 0
    endloop
  endfacet
  facet normal -2.22045e-016 0 -1
    outer loop
      vertex 38 -5 -8.43769e-015
      vertex 54 5 -1.19904e-014
      vertex 54 -5 -1.19904e-014
    endloop
  endfacet
  facet normal -2.22045e-016 0 -1
    outer loop
      vertex 54 5 -1.19904e-014
      vertex 38 -5 -8.43769e-015
      vertex 38 5 -8.43769e-015
    endloop
  endfacet
  facet normal 0 -1 0
    outer loop
      vertex 46 -5 -6
      vertex 46 -5 -14
      vertex 54 -5 -6
    endloop
  endfacet
  facet normal 0 -1 0
    outer loop
      vertex 38 -5 0
      vertex 38 -5 -8.43769e-015
      vertex 39.4745 -5 0
    endloop
  endfacet
  facet normal 0 -1 0
    outer loop
      vertex 54 -5 -1.19904e-014
      vertex 39.4745 -5 10
      vertex 39.4745 -5 0
    endloop
  endfacet
  facet normal 0 -1 0
    outer loop
      vertex 54 -5 -1.19904e-014
      vertex 39.4745 -5 0
      vertex 38 -5 -8.43769e-015
    endloop
  endfacet
  facet normal 0 -1 0
    outer loop
      vertex 39.4745 -5 10
      vertex 54 -5 -1.19904e-014
      vertex 62 -5 10
    endloop
  endfacet
  facet normal 0 -1 0
    outer loop
      vertex 62 -5 -14
      vertex 54 -5 -1.19904e-014
      vertex 54 -5 -6
    endloop
  endfacet
  facet normal 0 -1 0
    outer loop
      vertex 54 -5 -1.19904e-014
      vertex 62 -5 -14
      vertex 62 -5 10
    endloop
  endfacet
  facet normal 0 -1 0
    outer loop
      vertex 62 -5 -14
      vertex 54 -5 -6
      vertex 46 -5 -14
    endloop
  endfacet
  facet normal 1 -0 0
    outer loop
      vertex 62 -5 10
      vertex 62 5 -14
      vertex 62 5 10
    endloop
  endfacet
  facet normal 1 0 0
    outer loop
      vertex 62 5 -14
      vertex 62 -5 10
      vertex 62 -5 -14
    endloop
  endfacet
  facet normal 0 1 -0
    outer loop
      vertex 54 5 -1.19904e-014
      vertex 39.4745 5 10
      vertex 62 5 10
    endloop
  endfacet
  facet normal 0 1 0
    outer loop
      vertex 39.4745 5 0
      vertex 38 5 -8.43769e-015
      vertex 38 5 0
    endloop
  endfacet
  facet normal 0 1 0
    outer loop
      vertex 39.4745 5 0
      vertex 54 5 -1.19904e-014
      vertex 38 5 -8.43769e-015
    endloop
  endfacet
  facet normal 0 1 0
    outer loop
      vertex 39.4745 5 10
      vertex 54 5 -1.19904e-014
      vertex 39.4745 5 0
    endloop
  endfacet
  facet normal 0 1 -0
    outer loop
      vertex 62 5 -14
      vertex 54 5 -1.19904e-014
      vertex 62 5 10
    endloop
  endfacet
  facet normal 0 1 0
    outer loop
      vertex 54 5 -1.19904e-014
      vertex 62 5 -14
      vertex 54 5 -6
    endloop
  endfacet
  facet normal 0 1 0
    outer loop
      vertex 46 5 -14
      vertex 54 5 -6
      vertex 62 5 -14
    endloop
  endfacet
  facet normal 0 1 0
    outer loop
      vertex 54 5 -6
      vertex 46 5 -14
      vertex 46 5 -6
    endloop
  endfacet
  facet normal -1 0 0
    outer loop
      vertex 54 -5 -6
      vertex 54 5 -1.19904e-014
      vertex 54 5 -6
    endloop
  endfacet
  facet normal -1 -0 0
    outer loop
      vertex 54 5 -1.19904e-014
      vertex 54 -5 -6
      vertex 54 -5 -1.19904e-014
    endloop
  endfacet
  facet normal 0 0 -1
    outer loop
      vertex 46 -5 -14
      vertex 62 5 -14
      vertex 62 -5 -14
    endloop
  endfacet
  facet normal -0 0 -1
    outer loop
      vertex 62 5 -14
      vertex 46 -5 -14
      vertex 46 5 -14
    endloop
  endfacet
  facet normal -0 0 1
    outer loop
      vertex 46 5 -6
      vertex 54 -5 -6
      vertex 54 5 -6
    endloop
  endfacet
  facet normal 0 0 1
    outer loop
      vertex 54 -5 -6
      vertex 46 5 -6
      vertex 46 -5 -6
    endloop
  endfacet
  facet normal -1 0 0
    outer loop
      vertex 46 -5 -14
      vertex 46 5 -6
      vertex 46 5 -14
    endloop
  endfacet
  facet normal -1 -0 0
    outer loop
      vertex 46 5 -6
      vertex 46 -5 -14
      vertex 46 -5 -6
    endloop
  endfacet
  facet normal 0 0 1
    outer loop
      vertex 5 62 10
      vertex 4.18114 39.7809 10
      vertex 5 39.6068 10
    endloop
  endfacet
  facet normal 0 0 1
    outer loop
      vertex 5 62 10
      vertex -4.18114 39.7809 10
      vertex 4.18114 39.7809 10
    endloop
  endfacet
  facet normal -0 0 1
    outer loop
      vertex -5 62 10
      vertex -4.18114 39.7809 10
      vertex 5 62 10
    endloop
  endfacet
  facet normal 0 0 1
    outer loop
      vertex -4.18114 39.7809 10
      vertex -5 62 10
      vertex -5 39.6068 10
    endloop
  endfacet
  facet normal 0 -1 0
    outer loop
      vertex -5 38 -8.43769e-015
      vertex 5 38 0
      vertex -5 38 0
    endloop
  endfacet
  facet normal 0 -1 -0
    outer loop
      vertex 5 38 0
      vertex -5 38 -8.43769e-015
      vertex 5 38 -8.43769e-015
    endloop
  endfacet
  facet normal 0 -2.22045e-016 -1
    outer loop
      vertex -5 38 -8.43769e-015
      vertex 5 54 -1.19904e-014
      vertex 5 38 -8.43769e-015
    endloop
  endfacet
  facet normal -0 -2.22045e-016 -1
    outer loop
      vertex 5 54 -1.19904e-014
      vertex -5 38 -8.43769e-015
      vertex -5 54 -1.19904e-014
    endloop
  endfacet
  facet normal 1 0 0
    outer loop
      vertex 5 62 10
      vertex 5 54 -1.19904e-014
      vertex 5 62 -14
    endloop
  endfacet
  facet normal 1 -0 0
    outer loop
      vertex 5 39.6068 10
      vertex 5 54 -1.19904e-014
      vertex 5 62 10
    endloop
  endfacet
  facet normal 1 -0 0
    outer loop
      vertex 5 39.6068 0
      vertex 5 54 -1.19904e-014
      vertex 5 39.6068 10
    endloop
  endfacet
  facet normal 1 0 0
    outer loop
      vertex 5 38 -8.43769e-015
      vertex 5 39.6068 0
      vertex 5 38 0
    endloop
  endfacet
  facet normal 1 0 0
    outer loop
      vertex 5 39.6068 0
      vertex 5 38 -8.43769e-015
      vertex 5 54 -1.19904e-014
    endloop
  endfacet
  facet normal 1 -0 0
    outer loop
      vertex 5 54 -6
      vertex 5 62 -14
      vertex 5 54 -1.19904e-014
    endloop
  endfacet
  facet normal 1 0 0
    outer loop
      vertex 5 46 -14
      vertex 5 54 -6
      vertex 5 46 -6
    endloop
  endfacet
  facet normal 1 0 0
    outer loop
      vertex 5 54 -6
      vertex 5 46 -14
      vertex 5 62 -14
    endloop
  endfacet
  facet normal 0 1 -0
    outer loop
      vertex 5 62 -14
      vertex -5 62 10
      vertex 5 62 10
    endloop
  endfacet
  facet normal 0 1 0
    outer loop
      vertex -5 62 10
      vertex 5 62 -14
      vertex -5 62 -14
    endloop
  endfacet
  facet normal -1 0 0
    outer loop
      vertex -5 38 -8.43769e-015
      vertex -5 39.6068 0
      vertex -5 54 -1.19904e-014
    endloop
  endfacet
  facet normal -1 -0 0
    outer loop
      vertex -5 39.6068 0
      vertex -5 38 -8.43769e-015
      vertex -5 38 0
    endloop
  endfacet
  facet normal -1 0 0
    outer loop
      vertex -5 54 -1.19904e-014
      vertex -5 62 -14
      vertex -5 54 -6
    endloop
  endfacet
  facet normal -1 0 0
    outer loop
      vertex -5 46 -14
      vertex -5 54 -6
      vertex -5 62 -14
    endloop
  endfacet
  facet normal -1 -0 0
    outer loop
      vertex -5 54 -6
      vertex -5 46 -14
      vertex -5 46 -6
    endloop
  endfacet
  facet normal -1 0 0
    outer loop
      vertex -5 62 -14
      vertex -5 54 -1.19904e-014
      vertex -5 62 10
    endloop
  endfacet
  facet normal -1 0 0
    outer loop
      vertex -5 39.6068 10
      vertex -5 54 -1.19904e-014
      vertex -5 39.6068 0
    endloop
  endfacet
  facet normal -1 0 0
    outer loop
      vertex -5 54 -1.19904e-014
      vertex -5 39.6068 10
      vertex -5 62 10
    endloop
  endfacet
  facet normal 0 -1 0
    outer loop
      vertex -5 54 -6
      vertex 5 54 -1.19904e-014
      vertex -5 54 -1.19904e-014
    endloop
  endfacet
  facet normal 0 -1 -0
    outer loop
      vertex 5 54 -1.19904e-014
      vertex -5 54 -6
      vertex 5 54 -6
    endloop
  endfacet
  facet normal 0 0 -1
    outer loop
      vertex -5 46 -14
      vertex 5 62 -14
      vertex 5 46 -14
    endloop
  endfacet
  facet normal -0 0 -1
    outer loop
      vertex 5 62 -14
      vertex -5 46 -14
      vertex -5 62 -14
    endloop
  endfacet
  facet normal -0 0 1
    outer loop
      vertex -5 54 -6
      vertex 5 46 -6
      vertex 5 54 -6
    endloop
  endfacet
  facet normal 0 0 1
    outer loop
      vertex 5 46 -6
      vertex -5 54 -6
      vertex -5 46 -6
    endloop
  endfacet
  facet normal 0 -1 0
    outer loop
      vertex -5 46 -14
      vertex 5 46 -6
      vertex -5 46 -6
    endloop
  endfacet
  facet normal 0 -1 -0
    outer loop
      vertex 5 46 -6
      vertex -5 46 -14
      vertex 5 46 -14
    endloop
  endfacet
  facet normal 0.994522 0.104529 0
    outer loop
      vertex 39.4745 5 10
      vertex 39.1259 8.31647 0
      vertex 39.1259 8.31647 10
    endloop
  endfacet
  facet normal 0.994522 0.104529 0
    outer loop
      vertex 39.1259 8.31647 0
      vertex 39.4745 5 10
      vertex 39.4745 5 0
    endloop
  endfacet
  facet normal 0 0 1
    outer loop
      vertex 39.4745 5 10
      vertex 39.1259 8.31647 10
      vertex 40 0 10
    endloop
  endfacet
  facet normal -0.994522 0.104529 0
    outer loop
      vertex -39.4745 5 0
      vertex -39.1259 8.31647 10
      vertex -39.1259 8.31647 0
    endloop
  endfacet
  facet normal -0.994522 0.104529 0
    outer loop
      vertex -39.1259 8.31647 10
      vertex -39.4745 5 0
      vertex -39.4745 5 10
    endloop
  endfacet
  facet normal 0 0 1
    outer loop
      vertex -39.1259 8.31647 10
      vertex -39.4745 5 10
      vertex -40 0 10
    endloop
  endfacet
  facet normal 0.587785 0.809017 -0
    outer loop
      vertex 26.7652 29.7258 0
      vertex 20 34.641 10
      vertex 26.7652 29.7258 10
    endloop
  endfacet
  facet normal 0.587785 0.809017 0
    outer loop
      vertex 20 34.641 10
      vertex 26.7652 29.7258 0
      vertex 20 34.641 0
    endloop
  endfacet
  facet normal 0.406737 0.913545 -0
    outer loop
      vertex 20 34.641 0
      vertex 12.3607 38.0423 10
      vertex 20 34.641 10
    endloop
  endfacet
  facet normal 0.406737 0.913545 0
    outer loop
      vertex 12.3607 38.0423 10
      vertex 20 34.641 0
      vertex 12.3607 38.0423 0
    endloop
  endfacet
  facet normal -0.743145 0.669131 0
    outer loop
      vertex -32.3607 23.5114 0
      vertex -26.7652 29.7258 10
      vertex -26.7652 29.7258 0
    endloop
  endfacet
  facet normal -0.743145 0.669131 0
    outer loop
      vertex -26.7652 29.7258 10
      vertex -32.3607 23.5114 0
      vertex -32.3607 23.5114 10
    endloop
  endfacet
  facet normal -0.866025 0.5 0
    outer loop
      vertex -36.5418 16.2695 0
      vertex -32.3607 23.5114 10
      vertex -32.3607 23.5114 0
    endloop
  endfacet
  facet normal -0.866025 0.5 0
    outer loop
      vertex -32.3607 23.5114 10
      vertex -36.5418 16.2695 0
      vertex -36.5418 16.2695 10
    endloop
  endfacet
  facet normal -0.406737 0.913545 0
    outer loop
      vertex -12.3607 38.0423 0
      vertex -20 34.641 10
      vertex -12.3607 38.0423 10
    endloop
  endfacet
  facet normal -0.406737 0.913545 0
    outer loop
      vertex -20 34.641 10
      vertex -12.3607 38.0423 0
      vertex -20 34.641 0
    endloop
  endfacet
  facet normal 0.951056 -0.309017 0
    outer loop
      vertex 36.5418 -16.2695 10
      vertex 39.1259 -8.31647 0
      vertex 39.1259 -8.31647 10
    endloop
  endfacet
  facet normal 0.951056 -0.309017 0
    outer loop
      vertex 39.1259 -8.31647 0
      vertex 36.5418 -16.2695 10
      vertex 36.5418 -16.2695 0
    endloop
  endfacet
  facet normal 0.866025 0.5 0
    outer loop
      vertex 36.5418 16.2695 10
      vertex 32.3607 23.5114 0
      vertex 32.3607 23.5114 10
    endloop
  endfacet
  facet normal 0.866025 0.5 0
    outer loop
      vertex 32.3607 23.5114 0
      vertex 36.5418 16.2695 10
      vertex 36.5418 16.2695 0
    endloop
  endfacet
  facet normal 0.951056 0.309017 0
    outer loop
      vertex 39.1259 8.31647 10
      vertex 36.5418 16.2695 0
      vertex 36.5418 16.2695 10
    endloop
  endfacet
  facet normal 0.951056 0.309017 0
    outer loop
      vertex 36.5418 16.2695 0
      vertex 39.1259 8.31647 10
      vertex 39.1259 8.31647 0
    endloop
  endfacet
  facet normal 0.743145 0.669131 0
    outer loop
      vertex 32.3607 23.5114 10
      vertex 26.7652 29.7258 0
      vertex 26.7652 29.7258 10
    endloop
  endfacet
  facet normal 0.743145 0.669131 0
    outer loop
      vertex 26.7652 29.7258 0
      vertex 32.3607 23.5114 10
      vertex 32.3607 23.5114 0
    endloop
  endfacet
  facet normal 0.207912 0.978148 -0
    outer loop
      vertex 12.3607 38.0423 0
      vertex 5 39.6068 10
      vertex 12.3607 38.0423 10
    endloop
  endfacet
  facet normal 0.207912 0.978148 0
    outer loop
      vertex 5 39.6068 10
      vertex 12.3607 38.0423 0
      vertex 5 39.6068 0
    endloop
  endfacet
  facet normal 0 0 -1
    outer loop
      vertex 12.3607 38.0423 10
      vertex 5 39.6068 10
      vertex 4.18114 39.7809 10
    endloop
  endfacet
  facet normal -0.951056 0.309017 0
    outer loop
      vertex -39.1259 8.31647 0
      vertex -36.5418 16.2695 10
      vertex -36.5418 16.2695 0
    endloop
  endfacet
  facet normal -0.951056 0.309017 0
    outer loop
      vertex -36.5418 16.2695 10
      vertex -39.1259 8.31647 0
      vertex -39.1259 8.31647 10
    endloop
  endfacet
  facet normal 0 0 1
    outer loop
      vertex 3 0 10
      vertex 40 0 10
      vertex 39.1259 8.31647 10
    endloop
  endfacet
  facet normal 0 0 1
    outer loop
      vertex 3 0 10
      vertex 39.1259 8.31647 10
      vertex 36.5418 16.2695 10
    endloop
  endfacet
  facet normal 0 0 1
    outer loop
      vertex 40 0 10
      vertex 3 0 10
      vertex 39.1259 -8.31647 10
    endloop
  endfacet
  facet normal 0 0 1
    outer loop
      vertex 2.42705 1.76336 10
      vertex 36.5418 16.2695 10
      vertex 32.3607 23.5114 10
    endloop
  endfacet
  facet normal 0 0 1
    outer loop
      vertex 39.1259 -8.31647 10
      vertex 3 0 10
      vertex 36.5418 -16.2695 10
    endloop
  endfacet
  facet normal 0 0 1
    outer loop
      vertex 2.42705 1.76336 10
      vertex 32.3607 23.5114 10
      vertex 26.7652 29.7258 10
    endloop
  endfacet
  facet normal -0 0 1
    outer loop
      vertex 2.42705 -1.76336 10
      vertex 36.5418 -16.2695 10
      vertex 3 0 10
    endloop
  endfacet
  facet normal 0 0 1
    outer loop
      vertex 2.42705 1.76336 10
      vertex 26.7652 29.7258 10
      vertex 20 34.641 10
    endloop
  endfacet
  facet normal 0 0 1
    outer loop
      vertex 36.5418 -16.2695 10
      vertex 2.42705 -1.76336 10
      vertex 32.3607 -23.5114 10
    endloop
  endfacet
  facet normal 0 0 1
    outer loop
      vertex 0.927051 2.85317 10
      vertex 20 34.641 10
      vertex 12.3607 38.0423 10
    endloop
  endfacet
  facet normal 0 0 1
    outer loop
      vertex 32.3607 -23.5114 10
      vertex 2.42705 -1.76336 10
      vertex 26.7652 -29.7258 10
    endloop
  endfacet
  facet normal 0 0 1
    outer loop
      vertex 0.927051 2.85317 10
      vertex 12.3607 38.0423 10
      vertex 4.18114 39.7809 10
    endloop
  endfacet
  facet normal 0 0 1
    outer loop
      vertex 26.7652 -29.7258 10
      vertex 2.42705 -1.76336 10
      vertex 20 -34.641 10
    endloop
  endfacet
  facet normal -0 0 1
    outer loop
      vertex 0.927051 -2.85317 10
      vertex 20 -34.641 10
      vertex 2.42705 -1.76336 10
    endloop
  endfacet
  facet normal 0 0 1
    outer loop
      vertex 36.5418 16.2695 10
      vertex 2.42705 1.76336 10
      vertex 3 0 10
    endloop
  endfacet
  facet normal 0 0 1
    outer loop
      vertex 20 34.641 10
      vertex 0.927051 2.85317 10
      vertex 2.42705 1.76336 10
    endloop
  endfacet
  facet normal 0 0 1
    outer loop
      vertex 4.18114 39.7809 10
      vertex -0.927051 2.85317 10
      vertex 0.927051 2.85317 10
    endloop
  endfacet
  facet normal -0 0 1
    outer loop
      vertex -4.18114 39.7809 10
      vertex -0.927051 2.85317 10
      vertex 4.18114 39.7809 10
    endloop
  endfacet
  facet normal -0 0 1
    outer loop
      vertex -12.3607 38.0423 10
      vertex -0.927051 2.85317 10
      vertex -4.18114 39.7809 10
    endloop
  endfacet
  facet normal -0 0 1
    outer loop
      vertex -20 34.641 10
      vertex -0.927051 2.85317 10
      vertex -12.3607 38.0423 10
    endloop
  endfacet
  facet normal 0 0 1
    outer loop
      vertex 20 -34.641 10
      vertex 0.927051 -2.85317 10
      vertex 12.3607 -38.0423 10
    endloop
  endfacet
  facet normal 0 0 1
    outer loop
      vertex 12.3607 -38.0423 10
      vertex 0.927051 -2.85317 10
      vertex 4.18114 -39.7809 10
    endloop
  endfacet
  facet normal -0 0 1
    outer loop
      vertex -0.927051 -2.85317 10
      vertex 4.18114 -39.7809 10
      vertex 0.927051 -2.85317 10
    endloop
  endfacet
  facet normal 0 0 1
    outer loop
      vertex -20 -34.641 10
      vertex -0.927051 -2.85317 10
      vertex -2.42705 -1.76336 10
    endloop
  endfacet
  facet normal 0 0 1
    outer loop
      vertex -36.5418 -16.2695 10
      vertex -2.42705 -1.76336 10
      vertex -3 0 10
    endloop
  endfacet
  facet normal 0 0 1
    outer loop
      vertex -0.927051 -2.85317 10
      vertex -4.18114 -39.7809 10
      vertex 4.18114 -39.7809 10
    endloop
  endfacet
  facet normal 0 0 1
    outer loop
      vertex -0.927051 2.85317 10
      vertex -20 34.641 10
      vertex -2.42705 1.76336 10
    endloop
  endfacet
  facet normal -0 0 1
    outer loop
      vertex -26.7652 29.7258 10
      vertex -2.42705 1.76336 10
      vertex -20 34.641 10
    endloop
  endfacet
  facet normal 0 0 1
    outer loop
      vertex -0.927051 -2.85317 10
      vertex -12.3607 -38.0423 10
      vertex -4.18114 -39.7809 10
    endloop
  endfacet
  facet normal -0 0 1
    outer loop
      vertex -32.3607 23.5114 10
      vertex -2.42705 1.76336 10
      vertex -26.7652 29.7258 10
    endloop
  endfacet
  facet normal 0 0 1
    outer loop
      vertex -0.927051 -2.85317 10
      vertex -20 -34.641 10
      vertex -12.3607 -38.0423 10
    endloop
  endfacet
  facet normal -0 0 1
    outer loop
      vertex -36.5418 16.2695 10
      vertex -2.42705 1.76336 10
      vertex -32.3607 23.5114 10
    endloop
  endfacet
  facet normal 0 0 1
    outer loop
      vertex -2.42705 -1.76336 10
      vertex -26.7652 -29.7258 10
      vertex -20 -34.641 10
    endloop
  endfacet
  facet normal 0 0 1
    outer loop
      vertex -2.42705 1.76336 10
      vertex -36.5418 16.2695 10
      vertex -3 0 10
    endloop
  endfacet
  facet normal 0 0 1
    outer loop
      vertex -2.42705 -1.76336 10
      vertex -32.3607 -23.5114 10
      vertex -26.7652 -29.7258 10
    endloop
  endfacet
  facet normal -0 0 1
    outer loop
      vertex -39.1259 8.31647 10
      vertex -3 0 10
      vertex -36.5418 16.2695 10
    endloop
  endfacet
  facet normal 0 0 1
    outer loop
      vertex -2.42705 -1.76336 10
      vertex -36.5418 -16.2695 10
      vertex -32.3607 -23.5114 10
    endloop
  endfacet
  facet normal 0 0 1
    outer loop
      vertex -40 0 10
      vertex -3 0 10
      vertex -39.1259 8.31647 10
    endloop
  endfacet
  facet normal 0 0 1
    outer loop
      vertex -3 0 10
      vertex -39.1259 -8.31647 10
      vertex -36.5418 -16.2695 10
    endloop
  endfacet
  facet normal 0 0 1
    outer loop
      vertex -3 0 10
      vertex -40 0 10
      vertex -39.1259 -8.31647 10
    endloop
  endfacet
  facet normal -0.587785 0.809017 0
    outer loop
      vertex -20 34.641 0
      vertex -26.7652 29.7258 10
      vertex -20 34.641 10
    endloop
  endfacet
  facet normal -0.587785 0.809017 0
    outer loop
      vertex -26.7652 29.7258 10
      vertex -20 34.641 0
      vertex -26.7652 29.7258 0
    endloop
  endfacet
  facet normal -0.207912 0.978148 0
    outer loop
      vertex -5 39.6068 0
      vertex -12.3607 38.0423 10
      vertex -5 39.6068 10
    endloop
  endfacet
  facet normal -0.207912 0.978148 0
    outer loop
      vertex -12.3607 38.0423 10
      vertex -5 39.6068 0
      vertex -12.3607 38.0423 0
    endloop
  endfacet
  facet normal 0 0 -1
    outer loop
      vertex -12.3607 38.0423 10
      vertex -4.18114 39.7809 10
      vertex -5 39.6068 10
    endloop
  endfacet
  facet normal 0.994522 -0.104529 0
    outer loop
      vertex 39.1259 -8.31647 10
      vertex 39.4745 -5 0
      vertex 39.4745 -5 10
    endloop
  endfacet
  facet normal 0.994522 -0.104529 0
    outer loop
      vertex 39.4745 -5 0
      vertex 39.1259 -8.31647 10
      vertex 39.1259 -8.31647 0
    endloop
  endfacet
  facet normal 0 -0 1
    outer loop
      vertex 39.4745 -5 10
      vertex 40 0 10
      vertex 39.1259 -8.31647 10
    endloop
  endfacet
  facet normal 0 0 -1
    outer loop
      vertex 39.1259 -8.31647 0
      vertex 38 -5 0
      vertex 39.4745 -5 0
    endloop
  endfacet
  facet normal 0 0 -1
    outer loop
      vertex 2.42705 -1.76336 0
      vertex 38 -5 0
      vertex 36.5418 -16.2695 0
    endloop
  endfacet
  facet normal 0 0 -1
    outer loop
      vertex 36.5418 -16.2695 0
      vertex 38 -5 0
      vertex 39.1259 -8.31647 0
    endloop
  endfacet
  facet normal 0 0 -1
    outer loop
      vertex 38 5 0
      vertex 39.1259 8.31647 0
      vertex 39.4745 5 0
    endloop
  endfacet
  facet normal 0 0 -1
    outer loop
      vertex 38 5 0
      vertex 36.5418 16.2695 0
      vertex 39.1259 8.31647 0
    endloop
  endfacet
  facet normal 0 0 -1
    outer loop
      vertex 38 -5 0
      vertex 3 0 0
      vertex 38 5 0
    endloop
  endfacet
  facet normal 0 0 -1
    outer loop
      vertex 2.42705 -1.76336 0
      vertex 36.5418 -16.2695 0
      vertex 32.3607 -23.5114 0
    endloop
  endfacet
  facet normal 0 0 -1
    outer loop
      vertex 2.42705 1.76336 0
      vertex 38 5 0
      vertex 3 0 0
    endloop
  endfacet
  facet normal 0 0 -1
    outer loop
      vertex 2.42705 -1.76336 0
      vertex 32.3607 -23.5114 0
      vertex 26.7652 -29.7258 0
    endloop
  endfacet
  facet normal -0 0 -1
    outer loop
      vertex 38 5 0
      vertex 2.42705 1.76336 0
      vertex 36.5418 16.2695 0
    endloop
  endfacet
  facet normal 0 0 -1
    outer loop
      vertex 2.42705 -1.76336 0
      vertex 26.7652 -29.7258 0
      vertex 20 -34.641 0
    endloop
  endfacet
  facet normal -0 0 -1
    outer loop
      vertex 36.5418 16.2695 0
      vertex 2.42705 1.76336 0
      vertex 32.3607 23.5114 0
    endloop
  endfacet
  facet normal 0 0 -1
    outer loop
      vertex 0.927051 -2.85317 0
      vertex 20 -34.641 0
      vertex 12.3607 -38.0423 0
    endloop
  endfacet
  facet normal -0 0 -1
    outer loop
      vertex 32.3607 23.5114 0
      vertex 2.42705 1.76336 0
      vertex 26.7652 29.7258 0
    endloop
  endfacet
  facet normal 0 0 -1
    outer loop
      vertex 5 -38 0
      vertex 12.3607 -38.0423 0
      vertex 5 -39.6068 0
    endloop
  endfacet
  facet normal 0 0 -1
    outer loop
      vertex 0.927051 -2.85317 0
      vertex 12.3607 -38.0423 0
      vertex 5 -38 0
    endloop
  endfacet
  facet normal -0 0 -1
    outer loop
      vertex 26.7652 29.7258 0
      vertex 2.42705 1.76336 0
      vertex 20 34.641 0
    endloop
  endfacet
  facet normal -0 0 -1
    outer loop
      vertex 12.3607 38.0423 0
      vertex 5 38 0
      vertex 5 39.6068 0
    endloop
  endfacet
  facet normal 0 0 -1
    outer loop
      vertex -12.3607 -38.0423 0
      vertex -5 -38 0
      vertex -5 -39.6068 0
    endloop
  endfacet
  facet normal 0 0 -1
    outer loop
      vertex -5 -38 0
      vertex -38 -5 0
      vertex -5 38 0
    endloop
  endfacet
  facet normal 0 0 -1
    outer loop
      vertex -20 -34.641 0
      vertex -5 -38 0
      vertex -12.3607 -38.0423 0
    endloop
  endfacet
  facet normal 0 0 -1
    outer loop
      vertex -38 5 0
      vertex -5 38 0
      vertex -38 -5 0
    endloop
  endfacet
  facet normal 0 0 -1
    outer loop
      vertex -26.7652 -29.7258 0
      vertex -5 -38 0
      vertex -20 -34.641 0
    endloop
  endfacet
  facet normal 0 -0 -1
    outer loop
      vertex -26.7652 29.7258 0
      vertex -5 38 0
      vertex -38 5 0
    endloop
  endfacet
  facet normal 0 0 -1
    outer loop
      vertex -5 -38 0
      vertex -26.7652 -29.7258 0
      vertex -38 -5 0
    endloop
  endfacet
  facet normal 0 0 -1
    outer loop
      vertex -5 38 0
      vertex -12.3607 38.0423 0
      vertex -5 39.6068 0
    endloop
  endfacet
  facet normal 0 0 -1
    outer loop
      vertex -38 -5 0
      vertex -26.7652 -29.7258 0
      vertex -32.3607 -23.5114 0
    endloop
  endfacet
  facet normal -0 0 -1
    outer loop
      vertex -5 38 0
      vertex -20 34.641 0
      vertex -12.3607 38.0423 0
    endloop
  endfacet
  facet normal 0 0 -1
    outer loop
      vertex -38 -5 0
      vertex -32.3607 -23.5114 0
      vertex -36.5418 -16.2695 0
    endloop
  endfacet
  facet normal 0 0 -1
    outer loop
      vertex -5 38 0
      vertex -26.7652 29.7258 0
      vertex -20 34.641 0
    endloop
  endfacet
  facet normal 0 0 -1
    outer loop
      vertex -26.7652 29.7258 0
      vertex -38 5 0
      vertex -32.3607 23.5114 0
    endloop
  endfacet
  facet normal 0 0 -1
    outer loop
      vertex -39.1259 -8.31647 0
      vertex -38 -5 0
      vertex -36.5418 -16.2695 0
    endloop
  endfacet
  facet normal -0 0 -1
    outer loop
      vertex -38 -5 0
      vertex -39.1259 -8.31647 0
      vertex -39.4745 -5 0
    endloop
  endfacet
  facet normal 0 0 -1
    outer loop
      vertex -32.3607 23.5114 0
      vertex -38 5 0
      vertex -36.5418 16.2695 0
    endloop
  endfacet
  facet normal 0 0 -1
    outer loop
      vertex -38 5 0
      vertex -39.1259 8.31647 0
      vertex -36.5418 16.2695 0
    endloop
  endfacet
  facet normal 0 -0 -1
    outer loop
      vertex -39.1259 8.31647 0
      vertex -38 5 0
      vertex -39.4745 5 0
    endloop
  endfacet
  facet normal 0 0 -1
    outer loop
      vertex 0.927051 2.85317 0
      vertex 20 34.641 0
      vertex 2.42705 1.76336 0
    endloop
  endfacet
  facet normal 0 0 -1
    outer loop
      vertex 38 -5 0
      vertex 2.42705 -1.76336 0
      vertex 3 0 0
    endloop
  endfacet
  facet normal 0 0 -1
    outer loop
      vertex 20 -34.641 0
      vertex 0.927051 -2.85317 0
      vertex 2.42705 -1.76336 0
    endloop
  endfacet
  facet normal 0 0 -1
    outer loop
      vertex 5 -38 0
      vertex -0.927051 -2.85317 0
      vertex 0.927051 -2.85317 0
    endloop
  endfacet
  facet normal 0 0 -1
    outer loop
      vertex -5 -38 0
      vertex -0.927051 -2.85317 0
      vertex 5 -38 0
    endloop
  endfacet
  facet normal -0 0 -1
    outer loop
      vertex -0.927051 -2.85317 0
      vertex -5 -38 0
      vertex -2.42705 -1.76336 0
    endloop
  endfacet
  facet normal -0 0 -1
    outer loop
      vertex -2.42705 -1.76336 0
      vertex -5 -38 0
      vertex -3 0 0
    endloop
  endfacet
  facet normal -0 0 -1
    outer loop
      vertex 20 34.641 0
      vertex 0.927051 2.85317 0
      vertex 12.3607 38.0423 0
    endloop
  endfacet
  facet normal 0 0 -1
    outer loop
      vertex 12.3607 38.0423 0
      vertex 0.927051 2.85317 0
      vertex 5 38 0
    endloop
  endfacet
  facet normal 0 0 -1
    outer loop
      vertex -0.927051 2.85317 0
      vertex 5 38 0
      vertex 0.927051 2.85317 0
    endloop
  endfacet
  facet normal 0 0 -1
    outer loop
      vertex -5 38 0
      vertex -0.927051 2.85317 0
      vertex -2.42705 1.76336 0
    endloop
  endfacet
  facet normal 0 0 -1
    outer loop
      vertex -5 38 0
      vertex -2.42705 1.76336 0
      vertex -3 0 0
    endloop
  endfacet
  facet normal 0 0 -1
    outer loop
      vertex -0.927051 2.85317 0
      vertex -5 38 0
      vertex 5 38 0
    endloop
  endfacet
  facet normal 0 0 -1
    outer loop
      vertex -5 38 0
      vertex -3 0 0
      vertex -5 -38 0
    endloop
  endfacet
  facet normal 0.207912 -0.978148 0
    outer loop
      vertex 5 -39.6068 0
      vertex 12.3607 -38.0423 10
      vertex 5 -39.6068 10
    endloop
  endfacet
  facet normal 0.207912 -0.978148 0
    outer loop
      vertex 12.3607 -38.0423 10
      vertex 5 -39.6068 0
      vertex 12.3607 -38.0423 0
    endloop
  endfacet
  facet normal 0 0 -1
    outer loop
      vertex 12.3607 -38.0423 10
      vertex 4.18114 -39.7809 10
      vertex 5 -39.6068 10
    endloop
  endfacet
  facet normal 0.866025 -0.5 0
    outer loop
      vertex 32.3607 -23.5114 10
      vertex 36.5418 -16.2695 0
      vertex 36.5418 -16.2695 10
    endloop
  endfacet
  facet normal 0.866025 -0.5 0
    outer loop
      vertex 36.5418 -16.2695 0
      vertex 32.3607 -23.5114 10
      vertex 32.3607 -23.5114 0
    endloop
  endfacet
  facet normal -0.866025 -0.5 0
    outer loop
      vertex -32.3607 -23.5114 0
      vertex -36.5418 -16.2695 10
      vertex -36.5418 -16.2695 0
    endloop
  endfacet
  facet normal -0.866025 -0.5 0
    outer loop
      vertex -36.5418 -16.2695 10
      vertex -32.3607 -23.5114 0
      vertex -32.3607 -23.5114 10
    endloop
  endfacet
  facet normal 0.587785 -0.809017 0
    outer loop
      vertex 20 -34.641 0
      vertex 26.7652 -29.7258 10
      vertex 20 -34.641 10
    endloop
  endfacet
  facet normal 0.587785 -0.809017 0
    outer loop
      vertex 26.7652 -29.7258 10
      vertex 20 -34.641 0
      vertex 26.7652 -29.7258 0
    endloop
  endfacet
  facet normal 0.406737 -0.913545 0
    outer loop
      vertex 12.3607 -38.0423 0
      vertex 20 -34.641 10
      vertex 12.3607 -38.0423 10
    endloop
  endfacet
  facet normal 0.406737 -0.913545 0
    outer loop
      vertex 20 -34.641 10
      vertex 12.3607 -38.0423 0
      vertex 20 -34.641 0
    endloop
  endfacet
  facet normal -0.207912 -0.978148 0
    outer loop
      vertex -12.3607 -38.0423 0
      vertex -5 -39.6068 10
      vertex -12.3607 -38.0423 10
    endloop
  endfacet
  facet normal -0.207912 -0.978148 -0
    outer loop
      vertex -5 -39.6068 10
      vertex -12.3607 -38.0423 0
      vertex -5 -39.6068 0
    endloop
  endfacet
  facet normal 0 0 -1
    outer loop
      vertex -12.3607 -38.0423 10
      vertex -5 -39.6068 10
      vertex -4.18114 -39.7809 10
    endloop
  endfacet
  facet normal -0.743145 -0.669131 0
    outer loop
      vertex -26.7652 -29.7258 0
      vertex -32.3607 -23.5114 10
      vertex -32.3607 -23.5114 0
    endloop
  endfacet
  facet normal -0.743145 -0.669131 0
    outer loop
      vertex -32.3607 -23.5114 10
      vertex -26.7652 -29.7258 0
      vertex -26.7652 -29.7258 10
    endloop
  endfacet
  facet normal -0.951056 -0.309017 0
    outer loop
      vertex -36.5418 -16.2695 0
      vertex -39.1259 -8.31647 10
      vertex -39.1259 -8.31647 0
    endloop
  endfacet
  facet normal -0.951056 -0.309017 0
    outer loop
      vertex -39.1259 -8.31647 10
      vertex -36.5418 -16.2695 0
      vertex -36.5418 -16.2695 10
    endloop
  endfacet
  facet normal -0.994522 -0.104529 0
    outer loop
      vertex -39.1259 -8.31647 0
      vertex -39.4745 -5 10
      vertex -39.4745 -5 0
    endloop
  endfacet
  facet normal -0.994522 -0.104529 0
    outer loop
      vertex -39.4745 -5 10
      vertex -39.1259 -8.31647 0
      vertex -39.1259 -8.31647 10
    endloop
  endfacet
  facet normal 0 0 1
    outer loop
      vertex -39.1259 -8.31647 10
      vertex -40 0 10
      vertex -39.4745 -5 10
    endloop
  endfacet
  facet normal 0.743145 -0.669131 0
    outer loop
      vertex 26.7652 -29.7258 10
      vertex 32.3607 -23.5114 0
      vertex 32.3607 -23.5114 10
    endloop
  endfacet
  facet normal 0.743145 -0.669131 0
    outer loop
      vertex 32.3607 -23.5114 0
      vertex 26.7652 -29.7258 10
      vertex 26.7652 -29.7258 0
    endloop
  endfacet
  facet normal -0.406737 -0.913545 0
    outer loop
      vertex -20 -34.641 0
      vertex -12.3607 -38.0423 10
      vertex -20 -34.641 10
    endloop
  endfacet
  facet normal -0.406737 -0.913545 -0
    outer loop
      vertex -12.3607 -38.0423 10
      vertex -20 -34.641 0
      vertex -12.3607 -38.0423 0
    endloop
  endfacet
  facet normal -0.587785 -0.809017 0
    outer loop
      vertex -26.7652 -29.7258 0
      vertex -20 -34.641 10
      vertex -26.7652 -29.7258 10
    endloop
  endfacet
  facet normal -0.587785 -0.809017 -0
    outer loop
      vertex -20 -34.641 10
      vertex -26.7652 -29.7258 0
      vertex -20 -34.641 0
    endloop
  endfacet
  facet normal -0.951056 -0.309017 0
    outer loop
      vertex 3 0 0
      vertex 2.42705 1.76336 10
      vertex 2.42705 1.76336 0
    endloop
  endfacet
  facet normal -0.951056 -0.309017 0
    outer loop
      vertex 2.42705 1.76336 10
      vertex 3 0 0
      vertex 3 0 10
    endloop
  endfacet
  facet normal 0.951056 -0.309017 0
    outer loop
      vertex -3 0 10
      vertex -2.42705 1.76336 0
      vertex -2.42705 1.76336 10
    endloop
  endfacet
  facet normal 0.951056 -0.309017 0
    outer loop
      vertex -2.42705 1.76336 0
      vertex -3 0 10
      vertex -3 0 0
    endloop
  endfacet
  facet normal 0 1 -0
    outer loop
      vertex 0.927051 -2.85317 0
      vertex -0.927051 -2.85317 10
      vertex 0.927051 -2.85317 10
    endloop
  endfacet
  facet normal 0 1 0
    outer loop
      vertex -0.927051 -2.85317 10
      vertex 0.927051 -2.85317 0
      vertex -0.927051 -2.85317 0
    endloop
  endfacet
  facet normal 0 -1 0
    outer loop
      vertex -0.927051 2.85317 0
      vertex 0.927051 2.85317 10
      vertex -0.927051 2.85317 10
    endloop
  endfacet
  facet normal 0 -1 -0
    outer loop
      vertex 0.927051 2.85317 10
      vertex -0.927051 2.85317 0
      vertex 0.927051 2.85317 0
    endloop
  endfacet
  facet normal -0.587785 -0.809017 0
    outer loop
      vertex 0.927051 2.85317 0
      vertex 2.42705 1.76336 10
      vertex 0.927051 2.85317 10
    endloop
  endfacet
  facet normal -0.587785 -0.809017 -0
    outer loop
      vertex 2.42705 1.76336 10
      vertex 0.927051 2.85317 0
      vertex 2.42705 1.76336 0
    endloop
  endfacet
  facet normal 0.587785 -0.809017 0
    outer loop
      vertex -2.42705 1.76336 0
      vertex -0.927051 2.85317 10
      vertex -2.42705 1.76336 10
    endloop
  endfacet
  facet normal 0.587785 -0.809017 0
    outer loop
      vertex -0.927051 2.85317 10
      vertex -2.42705 1.76336 0
      vertex -0.927051 2.85317 0
    endloop
  endfacet
  facet normal -0.951056 0.309017 0
    outer loop
      vertex 2.42705 -1.76336 0
      vertex 3 0 10
      vertex 3 0 0
    endloop
  endfacet
  facet normal -0.951056 0.309017 0
    outer loop
      vertex 3 0 10
      vertex 2.42705 -1.76336 0
      vertex 2.42705 -1.76336 10
    endloop
  endfacet
  facet normal -0.587785 0.809017 0
    outer loop
      vertex 2.42705 -1.76336 0
      vertex 0.927051 -2.85317 10
      vertex 2.42705 -1.76336 10
    endloop
  endfacet
  facet normal -0.587785 0.809017 0
    outer loop
      vertex 0.927051 -2.85317 10
      vertex 2.42705 -1.76336 0
      vertex 0.927051 -2.85317 0
    endloop
  endfacet
  facet normal 0.587785 0.809017 -0
    outer loop
      vertex -0.927051 -2.85317 0
      vertex -2.42705 -1.76336 10
      vertex -0.927051 -2.85317 10
    endloop
  endfacet
  facet normal 0.587785 0.809017 0
    outer loop
      vertex -2.42705 -1.76336 10
      vertex -0.927051 -2.85317 0
      vertex -2.42705 -1.76336 0
    endloop
  endfacet
  facet normal 0.951056 0.309017 0
    outer loop
      vertex -2.42705 -1.76336 10
      vertex -3 0 0
      vertex -3 0 10
    endloop
  endfacet
  facet normal 0.951056 0.309017 0
    outer loop
      vertex -3 0 0
      vertex -2.42705 -1.76336 10
      vertex -2.42705 -1.76336 0
    endloop
  endfacet
endsolid OpenSCAD_Model
