solid OpenSCAD_Model
  facet normal -1 0 0
    outer loop
      vertex 8.5 -15 36.9215
      vertex 8.5 -7 37.8071
      vertex 8.5 -7 36.9215
    endloop
  endfacet
  facet normal -1 -0 0
    outer loop
      vertex 8.5 -7 37.8071
      vertex 8.5 -15 36.9215
      vertex 8.5 -15 37.8071
    endloop
  endfacet
  facet normal -1 0 0
    outer loop
      vertex 8.5 -15 34.1929
      vertex 8.5 -7 35.0785
      vertex 8.5 -7 34.1929
    endloop
  endfacet
  facet normal -1 -0 0
    outer loop
      vertex 8.5 -7 35.0785
      vertex 8.5 -15 34.1929
      vertex 8.5 -15 35.0785
    endloop
  endfacet
  facet normal -1 0 0
    outer loop
      vertex 8.5 -15 28.9215
      vertex 8.5 -7 29.8071
      vertex 8.5 -7 28.9215
    endloop
  endfacet
  facet normal -1 -0 0
    outer loop
      vertex 8.5 -7 29.8071
      vertex 8.5 -15 28.9215
      vertex 8.5 -15 29.8071
    endloop
  endfacet
  facet normal -1 0 0
    outer loop
      vertex 8.5 -15 26.1929
      vertex 8.5 -7 27.0785
      vertex 8.5 -7 26.1929
    endloop
  endfacet
  facet normal -1 -0 0
    outer loop
      vertex 8.5 -7 27.0785
      vertex 8.5 -15 26.1929
      vertex 8.5 -15 27.0785
    endloop
  endfacet
  facet normal -1 0 0
    outer loop
      vertex 8.5 -15 20.9215
      vertex 8.5 -7 21.8071
      vertex 8.5 -7 20.9215
    endloop
  endfacet
  facet normal -1 -0 0
    outer loop
      vertex 8.5 -7 21.8071
      vertex 8.5 -15 20.9215
      vertex 8.5 -15 21.8071
    endloop
  endfacet
  facet normal -1 0 0
    outer loop
      vertex 8.5 -15 18.1929
      vertex 8.5 -7 19.0785
      vertex 8.5 -7 18.1929
    endloop
  endfacet
  facet normal -1 -0 0
    outer loop
      vertex 8.5 -7 19.0785
      vertex 8.5 -15 18.1929
      vertex 8.5 -15 19.0785
    endloop
  endfacet
  facet normal -1 0 0
    outer loop
      vertex 8.5 -15 12.9215
      vertex 8.5 -7 13.8071
      vertex 8.5 -7 12.9215
    endloop
  endfacet
  facet normal -1 -0 0
    outer loop
      vertex 8.5 -7 13.8071
      vertex 8.5 -15 12.9215
      vertex 8.5 -15 13.8071
    endloop
  endfacet
  facet normal -1 0 0
    outer loop
      vertex 8.5 -15 10.1929
      vertex 8.5 -7 11.0785
      vertex 8.5 -7 10.1929
    endloop
  endfacet
  facet normal -1 -0 0
    outer loop
      vertex 8.5 -7 11.0785
      vertex 8.5 -15 10.1929
      vertex 8.5 -15 11.0785
    endloop
  endfacet
  facet normal -1 0 0
    outer loop
      vertex 8.5 -15 4.92147
      vertex 8.5 -7 5.80711
      vertex 8.5 -7 4.92147
    endloop
  endfacet
  facet normal -1 -0 0
    outer loop
      vertex 8.5 -7 5.80711
      vertex 8.5 -15 4.92147
      vertex 8.5 -15 5.80711
    endloop
  endfacet
  facet normal -1 0 0
    outer loop
      vertex 8.5 -15 2.19289
      vertex 8.5 -7 3.07853
      vertex 8.5 -7 2.19289
    endloop
  endfacet
  facet normal -1 -0 0
    outer loop
      vertex 8.5 -7 3.07853
      vertex 8.5 -15 2.19289
      vertex 8.5 -15 3.07853
    endloop
  endfacet
  facet normal -1 0 0
    outer loop
      vertex 8.5 -7 5.80711
      vertex 8.5 0 15.5
      vertex 8.5 0 0
    endloop
  endfacet
  facet normal -1 0 0
    outer loop
      vertex 8.5 -7 12.9215
      vertex 8.5 0 15.5
      vertex 8.5 -7 11.0785
    endloop
  endfacet
  facet normal -1 0 0
    outer loop
      vertex 8.5 -7 2.19289
      vertex 8.5 0 0
      vertex 8.5 -7 0
    endloop
  endfacet
  facet normal -1 0 0
    outer loop
      vertex 8.5 -7 3.07853
      vertex 8.5 0 0
      vertex 8.5 -7 2.19289
    endloop
  endfacet
  facet normal -1 0 0
    outer loop
      vertex 8.5 -7 4.92147
      vertex 8.5 0 0
      vertex 8.5 -7 3.07853
    endloop
  endfacet
  facet normal -1 0 0
    outer loop
      vertex 8.5 -7 5.80711
      vertex 8.5 0 0
      vertex 8.5 -7 4.92147
    endloop
  endfacet
  facet normal -1 0 0
    outer loop
      vertex 8.5 0 15.5
      vertex 8.5 -7 5.80711
      vertex 8.5 -7 10.1929
    endloop
  endfacet
  facet normal -1 0 0
    outer loop
      vertex 8.5 0 15.5
      vertex 8.5 -7 10.1929
      vertex 8.5 -7 11.0785
    endloop
  endfacet
  facet normal -1 0 0
    outer loop
      vertex 8.5 -7 13.8071
      vertex 8.5 0 15.5
      vertex 8.5 -7 12.9215
    endloop
  endfacet
  facet normal -1 0 0
    outer loop
      vertex 8.5 -7 18.1929
      vertex 8.5 0 15.5
      vertex 8.5 -7 13.8071
    endloop
  endfacet
  facet normal -1 0 0
    outer loop
      vertex 8.5 -7 19.0785
      vertex 8.5 0 15.5
      vertex 8.5 -7 18.1929
    endloop
  endfacet
  facet normal -1 0 0
    outer loop
      vertex 8.5 0 15.5
      vertex 8.5 -7 19.0785
      vertex 8.5 0 22.5
    endloop
  endfacet
  facet normal -1 0 0
    outer loop
      vertex 8.5 -7 20.9215
      vertex 8.5 0 22.5
      vertex 8.5 -7 19.0785
    endloop
  endfacet
  facet normal -1 0 0
    outer loop
      vertex 8.5 -7 21.8071
      vertex 8.5 0 22.5
      vertex 8.5 -7 20.9215
    endloop
  endfacet
  facet normal -1 0 0
    outer loop
      vertex 8.5 -7 26.1929
      vertex 8.5 0 22.5
      vertex 8.5 -7 21.8071
    endloop
  endfacet
  facet normal -1 0 0
    outer loop
      vertex 8.5 -7 27.0785
      vertex 8.5 0 22.5
      vertex 8.5 -7 26.1929
    endloop
  endfacet
  facet normal -1 0 0
    outer loop
      vertex 8.5 -7 28.9215
      vertex 8.5 0 22.5
      vertex 8.5 -7 27.0785
    endloop
  endfacet
  facet normal -1 0 0
    outer loop
      vertex 8.5 -7 29.8071
      vertex 8.5 0 22.5
      vertex 8.5 -7 28.9215
    endloop
  endfacet
  facet normal -1 0 0
    outer loop
      vertex 8.5 0 22.5
      vertex 8.5 -7 29.8071
      vertex 8.5 0 38
    endloop
  endfacet
  facet normal -1 0 0
    outer loop
      vertex 8.5 -7 34.1929
      vertex 8.5 0 38
      vertex 8.5 -7 29.8071
    endloop
  endfacet
  facet normal -1 0 0
    outer loop
      vertex 8.5 -7 35.0785
      vertex 8.5 0 38
      vertex 8.5 -7 34.1929
    endloop
  endfacet
  facet normal -1 0 0
    outer loop
      vertex 8.5 -7 36.9215
      vertex 8.5 0 38
      vertex 8.5 -7 35.0785
    endloop
  endfacet
  facet normal -1 0 0
    outer loop
      vertex 8.5 -7 37.8071
      vertex 8.5 0 38
      vertex 8.5 -7 36.9215
    endloop
  endfacet
  facet normal -1 -0 0
    outer loop
      vertex 8.5 0 38
      vertex 8.5 -7 37.8071
      vertex 8.5 -7 38
    endloop
  endfacet
  facet normal -1 0 0
    outer loop
      vertex 8.5 0 15.5
      vertex 8.5 8.5 22.5
      vertex 8.5 8.5 15.5
    endloop
  endfacet
  facet normal -1 -0 0
    outer loop
      vertex 8.5 8.5 22.5
      vertex 8.5 0 15.5
      vertex 8.5 0 22.5
    endloop
  endfacet
  facet normal -1 0 0
    outer loop
      vertex 8.5 8.5 15.5
      vertex 8.5 15.5 8.5
      vertex 8.5 8.5 8.5
    endloop
  endfacet
  facet normal -1 0 0
    outer loop
      vertex 8.5 15.5 8.5
      vertex 8.5 8.5 15.5
      vertex 8.5 15.5 29.5
    endloop
  endfacet
  facet normal -1 0 0
    outer loop
      vertex 8.5 8.5 22.5
      vertex 8.5 15.5 29.5
      vertex 8.5 8.5 15.5
    endloop
  endfacet
  facet normal -1 -0 0
    outer loop
      vertex 8.5 15.5 29.5
      vertex 8.5 8.5 22.5
      vertex 8.5 8.5 29.5
    endloop
  endfacet
  facet normal -0 0 1
    outer loop
      vertex 8.5 15.5 29.5
      vertex 17 8.5 29.5
      vertex 17 15.5 29.5
    endloop
  endfacet
  facet normal 0 0 1
    outer loop
      vertex 17 8.5 29.5
      vertex 8.5 15.5 29.5
      vertex 8.5 8.5 29.5
    endloop
  endfacet
  facet normal 1 -0 0
    outer loop
      vertex 17 -15 3.00664
      vertex 17 -7 1.98579
      vertex 17 -7 3.00664
    endloop
  endfacet
  facet normal 1 0 0
    outer loop
      vertex 17 -7 1.98579
      vertex 17 -15 3.00664
      vertex 17 -15 1.98579
    endloop
  endfacet
  facet normal 1 -0 0
    outer loop
      vertex 17 -15 6.01421
      vertex 17 -7 4.99336
      vertex 17 -7 6.01421
    endloop
  endfacet
  facet normal 1 0 0
    outer loop
      vertex 17 -7 4.99336
      vertex 17 -15 6.01421
      vertex 17 -15 4.99336
    endloop
  endfacet
  facet normal 1 -0 0
    outer loop
      vertex 17 -15 11.0066
      vertex 17 -7 9.98579
      vertex 17 -7 11.0066
    endloop
  endfacet
  facet normal 1 0 0
    outer loop
      vertex 17 -7 9.98579
      vertex 17 -15 11.0066
      vertex 17 -15 9.98579
    endloop
  endfacet
  facet normal 1 -0 0
    outer loop
      vertex 17 -15 14.0142
      vertex 17 -7 12.9934
      vertex 17 -7 14.0142
    endloop
  endfacet
  facet normal 1 0 0
    outer loop
      vertex 17 -7 12.9934
      vertex 17 -15 14.0142
      vertex 17 -15 12.9934
    endloop
  endfacet
  facet normal 1 -0 0
    outer loop
      vertex 17 -15 19.0066
      vertex 17 -7 17.9858
      vertex 17 -7 19.0066
    endloop
  endfacet
  facet normal 1 0 0
    outer loop
      vertex 17 -7 17.9858
      vertex 17 -15 19.0066
      vertex 17 -15 17.9858
    endloop
  endfacet
  facet normal 1 -0 0
    outer loop
      vertex 17 -15 22.0142
      vertex 17 -7 20.9934
      vertex 17 -7 22.0142
    endloop
  endfacet
  facet normal 1 0 0
    outer loop
      vertex 17 -7 20.9934
      vertex 17 -15 22.0142
      vertex 17 -15 20.9934
    endloop
  endfacet
  facet normal 1 -0 0
    outer loop
      vertex 17 -15 27.0066
      vertex 17 -7 25.9858
      vertex 17 -7 27.0066
    endloop
  endfacet
  facet normal 1 0 0
    outer loop
      vertex 17 -7 25.9858
      vertex 17 -15 27.0066
      vertex 17 -15 25.9858
    endloop
  endfacet
  facet normal 1 -0 0
    outer loop
      vertex 17 -15 30.0142
      vertex 17 -7 28.9934
      vertex 17 -7 30.0142
    endloop
  endfacet
  facet normal 1 0 0
    outer loop
      vertex 17 -7 28.9934
      vertex 17 -15 30.0142
      vertex 17 -15 28.9934
    endloop
  endfacet
  facet normal 1 -0 0
    outer loop
      vertex 17 -15 35.0066
      vertex 17 -7 33.9858
      vertex 17 -7 35.0066
    endloop
  endfacet
  facet normal 1 0 0
    outer loop
      vertex 17 -7 33.9858
      vertex 17 -15 35.0066
      vertex 17 -15 33.9858
    endloop
  endfacet
  facet normal 1 -0 0
    outer loop
      vertex 17 -7 30.0142
      vertex 17 0 22.5
      vertex 17 0 38
    endloop
  endfacet
  facet normal 1 -0 0
    outer loop
      vertex 17 -7 25.9858
      vertex 17 0 22.5
      vertex 17 -7 27.0066
    endloop
  endfacet
  facet normal 1 0 0
    outer loop
      vertex 17 -7 35.0066
      vertex 17 0 38
      vertex 17 -7 36.9934
    endloop
  endfacet
  facet normal 1 -0 0
    outer loop
      vertex 17 -15 38
      vertex 17 -7 36.9934
      vertex 17 0 38
    endloop
  endfacet
  facet normal 1 0 0
    outer loop
      vertex 17 -7 36.9934
      vertex 17 -15 38
      vertex 17 -15 36.9934
    endloop
  endfacet
  facet normal 1 -0 0
    outer loop
      vertex 17 0 22.5
      vertex 17 8.5 15.5
      vertex 17 8.5 22.5
    endloop
  endfacet
  facet normal 1 0 0
    outer loop
      vertex 17 8.5 15.5
      vertex 17 0 22.5
      vertex 17 0 15.5
    endloop
  endfacet
  facet normal 1 0 0
    outer loop
      vertex 17 8.5 22.5
      vertex 17 15.5 29.5
      vertex 17 8.5 29.5
    endloop
  endfacet
  facet normal 1 0 0
    outer loop
      vertex 17 15.5 29.5
      vertex 17 8.5 22.5
      vertex 17 15.5 8.5
    endloop
  endfacet
  facet normal 1 -0 0
    outer loop
      vertex 17 8.5 15.5
      vertex 17 15.5 8.5
      vertex 17 8.5 22.5
    endloop
  endfacet
  facet normal 1 0 0
    outer loop
      vertex 17 15.5 8.5
      vertex 17 8.5 15.5
      vertex 17 8.5 8.5
    endloop
  endfacet
  facet normal 1 0 0
    outer loop
      vertex 17 -7 33.9858
      vertex 17 0 38
      vertex 17 -7 35.0066
    endloop
  endfacet
  facet normal 1 0 0
    outer loop
      vertex 17 -7 30.0142
      vertex 17 0 38
      vertex 17 -7 33.9858
    endloop
  endfacet
  facet normal 1 0 0
    outer loop
      vertex 17 0 22.5
      vertex 17 -7 30.0142
      vertex 17 -7 28.9934
    endloop
  endfacet
  facet normal 1 0 0
    outer loop
      vertex 17 0 22.5
      vertex 17 -7 28.9934
      vertex 17 -7 27.0066
    endloop
  endfacet
  facet normal 1 0 0
    outer loop
      vertex 17 -7 22.0142
      vertex 17 0 22.5
      vertex 17 -7 25.9858
    endloop
  endfacet
  facet normal 1 0 0
    outer loop
      vertex 17 -7 20.9934
      vertex 17 0 22.5
      vertex 17 -7 22.0142
    endloop
  endfacet
  facet normal 1 0 0
    outer loop
      vertex 17 -7 19.0066
      vertex 17 0 22.5
      vertex 17 -7 20.9934
    endloop
  endfacet
  facet normal 1 0 0
    outer loop
      vertex 17 0 22.5
      vertex 17 -7 19.0066
      vertex 17 0 15.5
    endloop
  endfacet
  facet normal 1 -0 0
    outer loop
      vertex 17 -7 17.9858
      vertex 17 0 15.5
      vertex 17 -7 19.0066
    endloop
  endfacet
  facet normal 1 0 0
    outer loop
      vertex 17 -7 14.0142
      vertex 17 0 15.5
      vertex 17 -7 17.9858
    endloop
  endfacet
  facet normal 1 0 0
    outer loop
      vertex 17 -7 12.9934
      vertex 17 0 15.5
      vertex 17 -7 14.0142
    endloop
  endfacet
  facet normal 1 0 0
    outer loop
      vertex 17 -7 11.0066
      vertex 17 0 15.5
      vertex 17 -7 12.9934
    endloop
  endfacet
  facet normal 1 0 0
    outer loop
      vertex 17 -7 9.98579
      vertex 17 0 15.5
      vertex 17 -7 11.0066
    endloop
  endfacet
  facet normal 1 0 0
    outer loop
      vertex 17 -7 6.01421
      vertex 17 0 15.5
      vertex 17 -7 9.98579
    endloop
  endfacet
  facet normal 1 0 0
    outer loop
      vertex 17 0 15.5
      vertex 17 -7 6.01421
      vertex 17 0 0
    endloop
  endfacet
  facet normal 1 -0 0
    outer loop
      vertex 17 -7 4.99336
      vertex 17 0 0
      vertex 17 -7 6.01421
    endloop
  endfacet
  facet normal 1 -0 0
    outer loop
      vertex 17 -7 3.00664
      vertex 17 0 0
      vertex 17 -7 4.99336
    endloop
  endfacet
  facet normal 1 -0 0
    outer loop
      vertex 17 -7 1.98579
      vertex 17 0 0
      vertex 17 -7 3.00664
    endloop
  endfacet
  facet normal 1 0 0
    outer loop
      vertex 17 0 0
      vertex 17 -7 1.98579
      vertex 17 -7 0
    endloop
  endfacet
  facet normal 0 1 -0
    outer loop
      vertex 17 15.5 8.5
      vertex 8.5 15.5 29.5
      vertex 17 15.5 29.5
    endloop
  endfacet
  facet normal 0 1 0
    outer loop
      vertex 8.5 15.5 29.5
      vertex 17 15.5 8.5
      vertex 8.5 15.5 8.5
    endloop
  endfacet
  facet normal 0 0 -1
    outer loop
      vertex 8.5 8.5 8.5
      vertex 17 15.5 8.5
      vertex 17 8.5 8.5
    endloop
  endfacet
  facet normal -0 0 -1
    outer loop
      vertex 17 15.5 8.5
      vertex 8.5 8.5 8.5
      vertex 8.5 15.5 8.5
    endloop
  endfacet
  facet normal 0 -1 0
    outer loop
      vertex 8.5 8.5 22.5
      vertex 17 8.5 29.5
      vertex 8.5 8.5 29.5
    endloop
  endfacet
  facet normal 0 -1 -0
    outer loop
      vertex 17 8.5 29.5
      vertex 8.5 8.5 22.5
      vertex 17 8.5 22.5
    endloop
  endfacet
  facet normal 0 -1 0
    outer loop
      vertex 8.5 8.5 8.5
      vertex 17 8.5 15.5
      vertex 8.5 8.5 15.5
    endloop
  endfacet
  facet normal 0 -1 -0
    outer loop
      vertex 17 8.5 15.5
      vertex 8.5 8.5 8.5
      vertex 17 8.5 8.5
    endloop
  endfacet
  facet normal -0 0 1
    outer loop
      vertex 8.5 8.5 22.5
      vertex 17 0 22.5
      vertex 17 8.5 22.5
    endloop
  endfacet
  facet normal 0 0 1
    outer loop
      vertex 17 0 22.5
      vertex 8.5 8.5 22.5
      vertex 8.5 0 22.5
    endloop
  endfacet
  facet normal 0 0 -1
    outer loop
      vertex 8.5 0 15.5
      vertex 17 8.5 15.5
      vertex 17 0 15.5
    endloop
  endfacet
  facet normal -0 0 -1
    outer loop
      vertex 17 8.5 15.5
      vertex 8.5 0 15.5
      vertex 8.5 8.5 15.5
    endloop
  endfacet
  facet normal 0 1 -0
    outer loop
      vertex 17 0 22.5
      vertex 8.5 0 38
      vertex 17 0 38
    endloop
  endfacet
  facet normal 0 1 0
    outer loop
      vertex 8.5 0 38
      vertex 17 0 22.5
      vertex 8.5 0 22.5
    endloop
  endfacet
  facet normal 0 1 -0
    outer loop
      vertex 17 0 0
      vertex 8.5 0 15.5
      vertex 17 0 15.5
    endloop
  endfacet
  facet normal 0 1 0
    outer loop
      vertex 8.5 0 15.5
      vertex 17 0 0
      vertex 8.5 0 0
    endloop
  endfacet
  facet normal 0.959493 -0 0.281733
    outer loop
      vertex 10.7341 -15 1.75708
      vertex 11.25 -7 0
      vertex 10.7341 -7 1.75708
    endloop
  endfacet
  facet normal 0.959493 6.25573e-017 0.281733
    outer loop
      vertex 11.25 -7 0
      vertex 10.7341 -15 1.75708
      vertex 11.25 -15 1.77636e-015
    endloop
  endfacet
  facet normal 0.142315 0 0.989821
    outer loop
      vertex 8.5 -7 3.07853
      vertex 9.3501 -15 2.9563
      vertex 9.3501 -7 2.9563
    endloop
  endfacet
  facet normal 0.142315 0 0.989821
    outer loop
      vertex 9.3501 -15 2.9563
      vertex 8.5 -7 3.07853
      vertex 8.5 -15 3.07853
    endloop
  endfacet
  facet normal 0.654861 0 0.755749
    outer loop
      vertex 9.3501 -7 2.9563
      vertex 10.7341 -15 1.75708
      vertex 10.7341 -7 1.75708
    endloop
  endfacet
  facet normal 0.654861 0 0.755749
    outer loop
      vertex 10.7341 -15 1.75708
      vertex 9.3501 -7 2.9563
      vertex 9.3501 -15 2.9563
    endloop
  endfacet
  facet normal 0 -1 0
    outer loop
      vertex 8.5 -15 2.19289
      vertex 9.3501 -15 2.9563
      vertex 8.5 -15 3.07853
    endloop
  endfacet
  facet normal 0 -1 0
    outer loop
      vertex 9.69706 -15 1.69706
      vertex 9.3501 -15 2.9563
      vertex 8.5 -15 2.19289
    endloop
  endfacet
  facet normal 0 -1 0
    outer loop
      vertex 9.3501 -15 2.9563
      vertex 9.69706 -15 1.69706
      vertex 10.7341 -15 1.75708
    endloop
  endfacet
  facet normal 0 -1 0
    outer loop
      vertex 10.4 -15 1.77636e-015
      vertex 10.7341 -15 1.75708
      vertex 9.69706 -15 1.69706
    endloop
  endfacet
  facet normal 0 -1 -0
    outer loop
      vertex 10.7341 -15 1.75708
      vertex 10.4 -15 1.77636e-015
      vertex 11.25 -15 1.77636e-015
    endloop
  endfacet
  facet normal 1 0 0
    outer loop
      vertex 11.25 -15 1.77636e-015
      vertex 11.25 -15 0
      vertex 11.25 -7 0
    endloop
  endfacet
  facet normal -0.923879 -8.49728e-017 -0.382684
    outer loop
      vertex 10.4 -15 1.77636e-015
      vertex 9.69706 -7 1.69706
      vertex 10.4 -7 0
    endloop
  endfacet
  facet normal -0.923879 -0 -0.382684
    outer loop
      vertex 9.69706 -7 1.69706
      vertex 10.4 -15 1.77636e-015
      vertex 9.69706 -15 1.69706
    endloop
  endfacet
  facet normal -0.382684 0 -0.923879
    outer loop
      vertex 8.5 -15 2.19289
      vertex 9.69706 -7 1.69706
      vertex 9.69706 -15 1.69706
    endloop
  endfacet
  facet normal -0.382684 0 -0.923879
    outer loop
      vertex 9.69706 -7 1.69706
      vertex 8.5 -15 2.19289
      vertex 8.5 -7 2.19289
    endloop
  endfacet
  facet normal -1 0 0
    outer loop
      vertex 10.4 -15 1.77636e-015
      vertex 10.4 -7 0
      vertex 10.4 -15 0
    endloop
  endfacet
  facet normal 0.959493 -0 0.281733
    outer loop
      vertex 10.7341 -15 9.75708
      vertex 11.25 -7 8
      vertex 10.7341 -7 9.75708
    endloop
  endfacet
  facet normal 0.959493 0 0.281733
    outer loop
      vertex 11.25 -7 8
      vertex 10.7341 -15 9.75708
      vertex 11.25 -15 8
    endloop
  endfacet
  facet normal 0.142315 0 0.989821
    outer loop
      vertex 8.5 -7 11.0785
      vertex 9.3501 -15 10.9563
      vertex 9.3501 -7 10.9563
    endloop
  endfacet
  facet normal 0.142315 0 0.989821
    outer loop
      vertex 9.3501 -15 10.9563
      vertex 8.5 -7 11.0785
      vertex 8.5 -15 11.0785
    endloop
  endfacet
  facet normal 0.654861 0 0.755749
    outer loop
      vertex 9.3501 -7 10.9563
      vertex 10.7341 -15 9.75708
      vertex 10.7341 -7 9.75708
    endloop
  endfacet
  facet normal 0.654861 0 0.755749
    outer loop
      vertex 10.7341 -15 9.75708
      vertex 9.3501 -7 10.9563
      vertex 9.3501 -15 10.9563
    endloop
  endfacet
  facet normal 0 -1 0
    outer loop
      vertex 8.5 -15 10.1929
      vertex 9.3501 -15 10.9563
      vertex 8.5 -15 11.0785
    endloop
  endfacet
  facet normal 0 -1 0
    outer loop
      vertex 9.69706 -15 9.69706
      vertex 9.3501 -15 10.9563
      vertex 8.5 -15 10.1929
    endloop
  endfacet
  facet normal 0 -1 0
    outer loop
      vertex 9.3501 -15 10.9563
      vertex 9.69706 -15 9.69706
      vertex 10.7341 -15 9.75708
    endloop
  endfacet
  facet normal 0 -1 0
    outer loop
      vertex 10.4 -15 8
      vertex 10.7341 -15 9.75708
      vertex 9.69706 -15 9.69706
    endloop
  endfacet
  facet normal 0 -1 0
    outer loop
      vertex 10.4 -15 8
      vertex 11.25 -15 8
      vertex 10.7341 -15 9.75708
    endloop
  endfacet
  facet normal 0 -1 0
    outer loop
      vertex 10.7341 -15 6.24292
      vertex 10.4 -15 8
      vertex 9.69706 -15 6.30294
    endloop
  endfacet
  facet normal 0 -1 0
    outer loop
      vertex 10.4 -15 8
      vertex 10.7341 -15 6.24292
      vertex 11.25 -15 8
    endloop
  endfacet
  facet normal 0 -1 0
    outer loop
      vertex 9.3501 -15 5.0437
      vertex 9.69706 -15 6.30294
      vertex 8.5 -15 5.80711
    endloop
  endfacet
  facet normal 0 -1 -0
    outer loop
      vertex 9.69706 -15 6.30294
      vertex 9.3501 -15 5.0437
      vertex 10.7341 -15 6.24292
    endloop
  endfacet
  facet normal -0 -1 0
    outer loop
      vertex 9.3501 -15 5.0437
      vertex 8.5 -15 5.80711
      vertex 8.5 -15 4.92147
    endloop
  endfacet
  facet normal 0.142315 0 -0.989821
    outer loop
      vertex 8.5 -15 4.92147
      vertex 9.3501 -7 5.0437
      vertex 9.3501 -15 5.0437
    endloop
  endfacet
  facet normal 0.142315 0 -0.989821
    outer loop
      vertex 9.3501 -7 5.0437
      vertex 8.5 -15 4.92147
      vertex 8.5 -7 4.92147
    endloop
  endfacet
  facet normal 0.654861 0 -0.755749
    outer loop
      vertex 9.3501 -15 5.0437
      vertex 10.7341 -7 6.24292
      vertex 10.7341 -15 6.24292
    endloop
  endfacet
  facet normal 0.654861 0 -0.755749
    outer loop
      vertex 10.7341 -7 6.24292
      vertex 9.3501 -15 5.0437
      vertex 9.3501 -7 5.0437
    endloop
  endfacet
  facet normal 0.959493 0 -0.281733
    outer loop
      vertex 11.25 -15 8
      vertex 10.7341 -7 6.24292
      vertex 11.25 -7 8
    endloop
  endfacet
  facet normal 0.959493 0 -0.281733
    outer loop
      vertex 10.7341 -7 6.24292
      vertex 11.25 -15 8
      vertex 10.7341 -15 6.24292
    endloop
  endfacet
  facet normal -0.923879 0 -0.382684
    outer loop
      vertex 10.4 -15 8
      vertex 9.69706 -7 9.69706
      vertex 10.4 -7 8
    endloop
  endfacet
  facet normal -0.923879 -0 -0.382684
    outer loop
      vertex 9.69706 -7 9.69706
      vertex 10.4 -15 8
      vertex 9.69706 -15 9.69706
    endloop
  endfacet
  facet normal -0.382684 0 -0.923879
    outer loop
      vertex 8.5 -15 10.1929
      vertex 9.69706 -7 9.69706
      vertex 9.69706 -15 9.69706
    endloop
  endfacet
  facet normal -0.382684 0 -0.923879
    outer loop
      vertex 9.69706 -7 9.69706
      vertex 8.5 -15 10.1929
      vertex 8.5 -7 10.1929
    endloop
  endfacet
  facet normal -0.382683 0 0.92388
    outer loop
      vertex 8.5 -7 5.80711
      vertex 9.69706 -15 6.30294
      vertex 9.69706 -7 6.30294
    endloop
  endfacet
  facet normal -0.382683 0 0.92388
    outer loop
      vertex 9.69706 -15 6.30294
      vertex 8.5 -7 5.80711
      vertex 8.5 -15 5.80711
    endloop
  endfacet
  facet normal -0.923879 0 0.382684
    outer loop
      vertex 9.69706 -15 6.30294
      vertex 10.4 -7 8
      vertex 9.69706 -7 6.30294
    endloop
  endfacet
  facet normal -0.923879 0 0.382684
    outer loop
      vertex 10.4 -7 8
      vertex 9.69706 -15 6.30294
      vertex 10.4 -15 8
    endloop
  endfacet
  facet normal 0.959493 -0 0.281733
    outer loop
      vertex 10.7341 -15 17.7571
      vertex 11.25 -7 16
      vertex 10.7341 -7 17.7571
    endloop
  endfacet
  facet normal 0.959493 0 0.281733
    outer loop
      vertex 11.25 -7 16
      vertex 10.7341 -15 17.7571
      vertex 11.25 -15 16
    endloop
  endfacet
  facet normal 0.142316 0 0.989821
    outer loop
      vertex 8.5 -7 19.0785
      vertex 9.3501 -15 18.9563
      vertex 9.3501 -7 18.9563
    endloop
  endfacet
  facet normal 0.142316 0 0.989821
    outer loop
      vertex 9.3501 -15 18.9563
      vertex 8.5 -7 19.0785
      vertex 8.5 -15 19.0785
    endloop
  endfacet
  facet normal 0.654861 0 0.75575
    outer loop
      vertex 9.3501 -7 18.9563
      vertex 10.7341 -15 17.7571
      vertex 10.7341 -7 17.7571
    endloop
  endfacet
  facet normal 0.654861 0 0.75575
    outer loop
      vertex 10.7341 -15 17.7571
      vertex 9.3501 -7 18.9563
      vertex 9.3501 -15 18.9563
    endloop
  endfacet
  facet normal 0 -1 0
    outer loop
      vertex 8.5 -15 18.1929
      vertex 9.3501 -15 18.9563
      vertex 8.5 -15 19.0785
    endloop
  endfacet
  facet normal 0 -1 0
    outer loop
      vertex 9.69706 -15 17.6971
      vertex 9.3501 -15 18.9563
      vertex 8.5 -15 18.1929
    endloop
  endfacet
  facet normal 0 -1 0
    outer loop
      vertex 9.3501 -15 18.9563
      vertex 9.69706 -15 17.6971
      vertex 10.7341 -15 17.7571
    endloop
  endfacet
  facet normal 0 -1 0
    outer loop
      vertex 10.4 -15 16
      vertex 10.7341 -15 17.7571
      vertex 9.69706 -15 17.6971
    endloop
  endfacet
  facet normal 0 -1 0
    outer loop
      vertex 10.4 -15 16
      vertex 11.25 -15 16
      vertex 10.7341 -15 17.7571
    endloop
  endfacet
  facet normal 0 -1 0
    outer loop
      vertex 10.7341 -15 14.2429
      vertex 10.4 -15 16
      vertex 9.69706 -15 14.3029
    endloop
  endfacet
  facet normal 0 -1 0
    outer loop
      vertex 10.4 -15 16
      vertex 10.7341 -15 14.2429
      vertex 11.25 -15 16
    endloop
  endfacet
  facet normal 0 -1 0
    outer loop
      vertex 9.3501 -15 13.0437
      vertex 9.69706 -15 14.3029
      vertex 8.5 -15 13.8071
    endloop
  endfacet
  facet normal 0 -1 -0
    outer loop
      vertex 9.69706 -15 14.3029
      vertex 9.3501 -15 13.0437
      vertex 10.7341 -15 14.2429
    endloop
  endfacet
  facet normal -0 -1 0
    outer loop
      vertex 9.3501 -15 13.0437
      vertex 8.5 -15 13.8071
      vertex 8.5 -15 12.9215
    endloop
  endfacet
  facet normal 0.142315 0 -0.989821
    outer loop
      vertex 8.5 -15 12.9215
      vertex 9.3501 -7 13.0437
      vertex 9.3501 -15 13.0437
    endloop
  endfacet
  facet normal 0.142315 0 -0.989821
    outer loop
      vertex 9.3501 -7 13.0437
      vertex 8.5 -15 12.9215
      vertex 8.5 -7 12.9215
    endloop
  endfacet
  facet normal 0.654861 0 -0.755749
    outer loop
      vertex 9.3501 -15 13.0437
      vertex 10.7341 -7 14.2429
      vertex 10.7341 -15 14.2429
    endloop
  endfacet
  facet normal 0.654861 0 -0.755749
    outer loop
      vertex 10.7341 -7 14.2429
      vertex 9.3501 -15 13.0437
      vertex 9.3501 -7 13.0437
    endloop
  endfacet
  facet normal 0.959493 0 -0.281733
    outer loop
      vertex 11.25 -15 16
      vertex 10.7341 -7 14.2429
      vertex 11.25 -7 16
    endloop
  endfacet
  facet normal 0.959493 0 -0.281733
    outer loop
      vertex 10.7341 -7 14.2429
      vertex 11.25 -15 16
      vertex 10.7341 -15 14.2429
    endloop
  endfacet
  facet normal -0.923879 0 -0.382684
    outer loop
      vertex 10.4 -15 16
      vertex 9.69706 -7 17.6971
      vertex 10.4 -7 16
    endloop
  endfacet
  facet normal -0.923879 -0 -0.382684
    outer loop
      vertex 9.69706 -7 17.6971
      vertex 10.4 -15 16
      vertex 9.69706 -15 17.6971
    endloop
  endfacet
  facet normal -0.382683 0 -0.92388
    outer loop
      vertex 8.5 -15 18.1929
      vertex 9.69706 -7 17.6971
      vertex 9.69706 -15 17.6971
    endloop
  endfacet
  facet normal -0.382683 0 -0.92388
    outer loop
      vertex 9.69706 -7 17.6971
      vertex 8.5 -15 18.1929
      vertex 8.5 -7 18.1929
    endloop
  endfacet
  facet normal -0.382684 0 0.923879
    outer loop
      vertex 8.5 -7 13.8071
      vertex 9.69706 -15 14.3029
      vertex 9.69706 -7 14.3029
    endloop
  endfacet
  facet normal -0.382684 0 0.923879
    outer loop
      vertex 9.69706 -15 14.3029
      vertex 8.5 -7 13.8071
      vertex 8.5 -15 13.8071
    endloop
  endfacet
  facet normal -0.923879 0 0.382684
    outer loop
      vertex 9.69706 -15 14.3029
      vertex 10.4 -7 16
      vertex 9.69706 -7 14.3029
    endloop
  endfacet
  facet normal -0.923879 0 0.382684
    outer loop
      vertex 10.4 -7 16
      vertex 9.69706 -15 14.3029
      vertex 10.4 -15 16
    endloop
  endfacet
  facet normal 0.959493 -0 0.281733
    outer loop
      vertex 10.7341 -15 25.7571
      vertex 11.25 -7 24
      vertex 10.7341 -7 25.7571
    endloop
  endfacet
  facet normal 0.959493 0 0.281733
    outer loop
      vertex 11.25 -7 24
      vertex 10.7341 -15 25.7571
      vertex 11.25 -15 24
    endloop
  endfacet
  facet normal 0.142316 0 0.989821
    outer loop
      vertex 8.5 -7 27.0785
      vertex 9.3501 -15 26.9563
      vertex 9.3501 -7 26.9563
    endloop
  endfacet
  facet normal 0.142316 0 0.989821
    outer loop
      vertex 9.3501 -15 26.9563
      vertex 8.5 -7 27.0785
      vertex 8.5 -15 27.0785
    endloop
  endfacet
  facet normal 0.654861 0 0.75575
    outer loop
      vertex 9.3501 -7 26.9563
      vertex 10.7341 -15 25.7571
      vertex 10.7341 -7 25.7571
    endloop
  endfacet
  facet normal 0.654861 0 0.75575
    outer loop
      vertex 10.7341 -15 25.7571
      vertex 9.3501 -7 26.9563
      vertex 9.3501 -15 26.9563
    endloop
  endfacet
  facet normal 0 -1 0
    outer loop
      vertex 8.5 -15 26.1929
      vertex 9.3501 -15 26.9563
      vertex 8.5 -15 27.0785
    endloop
  endfacet
  facet normal 0 -1 0
    outer loop
      vertex 9.69706 -15 25.6971
      vertex 9.3501 -15 26.9563
      vertex 8.5 -15 26.1929
    endloop
  endfacet
  facet normal 0 -1 0
    outer loop
      vertex 9.3501 -15 26.9563
      vertex 9.69706 -15 25.6971
      vertex 10.7341 -15 25.7571
    endloop
  endfacet
  facet normal 0 -1 0
    outer loop
      vertex 10.4 -15 24
      vertex 10.7341 -15 25.7571
      vertex 9.69706 -15 25.6971
    endloop
  endfacet
  facet normal 0 -1 0
    outer loop
      vertex 10.4 -15 24
      vertex 11.25 -15 24
      vertex 10.7341 -15 25.7571
    endloop
  endfacet
  facet normal 0 -1 0
    outer loop
      vertex 10.7341 -15 22.2429
      vertex 10.4 -15 24
      vertex 9.69706 -15 22.3029
    endloop
  endfacet
  facet normal 0 -1 0
    outer loop
      vertex 10.4 -15 24
      vertex 10.7341 -15 22.2429
      vertex 11.25 -15 24
    endloop
  endfacet
  facet normal 0 -1 0
    outer loop
      vertex 9.3501 -15 21.0437
      vertex 9.69706 -15 22.3029
      vertex 8.5 -15 21.8071
    endloop
  endfacet
  facet normal 0 -1 -0
    outer loop
      vertex 9.69706 -15 22.3029
      vertex 9.3501 -15 21.0437
      vertex 10.7341 -15 22.2429
    endloop
  endfacet
  facet normal -0 -1 0
    outer loop
      vertex 9.3501 -15 21.0437
      vertex 8.5 -15 21.8071
      vertex 8.5 -15 20.9215
    endloop
  endfacet
  facet normal 0.142316 0 -0.989821
    outer loop
      vertex 8.5 -15 20.9215
      vertex 9.3501 -7 21.0437
      vertex 9.3501 -15 21.0437
    endloop
  endfacet
  facet normal 0.142316 0 -0.989821
    outer loop
      vertex 9.3501 -7 21.0437
      vertex 8.5 -15 20.9215
      vertex 8.5 -7 20.9215
    endloop
  endfacet
  facet normal 0.654861 0 -0.75575
    outer loop
      vertex 9.3501 -15 21.0437
      vertex 10.7341 -7 22.2429
      vertex 10.7341 -15 22.2429
    endloop
  endfacet
  facet normal 0.654861 0 -0.75575
    outer loop
      vertex 10.7341 -7 22.2429
      vertex 9.3501 -15 21.0437
      vertex 9.3501 -7 21.0437
    endloop
  endfacet
  facet normal 0.959493 0 -0.281733
    outer loop
      vertex 11.25 -15 24
      vertex 10.7341 -7 22.2429
      vertex 11.25 -7 24
    endloop
  endfacet
  facet normal 0.959493 0 -0.281733
    outer loop
      vertex 10.7341 -7 22.2429
      vertex 11.25 -15 24
      vertex 10.7341 -15 22.2429
    endloop
  endfacet
  facet normal -0.923879 0 -0.382684
    outer loop
      vertex 10.4 -15 24
      vertex 9.69706 -7 25.6971
      vertex 10.4 -7 24
    endloop
  endfacet
  facet normal -0.923879 -0 -0.382684
    outer loop
      vertex 9.69706 -7 25.6971
      vertex 10.4 -15 24
      vertex 9.69706 -15 25.6971
    endloop
  endfacet
  facet normal -0.382683 0 -0.92388
    outer loop
      vertex 8.5 -15 26.1929
      vertex 9.69706 -7 25.6971
      vertex 9.69706 -15 25.6971
    endloop
  endfacet
  facet normal -0.382683 0 -0.92388
    outer loop
      vertex 9.69706 -7 25.6971
      vertex 8.5 -15 26.1929
      vertex 8.5 -7 26.1929
    endloop
  endfacet
  facet normal -0.382683 0 0.92388
    outer loop
      vertex 8.5 -7 21.8071
      vertex 9.69706 -15 22.3029
      vertex 9.69706 -7 22.3029
    endloop
  endfacet
  facet normal -0.382683 0 0.92388
    outer loop
      vertex 9.69706 -15 22.3029
      vertex 8.5 -7 21.8071
      vertex 8.5 -15 21.8071
    endloop
  endfacet
  facet normal -0.923879 0 0.382684
    outer loop
      vertex 9.69706 -15 22.3029
      vertex 10.4 -7 24
      vertex 9.69706 -7 22.3029
    endloop
  endfacet
  facet normal -0.923879 0 0.382684
    outer loop
      vertex 10.4 -7 24
      vertex 9.69706 -15 22.3029
      vertex 10.4 -15 24
    endloop
  endfacet
  facet normal -1 0 0
    outer loop
      vertex 12.8816 -15 1.77636e-015
      vertex 12.8816 -7 0
      vertex 12.8816 -15 0
    endloop
  endfacet
  facet normal -1 0 0
    outer loop
      vertex 12.8816 -7 0
      vertex 12.8816 -15 1.77636e-015
      vertex 12.8816 -7 0.91563
    endloop
  endfacet
  facet normal -1 -0 0
    outer loop
      vertex 12.8816 -7 0.91563
      vertex 12.8816 -15 1.77636e-015
      vertex 12.8816 -15 0.91563
    endloop
  endfacet
  facet normal 0.142315 0 0.989821
    outer loop
      vertex 15.5375 -7 3.21692
      vertex 17 -15 3.00664
      vertex 17 -7 3.00664
    endloop
  endfacet
  facet normal 0.142315 0 0.989821
    outer loop
      vertex 17 -15 3.00664
      vertex 15.5375 -7 3.21692
      vertex 15.5375 -15 3.21692
    endloop
  endfacet
  facet normal 0 -1 -0
    outer loop
      vertex 15.5375 -15 3.21692
      vertex 14.3029 -15 1.69706
      vertex 16 -15 2.4
    endloop
  endfacet
  facet normal 0 -1 0
    outer loop
      vertex 12.8816 -15 0.91563
      vertex 14.3029 -15 1.69706
      vertex 13.8717 -15 2.45619
    endloop
  endfacet
  facet normal 0 -1 0
    outer loop
      vertex 13.6 -15 1.77636e-015
      vertex 12.8816 -15 0.91563
      vertex 12.8816 -15 1.77636e-015
    endloop
  endfacet
  facet normal 0 -1 0
    outer loop
      vertex 12.8816 -15 0.91563
      vertex 13.6 -15 1.77636e-015
      vertex 14.3029 -15 1.69706
    endloop
  endfacet
  facet normal 0 -1 0
    outer loop
      vertex 14.3029 -15 1.69706
      vertex 15.5375 -15 3.21692
      vertex 13.8717 -15 2.45619
    endloop
  endfacet
  facet normal 0 -1 0
    outer loop
      vertex 15.5375 -15 3.21692
      vertex 16 -15 2.4
      vertex 17 -15 3.00664
    endloop
  endfacet
  facet normal 0 -1 -0
    outer loop
      vertex 17 -15 3.00664
      vertex 16 -15 2.4
      vertex 17 -15 1.98579
    endloop
  endfacet
  facet normal -0.841253 0 0.540641
    outer loop
      vertex 12.8816 -15 0.91563
      vertex 13.8717 -7 2.45619
      vertex 12.8816 -7 0.91563
    endloop
  endfacet
  facet normal -0.841253 0 0.540641
    outer loop
      vertex 13.8717 -7 2.45619
      vertex 12.8816 -15 0.91563
      vertex 13.8717 -15 2.45619
    endloop
  endfacet
  facet normal -0.415415 0 0.909632
    outer loop
      vertex 13.8717 -7 2.45619
      vertex 15.5375 -15 3.21692
      vertex 15.5375 -7 3.21692
    endloop
  endfacet
  facet normal -0.415415 0 0.909632
    outer loop
      vertex 15.5375 -15 3.21692
      vertex 13.8717 -7 2.45619
      vertex 13.8717 -15 2.45619
    endloop
  endfacet
  facet normal 0.923879 0 -0.382684
    outer loop
      vertex 14.3029 -15 1.69706
      vertex 13.6 -7 0
      vertex 14.3029 -7 1.69706
    endloop
  endfacet
  facet normal 0.923879 -8.49728e-017 -0.382684
    outer loop
      vertex 13.6 -7 0
      vertex 14.3029 -15 1.69706
      vertex 13.6 -15 1.77636e-015
    endloop
  endfacet
  facet normal -0.382684 0 -0.923879
    outer loop
      vertex 16 -15 2.4
      vertex 17 -7 1.98579
      vertex 17 -15 1.98579
    endloop
  endfacet
  facet normal -0.382684 0 -0.923879
    outer loop
      vertex 17 -7 1.98579
      vertex 16 -15 2.4
      vertex 16 -7 2.4
    endloop
  endfacet
  facet normal 0.382684 0 -0.923879
    outer loop
      vertex 14.3029 -15 1.69706
      vertex 16 -7 2.4
      vertex 16 -15 2.4
    endloop
  endfacet
  facet normal 0.382684 0 -0.923879
    outer loop
      vertex 16 -7 2.4
      vertex 14.3029 -15 1.69706
      vertex 14.3029 -7 1.69706
    endloop
  endfacet
  facet normal 1 0 0
    outer loop
      vertex 13.6 -15 0
      vertex 13.6 -7 0
      vertex 13.6 -15 1.77636e-015
    endloop
  endfacet
  facet normal -1 0 0
    outer loop
      vertex 12.8816 -15 7.08437
      vertex 12.8816 -7 8.91563
      vertex 12.8816 -7 7.08437
    endloop
  endfacet
  facet normal -1 -0 0
    outer loop
      vertex 12.8816 -7 8.91563
      vertex 12.8816 -15 7.08437
      vertex 12.8816 -15 8.91563
    endloop
  endfacet
  facet normal 0.142315 0 0.989821
    outer loop
      vertex 15.5375 -7 11.2169
      vertex 17 -15 11.0066
      vertex 17 -7 11.0066
    endloop
  endfacet
  facet normal 0.142315 0 0.989821
    outer loop
      vertex 17 -15 11.0066
      vertex 15.5375 -7 11.2169
      vertex 15.5375 -15 11.2169
    endloop
  endfacet
  facet normal 0 -1 -0
    outer loop
      vertex 15.5375 -15 11.2169
      vertex 14.3029 -15 9.69706
      vertex 16 -15 10.4
    endloop
  endfacet
  facet normal 0 -1 0
    outer loop
      vertex 12.8816 -15 8.91563
      vertex 14.3029 -15 9.69706
      vertex 13.8717 -15 10.4562
    endloop
  endfacet
  facet normal 0 -1 0
    outer loop
      vertex 12.8816 -15 8.91563
      vertex 13.6 -15 8
      vertex 14.3029 -15 9.69706
    endloop
  endfacet
  facet normal 0 -1 0
    outer loop
      vertex 12.8816 -15 7.08437
      vertex 13.6 -15 8
      vertex 12.8816 -15 8.91563
    endloop
  endfacet
  facet normal 0 -1 0
    outer loop
      vertex 12.8816 -15 7.08437
      vertex 14.3029 -15 6.30294
      vertex 13.6 -15 8
    endloop
  endfacet
  facet normal 0 -1 0
    outer loop
      vertex 15.5375 -15 4.78308
      vertex 14.3029 -15 6.30294
      vertex 13.8717 -15 5.54381
    endloop
  endfacet
  facet normal 0 -1 0
    outer loop
      vertex 13.8717 -15 5.54381
      vertex 14.3029 -15 6.30294
      vertex 12.8816 -15 7.08437
    endloop
  endfacet
  facet normal 0 -1 0
    outer loop
      vertex 14.3029 -15 9.69706
      vertex 15.5375 -15 11.2169
      vertex 13.8717 -15 10.4562
    endloop
  endfacet
  facet normal 0 -1 0
    outer loop
      vertex 15.5375 -15 11.2169
      vertex 16 -15 10.4
      vertex 17 -15 11.0066
    endloop
  endfacet
  facet normal 0 -1 -0
    outer loop
      vertex 17 -15 11.0066
      vertex 16 -15 10.4
      vertex 17 -15 9.98579
    endloop
  endfacet
  facet normal 0 -1 0
    outer loop
      vertex 16 -15 5.6
      vertex 17 -15 4.99336
      vertex 17 -15 6.01421
    endloop
  endfacet
  facet normal 0 -1 0
    outer loop
      vertex 14.3029 -15 6.30294
      vertex 15.5375 -15 4.78308
      vertex 16 -15 5.6
    endloop
  endfacet
  facet normal 0 -1 -0
    outer loop
      vertex 16 -15 5.6
      vertex 15.5375 -15 4.78308
      vertex 17 -15 4.99336
    endloop
  endfacet
  facet normal 0.142315 0 -0.989821
    outer loop
      vertex 15.5375 -15 4.78308
      vertex 17 -7 4.99336
      vertex 17 -15 4.99336
    endloop
  endfacet
  facet normal 0.142315 0 -0.989821
    outer loop
      vertex 17 -7 4.99336
      vertex 15.5375 -15 4.78308
      vertex 15.5375 -7 4.78308
    endloop
  endfacet
  facet normal -0.841253 0 -0.540641
    outer loop
      vertex 13.8717 -15 5.54381
      vertex 12.8816 -7 7.08437
      vertex 13.8717 -7 5.54381
    endloop
  endfacet
  facet normal -0.841253 -0 -0.540641
    outer loop
      vertex 12.8816 -7 7.08437
      vertex 13.8717 -15 5.54381
      vertex 12.8816 -15 7.08437
    endloop
  endfacet
  facet normal -0.841253 0 0.540641
    outer loop
      vertex 12.8816 -15 8.91563
      vertex 13.8717 -7 10.4562
      vertex 12.8816 -7 8.91563
    endloop
  endfacet
  facet normal -0.841253 0 0.540641
    outer loop
      vertex 13.8717 -7 10.4562
      vertex 12.8816 -15 8.91563
      vertex 13.8717 -15 10.4562
    endloop
  endfacet
  facet normal -0.415415 0 0.909632
    outer loop
      vertex 13.8717 -7 10.4562
      vertex 15.5375 -15 11.2169
      vertex 15.5375 -7 11.2169
    endloop
  endfacet
  facet normal -0.415415 0 0.909632
    outer loop
      vertex 15.5375 -15 11.2169
      vertex 13.8717 -7 10.4562
      vertex 13.8717 -15 10.4562
    endloop
  endfacet
  facet normal -0.415415 0 -0.909632
    outer loop
      vertex 13.8717 -15 5.54381
      vertex 15.5375 -7 4.78308
      vertex 15.5375 -15 4.78308
    endloop
  endfacet
  facet normal -0.415415 0 -0.909632
    outer loop
      vertex 15.5375 -7 4.78308
      vertex 13.8717 -15 5.54381
      vertex 13.8717 -7 5.54381
    endloop
  endfacet
  facet normal 0.923879 0 -0.382684
    outer loop
      vertex 14.3029 -15 9.69706
      vertex 13.6 -7 8
      vertex 14.3029 -7 9.69706
    endloop
  endfacet
  facet normal 0.923879 0 -0.382684
    outer loop
      vertex 13.6 -7 8
      vertex 14.3029 -15 9.69706
      vertex 13.6 -15 8
    endloop
  endfacet
  facet normal -0.382684 0 -0.923879
    outer loop
      vertex 16 -15 10.4
      vertex 17 -7 9.98579
      vertex 17 -15 9.98579
    endloop
  endfacet
  facet normal -0.382684 0 -0.923879
    outer loop
      vertex 17 -7 9.98579
      vertex 16 -15 10.4
      vertex 16 -7 10.4
    endloop
  endfacet
  facet normal 0.382684 0 -0.923879
    outer loop
      vertex 14.3029 -15 9.69706
      vertex 16 -7 10.4
      vertex 16 -15 10.4
    endloop
  endfacet
  facet normal 0.382684 0 -0.923879
    outer loop
      vertex 16 -7 10.4
      vertex 14.3029 -15 9.69706
      vertex 14.3029 -7 9.69706
    endloop
  endfacet
  facet normal -0.382684 0 0.92388
    outer loop
      vertex 16 -7 5.6
      vertex 17 -15 6.01421
      vertex 17 -7 6.01421
    endloop
  endfacet
  facet normal -0.382684 0 0.92388
    outer loop
      vertex 17 -15 6.01421
      vertex 16 -7 5.6
      vertex 16 -15 5.6
    endloop
  endfacet
  facet normal 0.923879 -0 0.382684
    outer loop
      vertex 13.6 -15 8
      vertex 14.3029 -7 6.30294
      vertex 13.6 -7 8
    endloop
  endfacet
  facet normal 0.923879 0 0.382684
    outer loop
      vertex 14.3029 -7 6.30294
      vertex 13.6 -15 8
      vertex 14.3029 -15 6.30294
    endloop
  endfacet
  facet normal 0.382684 0 0.923879
    outer loop
      vertex 14.3029 -7 6.30294
      vertex 16 -15 5.6
      vertex 16 -7 5.6
    endloop
  endfacet
  facet normal 0.382684 0 0.923879
    outer loop
      vertex 16 -15 5.6
      vertex 14.3029 -7 6.30294
      vertex 14.3029 -15 6.30294
    endloop
  endfacet
  facet normal -1 0 0
    outer loop
      vertex 12.8816 -15 15.0844
      vertex 12.8816 -7 16.9156
      vertex 12.8816 -7 15.0844
    endloop
  endfacet
  facet normal -1 -0 0
    outer loop
      vertex 12.8816 -7 16.9156
      vertex 12.8816 -15 15.0844
      vertex 12.8816 -15 16.9156
    endloop
  endfacet
  facet normal 0.142315 0 0.989821
    outer loop
      vertex 15.5375 -7 19.2169
      vertex 17 -15 19.0066
      vertex 17 -7 19.0066
    endloop
  endfacet
  facet normal 0.142315 0 0.989821
    outer loop
      vertex 17 -15 19.0066
      vertex 15.5375 -7 19.2169
      vertex 15.5375 -15 19.2169
    endloop
  endfacet
  facet normal 0 -1 -0
    outer loop
      vertex 15.5375 -15 19.2169
      vertex 14.3029 -15 17.6971
      vertex 16 -15 18.4
    endloop
  endfacet
  facet normal 0 -1 0
    outer loop
      vertex 12.8816 -15 16.9156
      vertex 14.3029 -15 17.6971
      vertex 13.8717 -15 18.4562
    endloop
  endfacet
  facet normal 0 -1 0
    outer loop
      vertex 12.8816 -15 16.9156
      vertex 13.6 -15 16
      vertex 14.3029 -15 17.6971
    endloop
  endfacet
  facet normal 0 -1 0
    outer loop
      vertex 12.8816 -15 15.0844
      vertex 13.6 -15 16
      vertex 12.8816 -15 16.9156
    endloop
  endfacet
  facet normal 0 -1 0
    outer loop
      vertex 12.8816 -15 15.0844
      vertex 14.3029 -15 14.3029
      vertex 13.6 -15 16
    endloop
  endfacet
  facet normal 0 -1 0
    outer loop
      vertex 15.5375 -15 12.7831
      vertex 14.3029 -15 14.3029
      vertex 13.8717 -15 13.5438
    endloop
  endfacet
  facet normal 0 -1 0
    outer loop
      vertex 13.8717 -15 13.5438
      vertex 14.3029 -15 14.3029
      vertex 12.8816 -15 15.0844
    endloop
  endfacet
  facet normal 0 -1 0
    outer loop
      vertex 14.3029 -15 17.6971
      vertex 15.5375 -15 19.2169
      vertex 13.8717 -15 18.4562
    endloop
  endfacet
  facet normal 0 -1 0
    outer loop
      vertex 15.5375 -15 19.2169
      vertex 16 -15 18.4
      vertex 17 -15 19.0066
    endloop
  endfacet
  facet normal 0 -1 -0
    outer loop
      vertex 17 -15 19.0066
      vertex 16 -15 18.4
      vertex 17 -15 17.9858
    endloop
  endfacet
  facet normal 0 -1 0
    outer loop
      vertex 16 -15 13.6
      vertex 17 -15 12.9934
      vertex 17 -15 14.0142
    endloop
  endfacet
  facet normal 0 -1 0
    outer loop
      vertex 14.3029 -15 14.3029
      vertex 15.5375 -15 12.7831
      vertex 16 -15 13.6
    endloop
  endfacet
  facet normal 0 -1 -0
    outer loop
      vertex 16 -15 13.6
      vertex 15.5375 -15 12.7831
      vertex 17 -15 12.9934
    endloop
  endfacet
  facet normal 0.142315 0 -0.989821
    outer loop
      vertex 15.5375 -15 12.7831
      vertex 17 -7 12.9934
      vertex 17 -15 12.9934
    endloop
  endfacet
  facet normal 0.142315 0 -0.989821
    outer loop
      vertex 17 -7 12.9934
      vertex 15.5375 -15 12.7831
      vertex 15.5375 -7 12.7831
    endloop
  endfacet
  facet normal -0.841253 0 -0.540641
    outer loop
      vertex 13.8717 -15 13.5438
      vertex 12.8816 -7 15.0844
      vertex 13.8717 -7 13.5438
    endloop
  endfacet
  facet normal -0.841253 -0 -0.540641
    outer loop
      vertex 12.8816 -7 15.0844
      vertex 13.8717 -15 13.5438
      vertex 12.8816 -15 15.0844
    endloop
  endfacet
  facet normal -0.841253 0 0.540641
    outer loop
      vertex 12.8816 -15 16.9156
      vertex 13.8717 -7 18.4562
      vertex 12.8816 -7 16.9156
    endloop
  endfacet
  facet normal -0.841253 0 0.540641
    outer loop
      vertex 13.8717 -7 18.4562
      vertex 12.8816 -15 16.9156
      vertex 13.8717 -15 18.4562
    endloop
  endfacet
  facet normal -0.415415 0 0.909632
    outer loop
      vertex 13.8717 -7 18.4562
      vertex 15.5375 -15 19.2169
      vertex 15.5375 -7 19.2169
    endloop
  endfacet
  facet normal -0.415415 0 0.909632
    outer loop
      vertex 15.5375 -15 19.2169
      vertex 13.8717 -7 18.4562
      vertex 13.8717 -15 18.4562
    endloop
  endfacet
  facet normal -0.415415 0 -0.909632
    outer loop
      vertex 13.8717 -15 13.5438
      vertex 15.5375 -7 12.7831
      vertex 15.5375 -15 12.7831
    endloop
  endfacet
  facet normal -0.415415 0 -0.909632
    outer loop
      vertex 15.5375 -7 12.7831
      vertex 13.8717 -15 13.5438
      vertex 13.8717 -7 13.5438
    endloop
  endfacet
  facet normal 0.923879 0 -0.382684
    outer loop
      vertex 14.3029 -15 17.6971
      vertex 13.6 -7 16
      vertex 14.3029 -7 17.6971
    endloop
  endfacet
  facet normal 0.923879 0 -0.382684
    outer loop
      vertex 13.6 -7 16
      vertex 14.3029 -15 17.6971
      vertex 13.6 -15 16
    endloop
  endfacet
  facet normal -0.382683 0 -0.92388
    outer loop
      vertex 16 -15 18.4
      vertex 17 -7 17.9858
      vertex 17 -15 17.9858
    endloop
  endfacet
  facet normal -0.382683 0 -0.92388
    outer loop
      vertex 17 -7 17.9858
      vertex 16 -15 18.4
      vertex 16 -7 18.4
    endloop
  endfacet
  facet normal 0.382684 0 -0.923879
    outer loop
      vertex 14.3029 -15 17.6971
      vertex 16 -7 18.4
      vertex 16 -15 18.4
    endloop
  endfacet
  facet normal 0.382684 0 -0.923879
    outer loop
      vertex 16 -7 18.4
      vertex 14.3029 -15 17.6971
      vertex 14.3029 -7 17.6971
    endloop
  endfacet
  facet normal -0.382684 0 0.923879
    outer loop
      vertex 16 -7 13.6
      vertex 17 -15 14.0142
      vertex 17 -7 14.0142
    endloop
  endfacet
  facet normal -0.382684 0 0.923879
    outer loop
      vertex 17 -15 14.0142
      vertex 16 -7 13.6
      vertex 16 -15 13.6
    endloop
  endfacet
  facet normal 0.923879 -0 0.382684
    outer loop
      vertex 13.6 -15 16
      vertex 14.3029 -7 14.3029
      vertex 13.6 -7 16
    endloop
  endfacet
  facet normal 0.923879 0 0.382684
    outer loop
      vertex 14.3029 -7 14.3029
      vertex 13.6 -15 16
      vertex 14.3029 -15 14.3029
    endloop
  endfacet
  facet normal 0.382684 0 0.923879
    outer loop
      vertex 14.3029 -7 14.3029
      vertex 16 -15 13.6
      vertex 16 -7 13.6
    endloop
  endfacet
  facet normal 0.382684 0 0.923879
    outer loop
      vertex 16 -15 13.6
      vertex 14.3029 -7 14.3029
      vertex 14.3029 -15 14.3029
    endloop
  endfacet
  facet normal -1 0 0
    outer loop
      vertex 12.8816 -15 23.0844
      vertex 12.8816 -7 24.9156
      vertex 12.8816 -7 23.0844
    endloop
  endfacet
  facet normal -1 -0 0
    outer loop
      vertex 12.8816 -7 24.9156
      vertex 12.8816 -15 23.0844
      vertex 12.8816 -15 24.9156
    endloop
  endfacet
  facet normal 0.142315 0 0.989821
    outer loop
      vertex 15.5375 -7 27.2169
      vertex 17 -15 27.0066
      vertex 17 -7 27.0066
    endloop
  endfacet
  facet normal 0.142315 0 0.989821
    outer loop
      vertex 17 -15 27.0066
      vertex 15.5375 -7 27.2169
      vertex 15.5375 -15 27.2169
    endloop
  endfacet
  facet normal 0 -1 -0
    outer loop
      vertex 15.5375 -15 27.2169
      vertex 14.3029 -15 25.6971
      vertex 16 -15 26.4
    endloop
  endfacet
  facet normal 0 -1 0
    outer loop
      vertex 12.8816 -15 24.9156
      vertex 14.3029 -15 25.6971
      vertex 13.8717 -15 26.4562
    endloop
  endfacet
  facet normal 0 -1 0
    outer loop
      vertex 12.8816 -15 24.9156
      vertex 13.6 -15 24
      vertex 14.3029 -15 25.6971
    endloop
  endfacet
  facet normal 0 -1 0
    outer loop
      vertex 12.8816 -15 23.0844
      vertex 13.6 -15 24
      vertex 12.8816 -15 24.9156
    endloop
  endfacet
  facet normal 0 -1 0
    outer loop
      vertex 12.8816 -15 23.0844
      vertex 14.3029 -15 22.3029
      vertex 13.6 -15 24
    endloop
  endfacet
  facet normal 0 -1 0
    outer loop
      vertex 15.5375 -15 20.7831
      vertex 14.3029 -15 22.3029
      vertex 13.8717 -15 21.5438
    endloop
  endfacet
  facet normal 0 -1 0
    outer loop
      vertex 13.8717 -15 21.5438
      vertex 14.3029 -15 22.3029
      vertex 12.8816 -15 23.0844
    endloop
  endfacet
  facet normal 0 -1 0
    outer loop
      vertex 14.3029 -15 25.6971
      vertex 15.5375 -15 27.2169
      vertex 13.8717 -15 26.4562
    endloop
  endfacet
  facet normal 0 -1 0
    outer loop
      vertex 15.5375 -15 27.2169
      vertex 16 -15 26.4
      vertex 17 -15 27.0066
    endloop
  endfacet
  facet normal 0 -1 -0
    outer loop
      vertex 17 -15 27.0066
      vertex 16 -15 26.4
      vertex 17 -15 25.9858
    endloop
  endfacet
  facet normal 0 -1 0
    outer loop
      vertex 16 -15 21.6
      vertex 17 -15 20.9934
      vertex 17 -15 22.0142
    endloop
  endfacet
  facet normal 0 -1 0
    outer loop
      vertex 14.3029 -15 22.3029
      vertex 15.5375 -15 20.7831
      vertex 16 -15 21.6
    endloop
  endfacet
  facet normal 0 -1 -0
    outer loop
      vertex 16 -15 21.6
      vertex 15.5375 -15 20.7831
      vertex 17 -15 20.9934
    endloop
  endfacet
  facet normal 0.142315 0 -0.989821
    outer loop
      vertex 15.5375 -15 20.7831
      vertex 17 -7 20.9934
      vertex 17 -15 20.9934
    endloop
  endfacet
  facet normal 0.142315 0 -0.989821
    outer loop
      vertex 17 -7 20.9934
      vertex 15.5375 -15 20.7831
      vertex 15.5375 -7 20.7831
    endloop
  endfacet
  facet normal -0.841253 0 -0.540641
    outer loop
      vertex 13.8717 -15 21.5438
      vertex 12.8816 -7 23.0844
      vertex 13.8717 -7 21.5438
    endloop
  endfacet
  facet normal -0.841253 -0 -0.540641
    outer loop
      vertex 12.8816 -7 23.0844
      vertex 13.8717 -15 21.5438
      vertex 12.8816 -15 23.0844
    endloop
  endfacet
  facet normal -0.841253 0 0.540641
    outer loop
      vertex 12.8816 -15 24.9156
      vertex 13.8717 -7 26.4562
      vertex 12.8816 -7 24.9156
    endloop
  endfacet
  facet normal -0.841253 0 0.540641
    outer loop
      vertex 13.8717 -7 26.4562
      vertex 12.8816 -15 24.9156
      vertex 13.8717 -15 26.4562
    endloop
  endfacet
  facet normal -0.415415 0 0.909632
    outer loop
      vertex 13.8717 -7 26.4562
      vertex 15.5375 -15 27.2169
      vertex 15.5375 -7 27.2169
    endloop
  endfacet
  facet normal -0.415415 0 0.909632
    outer loop
      vertex 15.5375 -15 27.2169
      vertex 13.8717 -7 26.4562
      vertex 13.8717 -15 26.4562
    endloop
  endfacet
  facet normal -0.415415 0 -0.909632
    outer loop
      vertex 13.8717 -15 21.5438
      vertex 15.5375 -7 20.7831
      vertex 15.5375 -15 20.7831
    endloop
  endfacet
  facet normal -0.415415 0 -0.909632
    outer loop
      vertex 15.5375 -7 20.7831
      vertex 13.8717 -15 21.5438
      vertex 13.8717 -7 21.5438
    endloop
  endfacet
  facet normal 0.923879 0 -0.382684
    outer loop
      vertex 14.3029 -15 25.6971
      vertex 13.6 -7 24
      vertex 14.3029 -7 25.6971
    endloop
  endfacet
  facet normal 0.923879 0 -0.382684
    outer loop
      vertex 13.6 -7 24
      vertex 14.3029 -15 25.6971
      vertex 13.6 -15 24
    endloop
  endfacet
  facet normal -0.382683 0 -0.92388
    outer loop
      vertex 16 -15 26.4
      vertex 17 -7 25.9858
      vertex 17 -15 25.9858
    endloop
  endfacet
  facet normal -0.382683 0 -0.92388
    outer loop
      vertex 17 -7 25.9858
      vertex 16 -15 26.4
      vertex 16 -7 26.4
    endloop
  endfacet
  facet normal 0.382684 0 -0.923879
    outer loop
      vertex 14.3029 -15 25.6971
      vertex 16 -7 26.4
      vertex 16 -15 26.4
    endloop
  endfacet
  facet normal 0.382684 0 -0.923879
    outer loop
      vertex 16 -7 26.4
      vertex 14.3029 -15 25.6971
      vertex 14.3029 -7 25.6971
    endloop
  endfacet
  facet normal -0.382683 0 0.92388
    outer loop
      vertex 16 -7 21.6
      vertex 17 -15 22.0142
      vertex 17 -7 22.0142
    endloop
  endfacet
  facet normal -0.382683 0 0.92388
    outer loop
      vertex 17 -15 22.0142
      vertex 16 -7 21.6
      vertex 16 -15 21.6
    endloop
  endfacet
  facet normal 0.923879 -0 0.382684
    outer loop
      vertex 13.6 -15 24
      vertex 14.3029 -7 22.3029
      vertex 13.6 -7 24
    endloop
  endfacet
  facet normal 0.923879 0 0.382684
    outer loop
      vertex 14.3029 -7 22.3029
      vertex 13.6 -15 24
      vertex 14.3029 -15 22.3029
    endloop
  endfacet
  facet normal 0.382684 0 0.923879
    outer loop
      vertex 14.3029 -7 22.3029
      vertex 16 -15 21.6
      vertex 16 -7 21.6
    endloop
  endfacet
  facet normal 0.382684 0 0.923879
    outer loop
      vertex 16 -15 21.6
      vertex 14.3029 -7 22.3029
      vertex 14.3029 -15 22.3029
    endloop
  endfacet
  facet normal 0.959493 -0 0.281733
    outer loop
      vertex 10.7341 -15 33.7571
      vertex 11.25 -7 32
      vertex 10.7341 -7 33.7571
    endloop
  endfacet
  facet normal 0.959493 0 0.281733
    outer loop
      vertex 11.25 -7 32
      vertex 10.7341 -15 33.7571
      vertex 11.25 -15 32
    endloop
  endfacet
  facet normal 0.142316 0 0.989821
    outer loop
      vertex 8.5 -7 35.0785
      vertex 9.3501 -15 34.9563
      vertex 9.3501 -7 34.9563
    endloop
  endfacet
  facet normal 0.142316 0 0.989821
    outer loop
      vertex 9.3501 -15 34.9563
      vertex 8.5 -7 35.0785
      vertex 8.5 -15 35.0785
    endloop
  endfacet
  facet normal 0.654861 0 0.755749
    outer loop
      vertex 9.3501 -7 34.9563
      vertex 10.7341 -15 33.7571
      vertex 10.7341 -7 33.7571
    endloop
  endfacet
  facet normal 0.654861 0 0.755749
    outer loop
      vertex 10.7341 -15 33.7571
      vertex 9.3501 -7 34.9563
      vertex 9.3501 -15 34.9563
    endloop
  endfacet
  facet normal 0 -1 0
    outer loop
      vertex 8.5 -15 34.1929
      vertex 9.3501 -15 34.9563
      vertex 8.5 -15 35.0785
    endloop
  endfacet
  facet normal 0 -1 0
    outer loop
      vertex 9.69706 -15 33.6971
      vertex 9.3501 -15 34.9563
      vertex 8.5 -15 34.1929
    endloop
  endfacet
  facet normal 0 -1 0
    outer loop
      vertex 9.3501 -15 34.9563
      vertex 9.69706 -15 33.6971
      vertex 10.7341 -15 33.7571
    endloop
  endfacet
  facet normal 0 -1 0
    outer loop
      vertex 10.4 -15 32
      vertex 10.7341 -15 33.7571
      vertex 9.69706 -15 33.6971
    endloop
  endfacet
  facet normal 0 -1 0
    outer loop
      vertex 10.4 -15 32
      vertex 11.25 -15 32
      vertex 10.7341 -15 33.7571
    endloop
  endfacet
  facet normal 0 -1 0
    outer loop
      vertex 10.7341 -15 30.2429
      vertex 10.4 -15 32
      vertex 9.69706 -15 30.3029
    endloop
  endfacet
  facet normal 0 -1 0
    outer loop
      vertex 10.4 -15 32
      vertex 10.7341 -15 30.2429
      vertex 11.25 -15 32
    endloop
  endfacet
  facet normal 0 -1 0
    outer loop
      vertex 9.3501 -15 29.0437
      vertex 9.69706 -15 30.3029
      vertex 8.5 -15 29.8071
    endloop
  endfacet
  facet normal 0 -1 -0
    outer loop
      vertex 9.69706 -15 30.3029
      vertex 9.3501 -15 29.0437
      vertex 10.7341 -15 30.2429
    endloop
  endfacet
  facet normal -0 -1 0
    outer loop
      vertex 9.3501 -15 29.0437
      vertex 8.5 -15 29.8071
      vertex 8.5 -15 28.9215
    endloop
  endfacet
  facet normal 0.142316 0 -0.989821
    outer loop
      vertex 8.5 -15 28.9215
      vertex 9.3501 -7 29.0437
      vertex 9.3501 -15 29.0437
    endloop
  endfacet
  facet normal 0.142316 0 -0.989821
    outer loop
      vertex 9.3501 -7 29.0437
      vertex 8.5 -15 28.9215
      vertex 8.5 -7 28.9215
    endloop
  endfacet
  facet normal 0.654861 0 -0.75575
    outer loop
      vertex 9.3501 -15 29.0437
      vertex 10.7341 -7 30.2429
      vertex 10.7341 -15 30.2429
    endloop
  endfacet
  facet normal 0.654861 0 -0.75575
    outer loop
      vertex 10.7341 -7 30.2429
      vertex 9.3501 -15 29.0437
      vertex 9.3501 -7 29.0437
    endloop
  endfacet
  facet normal 0.959493 0 -0.281733
    outer loop
      vertex 11.25 -15 32
      vertex 10.7341 -7 30.2429
      vertex 11.25 -7 32
    endloop
  endfacet
  facet normal 0.959493 0 -0.281733
    outer loop
      vertex 10.7341 -7 30.2429
      vertex 11.25 -15 32
      vertex 10.7341 -15 30.2429
    endloop
  endfacet
  facet normal -0.923879 0 -0.382684
    outer loop
      vertex 10.4 -15 32
      vertex 9.69706 -7 33.6971
      vertex 10.4 -7 32
    endloop
  endfacet
  facet normal -0.923879 -0 -0.382684
    outer loop
      vertex 9.69706 -7 33.6971
      vertex 10.4 -15 32
      vertex 9.69706 -15 33.6971
    endloop
  endfacet
  facet normal -0.382684 0 -0.923879
    outer loop
      vertex 8.5 -15 34.1929
      vertex 9.69706 -7 33.6971
      vertex 9.69706 -15 33.6971
    endloop
  endfacet
  facet normal -0.382684 0 -0.923879
    outer loop
      vertex 9.69706 -7 33.6971
      vertex 8.5 -15 34.1929
      vertex 8.5 -7 34.1929
    endloop
  endfacet
  facet normal -0.382683 0 0.92388
    outer loop
      vertex 8.5 -7 29.8071
      vertex 9.69706 -15 30.3029
      vertex 9.69706 -7 30.3029
    endloop
  endfacet
  facet normal -0.382683 0 0.92388
    outer loop
      vertex 9.69706 -15 30.3029
      vertex 8.5 -7 29.8071
      vertex 8.5 -15 29.8071
    endloop
  endfacet
  facet normal -0.923879 0 0.382684
    outer loop
      vertex 9.69706 -15 30.3029
      vertex 10.4 -7 32
      vertex 9.69706 -7 30.3029
    endloop
  endfacet
  facet normal -0.923879 0 0.382684
    outer loop
      vertex 10.4 -7 32
      vertex 9.69706 -15 30.3029
      vertex 10.4 -15 32
    endloop
  endfacet
  facet normal 0 -1 0
    outer loop
      vertex 9.3501 -15 37.0437
      vertex 8.96568 -15 38
      vertex 8.5 -15 37.8071
    endloop
  endfacet
  facet normal 0 -1 0
    outer loop
      vertex 8.96568 -15 38
      vertex 9.3501 -15 37.0437
      vertex 10.4537 -15 38
    endloop
  endfacet
  facet normal -0 -1 0
    outer loop
      vertex 9.3501 -15 37.0437
      vertex 8.5 -15 37.8071
      vertex 8.5 -15 36.9215
    endloop
  endfacet
  facet normal 0.142316 0 -0.989821
    outer loop
      vertex 8.5 -15 36.9215
      vertex 9.3501 -7 37.0437
      vertex 9.3501 -15 37.0437
    endloop
  endfacet
  facet normal 0.142316 0 -0.989821
    outer loop
      vertex 9.3501 -7 37.0437
      vertex 8.5 -15 36.9215
      vertex 8.5 -7 36.9215
    endloop
  endfacet
  facet normal 0.65486 0 -0.75575
    outer loop
      vertex 9.3501 -15 37.0437
      vertex 10.4537 -7 38
      vertex 10.4537 -15 38
    endloop
  endfacet
  facet normal 0.65486 0 -0.75575
    outer loop
      vertex 10.4537 -7 38
      vertex 9.3501 -15 37.0437
      vertex 9.3501 -7 37.0437
    endloop
  endfacet
  facet normal -0.382686 0 0.923879
    outer loop
      vertex 8.5 -7 37.8071
      vertex 8.96568 -15 38
      vertex 8.96568 -7 38
    endloop
  endfacet
  facet normal -0.382686 0 0.923879
    outer loop
      vertex 8.96568 -15 38
      vertex 8.5 -7 37.8071
      vertex 8.5 -15 37.8071
    endloop
  endfacet
  facet normal -1 0 0
    outer loop
      vertex 12.8816 -15 31.0844
      vertex 12.8816 -7 32.9156
      vertex 12.8816 -7 31.0844
    endloop
  endfacet
  facet normal -1 -0 0
    outer loop
      vertex 12.8816 -7 32.9156
      vertex 12.8816 -15 31.0844
      vertex 12.8816 -15 32.9156
    endloop
  endfacet
  facet normal 0.142314 0 0.989822
    outer loop
      vertex 15.5375 -7 35.2169
      vertex 17 -15 35.0066
      vertex 17 -7 35.0066
    endloop
  endfacet
  facet normal 0.142314 0 0.989822
    outer loop
      vertex 17 -15 35.0066
      vertex 15.5375 -7 35.2169
      vertex 15.5375 -15 35.2169
    endloop
  endfacet
  facet normal 0 -1 -0
    outer loop
      vertex 15.5375 -15 35.2169
      vertex 14.3029 -15 33.6971
      vertex 16 -15 34.4
    endloop
  endfacet
  facet normal 0 -1 0
    outer loop
      vertex 12.8816 -15 32.9156
      vertex 14.3029 -15 33.6971
      vertex 13.8717 -15 34.4562
    endloop
  endfacet
  facet normal 0 -1 0
    outer loop
      vertex 12.8816 -15 32.9156
      vertex 13.6 -15 32
      vertex 14.3029 -15 33.6971
    endloop
  endfacet
  facet normal 0 -1 0
    outer loop
      vertex 12.8816 -15 31.0844
      vertex 13.6 -15 32
      vertex 12.8816 -15 32.9156
    endloop
  endfacet
  facet normal 0 -1 0
    outer loop
      vertex 12.8816 -15 31.0844
      vertex 14.3029 -15 30.3029
      vertex 13.6 -15 32
    endloop
  endfacet
  facet normal 0 -1 0
    outer loop
      vertex 15.5375 -15 28.7831
      vertex 14.3029 -15 30.3029
      vertex 13.8717 -15 29.5438
    endloop
  endfacet
  facet normal 0 -1 0
    outer loop
      vertex 13.8717 -15 29.5438
      vertex 14.3029 -15 30.3029
      vertex 12.8816 -15 31.0844
    endloop
  endfacet
  facet normal 0 -1 0
    outer loop
      vertex 14.3029 -15 33.6971
      vertex 15.5375 -15 35.2169
      vertex 13.8717 -15 34.4562
    endloop
  endfacet
  facet normal 0 -1 0
    outer loop
      vertex 15.5375 -15 35.2169
      vertex 16 -15 34.4
      vertex 17 -15 35.0066
    endloop
  endfacet
  facet normal 0 -1 -0
    outer loop
      vertex 17 -15 35.0066
      vertex 16 -15 34.4
      vertex 17 -15 33.9858
    endloop
  endfacet
  facet normal 0 -1 0
    outer loop
      vertex 16 -15 29.6
      vertex 17 -15 28.9934
      vertex 17 -15 30.0142
    endloop
  endfacet
  facet normal 0 -1 0
    outer loop
      vertex 14.3029 -15 30.3029
      vertex 15.5375 -15 28.7831
      vertex 16 -15 29.6
    endloop
  endfacet
  facet normal 0 -1 -0
    outer loop
      vertex 16 -15 29.6
      vertex 15.5375 -15 28.7831
      vertex 17 -15 28.9934
    endloop
  endfacet
  facet normal 0.142315 0 -0.989821
    outer loop
      vertex 15.5375 -15 28.7831
      vertex 17 -7 28.9934
      vertex 17 -15 28.9934
    endloop
  endfacet
  facet normal 0.142315 0 -0.989821
    outer loop
      vertex 17 -7 28.9934
      vertex 15.5375 -15 28.7831
      vertex 15.5375 -7 28.7831
    endloop
  endfacet
  facet normal -0.841253 0 -0.540641
    outer loop
      vertex 13.8717 -15 29.5438
      vertex 12.8816 -7 31.0844
      vertex 13.8717 -7 29.5438
    endloop
  endfacet
  facet normal -0.841253 -0 -0.540641
    outer loop
      vertex 12.8816 -7 31.0844
      vertex 13.8717 -15 29.5438
      vertex 12.8816 -15 31.0844
    endloop
  endfacet
  facet normal -0.841253 0 0.540641
    outer loop
      vertex 12.8816 -15 32.9156
      vertex 13.8717 -7 34.4562
      vertex 12.8816 -7 32.9156
    endloop
  endfacet
  facet normal -0.841253 0 0.540641
    outer loop
      vertex 13.8717 -7 34.4562
      vertex 12.8816 -15 32.9156
      vertex 13.8717 -15 34.4562
    endloop
  endfacet
  facet normal -0.415415 0 0.909632
    outer loop
      vertex 13.8717 -7 34.4562
      vertex 15.5375 -15 35.2169
      vertex 15.5375 -7 35.2169
    endloop
  endfacet
  facet normal -0.415415 0 0.909632
    outer loop
      vertex 15.5375 -15 35.2169
      vertex 13.8717 -7 34.4562
      vertex 13.8717 -15 34.4562
    endloop
  endfacet
  facet normal -0.415415 0 -0.909632
    outer loop
      vertex 13.8717 -15 29.5438
      vertex 15.5375 -7 28.7831
      vertex 15.5375 -15 28.7831
    endloop
  endfacet
  facet normal -0.415415 0 -0.909632
    outer loop
      vertex 15.5375 -7 28.7831
      vertex 13.8717 -15 29.5438
      vertex 13.8717 -7 29.5438
    endloop
  endfacet
  facet normal 0.923879 0 -0.382684
    outer loop
      vertex 14.3029 -15 33.6971
      vertex 13.6 -7 32
      vertex 14.3029 -7 33.6971
    endloop
  endfacet
  facet normal 0.923879 0 -0.382684
    outer loop
      vertex 13.6 -7 32
      vertex 14.3029 -15 33.6971
      vertex 13.6 -15 32
    endloop
  endfacet
  facet normal -0.382685 0 -0.923879
    outer loop
      vertex 16 -15 34.4
      vertex 17 -7 33.9858
      vertex 17 -15 33.9858
    endloop
  endfacet
  facet normal -0.382685 0 -0.923879
    outer loop
      vertex 17 -7 33.9858
      vertex 16 -15 34.4
      vertex 16 -7 34.4
    endloop
  endfacet
  facet normal 0.382684 0 -0.923879
    outer loop
      vertex 14.3029 -15 33.6971
      vertex 16 -7 34.4
      vertex 16 -15 34.4
    endloop
  endfacet
  facet normal 0.382684 0 -0.923879
    outer loop
      vertex 16 -7 34.4
      vertex 14.3029 -15 33.6971
      vertex 14.3029 -7 33.6971
    endloop
  endfacet
  facet normal -0.382683 0 0.92388
    outer loop
      vertex 16 -7 29.6
      vertex 17 -15 30.0142
      vertex 17 -7 30.0142
    endloop
  endfacet
  facet normal -0.382683 0 0.92388
    outer loop
      vertex 17 -15 30.0142
      vertex 16 -7 29.6
      vertex 16 -15 29.6
    endloop
  endfacet
  facet normal 0.923879 -0 0.382684
    outer loop
      vertex 13.6 -15 32
      vertex 14.3029 -7 30.3029
      vertex 13.6 -7 32
    endloop
  endfacet
  facet normal 0.923879 0 0.382684
    outer loop
      vertex 14.3029 -7 30.3029
      vertex 13.6 -15 32
      vertex 14.3029 -15 30.3029
    endloop
  endfacet
  facet normal 0.382684 0 0.923879
    outer loop
      vertex 14.3029 -7 30.3029
      vertex 16 -15 29.6
      vertex 16 -7 29.6
    endloop
  endfacet
  facet normal 0.382684 0 0.923879
    outer loop
      vertex 16 -15 29.6
      vertex 14.3029 -7 30.3029
      vertex 14.3029 -15 30.3029
    endloop
  endfacet
  facet normal 0 -1 0
    outer loop
      vertex 13.8717 -15 37.5438
      vertex 15.0343 -15 38
      vertex 13.5785 -15 38
    endloop
  endfacet
  facet normal 0 -1 0
    outer loop
      vertex 15.5375 -15 36.7831
      vertex 15.0343 -15 38
      vertex 13.8717 -15 37.5438
    endloop
  endfacet
  facet normal 0 -1 0
    outer loop
      vertex 17 -15 36.9934
      vertex 16.9657 -15 38
      vertex 16 -15 37.6
    endloop
  endfacet
  facet normal 0 -1 0
    outer loop
      vertex 16.9657 -15 38
      vertex 17 -15 36.9934
      vertex 17 -15 38
    endloop
  endfacet
  facet normal 0 -1 0
    outer loop
      vertex 15.0343 -15 38
      vertex 15.5375 -15 36.7831
      vertex 16 -15 37.6
    endloop
  endfacet
  facet normal 0 -1 -0
    outer loop
      vertex 16 -15 37.6
      vertex 15.5375 -15 36.7831
      vertex 17 -15 36.9934
    endloop
  endfacet
  facet normal 0.142314 0 -0.989822
    outer loop
      vertex 15.5375 -15 36.7831
      vertex 17 -7 36.9934
      vertex 17 -15 36.9934
    endloop
  endfacet
  facet normal 0.142314 0 -0.989822
    outer loop
      vertex 17 -7 36.9934
      vertex 15.5375 -15 36.7831
      vertex 15.5375 -7 36.7831
    endloop
  endfacet
  facet normal -0.841253 0 -0.540642
    outer loop
      vertex 13.8717 -15 37.5438
      vertex 13.5785 -7 38
      vertex 13.8717 -7 37.5438
    endloop
  endfacet
  facet normal -0.841253 -0 -0.540642
    outer loop
      vertex 13.5785 -7 38
      vertex 13.8717 -15 37.5438
      vertex 13.5785 -15 38
    endloop
  endfacet
  facet normal -0.415415 0 -0.909632
    outer loop
      vertex 13.8717 -15 37.5438
      vertex 15.5375 -7 36.7831
      vertex 15.5375 -15 36.7831
    endloop
  endfacet
  facet normal -0.415415 0 -0.909632
    outer loop
      vertex 15.5375 -7 36.7831
      vertex 13.8717 -15 37.5438
      vertex 13.8717 -7 37.5438
    endloop
  endfacet
  facet normal -0.382685 0 0.923879
    outer loop
      vertex 16 -7 37.6
      vertex 16.9657 -15 38
      vertex 16.9657 -7 38
    endloop
  endfacet
  facet normal -0.382685 0 0.923879
    outer loop
      vertex 16.9657 -15 38
      vertex 16 -7 37.6
      vertex 16 -15 37.6
    endloop
  endfacet
  facet normal 0.382685 0 0.923879
    outer loop
      vertex 15.0343 -7 38
      vertex 16 -15 37.6
      vertex 16 -7 37.6
    endloop
  endfacet
  facet normal 0.382685 0 0.923879
    outer loop
      vertex 16 -15 37.6
      vertex 15.0343 -7 38
      vertex 15.0343 -15 38
    endloop
  endfacet
  facet normal 0 0 1
    outer loop
      vertex 17 0 38
      vertex 16.9657 -7 38
      vertex 17 -15 38
    endloop
  endfacet
  facet normal 0 0 1
    outer loop
      vertex 17 0 38
      vertex 15.0343 -7 38
      vertex 16.9657 -7 38
    endloop
  endfacet
  facet normal 0 0 1
    outer loop
      vertex 15.0343 -7 38
      vertex 13.5785 -7 38
      vertex 15.0343 -15 38
    endloop
  endfacet
  facet normal 0 0 1
    outer loop
      vertex 17 0 38
      vertex 13.5785 -7 38
      vertex 15.0343 -7 38
    endloop
  endfacet
  facet normal -0 0 1
    outer loop
      vertex 8.5 0 38
      vertex 13.5785 -7 38
      vertex 17 0 38
    endloop
  endfacet
  facet normal 0 0 1
    outer loop
      vertex 10.4537 -7 38
      vertex 8.96568 -7 38
      vertex 10.4537 -15 38
    endloop
  endfacet
  facet normal 0 0 1
    outer loop
      vertex 13.5785 -7 38
      vertex 8.5 0 38
      vertex 10.4537 -7 38
    endloop
  endfacet
  facet normal 0 0 1
    outer loop
      vertex 10.4537 -7 38
      vertex 8.5 0 38
      vertex 8.96568 -7 38
    endloop
  endfacet
  facet normal 0 0 1
    outer loop
      vertex 8.96568 -7 38
      vertex 8.5 0 38
      vertex 8.5 -7 38
    endloop
  endfacet
  facet normal 0 0 1
    outer loop
      vertex 17 -15 38
      vertex 16.9657 -7 38
      vertex 16.9657 -15 38
    endloop
  endfacet
  facet normal 0 0 1
    outer loop
      vertex 15.0343 -15 38
      vertex 13.5785 -7 38
      vertex 13.5785 -15 38
    endloop
  endfacet
  facet normal 0 0 1
    outer loop
      vertex 10.4537 -15 38
      vertex 8.96568 -7 38
      vertex 8.96568 -15 38
    endloop
  endfacet
  facet normal 0 -1 0
    outer loop
      vertex 17 -7 0
      vertex 16 -7 2.4
      vertex 14.3029 -7 1.69706
    endloop
  endfacet
  facet normal 0 -1 0
    outer loop
      vertex 17 -7 0
      vertex 14.3029 -7 1.69706
      vertex 13.6 -7 0
    endloop
  endfacet
  facet normal 0 -1 0
    outer loop
      vertex 16 -7 2.4
      vertex 17 -7 0
      vertex 17 -7 1.98579
    endloop
  endfacet
  facet normal 0 -1 0
    outer loop
      vertex 10.4537 -7 38
      vertex 13.8717 -7 37.5438
      vertex 13.5785 -7 38
    endloop
  endfacet
  facet normal 0 -1 0
    outer loop
      vertex 9.3501 -7 34.9563
      vertex 10.4537 -7 38
      vertex 9.3501 -7 37.0437
    endloop
  endfacet
  facet normal 0 -1 0
    outer loop
      vertex 9.3501 -7 34.9563
      vertex 9.3501 -7 37.0437
      vertex 8.5 -7 36.9215
    endloop
  endfacet
  facet normal 0 -1 -0
    outer loop
      vertex 10.4537 -7 38
      vertex 9.3501 -7 34.9563
      vertex 10.7341 -7 33.7571
    endloop
  endfacet
  facet normal 0 -1 0
    outer loop
      vertex 13.8717 -7 37.5438
      vertex 13.8717 -7 34.4562
      vertex 15.5375 -7 36.7831
    endloop
  endfacet
  facet normal 0 -1 0
    outer loop
      vertex 9.3501 -7 34.9563
      vertex 8.5 -7 36.9215
      vertex 8.5 -7 35.0785
    endloop
  endfacet
  facet normal -0 -1 0
    outer loop
      vertex 13.8717 -7 34.4562
      vertex 10.4537 -7 38
      vertex 10.7341 -7 33.7571
    endloop
  endfacet
  facet normal 0 -1 -0
    outer loop
      vertex 15.5375 -7 36.7831
      vertex 13.8717 -7 34.4562
      vertex 15.5375 -7 35.2169
    endloop
  endfacet
  facet normal 0 -1 0
    outer loop
      vertex 10.4537 -7 38
      vertex 13.8717 -7 34.4562
      vertex 13.8717 -7 37.5438
    endloop
  endfacet
  facet normal 0 -1 0
    outer loop
      vertex 10.7341 -7 33.7571
      vertex 12.8816 -7 32.9156
      vertex 13.8717 -7 34.4562
    endloop
  endfacet
  facet normal 0 -1 0
    outer loop
      vertex 11.25 -7 32
      vertex 12.8816 -7 32.9156
      vertex 10.7341 -7 33.7571
    endloop
  endfacet
  facet normal 0 -1 0
    outer loop
      vertex 11.25 -7 32
      vertex 12.8816 -7 31.0844
      vertex 12.8816 -7 32.9156
    endloop
  endfacet
  facet normal 0 -1 0
    outer loop
      vertex 10.7341 -7 30.2429
      vertex 12.8816 -7 31.0844
      vertex 11.25 -7 32
    endloop
  endfacet
  facet normal 0 -1 0
    outer loop
      vertex 10.7341 -7 30.2429
      vertex 13.8717 -7 29.5438
      vertex 12.8816 -7 31.0844
    endloop
  endfacet
  facet normal 0 -1 0
    outer loop
      vertex 10.7341 -7 25.7571
      vertex 10.7341 -7 30.2429
      vertex 9.3501 -7 29.0437
    endloop
  endfacet
  facet normal 0 -1 0
    outer loop
      vertex 9.3501 -7 26.9563
      vertex 9.3501 -7 29.0437
      vertex 8.5 -7 28.9215
    endloop
  endfacet
  facet normal 0 -1 0
    outer loop
      vertex 10.7341 -7 25.7571
      vertex 9.3501 -7 29.0437
      vertex 9.3501 -7 26.9563
    endloop
  endfacet
  facet normal 0 -1 0
    outer loop
      vertex 13.8717 -7 29.5438
      vertex 13.8717 -7 26.4562
      vertex 15.5375 -7 28.7831
    endloop
  endfacet
  facet normal 0 -1 0
    outer loop
      vertex 9.3501 -7 26.9563
      vertex 8.5 -7 28.9215
      vertex 8.5 -7 27.0785
    endloop
  endfacet
  facet normal 0 -1 0
    outer loop
      vertex 10.7341 -7 30.2429
      vertex 10.7341 -7 25.7571
      vertex 13.8717 -7 29.5438
    endloop
  endfacet
  facet normal 0 -1 -0
    outer loop
      vertex 15.5375 -7 28.7831
      vertex 13.8717 -7 26.4562
      vertex 15.5375 -7 27.2169
    endloop
  endfacet
  facet normal 0 -1 -0
    outer loop
      vertex 13.8717 -7 29.5438
      vertex 10.7341 -7 25.7571
      vertex 13.8717 -7 26.4562
    endloop
  endfacet
  facet normal 0 -1 0
    outer loop
      vertex 10.7341 -7 25.7571
      vertex 12.8816 -7 24.9156
      vertex 13.8717 -7 26.4562
    endloop
  endfacet
  facet normal 0 -1 0
    outer loop
      vertex 11.25 -7 24
      vertex 12.8816 -7 24.9156
      vertex 10.7341 -7 25.7571
    endloop
  endfacet
  facet normal 0 -1 0
    outer loop
      vertex 11.25 -7 24
      vertex 12.8816 -7 23.0844
      vertex 12.8816 -7 24.9156
    endloop
  endfacet
  facet normal 0 -1 0
    outer loop
      vertex 10.7341 -7 22.2429
      vertex 12.8816 -7 23.0844
      vertex 11.25 -7 24
    endloop
  endfacet
  facet normal 0 -1 0
    outer loop
      vertex 10.7341 -7 22.2429
      vertex 13.8717 -7 21.5438
      vertex 12.8816 -7 23.0844
    endloop
  endfacet
  facet normal 0 -1 0
    outer loop
      vertex 10.7341 -7 17.7571
      vertex 10.7341 -7 22.2429
      vertex 9.3501 -7 21.0437
    endloop
  endfacet
  facet normal 0 -1 0
    outer loop
      vertex 9.3501 -7 18.9563
      vertex 9.3501 -7 21.0437
      vertex 8.5 -7 20.9215
    endloop
  endfacet
  facet normal 0 -1 0
    outer loop
      vertex 10.7341 -7 17.7571
      vertex 9.3501 -7 21.0437
      vertex 9.3501 -7 18.9563
    endloop
  endfacet
  facet normal 0 -1 0
    outer loop
      vertex 13.8717 -7 21.5438
      vertex 13.8717 -7 18.4562
      vertex 15.5375 -7 20.7831
    endloop
  endfacet
  facet normal 0 -1 0
    outer loop
      vertex 9.3501 -7 18.9563
      vertex 8.5 -7 20.9215
      vertex 8.5 -7 19.0785
    endloop
  endfacet
  facet normal 0 -1 0
    outer loop
      vertex 10.7341 -7 22.2429
      vertex 10.7341 -7 17.7571
      vertex 13.8717 -7 21.5438
    endloop
  endfacet
  facet normal 0 -1 -0
    outer loop
      vertex 15.5375 -7 20.7831
      vertex 13.8717 -7 18.4562
      vertex 15.5375 -7 19.2169
    endloop
  endfacet
  facet normal 0 -1 -0
    outer loop
      vertex 13.8717 -7 21.5438
      vertex 10.7341 -7 17.7571
      vertex 13.8717 -7 18.4562
    endloop
  endfacet
  facet normal 0 -1 0
    outer loop
      vertex 10.7341 -7 17.7571
      vertex 12.8816 -7 16.9156
      vertex 13.8717 -7 18.4562
    endloop
  endfacet
  facet normal 0 -1 0
    outer loop
      vertex 11.25 -7 16
      vertex 12.8816 -7 16.9156
      vertex 10.7341 -7 17.7571
    endloop
  endfacet
  facet normal 0 -1 0
    outer loop
      vertex 11.25 -7 16
      vertex 12.8816 -7 15.0844
      vertex 12.8816 -7 16.9156
    endloop
  endfacet
  facet normal 0 -1 0
    outer loop
      vertex 10.7341 -7 14.2429
      vertex 12.8816 -7 15.0844
      vertex 11.25 -7 16
    endloop
  endfacet
  facet normal 0 -1 0
    outer loop
      vertex 10.7341 -7 14.2429
      vertex 13.8717 -7 13.5438
      vertex 12.8816 -7 15.0844
    endloop
  endfacet
  facet normal 0 -1 0
    outer loop
      vertex 10.7341 -7 9.75708
      vertex 10.7341 -7 14.2429
      vertex 9.3501 -7 13.0437
    endloop
  endfacet
  facet normal 0 -1 0
    outer loop
      vertex 9.3501 -7 10.9563
      vertex 9.3501 -7 13.0437
      vertex 8.5 -7 12.9215
    endloop
  endfacet
  facet normal 0 -1 0
    outer loop
      vertex 10.7341 -7 9.75708
      vertex 9.3501 -7 13.0437
      vertex 9.3501 -7 10.9563
    endloop
  endfacet
  facet normal 0 -1 0
    outer loop
      vertex 13.8717 -7 13.5438
      vertex 13.8717 -7 10.4562
      vertex 15.5375 -7 12.7831
    endloop
  endfacet
  facet normal 0 -1 0
    outer loop
      vertex 9.3501 -7 10.9563
      vertex 8.5 -7 12.9215
      vertex 8.5 -7 11.0785
    endloop
  endfacet
  facet normal 0 -1 0
    outer loop
      vertex 10.7341 -7 14.2429
      vertex 10.7341 -7 9.75708
      vertex 13.8717 -7 13.5438
    endloop
  endfacet
  facet normal 0 -1 -0
    outer loop
      vertex 15.5375 -7 12.7831
      vertex 13.8717 -7 10.4562
      vertex 15.5375 -7 11.2169
    endloop
  endfacet
  facet normal 0 -1 -0
    outer loop
      vertex 13.8717 -7 13.5438
      vertex 10.7341 -7 9.75708
      vertex 13.8717 -7 10.4562
    endloop
  endfacet
  facet normal 0 -1 0
    outer loop
      vertex 10.7341 -7 9.75708
      vertex 12.8816 -7 8.91563
      vertex 13.8717 -7 10.4562
    endloop
  endfacet
  facet normal 0 -1 0
    outer loop
      vertex 11.25 -7 8
      vertex 12.8816 -7 8.91563
      vertex 10.7341 -7 9.75708
    endloop
  endfacet
  facet normal 0 -1 0
    outer loop
      vertex 11.25 -7 8
      vertex 12.8816 -7 7.08437
      vertex 12.8816 -7 8.91563
    endloop
  endfacet
  facet normal 0 -1 0
    outer loop
      vertex 10.7341 -7 6.24292
      vertex 12.8816 -7 7.08437
      vertex 11.25 -7 8
    endloop
  endfacet
  facet normal 0 -1 0
    outer loop
      vertex 10.7341 -7 6.24292
      vertex 13.8717 -7 5.54381
      vertex 12.8816 -7 7.08437
    endloop
  endfacet
  facet normal 0 -1 0
    outer loop
      vertex 10.7341 -7 1.75708
      vertex 10.7341 -7 6.24292
      vertex 9.3501 -7 5.0437
    endloop
  endfacet
  facet normal 0 -1 0
    outer loop
      vertex 9.3501 -7 2.9563
      vertex 9.3501 -7 5.0437
      vertex 8.5 -7 4.92147
    endloop
  endfacet
  facet normal 0 -1 0
    outer loop
      vertex 10.7341 -7 1.75708
      vertex 9.3501 -7 5.0437
      vertex 9.3501 -7 2.9563
    endloop
  endfacet
  facet normal 0 -1 0
    outer loop
      vertex 13.8717 -7 5.54381
      vertex 13.8717 -7 2.45619
      vertex 15.5375 -7 4.78308
    endloop
  endfacet
  facet normal 0 -1 0
    outer loop
      vertex 9.3501 -7 2.9563
      vertex 8.5 -7 4.92147
      vertex 8.5 -7 3.07853
    endloop
  endfacet
  facet normal 0 -1 0
    outer loop
      vertex 10.7341 -7 6.24292
      vertex 10.7341 -7 1.75708
      vertex 13.8717 -7 5.54381
    endloop
  endfacet
  facet normal 0 -1 -0
    outer loop
      vertex 15.5375 -7 4.78308
      vertex 13.8717 -7 2.45619
      vertex 15.5375 -7 3.21692
    endloop
  endfacet
  facet normal 0 -1 -0
    outer loop
      vertex 13.8717 -7 5.54381
      vertex 10.7341 -7 1.75708
      vertex 13.8717 -7 2.45619
    endloop
  endfacet
  facet normal 0 -1 0
    outer loop
      vertex 10.7341 -7 1.75708
      vertex 12.8816 -7 0.91563
      vertex 13.8717 -7 2.45619
    endloop
  endfacet
  facet normal 0 -1 0
    outer loop
      vertex 11.25 -7 0
      vertex 12.8816 -7 0.91563
      vertex 10.7341 -7 1.75708
    endloop
  endfacet
  facet normal 0 -1 -0
    outer loop
      vertex 12.8816 -7 0.91563
      vertex 11.25 -7 0
      vertex 12.8816 -7 0
    endloop
  endfacet
  facet normal 0 -1 0
    outer loop
      vertex 15.5375 -7 35.2169
      vertex 17 -7 36.9934
      vertex 15.5375 -7 36.7831
    endloop
  endfacet
  facet normal 0 -1 -0
    outer loop
      vertex 17 -7 36.9934
      vertex 15.5375 -7 35.2169
      vertex 17 -7 35.0066
    endloop
  endfacet
  facet normal 0 -1 0
    outer loop
      vertex 15.5375 -7 27.2169
      vertex 17 -7 28.9934
      vertex 15.5375 -7 28.7831
    endloop
  endfacet
  facet normal 0 -1 -0
    outer loop
      vertex 17 -7 28.9934
      vertex 15.5375 -7 27.2169
      vertex 17 -7 27.0066
    endloop
  endfacet
  facet normal 0 -1 0
    outer loop
      vertex 15.5375 -7 19.2169
      vertex 17 -7 20.9934
      vertex 15.5375 -7 20.7831
    endloop
  endfacet
  facet normal 0 -1 -0
    outer loop
      vertex 17 -7 20.9934
      vertex 15.5375 -7 19.2169
      vertex 17 -7 19.0066
    endloop
  endfacet
  facet normal 0 -1 0
    outer loop
      vertex 15.5375 -7 11.2169
      vertex 17 -7 12.9934
      vertex 15.5375 -7 12.7831
    endloop
  endfacet
  facet normal 0 -1 -0
    outer loop
      vertex 17 -7 12.9934
      vertex 15.5375 -7 11.2169
      vertex 17 -7 11.0066
    endloop
  endfacet
  facet normal 0 -1 0
    outer loop
      vertex 15.5375 -7 3.21692
      vertex 17 -7 4.99336
      vertex 15.5375 -7 4.78308
    endloop
  endfacet
  facet normal 0 -1 -0
    outer loop
      vertex 17 -7 4.99336
      vertex 15.5375 -7 3.21692
      vertex 17 -7 3.00664
    endloop
  endfacet
  facet normal 0 -1 0
    outer loop
      vertex 8.5 -7 0
      vertex 9.69706 -7 1.69706
      vertex 8.5 -7 2.19289
    endloop
  endfacet
  facet normal 0 -1 -0
    outer loop
      vertex 9.69706 -7 1.69706
      vertex 8.5 -7 0
      vertex 10.4 -7 0
    endloop
  endfacet
  facet normal -0 -1 0
    outer loop
      vertex 8.96568 -7 38
      vertex 8.5 -7 38
      vertex 8.5 -7 37.8071
    endloop
  endfacet
  facet normal 0 -1 0
    outer loop
      vertex 16 -7 37.6
      vertex 16.9657 -7 38
      vertex 15.0343 -7 38
    endloop
  endfacet
  facet normal 0 -1 0
    outer loop
      vertex 8.5 -7 10.1929
      vertex 10.4 -7 8
      vertex 9.69706 -7 9.69706
    endloop
  endfacet
  facet normal 0 -1 0
    outer loop
      vertex 8.5 -7 5.80711
      vertex 10.4 -7 8
      vertex 8.5 -7 10.1929
    endloop
  endfacet
  facet normal 0 -1 0
    outer loop
      vertex 10.4 -7 8
      vertex 8.5 -7 5.80711
      vertex 9.69706 -7 6.30294
    endloop
  endfacet
  facet normal 0 -1 0
    outer loop
      vertex 14.3029 -7 9.69706
      vertex 17 -7 9.98579
      vertex 16 -7 10.4
    endloop
  endfacet
  facet normal 0 -1 0
    outer loop
      vertex 13.6 -7 8
      vertex 17 -7 9.98579
      vertex 14.3029 -7 9.69706
    endloop
  endfacet
  facet normal 0 -1 0
    outer loop
      vertex 17 -7 6.01421
      vertex 13.6 -7 8
      vertex 14.3029 -7 6.30294
    endloop
  endfacet
  facet normal 0 -1 0
    outer loop
      vertex 13.6 -7 8
      vertex 17 -7 6.01421
      vertex 17 -7 9.98579
    endloop
  endfacet
  facet normal -0 -1 0
    outer loop
      vertex 17 -7 6.01421
      vertex 14.3029 -7 6.30294
      vertex 16 -7 5.6
    endloop
  endfacet
  facet normal 0 -1 0
    outer loop
      vertex 8.5 -7 18.1929
      vertex 10.4 -7 16
      vertex 9.69706 -7 17.6971
    endloop
  endfacet
  facet normal 0 -1 0
    outer loop
      vertex 8.5 -7 13.8071
      vertex 10.4 -7 16
      vertex 8.5 -7 18.1929
    endloop
  endfacet
  facet normal 0 -1 0
    outer loop
      vertex 10.4 -7 16
      vertex 8.5 -7 13.8071
      vertex 9.69706 -7 14.3029
    endloop
  endfacet
  facet normal 0 -1 0
    outer loop
      vertex 8.5 -7 26.1929
      vertex 10.4 -7 24
      vertex 9.69706 -7 25.6971
    endloop
  endfacet
  facet normal 0 -1 0
    outer loop
      vertex 8.5 -7 21.8071
      vertex 10.4 -7 24
      vertex 8.5 -7 26.1929
    endloop
  endfacet
  facet normal 0 -1 0
    outer loop
      vertex 10.4 -7 24
      vertex 8.5 -7 21.8071
      vertex 9.69706 -7 22.3029
    endloop
  endfacet
  facet normal 0 -1 0
    outer loop
      vertex 8.5 -7 34.1929
      vertex 10.4 -7 32
      vertex 9.69706 -7 33.6971
    endloop
  endfacet
  facet normal 0 -1 0
    outer loop
      vertex 8.5 -7 29.8071
      vertex 10.4 -7 32
      vertex 8.5 -7 34.1929
    endloop
  endfacet
  facet normal 0 -1 0
    outer loop
      vertex 10.4 -7 32
      vertex 8.5 -7 29.8071
      vertex 9.69706 -7 30.3029
    endloop
  endfacet
  facet normal 0 -1 0
    outer loop
      vertex 14.3029 -7 17.6971
      vertex 17 -7 17.9858
      vertex 16 -7 18.4
    endloop
  endfacet
  facet normal 0 -1 0
    outer loop
      vertex 13.6 -7 16
      vertex 17 -7 17.9858
      vertex 14.3029 -7 17.6971
    endloop
  endfacet
  facet normal 0 -1 0
    outer loop
      vertex 17 -7 14.0142
      vertex 13.6 -7 16
      vertex 14.3029 -7 14.3029
    endloop
  endfacet
  facet normal 0 -1 0
    outer loop
      vertex 13.6 -7 16
      vertex 17 -7 14.0142
      vertex 17 -7 17.9858
    endloop
  endfacet
  facet normal -0 -1 0
    outer loop
      vertex 17 -7 14.0142
      vertex 14.3029 -7 14.3029
      vertex 16 -7 13.6
    endloop
  endfacet
  facet normal 0 -1 0
    outer loop
      vertex 14.3029 -7 25.6971
      vertex 17 -7 25.9858
      vertex 16 -7 26.4
    endloop
  endfacet
  facet normal 0 -1 0
    outer loop
      vertex 13.6 -7 24
      vertex 17 -7 25.9858
      vertex 14.3029 -7 25.6971
    endloop
  endfacet
  facet normal 0 -1 0
    outer loop
      vertex 17 -7 22.0142
      vertex 13.6 -7 24
      vertex 14.3029 -7 22.3029
    endloop
  endfacet
  facet normal 0 -1 0
    outer loop
      vertex 13.6 -7 24
      vertex 17 -7 22.0142
      vertex 17 -7 25.9858
    endloop
  endfacet
  facet normal -0 -1 0
    outer loop
      vertex 17 -7 22.0142
      vertex 14.3029 -7 22.3029
      vertex 16 -7 21.6
    endloop
  endfacet
  facet normal 0 -1 0
    outer loop
      vertex 14.3029 -7 33.6971
      vertex 17 -7 33.9858
      vertex 16 -7 34.4
    endloop
  endfacet
  facet normal 0 -1 0
    outer loop
      vertex 13.6 -7 32
      vertex 17 -7 33.9858
      vertex 14.3029 -7 33.6971
    endloop
  endfacet
  facet normal 0 -1 0
    outer loop
      vertex 17 -7 30.0142
      vertex 13.6 -7 32
      vertex 14.3029 -7 30.3029
    endloop
  endfacet
  facet normal 0 -1 0
    outer loop
      vertex 13.6 -7 32
      vertex 17 -7 30.0142
      vertex 17 -7 33.9858
    endloop
  endfacet
  facet normal -0 -1 0
    outer loop
      vertex 17 -7 30.0142
      vertex 14.3029 -7 30.3029
      vertex 16 -7 29.6
    endloop
  endfacet
  facet normal 0 0 -1
    outer loop
      vertex 11.25 -15 0
      vertex 10.4 -15 0
      vertex 11.25 -7 0
    endloop
  endfacet
  facet normal 0 0 -1
    outer loop
      vertex 13.6 -15 0
      vertex 12.8816 -15 0
      vertex 13.6 -7 0
    endloop
  endfacet
  facet normal 0 0 -1
    outer loop
      vertex 13.6 -7 0
      vertex 17 0 0
      vertex 17 -7 0
    endloop
  endfacet
  facet normal 0 0 -1
    outer loop
      vertex 12.8816 -7 0
      vertex 13.6 -7 0
      vertex 12.8816 -15 0
    endloop
  endfacet
  facet normal 0 0 -1
    outer loop
      vertex 12.8816 -7 0
      vertex 17 0 0
      vertex 13.6 -7 0
    endloop
  endfacet
  facet normal 0 0 -1
    outer loop
      vertex 8.5 0 0
      vertex 12.8816 -7 0
      vertex 11.25 -7 0
    endloop
  endfacet
  facet normal 0 0 -1
    outer loop
      vertex 10.4 -7 0
      vertex 11.25 -7 0
      vertex 10.4 -15 0
    endloop
  endfacet
  facet normal 0 0 -1
    outer loop
      vertex 8.5 0 0
      vertex 11.25 -7 0
      vertex 10.4 -7 0
    endloop
  endfacet
  facet normal 0 0 -1
    outer loop
      vertex 8.5 0 0
      vertex 10.4 -7 0
      vertex 8.5 -7 0
    endloop
  endfacet
  facet normal 0 0 -1
    outer loop
      vertex 12.8816 -7 0
      vertex 8.5 0 0
      vertex 17 0 0
    endloop
  endfacet
  facet normal 0 -1 0
    outer loop
      vertex 12.8816 -15 0
      vertex 13.6 -15 1.77636e-015
      vertex 12.8816 -15 1.77636e-015
    endloop
  endfacet
  facet normal 0 -1 -0
    outer loop
      vertex 13.6 -15 1.77636e-015
      vertex 12.8816 -15 0
      vertex 13.6 -15 0
    endloop
  endfacet
  facet normal 0 -1 0
    outer loop
      vertex 10.4 -15 0
      vertex 11.25 -15 1.77636e-015
      vertex 10.4 -15 1.77636e-015
    endloop
  endfacet
  facet normal 0 -1 -0
    outer loop
      vertex 11.25 -15 1.77636e-015
      vertex 10.4 -15 0
      vertex 11.25 -15 0
    endloop
  endfacet
endsolid OpenSCAD_Model
