solid OpenSCAD_Model
  facet normal -1 0 0
    outer loop
      vertex 8.5 -7 0
      vertex 8.5 0 15.5
      vertex 8.5 0 0
    endloop
  endfacet
  facet normal -1 -0 0
    outer loop
      vertex 8.5 0 15.5
      vertex 8.5 -7 0
      vertex 8.5 0 22.5
    endloop
  endfacet
  facet normal -1 0 0
    outer loop
      vertex 8.5 -7 38
      vertex 8.5 0 22.5
      vertex 8.5 -7 0
    endloop
  endfacet
  facet normal -1 0 0
    outer loop
      vertex 8.5 0 22.5
      vertex 8.5 -7 38
      vertex 8.5 0 38
    endloop
  endfacet
  facet normal -1 0 0
    outer loop
      vertex 8.5 0 15.5
      vertex 8.5 8.5 22.5
      vertex 8.5 8.5 15.5
    endloop
  endfacet
  facet normal -1 -0 0
    outer loop
      vertex 8.5 8.5 22.5
      vertex 8.5 0 15.5
      vertex 8.5 0 22.5
    endloop
  endfacet
  facet normal -1 0 0
    outer loop
      vertex 8.5 8.5 15.5
      vertex 8.5 15.5 8.5
      vertex 8.5 8.5 8.5
    endloop
  endfacet
  facet normal -1 0 0
    outer loop
      vertex 8.5 15.5 8.5
      vertex 8.5 8.5 15.5
      vertex 8.5 15.5 29.5
    endloop
  endfacet
  facet normal -1 0 0
    outer loop
      vertex 8.5 8.5 22.5
      vertex 8.5 15.5 29.5
      vertex 8.5 8.5 15.5
    endloop
  endfacet
  facet normal -1 -0 0
    outer loop
      vertex 8.5 15.5 29.5
      vertex 8.5 8.5 22.5
      vertex 8.5 8.5 29.5
    endloop
  endfacet
  facet normal -0 0 1
    outer loop
      vertex 8.5 15.5 29.5
      vertex 17 8.5 29.5
      vertex 17 15.5 29.5
    endloop
  endfacet
  facet normal 0 0 1
    outer loop
      vertex 17 8.5 29.5
      vertex 8.5 15.5 29.5
      vertex 8.5 8.5 29.5
    endloop
  endfacet
  facet normal 1 -0 0
    outer loop
      vertex 17 -7 38
      vertex 17 0 22.5
      vertex 17 0 38
    endloop
  endfacet
  facet normal 1 0 0
    outer loop
      vertex 17 0 22.5
      vertex 17 -7 38
      vertex 17 0 15.5
    endloop
  endfacet
  facet normal 1 0 0
    outer loop
      vertex 17 -7 0
      vertex 17 0 15.5
      vertex 17 -7 38
    endloop
  endfacet
  facet normal 1 0 0
    outer loop
      vertex 17 0 15.5
      vertex 17 -7 0
      vertex 17 0 0
    endloop
  endfacet
  facet normal 1 -0 0
    outer loop
      vertex 17 0 22.5
      vertex 17 8.5 15.5
      vertex 17 8.5 22.5
    endloop
  endfacet
  facet normal 1 0 0
    outer loop
      vertex 17 8.5 15.5
      vertex 17 0 22.5
      vertex 17 0 15.5
    endloop
  endfacet
  facet normal 1 0 0
    outer loop
      vertex 17 8.5 22.5
      vertex 17 15.5 29.5
      vertex 17 8.5 29.5
    endloop
  endfacet
  facet normal 1 0 0
    outer loop
      vertex 17 15.5 29.5
      vertex 17 8.5 22.5
      vertex 17 15.5 8.5
    endloop
  endfacet
  facet normal 1 -0 0
    outer loop
      vertex 17 8.5 15.5
      vertex 17 15.5 8.5
      vertex 17 8.5 22.5
    endloop
  endfacet
  facet normal 1 0 0
    outer loop
      vertex 17 15.5 8.5
      vertex 17 8.5 15.5
      vertex 17 8.5 8.5
    endloop
  endfacet
  facet normal 0 1 -0
    outer loop
      vertex 17 15.5 8.5
      vertex 8.5 15.5 29.5
      vertex 17 15.5 29.5
    endloop
  endfacet
  facet normal 0 1 0
    outer loop
      vertex 8.5 15.5 29.5
      vertex 17 15.5 8.5
      vertex 8.5 15.5 8.5
    endloop
  endfacet
  facet normal 0 0 -1
    outer loop
      vertex 8.5 8.5 8.5
      vertex 17 15.5 8.5
      vertex 17 8.5 8.5
    endloop
  endfacet
  facet normal -0 0 -1
    outer loop
      vertex 17 15.5 8.5
      vertex 8.5 8.5 8.5
      vertex 8.5 15.5 8.5
    endloop
  endfacet
  facet normal 0 -1 0
    outer loop
      vertex 8.5 8.5 22.5
      vertex 17 8.5 29.5
      vertex 8.5 8.5 29.5
    endloop
  endfacet
  facet normal 0 -1 -0
    outer loop
      vertex 17 8.5 29.5
      vertex 8.5 8.5 22.5
      vertex 17 8.5 22.5
    endloop
  endfacet
  facet normal 0 -1 0
    outer loop
      vertex 8.5 8.5 8.5
      vertex 17 8.5 15.5
      vertex 8.5 8.5 15.5
    endloop
  endfacet
  facet normal 0 -1 -0
    outer loop
      vertex 17 8.5 15.5
      vertex 8.5 8.5 8.5
      vertex 17 8.5 8.5
    endloop
  endfacet
  facet normal -0 0 1
    outer loop
      vertex 8.5 8.5 22.5
      vertex 17 0 22.5
      vertex 17 8.5 22.5
    endloop
  endfacet
  facet normal 0 0 1
    outer loop
      vertex 17 0 22.5
      vertex 8.5 8.5 22.5
      vertex 8.5 0 22.5
    endloop
  endfacet
  facet normal 0 0 -1
    outer loop
      vertex 8.5 0 15.5
      vertex 17 8.5 15.5
      vertex 17 0 15.5
    endloop
  endfacet
  facet normal -0 0 -1
    outer loop
      vertex 17 8.5 15.5
      vertex 8.5 0 15.5
      vertex 8.5 8.5 15.5
    endloop
  endfacet
  facet normal 0 1 -0
    outer loop
      vertex 17 0 22.5
      vertex 8.5 0 38
      vertex 17 0 38
    endloop
  endfacet
  facet normal 0 1 0
    outer loop
      vertex 8.5 0 38
      vertex 17 0 22.5
      vertex 8.5 0 22.5
    endloop
  endfacet
  facet normal 0 1 -0
    outer loop
      vertex 17 0 0
      vertex 8.5 0 15.5
      vertex 17 0 15.5
    endloop
  endfacet
  facet normal 0 1 0
    outer loop
      vertex 8.5 0 15.5
      vertex 17 0 0
      vertex 8.5 0 0
    endloop
  endfacet
  facet normal 0.923879 -0 0.382684
    outer loop
      vertex 13.6971 -8.8 5.69706
      vertex 14.4 -7 4
      vertex 13.6971 -7 5.69706
    endloop
  endfacet
  facet normal 0.923879 0 0.382684
    outer loop
      vertex 14.4 -7 4
      vertex 13.6971 -8.8 5.69706
      vertex 14.4 -8.8 4
    endloop
  endfacet
  facet normal -0.923879 0 0.382684
    outer loop
      vertex 9.6 -8.8 4
      vertex 10.3029 -7 5.69706
      vertex 9.6 -7 4
    endloop
  endfacet
  facet normal -0.923879 0 0.382684
    outer loop
      vertex 10.3029 -7 5.69706
      vertex 9.6 -8.8 4
      vertex 10.3029 -8.8 5.69706
    endloop
  endfacet
  facet normal 0.382684 0 0.923879
    outer loop
      vertex 12 -7 6.4
      vertex 13.6971 -8.8 5.69706
      vertex 13.6971 -7 5.69706
    endloop
  endfacet
  facet normal 0.382684 0 0.923879
    outer loop
      vertex 13.6971 -8.8 5.69706
      vertex 12 -7 6.4
      vertex 12 -8.8 6.4
    endloop
  endfacet
  facet normal -0.382683 0 0.92388
    outer loop
      vertex 10.3029 -7 5.69706
      vertex 12 -8.8 6.4
      vertex 12 -7 6.4
    endloop
  endfacet
  facet normal -0.382683 0 0.92388
    outer loop
      vertex 12 -8.8 6.4
      vertex 10.3029 -7 5.69706
      vertex 10.3029 -8.8 5.69706
    endloop
  endfacet
  facet normal 0.382684 0 -0.923879
    outer loop
      vertex 12 -8.8 1.6
      vertex 13.6971 -7 2.30294
      vertex 13.6971 -8.8 2.30294
    endloop
  endfacet
  facet normal 0.382684 0 -0.923879
    outer loop
      vertex 13.6971 -7 2.30294
      vertex 12 -8.8 1.6
      vertex 12 -7 1.6
    endloop
  endfacet
  facet normal -0.923879 0 -0.382684
    outer loop
      vertex 10.3029 -8.8 2.30294
      vertex 9.6 -7 4
      vertex 10.3029 -7 2.30294
    endloop
  endfacet
  facet normal -0.923879 -0 -0.382684
    outer loop
      vertex 9.6 -7 4
      vertex 10.3029 -8.8 2.30294
      vertex 9.6 -8.8 4
    endloop
  endfacet
  facet normal 0.923879 0 -0.382684
    outer loop
      vertex 14.4 -8.8 4
      vertex 13.6971 -7 2.30294
      vertex 14.4 -7 4
    endloop
  endfacet
  facet normal 0.923879 0 -0.382684
    outer loop
      vertex 13.6971 -7 2.30294
      vertex 14.4 -8.8 4
      vertex 13.6971 -8.8 2.30294
    endloop
  endfacet
  facet normal -0.382683 0 -0.92388
    outer loop
      vertex 10.3029 -8.8 2.30294
      vertex 12 -7 1.6
      vertex 12 -8.8 1.6
    endloop
  endfacet
  facet normal -0.382683 0 -0.92388
    outer loop
      vertex 12 -7 1.6
      vertex 10.3029 -8.8 2.30294
      vertex 10.3029 -7 2.30294
    endloop
  endfacet
  facet normal 0 -1 0
    outer loop
      vertex 10.3029 -8.8 5.69706
      vertex 13.6971 -8.8 5.69706
      vertex 12 -8.8 6.4
    endloop
  endfacet
  facet normal 0 -1 0
    outer loop
      vertex 9.6 -8.8 4
      vertex 13.6971 -8.8 5.69706
      vertex 10.3029 -8.8 5.69706
    endloop
  endfacet
  facet normal 0 -1 0
    outer loop
      vertex 9.6 -8.8 4
      vertex 14.4 -8.8 4
      vertex 13.6971 -8.8 5.69706
    endloop
  endfacet
  facet normal 0 -1 0
    outer loop
      vertex 10.3029 -8.8 2.30294
      vertex 14.4 -8.8 4
      vertex 9.6 -8.8 4
    endloop
  endfacet
  facet normal 0 -1 0
    outer loop
      vertex 10.3029 -8.8 2.30294
      vertex 13.6971 -8.8 2.30294
      vertex 14.4 -8.8 4
    endloop
  endfacet
  facet normal -0 -1 0
    outer loop
      vertex 13.6971 -8.8 2.30294
      vertex 10.3029 -8.8 2.30294
      vertex 12 -8.8 1.6
    endloop
  endfacet
  facet normal 0.923879 -0 0.382684
    outer loop
      vertex 13.6971 -8.8 13.6971
      vertex 14.4 -7 12
      vertex 13.6971 -7 13.6971
    endloop
  endfacet
  facet normal 0.923879 0 0.382684
    outer loop
      vertex 14.4 -7 12
      vertex 13.6971 -8.8 13.6971
      vertex 14.4 -8.8 12
    endloop
  endfacet
  facet normal -0.92388 0 -0.382683
    outer loop
      vertex 10.3029 -8.8 10.3029
      vertex 9.6 -7 12
      vertex 10.3029 -7 10.3029
    endloop
  endfacet
  facet normal -0.92388 -0 -0.382683
    outer loop
      vertex 9.6 -7 12
      vertex 10.3029 -8.8 10.3029
      vertex 9.6 -8.8 12
    endloop
  endfacet
  facet normal -0.382683 0 0.92388
    outer loop
      vertex 10.3029 -7 13.6971
      vertex 12 -8.8 14.4
      vertex 12 -7 14.4
    endloop
  endfacet
  facet normal -0.382683 0 0.92388
    outer loop
      vertex 12 -8.8 14.4
      vertex 10.3029 -7 13.6971
      vertex 10.3029 -8.8 13.6971
    endloop
  endfacet
  facet normal 0.382684 0 0.923879
    outer loop
      vertex 12 -7 14.4
      vertex 13.6971 -8.8 13.6971
      vertex 13.6971 -7 13.6971
    endloop
  endfacet
  facet normal 0.382684 0 0.923879
    outer loop
      vertex 13.6971 -8.8 13.6971
      vertex 12 -7 14.4
      vertex 12 -8.8 14.4
    endloop
  endfacet
  facet normal 0 -1 0
    outer loop
      vertex 10.3029 -8.8 13.6971
      vertex 13.6971 -8.8 13.6971
      vertex 12 -8.8 14.4
    endloop
  endfacet
  facet normal 0 -1 0
    outer loop
      vertex 9.6 -8.8 12
      vertex 13.6971 -8.8 13.6971
      vertex 10.3029 -8.8 13.6971
    endloop
  endfacet
  facet normal 0 -1 0
    outer loop
      vertex 9.6 -8.8 12
      vertex 14.4 -8.8 12
      vertex 13.6971 -8.8 13.6971
    endloop
  endfacet
  facet normal 0 -1 0
    outer loop
      vertex 10.3029 -8.8 10.3029
      vertex 14.4 -8.8 12
      vertex 9.6 -8.8 12
    endloop
  endfacet
  facet normal 0 -1 0
    outer loop
      vertex 10.3029 -8.8 10.3029
      vertex 13.6971 -8.8 10.3029
      vertex 14.4 -8.8 12
    endloop
  endfacet
  facet normal -0 -1 0
    outer loop
      vertex 13.6971 -8.8 10.3029
      vertex 10.3029 -8.8 10.3029
      vertex 12 -8.8 9.6
    endloop
  endfacet
  facet normal -0.923879 0 0.382684
    outer loop
      vertex 9.6 -8.8 12
      vertex 10.3029 -7 13.6971
      vertex 9.6 -7 12
    endloop
  endfacet
  facet normal -0.923879 0 0.382684
    outer loop
      vertex 10.3029 -7 13.6971
      vertex 9.6 -8.8 12
      vertex 10.3029 -8.8 13.6971
    endloop
  endfacet
  facet normal 0.92388 0 -0.382683
    outer loop
      vertex 14.4 -8.8 12
      vertex 13.6971 -7 10.3029
      vertex 14.4 -7 12
    endloop
  endfacet
  facet normal 0.92388 0 -0.382683
    outer loop
      vertex 13.6971 -7 10.3029
      vertex 14.4 -8.8 12
      vertex 13.6971 -8.8 10.3029
    endloop
  endfacet
  facet normal 0.382684 0 -0.923879
    outer loop
      vertex 12 -8.8 9.6
      vertex 13.6971 -7 10.3029
      vertex 13.6971 -8.8 10.3029
    endloop
  endfacet
  facet normal 0.382684 0 -0.923879
    outer loop
      vertex 13.6971 -7 10.3029
      vertex 12 -8.8 9.6
      vertex 12 -7 9.6
    endloop
  endfacet
  facet normal -0.382683 0 -0.92388
    outer loop
      vertex 10.3029 -8.8 10.3029
      vertex 12 -7 9.6
      vertex 12 -8.8 9.6
    endloop
  endfacet
  facet normal -0.382683 0 -0.92388
    outer loop
      vertex 12 -7 9.6
      vertex 10.3029 -8.8 10.3029
      vertex 10.3029 -7 10.3029
    endloop
  endfacet
  facet normal 0.923879 -0 0.382684
    outer loop
      vertex 13.6971 -8.8 21.6971
      vertex 14.4 -7 20
      vertex 13.6971 -7 21.6971
    endloop
  endfacet
  facet normal 0.923879 0 0.382684
    outer loop
      vertex 14.4 -7 20
      vertex 13.6971 -8.8 21.6971
      vertex 14.4 -8.8 20
    endloop
  endfacet
  facet normal -0.382683 0 0.92388
    outer loop
      vertex 10.3029 -7 21.6971
      vertex 12 -8.8 22.4
      vertex 12 -7 22.4
    endloop
  endfacet
  facet normal -0.382683 0 0.92388
    outer loop
      vertex 12 -8.8 22.4
      vertex 10.3029 -7 21.6971
      vertex 10.3029 -8.8 21.6971
    endloop
  endfacet
  facet normal 0.382684 0 0.923879
    outer loop
      vertex 12 -7 22.4
      vertex 13.6971 -8.8 21.6971
      vertex 13.6971 -7 21.6971
    endloop
  endfacet
  facet normal 0.382684 0 0.923879
    outer loop
      vertex 13.6971 -8.8 21.6971
      vertex 12 -7 22.4
      vertex 12 -8.8 22.4
    endloop
  endfacet
  facet normal 0 -1 0
    outer loop
      vertex 10.3029 -8.8 21.6971
      vertex 13.6971 -8.8 21.6971
      vertex 12 -8.8 22.4
    endloop
  endfacet
  facet normal 0 -1 0
    outer loop
      vertex 9.6 -8.8 20
      vertex 13.6971 -8.8 21.6971
      vertex 10.3029 -8.8 21.6971
    endloop
  endfacet
  facet normal 0 -1 0
    outer loop
      vertex 9.6 -8.8 20
      vertex 14.4 -8.8 20
      vertex 13.6971 -8.8 21.6971
    endloop
  endfacet
  facet normal 0 -1 0
    outer loop
      vertex 10.3029 -8.8 18.3029
      vertex 14.4 -8.8 20
      vertex 9.6 -8.8 20
    endloop
  endfacet
  facet normal 0 -1 0
    outer loop
      vertex 10.3029 -8.8 18.3029
      vertex 13.6971 -8.8 18.3029
      vertex 14.4 -8.8 20
    endloop
  endfacet
  facet normal -0 -1 0
    outer loop
      vertex 13.6971 -8.8 18.3029
      vertex 10.3029 -8.8 18.3029
      vertex 12 -8.8 17.6
    endloop
  endfacet
  facet normal -0.923879 0 0.382684
    outer loop
      vertex 9.6 -8.8 20
      vertex 10.3029 -7 21.6971
      vertex 9.6 -7 20
    endloop
  endfacet
  facet normal -0.923879 0 0.382684
    outer loop
      vertex 10.3029 -7 21.6971
      vertex 9.6 -8.8 20
      vertex 10.3029 -8.8 21.6971
    endloop
  endfacet
  facet normal 0.923879 0 -0.382684
    outer loop
      vertex 14.4 -8.8 20
      vertex 13.6971 -7 18.3029
      vertex 14.4 -7 20
    endloop
  endfacet
  facet normal 0.923879 0 -0.382684
    outer loop
      vertex 13.6971 -7 18.3029
      vertex 14.4 -8.8 20
      vertex 13.6971 -8.8 18.3029
    endloop
  endfacet
  facet normal -0.923879 0 -0.382684
    outer loop
      vertex 10.3029 -8.8 18.3029
      vertex 9.6 -7 20
      vertex 10.3029 -7 18.3029
    endloop
  endfacet
  facet normal -0.923879 -0 -0.382684
    outer loop
      vertex 9.6 -7 20
      vertex 10.3029 -8.8 18.3029
      vertex 9.6 -8.8 20
    endloop
  endfacet
  facet normal 0.382684 0 -0.923879
    outer loop
      vertex 12 -8.8 17.6
      vertex 13.6971 -7 18.3029
      vertex 13.6971 -8.8 18.3029
    endloop
  endfacet
  facet normal 0.382684 0 -0.923879
    outer loop
      vertex 13.6971 -7 18.3029
      vertex 12 -8.8 17.6
      vertex 12 -7 17.6
    endloop
  endfacet
  facet normal -0.382684 0 -0.923879
    outer loop
      vertex 10.3029 -8.8 18.3029
      vertex 12 -7 17.6
      vertex 12 -8.8 17.6
    endloop
  endfacet
  facet normal -0.382684 0 -0.923879
    outer loop
      vertex 12 -7 17.6
      vertex 10.3029 -8.8 18.3029
      vertex 10.3029 -7 18.3029
    endloop
  endfacet
  facet normal 0.923879 -0 0.382684
    outer loop
      vertex 13.6971 -8.8 29.6971
      vertex 14.4 -7 28
      vertex 13.6971 -7 29.6971
    endloop
  endfacet
  facet normal 0.923879 0 0.382684
    outer loop
      vertex 14.4 -7 28
      vertex 13.6971 -8.8 29.6971
      vertex 14.4 -8.8 28
    endloop
  endfacet
  facet normal -0.923879 0 -0.382684
    outer loop
      vertex 10.3029 -8.8 26.3029
      vertex 9.6 -7 28
      vertex 10.3029 -7 26.3029
    endloop
  endfacet
  facet normal -0.923879 -0 -0.382684
    outer loop
      vertex 9.6 -7 28
      vertex 10.3029 -8.8 26.3029
      vertex 9.6 -8.8 28
    endloop
  endfacet
  facet normal -0.382683 0 0.92388
    outer loop
      vertex 10.3029 -7 29.6971
      vertex 12 -8.8 30.4
      vertex 12 -7 30.4
    endloop
  endfacet
  facet normal -0.382683 0 0.92388
    outer loop
      vertex 12 -8.8 30.4
      vertex 10.3029 -7 29.6971
      vertex 10.3029 -8.8 29.6971
    endloop
  endfacet
  facet normal 0.382684 0 0.923879
    outer loop
      vertex 12 -7 30.4
      vertex 13.6971 -8.8 29.6971
      vertex 13.6971 -7 29.6971
    endloop
  endfacet
  facet normal 0.382684 0 0.923879
    outer loop
      vertex 13.6971 -8.8 29.6971
      vertex 12 -7 30.4
      vertex 12 -8.8 30.4
    endloop
  endfacet
  facet normal 0 -1 0
    outer loop
      vertex 10.3029 -8.8 29.6971
      vertex 13.6971 -8.8 29.6971
      vertex 12 -8.8 30.4
    endloop
  endfacet
  facet normal 0 -1 0
    outer loop
      vertex 9.6 -8.8 28
      vertex 13.6971 -8.8 29.6971
      vertex 10.3029 -8.8 29.6971
    endloop
  endfacet
  facet normal 0 -1 0
    outer loop
      vertex 9.6 -8.8 28
      vertex 14.4 -8.8 28
      vertex 13.6971 -8.8 29.6971
    endloop
  endfacet
  facet normal 0 -1 0
    outer loop
      vertex 10.3029 -8.8 26.3029
      vertex 14.4 -8.8 28
      vertex 9.6 -8.8 28
    endloop
  endfacet
  facet normal 0 -1 0
    outer loop
      vertex 10.3029 -8.8 26.3029
      vertex 13.6971 -8.8 26.3029
      vertex 14.4 -8.8 28
    endloop
  endfacet
  facet normal -0 -1 0
    outer loop
      vertex 13.6971 -8.8 26.3029
      vertex 10.3029 -8.8 26.3029
      vertex 12 -8.8 25.6
    endloop
  endfacet
  facet normal -0.923879 0 0.382684
    outer loop
      vertex 9.6 -8.8 28
      vertex 10.3029 -7 29.6971
      vertex 9.6 -7 28
    endloop
  endfacet
  facet normal -0.923879 0 0.382684
    outer loop
      vertex 10.3029 -7 29.6971
      vertex 9.6 -8.8 28
      vertex 10.3029 -8.8 29.6971
    endloop
  endfacet
  facet normal 0.923879 0 -0.382684
    outer loop
      vertex 14.4 -8.8 28
      vertex 13.6971 -7 26.3029
      vertex 14.4 -7 28
    endloop
  endfacet
  facet normal 0.923879 0 -0.382684
    outer loop
      vertex 13.6971 -7 26.3029
      vertex 14.4 -8.8 28
      vertex 13.6971 -8.8 26.3029
    endloop
  endfacet
  facet normal 0.382684 0 -0.923879
    outer loop
      vertex 12 -8.8 25.6
      vertex 13.6971 -7 26.3029
      vertex 13.6971 -8.8 26.3029
    endloop
  endfacet
  facet normal 0.382684 0 -0.923879
    outer loop
      vertex 13.6971 -7 26.3029
      vertex 12 -8.8 25.6
      vertex 12 -7 25.6
    endloop
  endfacet
  facet normal -0.382684 0 -0.923879
    outer loop
      vertex 10.3029 -8.8 26.3029
      vertex 12 -7 25.6
      vertex 12 -8.8 25.6
    endloop
  endfacet
  facet normal -0.382684 0 -0.923879
    outer loop
      vertex 12 -7 25.6
      vertex 10.3029 -8.8 26.3029
      vertex 10.3029 -7 26.3029
    endloop
  endfacet
  facet normal 0.923879 -0 0.382684
    outer loop
      vertex 13.6971 -8.8 37.6971
      vertex 14.4 -7 36
      vertex 13.6971 -7 37.6971
    endloop
  endfacet
  facet normal 0.923879 0 0.382684
    outer loop
      vertex 14.4 -7 36
      vertex 13.6971 -8.8 37.6971
      vertex 14.4 -8.8 36
    endloop
  endfacet
  facet normal -0.382683 0 0.92388
    outer loop
      vertex 10.3029 -7 37.6971
      vertex 11.0343 -8.8 38
      vertex 11.0343 -7 38
    endloop
  endfacet
  facet normal -0.382683 0 0.92388
    outer loop
      vertex 11.0343 -8.8 38
      vertex 10.3029 -7 37.6971
      vertex 10.3029 -8.8 37.6971
    endloop
  endfacet
  facet normal 0.382683 0 0.92388
    outer loop
      vertex 12.9657 -7 38
      vertex 13.6971 -8.8 37.6971
      vertex 13.6971 -7 37.6971
    endloop
  endfacet
  facet normal 0.382683 0 0.92388
    outer loop
      vertex 13.6971 -8.8 37.6971
      vertex 12.9657 -7 38
      vertex 12.9657 -8.8 38
    endloop
  endfacet
  facet normal 0 -1 0
    outer loop
      vertex 9.6 -8.8 36
      vertex 11.0343 -8.8 38
      vertex 10.3029 -8.8 37.6971
    endloop
  endfacet
  facet normal 0 -1 0
    outer loop
      vertex 10.3029 -8.8 34.3029
      vertex 11.0343 -8.8 38
      vertex 9.6 -8.8 36
    endloop
  endfacet
  facet normal 0 -1 0
    outer loop
      vertex 12 -8.8 33.6
      vertex 11.0343 -8.8 38
      vertex 10.3029 -8.8 34.3029
    endloop
  endfacet
  facet normal 0 -1 0
    outer loop
      vertex 12.9657 -8.8 38
      vertex 14.4 -8.8 36
      vertex 13.6971 -8.8 37.6971
    endloop
  endfacet
  facet normal 0 -1 0
    outer loop
      vertex 11.0343 -8.8 38
      vertex 12 -8.8 33.6
      vertex 12.9657 -8.8 38
    endloop
  endfacet
  facet normal 0 -1 0
    outer loop
      vertex 12.9657 -8.8 38
      vertex 13.6971 -8.8 34.3029
      vertex 14.4 -8.8 36
    endloop
  endfacet
  facet normal 0 -1 -0
    outer loop
      vertex 12.9657 -8.8 38
      vertex 12 -8.8 33.6
      vertex 13.6971 -8.8 34.3029
    endloop
  endfacet
  facet normal -0.923879 0 0.382684
    outer loop
      vertex 9.6 -8.8 36
      vertex 10.3029 -7 37.6971
      vertex 9.6 -7 36
    endloop
  endfacet
  facet normal -0.923879 0 0.382684
    outer loop
      vertex 10.3029 -7 37.6971
      vertex 9.6 -8.8 36
      vertex 10.3029 -8.8 37.6971
    endloop
  endfacet
  facet normal 0.923879 0 -0.382684
    outer loop
      vertex 14.4 -8.8 36
      vertex 13.6971 -7 34.3029
      vertex 14.4 -7 36
    endloop
  endfacet
  facet normal 0.923879 0 -0.382684
    outer loop
      vertex 13.6971 -7 34.3029
      vertex 14.4 -8.8 36
      vertex 13.6971 -8.8 34.3029
    endloop
  endfacet
  facet normal -0.923879 0 -0.382684
    outer loop
      vertex 10.3029 -8.8 34.3029
      vertex 9.6 -7 36
      vertex 10.3029 -7 34.3029
    endloop
  endfacet
  facet normal -0.923879 -0 -0.382684
    outer loop
      vertex 9.6 -7 36
      vertex 10.3029 -8.8 34.3029
      vertex 9.6 -8.8 36
    endloop
  endfacet
  facet normal 0.382684 0 -0.923879
    outer loop
      vertex 12 -8.8 33.6
      vertex 13.6971 -7 34.3029
      vertex 13.6971 -8.8 34.3029
    endloop
  endfacet
  facet normal 0.382684 0 -0.923879
    outer loop
      vertex 13.6971 -7 34.3029
      vertex 12 -8.8 33.6
      vertex 12 -7 33.6
    endloop
  endfacet
  facet normal -0.382684 0 -0.923879
    outer loop
      vertex 10.3029 -8.8 34.3029
      vertex 12 -7 33.6
      vertex 12 -8.8 33.6
    endloop
  endfacet
  facet normal -0.382684 0 -0.923879
    outer loop
      vertex 12 -7 33.6
      vertex 10.3029 -8.8 34.3029
      vertex 10.3029 -7 34.3029
    endloop
  endfacet
  facet normal 0 0 1
    outer loop
      vertex 17 0 38
      vertex 12.9657 -7 38
      vertex 17 -7 38
    endloop
  endfacet
  facet normal 0 0 1
    outer loop
      vertex 12.9657 -7 38
      vertex 11.0343 -7 38
      vertex 12.9657 -8.8 38
    endloop
  endfacet
  facet normal -0 0 1
    outer loop
      vertex 8.5 0 38
      vertex 12.9657 -7 38
      vertex 17 0 38
    endloop
  endfacet
  facet normal 0 0 1
    outer loop
      vertex 12.9657 -7 38
      vertex 8.5 0 38
      vertex 11.0343 -7 38
    endloop
  endfacet
  facet normal 0 0 1
    outer loop
      vertex 11.0343 -7 38
      vertex 8.5 0 38
      vertex 8.5 -7 38
    endloop
  endfacet
  facet normal 0 0 1
    outer loop
      vertex 12.9657 -8.8 38
      vertex 11.0343 -7 38
      vertex 11.0343 -8.8 38
    endloop
  endfacet
  facet normal 0 0 -1
    outer loop
      vertex 8.5 -7 0
      vertex 17 0 0
      vertex 17 -7 0
    endloop
  endfacet
  facet normal -0 0 -1
    outer loop
      vertex 17 0 0
      vertex 8.5 -7 0
      vertex 8.5 0 0
    endloop
  endfacet
  facet normal 0 -1 0
    outer loop
      vertex 8.5 -7 38
      vertex 10.3029 -7 37.6971
      vertex 11.0343 -7 38
    endloop
  endfacet
  facet normal 0 -1 0
    outer loop
      vertex 8.5 -7 38
      vertex 9.6 -7 36
      vertex 10.3029 -7 37.6971
    endloop
  endfacet
  facet normal 0 -1 0
    outer loop
      vertex 9.6 -7 28
      vertex 9.6 -7 36
      vertex 8.5 -7 38
    endloop
  endfacet
  facet normal 0 -1 0
    outer loop
      vertex 10.3029 -7 34.3029
      vertex 12 -7 30.4
      vertex 12 -7 33.6
    endloop
  endfacet
  facet normal 0 -1 0
    outer loop
      vertex 9.6 -7 36
      vertex 9.6 -7 28
      vertex 10.3029 -7 34.3029
    endloop
  endfacet
  facet normal 0 -1 0
    outer loop
      vertex 10.3029 -7 34.3029
      vertex 10.3029 -7 29.6971
      vertex 12 -7 30.4
    endloop
  endfacet
  facet normal 0 -1 -0
    outer loop
      vertex 10.3029 -7 34.3029
      vertex 9.6 -7 28
      vertex 10.3029 -7 29.6971
    endloop
  endfacet
  facet normal 0 -1 0
    outer loop
      vertex 10.3029 -7 26.3029
      vertex 12 -7 22.4
      vertex 12 -7 25.6
    endloop
  endfacet
  facet normal 0 -1 0
    outer loop
      vertex 10.3029 -7 26.3029
      vertex 10.3029 -7 21.6971
      vertex 12 -7 22.4
    endloop
  endfacet
  facet normal 0 -1 0
    outer loop
      vertex 9.6 -7 28
      vertex 10.3029 -7 21.6971
      vertex 10.3029 -7 26.3029
    endloop
  endfacet
  facet normal 0 -1 0
    outer loop
      vertex 9.6 -7 28
      vertex 9.6 -7 20
      vertex 10.3029 -7 21.6971
    endloop
  endfacet
  facet normal 0 -1 0
    outer loop
      vertex 8.5 -7 38
      vertex 9.6 -7 20
      vertex 9.6 -7 28
    endloop
  endfacet
  facet normal 0 -1 0
    outer loop
      vertex 10.3029 -7 18.3029
      vertex 12 -7 14.4
      vertex 12 -7 17.6
    endloop
  endfacet
  facet normal 0 -1 0
    outer loop
      vertex 10.3029 -7 18.3029
      vertex 10.3029 -7 13.6971
      vertex 12 -7 14.4
    endloop
  endfacet
  facet normal 0 -1 0
    outer loop
      vertex 9.6 -7 20
      vertex 10.3029 -7 13.6971
      vertex 10.3029 -7 18.3029
    endloop
  endfacet
  facet normal 0 -1 0
    outer loop
      vertex 9.6 -7 20
      vertex 9.6 -7 12
      vertex 10.3029 -7 13.6971
    endloop
  endfacet
  facet normal 0 -1 0
    outer loop
      vertex 8.5 -7 0
      vertex 9.6 -7 20
      vertex 8.5 -7 38
    endloop
  endfacet
  facet normal 0 -1 0
    outer loop
      vertex 10.3029 -7 10.3029
      vertex 12 -7 6.4
      vertex 12 -7 9.6
    endloop
  endfacet
  facet normal 0 -1 0
    outer loop
      vertex 10.3029 -7 10.3029
      vertex 10.3029 -7 5.69706
      vertex 12 -7 6.4
    endloop
  endfacet
  facet normal 0 -1 0
    outer loop
      vertex 9.6 -7 12
      vertex 10.3029 -7 5.69706
      vertex 10.3029 -7 10.3029
    endloop
  endfacet
  facet normal 0 -1 0
    outer loop
      vertex 9.6 -7 12
      vertex 9.6 -7 4
      vertex 10.3029 -7 5.69706
    endloop
  endfacet
  facet normal 0 -1 -0
    outer loop
      vertex 9.6 -7 20
      vertex 8.5 -7 0
      vertex 9.6 -7 12
    endloop
  endfacet
  facet normal 0 -1 -0
    outer loop
      vertex 10.3029 -7 2.30294
      vertex 8.5 -7 0
      vertex 12 -7 1.6
    endloop
  endfacet
  facet normal 0 -1 -0
    outer loop
      vertex 9.6 -7 4
      vertex 8.5 -7 0
      vertex 10.3029 -7 2.30294
    endloop
  endfacet
  facet normal 0 -1 -0
    outer loop
      vertex 9.6 -7 12
      vertex 8.5 -7 0
      vertex 9.6 -7 4
    endloop
  endfacet
  facet normal 0 -1 0
    outer loop
      vertex 13.6971 -7 37.6971
      vertex 17 -7 38
      vertex 12.9657 -7 38
    endloop
  endfacet
  facet normal 0 -1 0
    outer loop
      vertex 14.4 -7 36
      vertex 17 -7 38
      vertex 13.6971 -7 37.6971
    endloop
  endfacet
  facet normal 0 -1 0
    outer loop
      vertex 13.6971 -7 34.3029
      vertex 17 -7 38
      vertex 14.4 -7 36
    endloop
  endfacet
  facet normal 0 -1 0
    outer loop
      vertex 12 -7 30.4
      vertex 13.6971 -7 34.3029
      vertex 12 -7 33.6
    endloop
  endfacet
  facet normal 0 -1 0
    outer loop
      vertex 13.6971 -7 29.6971
      vertex 13.6971 -7 34.3029
      vertex 12 -7 30.4
    endloop
  endfacet
  facet normal 0 -1 0
    outer loop
      vertex 13.6971 -7 34.3029
      vertex 13.6971 -7 29.6971
      vertex 17 -7 38
    endloop
  endfacet
  facet normal 0 -1 0
    outer loop
      vertex 14.4 -7 28
      vertex 17 -7 38
      vertex 13.6971 -7 29.6971
    endloop
  endfacet
  facet normal 0 -1 0
    outer loop
      vertex 12 -7 22.4
      vertex 13.6971 -7 26.3029
      vertex 12 -7 25.6
    endloop
  endfacet
  facet normal 0 -1 0
    outer loop
      vertex 13.6971 -7 21.6971
      vertex 13.6971 -7 26.3029
      vertex 12 -7 22.4
    endloop
  endfacet
  facet normal 0 -1 0
    outer loop
      vertex 13.6971 -7 21.6971
      vertex 14.4 -7 28
      vertex 13.6971 -7 26.3029
    endloop
  endfacet
  facet normal 0 -1 0
    outer loop
      vertex 14.4 -7 20
      vertex 14.4 -7 28
      vertex 13.6971 -7 21.6971
    endloop
  endfacet
  facet normal 0 -1 0
    outer loop
      vertex 14.4 -7 28
      vertex 14.4 -7 20
      vertex 17 -7 38
    endloop
  endfacet
  facet normal 0 -1 0
    outer loop
      vertex 12 -7 14.4
      vertex 13.6971 -7 18.3029
      vertex 12 -7 17.6
    endloop
  endfacet
  facet normal 0 -1 0
    outer loop
      vertex 13.6971 -7 13.6971
      vertex 13.6971 -7 18.3029
      vertex 12 -7 14.4
    endloop
  endfacet
  facet normal 0 -1 0
    outer loop
      vertex 13.6971 -7 13.6971
      vertex 14.4 -7 20
      vertex 13.6971 -7 18.3029
    endloop
  endfacet
  facet normal 0 -1 0
    outer loop
      vertex 14.4 -7 12
      vertex 14.4 -7 20
      vertex 13.6971 -7 13.6971
    endloop
  endfacet
  facet normal 0 -1 0
    outer loop
      vertex 17 -7 0
      vertex 14.4 -7 20
      vertex 14.4 -7 12
    endloop
  endfacet
  facet normal 0 -1 0
    outer loop
      vertex 12 -7 6.4
      vertex 13.6971 -7 10.3029
      vertex 12 -7 9.6
    endloop
  endfacet
  facet normal 0 -1 0
    outer loop
      vertex 13.6971 -7 5.69706
      vertex 13.6971 -7 10.3029
      vertex 12 -7 6.4
    endloop
  endfacet
  facet normal 0 -1 0
    outer loop
      vertex 13.6971 -7 5.69706
      vertex 14.4 -7 12
      vertex 13.6971 -7 10.3029
    endloop
  endfacet
  facet normal 0 -1 0
    outer loop
      vertex 14.4 -7 4
      vertex 14.4 -7 12
      vertex 13.6971 -7 5.69706
    endloop
  endfacet
  facet normal 0 -1 0
    outer loop
      vertex 17 -7 0
      vertex 14.4 -7 12
      vertex 14.4 -7 4
    endloop
  endfacet
  facet normal 0 -1 0
    outer loop
      vertex 17 -7 0
      vertex 12 -7 1.6
      vertex 8.5 -7 0
    endloop
  endfacet
  facet normal 0 -1 0
    outer loop
      vertex 14.4 -7 20
      vertex 17 -7 0
      vertex 17 -7 38
    endloop
  endfacet
  facet normal 0 -1 0
    outer loop
      vertex 13.6971 -7 2.30294
      vertex 17 -7 0
      vertex 14.4 -7 4
    endloop
  endfacet
  facet normal 0 -1 0
    outer loop
      vertex 12 -7 1.6
      vertex 17 -7 0
      vertex 13.6971 -7 2.30294
    endloop
  endfacet
endsolid OpenSCAD_Model
