solid OpenSCAD_Model
  facet normal -1 0 0
    outer loop
      vertex 18.5 8.5 0
      vertex 18.5 15.5 38
      vertex 18.5 15.5 0
    endloop
  endfacet
  facet normal -1 -0 0
    outer loop
      vertex 18.5 15.5 38
      vertex 18.5 8.5 0
      vertex 18.5 8.5 38
    endloop
  endfacet
  facet normal 0 0 -1
    outer loop
      vertex 31 0 38
      vertex 22.5 8.5 38
      vertex 31 24 38
    endloop
  endfacet
  facet normal 0 0 -1
    outer loop
      vertex 31 0 38
      vertex 18.5 8.5 38
      vertex 22.5 8.5 38
    endloop
  endfacet
  facet normal -0 0 -1
    outer loop
      vertex 18.5 8.5 38
      vertex 0 0 38
      vertex 18.5 15.5 38
    endloop
  endfacet
  facet normal 0 0 -1
    outer loop
      vertex 0 0 38
      vertex 18.5 8.5 38
      vertex 31 0 38
    endloop
  endfacet
  facet normal 0 0 -1
    outer loop
      vertex 22.5 15.5 38
      vertex 31 24 38
      vertex 22.5 8.5 38
    endloop
  endfacet
  facet normal 0 0 -1
    outer loop
      vertex 18.5 15.5 38
      vertex 31 24 38
      vertex 22.5 15.5 38
    endloop
  endfacet
  facet normal 0 0 -1
    outer loop
      vertex 18.5 15.5 38
      vertex 0 24 38
      vertex 31 24 38
    endloop
  endfacet
  facet normal 0 0 -1
    outer loop
      vertex 0 24 38
      vertex 18.5 15.5 38
      vertex 0 0 38
    endloop
  endfacet
  facet normal 1 -0 0
    outer loop
      vertex 22.5 8.5 38
      vertex 22.5 15.5 0
      vertex 22.5 15.5 38
    endloop
  endfacet
  facet normal 1 0 0
    outer loop
      vertex 22.5 15.5 0
      vertex 22.5 8.5 38
      vertex 22.5 8.5 0
    endloop
  endfacet
  facet normal 0 1 -0
    outer loop
      vertex 22.5 15.5 0
      vertex 18.5 15.5 38
      vertex 22.5 15.5 38
    endloop
  endfacet
  facet normal 0 1 0
    outer loop
      vertex 18.5 15.5 38
      vertex 22.5 15.5 0
      vertex 18.5 15.5 0
    endloop
  endfacet
  facet normal 0 0 -1
    outer loop
      vertex 18.5 8.5 0
      vertex 22.5 15.5 0
      vertex 22.5 8.5 0
    endloop
  endfacet
  facet normal -0 0 -1
    outer loop
      vertex 22.5 15.5 0
      vertex 18.5 8.5 0
      vertex 18.5 15.5 0
    endloop
  endfacet
  facet normal 0 -1 0
    outer loop
      vertex 18.5 8.5 0
      vertex 22.5 8.5 38
      vertex 18.5 8.5 38
    endloop
  endfacet
  facet normal 0 -1 -0
    outer loop
      vertex 22.5 8.5 38
      vertex 18.5 8.5 0
      vertex 22.5 8.5 0
    endloop
  endfacet
  facet normal -1 0 0
    outer loop
      vertex 0 0 38
      vertex 0 24 45
      vertex 0 24 38
    endloop
  endfacet
  facet normal -1 -0 0
    outer loop
      vertex 0 24 45
      vertex 0 0 38
      vertex 0 0 45
    endloop
  endfacet
  facet normal -0 0 1
    outer loop
      vertex 0 24 45
      vertex 31 0 45
      vertex 31 24 45
    endloop
  endfacet
  facet normal 0 0 1
    outer loop
      vertex 31 0 45
      vertex 0 24 45
      vertex 0 0 45
    endloop
  endfacet
  facet normal 1 -0 0
    outer loop
      vertex 31 0 45
      vertex 31 24 38
      vertex 31 24 45
    endloop
  endfacet
  facet normal 1 0 0
    outer loop
      vertex 31 24 38
      vertex 31 0 45
      vertex 31 0 38
    endloop
  endfacet
  facet normal 0 1 -0
    outer loop
      vertex 31 24 38
      vertex 0 24 45
      vertex 31 24 45
    endloop
  endfacet
  facet normal 0 1 0
    outer loop
      vertex 0 24 45
      vertex 31 24 38
      vertex 0 24 38
    endloop
  endfacet
  facet normal 0 -1 0
    outer loop
      vertex 0 0 38
      vertex 31 0 45
      vertex 0 0 45
    endloop
  endfacet
  facet normal 0 -1 -0
    outer loop
      vertex 31 0 45
      vertex 0 0 38
      vertex 31 0 38
    endloop
  endfacet
endsolid OpenSCAD_Model
